<svg width="15" height="16" viewBox="0 0 15 16" fill="none" xmlns="http://www.w3.org/2000/svg">
<rect x="15" y="15.5" width="15" height="15" rx="7.5" transform="rotate(-180 15 15.5)" fill="#1843BF"/>
<g clip-path="url(#clip0_3879_18789)">
<path d="M12.2295 4.84625L5.89583 10.6038C5.85324 10.6426 5.80264 10.6735 5.74691 10.6945C5.69119 10.7155 5.63144 10.7264 5.5711 10.7264C5.51076 10.7264 5.45101 10.7155 5.39528 10.6945C5.33956 10.6735 5.28895 10.6426 5.24637 10.6038L2.79704 8.375C2.75445 8.33614 2.70385 8.3053 2.64812 8.28426C2.5924 8.26321 2.53265 8.25238 2.47231 8.25238C2.41197 8.25238 2.35222 8.26321 2.29649 8.28426C2.24077 8.3053 2.19016 8.33614 2.14758 8.375C2.10483 8.41372 2.0709 8.45972 2.04776 8.51038C2.02461 8.56104 2.0127 8.61536 2.0127 8.67021C2.0127 8.72507 2.02461 8.77938 2.04776 8.83004C2.0709 8.8807 2.10483 8.92671 2.14758 8.96542L4.59783 11.1925C4.8563 11.427 5.20658 11.5588 5.57179 11.5588C5.93699 11.5588 6.28727 11.427 6.54574 11.1925L12.879 5.43625C12.9217 5.39755 12.9555 5.35157 12.9786 5.30095C13.0018 5.25033 13.0136 5.19606 13.0136 5.14125C13.0136 5.08645 13.0018 5.03218 12.9786 4.98156C12.9555 4.93094 12.9217 4.88496 12.879 4.84625C12.8364 4.80739 12.7858 4.77655 12.7301 4.75551C12.6744 4.73446 12.6146 4.72363 12.5543 4.72363C12.4939 4.72363 12.4342 4.73446 12.3785 4.75551C12.3227 4.77655 12.2721 4.80739 12.2295 4.84625Z" fill="white"/>
</g>
<defs>
<clipPath id="clip0_3879_18789">
<rect width="11" height="10" fill="white" transform="translate(2 3)"/>
</clipPath>
</defs>
</svg>
