<svg width="64" height="64" viewBox="0 0 64 64" fill="none" xmlns="http://www.w3.org/2000/svg">
<path d="M49.1075 7.40786C36.8106 7.40786 28.3662 1.03809 22.4408 1.03809C16.5155 1.03809 4.07104 4.44431 4.07104 31.703C4.07104 58.9616 20.8124 62.9616 27.3297 62.9616C57.8488 62.9634 70.8853 7.40786 49.1075 7.40786Z" fill="white"/>
<path d="M54.2222 12.4442C52.752 12.4442 51.5555 11.2477 51.5555 9.7775C51.5555 8.30728 52.752 7.11084 54.2222 7.11084C55.6924 7.11084 56.8889 8.30728 56.8889 9.7775C56.8889 11.2477 55.6924 12.4442 54.2222 12.4442ZM54.2222 8.88862C53.7315 8.88862 53.3333 9.28684 53.3333 9.7775C53.3333 10.2682 53.7315 10.6664 54.2222 10.6664C54.7129 10.6664 55.1111 10.2682 55.1111 9.7775C55.1111 9.28684 54.7129 8.88862 54.2222 8.88862Z" fill="#A4AFC1"/>
<path d="M25.3333 24.4443H19.9999C18.5279 24.4443 17.3333 25.639 17.3333 27.111V49.3332C17.3333 50.8052 18.5279 51.9999 19.9999 51.9999H31.5555C33.0275 51.9999 34.2222 50.8052 34.2222 49.3332V28.0888C34.2222 26.1474 32.6666 24.5652 30.7253 24.5332L25.3333 24.4443Z" fill="#F3F3F1"/>
<path d="M17.3333 46.6665V49.3332C17.3333 50.8052 18.5279 51.9998 19.9999 51.9998H31.5555C33.0275 51.9998 34.2222 50.8052 34.2222 49.3332V46.6665H17.3333Z" fill="#FEB46D"/>
<path d="M20.8888 49.3332V27.111C20.8888 25.639 22.0835 24.4443 23.5555 24.4443H19.9999C18.5279 24.4443 17.3333 25.639 17.3333 27.111V49.3332C17.3333 50.8052 18.5279 51.9999 19.9999 51.9999H23.5555C22.0835 51.9999 20.8888 50.8052 20.8888 49.3332Z" fill="#D5DBE1"/>
<path d="M20.8888 49.3332V46.6665H17.3333V49.3332C17.3333 50.8052 18.5279 51.9998 19.9999 51.9998H23.5555C22.0835 51.9998 20.8888 50.8052 20.8888 49.3332Z" fill="#343434"/>
<path d="M31.5555 53.333H20C17.7938 53.333 16 51.5393 16 49.3331V27.1108C16 24.9046 17.7938 23.1108 20 23.1108H25.3333C26.0693 23.1108 26.6667 23.7082 26.6667 24.4442C26.6667 25.1802 26.0693 25.7775 25.3333 25.7775H20C19.264 25.7775 18.6667 26.3748 18.6667 27.1108V49.3331C18.6667 50.0691 19.264 50.6664 20 50.6664H31.5555C32.2915 50.6664 32.8889 50.0691 32.8889 49.3331V33.3331C32.8889 32.5971 33.4862 31.9997 34.2222 31.9997C34.9582 31.9997 35.5555 32.5953 35.5555 33.3331V49.3331C35.5555 51.5393 33.7618 53.333 31.5555 53.333Z" fill="black"/>
<path d="M34.2222 47.9997H17.3333C16.5973 47.9997 16 47.4024 16 46.6664C16 45.9303 16.5973 45.333 17.3333 45.333H34.2222C34.9582 45.333 35.5555 45.9303 35.5555 46.6664C35.5555 47.4024 34.9582 47.9997 34.2222 47.9997Z" fill="black"/>
<path d="M47.9999 28.4443H45.3333V27.111C45.3333 19.5145 39.1519 13.3332 31.5555 13.3332H30.2222V10.6665H31.5555C40.6239 10.6665 47.9999 18.0425 47.9999 27.111V28.4443Z" fill="black"/>
<path d="M42.9635 28.4445H40.2968V27.1111C40.2968 22.2916 36.3751 18.3698 31.5555 18.3698H30.2222V15.7031H31.5555C37.8453 15.7031 42.9635 20.8196 42.9635 27.1111V28.4445Z" fill="black"/>
<path d="M37.9253 28.4443H35.2586V27.111C35.2586 25.0683 33.5964 23.4079 31.5555 23.4079H30.2222V20.7412H31.5555C35.0684 20.7412 37.9253 23.5981 37.9253 27.111V28.4443Z" fill="black"/>
</svg>
