<svg width="64" height="64" viewBox="0 0 64 64" fill="none" xmlns="http://www.w3.org/2000/svg">
<path d="M7.40811 49.193C7.40811 36.8961 1.03833 28.4517 1.03833 22.5263C1.03833 16.601 4.44455 4.15479 31.7032 4.15479C58.9619 4.15479 62.9619 20.8961 62.9619 27.4135C62.9636 57.9326 7.40811 70.9708 7.40811 49.193Z" fill="#F5F8FB"/>
<path d="M43.1112 18.2167V23.5501H15.5556C13.6001 23.5501 12.0001 21.9679 12.0001 19.9945C12.0001 19.0167 12.3912 18.1279 13.049 17.4879C13.689 16.8301 14.5778 16.439 15.5556 16.439H41.3334C42.329 16.439 43.1112 17.239 43.1112 18.2167Z" fill="#F3F3F1"/>
<path d="M16.0001 19.9945C16.0001 19.0167 16.3912 18.1279 17.049 17.4879C17.689 16.8301 18.5778 16.439 19.5556 16.439H15.5556C14.5778 16.439 13.689 16.8301 13.049 17.4879C12.3912 18.1279 12.0001 19.0167 12.0001 19.9945C12.0001 21.9679 13.6001 23.5501 15.5556 23.5501H19.5556C17.6001 23.5501 16.0001 21.9679 16.0001 19.9945Z" fill="#D5DBE1"/>
<path d="M48.4445 25.328V47.5502C48.4445 48.5279 47.6445 49.3279 46.6668 49.3279H15.5557C13.6001 49.3279 12.0001 47.7279 12.0001 45.7724V19.9946C12.0001 21.968 13.6001 23.5502 15.5557 23.5502H46.6668C47.6445 23.5502 48.4445 24.3502 48.4445 25.328Z" fill="#F3F3F1"/>
<path d="M16.0001 45.7724V23.5502H15.5557C13.6001 23.5502 12.0001 21.968 12.0001 19.9946V45.7724C12.0001 47.7279 13.6001 49.3279 15.5557 49.3279H19.5557C17.6001 49.3279 16.0001 47.7279 16.0001 45.7724Z" fill="#D5DBE1"/>
<path d="M52.0001 40.4443H45.3334C43.1237 40.4443 41.3334 38.6541 41.3334 36.4443C41.3334 34.2346 43.1237 32.4443 45.3334 32.4443H52.0001V40.4443Z" fill="#FEB46D"/>
<path d="M45.3334 36.4443C45.3334 34.2346 47.1237 32.4443 49.3334 32.4443H45.3334C43.1237 32.4443 41.3334 34.2346 41.3334 36.4443C41.3334 38.6541 43.1237 40.4443 45.3334 40.4443H49.3334C47.1237 40.4443 45.3334 38.6541 45.3334 36.4443Z" fill="#FF7F2E"/>
<path d="M36.4446 13.7778L32.0001 16.4445L20.1423 23.5556H42.1512L36.4446 13.7778Z" fill="#FEB46D"/>
<path d="M36.4446 13.7778L32.0001 16.4445L20.1423 23.5556H26.3645L38.0588 16.5423L36.4446 13.7778Z" fill="#FF7F2E"/>
<path d="M12.0001 11.4969C10.5299 11.4969 9.33344 10.3005 9.33344 8.83024C9.33344 7.36002 10.5299 6.16357 12.0001 6.16357C13.4703 6.16357 14.6668 7.36002 14.6668 8.83024C14.6668 10.3005 13.4703 11.4969 12.0001 11.4969ZM12.0001 7.94135C11.5112 7.94135 11.1112 8.33957 11.1112 8.83024C11.1112 9.3209 11.5112 9.71913 12.0001 9.71913C12.489 9.71913 12.889 9.3209 12.889 8.83024C12.889 8.33957 12.489 7.94135 12.0001 7.94135Z" fill="#A4AFC1"/>
<path d="M53.5556 13.1108H57.1111V14.8886H53.5556V13.1108Z" fill="#A4AFC1"/>
<path d="M49.5556 6.88867H51.3334V10.4442H49.5556V6.88867Z" fill="#A4AFC1"/>
<path d="M49.5556 17.1108H51.3334V20.6664H49.5556V17.1108Z" fill="#A4AFC1"/>
<path d="M13.3334 20.0002H10.6667C10.6667 17.3051 12.8587 15.1113 15.5556 15.1113H32.0001V17.778H15.5556C14.3307 17.778 13.3334 18.7753 13.3334 20.0002Z" fill="black"/>
<path d="M46.6668 50.6671H15.5556C12.8587 50.6671 10.6667 48.4751 10.6667 45.7782V20.0005H13.3334V45.7782C13.3334 47.0049 14.3308 48.0005 15.5556 48.0005H46.6668C46.9086 48.0005 47.1112 47.7978 47.1112 47.556V40.4449H49.7779V47.556C49.7779 49.2716 48.3823 50.6671 46.6668 50.6671Z" fill="black"/>
<path d="M52.0001 41.778H45.3334C42.393 41.778 40.0001 39.3851 40.0001 36.4447C40.0001 33.5042 42.393 31.1113 45.3334 31.1113H52.0001C52.7361 31.1113 53.3334 31.7087 53.3334 32.4447V40.4447C53.3334 41.1807 52.7361 41.778 52.0001 41.778ZM45.3334 33.778C43.8632 33.778 42.6668 34.9744 42.6668 36.4447C42.6668 37.9149 43.8632 39.1113 45.3334 39.1113H50.6668V33.778H45.3334Z" fill="black"/>
<path d="M44.4445 23.5558H41.7779V18.2224C41.7779 17.9807 41.5752 17.778 41.3334 17.778H38.009V15.1113H41.3334C43.049 15.1113 44.4445 16.5069 44.4445 18.2224V23.5558Z" fill="black"/>
<path d="M20.8285 24.6989L19.4579 22.4127L35.7601 12.6349C36.0659 12.4518 36.4339 12.3985 36.777 12.4874C37.1219 12.5763 37.417 12.7985 37.5965 13.1078L43.3032 22.8856L41.001 24.2296L35.9752 15.618L20.8285 24.6989Z" fill="black"/>
<path d="M49.7779 32.4449H47.1112V25.3338C47.1112 25.092 46.9086 24.8894 46.6668 24.8894H15.5556C14.2596 24.8894 13.0347 24.3774 12.1067 23.4494C11.177 22.5196 10.6667 21.2965 10.6667 20.0005H13.3334C13.3334 20.5836 13.5681 21.14 13.9912 21.5649C14.4161 21.988 14.9725 22.2227 15.5556 22.2227H46.6668C48.3823 22.2227 49.7779 23.6183 49.7779 25.3338V32.4449Z" fill="black"/>
</svg>
