<svg width="65" height="65" viewBox="0 0 65 65" fill="none" xmlns="http://www.w3.org/2000/svg">
<path d="M24.2143 63.1927C35.5857 58.0307 46.0706 60.3779 51.5504 57.8916C57.0303 55.4036 67.1089 47.0294 55.6671 21.8202C44.2253 -3.38893 27.0653 -0.0630925 21.0365 2.67232C-7.18792 15.4827 4.07333 72.3343 24.2143 63.1927Z" fill="#F5F8FB"/>
<path d="M59.5833 12.778C58.0901 12.778 56.875 11.5629 56.875 10.0697C56.875 8.57647 58.0901 7.36133 59.5833 7.36133C61.0765 7.36133 62.2917 8.57647 62.2917 10.0697C62.2917 11.5629 61.0765 12.778 59.5833 12.778ZM59.5833 9.16688C59.085 9.16688 58.6806 9.57313 58.6806 10.0697C58.6806 10.5662 59.085 10.9724 59.5833 10.9724C60.0817 10.9724 60.4861 10.5662 60.4861 10.0697C60.4861 9.57313 60.0817 9.16688 59.5833 9.16688Z" fill="#A4AFC1"/>
<path d="M34.7569 47.3958C34.7569 48.3925 33.9481 49.2014 32.9514 49.2014H15.2768C13.5706 49.2014 12.1875 47.7967 12.1875 46.0651V15.3238C12.1875 13.5922 13.5706 12.1875 15.2768 12.1875H31.6694C33.3757 12.1875 34.7588 13.5922 34.7588 15.3238V27.5347V47.3958H34.7569Z" fill="#FEB46D"/>
<path d="M18.8861 49.2014H15.275C13.5778 49.2014 12.1875 47.7931 12.1875 46.0597V15.3292C12.1875 13.5958 13.5778 12.1875 15.275 12.1875H18.8861C17.1889 12.1875 15.7986 13.5958 15.7986 15.3292V46.0597C15.7986 47.7931 17.1889 49.2014 18.8861 49.2014Z" fill="#FF7F2E"/>
<path d="M31.1458 50.5555H13.7313C12.1333 50.5555 10.8333 49.2446 10.8333 47.6341V13.7546C10.8333 12.1441 12.1333 10.8333 13.7313 10.8333H33.2114C34.8111 10.8333 36.1111 12.1441 36.1111 13.7546V31.1457H33.4028V13.7546C33.4028 13.6373 33.3179 13.5416 33.2132 13.5416H13.7313C13.6265 13.5416 13.5417 13.6373 13.5417 13.7546V47.6341C13.5417 47.7514 13.6265 47.8471 13.7313 47.8471H31.1458V50.5555Z" fill="black"/>
<path d="M19.8611 14.4443H27.0833V17.1527H19.8611V14.4443Z" fill="black"/>
<path d="M14.4444 43.3333H19.8611V46.0416H14.4444V43.3333Z" fill="black"/>
<path d="M27.0833 43.3333H32.5V46.0416H27.0833V43.3333Z" fill="black"/>
<path d="M38.8195 41.5278H36.1111V37.4653C36.1111 36.7178 36.7178 36.1111 37.4653 36.1111H41.5278V38.8194H38.8195V41.5278Z" fill="black"/>
<path d="M52.8125 54.1666H46.0417V51.4583H51.4583V47.8472H54.1667V52.8124C54.1667 53.5599 53.56 54.1666 52.8125 54.1666Z" fill="black"/>
<path d="M52.8125 45.1389H48.2986C47.5511 45.1389 46.9444 44.5322 46.9444 43.7847V37.4653C46.9444 36.7178 47.5511 36.1111 48.2986 36.1111H52.8125C53.56 36.1111 54.1667 36.7178 54.1667 37.4653V43.7847C54.1667 44.5322 53.56 45.1389 52.8125 45.1389ZM49.6528 42.4305H51.4583V38.8194H49.6528V42.4305Z" fill="black"/>
<path d="M43.7847 54.1666H37.4653C36.7178 54.1666 36.1111 53.5599 36.1111 52.8124V48.2985C36.1111 47.551 36.7178 46.9443 37.4653 46.9443H43.7847C44.5322 46.9443 45.1389 47.551 45.1389 48.2985V52.8124C45.1389 53.5599 44.5322 54.1666 43.7847 54.1666ZM38.8194 51.4582H42.4306V49.6527H38.8194V51.4582Z" fill="black"/>
<path d="M36.1111 42.8818H43.2774V45.5902H36.1111V42.8818Z" fill="black"/>
<path d="M46.4931 46.9443H49.2014V50.5554H46.4931V46.9443Z" fill="black"/>
<path d="M42.8819 36.1111H45.5903V41.5278H42.8819V36.1111Z" fill="black"/>
</svg>
