<svg width="64" height="64" viewBox="0 0 31 31" fill="none" xmlns="http://www.w3.org/2000/svg">
<g clip-path="url(#clip0_737_29100)">
<path d="M27.0275 23.5192C27.0275 17.755 30.0133 13.7967 30.0133 11.0192C30.0133 8.24168 28.4167 2.40834 15.6392 2.40834C2.86167 2.40834 0.98584 10.2558 0.98584 13.3108C0.98584 27.6167 27.0275 33.7275 27.0275 23.5192Z" fill="white"/>
<path d="M25.0834 10.5C24.3942 10.5 23.8334 9.93916 23.8334 9.25C23.8334 8.56083 24.3942 8 25.0834 8C25.7725 8 26.3334 8.56083 26.3334 9.25C26.3334 9.93916 25.7725 10.5 25.0834 10.5ZM25.0834 8.83333C24.8534 8.83333 24.6667 9.02 24.6667 9.25C24.6667 9.48 24.8534 9.66666 25.0834 9.66666C25.3134 9.66666 25.5 9.48 25.5 9.25C25.5 9.02 25.3134 8.83333 25.0834 8.83333Z" fill="#A4AFC1"/>
<path d="M10.2917 15.7084L6.125 11.75L10.2917 7.79167V10.2917H18.625C18.855 10.2917 19.0416 10.4783 19.0416 10.7083V12.7917C19.0416 13.0217 18.855 13.2083 18.625 13.2083H10.2917V15.7084Z" fill="#F3F3F1"/>
<path d="M20.7084 15.2917L24.875 19.25L20.7084 23.2084V20.7083H12.375C12.145 20.7083 11.9584 20.5217 11.9584 20.2917V18.2083C11.9584 17.9783 12.145 17.7917 12.375 17.7917H20.7084V15.2917Z" fill="#FEB46D"/>
<path d="M13.8334 20.2917V18.2083C13.8334 17.9783 14.02 17.7917 14.25 17.7917H12.375C12.145 17.7917 11.9584 17.9783 11.9584 18.2083V20.2917C11.9584 20.5217 12.145 20.7083 12.375 20.7083H14.25C14.02 20.7083 13.8334 20.5217 13.8334 20.2917Z" fill="#FF7F2E"/>
<path d="M8 11.75L10.2917 9.57334V7.79167L6.125 11.75L10.2917 15.7084V13.9267L8 11.75Z" fill="#D5DBE1"/>
<path d="M10.2917 16.3333C10.135 16.3333 9.97917 16.2742 9.86083 16.1617L5.69417 12.2033C5.57 12.085 5.5 11.9217 5.5 11.75C5.5 11.5783 5.57 11.415 5.69417 11.2967L9.86083 7.33833C10.0425 7.16666 10.3092 7.11833 10.5383 7.2175C10.7675 7.31583 10.9167 7.54166 10.9167 7.79166V9.66666H18.625C19.1992 9.66666 19.6667 10.1342 19.6667 10.7083V12.7917C19.6667 13.3658 19.1992 13.8333 18.625 13.8333H10.9167V15.7083C10.9167 15.9583 10.7675 16.1842 10.5383 16.2825C10.4592 16.3167 10.375 16.3333 10.2917 16.3333ZM7.0325 11.75L9.66667 14.2525V13.2083C9.66667 12.8633 9.94667 12.5833 10.2917 12.5833H18.4167V10.9167H10.2917C9.94667 10.9167 9.66667 10.6367 9.66667 10.2917V9.2475L7.0325 11.75Z" fill="black"/>
<path d="M20.7084 23.8333C20.625 23.8333 20.5409 23.8167 20.4617 23.7825C20.2325 23.6842 20.0834 23.4583 20.0834 23.2083V21.3333H12.375C11.8009 21.3333 11.3334 20.8658 11.3334 20.2917V18.2083C11.3334 17.6342 11.8009 17.1667 12.375 17.1667H20.0834V15.2917C20.0834 15.0417 20.2325 14.8158 20.4617 14.7175C20.6909 14.6192 20.9575 14.6658 21.1392 14.8383L25.3059 18.7967C25.43 18.915 25.5 19.0783 25.5 19.25C25.5 19.4217 25.43 19.585 25.3059 19.7033L21.1392 23.6617C21.0209 23.7742 20.865 23.8333 20.7084 23.8333ZM12.5834 20.0833H20.7084C21.0534 20.0833 21.3334 20.3633 21.3334 20.7083V21.7525L23.9675 19.25L21.3334 16.7475V17.7917C21.3334 18.1367 21.0534 18.4167 20.7084 18.4167H12.5834V20.0833Z" fill="black"/>
</g>
<defs>
<clipPath id="clip0_737_29100">
<rect width="30" height="30" fill="white" transform="translate(0.5 0.5)"/>
</clipPath>
</defs>
</svg>
