<svg width="66" height="65" viewBox="0 0 66 65" fill="none" xmlns="http://www.w3.org/2000/svg">
<path d="M21.3209 62.8368C33.3188 59.372 43.3541 63.2088 49.1355 61.5387C54.9169 59.8685 66.1005 53.0381 58.4197 26.4387C50.7388 -0.160788 33.2791 0.655324 26.9181 2.49157C-2.8609 11.0914 0.0713177 68.9739 21.3209 62.8368Z" fill="#EFEFEF"/>
<path d="M23.9355 10.3389L26.489 7.78543L27.7657 9.06215L25.2123 11.6156L23.9355 10.3389Z" fill="#A4AFC1"/>
<path d="M16.5938 17.6792L19.1472 15.1258L20.4239 16.4025L17.8705 18.9559L16.5938 17.6792Z" fill="#A4AFC1"/>
<path d="M16.5959 8.74561L17.8727 7.46888L20.4274 10.0236L19.1507 11.3003L16.5959 8.74561Z" fill="#A4AFC1"/>
<path d="M57.4505 60.2604C55.9573 60.2604 54.7422 59.0453 54.7422 57.5521C54.7422 56.0589 55.9573 54.8438 57.4505 54.8438C58.9437 54.8438 60.1589 56.0589 60.1589 57.5521C60.1589 59.0453 58.9437 60.2604 57.4505 60.2604ZM57.4505 56.6493C56.954 56.6493 56.5477 57.0538 56.5477 57.5521C56.5477 58.0504 56.954 58.4549 57.4505 58.4549C57.947 58.4549 58.3533 58.0504 58.3533 57.5521C58.3533 57.0538 57.947 56.6493 57.4505 56.6493Z" fill="#A4AFC1"/>
<path d="M32.9987 31.1458C38.2339 31.1458 42.4779 26.9019 42.4779 21.6667C42.4779 16.4315 38.2339 12.1875 32.9987 12.1875C27.7635 12.1875 23.5195 16.4315 23.5195 21.6667C23.5195 26.9019 27.7635 31.1458 32.9987 31.1458Z" fill="#FEB46D"/>
<path d="M47.4444 43.7844C48.6909 43.7844 49.7014 42.7739 49.7014 41.5275C49.7014 40.281 48.6909 39.2705 47.4444 39.2705C46.198 39.2705 45.1875 40.281 45.1875 41.5275C45.1875 42.7739 46.198 43.7844 47.4444 43.7844Z" fill="#F3F3F1"/>
<path d="M41.5762 52.8127V51.9099C41.5762 49.9148 43.1921 48.2988 45.1873 48.2988H49.7012C51.6963 48.2988 53.3123 49.9148 53.3123 51.9099V52.8127H41.5762Z" fill="#FEB46D"/>
<path d="M18.5538 43.7844C19.8003 43.7844 20.8108 42.7739 20.8108 41.5275C20.8108 40.281 19.8003 39.2705 18.5538 39.2705C17.3073 39.2705 16.2969 40.281 16.2969 41.5275C16.2969 42.7739 17.3073 43.7844 18.5538 43.7844Z" fill="#F3F3F1"/>
<path d="M12.6875 52.8127V51.9099C12.6875 49.9148 14.3035 48.2988 16.2986 48.2988H20.8125C22.8076 48.2988 24.4236 49.9148 24.4236 51.9099V52.8127H12.6875Z" fill="#FEB46D"/>
<path d="M27.1306 21.6667C27.1306 17.0499 30.4348 13.2131 34.8043 12.3699C34.2193 12.2561 33.618 12.1875 32.9987 12.1875C27.7644 12.1875 23.5195 16.4306 23.5195 21.6667C23.5195 26.901 27.7644 31.1458 32.9987 31.1458C33.618 31.1458 34.2193 31.0772 34.8043 30.9635C30.4348 30.1203 27.1306 26.2835 27.1306 21.6667Z" fill="#FF6600"/>
<path d="M19.9097 48.2988H16.2986C14.3035 48.2988 12.6875 49.9148 12.6875 51.9099V52.8127H16.2986V51.9099C16.2986 49.9148 17.9146 48.2988 19.9097 48.2988Z" fill="#FF6600"/>
<path d="M48.7984 48.2988H45.1873C43.1921 48.2988 41.5762 49.9148 41.5762 51.9099V52.8127H45.1873V51.9099C45.1873 49.9148 46.8033 48.2988 48.7984 48.2988Z" fill="#FF6600"/>
<path d="M34.3531 42.4305V31.5972H31.6447V42.4305H27.1309V45.1388H32.9989H38.867V42.4305H34.3531Z" fill="black"/>
<path d="M32.9993 32.4997C27.0248 32.4997 22.166 27.6409 22.166 21.6663C22.166 15.6918 27.0248 10.833 32.9993 10.833C38.9739 10.833 43.8327 15.6918 43.8327 21.6663C43.8327 23.0801 43.5655 24.4523 43.0364 25.7487L40.5285 24.7268C40.9239 23.7572 41.1243 22.728 41.1243 21.6663C41.1243 17.1868 37.4789 13.5413 32.9993 13.5413C28.5198 13.5413 24.8743 17.1868 24.8743 21.6663C24.8743 26.1459 28.5198 29.7913 32.9993 29.7913C35.4657 29.7913 37.7696 28.69 39.3206 26.7725L41.4259 28.4733C39.3585 31.0336 36.2873 32.4997 32.9993 32.4997Z" fill="black"/>
<path d="M47.4431 45.1387C45.4516 45.1387 43.832 43.5191 43.832 41.5276C43.832 39.5361 45.4516 37.9165 47.4431 37.9165C49.4347 37.9165 51.0543 39.5361 51.0543 41.5276C51.0543 43.5191 49.4347 45.1387 47.4431 45.1387ZM47.4431 40.6248C46.9466 40.6248 46.5404 41.0293 46.5404 41.5276C46.5404 42.0259 46.9466 42.4304 47.4431 42.4304C47.9397 42.4304 48.3459 42.0259 48.3459 41.5276C48.3459 41.0293 47.9397 40.6248 47.4431 40.6248Z" fill="black"/>
<path d="M54.6651 52.8124H51.9568V51.9096C51.9568 50.6656 50.9439 49.6527 49.6999 49.6527H45.186C43.942 49.6527 42.929 50.6656 42.929 51.9096V52.8124H40.2207V51.9096C40.2207 49.1706 42.447 46.9443 45.186 46.9443H49.6999C52.4389 46.9443 54.6651 49.1706 54.6651 51.9096V52.8124Z" fill="black"/>
<path d="M18.5545 45.1387C16.5629 45.1387 14.9434 43.5191 14.9434 41.5276C14.9434 39.5361 16.5629 37.9165 18.5545 37.9165C20.546 37.9165 22.1656 39.5361 22.1656 41.5276C22.1656 43.5191 20.546 45.1387 18.5545 45.1387ZM18.5545 40.6248C18.0579 40.6248 17.6517 41.0293 17.6517 41.5276C17.6517 42.0259 18.0579 42.4304 18.5545 42.4304C19.051 42.4304 19.4572 42.0259 19.4572 41.5276C19.4572 41.0293 19.051 40.6248 18.5545 40.6248Z" fill="black"/>
<path d="M25.7765 52.8124H23.0681V51.9096C23.0681 50.6656 22.0552 49.6527 20.8112 49.6527H16.2973C15.0533 49.6527 14.0404 50.6656 14.0404 51.9096V52.8124H11.332V51.9096C11.332 49.1706 13.5583 46.9443 16.2973 46.9443H20.8112C23.5502 46.9443 25.7765 49.1706 25.7765 51.9096V52.8124Z" fill="black"/>
<path d="M31.6445 24.8262H34.3529V28.8887H31.6445V24.8262Z" fill="black"/>
<path d="M31.6445 14.4443H34.3529V18.5068H31.6445V14.4443Z" fill="black"/>
<path d="M33.2255 27.0833H29.3887V24.375H33.2255C33.5992 24.375 33.9026 24.0717 33.9026 23.6979C33.9026 23.3242 33.5992 23.0208 33.2255 23.0208H32.7741C30.9071 23.0208 29.3887 21.5024 29.3887 19.6354C29.3887 17.7685 30.9071 16.25 32.7741 16.25H36.6109V18.9583H32.7741C32.4003 18.9583 32.097 19.2617 32.097 19.6354C32.097 20.0092 32.4003 20.3125 32.7741 20.3125H33.2255C35.0924 20.3125 36.6109 21.831 36.6109 23.6979C36.6109 25.5649 35.0924 27.0833 33.2255 27.0833Z" fill="black"/>
</svg>
