<svg width="18" height="18" viewBox="0 0 18 18" fill="none" xmlns="http://www.w3.org/2000/svg">
<g clip-path="url(#clip0_3715_36214)">
<path d="M15.1362 3.54563H13.0225C12.8643 2.77614 12.4456 2.08473 11.837 1.58794C11.2285 1.09115 10.4672 0.819351 9.68164 0.818359L8.318 0.818359C7.53241 0.819351 6.77118 1.09115 6.16261 1.58794C5.55404 2.08473 5.13534 2.77614 4.9771 3.54563H2.86346C2.68263 3.54563 2.50921 3.61747 2.38134 3.74533C2.25347 3.8732 2.18164 4.04662 2.18164 4.22745C2.18164 4.40828 2.25347 4.5817 2.38134 4.70957C2.50921 4.83743 2.68263 4.90927 2.86346 4.90927H3.54528V13.7729C3.54636 14.6767 3.90588 15.5432 4.54497 16.1823C5.18407 16.8214 6.05055 17.1809 6.95437 17.182H11.0453C11.9491 17.1809 12.8156 16.8214 13.4547 16.1823C14.0938 15.5432 14.4533 14.6767 14.4544 13.7729V4.90927H15.1362C15.317 4.90927 15.4904 4.83743 15.6183 4.70957C15.7462 4.5817 15.818 4.40828 15.818 4.22745C15.818 4.04662 15.7462 3.8732 15.6183 3.74533C15.4904 3.61747 15.317 3.54563 15.1362 3.54563ZM8.318 2.182H9.68164C10.1046 2.18251 10.517 2.31384 10.8623 2.55798C11.2076 2.80212 11.469 3.1471 11.6105 3.54563H6.38914C6.53067 3.1471 6.79203 2.80212 7.13736 2.55798C7.48269 2.31384 7.89509 2.18251 8.318 2.182ZM13.0907 13.7729C13.0907 14.3154 12.8752 14.8357 12.4916 15.2193C12.108 15.6029 11.5878 15.8184 11.0453 15.8184H6.95437C6.41188 15.8184 5.89161 15.6029 5.50801 15.2193C5.12442 14.8357 4.90891 14.3154 4.90891 13.7729V4.90927H13.0907V13.7729Z" fill="#FF3B2E"/>
<path d="M7.6369 13.0903C7.81772 13.0903 7.99115 13.0184 8.11901 12.8906C8.24688 12.7627 8.31871 12.5893 8.31871 12.4085V8.31756C8.31871 8.13673 8.24688 7.96331 8.11901 7.83544C7.99115 7.70758 7.81772 7.63574 7.6369 7.63574C7.45607 7.63574 7.28264 7.70758 7.15478 7.83544C7.02691 7.96331 6.95508 8.13673 6.95508 8.31756V12.4085C6.95508 12.5893 7.02691 12.7627 7.15478 12.8906C7.28264 13.0184 7.45607 13.0903 7.6369 13.0903Z" fill="#FF3B2E"/>
<path d="M10.3635 13.0903C10.5443 13.0903 10.7177 13.0184 10.8456 12.8906C10.9734 12.7627 11.0453 12.5893 11.0453 12.4085V8.31756C11.0453 8.13673 10.9734 7.96331 10.8456 7.83544C10.7177 7.70758 10.5443 7.63574 10.3635 7.63574C10.1826 7.63574 10.0092 7.70758 9.88134 7.83544C9.75348 7.96331 9.68164 8.13673 9.68164 8.31756V12.4085C9.68164 12.5893 9.75348 12.7627 9.88134 12.8906C10.0092 13.0184 10.1826 13.0903 10.3635 13.0903Z" fill="#FF3B2E"/>
</g>
<defs>
<clipPath id="clip0_3715_36214">
<rect width="16.3636" height="16.3636" fill="white" transform="translate(0.818359 0.818359)"/>
</clipPath>
</defs>
</svg>
