<svg width="25" height="25" viewBox="0 0 25 25" fill="none" xmlns="http://www.w3.org/2000/svg">
<path d="M18.5529 6.15332H12.104C11.6444 6.15332 11.2705 6.52313 11.2705 6.97767V8.91247H12.0314V6.97767C12.0314 6.93806 12.064 6.90583 12.104 6.90583H18.5529C18.593 6.90583 18.6256 6.93806 18.6256 6.97767V13.3557C18.6256 13.3954 18.593 13.4276 18.5529 13.4276H16.6576V14.1801H18.5529C19.0125 14.1801 19.3864 13.8103 19.3864 13.3557V6.97767C19.3864 6.52313 19.0125 6.15332 18.5529 6.15332Z" fill="#1843BF" stroke="#1843BF"/>
<path d="M14.4797 10.2422H8.0308C7.57118 10.2422 7.19727 10.612 7.19727 11.0666V17.4446C7.19729 17.8992 7.57118 18.269 8.0308 18.269H14.4797C14.9393 18.269 15.3133 17.8992 15.3133 17.4446V11.0666C15.3133 10.612 14.9393 10.2422 14.4797 10.2422ZM14.4798 17.5165H8.0308C7.99073 17.5165 7.95814 17.4843 7.95814 17.4446V11.0666C7.95814 11.0269 7.99073 10.9947 8.0308 10.9947H14.4797C14.5198 10.9947 14.5524 11.0269 14.5524 11.0666V17.4446H14.5524C14.5524 17.4843 14.5198 17.5165 14.4798 17.5165Z" fill="#1843BF" stroke="#1843BF"/>
<rect x="0.5" y="0.5" width="24" height="24" rx="2.5" stroke="#C6D6E6"/>
</svg>
