<svg width="14" height="15" viewBox="0 0 14 15" fill="none" xmlns="http://www.w3.org/2000/svg">
<path d="M12.5529 1.15381H6.10401C5.6444 1.15381 5.27051 1.52362 5.27051 1.97816V3.91296H6.03138V1.97816C6.03138 1.93855 6.06397 1.90632 6.10401 1.90632H12.5529C12.593 1.90632 12.6256 1.93855 12.6256 1.97816V8.35622C12.6256 8.39585 12.593 8.42808 12.5529 8.42808H10.6576V9.18059H12.5529C13.0125 9.18059 13.3864 8.81078 13.3864 8.35622V1.97816C13.3864 1.52362 13.0125 1.15381 12.5529 1.15381Z" fill="#1843BF" stroke="#1843BF"/>
<path d="M8.4797 5.24194H2.0308C1.57118 5.24194 1.19727 5.61175 1.19727 6.06632V12.4444C1.19729 12.8989 1.57118 13.2688 2.0308 13.2688H8.47972C8.93934 13.2688 9.31326 12.8989 9.31326 12.4444V6.06632C9.31328 5.61175 8.93932 5.24194 8.4797 5.24194ZM8.47975 12.5162H2.0308C1.99073 12.5162 1.95814 12.484 1.95814 12.4444V6.06632C1.95814 6.02668 1.99073 5.99445 2.0308 5.99445H8.47972C8.5198 5.99445 8.55239 6.02668 8.55239 6.06632V12.4444H8.55241C8.55241 12.484 8.5198 12.5162 8.47975 12.5162Z" fill="#1843BF" stroke="#1843BF"/>
</svg>
