<svg width="35" height="36" viewBox="0 0 35 36" fill="none" xmlns="http://www.w3.org/2000/svg">
<g clip-path="url(#clip0_3721_37617)">
<path d="M21.4788 4.66314C21.6226 2.77765 20.2106 1.13264 18.3251 0.988913C16.4396 0.845185 14.7946 2.25716 14.6509 4.14266C14.5071 6.02815 15.9191 7.67316 17.8046 7.81688C19.6901 7.96061 21.3351 6.54863 21.4788 4.66314Z" fill="#3399FF"/>
<path d="M18.0707 5.63856C17.8261 5.63856 17.587 5.56602 17.3836 5.43012C17.1803 5.29423 17.0217 5.10107 16.9281 4.87508C16.8345 4.6491 16.81 4.40043 16.8577 4.16052C16.9055 3.92061 17.0233 3.70024 17.1962 3.52728C17.3692 3.35431 17.5896 3.23652 17.8295 3.1888C18.0694 3.14108 18.318 3.16558 18.544 3.25918C18.77 3.35279 18.9632 3.51131 19.0991 3.71469C19.235 3.91808 19.3075 4.15719 19.3075 4.4018C19.3072 4.72972 19.1768 5.04412 18.9449 5.276C18.7131 5.50787 18.3987 5.63827 18.0707 5.63856Z" fill="#F5F8FB"/>
<path d="M18.07 35.0224C19.3309 35.0224 20.353 34.0003 20.353 32.7395C20.353 31.4786 19.3309 30.4565 18.07 30.4565C16.8092 30.4565 15.7871 31.4786 15.7871 32.7395C15.7871 34.0003 16.8092 35.0224 18.07 35.0224Z" fill="#3399FF"/>
<path d="M28.0889 9.97859C28.8769 9.97859 29.5157 9.3398 29.5157 8.5518C29.5157 7.7638 28.8769 7.125 28.0889 7.125C27.3009 7.125 26.6621 7.7638 26.6621 8.5518C26.6621 9.3398 27.3009 9.97859 28.0889 9.97859Z" fill="#3399FF"/>
<path d="M8.05055 31.1577C9.46888 31.1577 10.6187 30.0079 10.6187 28.5896C10.6187 27.1713 9.46888 26.0215 8.05055 26.0215C6.63221 26.0215 5.48242 27.1713 5.48242 28.5896C5.48242 30.0079 6.63221 31.1577 8.05055 31.1577Z" fill="#3399FF"/>
<path d="M32.2377 20.2829C31.899 20.2829 31.568 20.1825 31.2864 19.9944C31.0048 19.8062 30.7853 19.5388 30.6557 19.2259C30.5261 18.913 30.4922 18.5688 30.5583 18.2366C30.6244 17.9045 30.7874 17.5994 31.0269 17.3599C31.2664 17.1204 31.5715 16.9574 31.9036 16.8913C32.2358 16.8252 32.58 16.8591 32.8929 16.9887C33.2058 17.1183 33.4732 17.3378 33.6614 17.6194C33.8495 17.901 33.9499 18.232 33.9499 18.5707C33.9499 19.0248 33.7695 19.4603 33.4484 19.7814C33.1273 20.1025 32.6918 20.2829 32.2377 20.2829Z" fill="#3399FF"/>
<path d="M5.00031 21.2083C6.45653 20.6047 7.14771 18.9349 6.5441 17.4787C5.9405 16.0225 4.27068 15.3313 2.81446 15.9349C1.35823 16.5385 0.667054 18.2083 1.27066 19.6646C1.87427 21.1208 3.54409 21.812 5.00031 21.2083Z" fill="#3399FF"/>
<path d="M28.0893 30.5867C29.1924 30.5867 30.0867 29.6924 30.0867 28.5893C30.0867 27.4861 29.1924 26.5918 28.0893 26.5918C26.9861 26.5918 26.0918 27.4861 26.0918 28.5893C26.0918 29.6924 26.9861 30.5867 28.0893 30.5867Z" fill="#3399FF"/>
<path d="M8.0509 11.6907C9.7844 11.6907 11.1897 10.2854 11.1897 8.55188C11.1897 6.81837 9.7844 5.41309 8.0509 5.41309C6.31739 5.41309 4.91211 6.81837 4.91211 8.55188C4.91211 10.2854 6.31739 11.6907 8.0509 11.6907Z" fill="#3399FF"/>
<path d="M8.0513 9.50322C7.83114 9.50325 7.61778 9.42694 7.44758 9.28729C7.27738 9.14764 7.16087 8.95329 7.11791 8.73737C7.07494 8.52144 7.10818 8.2973 7.21195 8.10313C7.31573 7.90897 7.48362 7.75679 7.68702 7.67254C7.89041 7.58828 8.11674 7.57716 8.32741 7.64108C8.53809 7.70499 8.72009 7.83998 8.84239 8.02304C8.9647 8.2061 9.01974 8.42591 8.99815 8.645C8.97655 8.8641 8.87965 9.06893 8.72396 9.22459C8.63575 9.3131 8.5309 9.38328 8.41546 9.4311C8.30002 9.47892 8.17626 9.50343 8.0513 9.50322Z" fill="#F5F8FB"/>
<path d="M4.26074 19.0493H3.54297C3.41606 19.0493 3.29435 18.9989 3.20461 18.9092C3.11487 18.8194 3.06445 18.6977 3.06445 18.5708C3.06445 18.4439 3.11487 18.3222 3.20461 18.2324C3.29435 18.1427 3.41606 18.0923 3.54297 18.0923H4.26074C4.38765 18.0923 4.50936 18.1427 4.5991 18.2324C4.68884 18.3222 4.73926 18.4439 4.73926 18.5708C4.73926 18.6977 4.68884 18.8194 4.5991 18.9092C4.50936 18.9989 4.38765 19.0493 4.26074 19.0493Z" fill="#F5F8FB"/>
<path d="M8.40918 29.0679H7.69141C7.5645 29.0679 7.44278 29.0175 7.35304 28.9277C7.26331 28.838 7.21289 28.7163 7.21289 28.5894C7.21289 28.4624 7.26331 28.3407 7.35304 28.251C7.44278 28.1613 7.5645 28.1108 7.69141 28.1108H8.40918C8.53609 28.1108 8.6578 28.1613 8.74754 28.251C8.83728 28.3407 8.88769 28.4624 8.88769 28.5894C8.88769 28.7163 8.83728 28.838 8.74754 28.9277C8.6578 29.0175 8.53609 29.0679 8.40918 29.0679Z" fill="#F5F8FB"/>
<path d="M18.429 33.2178H17.7109C17.584 33.2178 17.4623 33.1674 17.3726 33.0776C17.2828 32.9879 17.2324 32.8662 17.2324 32.7393C17.2324 32.6123 17.2828 32.4906 17.3726 32.4009C17.4623 32.3112 17.584 32.2607 17.7109 32.2607H18.429C18.5559 32.2607 18.6776 32.3112 18.7673 32.4009C18.8571 32.4906 18.9075 32.6123 18.9075 32.7393C18.9075 32.8662 18.8571 32.9879 18.7673 33.0776C18.6776 33.1674 18.5559 33.2178 18.429 33.2178Z" fill="#F5F8FB"/>
<path d="M28.4482 29.0679H27.7305C27.6036 29.0679 27.4818 29.0175 27.3921 28.9277C27.3024 28.838 27.252 28.7163 27.252 28.5894C27.252 28.4624 27.3024 28.3407 27.3921 28.251C27.4818 28.1613 27.6036 28.1108 27.7305 28.1108H28.4482C28.5752 28.1108 28.6969 28.1613 28.7866 28.251C28.8763 28.3407 28.9268 28.4624 28.9268 28.5894C28.9268 28.7163 28.8763 28.838 28.7866 28.9277C28.6969 29.0175 28.5752 29.0679 28.4482 29.0679Z" fill="#F5F8FB"/>
</g>
<defs>
<clipPath id="clip0_3721_37617">
<rect width="35" height="35" fill="white" transform="translate(0 0.5)"/>
</clipPath>
</defs>
</svg>
