<svg width="36" height="36" viewBox="0 0 36 36" fill="none" xmlns="http://www.w3.org/2000/svg">
<path d="M17.875 0.125C8.01821 0.125 0 8.14321 0 18C0 27.8568 8.01821 35.875 17.875 35.875C27.7318 35.875 35.75 27.8568 35.75 18C35.75 8.14321 27.7318 0.125 17.875 0.125ZM17.875 2.67857C26.3512 2.67857 33.1964 9.52378 33.1964 18C33.1964 26.4762 26.3512 33.3214 17.875 33.3214C9.39878 33.3214 2.55357 26.4762 2.55357 18C2.55357 9.52378 9.39878 2.67857 17.875 2.67857Z" fill="#33CC66"/>
<path d="M27.3588 10.2564C27.0285 10.2675 26.7141 10.4064 26.4842 10.6426L13.2298 23.8971L7.3247 17.992C7.0869 17.7446 6.75973 17.6026 6.41657 17.5994C6.07343 17.5962 5.74308 17.7302 5.50047 17.9728C5.25788 18.217 5.12381 18.5458 5.12701 18.8889C5.1302 19.232 5.27224 19.5592 5.51962 19.797L12.3281 26.6055H12.3265C12.826 27.1034 13.6336 27.1034 14.1331 26.6055L28.2893 12.4493C28.6675 12.0806 28.7809 11.5189 28.575 11.0337C28.3691 10.5485 27.8855 10.2405 27.3588 10.2565L27.3588 10.2564Z" fill="#33CC66"/>
</svg>
