<svg width="14" height="14" viewBox="0 0 14 14" fill="none" xmlns="http://www.w3.org/2000/svg">
<path d="M7 0C10.8689 0 14 3.13075 14 7C14 10.8688 10.8692 14 7 14C3.13111 14 0 10.8693 0 7C0 3.13116 3.13075 0 7 0ZM6.28116 9.7787C6.28116 9.99986 6.60365 10.221 6.99986 10.221C7.4145 10.221 7.70932 9.99986 7.70932 9.7787V6.26812C7.70932 6.01013 7.41448 5.83502 6.99986 5.83502C6.60365 5.83502 6.28116 6.01013 6.28116 6.26812V9.7787ZM6.99984 4.98739C7.42369 4.98739 7.75537 4.67411 7.75537 4.32395C7.75537 3.97381 7.42366 3.66975 6.99984 3.66975C6.5852 3.66975 6.25346 3.97381 6.25346 4.32395C6.25346 4.67411 6.58522 4.98739 6.99984 4.98739Z" fill="#33CC66"/>
</svg>
