<svg width="14" height="15" viewBox="0 0 14 15" fill="none" xmlns="http://www.w3.org/2000/svg">
    <g clip-path="url(#clip0_3721_37416)">
    <path d="M7 0.5C10.8689 0.5 14 3.63075 14 7.5C14 11.3688 10.8692 14.5 7 14.5C3.13111 14.5 0 11.3693 0 7.5C0 3.63116 3.13075 0.5 7 0.5ZM6.28116 10.2787C6.28116 10.4999 6.60365 10.721 6.99986 10.721C7.4145 10.721 7.70932 10.4999 7.70932 10.2787V6.76812C7.70932 6.51013 7.41448 6.33502 6.99986 6.33502C6.60365 6.33502 6.28116 6.51013 6.28116 6.76812V10.2787ZM6.99984 5.48739C7.42369 5.48739 7.75537 5.17411 7.75537 4.82395C7.75537 4.47381 7.42366 4.16975 6.99984 4.16975C6.5852 4.16975 6.25346 4.47381 6.25346 4.82395C6.25346 5.17411 6.58522 5.48739 6.99984 5.48739Z" fill="#FF3B2E"/>
    </g>
    <defs>
    <clipPath id="clip0_3721_37416">
    <rect width="14" height="14" fill="white" transform="matrix(-1 0 0 1 14 0.5)"/>
    </clipPath>
    </defs>
</svg>
