<svg width="20" height="20" viewBox="0 0 20 20" fill="none" xmlns="http://www.w3.org/2000/svg">
<path d="M19.3498 4.78583L16.8406 1.39583C16.532 0.964446 16.1251 0.612808 15.6535 0.370064C15.182 0.12732 14.6593 0.000461434 14.1289 1.46866e-06H5.87061C5.3428 -0.000493946 4.82242 0.124354 4.3523 0.364271C3.88217 0.604187 3.47574 0.952314 3.16644 1.38L0.612275 4.79417C0.196411 5.38058 -0.0183541 6.0859 0.000123262 6.80456C0.0186006 7.52322 0.269327 8.21657 0.714775 8.78083L8.04144 19.0542C8.27493 19.3498 8.57253 19.5886 8.91177 19.7524C9.25101 19.9163 9.62304 20.0009 9.99977 20C10.383 19.9992 10.7609 19.9106 11.1044 19.7408C11.448 19.5711 11.748 19.3247 11.9814 19.0208L19.2498 8.86167C19.7152 8.28916 19.9775 7.57841 19.9956 6.84082C20.0137 6.10323 19.7865 5.38048 19.3498 4.78583ZM15.4931 2.37583L18.0081 5.77417C18.0214 5.7925 18.0248 5.81417 18.0381 5.83333H13.9614L12.7714 1.66667H14.1289C14.3964 1.6675 14.6598 1.7323 14.8971 1.85567C15.1344 1.97904 15.3388 2.15739 15.4931 2.37583ZM9.99977 15.9317L7.74978 7.5H12.2498L9.99977 15.9317ZM7.77144 5.83333L8.96144 1.66667H11.0381L12.2281 5.83333H7.77144ZM4.51394 2.36417C4.66857 2.14866 4.87223 1.97302 5.10812 1.85174C5.34401 1.73046 5.60537 1.66702 5.87061 1.66667H7.22811L6.03811 5.83333H1.93144C1.94311 5.815 1.94644 5.7925 1.95977 5.775L4.51394 2.36417ZM2.03977 7.77083C1.9796 7.68585 1.92797 7.59513 1.88561 7.5H6.02644L8.52144 16.8583L2.03977 7.77083ZM11.4756 16.8667L13.9756 7.5H18.1306C18.0769 7.62439 18.009 7.74212 17.9281 7.85083L11.4756 16.8667Z" fill="#343434"/>
</svg>
