<svg width="95" height="100" viewBox="0 0 95 100" fill="none" xmlns="http://www.w3.org/2000/svg">
<rect x="45" y="51" width="50" height="30" rx="10" fill="white" fill-opacity="0.1"/>
<rect x="45" y="47" width="50" height="30" rx="10" fill="white" fill-opacity="0.2"/>
<rect x="45" y="43" width="50" height="30" rx="10" fill="white" fill-opacity="0.3"/>
<rect x="45" y="19" width="50" height="50.0007" rx="10" fill="white"/>
<g clip-path="url(#clip0_3971_12710)">
<path fill-rule="evenodd" clip-rule="evenodd" d="M75.8388 37.4166C75.4475 38.4748 74.8383 39.4391 74.0507 40.2469C73.2631 41.0548 72.3147 41.6882 71.2667 42.1063H78.057V37.5363C78.057 37.5206 78.0539 37.5051 78.0478 37.4907C78.0417 37.4763 78.0328 37.4633 78.0217 37.4523C77.9995 37.4298 77.9693 37.4169 77.9377 37.4166H75.8388ZM65.332 42.1063C64.2841 41.6883 63.3357 41.0549 62.5482 40.2471C61.7606 39.4392 61.1516 38.475 60.7604 37.4168H58.9625C58.3427 37.42 57.7494 37.6685 57.3123 38.1078C56.8752 38.5472 56.6298 39.1418 56.6298 39.7615C56.6298 40.3813 56.8752 40.9759 57.3123 41.4152C57.7494 41.8546 58.3427 42.1031 58.9625 42.1063H65.332ZM72.9951 29.9451C74.0813 31.0314 74.7572 32.4606 74.9077 33.9894C75.0582 35.5182 74.674 37.0518 73.8205 38.3291C72.967 39.6063 71.6971 40.5481 70.2271 40.994C68.757 41.4399 67.1779 41.3623 65.7587 40.7744C64.3395 40.1866 63.168 39.1248 62.4438 37.77C61.7197 36.4153 61.4877 34.8514 61.7873 33.3447C62.087 31.8381 62.8997 30.4819 64.0872 29.5074C65.2746 28.5328 66.7632 28.0001 68.2994 28C69.1716 27.9989 70.0355 28.1703 70.8414 28.5041C71.6472 28.838 72.3791 29.3278 72.9951 29.9454V29.9451ZM60.0965 57.3113C59.913 57.3096 59.7376 57.2355 59.6085 57.1051C59.4794 56.9748 59.407 56.7987 59.407 56.6152C59.407 56.4317 59.4794 56.2557 59.6085 56.1253C59.7376 55.995 59.913 55.9209 60.0965 55.9191H67.9744C68.1578 55.9209 68.3332 55.995 68.4623 56.1253C68.5914 56.2557 68.6639 56.4317 68.6639 56.6152C68.6639 56.7987 68.5914 56.9748 68.4623 57.1051C68.3332 57.2355 68.1578 57.3096 67.9744 57.3113H60.0965ZM80.2447 52.4446C80.0602 52.4446 79.8832 52.3713 79.7527 52.2408C79.6222 52.1103 79.5489 51.9333 79.5489 51.7487C79.5489 51.5641 79.6222 51.3871 79.7527 51.2566C79.8832 51.1261 80.0602 51.0528 80.2447 51.0528H80.2635C80.448 51.0528 80.625 51.1261 80.7555 51.2566C80.886 51.3871 80.9594 51.5641 80.9594 51.7487C80.9594 51.9333 80.886 52.1103 80.7555 52.2408C80.625 52.3713 80.448 52.4446 80.2635 52.4446H80.2447ZM83.3818 49.3857H79.4897C78.8651 49.3889 78.2672 49.6393 77.8267 50.0821C77.3861 50.5249 77.1388 51.1241 77.1388 51.7487C77.1388 52.3733 77.3861 52.9726 77.8267 53.4154C78.2672 53.8582 78.8651 54.1085 79.4897 54.1118H83.3818V49.3857ZM79.4897 47.9944H81.3007V43.6166C81.3006 43.601 81.2974 43.5856 81.2914 43.5713C81.2853 43.557 81.2765 43.544 81.2654 43.5331C81.2434 43.5106 81.2134 43.4978 81.1819 43.4974H58.9625C58.1086 43.4979 57.2806 43.2041 56.6179 42.6656V57.6551C56.6201 58.2763 56.8678 58.8714 57.307 59.3107C57.7462 59.75 58.3413 59.9978 58.9625 60H81.1819C81.2134 59.9996 81.2434 59.9867 81.2654 59.9643C81.2766 59.9533 81.2855 59.9403 81.2915 59.9258C81.2976 59.9114 81.3007 59.896 81.3007 59.8803V55.503H79.4897C78.494 55.503 77.5391 55.1075 76.835 54.4034C76.131 53.6993 75.7354 52.7444 75.7354 51.7487C75.7354 50.753 76.131 49.7981 76.835 49.094C77.5391 48.3899 78.494 47.9944 79.4897 47.9944ZM72.1289 33.9447C72.3134 33.9447 72.4903 34.018 72.6208 34.1484C72.7513 34.2789 72.8245 34.4558 72.8245 34.6403C72.8245 34.8248 72.7513 35.0017 72.6208 35.1322C72.4903 35.2627 72.3134 35.3359 72.1289 35.3359H68.995V38.4699C68.995 38.6544 68.9217 38.8313 68.7912 38.9618C68.6608 39.0922 68.4838 39.1655 68.2994 39.1655C68.1149 39.1655 67.9379 39.0922 67.8075 38.9618C67.677 38.8313 67.6037 38.6544 67.6037 38.4699V35.3359H64.4707C64.2862 35.3359 64.1093 35.2627 63.9789 35.1322C63.8484 35.0017 63.7751 34.8248 63.7751 34.6403C63.7751 34.4558 63.8484 34.2789 63.9789 34.1484C64.1093 34.018 64.2862 33.9447 64.4707 33.9447H67.6037V30.8113C67.6037 30.6268 67.677 30.4498 67.8075 30.3194C67.9379 30.1889 68.1149 30.1156 68.2994 30.1156C68.4838 30.1156 68.6608 30.1889 68.7912 30.3194C68.9217 30.4498 68.995 30.6268 68.995 30.8113V33.9447H72.1289Z" fill="#1843BF"/>
</g>
<defs>
<clipPath id="clip0_3971_12710">
<rect width="32" height="32" fill="white" transform="translate(54 28)"/>
</clipPath>
</defs>
</svg>
