<svg width="22" height="18" viewBox="0 0 22 18" fill="none" xmlns="http://www.w3.org/2000/svg">
<path d="M1 7.74664L5.34568 2.52987H9.01436L4.66868 7.74664H1ZM3.78667 12.1354L10.1419 4.50456C10.6097 3.91651 11.1317 3.37493 11.7009 2.88715C12.368 2.32533 13.1495 1.91975 13.9894 1.69943C15.0808 1.40801 16.2315 1.43647 17.3076 1.78151C18.3731 2.12149 19.303 2.79834 19.9608 3.71275C20.7965 4.91138 21.1478 6.38827 20.9429 7.84079C20.8485 8.55669 20.6147 9.24647 20.255 9.87014C19.8953 10.4938 19.4169 11.039 18.8476 11.4739C18.1962 11.9626 17.4426 12.293 16.6449 12.4396C16.194 12.5357 15.735 12.5874 15.2742 12.5941H13.4816L10.2349 16.5H6.57811L11.7748 10.2524L12.1991 9.74065H14.6139C15.4626 9.74065 16.3589 9.74065 17.0931 9.25784H17.1074C17.4519 9.01679 17.7351 8.69651 17.9338 8.32326C18.1325 7.95 18.2411 7.53437 18.2507 7.11043C18.2602 6.68649 18.1704 6.26629 17.9887 5.88426C17.807 5.50222 17.5384 5.16922 17.2051 4.91254L17.1694 4.88598L17.1503 4.8715L17.1241 4.85219C16.7043 4.55293 16.2069 4.38505 15.6938 4.36938H15.6652C15.3337 4.35386 15.0019 4.38885 14.6807 4.47318C14.2315 4.59511 13.8141 4.81511 13.4578 5.11774C13.0242 5.49743 12.6253 5.91595 12.2659 6.36821L7.43628 12.1619L3.78667 12.1354Z" stroke="#343434" stroke-width="1.5" stroke-linejoin="round"/>
</svg>
