<svg width="20" height="20" viewBox="0 0 20 20" fill="none" xmlns="http://www.w3.org/2000/svg">
<g clip-path="url(#clip0_3715_35822)">
<path d="M17.4167 3.57551C17.1232 2.77236 16.5902 2.07867 15.8897 1.5882C15.1892 1.09773 14.3551 0.834128 13.5 0.833008H6.5C5.6449 0.834128 4.81076 1.09773 4.1103 1.5882C3.40985 2.07867 2.87685 2.77236 2.58334 3.57551L0.333337 9.76468C0.112045 10.3742 -0.00077061 11.0179 3.96155e-06 11.6663V12.4997C0.0014909 13.1437 0.152864 13.7785 0.442141 14.3539C0.731419 14.9292 1.15066 15.4294 1.66667 15.8147C1.66667 15.8213 1.66667 15.8263 1.66667 15.833V17.4997C1.66667 18.1627 1.93006 18.7986 2.3989 19.2674C2.86774 19.7363 3.50363 19.9997 4.16667 19.9997C4.82971 19.9997 5.4656 19.7363 5.93444 19.2674C6.40328 18.7986 6.66667 18.1627 6.66667 17.4997V16.6663H13.3333V17.4997C13.3333 18.1627 13.5967 18.7986 14.0656 19.2674C14.5344 19.7363 15.1703 19.9997 15.8333 19.9997C16.4964 19.9997 17.1323 19.7363 17.6011 19.2674C18.0699 18.7986 18.3333 18.1627 18.3333 17.4997V15.833C18.3333 15.8263 18.3333 15.8213 18.3333 15.8147C18.8493 15.4294 19.2686 14.9292 19.5579 14.3539C19.8471 13.7785 19.9985 13.1437 20 12.4997V11.6663C20.0009 11.0181 19.888 10.3748 19.6667 9.76551L17.4167 3.57551ZM4.15167 4.14551C4.32787 3.66398 4.64745 3.24805 5.06734 2.95376C5.48724 2.65948 5.98726 2.501 6.5 2.49967H13.5C14.013 2.50066 14.5134 2.65898 14.9336 2.95329C15.3539 3.24759 15.6737 3.66372 15.85 4.14551L17.6733 9.16634H2.32584L4.15167 4.14551ZM5 17.4997C5 17.7207 4.91221 17.9327 4.75593 18.0889C4.59965 18.2452 4.38768 18.333 4.16667 18.333C3.94566 18.333 3.7337 18.2452 3.57742 18.0889C3.42113 17.9327 3.33334 17.7207 3.33334 17.4997V16.583C3.60761 16.6387 3.8868 16.6666 4.16667 16.6663H5V17.4997ZM16.6667 17.4997C16.6667 17.7207 16.5789 17.9327 16.4226 18.0889C16.2663 18.2452 16.0544 18.333 15.8333 18.333C15.6123 18.333 15.4004 18.2452 15.2441 18.0889C15.0878 17.9327 15 17.7207 15 17.4997V16.6663H15.8333C16.1132 16.6666 16.3924 16.6387 16.6667 16.583V17.4997ZM18.3333 12.4997C18.3333 13.1627 18.0699 13.7986 17.6011 14.2674C17.1323 14.7363 16.4964 14.9997 15.8333 14.9997H4.16667C3.50363 14.9997 2.86774 14.7363 2.3989 14.2674C1.93006 13.7986 1.66667 13.1627 1.66667 12.4997V11.6663C1.67007 11.3857 1.70388 11.1063 1.7675 10.833H3.33334V11.6663C3.33334 11.8874 3.42113 12.0993 3.57742 12.2556C3.7337 12.4119 3.94566 12.4997 4.16667 12.4997C4.38768 12.4997 4.59965 12.4119 4.75593 12.2556C4.91221 12.0993 5 11.8874 5 11.6663V10.833H15V11.6663C15 11.8874 15.0878 12.0993 15.2441 12.2556C15.4004 12.4119 15.6123 12.4997 15.8333 12.4997C16.0544 12.4997 16.2663 12.4119 16.4226 12.2556C16.5789 12.0993 16.6667 11.8874 16.6667 11.6663V10.833H18.2325C18.2962 11.1063 18.33 11.3857 18.3333 11.6663V12.4997Z" fill="#343434"/>
</g>
<defs>
<clipPath id="clip0_3715_35822">
<rect width="20" height="20" fill="white"/>
</clipPath>
</defs>
</svg>
