<svg width="12" height="20" viewBox="0 0 12 20" fill="none" xmlns="http://www.w3.org/2000/svg">
<path d="M7.61033 3.33333C8.28819 3.334 8.93811 3.60357 9.41743 4.08289C9.89676 4.56222 10.1663 5.21213 10.167 5.89C10.167 6.11101 10.2548 6.32298 10.4111 6.47926C10.5674 6.63554 10.7793 6.72333 11.0003 6.72333C11.2213 6.72333 11.4333 6.63554 11.5896 6.47926C11.7459 6.32298 11.8337 6.11101 11.8337 5.89V5.83333C11.8337 5.8175 11.8337 5.80333 11.8337 5.7875C11.8058 4.68561 11.3488 3.63815 10.5599 2.86838C9.77094 2.09861 8.71257 1.6674 7.61033 1.66667H6.83366V0.833333C6.83366 0.61232 6.74586 0.400358 6.58958 0.244078C6.4333 0.0877974 6.22134 0 6.00033 0C5.77931 0 5.56735 0.0877974 5.41107 0.244078C5.25479 0.400358 5.16699 0.61232 5.16699 0.833333V1.66667H4.39033C3.38809 1.66774 2.4189 2.02519 1.65599 2.67515C0.893075 3.3251 0.386167 4.22519 0.22587 5.21452C0.0655726 6.20385 0.262334 7.21795 0.780986 8.07555C1.29964 8.93315 2.10637 9.57835 3.05699 9.89583L5.16699 10.6V16.6667H4.39033C3.71246 16.666 3.06255 16.3964 2.58322 15.9171C2.1039 15.4378 1.83432 14.7879 1.83366 14.11C1.83366 13.889 1.74586 13.677 1.58958 13.5207C1.4333 13.3645 1.22134 13.2767 1.00033 13.2767C0.779312 13.2767 0.56735 13.3645 0.41107 13.5207C0.25479 13.677 0.166992 13.889 0.166992 14.11V14.1667C0.166992 14.1825 0.166992 14.1967 0.166992 14.2125C0.194803 15.3144 0.651878 16.3618 1.4408 17.1316C2.22971 17.9014 3.28808 18.3326 4.39033 18.3333H5.16699V19.1667C5.16699 19.3877 5.25479 19.5996 5.41107 19.7559C5.56735 19.9122 5.77931 20 6.00033 20C6.22134 20 6.4333 19.9122 6.58958 19.7559C6.74586 19.5996 6.83366 19.3877 6.83366 19.1667V18.3333H7.61033C8.61256 18.3323 9.58175 17.9748 10.3447 17.3249C11.1076 16.6749 11.6145 15.7748 11.7748 14.7855C11.9351 13.7961 11.7383 12.7821 11.2197 11.9245C10.701 11.0669 9.89428 10.4216 8.94366 10.1042L6.83366 9.4V3.33333H7.61033ZM8.41866 11.6842C8.99485 11.8759 9.48396 12.2665 9.79843 12.786C10.1129 13.3055 10.2322 13.92 10.1349 14.5194C10.0377 15.1189 9.73026 15.6641 9.26768 16.0575C8.8051 16.451 8.21759 16.6669 7.61033 16.6667H6.83366V11.1558L8.41866 11.6842ZM5.16699 8.84417L3.58366 8.31583C3.00761 8.12411 2.51858 7.73364 2.2041 7.21432C1.88962 6.695 1.77021 6.08071 1.86724 5.4814C1.96427 4.88208 2.27141 4.33685 2.73369 3.94329C3.19596 3.54972 3.78321 3.3335 4.39033 3.33333H5.16699V8.84417Z" fill="#343434"/>
</svg>
