<svg width="20" height="20" viewBox="0 0 20 20" fill="none" xmlns="http://www.w3.org/2000/svg">
<path d="M10.0028 -0.00195312C4.47141 -0.00195312 -0.0126953 4.48215 -0.0126953 10.0135C-0.0126953 15.5449 4.47141 20.0289 10.0028 20.0289C15.5341 20.0289 20.0182 15.5449 20.0182 10.0135C20.0182 4.48215 15.5341 -0.00195312 10.0028 -0.00195312ZM18.2859 9.1182L18.2817 9.11488C16.6685 8.94754 15.1399 8.31004 13.8859 7.28156L16.4442 4.72324C17.4749 5.97648 18.1152 7.50457 18.2859 9.1182ZM15.2625 3.54406L12.7075 6.10656C11.6787 4.85269 11.0412 3.32406 10.8742 1.71074C12.4846 1.88027 14.0102 2.51758 15.2625 3.54406ZM9.21086 1.70656C9.38539 3.76383 10.1959 5.71578 11.53 7.29156L10 8.82156L4.73004 3.55156C6.00676 2.50434 7.56695 1.86195 9.21086 1.70656ZM3.55133 4.73035L3.54754 4.72656L3.55172 4.72988C3.55156 4.73004 3.55145 4.7302 3.55133 4.73035L8.82172 9.99988L7.2909 11.5307C5.71605 10.1961 3.76453 9.38516 1.70758 9.2107C1.86266 7.56707 2.50465 6.00707 3.55133 4.73035ZM1.71422 10.8816V10.8782C3.32754 11.0452 4.85617 11.6827 6.11004 12.7116L3.55172 15.2699C2.52375 14.018 1.88496 12.4924 1.71422 10.8816ZM4.73336 16.4482L7.28836 13.8899C8.31719 15.1438 8.95473 16.6724 9.12168 18.2857C7.51086 18.115 5.98527 17.4762 4.73336 16.4482ZM10.7892 18.2932C10.615 16.2359 9.80402 14.2841 8.46922 12.709L10 11.1782L15.27 16.4482C13.9935 17.4958 12.4332 18.1382 10.7892 18.2932ZM16.4467 15.2699L11.1784 9.99988L12.7084 8.46988C14.2837 9.80367 16.235 10.6142 18.2917 10.7891C18.1363 12.433 17.4939 13.9932 16.4467 15.2699Z" fill="#343434"/>
</svg>
