<svg width="20" height="20" viewBox="0 0 20 20" fill="none" xmlns="http://www.w3.org/2000/svg">
<path d="M19.9999 19.167C19.9999 19.388 19.9121 19.5999 19.7558 19.7562C19.5995 19.9125 19.3876 20.0003 19.1665 20.0003H0.833212C0.612198 20.0003 0.400236 19.9125 0.243956 19.7562C0.0876755 19.5999 -0.000121895 19.388 -0.000121895 19.167C-0.000121895 18.9459 0.0876755 18.734 0.243956 18.5777C0.400236 18.4214 0.612198 18.3336 0.833212 18.3336H19.1665C19.3876 18.3336 19.5995 18.4214 19.7558 18.5777C19.9121 18.734 19.9999 18.9459 19.9999 19.167ZM0.242378 7.12696C0.0628134 6.79389 -0.0203764 6.41738 0.00214513 6.03967C0.0246666 5.66195 0.152008 5.29799 0.369878 4.98862C0.725927 4.46622 1.20275 4.03742 1.75988 3.73862L8.01071 0.48529C8.6251 0.165816 9.3074 -0.000976563 9.99988 -0.000976562C10.6924 -0.000976563 11.3747 0.165816 11.989 0.48529L18.239 3.74112C18.7962 4.03992 19.273 4.46872 19.629 4.99112C19.8469 5.30049 19.9743 5.66445 19.9968 6.04217C20.0193 6.41988 19.9361 6.79639 19.7565 7.12946C19.5632 7.49515 19.2733 7.80079 18.9183 8.01311C18.5633 8.22544 18.1569 8.3363 17.7432 8.33362H17.4999V15.0003H18.3332C18.5542 15.0003 18.7662 15.0881 18.9225 15.2444C19.0788 15.4006 19.1665 15.6126 19.1665 15.8336C19.1665 16.0546 19.0788 16.2666 18.9225 16.4229C18.7662 16.5792 18.5542 16.667 18.3332 16.667H1.66654C1.44553 16.667 1.23357 16.5792 1.07729 16.4229C0.921009 16.2666 0.833212 16.0546 0.833212 15.8336C0.833212 15.6126 0.921009 15.4006 1.07729 15.2444C1.23357 15.0881 1.44553 15.0003 1.66654 15.0003H2.49988V8.33362H2.25654C1.84251 8.33621 1.43572 8.22505 1.08054 8.01226C0.725355 7.79948 0.435427 7.49324 0.242378 7.12696ZM4.16655 15.0003H6.66655V8.33362H4.16655V15.0003ZM8.33321 8.33362V15.0003H11.6665V8.33362H8.33321ZM15.8332 8.33362H13.3332V15.0003H15.8332V8.33362ZM1.71904 6.35446C1.77133 6.45086 1.84914 6.53101 1.94395 6.58613C2.03875 6.64125 2.1469 6.66921 2.25654 6.66696H17.7432C17.8529 6.66921 17.961 6.64125 18.0558 6.58613C18.1506 6.53101 18.2284 6.45086 18.2807 6.35446C18.3188 6.29076 18.3372 6.21723 18.3337 6.1431C18.3301 6.06897 18.3047 5.99755 18.2607 5.93779C18.0588 5.63772 17.7875 5.39074 17.4699 5.21779L11.2199 1.96196C10.8432 1.76648 10.4251 1.66443 10.0007 1.66443C9.57635 1.66443 9.15821 1.76648 8.78155 1.96196L2.53155 5.21779C2.21403 5.3913 1.94282 5.6385 1.74071 5.93862C1.69662 5.99813 1.67105 6.06931 1.66719 6.14327C1.66334 6.21724 1.68138 6.29069 1.71904 6.35446Z" fill="#343434"/>
</svg>
