<svg width="20" height="20" viewBox="0 0 20 20" fill="none" xmlns="http://www.w3.org/2000/svg">
<g clip-path="url(#clip0_3715_35819)">
<path d="M15.7067 9.608C16.256 8.71904 16.579 7.70903 16.6476 6.66634C16.6476 6.44533 16.5598 6.23337 16.4035 6.07709C16.2472 5.92081 16.0353 5.83301 15.8142 5.83301C15.5932 5.83301 15.3813 5.92081 15.225 6.07709C15.0687 6.23337 14.9809 6.44533 14.9809 6.66634C14.9133 7.39623 14.678 8.10065 14.2934 8.72467C14.2354 8.81769 14.1963 8.92122 14.1783 9.02936C14.1603 9.13749 14.1638 9.24811 14.1886 9.3549C14.2133 9.46168 14.2589 9.56255 14.3226 9.65173C14.3864 9.74091 14.4671 9.81667 14.5601 9.87467C14.6531 9.93267 14.7566 9.97178 14.8648 9.98977C14.9729 10.0078 15.0835 10.0043 15.1903 9.97951C15.406 9.9295 15.5929 9.79586 15.7101 9.608H15.7067Z" fill="#343434"/>
<path d="M7.48074 5.83301C7.25973 5.83301 7.04777 5.92081 6.89149 6.07709C6.73521 6.23337 6.64741 6.44533 6.64741 6.66634C6.57979 7.39624 6.34451 8.10065 5.95991 8.72467C5.84278 8.91254 5.80507 9.13924 5.85507 9.3549C5.90508 9.57057 6.03872 9.75754 6.22658 9.87467C6.41444 9.99181 6.64114 10.0295 6.85681 9.97951C7.07247 9.9295 7.25944 9.79587 7.37658 9.60801C7.92464 8.71874 8.24652 7.70875 8.31407 6.66634C8.31407 6.44533 8.22628 6.23337 8.07 6.07709C7.91372 5.92081 7.70176 5.83301 7.48074 5.83301Z" fill="#343434"/>
<path d="M16.25 15.4906C15.6817 15.1889 15.095 14.8764 15.0133 14.5222C14.975 14.3614 14.9925 13.9989 15.4425 13.2947C18.0833 12.9164 20 9.18722 20 5.83306C20.0233 5.17017 19.9099 4.5096 19.6668 3.89244C19.4238 3.27528 19.0563 2.71474 18.5873 2.24573C18.1183 1.77671 17.5578 1.40925 16.9406 1.16622C16.3235 0.923181 15.6629 0.809774 15 0.833055C14.1942 0.810984 13.3954 0.988681 12.6749 1.3503C11.9544 1.71192 11.3347 2.24622 10.8708 2.90556C10.2277 1.79592 9.23642 0.929416 8.05075 0.440356C6.86509 -0.0487039 5.55121 -0.133011 4.31277 0.200501C3.07432 0.534013 1.98046 1.26672 1.20074 2.28505C0.421014 3.30339 -0.00103672 4.55049 1.91241e-06 5.83306C1.91241e-06 9.14222 1.88084 12.9039 4.49167 13.9039C4.31102 14.2047 4.19998 14.5421 4.16667 14.8914C4.16667 16.2006 5.4075 16.7806 6.31334 17.2047C6.81334 17.4381 7.5 17.7589 7.5 18.0072C7.43211 18.266 7.3106 18.5076 7.14333 18.7164C7.08424 18.8085 7.04387 18.9114 7.02454 19.0192C7.0052 19.1269 7.00728 19.2374 7.03065 19.3443C7.05402 19.4513 7.09822 19.5526 7.16074 19.6424C7.22326 19.7323 7.30286 19.809 7.395 19.8681C7.5811 19.9874 7.80698 20.0279 8.02296 19.9807C8.1299 19.9574 8.23119 19.9132 8.32105 19.8506C8.41091 19.7881 8.48757 19.7085 8.54667 19.6164C8.90037 19.1489 9.11524 18.5912 9.16667 18.0072C9.16667 16.6981 7.92584 16.1181 7.02 15.6947C6.52 15.4606 5.83334 15.1397 5.82584 14.9739C5.95252 14.6754 6.11123 14.3915 6.29917 14.1272C8.25917 13.8722 9.90833 12.0439 10.8425 9.79389C11.3672 11.1833 12.3776 12.3356 13.6867 13.0372C13.3762 13.6063 13.2714 14.2649 13.39 14.9022C13.645 15.9939 14.6558 16.5314 15.4683 16.9639C15.9817 17.2372 16.5625 17.5472 16.6508 17.8539C16.6727 18.175 16.5797 18.4934 16.3883 18.7522C16.3328 18.847 16.2965 18.9519 16.2816 19.0608C16.2667 19.1697 16.2735 19.2804 16.3016 19.3867C16.3297 19.4929 16.3785 19.5926 16.4453 19.6799C16.512 19.7672 16.5954 19.8404 16.6906 19.8954C16.7857 19.9503 16.8908 19.9859 16.9998 20.0001C17.1088 20.0142 17.2195 20.0067 17.3256 19.9779C17.4316 19.9491 17.531 19.8996 17.6178 19.8323C17.7047 19.7649 17.7774 19.6811 17.8317 19.5856C18.0495 19.2697 18.1995 18.912 18.2721 18.5352C18.3447 18.1584 18.3383 17.7706 18.2533 17.3964C18.0678 16.9584 17.7942 16.5633 17.4496 16.2354C17.105 15.9076 16.6967 15.654 16.25 15.4906ZM5.83334 12.4997C3.62834 12.4997 1.66667 8.77139 1.66667 5.83306C1.66667 4.72799 2.10566 3.66818 2.88706 2.88678C3.66846 2.10538 4.72827 1.66639 5.83334 1.66639C6.9384 1.66639 7.99821 2.10538 8.77961 2.88678C9.56102 3.66818 10 4.72799 10 5.83306C10 8.77139 8.03834 12.4997 5.83334 12.4997ZM11.6667 5.83306C11.6415 5.38873 11.7106 4.94412 11.8692 4.52832C12.0278 4.11252 12.2725 3.73491 12.5872 3.42023C12.9019 3.10554 13.2795 2.86087 13.6953 2.70224C14.1111 2.54362 14.5557 2.4746 15 2.49972C15.4443 2.4746 15.8889 2.54362 16.3047 2.70224C16.7205 2.86087 17.0981 3.10554 17.4128 3.42023C17.7275 3.73491 17.9722 4.11252 18.1308 4.52832C18.2894 4.94412 18.3585 5.38873 18.3333 5.83306C18.3333 8.66639 16.62 11.6664 15 11.6664C13.38 11.6664 11.6667 8.66639 11.6667 5.83306Z" fill="#343434"/>
</g>
<defs>
<clipPath id="clip0_3715_35819">
<rect width="20" height="20" fill="white"/>
</clipPath>
</defs>
</svg>
