<svg width="20" height="20" viewBox="0 0 20 20" fill="none" xmlns="http://www.w3.org/2000/svg">
<path d="M20.0003 11.6717C19.9993 11.3222 19.9246 10.9768 19.781 10.6582C19.6374 10.3395 19.4282 10.0548 19.167 9.8225V8.33333C19.1646 6.12394 18.2858 4.00573 16.7235 2.44346C15.1612 0.881179 13.043 0.00242633 10.8336 0L9.16698 0C6.95759 0.00242633 4.83938 0.881179 3.27711 2.44346C1.71483 4.00573 0.836075 6.12394 0.833649 8.33333V9.86417C0.574703 10.1085 0.368404 10.4032 0.227403 10.7301C0.0864025 11.0571 0.0136719 11.4094 0.0136719 11.7654C0.0136719 12.1215 0.0864025 12.4738 0.227403 12.8007C0.368404 13.1276 0.574703 13.4223 0.833649 13.6667V14.1667C0.835414 15.7132 1.45056 17.1959 2.54414 18.2895C3.63772 19.3831 5.12043 19.9982 6.66698 20H13.3336C14.8802 19.9982 16.3629 19.3831 17.4565 18.2895C18.5501 17.1959 19.1652 15.7132 19.167 14.1667V13.5217C19.4283 13.2893 19.6375 13.0044 19.7811 12.6856C19.9247 12.3668 19.9994 12.0213 20.0003 11.6717ZM2.34365 12.6317C2.13586 12.5686 1.9572 12.4339 1.83948 12.2514C1.72177 12.069 1.67264 11.8507 1.70085 11.6354C1.72906 11.4201 1.83278 11.2218 1.99354 11.0758C2.15429 10.9299 2.36164 10.8457 2.57865 10.8383H17.5003C17.7213 10.8383 17.9333 10.9261 18.0896 11.0824C18.2459 11.2387 18.3337 11.4507 18.3337 11.6717C18.3337 11.8927 18.2459 12.1046 18.0896 12.2609C17.9333 12.4172 17.7213 12.505 17.5003 12.505H14.167C12.537 12.505 10.8511 13.1617 8.86365 14.5725C8.4635 14.8504 7.98794 14.9994 7.50073 14.9994C7.01353 14.9994 6.53797 14.8504 6.13782 14.5725C5.94782 14.4375 5.76532 14.2967 5.58198 14.1558C4.6742 13.343 3.54859 12.8132 2.34365 12.6317ZM2.50032 8.33333C2.5023 6.56583 3.20532 4.87129 4.45513 3.62148C5.70494 2.37167 7.39948 1.66865 9.16698 1.66667H10.8336C12.6012 1.66865 14.2957 2.37167 15.5455 3.62148C16.7953 4.87129 17.4983 6.56583 17.5003 8.33333V9.17167L2.50032 9.18V8.33333ZM13.3336 18.3333H6.66698C5.59963 18.3305 4.57418 17.9177 3.80258 17.1802C3.03098 16.4427 2.57223 15.437 2.52115 14.3708C3.27754 14.5804 3.97667 14.9584 4.56615 15.4767C4.76532 15.6308 4.96532 15.7842 5.17365 15.9317C5.8567 16.4063 6.66856 16.6606 7.50032 16.6606C8.33207 16.6606 9.14393 16.4063 9.82698 15.9317C11.0599 14.9155 12.5745 14.3012 14.167 14.1717H17.5003C17.499 15.2759 17.0594 16.3344 16.2782 17.1147C15.4969 17.895 14.4379 18.3333 13.3336 18.3333ZM7.50032 4.16667C7.50032 3.94565 7.58811 3.73369 7.74439 3.57741C7.90067 3.42113 8.11264 3.33333 8.33365 3.33333C8.55466 3.33333 8.76662 3.42113 8.9229 3.57741C9.07919 3.73369 9.16698 3.94565 9.16698 4.16667C9.16698 4.38768 9.07919 4.59964 8.9229 4.75592C8.76662 4.9122 8.55466 5 8.33365 5C8.11264 5 7.90067 4.9122 7.74439 4.75592C7.58811 4.59964 7.50032 4.38768 7.50032 4.16667ZM5.00032 6.66667C5.00032 6.44565 5.08811 6.23369 5.24439 6.07741C5.40067 5.92113 5.61264 5.83333 5.83365 5.83333C6.05466 5.83333 6.26662 5.92113 6.4229 6.07741C6.57919 6.23369 6.66698 6.44565 6.66698 6.66667C6.66698 6.88768 6.57919 7.09964 6.4229 7.25592C6.26662 7.4122 6.05466 7.5 5.83365 7.5C5.61264 7.5 5.40067 7.4122 5.24439 7.25592C5.08811 7.09964 5.00032 6.88768 5.00032 6.66667Z" fill="#343434"/>
</svg>
