<svg width="100" height="89" viewBox="0 0 100 89" fill="none" xmlns="http://www.w3.org/2000/svg">
<path d="M99.0082 76.7226L56.6819 3.83613C55.2769 1.40494 52.8458 0 50.031 0C47.2162 0 44.7899 1.40494 43.38 3.83613L1.05371 76.7226C-0.351236 79.1538 -0.351236 81.9637 1.05371 84.3949C2.45865 86.826 4.88984 88.231 7.70464 88.231H92.2284C95.0432 88.231 97.4695 86.826 98.8793 84.3949C100.284 81.9637 100.414 79.1538 99.0088 76.7226H99.0082ZM94.659 81.8391C94.4048 82.2227 93.7623 83.1194 92.4868 83.1194L7.83292 83.1146C6.55257 83.1146 5.78534 82.2179 5.66075 81.8343C5.4066 81.4507 5.02299 80.4293 5.66075 79.2785L47.9871 6.39203C48.6248 5.24119 49.7756 5.11168 50.1592 5.11168C50.5428 5.11168 51.6937 5.24115 52.3314 6.39203L94.6577 79.2785C95.2955 80.4293 94.9119 81.4555 94.6577 81.8391H94.659Z" fill="#FF6600"/>
<path d="M50.1593 39.6152C48.7544 39.6152 47.6035 40.7661 47.6035 42.171V71.5797C47.6035 72.9846 48.7544 74.1355 50.1593 74.1355C51.5642 74.1355 52.7151 72.9846 52.7151 71.5797V42.171C52.7151 40.7661 51.5642 39.6152 50.1593 39.6152Z" fill="#FF6600"/>
<path d="M52.7152 31.9427C52.7152 35.352 47.6035 35.352 47.6035 31.9427C47.6035 28.5334 52.7152 28.5334 52.7152 31.9427Z" fill="#FF6600"/>
</svg>
