<svg width="1440" height="761" viewBox="0 0 1440 761" fill="none" xmlns="http://www.w3.org/2000/svg">
<path d="M0 48C0 31.1984 0 22.7976 3.2698 16.3803C6.14601 10.7354 10.7354 6.14601 16.3803 3.2698C22.7976 0 31.1984 0 48 0H1392C1408.8 0 1417.2 0 1423.62 3.2698C1429.26 6.14601 1433.85 10.7354 1436.73 16.3803C1440 22.7976 1440 31.1984 1440 48V713C1440 729.802 1440 738.202 1436.73 744.62C1433.85 750.265 1429.26 754.854 1423.62 757.73C1417.2 761 1408.8 761 1392 761H48C31.1984 761 22.7976 761 16.3803 757.73C10.7354 754.854 6.14601 750.265 3.2698 744.62C0 738.202 0 729.802 0 713V48Z" fill="url(#paint0_linear_1474_7926)"/>
<g clip-path="url(#clip0_1474_7926)">
<path d="M-160 397.748C-160 397.748 -95.6049 239.718 39.0395 296.289C173.684 352.859 -3.89057 93.8112 193.198 195.05C390.286 296.289 325.826 -51.8095 503.439 -4.5657" stroke="#1843BF" stroke-width="0.25" stroke-miterlimit="10"/>
<path d="M936.346 879.367C936.346 879.367 1002.07 561.629 1192.63 667.342C1383.18 773.055 1291.6 551.444 1418.85 638.725C1546.11 726.006 1526.7 511.133 1652.26 585.276" stroke="#1843BF" stroke-width="0.2" stroke-miterlimit="10"/>
<path d="M884 815.512C884 815.512 978.511 562.916 1145.57 614.609C1312.64 666.301 1304.19 425.998 1459.32 454.068C1614.44 482.139 1519.16 245.946 1679.17 291.967" stroke="#1843BF" stroke-width="0.2" stroke-miterlimit="10"/>
<path d="M99.3631 -30.0347H-54.1445V123.456H99.3631V-30.0347Z" fill="#1843BF"/>
<path d="M1476.87 639H1323.37V792.49H1476.87V639Z" fill="#1843BF"/>
<path d="M1358.51 728.753H1205V882.243H1358.51V728.753Z" fill="#1A75E2"/>
<path d="M607.484 -117.823H453.977V35.667H607.484V-117.823Z" fill="#1A75E2"/>
<path d="M850.508 -77.5127H697V75.9778H850.508V-77.5127Z" fill="#1843BF"/>
<g filter="url(#filter0_d_1474_7926)">
<path d="M977.242 -98.5981H823.734V54.8923H977.242V-98.5981Z" fill="#E2E2E2"/>
</g>
<g filter="url(#filter1_d_1474_7926)">
<path d="M1513.51 396.349H1360V549.839H1513.51V396.349Z" fill="#E2E2E2"/>
</g>
<g filter="url(#filter2_d_1474_7926)">
<path d="M368.201 694H214.693V847.49H368.201V694Z" fill="#E2E2E2"/>
</g>
<g filter="url(#filter3_d_1474_7926)">
<path d="M39.5076 102.409H-114V255.9H39.5076V102.409Z" fill="#E2E2E2"/>
</g>
<path d="M25.5076 528H-128V681.49H25.5076V528Z" fill="#1A75E2"/>
<path d="M1570.75 275H1417.24V428.49H1570.75V275Z" fill="#1843BF"/>
<path d="M1439.51 -128H1286V25.4904H1439.51V-128Z" fill="#1A75E2"/>
<path d="M235.508 718.246H82V871.737H235.508V718.246Z" fill="#1843BF"/>
<path d="M1145.5 70H1126V89.4985H1145.5V70Z" fill="#1843BF"/>
<path d="M1241.5 218H1222V237.498H1241.5V218Z" fill="#1A75E2"/>
<path d="M360.513 636.984H380.014V617.486H360.513V636.984Z" fill="#1843BF"/>
<path d="M340.999 617.499H360.5V598H340.999V617.499Z" fill="#1A75E2"/>
<path d="M884.487 627.021H864.986V646.52H884.487V627.021Z" fill="#1843BF"/>
<path d="M903.987 646.52H884.486V666.018H903.987V646.52Z" fill="#1A75E2"/>
<path d="M413.583 52.2908H394.082V71.7893H413.583V52.2908Z" fill="#1843BF"/>
<path d="M433.083 71.7893H413.582V91.2878H433.083V71.7893Z" fill="#1A75E2"/>
<path d="M136.854 113.707C140.087 113.707 142.708 111.086 142.708 107.853C142.708 104.621 140.087 102 136.854 102C133.621 102 131 104.621 131 107.853C131 111.086 133.621 113.707 136.854 113.707Z" stroke="#1A75E2" stroke-miterlimit="10"/>
<path d="M136.854 162.707C140.087 162.707 142.708 160.086 142.708 156.853C142.708 153.621 140.087 151 136.854 151C133.621 151 131 153.621 131 156.853C131 160.086 133.621 162.707 136.854 162.707Z" stroke="#1A75E2" stroke-miterlimit="10"/>
<path d="M136.854 211.694C140.087 211.694 142.708 209.073 142.708 205.84C142.708 202.607 140.087 199.987 136.854 199.987C133.621 199.987 131 202.607 131 205.84C131 209.073 133.621 211.694 136.854 211.694Z" stroke="#1A75E2" stroke-miterlimit="10"/>
<path d="M136.854 260.693C140.087 260.693 142.708 258.073 142.708 254.84C142.708 251.607 140.087 248.987 136.854 248.987C133.621 248.987 131 251.607 131 254.84C131 258.073 133.621 260.693 136.854 260.693Z" stroke="#1A75E2" stroke-miterlimit="10"/>
<path d="M1314.85 436.082C1318.09 436.082 1320.71 433.461 1320.71 430.228C1320.71 426.996 1318.09 424.375 1314.85 424.375C1311.62 424.375 1309 426.996 1309 430.228C1309 433.461 1311.62 436.082 1314.85 436.082Z" stroke="#1A75E2" stroke-miterlimit="10"/>
<path d="M1314.85 485.069C1318.09 485.069 1320.71 482.448 1320.71 479.215C1320.71 475.983 1318.09 473.362 1314.85 473.362C1311.62 473.362 1309 475.983 1309 479.215C1309 482.448 1311.62 485.069 1314.85 485.069Z" stroke="#1A75E2" stroke-miterlimit="10"/>
<path d="M1314.85 534.069C1318.09 534.069 1320.71 531.448 1320.71 528.215C1320.71 524.982 1318.09 522.362 1314.85 522.362C1311.62 522.362 1309 524.982 1309 528.215C1309 531.448 1311.62 534.069 1314.85 534.069Z" stroke="#1A75E2" stroke-miterlimit="10"/>
<path d="M1314.85 583.068C1318.09 583.068 1320.71 580.448 1320.71 577.215C1320.71 573.982 1318.09 571.362 1314.85 571.362C1311.62 571.362 1309 573.982 1309 577.215C1309 580.448 1311.62 583.068 1314.85 583.068Z" stroke="#1A75E2" stroke-miterlimit="10"/>
<path d="M671.671 32.5452C674.904 32.5452 677.525 29.9245 677.525 26.6918C677.525 23.459 674.904 20.8383 671.671 20.8383C668.437 20.8383 665.816 23.459 665.816 26.6918C665.816 29.9245 668.437 32.5452 671.671 32.5452Z" stroke="#1A75E2" stroke-miterlimit="10"/>
<path d="M671.671 81.545C674.904 81.545 677.525 78.9244 677.525 75.6916C677.525 72.4588 674.904 69.8381 671.671 69.8381C668.437 69.8381 665.816 72.4588 665.816 75.6916C665.816 78.9244 668.437 81.545 671.671 81.545Z" stroke="#1A75E2" stroke-miterlimit="10"/>
<path d="M748.854 656.707C752.087 656.707 754.708 654.086 754.708 650.853C754.708 647.621 752.087 645 748.854 645C745.621 645 743 647.621 743 650.853C743 654.086 745.621 656.707 748.854 656.707Z" stroke="#1A75E2" stroke-miterlimit="10"/>
<path d="M748.854 705.694C752.087 705.694 754.708 703.073 754.708 699.84C754.708 696.608 752.087 693.987 748.854 693.987C745.621 693.987 743 696.608 743 699.84C743 703.073 745.621 705.694 748.854 705.694Z" stroke="#1A75E2" stroke-miterlimit="10"/>
<path d="M748.854 754.694C752.087 754.694 754.708 752.073 754.708 748.84C754.708 745.607 752.087 742.987 748.854 742.987C745.621 742.987 743 745.607 743 748.84C743 752.073 745.621 754.694 748.854 754.694Z" stroke="#1A75E2" stroke-miterlimit="10"/>
<path d="M348 171.506H367.514" stroke="#1A75E2" stroke-miterlimit="10"/>
<path d="M357.758 180.833V162.167" stroke="#1A75E2" stroke-miterlimit="10"/>
<path d="M1015 595.339H1034.51" stroke="#1A75E2" stroke-miterlimit="10"/>
<path d="M1024.76 604.666V586" stroke="#1A75E2" stroke-miterlimit="10"/>
<path d="M738.852 52.7071H758.365" stroke="#1A75E2" stroke-miterlimit="10"/>
<path d="M748.607 62.0466V43.3806" stroke="#1A75E2" stroke-miterlimit="10"/>
<path d="M567 637.339H586.514" stroke="#1A75E2" stroke-miterlimit="10"/>
<path d="M576.758 646.666V628" stroke="#1A75E2" stroke-miterlimit="10"/>
<path d="M1250 320.339H1269.51" stroke="#1A75E2" stroke-miterlimit="10"/>
<path d="M1259.76 329.666V311" stroke="#1A75E2" stroke-miterlimit="10"/>
<path d="M1153.1 185.958C1157.09 185.958 1160.32 182.725 1160.32 178.738C1160.32 174.751 1157.09 171.519 1153.1 171.519C1149.11 171.519 1145.88 174.751 1145.88 178.738C1145.88 182.725 1149.11 185.958 1153.1 185.958Z" fill="#1A75E2"/>
<path d="M934.558 39.7645C938.546 39.7645 941.778 36.5323 941.778 32.5452C941.778 28.5581 938.546 25.326 934.558 25.326C930.57 25.326 927.338 28.5581 927.338 32.5452C927.338 36.5323 930.57 39.7645 934.558 39.7645Z" fill="#1A75E2"/>
<path d="M1242.22 480.581C1246.21 480.581 1249.44 477.349 1249.44 473.362C1249.44 469.375 1246.21 466.143 1242.22 466.143C1238.23 466.143 1235 469.375 1235 473.362C1235 477.349 1238.23 480.581 1242.22 480.581Z" fill="#1843BF"/>
<path d="M1330.22 172.438C1334.21 172.438 1337.44 169.206 1337.44 165.219C1337.44 161.232 1334.21 158 1330.22 158C1326.23 158 1323 161.232 1323 165.219C1323 169.206 1326.23 172.438 1330.22 172.438Z" fill="#1843BF"/>
<path d="M111.22 351.376C115.208 351.376 118.44 348.144 118.44 344.157C118.44 340.17 115.208 336.938 111.22 336.938C107.233 336.938 104 340.17 104 344.157C104 348.144 107.233 351.376 111.22 351.376Z" fill="#1843BF"/>
<path d="M579.306 88.7643C583.294 88.7643 586.526 85.5321 586.526 81.5451C586.526 77.558 583.294 74.3258 579.306 74.3258C575.318 74.3258 572.086 77.558 572.086 81.5451C572.086 85.5321 575.318 88.7643 579.306 88.7643Z" fill="#1843BF"/>
<path d="M493.22 646.438C497.208 646.438 500.44 643.206 500.44 639.219C500.44 635.232 497.208 632 493.22 632C489.233 632 486 635.232 486 639.219C486 643.206 489.233 646.438 493.22 646.438Z" fill="#1843BF"/>
<path d="M697.22 641.438C701.208 641.438 704.44 638.206 704.44 634.219C704.44 630.232 701.208 627 697.22 627C693.233 627 690 630.232 690 634.219C690 638.206 693.233 641.438 697.22 641.438Z" fill="#1A75E2"/>
<path d="M200.968 456.088C204.956 456.088 208.188 452.855 208.188 448.868C208.188 444.881 204.956 441.649 200.968 441.649C196.981 441.649 193.748 444.881 193.748 448.868C193.748 452.855 196.981 456.088 200.968 456.088Z" fill="#1A75E2"/>
<path d="M299.818 69.2658C303.805 69.2658 307.038 66.0337 307.038 62.0466C307.038 58.0595 303.805 54.8273 299.818 54.8273C295.83 54.8273 292.598 58.0595 292.598 62.0466C292.598 66.0337 295.83 69.2658 299.818 69.2658Z" fill="#1A75E2"/>
</g>
<defs>
<filter id="filter0_d_1474_7926" x="803.734" y="-118.598" width="193.508" height="193.49" filterUnits="userSpaceOnUse" color-interpolation-filters="sRGB">
<feFlood flood-opacity="0" result="BackgroundImageFix"/>
<feColorMatrix in="SourceAlpha" type="matrix" values="0 0 0 0 0 0 0 0 0 0 0 0 0 0 0 0 0 0 127 0" result="hardAlpha"/>
<feOffset/>
<feGaussianBlur stdDeviation="10"/>
<feColorMatrix type="matrix" values="0 0 0 0 0 0 0 0 0 0 0 0 0 0 0 0 0 0 0.25 0"/>
<feBlend mode="normal" in2="BackgroundImageFix" result="effect1_dropShadow_1474_7926"/>
<feBlend mode="normal" in="SourceGraphic" in2="effect1_dropShadow_1474_7926" result="shape"/>
</filter>
<filter id="filter1_d_1474_7926" x="1340" y="376.349" width="193.508" height="193.49" filterUnits="userSpaceOnUse" color-interpolation-filters="sRGB">
<feFlood flood-opacity="0" result="BackgroundImageFix"/>
<feColorMatrix in="SourceAlpha" type="matrix" values="0 0 0 0 0 0 0 0 0 0 0 0 0 0 0 0 0 0 127 0" result="hardAlpha"/>
<feOffset/>
<feGaussianBlur stdDeviation="10"/>
<feColorMatrix type="matrix" values="0 0 0 0 0 0 0 0 0 0 0 0 0 0 0 0 0 0 0.25 0"/>
<feBlend mode="normal" in2="BackgroundImageFix" result="effect1_dropShadow_1474_7926"/>
<feBlend mode="normal" in="SourceGraphic" in2="effect1_dropShadow_1474_7926" result="shape"/>
</filter>
<filter id="filter2_d_1474_7926" x="194.693" y="674" width="193.508" height="193.49" filterUnits="userSpaceOnUse" color-interpolation-filters="sRGB">
<feFlood flood-opacity="0" result="BackgroundImageFix"/>
<feColorMatrix in="SourceAlpha" type="matrix" values="0 0 0 0 0 0 0 0 0 0 0 0 0 0 0 0 0 0 127 0" result="hardAlpha"/>
<feOffset/>
<feGaussianBlur stdDeviation="10"/>
<feColorMatrix type="matrix" values="0 0 0 0 0 0 0 0 0 0 0 0 0 0 0 0 0 0 0.25 0"/>
<feBlend mode="normal" in2="BackgroundImageFix" result="effect1_dropShadow_1474_7926"/>
<feBlend mode="normal" in="SourceGraphic" in2="effect1_dropShadow_1474_7926" result="shape"/>
</filter>
<filter id="filter3_d_1474_7926" x="-134" y="82.4093" width="193.508" height="193.49" filterUnits="userSpaceOnUse" color-interpolation-filters="sRGB">
<feFlood flood-opacity="0" result="BackgroundImageFix"/>
<feColorMatrix in="SourceAlpha" type="matrix" values="0 0 0 0 0 0 0 0 0 0 0 0 0 0 0 0 0 0 127 0" result="hardAlpha"/>
<feOffset/>
<feGaussianBlur stdDeviation="10"/>
<feColorMatrix type="matrix" values="0 0 0 0 0 0 0 0 0 0 0 0 0 0 0 0 0 0 0.25 0"/>
<feBlend mode="normal" in2="BackgroundImageFix" result="effect1_dropShadow_1474_7926"/>
<feBlend mode="normal" in="SourceGraphic" in2="effect1_dropShadow_1474_7926" result="shape"/>
</filter>
<linearGradient id="paint0_linear_1474_7926" x1="53.0485" y1="66.8312" x2="744.097" y2="621.66" gradientUnits="userSpaceOnUse">
<stop stop-color="#197CE1"/>
<stop offset="1" stop-color="#9FBDFF"/>
</linearGradient>
<clipPath id="clip0_1474_7926">
<rect width="1440" height="761" rx="30" fill="white"/>
</clipPath>
</defs>
</svg>
