<svg xmlns="http://www.w3.org/2000/svg" xmlns:xlink="http://www.w3.org/1999/xlink" viewBox="0 0 1080 1080"><defs><style>.cls-1,.cls-14{opacity:0.75;}.cls-1{fill:url(#linear-gradient);}.cls-10,.cls-100,.cls-101,.cls-102,.cls-103,.cls-104,.cls-11,.cls-14,.cls-2,.cls-3,.cls-31,.cls-32,.cls-37,.cls-4,.cls-49,.cls-5,.cls-50,.cls-57,.cls-6,.cls-61,.cls-65,.cls-7,.cls-70,.cls-71,.cls-78,.cls-8,.cls-80,.cls-85,.cls-90,.cls-96,.cls-97,.cls-98,.cls-99{fill:none;}.cls-10,.cls-100,.cls-101,.cls-102,.cls-103,.cls-109,.cls-11,.cls-110,.cls-14,.cls-2,.cls-3,.cls-31,.cls-37,.cls-4,.cls-45,.cls-46,.cls-47,.cls-48,.cls-49,.cls-5,.cls-50,.cls-6,.cls-7,.cls-8,.cls-80,.cls-91,.cls-96,.cls-97,.cls-98,.cls-99{stroke-miterlimit:10;}.cls-2{stroke:url(#linear-gradient-2);}.cls-3{stroke:url(#linear-gradient-3);}.cls-4{stroke:url(#linear-gradient-4);}.cls-5{stroke:url(#linear-gradient-5);}.cls-6{stroke:url(#linear-gradient-6);}.cls-7{stroke:url(#linear-gradient-7);}.cls-8{stroke:url(#linear-gradient-8);}.cls-13,.cls-9,.cls-91{fill:#ededed;}.cls-10{stroke:#dcdcdc;}.cls-10,.cls-14,.cls-65,.cls-70,.cls-72{stroke-width:2px;}.cls-11{stroke:url(#linear-gradient-9);}.cls-12{fill:url(#linear-gradient-10);}.cls-13{opacity:0.51;}.cls-14{stroke:url(#linear-gradient-11);}.cls-15{fill:url(#linear-gradient-12);}.cls-16{fill:#6a91d6;}.cls-17{fill:#197ddf;}.cls-18{fill:url(#linear-gradient-13);}.cls-19{fill:url(#linear-gradient-14);}.cls-20{fill:#76a0dd;}.cls-21{fill:#164da7;}.cls-22{fill:url(#linear-gradient-15);}.cls-23{fill:url(#linear-gradient-16);}.cls-24{fill:url(#linear-gradient-17);}.cls-25{fill:url(#linear-gradient-18);}.cls-26{fill:url(#linear-gradient-19);}.cls-27{fill:url(#linear-gradient-20);}.cls-28{fill:url(#linear-gradient-21);}.cls-29{fill:url(#linear-gradient-22);}.cls-30{fill:url(#linear-gradient-23);}.cls-109,.cls-110,.cls-31,.cls-37,.cls-45,.cls-46,.cls-47,.cls-48{stroke:#164da7;}.cls-32{stroke:#1d66cc;}.cls-104,.cls-32,.cls-70,.cls-78,.cls-85{stroke-linejoin:round;}.cls-33{fill:#1d66cc;}.cls-34{fill:url(#linear-gradient-24);}.cls-35{fill:url(#linear-gradient-25);}.cls-36{fill:url(#linear-gradient-26);}.cls-109,.cls-110,.cls-37,.cls-45,.cls-46,.cls-47,.cls-48{stroke-width:0.5px;}.cls-38,.cls-44{fill:#9fbdff;}.cls-38{fill-opacity:0.42;}.cls-39{fill:url(#linear-gradient-27);}.cls-40{fill:url(#linear-gradient-28);}.cls-41{fill:url(#linear-gradient-29);}.cls-42{fill:url(#linear-gradient-30);}.cls-43{fill:url(#linear-gradient-31);}.cls-45{fill:url(#linear-gradient-32);}.cls-46{fill:url(#linear-gradient-33);}.cls-47{fill:url(#linear-gradient-34);}.cls-48{fill:url(#linear-gradient-35);}.cls-105,.cls-106,.cls-107,.cls-49{stroke:#ed6921;}.cls-49{stroke-width:4px;}.cls-50{stroke:url(#linear-gradient-36);}.cls-51{fill:#ff996c;}.cls-107,.cls-52,.cls-95{fill:#fff;}.cls-53{fill:#6b90d6;}.cls-54{fill:url(#linear-gradient-37);}.cls-55{fill:#fbfef9;}.cls-56{fill:url(#linear-gradient-38);}.cls-57,.cls-62,.cls-78{stroke:#9c9c9c;}.cls-105,.cls-106,.cls-107,.cls-57,.cls-61,.cls-71,.cls-75,.cls-78,.cls-90{stroke-linecap:round;}.cls-58{fill:#1a45ad;}.cls-59{fill:#197ce1;}.cls-106,.cls-60,.cls-94{fill:#f9b471;}.cls-61,.cls-72,.cls-75,.cls-80{stroke:#113291;}.cls-62,.cls-67{fill:#9c9c9c;}.cls-63,.cls-72{fill:#0e1e66;}.cls-104,.cls-107,.cls-64,.cls-85{fill-rule:evenodd;}.cls-64{fill:url(#linear-gradient-39);}.cls-65{stroke:#000;}.cls-66{fill:#1b44c0;}.cls-68{fill:#d8d8d8;}.cls-69{fill:url(#linear-gradient-40);}.cls-70{stroke:#ff996c;}.cls-71{stroke:#898989;}.cls-73{fill:#898989;}.cls-74{fill:#113291;}.cls-75{fill:#94bdff;}.cls-76{fill:url(#linear-gradient-41);}.cls-77{fill:#c4c4c4;}.cls-79{fill:url(#linear-gradient-42);}.cls-81{fill:url(#linear-gradient-43);}.cls-82{fill:url(#linear-gradient-44);}.cls-83{fill:url(#linear-gradient-45);}.cls-84{fill:url(#linear-gradient-46);}.cls-85{stroke:url(#linear-gradient-47);}.cls-86{fill:#fe832c;}.cls-87{fill:#fcb36e;}.cls-88{fill:#fdfffe;}.cls-89{fill:#ed6921;}.cls-90{stroke:url(#linear-gradient-48);}.cls-91{stroke-width:0.75px;stroke:url(#linear-gradient-49);}.cls-92{fill:url(#linear-gradient-50);}.cls-93{fill:url(#linear-gradient-51);}.cls-94{opacity:0.82;}.cls-95{opacity:0.6;}.cls-96{stroke:url(#linear-gradient-52);}.cls-97{stroke:url(#linear-gradient-53);}.cls-98{stroke:url(#linear-gradient-54);}.cls-99{stroke:url(#linear-gradient-55);}.cls-100{stroke:url(#linear-gradient-56);}.cls-101{stroke:url(#linear-gradient-57);}.cls-102{stroke:url(#linear-gradient-58);}.cls-103{stroke:url(#linear-gradient-59);}.cls-104{stroke:url(#linear-gradient-60);}.cls-105{fill-opacity:0.8;fill:url(#linear-gradient-61);}.cls-106{fill-opacity:0.3;}.cls-107{fill-opacity:0.2;}.cls-108{fill:url(#linear-gradient-62);}.cls-109{fill:url(#linear-gradient-63);}.cls-110{fill:url(#linear-gradient-64);}.cls-111{fill:url(#linear-gradient-65);}.cls-112{fill:url(#linear-gradient-66);}</style><linearGradient id="linear-gradient" x1="468.6" y1="279.77" x2="752.62" y2="279.77" gradientUnits="userSpaceOnUse"><stop offset="0" stop-color="#fe832c"/><stop offset="1" stop-color="#fec290"/></linearGradient><linearGradient id="linear-gradient-2" x1="647.91" y1="162.91" x2="647.91" y2="470.33" gradientUnits="userSpaceOnUse"><stop offset="0" stop-color="#f1f6ff" stop-opacity="0"/><stop offset="0.99" stop-color="#f1f6ff"/></linearGradient><linearGradient id="linear-gradient-3" x1="612.13" y1="189" x2="612.13" y2="496.42" xlink:href="#linear-gradient-2"/><linearGradient id="linear-gradient-4" x1="683.7" y1="162.05" x2="683.7" y2="469.47" xlink:href="#linear-gradient-2"/><linearGradient id="linear-gradient-5" x1="719.59" y1="192.17" x2="719.59" y2="499.58" xlink:href="#linear-gradient-2"/><linearGradient id="linear-gradient-6" x1="576.59" y1="215.95" x2="576.59" y2="523.36" xlink:href="#linear-gradient-2"/><linearGradient id="linear-gradient-7" x1="540.55" y1="212.45" x2="540.55" y2="519.87" xlink:href="#linear-gradient-2"/><linearGradient id="linear-gradient-8" x1="504.76" y1="238.54" x2="504.76" y2="545.95" xlink:href="#linear-gradient-2"/><linearGradient id="linear-gradient-9" x1="589.34" y1="450.79" x2="914.66" y2="450.79" gradientUnits="userSpaceOnUse"><stop offset="0.23" stop-color="#1a58ad" stop-opacity="0"/><stop offset="1" stop-color="#1a58ad" stop-opacity="0.5"/></linearGradient><linearGradient id="linear-gradient-10" x1="868.51" y1="276.53" x2="638.05" y2="230.97" gradientUnits="userSpaceOnUse"><stop offset="0" stop-color="#94c8ff"/><stop offset="1" stop-color="#fff" stop-opacity="0"/></linearGradient><linearGradient id="linear-gradient-11" x1="467.6" y1="279.25" x2="753.54" y2="279.25" xlink:href="#linear-gradient"/><linearGradient id="linear-gradient-12" x1="171.79" y1="323.83" x2="286.54" y2="323.83" gradientUnits="userSpaceOnUse"><stop offset="0" stop-color="#fe832c" stop-opacity="0.5"/><stop offset="1" stop-color="#fec290"/></linearGradient><linearGradient id="linear-gradient-13" x1="799.89" y1="398.39" x2="659.73" y2="398.39" gradientUnits="userSpaceOnUse"><stop offset="0.32" stop-color="#197ddf"/><stop offset="0.39" stop-color="#197ddf" stop-opacity="0.93"/><stop offset="0.54" stop-color="#197ddf" stop-opacity="0.73"/><stop offset="0.75" stop-color="#197ddf" stop-opacity="0.42"/><stop offset="1" stop-color="#197ddf" stop-opacity="0"/></linearGradient><linearGradient id="linear-gradient-14" x1="799.89" y1="446.38" x2="659.73" y2="446.38" xlink:href="#linear-gradient-13"/><linearGradient id="linear-gradient-15" x1="334.82" y1="308.16" x2="334.82" y2="912.04" gradientUnits="userSpaceOnUse"><stop offset="0" stop-color="#acf" stop-opacity="0"/><stop offset="0.44" stop-color="#197ddf"/></linearGradient><linearGradient id="linear-gradient-16" x1="455.42" y1="372.6" x2="455.42" y2="911.92" gradientUnits="userSpaceOnUse"><stop offset="0" stop-color="#1a58ad" stop-opacity="0.5"/><stop offset="0.77" stop-color="#1a58ad" stop-opacity="0"/></linearGradient><linearGradient id="linear-gradient-17" x1="334.82" y1="507.14" x2="334.82" y2="912.04" xlink:href="#linear-gradient-15"/><linearGradient id="linear-gradient-18" x1="686.62" y1="500.54" x2="686.62" y2="869.21" xlink:href="#linear-gradient-16"/><linearGradient id="linear-gradient-19" x1="494.17" y1="340.31" x2="494.17" y2="908.29" gradientUnits="userSpaceOnUse"><stop offset="0" stop-color="#197ddf"/><stop offset="0.44" stop-color="#1661be"/></linearGradient><linearGradient id="linear-gradient-20" x1="281.03" y1="391.84" x2="281.03" y2="900.6" gradientUnits="userSpaceOnUse"><stop offset="0" stop-color="#6a91d6"/><stop offset="1" stop-color="#1661be"/></linearGradient><linearGradient id="linear-gradient-21" x1="195.36" y1="391.35" x2="195.36" y2="858.41" gradientUnits="userSpaceOnUse"><stop offset="0" stop-color="#acf"/><stop offset="0.44" stop-color="#197ddf"/></linearGradient><linearGradient id="linear-gradient-22" x1="912.44" y1="439.68" x2="912.44" y2="696.36" gradientUnits="userSpaceOnUse"><stop offset="0" stop-color="#6a91d6"/><stop offset="0.61" stop-color="#1661be"/></linearGradient><linearGradient id="linear-gradient-23" x1="494.17" y1="340.31" x2="494.17" y2="502.81" gradientUnits="userSpaceOnUse"><stop offset="0" stop-color="#1661be"/><stop offset="1" stop-color="#1661be" stop-opacity="0"/></linearGradient><linearGradient id="linear-gradient-24" x1="195.32" y1="545.94" x2="195.32" y2="858.34" xlink:href="#linear-gradient-16"/><linearGradient id="linear-gradient-25" x1="811.45" y1="584.01" x2="811.45" y2="811.86" xlink:href="#linear-gradient-16"/><linearGradient id="linear-gradient-26" x1="668.62" y1="733.41" x2="668.62" y2="878.69" xlink:href="#linear-gradient-16"/><linearGradient id="linear-gradient-27" x1="439.85" y1="568.96" x2="439.85" y2="912.05" xlink:href="#linear-gradient-10"/><linearGradient id="linear-gradient-28" x1="743.7" y1="387.5" x2="743.7" y2="862.78" xlink:href="#linear-gradient-10"/><linearGradient id="linear-gradient-29" x1="237.99" y1="698.89" x2="237.99" y2="885.54" xlink:href="#linear-gradient-10"/><linearGradient id="linear-gradient-30" x1="493.38" y1="2331.64" x2="493.38" y2="2023.21" gradientTransform="matrix(1, 0, 0, -1, 0, 2970)" gradientUnits="userSpaceOnUse"><stop offset="0" stop-color="#b4c7fe" stop-opacity="0"/><stop offset="0.77" stop-color="#b4c7fe"/></linearGradient><linearGradient id="linear-gradient-31" x1="416.31" y1="615.95" x2="416.31" y2="624.33" gradientUnits="userSpaceOnUse"><stop offset="0" stop-color="#1b44c0"/><stop offset="0.14" stop-color="#1b4ac3" stop-opacity="0.9"/><stop offset="0.42" stop-color="#1a59cc" stop-opacity="0.63"/><stop offset="0.82" stop-color="#1971da" stop-opacity="0.2"/><stop offset="1" stop-color="#197ce1" stop-opacity="0"/></linearGradient><linearGradient id="linear-gradient-32" x1="748.38" y1="481.12" x2="763.6" y2="512.82" gradientUnits="userSpaceOnUse"><stop offset="0" stop-color="#fbfef9"/><stop offset="0.52" stop-color="#eceefc"/><stop offset="1" stop-color="#dbdbff"/></linearGradient><linearGradient id="linear-gradient-33" x1="644.63" y1="438.95" x2="663.4" y2="479.86" xlink:href="#linear-gradient-32"/><linearGradient id="linear-gradient-34" x1="686.42" y1="536.78" x2="709.86" y2="615.2" xlink:href="#linear-gradient-32"/><linearGradient id="linear-gradient-35" x1="580.05" y1="527.19" x2="606.64" y2="589.39" xlink:href="#linear-gradient-32"/><linearGradient id="linear-gradient-36" x1="184.39" y1="567.01" x2="900.42" y2="567.01" gradientUnits="userSpaceOnUse"><stop offset="0.01" stop-color="#f1f6ff"/><stop offset="1" stop-color="#f1f6ff" stop-opacity="0"/></linearGradient><linearGradient id="linear-gradient-37" x1="403.44" y1="2372.94" x2="470.16" y2="2369.17" gradientTransform="matrix(1, 0, 0, -1, 0, 2970)" gradientUnits="userSpaceOnUse"><stop offset="0" stop-color="#969696"/><stop offset="1" stop-color="#fff"/></linearGradient><linearGradient id="linear-gradient-38" x1="414.35" y1="2422.76" x2="477.71" y2="2441.04" gradientTransform="matrix(1, 0, 0, -1, 0, 2970)" gradientUnits="userSpaceOnUse"><stop offset="0" stop-color="#969696"/><stop offset="0.79" stop-color="#c4c4c4" stop-opacity="0"/></linearGradient><linearGradient id="linear-gradient-39" x1="395.29" y1="509.55" x2="488.88" y2="476.63" gradientUnits="userSpaceOnUse"><stop offset="0" stop-color="#3845a4"/><stop offset="1" stop-color="#113291"/></linearGradient><linearGradient id="linear-gradient-40" x1="361.14" y1="842.8" x2="428.49" y2="881.68" gradientUnits="userSpaceOnUse"><stop offset="0" stop-color="#1b44c0"/><stop offset="0.19" stop-color="#1b45c1" stop-opacity="0.98"/><stop offset="0.33" stop-color="#1b48c2" stop-opacity="0.93"/><stop offset="0.47" stop-color="#1b4dc5" stop-opacity="0.85"/><stop offset="0.59" stop-color="#1a54c9" stop-opacity="0.72"/><stop offset="0.71" stop-color="#1a5cce" stop-opacity="0.56"/><stop offset="0.83" stop-color="#1a67d5" stop-opacity="0.37"/><stop offset="0.94" stop-color="#1974dc" stop-opacity="0.14"/><stop offset="1" stop-color="#197ce1" stop-opacity="0"/></linearGradient><linearGradient id="linear-gradient-41" x1="334.56" y1="717.8" x2="451.89" y2="717.8" gradientUnits="userSpaceOnUse"><stop offset="0" stop-color="#1b44c0"/><stop offset="0.31" stop-color="#1b47c2"/><stop offset="0.55" stop-color="#1b51c8"/><stop offset="0.77" stop-color="#1a62d1"/><stop offset="0.98" stop-color="#1979df"/><stop offset="1" stop-color="#197ce1"/></linearGradient><linearGradient id="linear-gradient-42" x1="339.16" y1="668.25" x2="411.48" y2="660.4" xlink:href="#linear-gradient-31"/><linearGradient id="linear-gradient-43" x1="503.89" y1="914.11" x2="569.77" y2="863.74" xlink:href="#linear-gradient-41"/><linearGradient id="linear-gradient-44" x1="502.47" y1="770.86" x2="616.42" y2="765.16" xlink:href="#linear-gradient-41"/><linearGradient id="linear-gradient-45" x1="652.89" y1="712.07" x2="669.43" y2="702.13" xlink:href="#linear-gradient-41"/><linearGradient id="linear-gradient-46" x1="529.47" y1="841.97" x2="529.9" y2="708.03" gradientUnits="userSpaceOnUse"><stop offset="0" stop-color="#1b44c0" stop-opacity="0.5"/><stop offset="0.25" stop-color="#1b46c1" stop-opacity="0.48"/><stop offset="0.44" stop-color="#1b4cc4" stop-opacity="0.43"/><stop offset="0.62" stop-color="#1a55ca" stop-opacity="0.35"/><stop offset="0.79" stop-color="#1a63d2" stop-opacity="0.22"/><stop offset="0.94" stop-color="#1975dd" stop-opacity="0.07"/><stop offset="1" stop-color="#197ce1" stop-opacity="0"/></linearGradient><linearGradient id="linear-gradient-47" x1="325.84" y1="456.19" x2="369.55" y2="456.19" xlink:href="#linear-gradient-36"/><linearGradient id="linear-gradient-48" x1="493.38" y1="947.37" x2="493.38" y2="809.29" gradientUnits="userSpaceOnUse"><stop offset="0" stop-color="#113291"/><stop offset="1" stop-color="#113291" stop-opacity="0"/></linearGradient><linearGradient id="linear-gradient-49" x1="822.14" y1="309.18" x2="833.57" y2="309.18" gradientTransform="translate(681.69 -562.35) rotate(60)" gradientUnits="userSpaceOnUse"><stop offset="0" stop-color="#1a58ad" stop-opacity="0.7"/><stop offset="1" stop-color="#1a58ad" stop-opacity="0.5"/></linearGradient><linearGradient id="linear-gradient-50" x1="469.61" y1="403.11" x2="520.28" y2="403.11" xlink:href="#linear-gradient-20"/><linearGradient id="linear-gradient-51" x1="497.83" y1="379.89" x2="523.91" y2="379.89" xlink:href="#linear-gradient-20"/><linearGradient id="linear-gradient-52" x1="212.78" y1="519.68" x2="299.06" y2="519.68" xlink:href="#linear-gradient-36"/><linearGradient id="linear-gradient-53" x1="492.97" y1="440.18" x2="566.34" y2="440.18" xlink:href="#linear-gradient-2"/><linearGradient id="linear-gradient-54" x1="295.17" y1="399.44" x2="324.77" y2="399.44" xlink:href="#linear-gradient-2"/><linearGradient id="linear-gradient-55" x1="571.19" y1="334.95" x2="605.47" y2="334.95" xlink:href="#linear-gradient-2"/><linearGradient id="linear-gradient-56" x1="273.79" y1="684.77" x2="273.79" y2="811.15" xlink:href="#linear-gradient-36"/><linearGradient id="linear-gradient-57" x1="849.84" y1="449.46" x2="849.84" y2="702.09" xlink:href="#linear-gradient-36"/><linearGradient id="linear-gradient-58" x1="781.33" y1="422.07" x2="781.33" y2="729.49" xlink:href="#linear-gradient-36"/><linearGradient id="linear-gradient-59" x1="708.99" y1="366.6" x2="708.99" y2="674.02" xlink:href="#linear-gradient-36"/><linearGradient id="linear-gradient-60" x1="782.85" y1="621.19" x2="814.52" y2="621.19" gradientTransform="matrix(1.25, -0.1, 0.08, 1, -251.08, 84.5)" xlink:href="#linear-gradient-36"/><linearGradient id="linear-gradient-61" x1="1085.2" y1="2596.2" x2="1113.19" y2="2446.19" gradientTransform="matrix(1, 0.06, 0.06, -1, -570.48, 2988.03)" gradientUnits="userSpaceOnUse"><stop offset="0" stop-color="#fcb36e"/><stop offset="1" stop-color="#fe832c"/></linearGradient><linearGradient id="linear-gradient-62" x1="622.91" y1="520.29" x2="702.42" y2="520.29" gradientTransform="translate(-100.97 187.39) rotate(-13.47)" gradientUnits="userSpaceOnUse"><stop offset="0" stop-color="#ed6921" stop-opacity="0"/><stop offset="1" stop-color="#ed6921"/></linearGradient><linearGradient id="linear-gradient-63" x1="297.75" y1="723.12" x2="297.75" y2="856.23" xlink:href="#linear-gradient-32"/><linearGradient id="linear-gradient-64" x1="708.99" y1="363.04" x2="775.84" y2="363.04" xlink:href="#linear-gradient-32"/><linearGradient id="linear-gradient-65" x1="408.86" y1="636.68" x2="422.04" y2="636.68" xlink:href="#linear-gradient-31"/><linearGradient id="linear-gradient-66" x1="472.2" y1="628.7" x2="490.35" y2="628.7" xlink:href="#linear-gradient-31"/></defs><title>anon</title><g id="Layer_6" data-name="Layer 6"><path class="cls-1" d="M468.6,395.12s12.67-112.25,42.19-133.3,36,89.42,76.62-5.77c26.31-61.62,34-86.05,60.5-91.35C687.06,156.87,752.62,321,752.62,321Z"/><line class="cls-2" x1="647.91" y1="162.91" x2="647.91" y2="470.33"/><line class="cls-3" x1="612.13" y1="189" x2="612.13" y2="496.42"/><line class="cls-4" x1="683.7" y1="162.05" x2="683.7" y2="469.47"/><line class="cls-5" x1="719.59" y1="192.17" x2="719.59" y2="499.58"/><line class="cls-6" x1="576.59" y1="215.95" x2="576.59" y2="523.36"/><line class="cls-7" x1="540.55" y1="212.45" x2="540.55" y2="519.87"/><line class="cls-8" x1="504.76" y1="238.54" x2="504.76" y2="545.95"/><path class="cls-9" d="M640.11,307.29,904.9,242.76V602.33L640.11,796Z"/><line class="cls-10" x1="733.98" y1="284.37" x2="733.98" y2="499.93"/><line class="cls-10" x1="687.04" y1="296.3" x2="687.04" y2="511.86"/><line class="cls-10" x1="827.86" y1="260.52" x2="827.86" y2="476.08"/><line class="cls-10" x1="780.92" y1="272.45" x2="780.92" y2="488"/><line class="cls-10" x1="874.79" y1="248.59" x2="874.79" y2="464.15"/><polyline class="cls-11" points="827.86 625.11 658.45 621.21 589.89 412.4 640.86 334.19 687.04 416.33 733.98 305.49 782.05 381.31 827.86 309.19 874.79 350.77 914.22 276.22"/><path class="cls-12" d="M919.66,252.41,659.72,314.07s.61-22.13,31.73-21.81c0,0,.21-35.68,50-28.64s33.69-53.57,78.41-68.45c53.14-17.68,58.3,48.47,58.3,48.47S897.62,223.19,919.66,252.41Z"/><path class="cls-13" d="M301.6,258s-19.81-43.42-43.12-25.62-21.14,66.44-21.14,66.44-18.2-10-28.64,8.68-13.44,30.9-13.44,30.9-10.37-6.66-18.06,9.48l132.59-34.3Z"/><path class="cls-14" d="M468.6,395.12s12.67-112.25,42.19-133.3,36,89.42,76.62-5.77c26.31-61.62,34.91-84.51,60.5-91.35C685,154.78,752.62,321,752.62,321"/><path class="cls-15" d="M171.79,371.77l113.42-33.33s6.31-67.7-8.56-62.22-32.08,33.95-37.56,45.15-15.62-1-25.81,0-15.15,35.85-15.15,35.85S175.71,351.49,171.79,371.77Z"/><path class="cls-16" d="M636.64,863.27c70-26.48,125.91-58.77,170-94.13V335.2L636,285.57Z"/><path class="cls-17" d="M536.48,894.37q30.24-7.38,62.94-18,10.7-3.48,21-7.15V285.63l-83.92,24.49Z"/><polygon class="cls-18" points="805.18 511.21 806.6 335.19 635.99 285.57 635.99 341.56 805.18 511.21"/><polygon class="cls-19" points="805.18 607.35 806.6 335.19 635.99 285.4 635.99 437.69 805.18 607.35"/><rect class="cls-20" x="620.4" y="285.57" width="15.58" height="609.87"/><path class="cls-17" d="M268,882.62c35.69,18.78,80.18,29.23,133.58,29.42V216.7L268,255.68Z"/><path class="cls-21" d="M255.21,387.42V875.29l.5.31V387.8L388.79,349V911.8h.5V348.3l-133.9,39.07Z"/><path class="cls-16" d="M401.61,912c29.34.1,61.36-2.9,96.09-9.33v-658l-96.09-28Z"/><path class="cls-21" d="M427.71,899.09l32.23,9.41,1.25-.16-33-9.62V270.16l78.69,23V901l.5-.1V292.75L427.71,269.5Z"/><path class="cls-21" d="M667.37,313.19v537.7l.5-.22V313.86l122.59,35.77V781.56c.16-.13.33-.25.5-.37V349.26l-123.27-36Z"/><path class="cls-22" d="M268,882.62c35.69,18.78,80.18,29.23,133.58,29.42V308.16L268,533.85Z"/><path class="cls-23" d="M413.73,375.31l-.58,536.61a533.68,533.68,0,0,0,84.55-9.21V386.12L439.58,372.6Z"/><path class="cls-24" d="M268,882.62c35.69,18.78,80.18,29.23,133.58,29.42V507.14L268,732.83Z"/><path class="cls-16" d="M526.68,896.7q31.17-7.17,65-17.86V359.29l-65-19Z"/><path class="cls-25" d="M620.4,594.56V869.21c51-18.08,94.88-39.17,132.44-62.31V506.4l-44.12-5.86L636,587.06Z"/><path class="cls-26" d="M461.66,908.29a641.92,641.92,0,0,0,65-11.59V340.31l-65,19Z"/><path class="cls-27" d="M248.52,871c18.72,12.67,40.39,22.68,65,29.65V410.82l-65-19Z"/><path class="cls-20" d="M232.48,858.83a194.66,194.66,0,0,0,16,12.12V391.84h-16Z"/><path class="cls-28" d="M158.81,672.7C157.38,750.53,181.6,815.79,232,858.41V391.35L158.81,412.7Z"/><path class="cls-17" d="M878.49,696.36V439.68L745.08,478.61v333C803.43,776.91,847.05,737.36,878.49,696.36Z"/><path class="cls-29" d="M878.49,696.36c63.58-82.92,77.35-171.79,62.38-238.48l-62.38-18.2Z"/><polygon class="cls-30" points="524.91 502.81 461.66 420.59 461.66 359.29 526.68 340.31 524.91 502.81"/><path class="cls-21" d="M158.81,413.29,231.65,392V858.14l1,.84V390.7l-73.84,21.55Z"/><polygon class="cls-21" points="232.15 417.82 158.81 437.55 158.81 438.07 232.19 418.32 248.46 418.31 313.21 434.59 313.33 434.11 248.52 417.82 232.15 417.82"/><polygon class="cls-21" points="232.15 541.91 158.81 561.64 158.81 562.16 232.19 542.41 248.46 542.4 313.21 558.68 313.33 558.2 248.52 541.91 232.15 541.91"/><path class="cls-21" d="M232.15,666l-73.34,19.73c0,.17,0,.34,0,.51l73.37-19.74h16.27l64.75,16.28.12-.49L248.52,666Z"/><path class="cls-21" d="M232.15,790.08,186.77,802.3l.24.45,45.18-12.17h16.27l64.75,16.28.12-.49-64.81-16.29Z"/><polyline class="cls-31" points="591.7 882.8 591.7 359.29 526.68 340.31"/><path class="cls-21" d="M878,697l1-1.32V439L744.58,478.23V811.9l1-.6V479L878,440.34Z"/><path class="cls-21" d="M940.74,457.32,878.63,439.2l-.28,1L941,458.44C940.91,458.07,940.83,457.69,940.74,457.32Z"/><polyline class="cls-31" points="268.03 397.54 268.03 255.68 401.61 216.7 401.61 756.7"/><polyline class="cls-32" points="536.62 343.21 536.62 309.6 620.4 285.63 619.89 882.8"/><path class="cls-33" d="M806.74,334.71,636.29,284.93a.48.48,0,0,0-.45.08.5.5,0,0,0-.19.4L636,863.52l1-.39-.33-577.06,169.45,49.5V459h1V335.19A.51.51,0,0,0,806.74,334.71Z"/><path class="cls-21" d="M248.38,392.33,313,411.19V900.46l1,.28V410.44l-65.38-19.07Z"/><path class="cls-34" d="M158.81,672.7c-1.43,77.79,22.76,143,73.09,185.64V545.94l-73.09,55.3Z"/><path class="cls-35" d="M878.24,696.69V638.52L744.66,584V811.86C803.06,777.2,846.74,737.68,878.24,696.69Z"/><path class="cls-36" d="M620,733.41l-27.83,2.76V878.69q3.6-1.14,7.23-2.33C655.83,858,704.07,836,745.05,811.62V753.17L636.4,733.41Z"/><polyline class="cls-37" points="268.03 260.44 401.61 221.46 497.69 249.37"/><polyline class="cls-37" points="313.15 451.58 401.61 425.77 461.66 443.21"/><polyline class="cls-37" points="313.86 590.86 401.61 565.25 461.66 582.7"/><polyline class="cls-37" points="313.88 745 401.61 719.4 497.69 747.31"/><path class="cls-21" d="M878.62,493.66l-.07,0-22,6.41.14.48,21.83-6.37,67.8,19v-.51Z"/><line class="cls-37" x1="744.97" y1="531.88" x2="820.56" y2="510.83"/><polygon class="cls-37" points="534.57 821.95 584.63 836.56 584.63 397.93 534.57 383.32 534.57 821.95"/><polygon class="cls-37" points="856.71 551.38 820.54 561.93 820.54 487.45 856.71 476.89 856.71 551.38"/><path class="cls-21" d="M769.16,647.29v147l5.77-1.69,1.33-.9-6.6,1.92V647.66l70.62-20.61V739.34l.5-.5V626.39l-71.44,20.84Z"/><polyline class="cls-31" points="461.66 658.21 461.66 359.6 527.11 340.3 526.71 632.13"/><polyline class="cls-31" points="232.15 391.36 248.52 391.36 248.52 871.4"/><path class="cls-38" d="M943.74,473.26C919.33,496,867.3,518.86,781.33,438.1c-126.13-118.5-161.05-7-237.16,110.3s-152.32-65-221.92,79.21C259.81,757,182.35,735.75,162.39,727.56c24.12,153.23,168.09,236.53,437,148.8C886.35,782.77,962.36,596.7,943.74,473.26Z"/><path class="cls-39" d="M354.79,582V909c47.83,6.31,104.51,3,170.12-11.91V572.05C467,626.29,409.25,537.33,354.79,582Z"/><path class="cls-40" d="M849.5,730V485.52c-19.8-8.4-42.47-23.28-68.17-47.42-66.87-62.83-108.1-61-143.43-27.93V862.78C732.29,826.87,801.13,780.36,849.5,730Z"/><path class="cls-41" d="M202.19,826.65c18.14,24.45,42,44.42,71.6,58.89V698.89c-25.84,25.42-51.2,33.73-71.6,35Z"/><path class="cls-42" d="M341.86,591l303-47.42V899.37l-303,47.42Z"/><path class="cls-43" d="M420.07,613.38s-6.1,1.44-7.37,3.73,5.76,7.22,5.76,7.22Z"/><path class="cls-44" d="M943.65,472.6c-10,8.93-22.75,16.83-38.53,20.06-36,7.39-77.46-11-123.09-54.59-39.75-38-73-54.6-101.53-50.8-42.36,5.63-72.42,55.37-107.23,113-9.49,15.69-19.29,31.91-29.94,48.31-16.21,25-33.88,38.35-54,40.88-18,2.26-36.17-4.09-53.78-10.23-19.1-6.67-38.86-13.56-58-9.13-21.7,5-39.55,23.39-56.16,57.8C294.24,684,261.64,718.38,224.44,730c-30.57,9.52-55,.13-62.16-3.18.12.79.25,1.58.38,2.36a88.83,88.83,0,0,0,34.79,7A92.41,92.41,0,0,0,225,731.89c37.77-11.74,70.79-46.45,98.16-103.15,35.79-74.14,72.67-61.28,111.71-47.65,36,12.55,73.17,25.52,110.15-31.45,10.66-16.43,20.48-32.67,30-48.37,34.54-57.15,64.38-106.52,105.78-112,27.93-3.71,60.6,12.73,99.88,50.27,39.48,37.72,75.93,56.74,108.63,56.73a80.75,80.75,0,0,0,16.27-1.63C921.19,491.41,934,483.73,944,475,943.88,474.17,943.77,473.38,943.65,472.6Z"/><path class="cls-45" d="M761.52,484.66A133.28,133.28,0,0,1,769.21,502l-19.07,6.83A104.9,104.9,0,0,0,744,495Z"/><path class="cls-46" d="M577,497.05c4.78-19.77,14.53-37.15,28.18-50.21a87.42,87.42,0,0,1,49.09-23.74c18.45-2.46,37.62.93,55.38,9.81s33.38,22.87,45.14,40.43l-7.11,5.58a108.24,108.24,0,0,0-41.11-36.82c-16.16-8.08-33.61-11.17-50.41-8.93a79.59,79.59,0,0,0-44.7,21.62C599,466.68,590.1,482.51,585.75,500.5Z"/><path class="cls-47" d="M776.46,534.89c1.84,21-1.57,41.67-9.85,59.64s-21.12,32.53-37.07,42.08a87.58,87.58,0,0,1-53.24,12c-18.86-1.71-37.39-9.22-53.54-21.68l10.67-18.54a82.39,82.39,0,0,0,42.67,17.28,69.81,69.81,0,0,0,42.42-9.56,75.52,75.52,0,0,0,29.54-33.53,94.06,94.06,0,0,0,7.85-47.52Z"/><path class="cls-48" d="M602.9,607.51A130.91,130.91,0,0,1,580,565.11a129.23,129.23,0,0,1-6.07-47.62l20.51,3.67a103,103,0,0,0,4.84,38A104.62,104.62,0,0,0,617.54,593Z"/><path class="cls-49" d="M158.81,676.11s-15.27,157.42,131,216.5C439.18,952.93,686,852.21,775.88,791.94c96.9-65,170.51-174.59,170.51-282.27"/><path class="cls-50" d="M228.24,399.24c88.52-214.31,215.48-171.74,422.42-46.82,75.71,0,123.1-11.24,197.64,43.11,93.18,68,91.24,345.55-271.77,464S117.59,667.13,228.24,399.24Z"/><path class="cls-51" d="M832.47,369.16l72.38-20v25.19l-72.38,20Z"/><path class="cls-52" d="M848.17,372.18l49.36-13.63v2.89l-49.36,13.63Z"/><path class="cls-52" d="M848.17,377.41,861,374v2.89l-12.84,3.41Z"/><path class="cls-53" d="M867.83,392.31l37-10.59v12.6l-37,10.59Z"/><path class="cls-52" d="M869.45,394.87l25.18-6.69v2.7l-25.18,6.69Z"/><path class="cls-54" d="M419.73,639.89c-2.61-27.39-8.05-83-9-86.09l57.59,34.66L476,632.89c-1.3,3.54-5.15,10.47-13.2,10.92S430.72,641.38,419.73,639.89Z"/><path class="cls-55" d="M479.91,494.66c-4.86-12.73-78.17-.07-82.66,1.06l7.86,44.92c-4.74-.87-6.88-6-8.38,3.33s4.13,17.26,11,17.26c4.81,3.56,12.8,9.15,21.12,14.33s14.9,11.69,21,13.64c16.17,5.77,34.52,2.72,37-8.25C494.8,538.22,485,506.53,479.91,494.66Z"/><path class="cls-56" d="M463.64,591.71c.59.06-.52-.14-3.46-.68-23.81-2.21-36.59-15-44.68-23.81S401.1,521.07,400.8,515s5.15-19.11,9.7-24,23.52-7.2,20.58,0S433,513.72,434,516.8c.82,2.47,18.67,1.62,27.49.89.93,6.22,1.55,18.78-3.38,19.25-6.18.59-18.79,2.21-9.24,20.14S451.56,586.47,463.64,591.71Z"/><path class="cls-57" d="M412.7,577.53c5.67,18.14,3.82,30,5.76,46m-18.7-82.55c-.49-5.35-24.29-40.33,13.12-61.22s71.9,1,75.3,45.67,0,58.79-7.28,63.65-30.64,2.59-37.69-1.58"/><path class="cls-58" d="M428.31,516.65c-8,3.49-22.58,15.92-29,21.57a5,5,0,0,0-1.19,1.89h2.27c17.56-13.7,26.44-18.36,28.84-18.58Z"/><path class="cls-55" d="M409,571.14c-2-8,2.24-28,2.24-29.54,1.27,1-.63-5.59,3.22-12.7,3-5.61,6.95-13.1,8.44-12,1.84,0,2.56,2.53,2.6,4.16,0,1-.67,2.26-.68,3.6,0,.81-1.94,1.53-2,2.45,0,1.24,3.69-1.67,3.64-.37,0,.72,2.33,1.91,2.16,5.31-.07,1.36-6.69,11.33-6.77,12.68-.57,9.17-.82,10.13-.14,10.61,1.15-8.63,3.75-13.27,5.64-11.76,4.83,1.46,9.29,3.17,12,5.63,1.45,1.31,1.82,1.33,2.59,4.93.3,1.44,5.39,2.41,5.62,3.94.95,17.62-2.75,17.27-2.21,17.88,3.51,4,8.1,17.87,2,22.42C445.81,599.54,464,636,457.5,641.58c-14.95,2.76-26.89-28.18-29.05-30.34-2.42-2.44-6.72-22.37-9.43-24.57C414.66,580.29,409.82,574.36,409,571.14Z"/><path class="cls-59" d="M559.85,657.16C557.12,646.08,539,650.28,534,649c-1.89,52.54,7.46,160.81,7.46,168.88,0,10.09,30.79,39.94,55.38,24.8,2.53-1.56,10.7-4.41,13.67-7.45,1.14-1.17,2.77-9.07,4-10.43,25.69-29.23,55.68-91.9,57.19-103,1.17-8.64-11.75-47.72-32.9-41.56-4.36,5.7-30.24,54.32-34.66,61.25s-33.25,37-33.25,31.91S563.46,671.87,559.85,657.16Z"/><path class="cls-60" d="M475.81,631C475,642.14,447.7,648.36,445,647.19c11.82,69.22-15.92,264.69,8,282.33l114.36-17.36c6.21-53.84-53.2-226.18-81.21-273.66C483.33,633.81,477.8,633,475.81,631Z"/><path class="cls-59" d="M477.12,925.85a195.67,195.67,0,0,0,16-59.4c1.07-10-.09-19.58-.71-31.06-.81-14.91-5-38.06-8.32-57.89-4.54-27-10.15-52.45-27.82-84.63-2.48-9.43-18.77-41.31-30.1-61.21-2.48-4.35,2.51,2.08.78-1.21-.39-.74-14.41-10.79-14.73-11.42-.91-1.8,4.78-4.45,4.57-5.07-1.42,1.14-3.72,1.86-4.57,3.54-1.82,3.64-3.81,13.19-3.63,18.11-22.09,10-67.5,31.43-72.42,36.9-6.15,6.83,9.65,36.39,33.56,95.14,10.51,32.32,29.44,88.6,30.38,106.94.65,12.49-6.48,12.45-7,14.83-1.1,4.64.72,24.34-.45,28.53-1.7,6-4.55,9.38-7.68,13.45s-3.72,7.28-3.72,9.23Z"/><path class="cls-59" d="M542.41,915.94s-20-49.27-20.38-55.6c-1.9-32.87-11.5-126.7-18.54-157.37-.94-6.75-7.16-32.61-20.48-66.72-1.36-2.51-5.69-2.67-7.2-5.3-1.5-8.21-5.31-19.33-3.06-19.4,1.73,0,4.53,4.26,7.16,6,3.52,4.2,9.92,7.32,12.41,12.1,1.28,2.46-.38,7.75,0,8.86,24.22,1.35,56.2,9.26,62.76,12.58,8.2,4.14,5.24,95.85,4.22,159.28,0,0,21.57,91.6,24.29,98.61Z"/><path class="cls-61" d="M558.14,653.88c4.48,7.47,10.7,72.61,12.75,120.38"/><path class="cls-57" d="M428.94,623.64c9.23,9.4,22.9,22.43,36.89,17.37,9.27-3.34,9.54-8.08,10.15-10.88"/><path class="cls-57" d="M458.05,568.77c2.37,0,19.36,4.2,27.81-.67"/><path class="cls-62" d="M471,566.91a28.77,28.77,0,0,1-6,2.7c11.72,2.43,18.56-1.14,17.9-1.23s-3.1-2.34-3.45-2.61-.67-.15-2.75.64S472.19,566,471,566.91Z"/><path class="cls-63" d="M446.16,509.43c-5.1,3.22-13.6,5.33-17.52,5.56a7.89,7.89,0,0,0-1.8.64c-1.38.6,7.13,3.54,22,.17,4.37-1,8.4-6.82,9.24-9.06.67-1.79-2.85,1.94-3.67,2.09-.61,0-1.35-2.4-1.8-3C452,505,450.8,506.51,446.16,509.43Z"/><path class="cls-63" d="M475.51,511.15a18.69,18.69,0,0,0-6,3.93c-.58.86-1,1.94,2.15.35s12.95.38,14-.35,1.15-4.35.44-5,.42,3-1.14,3c-.62,0,.51-2.08-1.62-2.72A17.48,17.48,0,0,0,475.51,511.15Z"/><path class="cls-64" d="M406.81,515.71s3,24,4.5,27l-14.11-3.3c-.36-.75-.83-1.65-1.38-2.67-4-7.54-9.82-31.18-8.42-35,2.63-8.32,7.57-15.5,10.53-17.67-2.55-1.89-3.93-3.3-1.46-2.72a25,25,0,0,0,8.57-.75c0-4.39,1.62-11.72,5.46-14.85,2-1.64,2-1,1.89.68-.1,2.26.84,6.39,2.17,5.51,4.06-4,5.72-4.79,8-2.43a25,25,0,0,0,6-1.6c8.28-2.84,23.5-16.94,46.72-6.18,20.49,9.51,18.14,34,7.46,37.1-26.46,7.61-45.92-2.36-53.94-6.47-2.71-1.39-4.11-2.1-4-1.24C428.13,524.35,406.81,515.71,406.81,515.71Z"/><path class="cls-65" d="M473.11,660.48c.86,13.34,2.07,45,0,64.78"/><path class="cls-66" d="M457.19,629.84c-.64,2,1.63,4.89.51,11.64,11.52,13.07,6.11,6.19,11.79,3.44S458.57,629.84,457.19,629.84Z"/><path class="cls-61" d="M479.51,745.17c4.81,42,11.44,61.77,12.9,90.22.49,9.66,1.69,23.51,1.16,29.25-1.77,19.28-7.55,33.22-16,59.86"/><path class="cls-67" d="M469.06,575.92a2.68,2.68,0,0,1,.5,0l.37,0,.74,0c.49,0,1,0,1.46,0a23.9,23.9,0,0,0,2.92-.31c1-.16,1.92-.36,2.87-.61s1.88-.54,2.81-.85h0a.91.91,0,0,1,1.16.57.93.93,0,0,1-.58,1.17l-.07,0c-1,.24-2,.46-3,.64s-2,.3-3,.38a26.22,26.22,0,0,1-3.07.07c-.52,0-1-.06-1.54-.11l-.76-.1-.37-.05a2.06,2.06,0,0,1-.25,0,.41.41,0,0,1-.48-.33A.4.4,0,0,1,469.06,575.92Z"/><path class="cls-67" d="M479.25,549.25c-1.41-.81-14.83,4.64-16,5a33,33,0,0,0,18.66-.71C481.7,552.94,480.38,549.89,479.25,549.25Z"/><path class="cls-68" d="M471.33,518c1.1-2.76,9.38-.28,10.76-.83,2.31,2.18,6,6.93,2,8.43-4.89,1.88-5.21,18-5.21,19C474.65,537.58,470.23,520.75,471.33,518Z"/><path class="cls-69" d="M452.46,856.23s-13.79,16.25-19,17.71c-1.39.39-20.59,9.06-21.26,6.55-.42-1.6,17.6-13.43,17.17-16.43-1.29-9.07-3.13-24.9-8.72-49.75-5.64-7.15-37.44-33.72-53.22-54.11,14.61,43.24,29.27,93.89,32.54,116.64,1,7.09-8,10.06-7.44,15.71,3.31,35-12.24,45-11.33,48.08l51.85-7.87C433.94,928.92,452.66,881.75,452.46,856.23Z"/><path class="cls-70" d="M383.4,344.11V461.4l-97.69,23.65v53.37"/><path class="cls-70" d="M890.87,416V565l-97.69,23.65v10.24"/><path class="cls-59" d="M470.42,643.85C464.68,654.67,428,618,425.25,603.72c1.22,6.25,1.85,23.27,1.85,36.81,0,16.93-17,79.39-14.66,106.38s54.44,70,62.67,50.33c4.87-11.63,6.09-51.91,3.41-92.45C478.52,677.72,471.47,641.86,470.42,643.85Z"/><path class="cls-71" d="M423.45,527.28c2-1.56,3.89-.94,4.67,1.6,1.34,7-5.9,12.38-6.84,17"/><path class="cls-66" d="M428.1,516.68h0Zm.14,0h.07l4.06,0,28.87.28h.11l.25,0,.76.12,2.09.37h0l2.1.37a13.31,13.31,0,0,0,1.37.18l2.73,0h0a7.93,7.93,0,0,0,1.28-.17l1.84-.36h0l1.82-.36.67-.11.22,0h.09c5.57.05,9.67.1,13.58.15l7.12.08a9.51,9.51,0,0,1,.42,2.39,2.09,2.09,0,0,1,0,.38h0a1.34,1.34,0,0,0-.3.13,1.58,1.58,0,0,0-.68.79,1.62,1.62,0,0,0-.1.56,5.4,5.4,0,0,0,0,.57c0,.4,0,.93.09,1.52v0c.08,1.23.18,2.78.18,4.36a18.86,18.86,0,0,1-.42,4.42,3.56,3.56,0,0,1-1.47,2.42,15.56,15.56,0,0,1-3.82,1.15,48.56,48.56,0,0,1-5.36.73,39.93,39.93,0,0,1-9.08,0c-.5-.09-1-.55-1.45-1.54a16.39,16.39,0,0,1-1-3.58c-.13-.64-.24-1.28-.34-1.89v-.06c-.11-.63-.22-1.23-.33-1.76a9.48,9.48,0,0,0-.38-1.39,2.3,2.3,0,0,0-.32-.57,1.2,1.2,0,0,0-.67-.47,10.47,10.47,0,0,0-3.29-.21,6.14,6.14,0,0,0-1.73.38,2.06,2.06,0,0,0-1.27,1.26,19.53,19.53,0,0,0-.47,2.45l-.15,1.07c-.1.68-.2,1.38-.31,2.07a24.66,24.66,0,0,1-.6,2.91,6,6,0,0,1-.37,1,1.66,1.66,0,0,1-.31.5h0l-.23.1a7.6,7.6,0,0,1-.78.22c-.67.16-1.56.31-2.63.45-2.14.27-4.9.49-7.74.57a65.35,65.35,0,0,1-8.16-.19,22.89,22.89,0,0,1-3.17-.49,5.71,5.71,0,0,1-1.88-.72,6.42,6.42,0,0,1-2-3,32.05,32.05,0,0,1-1.25-4.71q-.15-.78-.3-1.53c-.2-1.07-.4-2.09-.61-2.91a8.08,8.08,0,0,0-.54-1.62A1.87,1.87,0,0,0,433.3,522a16.33,16.33,0,0,0-4.07-.45Z"/><path class="cls-63" d="M451.92,519.91H462l.07.09a4.74,4.74,0,0,1,.42.87,13.7,13.7,0,0,1,.61,2.14h0v.15c0,.11,0,.26,0,.45,0,.37-.06.86-.11,1.42-.11,1.13-.29,2.56-.48,4s-.42,2.83-.63,3.93c-.1.55-.2,1-.29,1.36a2.86,2.86,0,0,1-.1.36,2.3,2.3,0,0,1-.38.11c-.43.1-1.05.21-1.81.31-1.52.21-3.55.39-5.69.49s-4.37.11-6.31,0a14.18,14.18,0,0,1-4.36-.75,5.84,5.84,0,0,1-3.22-3.47,21.62,21.62,0,0,1-.92-3.63c-.11-.55-.22-1.13-.35-1.72,0-.08,0-.15,0-.22a32.94,32.94,0,0,1-.81-4.42,3.23,3.23,0,0,1,.08-1.19c.08-.2.16-.27.27-.31h0l.12,0,.41-.05c.34,0,.78-.06,1.3-.08,1.05,0,2.38,0,3.82,0C446.52,519.71,449.79,519.82,451.92,519.91Zm10.05,0h0Z"/><path class="cls-72" d="M477,520.24h0c2.73,0,6.84,0,10.33,0,1.75,0,3.33.06,4.51.11l1.4.09.19,0,0,.07a9.83,9.83,0,0,1,.28,1c.2.83.41,2,.57,3.15a32.52,32.52,0,0,1,.32,3.59,9.64,9.64,0,0,1-.18,2.65,3.55,3.55,0,0,1-1.26,2.2,4.5,4.5,0,0,1-2.25.5l-1.92.13-.95.07c-1.26.09-2.74.19-4.2.26s-2.87.08-4,0a10.17,10.17,0,0,1-1.38-.15,1.5,1.5,0,0,1-.49-.15h0l-.09-.12a2.56,2.56,0,0,1-.2-.38,10.14,10.14,0,0,1-.49-1.26c-.33-1-.66-2.3-.95-3.58s-.54-2.56-.72-3.55c-.09-.49-.16-.92-.21-1.24,0-.15,0-.28-.05-.38a1,1,0,0,1,0-.13h0a5.49,5.49,0,0,1,.1-.73c.07-.36.17-.79.28-1.19a7.91,7.91,0,0,1,.35-1v0Zm16.34.06h0Z"/><path class="cls-71" d="M421.56,555.71c1-1.53,1.5-12.21,5.08-12.21,2.87,0,9.19,2.54,13.2,5.69L442,553.5m-10.63,7.93c0-4.88.37-12,4.72-10.19s10.63,4.65,11.39,6.45,0,12.18,0,14.74-3.07,3.07-4.86,0c-1.43-2.46-.59-7.16,0-9.21"/><path class="cls-55" d="M400,535.11c5.43-5.34,10.67-1.43,12.27.79L409,563.35c-3.95,1.37-9.08-2.12-10.4-5.16S393.15,541.79,400,535.11Z"/><path class="cls-73" d="M412.17,535.25a9.1,9.1,0,0,0-4.74-1.91c-2-.22-4-.2-5.58.94-6.26,5.24-4.66,19.3-3.07,23a9.89,9.89,0,0,0,3.73,4.5,5.79,5.79,0,0,0,5.48.6h0a.38.38,0,0,1,.36.66,5.15,5.15,0,0,1-3.26.65,7.32,7.32,0,0,1-3.12-1.05,10.72,10.72,0,0,1-4.1-4.94,28.31,28.31,0,0,1-1.95-12.41c.72-17.63,12.84-12.48,13.84-12.12a10.84,10.84,0,0,1,2.86,1.49.37.37,0,0,1,.07.53.38.38,0,0,1-.52.08Z"/><path class="cls-57" d="M409,538c-.27.1-7.17-3.94-9,4.45s3.48,11.91,4.08,11.91"/><path class="cls-71" d="M413.28,531.93l3.8-7.41,5.1-7.25c1.59-2.2,3.42,1.49,3.42,3.66,0,2.55-3.42,8.09-4.44,10.67-1.55,3.89,0,7.16,0,11,0,3.07-.35,10.28,0,13.35"/><path class="cls-55" d="M456.66,533.8c-.57,0-4.08-7.91-5.77-11.86-.41-1,4-.47,4.73-.23s3.77,6,5.3,8.9a8.69,8.69,0,0,1-.8,3C459.7,533.94,457.36,533.8,456.66,533.8Z"/><path class="cls-55" d="M489.65,531.9c-.45,0-3.28-6.36-4.63-9.54-.33-.77,3.24-.38,3.8-.19s3,4.84,4.26,7.16a7.16,7.16,0,0,1-.64,2.38C492.1,532,490.22,531.9,489.65,531.9Z"/><path class="cls-61" d="M492.32,638.5c9.18,1.11,24.17,2.75,34.47,5.07,12.87,2.91,31.35,5.41,32.27,12.56"/><path class="cls-74" d="M557.13,700.06l.13,23.06h0a.65.65,0,0,1-.64.65.65.65,0,0,1-.65-.64v0l.63-23.06h0a.25.25,0,0,1,.27-.26A.26.26,0,0,1,557.13,700.06Z"/><path class="cls-75" d="M464.36,651.76c-3.14-2.62-7,3-5,7.94C462.65,668,469,655.66,464.36,651.76Z"/><path class="cls-75" d="M464.36,667.18c-3.14-2.63-7,3-5,7.94C462.65,683.39,469,671.08,464.36,667.18Z"/><path class="cls-76" d="M445.79,763.13c-6.93-17.5,5.07-126.82,5.07-126.82s-19.1-16.17-22.94-24.21-1.12,9.82-1.72,28.63-2.73,62.24-7.53,67.1c-3.28,3.33-4.65.79-5.42,6.34-.73,5.27-.23,5.75.51,19.84-17.75-6.19-49.65,15.53-50.25-.31-.9-23.61,9.21-31.35-5.33-44.41-18.74-16-16.91-19.41-19.21-18.43-1.81.78-5.92,1.21-3.84,11.92.74,3.82,4.09,9.18,5.88,16.47,4.1,16.72,5.77,32.42,13.78,47.72,8.62,16.44,24.52,31.26,42.43,50,21.07,22,37.53,28.5,37.53,28.5s.61-.53,1.6-1.55c.83.12,1.69.21,2.6.26,12.34.75,11.67-11.14,12.76-27.11C452.4,787,451.17,776.73,445.79,763.13Z"/><path class="cls-74" d="M364.92,718.53a49.25,49.25,0,0,0-1.69,8.07,22.35,22.35,0,0,0,.25,8.12,7,7,0,0,0,1.91,3.38,5.51,5.51,0,0,0,3.63,1.21,34.49,34.49,0,0,0,8.16-1c5.41-1.2,10.75-2.75,16.2-3.93a78.61,78.61,0,0,1,8.23-1.42,32.57,32.57,0,0,1,8.37,0,.21.21,0,1,1-.06.41,33.5,33.5,0,0,0-8.25.08,81.55,81.55,0,0,0-8.18,1.48c-5.41,1.22-10.73,2.81-16.17,4.06a35.12,35.12,0,0,1-8.33,1.11,9.38,9.38,0,0,1-2.15-.31,4.88,4.88,0,0,1-2-1.06,7.69,7.69,0,0,1-2.19-3.74,23.14,23.14,0,0,1-.36-8.45,50.8,50.8,0,0,1,1.63-8.25.51.51,0,0,1,.62-.34.5.5,0,0,1,.35.61h0Z"/><path class="cls-55" d="M644.22,666.65c.35,1-6.45,20.15-6.45,21.19a60.52,60.52,0,0,0,3.35,11.59c2.89,6.32,12.71,13.63,12.71,13.63l13-43.63c1.15-.06,4-.75,9.87-1.65,7.3-1.12,20.22-6.71,23.33-7.51,2.48-.64,2.87-2.34,2.75-3.11.29.12,1.54.16,4.17-.62s4.64-4.76,5.32-6.65c1.1-.3,3.82-1,6-1.42,2.66-.54,16.15-2.93,18.37-3.55s.15-3.75-5.44-5c-4.47-1-9.5-.63-10.89.19a11.36,11.36,0,0,1,3.28-4.52,75.87,75.87,0,0,1,10-7.1c.89-.49,1.16-3.28-5.15-3.37s-9.76,5.06-11.09,6.48c-1.06,1.13-3.81,3.48-5.06,4.52a5.9,5.9,0,0,1,1.87-3.37c1.86-2,1.42-5.24-1.87-5.15s-8.16,5.33-8.6,7.1c-.36,1.42-3.48,5.86-5,7.9L679.23,646c2.15-2.64,6.73-8.33,7.83-9.9,1.38-2-1.15-7-3.91-7.14s-10.25,5.76-13.48,9.9-9.21,8-14.62,10.48-10.83,9-12.44,10.83S643.88,665.61,644.22,666.65Z"/><path class="cls-77" d="M649.16,653.21a3,3,0,0,1,.89-.83,13.34,13.34,0,0,1,4.27-2.91c3.74-1.07,12.91-8.11,14.51-9.6s11.3-10.77,13.65-11.09,4.69,3.94,4.48,6.72c-.17,2.21-5.9,8-8.75,10.66,3.34-.71,10.71-2.17,13.44-2.34,3.41-.22,6.93-1.18,6.5-.86s-3.12,4.44-4.47,6.51a12.61,12.61,0,0,1-4.91,1.06c-3.09.11-9.81-1.7-22.93,1.82-9.32,2.5-13.26-1.43-15.79,0l-.89.83a70.63,70.63,0,0,0-5.17,5.53,17.51,17.51,0,0,1-2,2.78,13.67,13.67,0,0,1,2-2.78C645.88,656,648.51,652.39,649.16,653.21Z"/><path class="cls-78" d="M697.52,642.5a182.1,182.1,0,0,0-19.2,3.81"/><path class="cls-77" d="M733,640.13c-3.66-1.29-10.54-.18-13.52.53l-6.39,9.15c6.5-1.55,20.15-4.67,22.73-4.77C739.07,644.9,737.59,641.74,733,640.13Z"/><path class="cls-78" d="M702.79,657c.91.11,4.47-.15,5.88-2,1.77-2.24,11.23-14.92,12.84-17s9-8.18,11.39-9.47.8-3.85-5.3-3.37-9.46,5.62-10.27,6.74-5.13,3.69-6.41,6.1"/><path class="cls-78" d="M719.78,640.28c1.83-.3,9.89-1.64,13.62,0,4.66,2.06,4.2,4.89,1.68,4.89s-12.53,2-13.75,2.45-7.26,1.37-9,2.59"/><path class="cls-79" d="M408.94,636.25,422,659.19s-38.29-6.1-62.26,31.17C358.71,692,337.6,670.8,337.6,670.8S367,651.09,408.94,636.25Z"/><path class="cls-74" d="M364.36,697.64a54.16,54.16,0,0,0-5.83-7.36c-2.13-2.31-4.38-4.52-6.68-6.67-4.6-4.3-9.42-8.37-14.13-12.59l.4.13h0a2.2,2.2,0,0,0-1.56,1.33,8.35,8.35,0,0,0-.72,2.35,20.7,20.7,0,0,0-.1,5.1,28.4,28.4,0,0,0,2.76,9.87v.07c2.57,7.65,4.89,15.38,6.82,23.22,1,3.91,1.73,7.9,2.51,11.84a96.39,96.39,0,0,0,3,11.63,70.84,70.84,0,0,0,11.35,21,91.68,91.68,0,0,0,7.95,9c1.41,1.43,2.87,2.79,4.35,4.17s2.92,2.79,4.35,4.22c11.34,11.45,22.28,23.3,34.43,33.85a125.72,125.72,0,0,0,19.36,14.26,50.24,50.24,0,0,0,10.95,4.78,22.27,22.27,0,0,0,11.7.45,18.13,18.13,0,0,0,9.57-6.54,37.36,37.36,0,0,0,5.62-10.49c2.77-7.52,3.91-15.54,5.14-23.48a348.55,348.55,0,0,0,3.53-48.1,476.47,476.47,0,0,0-2.11-48.23,474.56,474.56,0,0,0-6.79-47.79l0-.06,0-.09h0a4,4,0,0,0-.48-2.17,11.19,11.19,0,0,0-1.26-2.05,23.62,23.62,0,0,0-3.36-3.57,55.34,55.34,0,0,0-8-5.78.36.36,0,0,1-.13-.51.37.37,0,0,1,.52-.13h0a56.15,56.15,0,0,1,8.15,5.85,24.78,24.78,0,0,1,3.47,3.69,12.46,12.46,0,0,1,1.34,2.19,4.71,4.71,0,0,1,.53,2.64h0v-.16a471.57,471.57,0,0,1,6.84,47.88,477.88,477.88,0,0,1,2.14,48.3,350.62,350.62,0,0,1-3.5,48.23c-1.24,7.95-2.37,16-5.18,23.65a38.18,38.18,0,0,1-5.74,10.73,19.1,19.1,0,0,1-10,6.85,23.23,23.23,0,0,1-12.16-.45,51.48,51.48,0,0,1-11.15-4.86,127.1,127.1,0,0,1-19.51-14.35c-12.21-10.58-23.17-22.45-34.5-33.88q-2.13-2.13-4.32-4.19c-1.47-1.37-3-2.75-4.39-4.18a93.79,93.79,0,0,1-8-9.1A71.75,71.75,0,0,1,350,736.86a95.49,95.49,0,0,1-3-11.74c-.79-4-1.53-7.9-2.51-11.8-1.93-7.8-4.26-15.52-6.81-23.13l0,.06A29.72,29.72,0,0,1,334.75,680a21.87,21.87,0,0,1,.11-5.36,9.31,9.31,0,0,1,.81-2.65,3.22,3.22,0,0,1,2.32-1.87h0l.22,0,.18.17c4.67,4.23,9.47,8.34,14.07,12.69,2.29,2.18,4.54,4.41,6.68,6.76a55,55,0,0,1,5.86,7.51.39.39,0,0,1-.12.52.37.37,0,0,1-.52-.12Z"/><path class="cls-80" d="M417.81,493.15s5.32,20-13.35,17"/><path class="cls-74" d="M369.23,765.53c1.48,3.58,2.71,7.23,3.95,10.88s2.42,7.32,3.58,11c2.33,7.34,4.57,14.72,6.77,22.1,4.39,14.78,8.63,29.59,12.57,44.5q1.47,5.6,2.83,11.22c.44,1.88.87,3.76,1.24,5.67.18,1,.36,1.9.47,2.9,0,.25,0,.51,0,.79l0,.73c0,.49,0,1-.07,1.47a21.85,21.85,0,0,1-1.15,5.82,12.12,12.12,0,0,1-3.35,5c-.74.67-1.61,1.25-2.13,1.82a1,1,0,0,0-.31.76l.11,1.41c.18,1.92.32,3.85.45,5.78.23,3.86.37,7.73.26,11.62a43,43,0,0,1-1.68,11.65,20,20,0,0,1-2.67,5.4c-1.14,1.65-2.44,3.08-3.53,4.6a25,25,0,0,0-4.27,9.77l-1.21.17c-.54.08-.94.12-.94.12a30.67,30.67,0,0,1,4.89-11.19c1.17-1.6,2.49-3,3.54-4.53a18.38,18.38,0,0,0,2.48-4.9A41.77,41.77,0,0,0,392.76,909c.14-3.81,0-7.64-.16-11.47-.12-1.91-.24-3.83-.4-5.74l-.1-1.48a2.37,2.37,0,0,1,.19-1,3.22,3.22,0,0,1,.55-.8c.82-.82,1.6-1.27,2.29-1.89a10.73,10.73,0,0,0,3.08-4.41,20.8,20.8,0,0,0,1.2-5.46c0-.47.09-.94.1-1.42l0-.71c0-.2,0-.42,0-.65-.09-.92-.26-1.87-.44-2.8-.35-1.88-.78-3.76-1.21-5.63-.87-3.74-1.81-7.48-2.77-11.2-3.87-14.91-8-29.74-12.37-44.53q-3.25-11.09-6.67-22.12-1.73-5.52-3.53-11c-1.22-3.65-2.44-7.3-3.88-10.85a.32.32,0,1,1,.59-.25Z"/><path class="cls-81" d="M520.4,846.85s17.16,11.64,28.14,3.63c14.37-10.49,11.37-35.94,11.37-35.94l23.88,95.21-41.38,6.19c-4.49-6.69-21.58-56.5-21.58-56.5Z"/><path class="cls-61" d="M408.81,635.38c-1.94,2.43-40.58,15.53-71.21,35.42"/><path class="cls-80" d="M391.85,525.09s3.65-6.26,13.26-10.86"/><path class="cls-80" d="M389.53,514.78s3.65-6.27,13.26-10.86"/><path class="cls-80" d="M399.69,495.46c-9.61,4.59-12.39,10.12-12.39,10.12s.79,18,8.86,31.82"/><path class="cls-80" d="M406.22,486.12c-.23,0-7.07.14-11-4.69,0,0,6.11.78,11-1.18"/><path class="cls-80" d="M414.54,472.68s-3.55-3.57-2.26-7.72a15.14,15.14,0,0,0-6.61,16.53"/><path class="cls-52" d="M286.52,321.37l19.38-31.69,16.35-4.94-19.37,31.69Zm12.42,18L327.28,293a86.17,86.17,0,0,1,7-10.11,38.78,38.78,0,0,1,10.2-9,26.35,26.35,0,0,1,14.79-4.06,15.93,15.93,0,0,1,11.83,6c3.73,4.81,5.29,11.65,4.38,19.12a37.07,37.07,0,0,1-3.07,11,39.76,39.76,0,0,1-6.27,9.84,33.42,33.42,0,0,1-9.82,7.75,35.08,35.08,0,0,1-6.11,2.61l-8,2.42L327.69,352.3l-16.3,4.92,23.17-37.94,1.89-3.11,10.76-3.25c3.79-1.15,7.78-2.35,11.06-5.73l.06,0a19.79,19.79,0,0,0,3.69-5.74,18.06,18.06,0,0,0,1.41-6.44,12.44,12.44,0,0,0-1.17-5.72,8.5,8.5,0,0,0-3.49-3.76l-.16-.08-.09-.05-.12-.06a9,9,0,0,0-6.37-.46l-.13,0a16.43,16.43,0,0,0-4.39,1.84,21,21,0,0,0-5.45,4.84,71.86,71.86,0,0,0-5.31,7.8l-21.53,35.21Z"/><polyline class="cls-31" points="497.7 348.63 497.7 244.74 401.61 216.7"/><path class="cls-74" d="M452.6,856.29a33.54,33.54,0,0,1-5.21,6.9c-.95,1.09-2.05,2-3.08,3s-2.18,1.88-3.29,2.79a83,83,0,0,1-14.64,9.14,122.58,122.58,0,0,1-16,6.56c-2.75.86-5.52,1.67-8.28,2.48l-8.4,2a.5.5,0,0,1-.6-.37.5.5,0,0,1,.37-.61h0l8.38-1.93c2.75-.78,5.51-1.55,8.25-2.37a122.54,122.54,0,0,0,15.94-6.36,81.91,81.91,0,0,0,14.63-8.93c1.11-.9,2.22-1.81,3.3-2.74s2.13-1.92,3.08-3a32.75,32.75,0,0,0,5.22-6.76h0a.15.15,0,0,1,.27.14Z"/><path class="cls-61" d="M411.36,734.25s-2.94,23.49,15.79,43.25"/><path class="cls-73" d="M425.17,606.24c-.1-.33-.16-.63-.31-1a48.4,48.4,0,0,0-6-16.11c-4.39-7.28-7.91-10.17-9.8-13.77-3.41-6.52-1.42-20.7-.81-24s3.87-17.77,4-19.21v-.06c0-.55,2.08-3.9,2.63-3.86s-.93,4.53-1.34,5.94c-.24.81-6.89,26-3.25,39.48,1.1,4.12,6.68,7.64,10.1,14.43a83,83,0,0,1,6.11,15.36c1,6.35.15,5.64.1,6.68,0,.54.2,0-.35,0s-.86-3.27-1-3.67Z"/><path class="cls-73" d="M443.67,573c1.74,1.74,6.66,9.07,7.39,11.5a19.55,19.55,0,0,1,.82,7.75c-.15,1.35-3.08,5.88-4.1,6.86,0,0,5.52,13.38,7.12,20.15.85,3.57,4.29,17.63,4,21.32a1,1,0,0,1-2-.06h0a65.75,65.75,0,0,0-1.08-10.55c-.65-3.49-1.45-7-2.43-10.38-1.87-8.21-7-20.41-7-20.41s3.52-4.47,3.72-6.46c1.28-8.72-5.24-14.69-7.41-18.75,0,0-1.42-1.6-.93-1.86S443.36,572.67,443.67,573Z"/><path class="cls-61" d="M426.17,607.51s4.05,12.57,22.94,27.87c20.25,16.41,21.53,8.23,21.53,8.23"/><path class="cls-61" d="M426.17,607.51s.78,70.27-4.77,92.55-10-3.73-7.79,33.58"/><path class="cls-82" d="M611.72,743.34c.5-3.77,28-63.93,24.85-59.27-1,1.55-24.7,43.72-28.42,51.18-1.79,3.59-3.59,7.17-27.46,31.63-2.29,2.34-7.22,4.39-8.79,7.38-1.93,3.69-3.4,11.89-4.74,16.68-1.71,6-2.32,13.4-2.38,20.71-1.91-10.77.79-20.36.67-24.29-.13-4.31-3.66-5.87-3.92-8.35s-4.67-43.83-4.67-43.83,1.67,66.53,2.44,75.18c.61,6.93,5.27,23.73,7.11,30.14.1,1.39.17,2.51.17,3.27,0,1.94,23.62,4,23,2.78-3.29-6.16-2.26-15.58.82-25.37.48-1.52,13-30.17,17-37.44C614.22,771.58,611,748.68,611.72,743.34Z"/><path class="cls-61" d="M566.06,796.08c.4-1,3.18-21.05,6.75-22.84s29.58-28.59,32.16-32.56,31.07-57.44,33.1-59.37"/><path class="cls-61" d="M604.15,741.78s-12.29,16.87-14.72,27.74,1.7,14.22,1.7,14.22"/><path class="cls-67" d="M659.81,670.54a2.29,2.29,0,0,1,.57-.9,2.44,2.44,0,0,1,.92-.52,8.53,8.53,0,0,1,1.8-.32c1.17-.11,2.32-.16,3.47-.23,2.3-.15,4.59-.3,6.85-.67a98.75,98.75,0,0,0,13.38-3.24c2.2-.68,4.37-1.42,6.53-2.21a62.23,62.23,0,0,0,6.34-2.65,14.38,14.38,0,0,0,1.45-.82,2.18,2.18,0,0,0,.52-.46,1.7,1.7,0,0,0,.23-.63,10.57,10.57,0,0,1,1.28-3.35,56.88,56.88,0,0,0,3-6.17c1.84-4.22,3.5-8.52,5.46-12.74a20.86,20.86,0,0,1,1.71-3.12,5.56,5.56,0,0,0,1.37-2.81,1.24,1.24,0,0,0-.46-1.12,2.59,2.59,0,0,0-1.36-.45,4.45,4.45,0,0,0-1.55.08,6.55,6.55,0,0,0-1.49.6,16.82,16.82,0,0,0-4.92,4.49,8.8,8.8,0,0,0-1.55,2.83,5.79,5.79,0,0,1-.77,1.72c-.31.51-.63,1-1,1.48-1.33,1.92-2.75,3.74-4.17,5.57l-2.12,2.73-1,1.37-.49.69-.22.34-.09.16s0,.14,0,0a.5.5,0,0,1-.5.5.5.5,0,0,1-.5-.5,1,1,0,0,1,.12-.43l.13-.22.25-.38.51-.72,1.05-1.39,2.13-2.73c1.41-1.82,2.83-3.64,4.13-5.52.33-.47.64-.95.93-1.43a4.89,4.89,0,0,0,.65-1.41,9.67,9.67,0,0,1,1.73-3.22A17.61,17.61,0,0,1,709.4,628a7,7,0,0,1,1.72-.69,4.27,4.27,0,0,1,1-.13,7.22,7.22,0,0,1,.93,0,3.52,3.52,0,0,1,1.87.67,2.21,2.21,0,0,1,.82,1.94,6.39,6.39,0,0,1-1.57,3.34,20.18,20.18,0,0,0-1.61,2.95c-1.93,4.15-3.6,8.47-5.46,12.71A56.37,56.37,0,0,1,704,655a9.8,9.8,0,0,0-1.19,3.09,2.57,2.57,0,0,1-.38,1,3.24,3.24,0,0,1-.76.69,15.36,15.36,0,0,1-1.56.88,64.24,64.24,0,0,1-6.43,2.69c-2.18.79-4.37,1.54-6.59,2.22a98.82,98.82,0,0,1-13.51,3.26c-2.31.37-4.63.53-6.93.67-1.15.07-2.31.12-3.44.23a7.74,7.74,0,0,0-1.6.27,1.28,1.28,0,0,0-.92.87.46.46,0,1,1-.86-.3Z"/><path class="cls-67" d="M696.47,650.62H684.41a34.36,34.36,0,0,1-4.06-.15,33.73,33.73,0,0,0-7.91.07,17.25,17.25,0,0,0-3.75,1.05,14.87,14.87,0,0,0-3.33,2l0,0a.5.5,0,0,1-.6-.8h0a15.71,15.71,0,0,1,3.58-2.1,18.5,18.5,0,0,1,4-1.09,34.65,34.65,0,0,1,8.14-.06,35.22,35.22,0,0,0,4,.16h12.06a.46.46,0,0,1,.46.45A.47.47,0,0,1,696.47,650.62Z"/><path class="cls-83" d="M661.51,689s9.87,22.1,10.19,26.67-1.31,4.08-5.1,3.49-13.11-6.05-13.11-6.05Z"/><path class="cls-61" d="M661.51,688.55s12.14,22.73,9.88,30.56"/><path class="cls-78" d="M667.56,669c-.46.47-13.84,41.87-13.73,44.08"/><path class="cls-78" d="M638.22,686.17c5.6-14.2,6.73-19.29,5.9-20.5m.78.82c-1.48-1.4-4-4.63-2.21-6.4,2.21-2.21,4.54-6.87,14.2-11.87s10.82-7.57,12.69-9.32,10.22-10.07,12.63-9.76,4,2.15,4.86,5-8.19,11.55-8.86,12.06m-6.75-6.23c.41.06,5,3.38,5.68,5.48"/><path class="cls-61" d="M566.58,843.77c5.06,1.21,18.17,4,23,2.78,5.37-1.36,20.86-9.3,21.38-12.17,1.61-8.82,11.85-17.63,20.06-31.8,27.91-48.17,33.93-60.76,40.71-84-.37,1.24-2.75,2.18-8.1.23-24.19-8.86-26.47-29.41-25.79-36,.18-1.77.41-3,2.83-3"/><path class="cls-61" d="M558.58,800.47s4,30.91-3.82,44.41c-3.14,5.42-12.14,11.35-21.06,7.74"/><path class="cls-74" d="M583.21,909.5c-3.88-15.13-7.37-28.41-10.54-40.45-8.48-32.24-14.09-53.54-14.35-62.31-.09-3-.31-7.84-.58-14-.84-18.91-2.11-47.48-1.57-61.68.57-14.84-3.3-36.5-5.42-45.88a.5.5,0,0,1,.38-.6.5.5,0,0,1,.59.38c2.14,9.42,6,31.19,5.45,46.14-.54,14.16.73,42.7,1.57,61.59.27,6.19.49,11.08.58,14,.26,8.66,5.85,29.91,14.32,62.09,3.17,12,6.69,25.44,10.57,40.57Z"/><path class="cls-84" d="M503.1,656.13s10.95,69.42,14.48,118.13,2.82,55.09,2.82,55.09,36.21,24.6,36.21-40.82S556.23,713,554.53,703,503.1,656.13,503.1,656.13Z"/><path class="cls-57" d="M468.51,591.74c3.56,17.81,4.43,28,7.47,38.39"/><line class="cls-32" x1="620.4" y1="285.71" x2="636.15" y2="285.71"/><path class="cls-61" d="M397.57,696.61s7.73,11.45,7.56,12.72c-1,7.66,6.4,5.18,7.89,10.14"/><polyline class="cls-85" points="326.3 466.08 331.24 455.72 336.8 463.26 342.17 452.6 347.61 460.46 353.22 449.32 358.68 457.21 364.04 446.57 369.14 453.95"/><path class="cls-86" d="M813.67,744.29l-49.84-6.71L731,763.8l11.12,44.53,43.42,15.39,29.21-26.86Z"/><path class="cls-87" d="M776.85,774l36.2-29.54-49.45-7-32.25,25.79Z"/><path class="cls-88" d="M775.84,774.39l37.22-29.67,1.64,51.82-29.47,27.17Z"/><path class="cls-89" d="M812.31,744.29c-.48.07-48.3-6.33-48.48-6.35L731.9,762.81,776.27,773C778.19,771.34,812.31,744.29,812.31,744.29Zm1.26-.4-.7,1-36.2,30.06c-.12.05-.37-.17-.49-.2l-45-11.08c-.47-.11-1-.07-.87-.53a.88.88,0,0,1,.31-.48l32.93-25.35S813,743.68,813.57,743.89Z"/><path class="cls-89" d="M813.67,744.29s1.55,47.73,1.63,52.12l-29.13,28.41a4.34,4.34,0,0,1-1.63-.56c-.38-.28.12-.37.46-.7,0,0,.69.06.69.05,2.49-2.23,28.64-27.37,28.64-27.37l-1.57-52c0-.48,0-.43.45-.4S813.63,743.88,813.67,744.29Z"/><path class="cls-89" d="M784.71,823.23c-1.72-8.49-9.07-48.45-9.07-48.45l-44.28-11.26,12,44.79-.55-.6c7.08,2.56,14.1,5.14,21.13,7.78Zm1.46,1.59-22-7.63q-11-3.87-22-7.86a.89.89,0,0,1-.55-.6l-11.26-45.07a.85.85,0,0,1,.63-1,.67.67,0,0,1,.37,0h0s45.68,10.38,45.79,11C777.19,773.66,784.82,816.4,786.17,824.82Z"/><polyline class="cls-90" points="341.86 809.79 341.86 946.79 644.9 899.37 644.9 809.79"/><ellipse class="cls-70" cx="285.21" cy="543.5" rx="4.24" ry="6.65" transform="translate(-233.54 215.42) rotate(-30)"/><ellipse class="cls-70" cx="383.4" cy="338.44" rx="6.65" ry="4.83" transform="translate(-101.4 501.26) rotate(-60)"/><ellipse class="cls-70" cx="890.87" cy="410.14" rx="6.65" ry="4.83" transform="translate(90.24 976.59) rotate(-60)"/><ellipse class="cls-91" cx="827.86" cy="309.18" rx="6.65" ry="4.83" transform="translate(146.17 871.54) rotate(-60)"/><ellipse class="cls-70" cx="792.84" cy="604.18" rx="6.65" ry="4.83" transform="translate(-126.81 988.71) rotate(-60)"/><path class="cls-86" d="M171.66,575.75l-55.18,60.59L128,708.13l66,21.47,60.08-52.3-14.41-61.52Z"/><path class="cls-87" d="M182.35,647.67l-11-70.86-55.25,59.77,11.42,70.48Z"/><path class="cls-88" d="M182.11,649.53,171.79,577l67.45,38.47,14.65,62.17Z"/><path class="cls-89" d="M170.5,577.81c-.3.79-53.28,58.58-53.47,58.83l10.31,69.21,53-58.17C179.52,643.41,170.5,577.81,170.5,577.81Zm.47-2.25.87,1.89,11.78,71.29c0,.21-.58.42-.72.57L128,707.67c-.55.61-.92,1.41-1.53.86a1.55,1.55,0,0,1-.46-.87l-10.19-71.13S170.18,576.21,171,575.56Z"/><path class="cls-89" d="M171.66,575.75s61.21,35.14,67.89,38.74c0,0,15.33,57.15,16.81,62.73a7.43,7.43,0,0,1-2.23,2c-.75.34-.46-.49-.67-1.28,0,0,.67-1,.67-1-1.24-5.64-15.64-61.09-15.64-61.09l-67.74-38.76c-.7-.45-.68-.32-.23-1S171,575.47,171.66,575.75Z"/><path class="cls-89" d="M252.73,678.07c-14.25-4.63-70.21-27.91-70.21-27.91L128,707.26l67.13,20.44-1.36.31c9.87-8.47,19.72-16.86,29.66-25.19Zm3.63-.85L226.2,703.81Q211,717.13,195.66,730.27a1.53,1.53,0,0,1-1.37.31l-67-21.71a1.5,1.5,0,0,1-1-1.84,1.42,1.42,0,0,1,.3-.57l0,0s54.44-59.95,55.54-59.55C182.16,646.88,242.52,672.09,256.36,677.22Z"/><path class="cls-92" d="M495,402.25l25.26-6.46a57.49,57.49,0,0,1-3.28,14.5c-7,19.23-22.75,31.44-34.81,27S466,413.45,473,394.21c4.52-12.35,12.8-22.33,21.76-26.21Z"/><path class="cls-93" d="M497.83,398.32l.12-35.24a17.7,17.7,0,0,1,13-.69c9,3.29,14,14.9,12.73,29.42Z"/><path class="cls-94" d="M490.34,400.5,515.6,394a57,57,0,0,1-3.28,14.5c-7,19.24-22.74,31.44-34.8,27s-16.19-23.87-9.16-43.1c4.52-12.36,12.81-22.33,21.77-26.21Z"/><path class="cls-95" d="M493.15,396.58l.12-35.24a17.77,17.77,0,0,1,13-.7c9,3.3,14,14.91,12.73,29.42Z"/><polyline class="cls-96" points="213.28 573.76 213.28 486.12 298.94 466.08"/><polyline class="cls-97" points="493.08 457.8 531.14 449.27 565.84 455.93 565.84 422.07"/><polyline class="cls-98" points="295.32 387.72 324.27 379.23 324.27 420.31"/><polyline class="cls-99" points="571.32 318.19 604.97 309.19 604.97 361.36"/><line class="cls-100" x1="273.79" y1="684.77" x2="273.79" y2="811.15"/><line class="cls-101" x1="849.84" y1="449.46" x2="849.84" y2="702.09"/><line class="cls-102" x1="781.33" y1="422.07" x2="781.33" y2="729.49"/><line class="cls-103" x1="708.99" y1="366.6" x2="708.99" y2="674.02"/><path class="cls-51" d="M768.79,623.25,817.05,609V627l-48.26,14.22Z"/><polyline class="cls-104" points="773.29 634.43 777.13 626.65 782.53 631.66 786.74 623.65 792.04 628.9 796.44 620.52 801.77 625.79 805.97 617.79 810.95 622.72"/><path class="cls-105" d="M602.77,478.44l5.52-2.4,60.14-17.52,62.35,2L738.07,517c3.87,30.62-13.7,60.73-36.49,81.55L687.7,611.25l-7.47.32-17.68-8.42a95,95,0,0,1-53.36-73.86Z"/><path class="cls-106" d="M608.53,476l59.89-17.4,62.34,2,6.54,51.83a95,95,0,0,1-32.19,83.81l-17.43,15L667.07,601a95,95,0,0,1-52-73.19Z"/><path class="cls-107" d="M719.5,472.9,670,471.33,622.5,485.14l5.18,41.06a82.3,82.3,0,0,0,45,63.4l13,6.48,11-9.52A82.28,82.28,0,0,0,724.68,514Z"/><path class="cls-108" d="M686.14,506.85c-3-.65-33.56-.09-33.57-.05l-34,10.69,28.83,60.84,34.18-14.39a.68.68,0,0,0,.53-.24l23.54-23.94C704.59,537.89,686.14,506.85,686.14,506.85Z"/><path class="cls-86" d="M673.65,475.73l-25,33,5.49,34.15,36.39,10L719.15,528l-7.44-31.77Z"/><path class="cls-87" d="M680,514.11l-6.51-37.87-25,32.59L654,542.36Z"/><path class="cls-88" d="M679.91,515l-6.2-38.65,37.77,19.78L719,528.2Z"/><path class="cls-89" d="M673.1,476.71c-.15.38-24.06,32-24.14,32.15l4.9,32.93,25.21-27.68C678.68,512.08,673.1,476.71,673.1,476.71Zm.22-1.07.41.9,6.9,38.08c0,.1-.28.2-.34.27l-26.14,27.76c-.27.29-.44.67-.73.41a.79.79,0,0,1-.22-.41l-4.84-33.84S673,476,673.32,475.64Z"/><path class="cls-89" d="M673.65,475.73s34.8,18.19,38,19.91c0,0,7.88,29.69,8.58,32.35a3.62,3.62,0,0,1-1.06.93c-.36.17-.22-.23-.32-.61l.32-.48c-.59-2.68-8-31.57-8-31.57l-37.91-19.91c-.34-.21-.33-.15-.11-.48S673.34,475.6,673.65,475.73Z"/><path class="cls-89" d="M718.48,528.39c-6.78-2.2-38.37-13.1-38.37-13.1l-26,27.17L691.06,552l-.65.15c4.7-4,9.38-8,14.11-12Zm1.73-.4-14.35,12.65c-4.82,4.22-9.68,8.42-14.53,12.58a.71.71,0,0,1-.65.15l-36.83-10.15a.71.71,0,0,1-.49-.87.82.82,0,0,1,.14-.28h0s25.9-28.52,26.43-28.33C679.94,513.73,713.63,525.54,720.21,528Z"/><polyline class="cls-70" points="775.84 356.37 654.15 321.37 654.15 375.07"/><polygon class="cls-109" points="309.79 730.63 309.79 856.23 285.71 850.41 285.71 723.12 309.79 730.63"/><polygon class="cls-51" points="335.68 490.26 335.68 555.81 359.76 550 359.76 484.4 335.68 490.26"/><polygon class="cls-110" points="775.84 369.79 775.84 375.07 708.99 356.37 708.99 351.01 775.84 369.79"/><polygon class="cls-51" points="693.63 705.84 693.63 810.34 705.64 807.44 705.64 702.09 693.63 705.84"/><polygon class="cls-51" points="705.64 705.84 705.64 810.34 693.63 807.44 693.63 702.09 705.64 705.84"/><path class="cls-61" d="M416,741.48c-.3-.69-3-6-2.94-7.23s-11.44-2-22.11,4.88"/><path class="cls-74" d="M541.86,916c-6.52-12.68-21.11-49.64-21.6-59.08-4.52-86.59-12.5-128.69-17.26-153.84-1.82-12.27-8.52-34.07-20.46-66.65a.5.5,0,0,1,.3-.64.51.51,0,0,1,.64.3c12,32.64,18.67,54.5,20.5,66.82,4.77,25.16,12.76,67.3,17.27,154,.45,8.62,14.7,45.38,21.69,59Z"/><path class="cls-80" d="M426.7,472.52s22.5-7,31.44,0,11.29,24.91-4.23,25.44a54.94,54.94,0,0,1-27.51-6.71"/><path class="cls-80" d="M452.54,461.7s28.08-2.94,33.32,16.92c4,15.25-5.63,21.13-12.61,22.07-5.12.69-15,1.55-24.68-1.06"/><path class="cls-80" d="M439,466.08c11.68-2.32,22.61-5.43,31.64,5.25s3.46,29.5-13.73,29.17-32.13-10.24-32.13-10.24c31.58,1.76,27.26-13,21-14.18-2.63-.49-10,1.07-22.42,5"/><path class="cls-111" d="M413,619.49a22.25,22.25,0,0,0,2.84,8.12C418.21,631.42,422,655,422,655s-11.73-15.93-13-19.3,2.69-16.22,3.34-17.09S413,619.49,413,619.49Z"/><path class="cls-112" d="M476.85,615.18c6.43,3.57,9.55,8.11,12.16,10.35,3.4,2.91-.76,20.69-.76,20.69a45.47,45.47,0,0,0-5.77-10.59c-2.11-2.64-5.67-3.39-6.14-4.68-1.22-3.37-4.71-18.78-4.06-19.66S476.85,615.18,476.85,615.18Z"/><path class="cls-61" d="M425.85,630.36c-3.45-5-12.24-8.5-13.42-11.75-.79-2.2,4.78-5.11,4.36-4.65-2,2.17-4,2.68-4.86,4.7-1.78,4.21-3.41,12.47-2.9,16.9,2.9,7.09,9.83,11.94,16.05,30.1"/><path class="cls-61" d="M476.34,631.66s5.68,2.86,6.67,4.59"/><path class="cls-61" d="M472.7,610.93s4.34,4.4,13.7,12.36c5.42,4.61,6.55,7.3,6.55,7.3s-3.71,12.41.6,24.41,11.77,45.06,11.77,45.06"/></g></svg>