<svg xmlns="http://www.w3.org/2000/svg" xmlns:xlink="http://www.w3.org/1999/xlink" viewBox="0 0 1080 1080"><defs><style>.cls-1,.cls-17,.cls-24,.cls-25,.cls-26,.cls-27,.cls-28,.cls-29,.cls-3,.cls-30,.cls-40,.cls-44,.cls-47,.cls-48,.cls-51,.cls-53,.cls-56,.cls-57,.cls-61,.cls-62,.cls-63,.cls-65,.cls-67,.cls-68,.cls-70,.cls-71,.cls-72,.cls-73{fill:none;}.cls-2{fill:url(#linear-gradient);}.cls-17,.cls-25,.cls-26,.cls-27,.cls-28,.cls-29,.cls-3,.cls-30,.cls-4,.cls-48,.cls-49,.cls-50,.cls-51,.cls-53,.cls-56,.cls-57,.cls-61,.cls-62,.cls-63,.cls-65,.cls-67,.cls-68,.cls-70,.cls-71,.cls-72,.cls-73{stroke-miterlimit:10;}.cls-17,.cls-3,.cls-63,.cls-65,.cls-67{stroke-width:4px;}.cls-3,.cls-63,.cls-65,.cls-67{opacity:0.47;}.cls-3{stroke:url(#linear-gradient-2);}.cls-4{stroke:#164da7;stroke-width:0.5px;fill:url(#linear-gradient-3);}.cls-26,.cls-27,.cls-28,.cls-29,.cls-31,.cls-5,.cls-52,.cls-53,.cls-54,.cls-55,.cls-56,.cls-57,.cls-64,.cls-66,.cls-70,.cls-71,.cls-72,.cls-73{opacity:0.43;}.cls-5{fill:url(#linear-gradient-4);}.cls-59,.cls-6{fill:#ff996c;}.cls-6{opacity:0.67;}.cls-7{fill:url(#linear-gradient-5);}.cls-8{fill:url(#linear-gradient-6);}.cls-9{fill:url(#linear-gradient-7);}.cls-10{fill:url(#linear-gradient-8);}.cls-11{fill:url(#linear-gradient-9);}.cls-12{fill:url(#linear-gradient-10);}.cls-13{fill:url(#linear-gradient-11);}.cls-14{fill:url(#linear-gradient-12);}.cls-15{fill:url(#linear-gradient-13);}.cls-16{fill:url(#linear-gradient-14);}.cls-17,.cls-32,.cls-33,.cls-34,.cls-40,.cls-41,.cls-42,.cls-44,.cls-45,.cls-46,.cls-47{stroke:#ed6921;}.cls-18{fill:#94bdff;}.cls-18,.cls-19,.cls-20,.cls-21,.cls-22,.cls-23,.cls-24,.cls-49,.cls-50{stroke:#fff;}.cls-18,.cls-19,.cls-47{stroke-linecap:round;}.cls-18,.cls-19,.cls-44{stroke-linejoin:round;}.cls-19{fill:#197ce1;}.cls-20{fill:#9fbdff;}.cls-21,.cls-22,.cls-23{stroke-width:0.25px;}.cls-21,.cls-22,.cls-26,.cls-27,.cls-28,.cls-29,.cls-30{fill-rule:evenodd;}.cls-21{fill:url(#linear-gradient-15);}.cls-22{fill:url(#linear-gradient-16);}.cls-23{fill:url(#linear-gradient-17);}.cls-25{stroke:url(#linear-gradient-18);}.cls-26{stroke:url(#linear-gradient-19);}.cls-27{stroke:url(#linear-gradient-20);}.cls-28{stroke:url(#linear-gradient-21);}.cls-29{stroke:url(#linear-gradient-22);}.cls-30{stroke:#b8c5ef;}.cls-31{fill:url(#linear-gradient-23);}.cls-32,.cls-35,.cls-46,.cls-49{fill:#f9b471;}.cls-32,.cls-33,.cls-34,.cls-40,.cls-41,.cls-42,.cls-44,.cls-45,.cls-47,.cls-61{stroke-width:2px;}.cls-33{fill:#d26f38;}.cls-34{fill:#b55d2c;}.cls-36,.cls-41{fill:#ffc995;}.cls-37{fill:#ed6921;}.cls-38,.cls-42,.cls-50{fill:#f37435;}.cls-39,.cls-45{fill:#fff;}.cls-43{fill:url(#linear-gradient-24);}.cls-46{stroke-width:2px;}.cls-48{stroke-width:3px;stroke:url(#linear-gradient-25);}.cls-51{stroke:url(#linear-gradient-30);}.cls-52{fill:url(#linear-gradient-31);}.cls-53{stroke:url(#linear-gradient-32);}.cls-54{fill:url(#linear-gradient-33);}.cls-55{fill:url(#linear-gradient-34);}.cls-56{stroke:url(#linear-gradient-35);}.cls-57{stroke:url(#linear-gradient-36);}.cls-58{fill:url(#linear-gradient-37);}.cls-60{fill:url(#linear-gradient-38);}.cls-61{stroke:url(#linear-gradient-39);}.cls-62{stroke:url(#linear-gradient-40);}.cls-63{stroke:url(#linear-gradient-41);}.cls-64{fill:url(#linear-gradient-42);}.cls-65{stroke:url(#linear-gradient-43);}.cls-66{fill:url(#linear-gradient-44);}.cls-67{stroke:url(#linear-gradient-45);}.cls-68{stroke:url(#linear-gradient-46);}.cls-69{fill:url(#linear-gradient-47);}.cls-70{stroke:url(#linear-gradient-48);}.cls-71{stroke:url(#linear-gradient-49);}.cls-72{stroke:url(#linear-gradient-50);}.cls-73{stroke:url(#linear-gradient-51);}</style><linearGradient id="linear-gradient" x1="209.2" y1="539.12" x2="901.2" y2="539.12" gradientUnits="userSpaceOnUse"><stop offset="0" stop-color="#3b7ce9"/><stop offset="1" stop-color="#2b84e5"/></linearGradient><linearGradient id="linear-gradient-2" x1="314.89" y1="592.66" x2="873.77" y2="592.66" gradientUnits="userSpaceOnUse"><stop offset="0" stop-color="#fbfef9"/><stop offset="0.52" stop-color="#eceefc"/><stop offset="1" stop-color="#dbdbff"/></linearGradient><linearGradient id="linear-gradient-3" x1="735.43" y1="481.24" x2="935.94" y2="597" xlink:href="#linear-gradient-2"/><linearGradient id="linear-gradient-4" x1="608.04" y1="190.89" x2="608.04" y2="887.35" gradientUnits="userSpaceOnUse"><stop offset="0" stop-color="#1b44c0"/><stop offset="0.31" stop-color="#1b47c2"/><stop offset="0.55" stop-color="#1b51c8"/><stop offset="0.77" stop-color="#1a62d1"/><stop offset="0.98" stop-color="#1979df"/><stop offset="1" stop-color="#197ce1"/></linearGradient><linearGradient id="linear-gradient-5" x1="140.11" y1="554.02" x2="634.64" y2="554.02" gradientUnits="userSpaceOnUse"><stop offset="0" stop-color="#dfe9ff"/><stop offset="1" stop-color="#ebebeb"/></linearGradient><linearGradient id="linear-gradient-6" x1="195.84" y1="368.25" x2="195.84" y2="719.91" gradientUnits="userSpaceOnUse"><stop offset="0" stop-color="#94c8ff"/><stop offset="1" stop-color="#fff" stop-opacity="0"/></linearGradient><linearGradient id="linear-gradient-7" x1="247.43" y1="311.99" x2="247.43" y2="707.44" gradientUnits="userSpaceOnUse"><stop offset="0.16" stop-color="#197ddf" stop-opacity="0.6"/><stop offset="1" stop-color="#acf" stop-opacity="0"/></linearGradient><linearGradient id="linear-gradient-8" x1="283.3" y1="364.78" x2="283.3" y2="707.44" xlink:href="#linear-gradient-7"/><linearGradient id="linear-gradient-9" x1="319.16" y1="344.95" x2="319.16" y2="707.44" xlink:href="#linear-gradient-7"/><linearGradient id="linear-gradient-10" x1="283.3" y1="425.28" x2="283.3" y2="845.79" xlink:href="#linear-gradient-6"/><linearGradient id="linear-gradient-11" x1="356.97" y1="288.48" x2="356.97" y2="883.65" xlink:href="#linear-gradient-7"/><linearGradient id="linear-gradient-12" x1="396.47" y1="247.91" x2="396.47" y2="883.65" xlink:href="#linear-gradient-7"/><linearGradient id="linear-gradient-13" x1="436.41" y1="340.78" x2="436.41" y2="883.65" xlink:href="#linear-gradient-7"/><linearGradient id="linear-gradient-14" x1="475.91" y1="300.23" x2="475.91" y2="883.65" xlink:href="#linear-gradient-7"/><linearGradient id="linear-gradient-15" x1="737.94" y1="406.33" x2="756.11" y2="406.33" gradientUnits="userSpaceOnUse"><stop offset="0" stop-color="#fff"/><stop offset="1" stop-color="#fff" stop-opacity="0.8"/></linearGradient><linearGradient id="linear-gradient-16" x1="708.64" y1="383.09" x2="726.81" y2="383.09" xlink:href="#linear-gradient-15"/><linearGradient id="linear-gradient-17" x1="710.96" y1="411.88" x2="754.48" y2="375.01" xlink:href="#linear-gradient-15"/><linearGradient id="linear-gradient-18" x1="675.37" y1="393.7" x2="793.49" y2="393.7" gradientUnits="userSpaceOnUse"><stop offset="0.01" stop-color="#f1f6ff"/><stop offset="1" stop-color="#f1f6ff" stop-opacity="0"/></linearGradient><linearGradient id="linear-gradient-19" x1="172.44" y1="393.6" x2="286.56" y2="393.6" xlink:href="#linear-gradient-4"/><linearGradient id="linear-gradient-20" x1="755.76" y1="545.88" x2="927" y2="546.8" gradientTransform="matrix(0.6, -0.01, -0.1, 0.99, 365.9, 6.47)" xlink:href="#linear-gradient-4"/><linearGradient id="linear-gradient-21" x1="752.66" y1="527.79" x2="866.77" y2="528.41" gradientTransform="matrix(0.6, -0.01, -0.1, 0.99, 365.9, 6.47)" xlink:href="#linear-gradient-4"/><linearGradient id="linear-gradient-22" x1="172.44" y1="416.29" x2="258.8" y2="416.29" xlink:href="#linear-gradient-4"/><linearGradient id="linear-gradient-23" x1="432.91" y1="587.79" x2="464.82" y2="587.79" xlink:href="#linear-gradient-4"/><linearGradient id="linear-gradient-24" x1="536.33" y1="2217.83" x2="446.33" y2="2283.03" gradientTransform="matrix(1, 0, 0, -1, 0, 2970)" gradientUnits="userSpaceOnUse"><stop offset="0" stop-color="#f9b471"/><stop offset="1" stop-color="#ed6921"/></linearGradient><linearGradient id="linear-gradient-25" x1="147.09" y1="409.72" x2="553.99" y2="409.72" xlink:href="#linear-gradient-18"/><linearGradient id="linear-gradient-30" x1="639.47" y1="393.7" x2="829.39" y2="393.7" xlink:href="#linear-gradient-18"/><linearGradient id="linear-gradient-31" x1="319.46" y1="875.23" x2="372.93" y2="875.23" gradientTransform="translate(59.17 621.51) scale(0.8 0.27)" xlink:href="#linear-gradient-4"/><linearGradient id="linear-gradient-32" x1="248.14" y1="658.37" x2="292.46" y2="658.37" xlink:href="#linear-gradient-4"/><linearGradient id="linear-gradient-33" x1="349.74" y1="421.42" x2="403.2" y2="421.42" xlink:href="#linear-gradient-4"/><linearGradient id="linear-gradient-34" x1="243.57" y1="658.37" x2="297.04" y2="658.37" xlink:href="#linear-gradient-4"/><linearGradient id="linear-gradient-35" x1="354.31" y1="421.42" x2="398.63" y2="421.42" xlink:href="#linear-gradient-4"/><linearGradient id="linear-gradient-36" x1="291.48" y1="539.89" x2="355.29" y2="539.89" xlink:href="#linear-gradient-4"/><linearGradient id="linear-gradient-37" x1="759.81" y1="350.09" x2="927.95" y2="350.09" xlink:href="#linear-gradient-5"/><linearGradient id="linear-gradient-38" x1="380.15" y1="864.17" x2="798.02" y2="864.17" xlink:href="#linear-gradient"/><linearGradient id="linear-gradient-39" x1="383" y1="862.21" x2="794.57" y2="862.21" xlink:href="#linear-gradient-18"/><linearGradient id="linear-gradient-40" x1="257.25" y1="809.4" x2="373.17" y2="809.4" xlink:href="#linear-gradient"/><linearGradient id="linear-gradient-41" x1="430.91" y1="587.79" x2="466.82" y2="587.79" xlink:href="#linear-gradient-2"/><linearGradient id="linear-gradient-42" x1="640.42" y1="736.02" x2="660.78" y2="736.02" xlink:href="#linear-gradient-4"/><linearGradient id="linear-gradient-43" x1="638.42" y1="736.02" x2="662.78" y2="736.02" xlink:href="#linear-gradient-2"/><linearGradient id="linear-gradient-44" x1="812.68" y1="379.56" x2="826.88" y2="379.56" xlink:href="#linear-gradient-4"/><linearGradient id="linear-gradient-45" x1="810.68" y1="379.56" x2="828.88" y2="379.56" xlink:href="#linear-gradient-2"/><linearGradient id="linear-gradient-46" x1="674.14" y1="280.9" x2="887.12" y2="280.9" xlink:href="#linear-gradient"/><linearGradient id="linear-gradient-47" x1="324.98" y1="514.6" x2="440.2" y2="515.22" xlink:href="#linear-gradient-18"/><linearGradient id="linear-gradient-48" x1="358.17" y1="498.09" x2="407" y2="498.09" xlink:href="#linear-gradient-4"/><linearGradient id="linear-gradient-49" x1="358.17" y1="510.61" x2="407" y2="510.61" xlink:href="#linear-gradient-4"/><linearGradient id="linear-gradient-50" x1="358.17" y1="523.13" x2="385.96" y2="523.13" xlink:href="#linear-gradient-4"/><linearGradient id="linear-gradient-51" x1="358.17" y1="535.65" x2="385.96" y2="535.65" xlink:href="#linear-gradient-4"/></defs><title>comission</title><g id="Layer_6" data-name="Layer 6"><path class="cls-1" d="M899.42,572.2c24.85-23.87-124-233.44-241.73-309.53-201.54-130.21-278.66,232.4-296,443.4C349.82,850,461.14,918.67,634.64,874,874.74,812.13,899.42,572.2,899.42,572.2"/><path class="cls-2" d="M555.2,190.89c191.09,0,346,154.91,346,346S737.44,887.35,546.34,887.35,209.2,728,209.2,536.89,364.11,190.89,555.2,190.89Z"/><path class="cls-3" d="M872,397.57s-47-89.66-79,50.58c-66.18,289.79-219.4,409.48-286.12,208.79C432.57,433.47,316.8,817.42,316.8,817.42"/><polygon class="cls-4" points="720.65 506.84 956.6 506.84 950.73 571.4 714.78 571.4 720.65 506.84"/><path class="cls-5" d="M434.92,868.19a329.65,329.65,0,0,0,111.42,19.16c65.74,0,128.24-18.86,181.95-51.38l52.88-561.1a344.64,344.64,0,0,0-226-84,349.42,349.42,0,0,0-49.15,3.49Z"/><polygon class="cls-6" points="542.78 200.22 741.73 200.22 726.5 367.47 527.56 367.47 542.78 200.22"/><path class="cls-7" d="M630,879.21C453.18,908,349.82,850,361.66,706.07,379,495.07,755.3,237.35,515.84,221.91S139.67,359.32,140.11,364C197.22,980.13,610,881.4,610,881.4L634.64,874"/><rect class="cls-8" x="162.19" y="368.25" width="67.3" height="351.66"/><rect class="cls-9" x="229.49" y="311.99" width="35.87" height="395.45"/><rect class="cls-10" x="265.36" y="364.78" width="35.87" height="342.66"/><rect class="cls-11" x="301.23" y="344.95" width="35.87" height="362.48"/><rect class="cls-12" x="265.36" y="425.28" width="35.87" height="420.51"/><rect class="cls-13" x="337.22" y="288.48" width="39.5" height="595.17"/><rect class="cls-14" x="376.72" y="247.91" width="39.5" height="635.74"/><rect class="cls-15" x="416.66" y="340.78" width="39.5" height="542.87"/><rect class="cls-16" x="456.16" y="300.23" width="39.5" height="583.42"/><path class="cls-17" d="M128.37,374.21c24.85-23.87,148-167.74,387.47-152.3S379,495.07,361.66,706.07C349.82,850,461.05,918.31,634.64,874,876.83,812.13,899.42,572.2,899.42,572.2"/><path class="cls-18" d="M310.42,805.27l-.82-13.49c29.84-21.65,80.21-70.2,82-71.31s-1.49,12.53,0,21.7Z"/><path class="cls-18" d="M411.65,763.46l-.82-7.07c4.15-6.06-11.45-36.88,0-32.65-11.45-9.38,8.92-28.84,29.37-43.21v7.58Z"/><path class="cls-18" d="M411.51,763.37l-20.26-21.13-.57-6.22,20.4,19.69Z"/><path class="cls-18" d="M362.52,715.81l-20.26-21.13-.57-6.23,20.4,19.7Z"/><path class="cls-18" d="M310.38,805.2l-30.64-26.75-.57-6.22L310,798.82Z"/><path class="cls-19" d="M362.68,709.12l-83.4,63.08,30.45,26.32,80.91-62.62,20.27,20.51s22.33-54.18,29.29-75.91l-98.66,7.27Z"/><path class="cls-20" d="M771.58,405.59c-5.28,20.81-24.68,33.62-43.16,28.92s-29.41-25.2-24.12-46S729,354.9,747.45,359.59,776.86,384.79,771.58,405.59Z"/><path class="cls-20" d="M766.13,404.07c-5.28,20.8-24.68,33.61-43.16,28.92s-29.41-25.21-24.13-46,24.69-33.61,43.16-28.92S771.41,383.27,766.13,404.07Z"/><path class="cls-21" d="M754.72,410.06c2.67-5.49,1.38-11.62-2.87-13.68s-9.86.72-12.52,6.21-1.38,11.62,2.87,13.68S752.06,415.56,754.72,410.06Zm-3-1.62c1.61-3.33.83-7-1.74-8.29s-6,.44-7.59,3.76-.83,7,1.74,8.29S750.07,411.76,751.69,408.44Z"/><path class="cls-22" d="M725.42,386.82c2.67-5.49,1.38-11.62-2.87-13.68s-9.86.72-12.52,6.21S708.65,391,712.9,393,722.76,392.32,725.42,386.82Zm-3-1.62c1.61-3.33.83-7-1.74-8.29s-6,.44-7.59,3.76-.83,7,1.74,8.29S720.77,388.52,722.39,385.2Z"/><path class="cls-23" d="M723.88,417.07l-9-.53,26-46.22h9.56Z"/><path class="cls-24" d="M759.94,368.83l3.47.46"/><path class="cls-24" d="M764.63,377.19l5.25,2.37"/><path class="cls-24" d="M767.12,386.9l5.81,2.2"/><path class="cls-24" d="M766.68,400l5.25,2.31"/><path class="cls-24" d="M761.63,414.14l5.08,2.45"/><path class="cls-24" d="M752.17,425.28l5.55,2.89"/><path class="cls-24" d="M741.24,430.88l5.55,2.89"/><path class="cls-25" d="M789,412.56c-11.76,33.12-45.79,51.14-75.75,40.78S668.09,408,679.86,374.83s45.79-51.14,75.75-40.78S800.77,379.43,789,412.56Z"/><polyline class="cls-26" points="172.72 398.89 186.74 389.47 200.53 398.69 215.71 389.07 229.16 398.6 245.01 388.54 258.51 398.1 273.64 388.5 286.27 397.45"/><polyline class="cls-27" points="863.33 546.75 856.69 537.95 846.74 547.55 839.65 538.14 829.23 548.12 822.59 539.31 812.64 548.91 805.55 539.5 795.13 549.56 788.06 540.17 778.09 549.8 770.78 540.73 761.51 550.15"/><polyline class="cls-28" points="761.51 531.54 770.78 522.12 778.09 531.2 788.06 521.57 795.13 530.95 805.55 520.89 812.64 530.31 822.59 520.7 829.23 529.51"/><polyline class="cls-29" points="172.72 421.56 186.74 412.13 200.53 421.35 215.71 411.73 229.16 421.26 245.01 411.2 258.51 420.77"/><polyline class="cls-30" points="339.04 881.13 337.21 874.63 342.9 874.88 341.16 868.05 346.93 868.48 345.11 861.34 350.9 861.77 349.16 854.96 354.58 855.36"/><circle class="cls-31" cx="448.87" cy="587.79" r="15.96"/><path class="cls-32" d="M524.78,638c4.27.47,8,3.69,10.4,8.79s3.57,11.91,2.77,19.28-3.38,13.79-6.86,18.23-7.78,6.8-12.05,6.33-8-3.69-10.4-8.78-3.57-11.92-2.77-19.28,3.38-13.79,6.86-18.23S520.51,637.54,524.78,638Z"/><path class="cls-33" d="M530.7,638.28c4.27.46,8,3.68,10.4,8.78s3.58,11.92,2.77,19.28-3.38,13.79-6.86,18.23-7.78,6.8-12,6.34-8-3.69-10.4-8.79-3.57-11.91-2.77-19.28,3.39-13.79,6.87-18.23S526.44,637.81,530.7,638.28Z"/><path class="cls-34" d="M529.56,647.08c2.19.24,4.19,2.22,5.53,5.71a31.88,31.88,0,0,1-2.81,25.76c-2.06,3.11-4.44,4.62-6.63,4.38s-4.2-2.23-5.54-5.71a32,32,0,0,1,2.81-25.76C525,648.35,527.36,646.84,529.56,647.08Z"/><path class="cls-35" d="M733.81,556.55c3.88-5.18-10.88-58.77-18.7-86.26-27.5-8.16-25.43,21.09-16.48,67-17.51,3-41.06,12.47-42.21,11.81-3.39-1.94-17.75-24.8-17.23-27.49,8.91-45.76,3.95-72.8,5.64-73.13,42.94-8.28,35.83-5.62,39.32-21s-13.8-13.28-13.8-13.28l-25.52,2c5-10.39,4.63-31.55,5.77-46.38a37.51,37.51,0,0,0,2.67-10.55c3.9-27.53-8.36-40.91-20-34.1-5.66,3.31-7.91,17.79-9.64,30.14-1.57,11.18-5.08,33.13-7.52,48.21A290.89,290.89,0,0,0,618.28,368c2.28-12.17,2.56-23.67,1-30.32-3.44-14.68-17-18-21.94-15.65-9.1,4.29-7.83,17.71-9.1,47.11-2.58,17.56-4.72,31.95-9.51,54.3-.81,3.78-28.19,2-32.47,11.65-15.78,35.63-11.61,72.85-13.45,82.77,0-16.53-.28-43.67-1.61-63.43-.17-2.57,2-12.35,2.64-19.34,4.52-50.77-29.78-47.95-31.56-28.12-3.29,36.75-9.08,101.23-13.5,139.87-2,17.85,24.19,87.32,32.16,97.27.94,1.18,2.06,4,10.55,7.25-.44,1.64.72,8.49,0,10-1.62,3.53-11.87-.64-13.48,4.35-6.33,19.54-30.61,159.72-41.48,214.74,39.64,10,88.14,9.46,143.41-3,.26-32.33,1.8-168.73,3.57-178.18,2.43-12.94,13.26-44.94,13.26-49.79S729,563,733.81,556.55Z"/><path class="cls-36" d="M633.17,405.38c4.07-8.51,3-23.49,1.88-29.91a27.34,27.34,0,0,0,8.37.49c.5,7.14.76,23-2.21,29.42A16.5,16.5,0,0,1,633.17,405.38Z"/><path class="cls-37" d="M601.34,330.15a109.54,109.54,0,0,1,.89,18.46,76.12,76.12,0,0,1-.88,9.26,37.66,37.66,0,0,1-2.58,9.06h0l.09-.52a161.31,161.31,0,0,1,.66,18.65c-.07,3.11-.26,6.23-.64,9.35a39.94,39.94,0,0,1-2.1,9.27l.07-.36a76.86,76.86,0,0,1-.82,9.93,38.89,38.89,0,0,1-1,4.93,18.75,18.75,0,0,1-.9,2.46,6.9,6.9,0,0,1-1.67,2.35l-1.25-1.56a8.65,8.65,0,0,0,1.9-3.8,37.68,37.68,0,0,0,1-4.68,77.83,77.83,0,0,0,.79-9.66v-.18l.07-.17a38.11,38.11,0,0,0,2-8.78c.37-3,.56-6.08.63-9.15a159.39,159.39,0,0,0-.65-18.41l0-.25.11-.27h0a35.56,35.56,0,0,0,2.69-8.52,73.61,73.61,0,0,0,1.13-9,108.25,108.25,0,0,0-.34-18.27Z"/><path class="cls-37" d="M637.92,334.44a108.63,108.63,0,0,1-.19,18.48,73.72,73.72,0,0,1-1.43,9.19,37.28,37.28,0,0,1-3.1,8.89h0l.12-.52c.24,6.17.35,12.36,0,18.56a91.12,91.12,0,0,1-.89,9.3A35.82,35.82,0,0,1,630,407.5l.09-.42a65.51,65.51,0,0,1-.64,10.88l-2-.33a62.51,62.51,0,0,0,.61-10.55v-.22l.1-.21A33.63,33.63,0,0,0,630.5,398a85.53,85.53,0,0,0,.87-9.09c.3-6.1.19-12.24,0-18.38v-.25l.14-.27h0a35.86,35.86,0,0,0,3.21-8.34,74.18,74.18,0,0,0,1.69-8.94,108.13,108.13,0,0,0,.79-18.26Z"/><path class="cls-38" d="M518.6,687.84c-10.9,58.95-28.78,149.84-37.72,193.72a228.3,228.3,0,0,0,25.74,4.31l24.76-199.1-9.52.81Z"/><path class="cls-39" d="M677.87,567.65c-23.45,12.5-50,35.7-61.61,46.87a1.64,1.64,0,0,0,0,2.37c5.57,5.25,15.48,14.19,19.55,20.33a1.88,1.88,0,0,0,2.79.44c11.89-10.95,53-46.44,78-67.82a2.34,2.34,0,0,0-.86-4,8,8,0,0,1-5.57-6.45l-.39-2.59a2.84,2.84,0,0,0-3.5-2.36C702.6,555.42,696.32,557.8,677.87,567.65Z"/><path class="cls-40" d="M532.49,651.64,530.73,662m60-16-.83,10"/><path class="cls-39" d="M614.89,748.05l-31.18-13.26,4.93-67.21a7.15,7.15,0,0,1,10-6.29l1.84.69c2.8,1-4.83,28.69,16.24,36C617.38,698.24,614.89,748.05,614.89,748.05Z"/><path class="cls-37" d="M619.83,877.55l1.23-.29,3.49-184.8-2,0Z"/><path class="cls-36" d="M692.78,554.39c-4.07-4.07-11.39-7.75-14.54-9.09,5-2.15,13.48-3.9,17.09-4.5,3,.52,11.44,4.67,15.27,6.69Z"/><path class="cls-37" d="M531,453.72l-.79-.26-.06.18,0,.18Zm-29.53-37.79.83,0v0ZM489.79,540.41l-.83-.09Zm43.49-24c1.22-22.35-1-59-1.46-62.83l-1.66.21c.47,3.73,2.67,40.29,1.45,62.52ZM531.78,454c2.75-8.4,6.4-28.2-.49-47.72l-1.57.56c6.72,19.05,3.15,38.45.48,46.64Zm-.49-47.72c-3.48-9.87-11-15-18-13.6s-12.64,9.07-12.64,23.27h1.66c0-13.88,5.48-20.5,11.3-21.64s12.81,3.11,16.13,12.53Zm-30.66,9.63c-2.13,45.78-8.83,97.79-11.67,124.43l1.66.18c2.83-26.59,9.54-78.68,11.67-124.53ZM489,540.32c-1.8,16.83,3.3,36.4,9.28,53.2,3,8.41,6.23,16.16,8.95,22.55s4.94,11.41,5.92,14.39l1.58-.52c-1-3.07-3.25-8.17-6-14.53s-5.94-14.09-8.92-22.45c-6-16.75-10.95-36-9.19-52.46Z"/><path class="cls-37" d="M551.79,430.46l-.37-.75Zm132.77-7.36-.81-.18ZM625.2,448.55l.12-.82-.2,0-.19.07Zm-18.77-28.23-.12-.82Zm55.63-5.55.08.83ZM534,520.68a416.61,416.61,0,0,1,2.2-43.69c1.14-10.29,2.87-20.66,5.48-29a48.69,48.69,0,0,1,4.58-10.72,15.48,15.48,0,0,1,5.89-6l-.74-1.49a17.07,17.07,0,0,0-6.58,6.67,50.17,50.17,0,0,0-4.74,11.09c-2.66,8.51-4.4,19-5.55,29.34a417.32,417.32,0,0,0-2.2,43.87Zm149.74-97.76c-.6,2.71-.88,4.93-1.11,6.78a27.53,27.53,0,0,1-.77,4.59,7.19,7.19,0,0,1-1.92,3.25,18.21,18.21,0,0,1-4.87,3.22l.75,1.49a19.76,19.76,0,0,0,5.3-3.53,8.93,8.93,0,0,0,2.34-4,30.26,30.26,0,0,0,.83-4.85,63.68,63.68,0,0,1,1.07-6.63Zm-8.67,17.84c-4.6,2.31-13.89,4.55-23.69,6s-19.88,2-26.07,1l-.25,1.65c6.44,1,16.74.41,26.56-1s19.34-3.68,24.2-6.12Zm-50.15,7c-15.75,5.33-38.87,7.48-49.19,8.66l.19,1.66c10.22-1.17,33.57-3.34,49.53-8.75Zm-48.57,9.49c1.82,9.59,3.39,19.72,1.82,46.95l1.67.1c1.57-27.35,0-37.62-1.86-47.36Zm-24.2-26.06c3.67-1.83,9.17-3.12,17.87-4.57s20.42-3,36.53-5.48l-.25-1.65c-16.07,2.45-27.86,4-36.56,5.49s-14.41,2.76-18.33,4.72Zm54.4-10.05c13.16-2,45-4.6,55.58-5.55l-.15-1.66c-10.56.95-42.45,3.54-55.68,5.56Zm55.58-5.55c7.53-.68,13.4-.3,17.15,1a7.67,7.67,0,0,1,3.85,2.55,4.49,4.49,0,0,1,.61,3.74l1.62.36a6.12,6.12,0,0,0-.87-5.06,9.26,9.26,0,0,0-4.66-3.16c-4.09-1.46-10.24-1.8-17.85-1.12Z"/><path class="cls-40" d="M609.19,471.46c.77,6.48,2.77,18.61,1.83,24.66"/><path class="cls-37" d="M588.32,364.68l-.83-.06v.06Zm2.38-31,.83.07h0Zm-3.21,31c0,2.89-1,11.16-2.72,22s-4,24.19-6.68,37.2l1.64.33c2.64-13,5-26.41,6.69-37.27s2.74-19.24,2.74-22.29Zm4-31c.32-5.38,2.25-8.69,4.79-10.38s5.9-1.89,9.32-.67c6.83,2.45,13.67,10.5,13.67,22.31H621c0-12.46-7.22-21.17-14.77-23.88-3.78-1.35-7.71-1.21-10.8.85s-5.19,5.94-5.54,11.67ZM619.31,345c0,11.64-.75,13.82-2.12,23.21l1.65.24C620.2,359.06,621,356.74,621,345Zm-29.44-11.38c-.48,5.62-1.62,19.7-2.38,31l1.66.11c.76-11.33,1.9-25.39,2.38-31Z"/><path class="cls-40" d="M618.06,368c-.87,35.07-3.36,51-3.36,51"/><path class="cls-37" d="M624.68,347l.82.12h0Zm27.78-12.35-.78.28Zm-1.66,35.22-.76-.34-.07.17v.18Zm-25.3-22.77c1-8.65,2.93-14.45,5.26-18.11s5-5.12,7.6-5.28a11.11,11.11,0,0,1,7.78,3.1,20,20,0,0,1,5.54,8.12l1.56-.57a21.62,21.62,0,0,0-6-8.81,12.78,12.78,0,0,0-9-3.51c-3.25.2-6.37,2.08-8.9,6.06s-4.49,10-5.51,18.81Zm26.18-12.17c1.94,5.34,2.33,12.18,1.82,18.65S651.59,366,650,369.5l1.53.67a55.66,55.66,0,0,0,3.59-16.49c.52-6.58.14-13.7-1.92-19.35Zm-27.83,12L615,410l1.65.24,8.87-63.11Zm26.12,23c.1,5.33,0,14-.73,22.74s-2,17.44-4.16,22.84l1.54.62c2.28-5.65,3.57-14.56,4.28-23.32s.84-17.53.74-22.91Z"/><path class="cls-37" d="M644.88,448.58a258.39,258.39,0,0,1-.21,36.49c-.93,12.14-2.73,24.2-4.59,36.2l-2-.32c2-12,4-23.94,5.14-36a257.62,257.62,0,0,0,.79-36.33Z"/><path class="cls-37" d="M581.62,530.58c9-2.91,18.1-5.64,27.25-8.13,4.58-1.24,9.18-2.42,13.82-3.46a84.28,84.28,0,0,1,14.22-2.21v2a81,81,0,0,0-13.86,1.89c-4.63.93-9.23,2-13.82,3.16-9.17,2.29-18.3,4.83-27.36,7.56Z"/><path class="cls-40" d="M581.71,580.14l54.2-23.62"/><path class="cls-37" d="M715,471c3.38,13.84,8.21,34.48,12,52.12,1.9,8.83,3.53,16.9,4.58,23,.53,3.05.91,5.59,1.11,7.48.1,1,.15,1.72.16,2.29a6.21,6.21,0,0,1,0,.69,1.78,1.78,0,0,1,0,.2.31.31,0,0,1,0,.07l1.53.66a4.25,4.25,0,0,0,.21-1.63c0-.65-.06-1.48-.16-2.45-.21-2-.6-4.53-1.13-7.59-1.06-6.13-2.69-14.22-4.59-23.06-3.79-17.66-8.62-38.31-12-52.16Zm17.76,85.84v0l0,.07-.15.22c-.14.18-.34.41-.58.68-.5.56-1.2,1.28-2.08,2.15-1.76,1.74-4.23,4.05-7.24,6.81-6,5.5-14.19,12.74-23.2,20.62-18,15.76-39.39,34-53.57,46.09l1.08,1.27c14.18-12,35.55-30.34,53.58-46.1,9-7.88,17.2-15.13,23.24-20.65,3-2.76,5.5-5.09,7.28-6.85.89-.89,1.62-1.63,2.15-2.22.26-.3.48-.56.66-.79a3.72,3.72,0,0,0,.41-.66Z"/><path class="cls-37" d="M694.36,478.3l.77.33ZM596.51,582.19l-.64-.53Zm103-43.93c-1.47-8.32-3.55-20.94-4.76-32.67-.61-5.86-1-11.48-1-16.22s.42-8.53,1.35-10.74l-1.54-.65c-1.06,2.55-1.47,6.6-1.47,11.39a162,162,0,0,0,1,16.39c1.22,11.79,3.31,24.45,4.77,32.79Zm-4.41-59.63c1.7-4.07,5.89-7.12,10.23-8.46a14.16,14.16,0,0,1,6.09-.61,5.84,5.84,0,0,1,4.07,2.21l1.35-1a7.49,7.49,0,0,0-5.17-2.89,15.83,15.83,0,0,0-6.83.67c-4.65,1.43-9.33,4.75-11.28,9.4Zm-13.76,62.24a337.84,337.84,0,0,0-45,15.32c-16.59,7.06-32.57,15.84-40.54,25.47l1.28,1.06c7.69-9.28,23.33-17.94,39.91-25a337.7,337.7,0,0,1,44.73-15.24Zm-85.5,40.79a190.68,190.68,0,0,0-23.57,35.86,105.57,105.57,0,0,0-6.4,15.6,36.09,36.09,0,0,0-2,11.91l1.67-.1a34.44,34.44,0,0,1,1.88-11.32,104,104,0,0,1,6.3-15.35,189.23,189.23,0,0,1,23.36-35.54Z"/><path class="cls-37" d="M698.55,473.89a5.4,5.4,0,0,0,.5,1.4,9.66,9.66,0,0,0,.86,1.39,11.93,11.93,0,0,0,2.38,2.38l-.52.81a13.07,13.07,0,0,1-3-2.22,12.49,12.49,0,0,1-1.23-1.46,7.6,7.6,0,0,1-.95-1.82Z"/><path class="cls-37" d="M534.6,548.76a64,64,0,0,1,6.19,8c1.89,2.77,3.56,5.68,5.17,8.61a126,126,0,0,1,8,18.33A148.19,148.19,0,0,1,559.29,603a159.17,159.17,0,0,1,2.52,19.81l-.72.05a158.66,158.66,0,0,0-2.82-19.65,147.49,147.49,0,0,0-5.54-19,125.33,125.33,0,0,0-8.24-18c-1.64-2.86-3.32-5.7-5.22-8.38a62.48,62.48,0,0,0-6.11-7.65Z"/><path class="cls-41" d="M490.44,537.92c1.6-.34,3.61.71,5.57,3.3a30.6,30.6,0,0,1,4.76,22.27c-.74,3.17-2.14,4.94-3.74,5.29s-3.61-.71-5.58-3.3a30.5,30.5,0,0,1-4.75-22.27C487.43,540.05,488.83,538.27,490.44,537.92Z"/><path class="cls-42" d="M487.05,538.83c1.61-.34,3.61.71,5.58,3.3a30.53,30.53,0,0,1,4.75,22.27c-.73,3.16-2.13,4.94-3.74,5.29s-3.61-.71-5.57-3.3a30.44,30.44,0,0,1-4.76-22.27C484.05,541,485.45,539.18,487.05,538.83Z"/><path class="cls-43" d="M565.6,769.2l5.49-51.75c-3,0-60.42,2.46-60.42,2.46-1.21,0-7,2.43-9.07,3.57l-10,56.21c1.32-1.2,8.54-8.11,10.94-8.11C524.13,771.58,542.63,769.2,565.6,769.2Z"/><path class="cls-37" d="M564.93,768.46c1.66-17.11,3.35-34.09,5.16-51.12l1,1.11L536,719.88l-17.54.72-4.38.17-2.2.09-1.09,0a1.44,1.44,0,0,0-.37.05c-.14,0-.3.07-.46.11a54.12,54.12,0,0,0-7.89,3.29h0l.51-.71-9,56.39-3.3-1.82h0a87.25,87.25,0,0,1,7.53-6.28,20.15,20.15,0,0,1,2.25-1.41l.66-.32.8-.29a5.52,5.52,0,0,1,1.09-.16h.6c1.59,0,3.18,0,4.78,0,6.36,0,12.74-.24,19.13-.52s12.79-.6,19.2-.81q4.81-.16,9.63-.23l4.81,0h1.09l1,0C563.53,768.29,564.21,768.38,564.93,768.46Zm1.34,1.49c-.89.09-1.81.19-2.74.25l-1.41.07-1.31,0-4.78.16q-4.78.19-9.57.48c-6.38.38-12.76.87-19.15,1.31s-12.81.82-19.24,1c-1.61.06-3.22.08-4.83.11h-.61c-.11,0,0,0-.09,0l-.32.13-.41.22A16.72,16.72,0,0,0,500,775a85.42,85.42,0,0,0-7,6.21h0l-4.42,3.93,1.12-5.75,10.94-56.05.09-.49.42-.21h0c1.36-.72,2.7-1.3,4.07-1.89a41.47,41.47,0,0,1,4.23-1.56c.19-.06.38-.11.61-.16a4.41,4.41,0,0,1,.71-.08l1.1,0,2.19-.08,4.39-.18,17.55-.72,35.11-1.43,1.11-.05-.12,1.15C570.23,735,568.27,752.55,566.27,770Z"/><path class="cls-44" d="M520.06,663.2c14.56-1.62,46.74-5.27,59-6.94,15.26-2.08,24.27,2.78,32.6,6.94,6.66,3.33,12.94,17.34,15.26,23.93"/><path class="cls-44" d="M512.3,625.92c2.09,5.65,7,17.38,10,19.14,3.76,2.2,61.27-9.11,75.92-7.22,8.45,1.1,11.7,4.66,14.28,6.73"/><path class="cls-44" d="M520.28,663.15c-.79.26-2.67,2-4.55,9.22s-7.63,37.23-10,50.14"/><path class="cls-37" d="M586.79,883.69c1.68-.24,3.38-.51,5.07-.78l12.78-130.43-4.16.4Z"/><path class="cls-37" d="M604.54,751.48l-4.15.41a1,1,0,0,0-.9.89L585.78,883.83l2-.28L601.39,753.8l2.13-.21L590.84,883.07l2-.32,12.75-130.17a1,1,0,0,0-.28-.81A1,1,0,0,0,604.54,751.48Z"/><path class="cls-39" d="M591.68,882.94q11.82-1.86,24.1-4.51L617,758.59l-12.43-6.15Z"/><path class="cls-37" d="M617.46,757.69,605,751.54a1,1,0,0,0-1.44.8L590.66,883.1l2-.32L605.43,754,616,759.21l-1.24,119.44,2-.43L618,758.6A1,1,0,0,0,617.46,757.69Z"/><path class="cls-40" d="M598.38,662.3c-.27,2.4-3.73,30.37,14.64,37.12l-2,54.7"/><path class="cls-37" d="M704.88,480.85c0,5.39.29,10.77.67,16.14s.91,10.74,1.57,16.08a233.69,233.69,0,0,0,6,31.66l-1.94.5a235.44,235.44,0,0,1-5.28-32q-.81-8.07-1.2-16.16c-.27-5.4-.41-10.8-.3-16.2Z"/><path class="cls-37" d="M715.58,549c-4.56,1.63-9.06,3.46-13.5,5.4s-8.85,4-13.19,6.14a206.94,206.94,0,0,0-25.06,14.59l-1.12-1.65a207.38,207.38,0,0,1,25.64-14.07q6.61-3.09,13.38-5.83c4.51-1.83,9.06-3.55,13.69-5.07Z"/><path class="cls-40" d="M622.74,563.77c8.38,4.45,20.14,16.81,21.48,18.07,7.18,6.78,10.55,32.73,9.75,46.3"/><path class="cls-40" d="M671.2,545.17c1.57,0,15.45,7.07,20.16,12.57s10.74,27.77,10.74,29.08"/><path class="cls-37" d="M697.53,538.12c4.91,2.29,9.84,4.57,14.79,6.74,1.25.54,2.45,1.07,3.72,1.51s2.57,1,3.82,1.61a22.67,22.67,0,0,1,7,4.82l-1.51,1.3a20.89,20.89,0,0,0-6.27-4.48c-1.17-.61-2.39-1.14-3.63-1.64s-2.55-1.06-3.78-1.62c-4.93-2.3-9.8-4.68-14.66-7.09Z"/><path class="cls-37" d="M509.14,619.31c8.41-1.42,16.84-2.76,25.31-3.88,2.11-.28,4.23-.54,6.36-.76a33.23,33.23,0,0,1,6.47-.2,22.25,22.25,0,0,1,6.32,1.5,16.31,16.31,0,0,1,5.52,3.49l-.61.58a15.68,15.68,0,0,0-5.23-3.29,21.14,21.14,0,0,0-6.08-1.43,31.7,31.7,0,0,0-6.3.2c-2.12.22-4.23.48-6.34.76-8.44,1.13-16.87,2.48-25.27,3.91Z"/><path class="cls-37" d="M575.35,614.42c1.41,0,2.89-.25,4.34-.44l4.39-.61,8.78-1.25c2.93-.39,5.86-.77,8.83-1,.74-.07,1.49-.08,2.24-.1l1.14,0,.63.12.56.19a18.27,18.27,0,0,1,3.87,2.38,129.68,129.68,0,0,1,13,12.1c4.1,4.29,8.12,8.58,11.91,13.2l-.67.5c-3.71-4.52-7.77-8.86-11.85-13.1a127.35,127.35,0,0,0-12.92-12,17.83,17.83,0,0,0-3.66-2.26l-.48-.17-.46-.08-1.08,0c-.72,0-1.45,0-2.18.1-2.93.22-5.85.6-8.78,1l-8.77,1.25-4.39.62c-1.47.19-2.92.4-4.46.45Z"/><path class="cls-40" d="M532.47,652.72a73.65,73.65,0,0,1-10.75-8"/><path class="cls-40" d="M530.36,652.3c11.7-1.69,37.19-5.26,45.59-6.1,10.5-1.05,14.08-1.47,19.33,1.47,4.2,2.36,9,5.47,10.92,6.73"/><path class="cls-39" d="M720.36,513.11a57.27,57.27,0,0,1-8.82,3.2,1.7,1.7,0,0,0-1.29,1.74c.55,10.5,1,12.2,3.26,20.7.93,3.46,1.67-.84,7.88-1.18,4.67-.26,7.51,1.8,7.29.62-.75-4.07-4.5-18.59-5.91-24A1.73,1.73,0,0,0,720.36,513.11Z"/><path class="cls-32" d="M721.84,540.94a6.64,6.64,0,0,1,5.07,3.83,14.46,14.46,0,0,1,1.38,8.56,15.1,15.1,0,0,1-3.42,8.1A7.08,7.08,0,0,1,719,564.2a6.64,6.64,0,0,1-5.07-3.83,14.55,14.55,0,0,1-1.38-8.57,15.15,15.15,0,0,1,3.43-8.1A7.06,7.06,0,0,1,721.84,540.94Z"/><path class="cls-45" d="M724.9,541.07a6.65,6.65,0,0,1,5.07,3.82,14.57,14.57,0,0,1,1.38,8.57,15.14,15.14,0,0,1-3.42,8.1,7.09,7.09,0,0,1-5.88,2.76A6.65,6.65,0,0,1,717,560.5a14.57,14.57,0,0,1-1.38-8.57,15.14,15.14,0,0,1,3.42-8.1A7.07,7.07,0,0,1,724.9,541.07Z"/><path class="cls-40" d="M693.46,501.27c.93,3.1,4.12,9.75,9.41,11.58s16.46-3.48,21.38-6.36"/><path class="cls-39" d="M720.81,504.86c0-2.49-6.15-29.32-6.15-29.77-.48-2.21-5.61.63-6.52,5.43s1.13,27.28,2.63,28C712.89,509.45,720.81,506.55,720.81,504.86Z"/><path class="cls-38" d="M563.29,616.15c0-9-8.38-36.93-12.58-49.76,5.24-1.49,16.51-3.88,19.65-1.57s8.64,11.43,11,15.71l35.09-14.14c-29.54,14.66-45.65,46.27-50,60.24C565.38,626.89,563.29,625.16,563.29,616.15Z"/><path class="cls-38" d="M508.07,414.35c-.65-7.25-3.5-6.37-4.15-4.05-1.59,2.57,0,23.16-3.08,38.53l-6.59,66.39-1.32,20.17c2-.19,4.74,1.55,5.84,2.45,8.16-24.09,7.61-67.88,6.31-86.77C507.51,445.89,508.88,423.42,508.07,414.35Z"/><path class="cls-37" d="M508.78,405.71a39.55,39.55,0,0,1,2.4,11.84,107.64,107.64,0,0,1,.19,12.05c-.14,4-.47,8-1,12a76.21,76.21,0,0,1-2.34,11.93h0l.05-.4c.55,7.2.79,14.39.83,21.59s-.15,14.4-.59,21.59-1.13,14.36-2.21,21.5A128.51,128.51,0,0,1,501.31,539a1,1,0,0,1-1.26.63,1,1,0,0,1-.64-1.26h0a127.24,127.24,0,0,0,4.75-20.8c1.07-7.05,1.76-14.18,2.2-21.32s.62-14.29.58-21.45-.28-14.31-.83-21.43v-.19l.06-.21h0a74.47,74.47,0,0,0,2.59-11.53c.6-3.92,1-7.88,1.29-11.85a110.25,110.25,0,0,0,.14-11.92,39,39,0,0,0-2-11.64v0a.32.32,0,0,1,.19-.42A.32.32,0,0,1,508.78,405.71Z"/><path class="cls-37" d="M499.25,445.73a1.67,1.67,0,0,1,.7.35,2.8,2.8,0,0,1,.3.31,4.88,4.88,0,0,1,.38.53c.22.33.41.64.59.95.37.63.73,1.23,1.11,1.81A7.62,7.62,0,0,0,505,452.4c.64.29,1.34.62,1.94.87a8.28,8.28,0,0,0,1.94.52c1.37.2,2.81.28,4.24.37a74.81,74.81,0,0,0,8.6.1c1.44-.07,2.87-.19,4.29-.37a24.68,24.68,0,0,0,4.21-.82l.08.18a24.14,24.14,0,0,1-4.22,1.06c-1.43.26-2.87.45-4.31.6a76.35,76.35,0,0,1-8.68.35c-1.45,0-2.89,0-4.38-.16a9,9,0,0,1-2.27-.48c-.74-.26-1.35-.52-2-.79a6.11,6.11,0,0,1-2-1.39,14.36,14.36,0,0,1-1.51-1.74c-.44-.6-.85-1.22-1.25-1.82-.2-.29-.4-.59-.59-.85a4,4,0,0,0-.27-.34c-.06-.07-.06,0-.08-.07v0l.06,0a.31.31,0,0,0,.18.05Z"/><path class="cls-37" d="M497.39,480.29a18.48,18.48,0,0,0,5.73,7.12,12.66,12.66,0,0,0,4.09,2,18.12,18.12,0,0,0,4.63.49,50.3,50.3,0,0,0,9.53-1.06c1.58-.32,3.14-.69,4.68-1.16.77-.23,1.53-.48,2.27-.78.36-.15.73-.31,1.07-.49a2.86,2.86,0,0,0,.87-.62l.48.33a3.38,3.38,0,0,1-1,.84c-.36.21-.74.39-1.11.56-.76.34-1.52.62-2.3.89-1.54.53-3.12,1-4.7,1.35a51.84,51.84,0,0,1-9.71,1.44,20.37,20.37,0,0,1-5-.36,14.44,14.44,0,0,1-4.67-2.08,18.74,18.74,0,0,1-3.77-3.39,20.73,20.73,0,0,1-2.84-4.23Z"/><path class="cls-37" d="M494.73,512.68a32.43,32.43,0,0,0,6.95,7.66,7.29,7.29,0,0,0,2.13,1.12,1.67,1.67,0,0,0,.53.11l.26,0,.36,0a10.33,10.33,0,0,1,1.4.16c1.8.28,3.53.63,5.28.88a29.17,29.17,0,0,0,10.46-.1,16.29,16.29,0,0,0,8.81-5.36l.37.3a17,17,0,0,1-9,5.9,30.38,30.38,0,0,1-10.83.49c-1.79-.19-3.57-.49-5.31-.7-.43-.05-.86-.09-1.27-.1h-.3l-.41,0a3.26,3.26,0,0,1-.78-.14,8.7,8.7,0,0,1-2.64-1.25,25.7,25.7,0,0,1-4.18-3.64,44.26,44.26,0,0,1-3.5-4.22Z"/><path class="cls-39" d="M603.22,617c-1.33-.94-18.45.4-26.84,1.19l1.47-2c7.72-1.34,24-3.7,27.16-2.48s18.34,16.13,25.51,23.44h-1.93C620.68,630.83,604.54,618,603.22,617Z"/><path class="cls-38" d="M521.89,613.48c-1.1-1.79-11.89-28.19-16.52-39.56-.62-1.53-3.54-1.37-5.05-.68-2.62,1.2-5.68-.48-4.44,1.41.45.7,15.21,42.09,15.8,42.09S523.28,615.74,521.89,613.48Z"/><path class="cls-38" d="M523.3,640.78c-1.65-1.32-6.95-13.22-9.39-19-.27-.62,9.39-1.86,10.73-1.45s15.49,19.93,12.7,20.45S525.37,642.43,523.3,640.78Z"/><path class="cls-32" d="M621.83,637.15c4.74.23,9,3.54,12,9s4.71,12.83,4.32,21-2.8,15.34-6.32,20.44-8.1,8-12.83,7.76-9-3.53-12-9-4.71-12.83-4.32-21S605.47,650,609,644.92,617.09,636.93,621.83,637.15Z"/><path class="cls-45" d="M628.33,637.06c4.74.23,9,3.54,12,9s4.71,12.83,4.32,21-2.8,15.35-6.32,20.45-8.1,8-12.83,7.76-9-3.53-12-9-4.71-12.83-4.32-21,2.79-15.34,6.32-20.44S623.59,636.83,628.33,637.06Z"/><path class="cls-32" d="M628.86,644.94c3.13.15,6,2.48,8.07,6.44a33.38,33.38,0,0,1-1.46,30.3c-2.44,3.75-5.53,5.78-8.65,5.63s-6-2.47-8.07-6.44a33.28,33.28,0,0,1,1.46-30.29C622.65,646.83,625.74,644.79,628.86,644.94Z"/><path class="cls-32" d="M724.91,546.4a3.19,3.19,0,0,1,2.35,2.05,10,10,0,0,1-1,9.56,2.72,2.72,0,0,1-5.08-.56,9.19,9.19,0,0,1-.7-4.91,9.35,9.35,0,0,1,1.74-4.65A3.22,3.22,0,0,1,724.91,546.4Z"/><ellipse class="cls-46" cx="490.35" cy="554.2" rx="3.35" ry="7.42" transform="translate(-95.07 101.58) rotate(-10.79)"/><path class="cls-37" d="M666.65,433.14a128.51,128.51,0,0,1-12.72,2.31c-4.27.59-8.55,1-12.85,1.34s-8.6.5-12.9.58-8.63,0-12.94-.19l.12-2q6.39.42,12.81.49c4.27,0,8.55-.06,12.83-.28s8.54-.55,12.79-1,8.51-1.08,12.67-2Z"/><path class="cls-40" d="M614.83,436.26c-6.87,2.59-33.48,10-57.34,11.61"/><path class="cls-40" d="M610.79,454.29c0,7.58-.47,13.44-1.6,18.22"/><path class="cls-38" d="M594.58,328.73c-2.25.41-2.17,10.45-2.41,11-.34,4.05-1.39,15.65-2.92,29.57s-4.75,41.12-7,53.08l8.07-1.46c2.11-4.8,2.88-14.72,3-19.08,2.13-3.92,2.13-17.55,2.13-25.63V364.12c3.29-6.19,3.38-21.56,3.3-27.27S596.83,328.33,594.58,328.73Z"/><path class="cls-40" d="M588.29,364c3.19,2.1,11.64,6.2,19.91,5.79s10.5-1.85,10.59-2.52"/><path class="cls-40" d="M583.29,400.45c3,1.59,11.65,4.87,19.11,4.87s11.18-1.68,12.1-2.52"/><path class="cls-38" d="M534.38,513.2c.14,2.3,5.43-2.6,8.35-2.6,4.83-18.43,4.22-46,5.6-47.74A26.42,26.42,0,0,0,556,446c21.22-1.24,49-10.2,58.53-13.19h28.3c17.47,0,26.67-3.26,27.62-3.66s2.84-11,1.22-11.65-18.29-1.18-51.42,3.38-60.29,10-65.84,11.93-8.43,8.06-13.63,28S534.2,510.33,534.38,513.2Z"/><path class="cls-38" d="M634,333.23c-2.43-1.32-3.87,2.95-4.28,5.25-3.43,11-9.72,58.2-12.43,80.4l8.15-1.25c1.32-2.21,1.29-8.84,1.1-11.88,3.1-7.51,3.41-27.07,3.18-35.91.51-1,2.32-6.22,4.28-15.2C636.3,343.87,637,334.89,634,333.23Z"/><path class="cls-40" d="M622.9,366.68c3,2.1,10.81,6.2,18.49,5.79s9.75-1.84,9.83-2.52"/><path class="cls-40" d="M618.26,403.14c2.81,1.59,10.82,4.88,17.75,4.88s10.37-1.68,11.23-2.52"/><path class="cls-38" d="M585.71,464.16a19.06,19.06,0,0,0,1.93-6.26c-2.25-.31-7.48.88-8.3,1s.22,2.19.9,4.55c1.34,2,.67,16.91.67,23.88.29,2.33,1.21,6.51,1.88,4.52C585,485.45,586,469.93,585.71,464.16Z"/><path class="cls-38" d="M621.09,451.58c-.09-1.15-5.28,1.29-7.87,2.66,1.66,5.65-1.88,14.85-1.66,17.61s2.88,18.62,2.88,19.95c2.84-5.5,3.84-20.61,4-27.48C622.75,459.11,621.2,453,621.09,451.58Z"/><path class="cls-40" d="M611.05,461.75c4.92,3.16,19.86,7,33.85-.53"/><path class="cls-37" d="M612,496.33a9.71,9.71,0,0,1-3,1.95,23.31,23.31,0,0,1-3.15,1.14,38.53,38.53,0,0,1-6.43,1.21,61.17,61.17,0,0,1-6.48.35c-2.16,0-4.31-.09-6.46-.23l.06-1c2.12.05,4.25.07,6.37,0a60.13,60.13,0,0,0,6.31-.58,37.75,37.75,0,0,0,6.12-1.39,23.92,23.92,0,0,0,2.85-1.16A8.18,8.18,0,0,0,610.5,495Z"/><path class="cls-37" d="M640.91,509.8a17.93,17.93,0,0,1-3.48-.35,31.19,31.19,0,0,1-3.31-.78,44.68,44.68,0,0,1-6.3-2.4A53.86,53.86,0,0,1,622,503a63.42,63.42,0,0,1-5.4-3.91l.37-.49a59.84,59.84,0,0,0,5.53,3.57,52.48,52.48,0,0,0,5.89,2.87,42.92,42.92,0,0,0,6.19,2,31.49,31.49,0,0,0,3.17.58,16.55,16.55,0,0,0,3.12.15Z"/><path class="cls-37" d="M535.56,517.33A26.69,26.69,0,0,0,543,519a43.94,43.94,0,0,0,7.78,0,56.48,56.48,0,0,0,7.72-1.27c1.28-.26,2.53-.67,3.8-1s2.49-.82,3.74-1.23l.32.83c-1.25.46-2.49.94-3.75,1.38s-2.53.84-3.82,1.15a58.18,58.18,0,0,1-7.86,1.58,45.3,45.3,0,0,1-8.07.26,28.5,28.5,0,0,1-8-1.56Z"/><path class="cls-37" d="M502.24,539.74l.4.22.22.13a3.73,3.73,0,0,0,.37.23c.25.14.49.28.74.4a12.52,12.52,0,0,0,1.56.65,13.52,13.52,0,0,0,1.66.44,12.12,12.12,0,0,0,1.71.23,18.39,18.39,0,0,0,7-.93,31.45,31.45,0,0,0,6.66-3.11c1-.7,2.07-1.38,3.08-2.11l3-2.34,1,1.1-2.88,2.59c-1,.81-2.05,1.59-3.08,2.38a33.58,33.58,0,0,1-6.93,3.76,20.83,20.83,0,0,1-7.94,1.53,14.32,14.32,0,0,1-2.07-.16,14.86,14.86,0,0,1-2.07-.41,16.36,16.36,0,0,1-2-.7c-.33-.13-.65-.29-1-.44l-.45-.25-.2-.1h0Z"/><path class="cls-40" d="M638.41,519.26c2.43,6.06,9.22,20.87,17.65,29.3"/><path class="cls-37" d="M533,545.74c1.68-.73,3.22-1.27,4.84-1.86l4.81-1.69q4.83-1.65,9.68-3.19,9.71-3.09,19.52-5.8l.09.31c-6.45,2.09-12.87,4.27-19.23,6.59q-4.79,1.74-9.51,3.58l-4.72,1.87c-1.54.64-3.17,1.3-4.58,2Z"/><path class="cls-40" d="M510,720.45l-7.77,51.47"/><path class="cls-38" d="M575.55,661.73s-20.71,1.71-30.48,2.8c0,4.45-3.31,33.73-4.63,47.92,7.45,0,30.8-.8,30.8-.8S575.55,662.66,575.55,661.73Z"/><path class="cls-37" d="M510.76,693.13A28.76,28.76,0,0,0,514.2,689l1.62-2.28.84-1.16c.09-.12.1-.15.26-.34a1.8,1.8,0,0,1,.71-.41c.29-.08.54-.14.79-.19,1.93-.34,3.77-.49,5.65-.67s3.73-.3,5.6-.43c7.46-.52,14.92-.91,22.38-1.28l22.39-1,11.19-.46c1,0,1.84-.09,2.83-.1a8.26,8.26,0,0,1,2.8.77,26.75,26.75,0,0,1,4.86,2.89l-.31.42A25.7,25.7,0,0,0,591,682a7.83,7.83,0,0,0-2.57-.67c-.88,0-1.86.1-2.77.15l-11.19.64-22.36,1.38c-7.44.49-14.89,1-22.32,1.64-1.86.16-3.72.33-5.56.53s-3.72.39-5.46.73l-.58.15s-.17.12.09-.11h0l0,0,0,.07-.1.13-.79,1.12-1.58,2.32a30.44,30.44,0,0,1-3.65,4.51Z"/><path class="cls-38" d="M541.05,645.22c-.37-.21-13.59,1.55-13.88,1.55-.79.09,4.67,3.64,5.33,3.73s12-1.76,12.28-1.85S541.42,645.42,541.05,645.22Z"/><path class="cls-38" d="M533.5,659.83c-.24,0,.55-4.23,1-6.34.08-.39,12.87-1.63,13.26-1.63s.27,6.3,0,6.39S533.81,659.83,533.5,659.83Z"/><path class="cls-37" d="M476.31,880.44l.8.2,20.13-103.75-2-.37Z"/><path class="cls-39" d="M641.59,549.67c-5.66-8.77-16.23-24.43-18.17-26.23,7.59-1.12,9.48-.92,11-.92,1.86,0,14.94,22.65,16.06,23.58C651.36,546.85,648.07,545.38,641.59,549.67Z"/><path class="cls-39" d="M645.92,368.76c4.71-9.5,4-29.52,3.08-36.62,1.15,1.63,3.52,10.22,3.44,17.77a59.27,59.27,0,0,1-2.81,17.95C649.27,368.73,647,368.82,645.92,368.76Z"/><path class="cls-39" d="M649.25,373.51c-1,.79-2.83.79-3.39.87.4,6,.4,20.55-2.75,30.57,2.58-.57,3.59-1.44,3.78-1.81C649.35,393.75,649.49,379.47,649.25,373.51Z"/><path class="cls-39" d="M596.92,324.19c-.93.5,1.39,1.34,2.66,1.69,8.18-2.63,14.37,3.94,16.44,7.55a18.43,18.43,0,0,0-9.86-9.86C603.23,322.24,598.07,323.57,596.92,324.19Z"/><path class="cls-39" d="M636,326.34c-3.1,1.16-2.25,2.28-1.44,2.69,3.88,1.91,1.44-1.71,6.05-1.9s8.22,3.75,5.92,1.38A10.22,10.22,0,0,0,636,326.34Z"/><path class="cls-39" d="M634.87,503.43c3.55-13.61,4.19-30.39,4.06-37.08l3.84-1c.17,7.29-.19,25.46-3,39.81C636.36,505.08,635.09,504,634.87,503.43Z"/><path class="cls-39" d="M639.29,461.86a41.28,41.28,0,0,0-.37-11l3.56-.24a47.93,47.93,0,0,1,.29,10.07A8.81,8.81,0,0,1,639.29,461.86Z"/><path class="cls-39" d="M646.32,408.15c-.57.57-2.44.88-3.3,1a16.53,16.53,0,0,1-1,5.86c.69,0,2.16,0,2.52-.42S645.87,410.12,646.32,408.15Z"/><path class="cls-40" d="M618.38,419.14c-1.3.45-4.63,12.63-4.63,17.32,0,5.85,8,11.18,11.32,12.36"/><path class="cls-40" d="M652.6,415.27c-.5.83-4,13.23-2,19.36a18.79,18.79,0,0,0,9.1,11.08"/><path class="cls-36" d="M552.73,776.54,525.81,778l-14,108.4q7.34.66,15,.91l5.49-45.13h13.78Z"/><path class="cls-36" d="M519.62,681.47l2.19-14.88,20.41-1.73-1.15,14.88Z"/><path class="cls-36" d="M647.7,579.33c-13.92-11.71-18.54-15.09-19.12-15.32,12.4-7.17,33.07-13.55,41.85-15.85,9.92,4,15,8.44,16.36,10.16A333.69,333.69,0,0,0,647.7,579.33Z"/><path class="cls-36" d="M641.36,583c-1.3-1.62-12.29-11.36-17.93-16.14-3.3,1.73-18.26,10-26.45,19.7-10,11.8-14.42,20.77-15.73,24.61,13.13-3,27.48-1.5,28.84-2.58S640.68,583,641.36,583Z"/><path class="cls-39" d="M571,885.65q5.69-.58,11.51-1.37l15-134.7-13.65-5.53Z"/><path class="cls-36" d="M540.13,686.47l-6.41.43-3.39,25.37H538Z"/><path class="cls-36" d="M583.36,574.23c-.4-1-19.62-30.71-21.8-32.7,17.83-6.93,55.48-17.83,56.67-16.84,1,.79,12.95,18.56,18.83,27.35C614.86,557.58,583.75,575.22,583.36,574.23Z"/><path class="cls-36" d="M526.13,403.69c-3.45-7-10.81-7-14.52-5.78,5.33,15.39,2.11,43.45,0,53,7.16.9,14.78-.17,17-.92C536.82,420.18,527.19,405.85,526.13,403.69Z"/><path class="cls-36" d="M512.78,488.07c.67-7.3-.16-23.47-.72-29.67,5.78,1.15,13.06,0,15.51-.62a189.74,189.74,0,0,1,2.06,26.09C526.09,485.53,516.26,488,512.78,488.07Z"/><path class="cls-36" d="M528.23,489.65c-5.32,2.74-15.13,3-15.69,3,.81,8.38-.82,22.54-1.73,28.57,10.49.9,15.05-3.06,16-5.15C528,510.26,528.23,496,528.23,489.65Z"/><path class="cls-36" d="M528.65,547.53c-7.6,5.24-19.58,6.08-21.1,6.08.56,2.87,1.35,9.55,0,13.33L527.8,612c10.13-.54,23.13-3.49,28.36-4.89C554.68,583.35,537.2,557.49,528.65,547.53Z"/><path class="cls-36" d="M603.26,366a82.39,82.39,0,0,0,2.44-33.36c2.64.23,8.2.94,9.32,1.92,1.39,1.22,4.09,17.07.52,31.44C613.31,366.79,607.72,367.88,603.26,366Z"/><path class="cls-40" d="M578,464.66c4.92,3.16,18.26,7.6,32.26,0"/><path class="cls-36" d="M575.24,520.27c-11.89,6.5-31.77,8.53-40.22,8.72-.75,1-2.45,3.11-3.34,3.47-1.11.44,1.75,4.38,1.75,9.61,2.06-.63,30.58-9.91,44.59-14.46Z"/><path class="cls-40" d="M549.44,431.43c-.65,1.17-1.55,4.59,0,8.94,1.94,5.44,5.63,14.95,9.32,15.15,3,.15,13.79,1.1,18.84,1.55"/><path class="cls-40" d="M581.55,424.57c-.37,0-1.16,1-1.34,5.14-.22,5.14-.67,13.18,1.34,15.19s7.6,9.17,12.29,9.61"/><path class="cls-36" d="M507.15,538.68c2.28-2.75,3.24-9.47,3.44-12.48,4.65.3,14.55.1,17-3,.59,2.19,1.59,6.75.88,7.46C527.58,531.51,519.23,543,507.15,538.68Z"/><path class="cls-47" d="M557.63,456.61c-.06,3.49,0,6.55-1.72,10.73-.64,6.77,1.5,17.69-1.75,33.9,1,3.46,2,12-2.12,18.37"/><path class="cls-37" d="M537.46,486.06a21.57,21.57,0,0,0,5.31,8.7,23.92,23.92,0,0,0,4,3.27,24.3,24.3,0,0,0,4.69,2.23A39.94,39.94,0,0,0,561.88,502a28,28,0,0,0,5.26-.34A13.26,13.26,0,0,0,572,500l.53.75a14.28,14.28,0,0,1-5.21,1.94,29.49,29.49,0,0,1-5.46.49,39.9,39.9,0,0,1-5.46-.42,37.46,37.46,0,0,1-5.37-1.13,23.41,23.41,0,0,1-9.49-5.66,23.61,23.61,0,0,1-6-9.38Z"/><path class="cls-40" d="M540.4,453a23.28,23.28,0,0,0,16.77,15.18c10.6,2.42,17.09.26,19-1.12"/><path class="cls-36" d="M562,498c1.43-8.62.59-20.9,0-26,2.86.48,9.7,1.15,14.08,0,.67,6.74.28,18.18,0,23.06C571.54,497.55,564.79,498.07,562,498Z"/><path class="cls-36" d="M563,466.56c.44-1.34.18-6.29,0-8.59,3.26.32,10.24,1,12.08,1a26.51,26.51,0,0,1,.56,5.38C571.8,467,565.59,466.91,563,466.56Z"/><path class="cls-36" d="M592.62,495.72a102.65,102.65,0,0,0,0-23c2.89.05,9.67-.43,13.68-2.71,1,5.19,2.68,17,1.49,22.88C607,493.82,602.8,495.72,592.62,495.72Z"/><path class="cls-36" d="M593.4,466.42c1.34-1.76,1.42-7,1.29-9.42,4.64.52,10.74-1,13.22-1.8.41,1.75-.18,6.19-.52,8.19C603.62,465.71,596.49,466.38,593.4,466.42Z"/><path class="cls-36" d="M602,401.4c3.33-11.73,2.44-24.15,1.49-28.18A23.1,23.1,0,0,0,614.76,372c.46,5.18.68,19.13-1.29,27.79A15.92,15.92,0,0,1,602,401.4Z"/><path class="cls-37" d="M505.62,549.71a11.62,11.62,0,0,0,2.65.91,22,22,0,0,0,3,.46,27.27,27.27,0,0,0,6.11-.24,33.56,33.56,0,0,0,6-1.54,40.11,40.11,0,0,0,5.75-2.61l.28.44a42.93,42.93,0,0,1-5.56,3.28,35.84,35.84,0,0,1-6.11,2.29,30,30,0,0,1-6.57,1,24.19,24.19,0,0,1-3.39-.16,14.69,14.69,0,0,1-3.47-.8Z"/><path class="cls-37" d="M583.24,511.27a40.75,40.75,0,0,0,7.52.62,49.48,49.48,0,0,0,7.59-.61,35.91,35.91,0,0,0,14.23-5.35l.18.25a36.57,36.57,0,0,1-14.19,6.23,50.62,50.62,0,0,1-7.76,1.05,41.84,41.84,0,0,1-7.9-.22Z"/><path class="cls-36" d="M584.34,523.67c-.56,0-2.39-3.57-3.24-5.35,21,0,32.13-6.67,35.09-10a45.11,45.11,0,0,1,6.91,7.33C614.92,515.92,585.05,523.67,584.34,523.67Z"/><path class="cls-36" d="M560.78,512.83c.8-1.67,1.3-5.78,1.45-7.62a40.68,40.68,0,0,0,13.42-2.9V508C568.69,511.79,562.84,512.8,560.78,512.83Z"/><path class="cls-36" d="M591.24,508.81c1-1.57,1.21-4.58,1.17-5.89,3.7.2,12.24-.07,16.8-2.77a13.2,13.2,0,0,1,.4,4.05C601.94,509,591.83,508.81,591.24,508.81Z"/><path class="cls-36" d="M636.67,368.67c4.21-10.59,3.87-27.2,3.17-34.18,2.54-.75,7.73-2,8.16-.9.55,1.36,2.54,22.57-4,35.08C643.59,369.13,641.53,369.76,636.67,368.67Z"/><path class="cls-36" d="M599.69,418.85c1.28-1.79,1.67-8.24,1.7-11.25.39,0,7.26,1.27,11.06-.58,0,2.65-.26,8.4-1.07,10.23C609.19,418.22,602.67,418.72,599.69,418.85Z"/><path class="cls-1" d="M899.42,572.2c24.85-23.87-124-233.44-241.73-309.53-201.54-130.21-278.66,232.4-296,443.4C349.82,850,461.14,918.67,634.64,874,874.74,812.13,899.42,572.2,899.42,572.2"/><polyline class="cls-48" points="148.44 586.06 209.2 459.96 260.71 560.98 336.15 364.1 376.72 422.09 416.22 307.23 445.61 364.1 502.59 236.27 552.64 338.76"/><path class="cls-49" d="M621.33,190.67l2-6.73c-30.16,21.2-93,55.66-94.62,57s6.28,8.67,14.48,13Z"/><path class="cls-49" d="M464.86,283.85v-3.8c6.83-2.69,20.79-8.11,22-8.28s51.51-1.09,76.5-1.53l-1.5,5.18Z"/><path class="cls-50" d="M541.61,249.47l81.79-65.14-31.1-25.55L513,223.4l-20.77-20s-21,54.72-27.39,76.62l98.45-9.74Z"/><path class="cls-20" d="M771.58,405.59c-5.28,20.81-24.68,33.62-43.16,28.92s-29.41-25.2-24.12-46S729,354.9,747.45,359.59,776.86,384.79,771.58,405.59Z"/><path class="cls-20" d="M766.13,404.07c-5.28,20.8-24.68,33.61-43.16,28.92s-29.41-25.21-24.13-46,24.69-33.61,43.16-28.92S771.41,383.27,766.13,404.07Z"/><path class="cls-21" d="M754.72,410.06c2.67-5.49,1.38-11.62-2.87-13.68s-9.86.72-12.52,6.21-1.38,11.62,2.87,13.68S752.06,415.56,754.72,410.06Zm-3-1.62c1.61-3.33.83-7-1.74-8.29s-6,.44-7.59,3.76-.83,7,1.74,8.29S750.07,411.76,751.69,408.44Z"/><path class="cls-22" d="M725.42,386.82c2.67-5.49,1.38-11.62-2.87-13.68s-9.86.72-12.52,6.21S708.65,391,712.9,393,722.76,392.32,725.42,386.82Zm-3-1.62c1.61-3.33.83-7-1.74-8.29s-6,.44-7.59,3.76-.83,7,1.74,8.29S720.77,388.52,722.39,385.2Z"/><path class="cls-23" d="M723.88,417.07l-9-.53,26-46.22h9.56Z"/><path class="cls-24" d="M759.94,368.83l3.47.46"/><path class="cls-24" d="M764.63,377.19l5.25,2.37"/><path class="cls-24" d="M767.12,386.9l5.81,2.2"/><path class="cls-24" d="M766.68,400l5.25,2.31"/><path class="cls-24" d="M761.63,414.14l5.08,2.45"/><path class="cls-24" d="M752.17,425.28l5.55,2.89"/><path class="cls-24" d="M741.24,430.88l5.55,2.89"/><path class="cls-25" d="M789,412.56c-11.76,33.12-45.79,51.14-75.75,40.78S668.09,408,679.86,374.83s45.79-51.14,75.75-40.78S800.77,379.43,789,412.56Z"/><path class="cls-51" d="M822.46,424.12c-19,53.43-73.86,82.5-122.2,65.79S627.42,416.7,646.4,363.27s73.86-82.5,122.2-65.79S841.44,370.69,822.46,424.12Z"/><rect class="cls-52" x="315.91" y="847.51" width="42.97" height="14.24" transform="translate(-551.4 621.66) rotate(-53.77)"/><rect class="cls-53" x="248.64" y="636.71" width="43.32" height="43.32"/><rect class="cls-54" x="349.74" y="394.68" width="53.47" height="53.47"/><rect class="cls-55" x="243.57" y="631.64" width="53.47" height="53.47"/><rect class="cls-56" x="354.81" y="399.76" width="43.32" height="43.32"/><line class="cls-57" x1="354.81" y1="443.07" x2="291.96" y2="636.71"/><path class="cls-58" d="M908,474.13h20A377.92,377.92,0,0,0,770.47,226.05c-3.5,5.48-7.07,11.07-10.66,16.67A358.34,358.34,0,0,1,908,474.13Z"/><path class="cls-59" d="M259.3,744.74a372.14,372.14,0,0,1-60.79-173.45H178.76a393,393,0,0,0,64.13,184.55Z"/><path class="cls-60" d="M786.09,808.88C721,865.2,636.46,899.67,546,899.67a339.26,339.26,0,0,1-156.78-37.9c-3.07,6-6.15,12-9.1,17.75a357.93,357.93,0,0,0,165.38,39.94c95.05,0,183.9-36.1,252.49-95.14Z"/><path class="cls-61" d="M793.91,815.13C726.56,873.38,639.15,909,545.62,909a350.87,350.87,0,0,1-162.16-39.19"/><path class="cls-62" d="M372.93,862.09A358.51,358.51,0,0,1,257.66,756.56"/><polygon class="cls-59" points="692.36 603.74 891.3 603.74 876.08 770.99 677.13 770.99 692.36 603.74"/><polygon class="cls-59" points="888.97 515.67 944.33 515.67 940.1 562.21 884.74 562.21 888.97 515.67"/><polygon class="cls-39" points="711.65 621.98 857.68 621.98 856.78 631.9 710.75 631.9 711.65 621.98"/><polygon class="cls-39" points="708.61 647.02 854.64 647.02 853.73 656.94 707.7 656.94 708.61 647.02"/><polygon class="cls-39" points="707.08 672.06 777.05 672.06 776.14 681.99 706.18 681.99 707.08 672.06"/><polygon class="cls-39" points="742.52 741.41 812.48 741.41 811.58 751.34 741.61 751.34 742.52 741.41"/><circle class="cls-63" cx="448.87" cy="587.79" r="15.96"/><circle class="cls-64" cx="650.6" cy="736.02" r="10.18"/><circle class="cls-65" cx="650.6" cy="736.02" r="10.18"/><circle class="cls-66" cx="819.78" cy="379.56" r="7.1"/><circle class="cls-67" cx="819.78" cy="379.56" r="7.1"/><path class="cls-68" d="M674.31,187.47A370,370,0,0,1,886.67,374.59"/><circle class="cls-69" cx="382.59" cy="514.91" r="57.61"/><line class="cls-70" x1="358.17" y1="498.09" x2="407" y2="498.09"/><line class="cls-71" x1="358.17" y1="510.61" x2="407" y2="510.61"/><line class="cls-72" x1="358.17" y1="523.13" x2="385.96" y2="523.13"/><line class="cls-73" x1="358.17" y1="535.65" x2="385.96" y2="535.65"/></g></svg>