<svg xmlns="http://www.w3.org/2000/svg" xmlns:xlink="http://www.w3.org/1999/xlink" viewBox="0 0 1080 1080"><defs><style>.cls-1{fill:url(#linear-gradient);}.cls-2{fill:#eaeaea;}.cls-3{fill:#d8d8d8;}.cls-13,.cls-14,.cls-15,.cls-16,.cls-17,.cls-18,.cls-30,.cls-31,.cls-32,.cls-35,.cls-37,.cls-39,.cls-4,.cls-42,.cls-43,.cls-44,.cls-45,.cls-46,.cls-47,.cls-48,.cls-49,.cls-5,.cls-52,.cls-53,.cls-54,.cls-55,.cls-56,.cls-57,.cls-58,.cls-59,.cls-6,.cls-60,.cls-79,.cls-80,.cls-81,.cls-90{fill:none;}.cls-4,.cls-60,.cls-90{stroke:#fff;}.cls-13,.cls-14,.cls-15,.cls-16,.cls-17,.cls-18,.cls-31,.cls-32,.cls-35,.cls-37,.cls-4,.cls-43,.cls-44,.cls-45,.cls-46,.cls-47,.cls-48,.cls-49,.cls-5,.cls-52,.cls-54,.cls-6,.cls-60,.cls-79,.cls-8,.cls-80,.cls-81,.cls-90{stroke-miterlimit:10;}.cls-5{stroke:url(#linear-gradient-2);}.cls-6{stroke:url(#linear-gradient-3);}.cls-7{fill:url(#linear-gradient-4);}.cls-26,.cls-36,.cls-8{fill:#fff;}.cls-54,.cls-8{stroke:#dfe9ff;}.cls-20,.cls-33,.cls-43,.cls-44,.cls-45,.cls-46,.cls-47,.cls-49,.cls-51,.cls-73,.cls-87,.cls-89,.cls-9{opacity:0.4;}.cls-9{fill:url(#linear-gradient-5);}.cls-10,.cls-88{fill:#ff996c;}.cls-11{fill:url(#linear-gradient-6);}.cls-12{fill:url(#linear-gradient-7);}.cls-13{stroke:url(#linear-gradient-8);}.cls-14{stroke:url(#linear-gradient-9);}.cls-15{stroke:url(#linear-gradient-10);}.cls-16{stroke:url(#linear-gradient-11);}.cls-17{stroke:url(#linear-gradient-12);}.cls-18{stroke:url(#linear-gradient-13);}.cls-19{fill:#dfe9ff;}.cls-21{clip-path:url(#clip-path);}.cls-22{fill:url(#linear-gradient-15);}.cls-23{fill:url(#linear-gradient-16);}.cls-24{fill:url(#linear-gradient-17);}.cls-25{fill:#0d2265;}.cls-27{fill:#197ddf;}.cls-28{fill:#feb36f;}.cls-29{fill:url(#linear-gradient-18);}.cls-30,.cls-42,.cls-64{stroke:#113291;}.cls-30,.cls-39,.cls-42,.cls-53,.cls-55,.cls-56,.cls-57,.cls-58,.cls-59{stroke-linecap:round;}.cls-31{stroke:#ed6921;}.cls-32{stroke:#000;}.cls-33{fill:url(#linear-gradient-19);}.cls-34{fill:url(#linear-gradient-20);}.cls-35{stroke:#197ddf;stroke-width:3px;}.cls-36{opacity:0.47;}.cls-37{stroke:#d8d8d8;}.cls-38{fill:url(#linear-gradient-21);}.cls-39{stroke:#9c9c9c;}.cls-40{fill:#9c9c9c;}.cls-41{fill:#c4c4c4;}.cls-42,.cls-53,.cls-55,.cls-56,.cls-57,.cls-58,.cls-59{stroke-linejoin:round;}.cls-43{stroke:url(#linear-gradient-22);}.cls-44{stroke:url(#linear-gradient-23);}.cls-45{stroke:url(#linear-gradient-24);}.cls-46{stroke:url(#linear-gradient-25);}.cls-47{stroke:url(#linear-gradient-26);}.cls-48,.cls-79{stroke:#ff996c;}.cls-48{stroke-width:4px;}.cls-49{stroke:url(#linear-gradient-27);}.cls-50{fill:url(#linear-gradient-28);}.cls-51{fill:url(#linear-gradient-29);}.cls-52{stroke:url(#linear-gradient-30);}.cls-53{stroke:url(#linear-gradient-31);}.cls-55{stroke:url(#linear-gradient-32);}.cls-56{stroke:url(#linear-gradient-33);}.cls-57{stroke:url(#linear-gradient-34);}.cls-58{stroke:url(#linear-gradient-35);}.cls-59{stroke:url(#linear-gradient-36);}.cls-60,.cls-79{stroke-width:2px;}.cls-61{fill:url(#linear-gradient-37);}.cls-62{fill:url(#linear-gradient-38);}.cls-63{fill:#fbfef9;}.cls-64{fill:url(#linear-gradient-39);}.cls-65{fill:url(#linear-gradient-40);}.cls-66{fill:url(#linear-gradient-41);}.cls-67{fill:url(#linear-gradient-42);}.cls-68{fill:url(#linear-gradient-43);}.cls-69{fill:url(#linear-gradient-44);}.cls-70{fill:url(#linear-gradient-45);}.cls-71{fill:url(#linear-gradient-46);}.cls-72{fill:url(#linear-gradient-47);}.cls-73{fill:url(#linear-gradient-48);}.cls-74{fill:url(#linear-gradient-49);}.cls-75,.cls-77{opacity:0.61;}.cls-75{fill:url(#linear-gradient-50);}.cls-76,.cls-78{opacity:0.25;}.cls-76{fill:url(#linear-gradient-51);}.cls-77{fill:url(#linear-gradient-52);}.cls-78{fill:url(#linear-gradient-53);}.cls-80{stroke:url(#linear-gradient-54);}.cls-81{stroke:url(#linear-gradient-55);}.cls-82{fill:url(#linear-gradient-56);}.cls-83{fill:url(#linear-gradient-57);}.cls-84{fill:url(#linear-gradient-58);}.cls-85{fill:url(#linear-gradient-59);}.cls-86{fill:url(#linear-gradient-60);}.cls-87{fill:url(#linear-gradient-61);}.cls-88{opacity:0.76;}.cls-89{fill:url(#linear-gradient-62);}.cls-90{fill-rule:evenodd;}</style><linearGradient id="linear-gradient" x1="681.98" y1="397.58" x2="815.95" y2="397.58" gradientUnits="userSpaceOnUse"><stop offset="0" stop-color="#3b7ce9"/><stop offset="1" stop-color="#2b84e5"/></linearGradient><linearGradient id="linear-gradient-2" x1="352.29" y1="369.01" x2="453.53" y2="369.01" xlink:href="#linear-gradient"/><linearGradient id="linear-gradient-3" x1="352.29" y1="448.21" x2="592.15" y2="448.21" xlink:href="#linear-gradient"/><linearGradient id="linear-gradient-4" x1="371" y1="780.63" x2="822.46" y2="780.63" gradientUnits="userSpaceOnUse"><stop offset="0" stop-color="#2b84e5" stop-opacity="0.2"/><stop offset="1" stop-color="#3b7ce9" stop-opacity="0"/></linearGradient><linearGradient id="linear-gradient-5" x1="701.73" y1="765.32" x2="846.02" y2="765.32" xlink:href="#linear-gradient"/><linearGradient id="linear-gradient-6" x1="334.15" y1="684.28" x2="612.58" y2="405.85" gradientUnits="userSpaceOnUse"><stop offset="0" stop-color="#94c8ff"/><stop offset="1" stop-color="#fff" stop-opacity="0"/></linearGradient><linearGradient id="linear-gradient-7" x1="358.74" y1="468.25" x2="477.22" y2="673.47" gradientUnits="userSpaceOnUse"><stop offset="0" stop-color="#3b7ce9" stop-opacity="0.7"/><stop offset="1" stop-color="#2b84e5"/></linearGradient><linearGradient id="linear-gradient-8" x1="369.44" y1="429.19" x2="369.44" y2="691.6" gradientUnits="userSpaceOnUse"><stop offset="0.01" stop-color="#f1f6ff"/><stop offset="1" stop-color="#f1f6ff" stop-opacity="0"/></linearGradient><linearGradient id="linear-gradient-9" x1="340.3" y1="429.19" x2="340.3" y2="691.6" xlink:href="#linear-gradient-8"/><linearGradient id="linear-gradient-10" x1="427.49" y1="429.19" x2="427.49" y2="691.6" xlink:href="#linear-gradient-8"/><linearGradient id="linear-gradient-11" x1="398.35" y1="429.19" x2="398.35" y2="691.6" xlink:href="#linear-gradient-8"/><linearGradient id="linear-gradient-12" x1="485.82" y1="429.19" x2="485.82" y2="691.6" xlink:href="#linear-gradient-8"/><linearGradient id="linear-gradient-13" x1="456.69" y1="429.19" x2="456.69" y2="691.6" xlink:href="#linear-gradient-8"/><clipPath id="clip-path"><path class="cls-1" d="M718.3,447.74H816c-4.13-56.25-51.56-100.33-108-100.33a108.53,108.53,0,0,0-26,3.17Z"/></clipPath><linearGradient id="linear-gradient-15" x1="806.51" y1="450.94" x2="815.95" y2="450.94" xlink:href="#linear-gradient"/><linearGradient id="linear-gradient-16" x1="681.98" y1="401.54" x2="815.95" y2="401.54" xlink:href="#linear-gradient"/><linearGradient id="linear-gradient-17" x1="681.98" y1="349" x2="685.15" y2="349" xlink:href="#linear-gradient"/><linearGradient id="linear-gradient-18" x1="421.85" y1="689.63" x2="463.35" y2="689.63" gradientUnits="userSpaceOnUse"><stop offset="0" stop-color="#1b44c0"/><stop offset="0.19" stop-color="#1b45c1" stop-opacity="0.98"/><stop offset="0.33" stop-color="#1b48c2" stop-opacity="0.93"/><stop offset="0.47" stop-color="#1b4dc5" stop-opacity="0.85"/><stop offset="0.59" stop-color="#1a54c9" stop-opacity="0.72"/><stop offset="0.71" stop-color="#1a5cce" stop-opacity="0.56"/><stop offset="0.83" stop-color="#1a67d5" stop-opacity="0.37"/><stop offset="0.94" stop-color="#1974dc" stop-opacity="0.14"/><stop offset="1" stop-color="#197ce1" stop-opacity="0"/></linearGradient><linearGradient id="linear-gradient-19" x1="732.07" y1="615.62" x2="876.35" y2="615.62" xlink:href="#linear-gradient"/><linearGradient id="linear-gradient-20" x1="768" y1="683.65" x2="837.58" y2="563.14" gradientUnits="userSpaceOnUse"><stop offset="0" stop-color="#197ce1"/><stop offset="1" stop-color="#9fbdff"/></linearGradient><linearGradient id="linear-gradient-21" x1="494.33" y1="2499.05" x2="535.69" y2="2497.68" gradientTransform="matrix(1, 0.06, 0.06, -1, -154.63, 2932.04)" gradientUnits="userSpaceOnUse"><stop offset="0" stop-color="#969696"/><stop offset="1" stop-color="#c4c4c4" stop-opacity="0"/></linearGradient><linearGradient id="linear-gradient-22" x1="849.41" y1="378.2" x2="870.92" y2="378.2" xlink:href="#linear-gradient"/><linearGradient id="linear-gradient-23" x1="849.41" y1="406.98" x2="870.92" y2="406.98" xlink:href="#linear-gradient"/><linearGradient id="linear-gradient-24" x1="849.41" y1="464.55" x2="870.92" y2="464.55" xlink:href="#linear-gradient"/><linearGradient id="linear-gradient-25" x1="849.41" y1="493.34" x2="870.92" y2="493.34" xlink:href="#linear-gradient"/><linearGradient id="linear-gradient-26" x1="849.41" y1="522.13" x2="870.92" y2="522.13" xlink:href="#linear-gradient"/><linearGradient id="linear-gradient-27" x1="849.41" y1="435.77" x2="870.92" y2="435.77" xlink:href="#linear-gradient"/><linearGradient id="linear-gradient-28" x1="174.92" y1="501.99" x2="217.21" y2="501.99" xlink:href="#linear-gradient-7"/><linearGradient id="linear-gradient-29" x1="213.94" y1="495.31" x2="301.3" y2="495.31" xlink:href="#linear-gradient"/><linearGradient id="linear-gradient-30" x1="157.19" y1="453.34" x2="296.85" y2="453.34" xlink:href="#linear-gradient"/><linearGradient id="linear-gradient-31" x1="213.44" y1="750.23" x2="263.01" y2="750.23" xlink:href="#linear-gradient-20"/><linearGradient id="linear-gradient-32" x1="213.44" y1="760.23" x2="276.57" y2="760.23" xlink:href="#linear-gradient-20"/><linearGradient id="linear-gradient-33" x1="213.44" y1="770.24" x2="259.84" y2="770.24" xlink:href="#linear-gradient-20"/><linearGradient id="linear-gradient-34" x1="339.45" y1="750.23" x2="376.97" y2="750.23" xlink:href="#linear-gradient-20"/><linearGradient id="linear-gradient-35" x1="339.45" y1="760.23" x2="382.03" y2="760.23" xlink:href="#linear-gradient-20"/><linearGradient id="linear-gradient-36" x1="339.45" y1="770.24" x2="355.2" y2="770.24" xlink:href="#linear-gradient-20"/><linearGradient id="linear-gradient-37" x1="411.49" y1="429.77" x2="488.56" y2="429.77" gradientTransform="translate(14.65 -14.29) rotate(1.82)" gradientUnits="userSpaceOnUse"><stop offset="0" stop-color="#1b44c0"/><stop offset="0.31" stop-color="#1b47c2"/><stop offset="0.55" stop-color="#1b51c8"/><stop offset="0.77" stop-color="#1a62d1"/><stop offset="0.98" stop-color="#1979df"/><stop offset="1" stop-color="#197ce1"/></linearGradient><linearGradient id="linear-gradient-38" x1="418.17" y1="420.53" x2="486.19" y2="420.53" gradientTransform="translate(14.65 -14.29) rotate(1.82)" gradientUnits="userSpaceOnUse"><stop offset="0" stop-color="#fbfef9"/><stop offset="0.52" stop-color="#eceefc"/><stop offset="1" stop-color="#dbdbff"/></linearGradient><linearGradient id="linear-gradient-39" x1="380.51" y1="490.95" x2="388.95" y2="482.51" gradientTransform="matrix(1, 0, 0, 1, 0, 0)" xlink:href="#linear-gradient-37"/><linearGradient id="linear-gradient-40" x1="475.22" y1="544.69" x2="444.94" y2="597.13" xlink:href="#linear-gradient-18"/><linearGradient id="linear-gradient-41" x1="371.85" y1="579.78" x2="429.57" y2="596.44" xlink:href="#linear-gradient-18"/><linearGradient id="linear-gradient-42" x1="316.23" y1="567.48" x2="384.21" y2="685.22" xlink:href="#linear-gradient-18"/><linearGradient id="linear-gradient-43" x1="740.35" y1="834.9" x2="804.98" y2="722.95" xlink:href="#linear-gradient-20"/><linearGradient id="linear-gradient-44" x1="471.55" y1="551.73" x2="519.55" y2="551.73" xlink:href="#linear-gradient-18"/><linearGradient id="linear-gradient-45" x1="485.77" y1="536.5" x2="507.5" y2="536.5" xlink:href="#linear-gradient-18"/><linearGradient id="linear-gradient-46" x1="509.87" y1="2440.09" x2="537.92" y2="2428.9" xlink:href="#linear-gradient-21"/><linearGradient id="linear-gradient-47" x1="433.23" y1="788.36" x2="482.3" y2="788.36" gradientUnits="userSpaceOnUse"><stop offset="0" stop-color="#ff7d2b"/><stop offset="1" stop-color="#ff7d2b" stop-opacity="0"/></linearGradient><linearGradient id="linear-gradient-48" x1="764.94" y1="326.88" x2="779.9" y2="326.88" xlink:href="#linear-gradient"/><linearGradient id="linear-gradient-49" x1="271.48" y1="274.46" x2="657.75" y2="274.46" xlink:href="#linear-gradient"/><linearGradient id="linear-gradient-50" x1="393.2" y1="284.31" x2="476.96" y2="200.54" xlink:href="#linear-gradient-6"/><linearGradient id="linear-gradient-51" x1="354.38" y1="337.11" x2="434.42" y2="198.47" xlink:href="#linear-gradient-6"/><linearGradient id="linear-gradient-52" x1="319.18" y1="344.46" x2="397" y2="209.68" xlink:href="#linear-gradient-6"/><linearGradient id="linear-gradient-53" x1="292.97" y1="329.33" x2="351.9" y2="227.27" xlink:href="#linear-gradient-6"/><linearGradient id="linear-gradient-54" x1="452.75" y1="333.79" x2="467.35" y2="333.79" xlink:href="#linear-gradient"/><linearGradient id="linear-gradient-55" x1="345.49" y1="411.52" x2="360.1" y2="411.52" xlink:href="#linear-gradient"/><linearGradient id="linear-gradient-56" x1="394.85" y1="678.12" x2="435.65" y2="607.44" gradientUnits="userSpaceOnUse"><stop offset="0.01" stop-color="#f1f6ff" stop-opacity="0.8"/><stop offset="1" stop-color="#f1f6ff" stop-opacity="0"/></linearGradient><linearGradient id="linear-gradient-57" x1="474.92" y1="678.12" x2="515.72" y2="607.44" xlink:href="#linear-gradient-56"/><linearGradient id="linear-gradient-58" x1="554.98" y1="678.12" x2="595.79" y2="607.44" xlink:href="#linear-gradient-56"/><linearGradient id="linear-gradient-59" x1="310.81" y1="677.94" x2="366.42" y2="677.94" xlink:href="#linear-gradient-7"/><linearGradient id="linear-gradient-60" x1="509.85" y1="342.28" x2="537.31" y2="342.28" xlink:href="#linear-gradient-7"/><linearGradient id="linear-gradient-61" x1="337.98" y1="281.02" x2="346.53" y2="281.02" xlink:href="#linear-gradient"/><linearGradient id="linear-gradient-62" x1="361.57" y1="270.88" x2="370.12" y2="270.88" xlink:href="#linear-gradient"/></defs><title>illustrations sketch</title><g id="Layer_6" data-name="Layer 6"><path class="cls-2" d="M267.69,281.15C160.25,500.51,259.2,727.86,374,822.37c26.62,21.92,98.55,59.44,179.56,71.28l2.75-34.18,2.09.29c24.2,3.27,65.47,1.29,75.26.76l-12-94.95,4-.5,12.54,99.18-2.13.14c-.49,0-47.9,3-76.08-.4l-2.44,30.22c131,17.72,284.09-33,307.48-325.13C888.59,274.46,375,62.09,267.69,281.15Z"/><path class="cls-3" d="M631.73,240.17V735.72H713V289.51A532.15,532.15,0,0,0,631.73,240.17Z"/><rect class="cls-3" x="303.03" y="246.48" width="81.26" height="489.24"/><rect class="cls-3" x="467.74" y="223" width="81.26" height="512.72"/><polyline class="cls-4" points="213.94 406.91 320.05 406.91 320.05 384.44 504.55 384.44"/><polyline class="cls-5" points="352.79 404.72 352.79 333.79 453.53 333.79"/><polyline class="cls-6" points="466.57 333.79 591.65 333.79 591.65 562.63 352.79 562.63 352.79 418.32"/><path class="cls-7" d="M818.16,704.66c-1.74,3.5-3.43,7.16-5,10.88C785.5,779.88,763.67,830.7,662.78,843.2a458.62,458.62,0,0,1-79.25,2.86A8.47,8.47,0,0,0,567.45,845c-91.69-7.81-158.47-40.84-179.82-52.67a8.37,8.37,0,0,0,.31-2.25,8.5,8.5,0,1,0-2.85,6.32c21.38,11.87,89,45.46,181.92,53.37a8.47,8.47,0,0,0,16.32,1.1q11.61.58,23.25.59A462.89,462.89,0,0,0,663.37,848C767,835.12,789.3,783.18,817.55,717.43c1.56-3.63,3.21-7.21,4.91-10.64ZM379.47,793.75a3.68,3.68,0,1,1,3.68-3.68A3.68,3.68,0,0,1,379.47,793.75Zm195.85,58a3.68,3.68,0,1,1,3.68-3.68A3.68,3.68,0,0,1,575.32,851.8Z"/><rect class="cls-8" x="194.25" y="429.19" width="441.67" height="359.32"/><rect class="cls-9" x="701.73" y="718.03" width="144.28" height="94.57"/><rect class="cls-10" x="625" y="705.39" width="139.17" height="91.28" transform="translate(181.36 -133.9) rotate(12.65)"/><rect class="cls-11" x="310.81" y="429.19" width="325.1" height="231.76"/><path class="cls-12" d="M310.81,568.59s17.16-81,42.72-81c26.09,0,27.24,46.36,51.87,46.36,28.2,0,29.74-128.58,66.32-128.58,38.52,0,40.4,154.14,56.74,163.2S498.9,661,498.9,661H310.81Z"/><line class="cls-13" x1="369.44" y1="429.19" x2="369.44" y2="691.6"/><line class="cls-14" x1="340.3" y1="429.19" x2="340.3" y2="691.6"/><line class="cls-15" x1="427.49" y1="429.19" x2="427.49" y2="691.6"/><line class="cls-16" x1="398.35" y1="429.19" x2="398.35" y2="691.6"/><line class="cls-17" x1="485.82" y1="429.19" x2="485.82" y2="691.6"/><line class="cls-18" x1="456.69" y1="429.19" x2="456.69" y2="691.6"/><polygon class="cls-19" points="312.01 788.51 309.62 788.51 309.62 714.92 472.98 714.92 472.98 717.32 312.01 717.32 312.01 788.51"/><polygon class="cls-8" points="496.64 629.86 496.64 289.71 904.64 289.71 904.64 629.86 887.75 629.86 496.64 629.86"/><path class="cls-10" d="M711.74,455.67l-39.07-101a108.46,108.46,0,0,0-69.19,101c0,59.38,48.87,108.25,108.26,108.25S820,515.05,820,455.67Z"/><g class="cls-20"><path class="cls-1" d="M718.3,447.74H816c-4.13-56.25-51.56-100.33-108-100.33a108.53,108.53,0,0,0-26,3.17Z"/><g class="cls-21"><polygon class="cls-22" points="806.51 455.67 815.95 446.22 815.95 455.67 806.51 455.67"/><polygon class="cls-23" points="704.6 455.67 681.98 433.05 681.98 350.58 685.15 347.41 771.13 347.41 815.95 392.23 815.95 446.22 806.51 455.67 704.6 455.67"/><polygon class="cls-24" points="685.15 347.41 681.98 350.58 681.98 347.41 685.15 347.41"/></g></g><path class="cls-25" d="M481.22,531.76s11.71,10.49,43,10.13,55.6,20.32,60.29,4.63c0,0-3.92-7.09,1.71-39S594,450,588.32,431.1c-2.42-8.06-4.69-31.37-18.29-31.86s-73.39,22.67-76,32.89S481.22,531.76,481.22,531.76Z"/><path class="cls-26" d="M503.2,488.55c-5.81-18.81-.11-49.88,4.18-61.3a159.12,159.12,0,0,1,31.71.33c.63.08.69-3.19,1.3-3.11s2,3.55,2.64,3.65A115.43,115.43,0,0,1,556.52,431c.58.16,1.31-11.45,1.88-11.28s3.17,12.51,3.81,12.71c11.12,3.55,18.33,7.95,21.73,10.88-.21.95-.85,5.4-3.46,21.31-3.26,19.89-7.59,39.17-28.71,54.14C539.79,527.29,509,507.35,503.2,488.55Z"/><path class="cls-27" d="M452.57,735.36s-31.27-24.23-31.11-29.86,7.5-18.13,7.35-30.17-5.63-89.73-2.5-102.23S448,543,457.81,542.3s12.89,0,12.89,0,12.82-15.94,21.26-15.79,20,10,39.39,9.7,29.39-7.51,39.71-3.76S582,546.52,582,546.52s31.58.94,40,5.63-18.37,100.71-25.12,122.6c-6,19.44-4.64,28.35-3.85,32.6,1.45,7.86,7,19.29-15.14,32.09s-45.93,19-71.57,9.36S452.57,735.36,452.57,735.36Z"/><path class="cls-28" d="M587.63,732.86c-.63,1.25-5.63,16.88-5.63,16.88s16.71,12.58,19.7,19.07c7.37,16,15.36,77.75,15.36,77.75s-63.07,1.56-96.56-7.19c-9.05-2.37-27.07-5.51-43.25-10.19-23.22-6.73-44.38-15-44.38-15s7.51-49.74,7.51-53.49,9.69-9.69,9.69-9.69l1.87-16.57s35.88-.47,41.27-1.56c0,0,21.81,14.38,49.95,14.85S587.63,732.86,587.63,732.86Z"/><path class="cls-29" d="M451.94,734.42s-17.42-14-25.16-21.5-5.59-8.87,1.08-25.69c5.31-13.4-1.72-42.39-1.72-42.39s12.53,13.63,10.64,28,26.57,60.83,26.57,60.83Z"/><path class="cls-30" d="M609.07,628.77s-10.18,39.86-14.57,55.34-.61,26.73,0,31.1-.79,13.76-16,17.51"/><path class="cls-31" d="M508.72,749.31c30.95-.93,59-2.21,73.27.92"/><path class="cls-31" d="M452.56,750.23c1.43,0,17-.82,37-1.53,3.16-.11-.19,0,3.16-.11"/><path class="cls-31" d="M587.63,732.86,582,749.74c.64,1.44,10.75,7.47,17,15.08,3.3,4,11,29.76,18,81.74"/><path class="cls-32" d="M620.76,556.39c-1.88,3.13-5.63,30.65-5.63,30.65"/><path class="cls-32" d="M607.63,658.94s35,8.56,50.64,9.28"/><line class="cls-32" x1="654.05" y1="686.61" x2="661.71" y2="690.2"/><path class="cls-32" d="M684.22,684.73c-2-.31-4.06-2.81-7.5-3.13s-14.07,11.89-15,12"/><path class="cls-32" d="M674.38,691.92c.78-.62,7.19-4.3,7.19-4.3"/><path class="cls-32" d="M687.82,684.42a5.89,5.89,0,0,1,4.38,3.2c1.56,2.9,9.53,14.93,9.53,14.93"/><path class="cls-32" d="M700.4,684.42c.94.39,10.79-7.43,15.24,0s6.8,22.2,6.8,22.2"/><rect class="cls-33" x="732.07" y="568.33" width="144.28" height="94.57"/><path class="cls-34" d="M732.07,579c2.19-.24,51.9,0,51.9,0l7,6.56h85.35V662.9H732.07V579Z"/><circle class="cls-31" cx="456.69" cy="866.09" r="16.68"/><circle class="cls-35" cx="900.75" cy="634.94" r="6.08"/><circle class="cls-35" cx="823.84" cy="698.6" r="6.08"/><circle class="cls-35" cx="575.92" cy="846.56" r="6.08"/><circle class="cls-35" cx="380.08" cy="788.51" r="6.08"/><rect class="cls-10" x="213.94" y="562.62" width="67.72" height="79.91"/><rect class="cls-10" x="214.61" y="671.84" width="51" height="24.38"/><rect class="cls-10" x="213.94" y="719.11" width="36.58" height="17.49"/><circle class="cls-36" cx="233.04" cy="459.79" r="16.61"/><circle class="cls-37" cx="281.66" cy="356.7" r="16.61"/><path class="cls-26" d="M502.69,542.74c.55-5,9.71-27.45,8.95-39.5l44.23,9.38c-1.27,8.11-5,30.75-5.58,36-.13,1.17,4.82-.15.76,2.74-9.86,7-25.14,8.47-31.5,8.17-10-.48-20.84-5.68-28.27-14.14C491.28,545.35,502.43,545,502.69,542.74Z"/><path class="cls-38" d="M526.7,439.64c-.82-.15,2.87-9.77,4.21-13.16-3.71-1.14-22.44-.66-24.82,4.62-3,6.59-7.22,27.19-5.41,47.84s23.54,35.95,33.32,39.31S526.84,510,525.2,507c-4-7.18-11.07-41.26.27-44.85,7.24-3.2,7.2-2.21,10.18-2.82,6.7-1.37,6-6.43,6.09-7.5.19-3.06-3.33-9-8.44-10.65A26.14,26.14,0,0,0,526.7,439.64Z"/><path class="cls-39" d="M527.88,487.08c15.36,7.21,13.94,7.86,28,8.74"/><ellipse class="cls-25" cx="533.81" cy="454.4" rx="5.34" ry="3.9" transform="translate(-2.84 905.43) rotate(-80.45)"/><ellipse class="cls-25" cx="568.39" cy="462.96" rx="4.68" ry="3.56" transform="translate(-9.1 914.51) rotate(-77.19)"/><path class="cls-25" d="M560.83,452.39c3.85-1,14.54,3,22,11.63a3,3,0,0,0,1.56-.06c1.16-.26-10.64-15.79-15.22-16.91a8.54,8.54,0,0,0-7.86,2.41c.5-1.43,1.3-4.15.51-3.55C560.86,446.66,556,453.63,560.83,452.39Z"/><path class="cls-39" d="M532.79,494.05c1,.47,6.55,5.23,9.94,6,2.72.59,6.38-.76,7.87-1.52"/><path class="cls-40" d="M541.12,488.13c-1.45,1-6.36,1.13-8.64,1.09,3.86,1.58,7.47,3.92,10.84,4.92,4.06,1.2,7.65.93,9.4,1.26-1-1.7-3.14-5.24-3.51-5.84s-1.68.61-3.16-.2S542.94,486.92,541.12,488.13Z"/><path class="cls-41" d="M548.8,479.31c-3.32-1.27-10,.33-11.08.37,3.59,1.07,11,3,14.22,3.87A4.5,4.5,0,0,0,548.8,479.31Z"/><path class="cls-42" d="M540.35,456.24c-.34-1.18,0-4.47-4.59-6.56-5.69-2.62-11.51,1.87-12.64,2s-4.31-1.56-5.87-2.08"/><path class="cls-42" d="M558.55,459.76c1.27.19,8-2.27,11.87-1.17,3.08.87,2.25,4.53,4.15,6,.5.39.5.54,1,.59"/><path class="cls-25" d="M539,446c-2.85-2.77-14.12-4.59-24.89-.83a3,3,0,0,1-1.33-.82c-.88-.8,17.06-8.45,21.6-7.15a8.55,8.55,0,0,1,5.63,6c.28-1.49.93-4.24,1.32-3.33C541.84,441,542.6,449.41,539,446Z"/><rect class="cls-43" x="849.91" y="367.94" width="20.51" height="20.51"/><rect class="cls-44" x="849.91" y="396.73" width="20.51" height="20.51"/><rect class="cls-45" x="849.91" y="454.3" width="20.51" height="20.51"/><rect class="cls-46" x="849.91" y="483.09" width="20.51" height="20.51"/><rect class="cls-47" x="849.91" y="511.87" width="20.51" height="20.51"/><polyline class="cls-48" points="846.07 367.94 859.21 381.08 881.48 358.81"/><rect class="cls-49" x="849.91" y="425.51" width="20.51" height="20.51"/><polyline class="cls-48" points="846.07 425.58 859.21 438.71 881.48 416.45"/><path class="cls-27" d="M608.34,550.93s13.6-1.36,19.93,4.74,46.66,48.54,71.75,70.81,50.89,34.7,51.82,39.86-13.05,40-18.68,46.58l-86.57-19.43s3.49-18.47,4.9-19.88,7.5-2.11,7.5-2.11-26.26-.47-68.47-14.77S608.34,550.93,608.34,550.93Z"/><path class="cls-27" d="M458,545.12s-4.46-9.38-19.46-8.91-48.07,19.46-48.07,19.46-14.77-4.79-16.65-4.74S350.41,558,350.41,558s-9.38-8.54-13.36-7.08-28.84,47.18-31.19,58-1.64,20.63,26.73,28.37,44.08,30.71,68.47,32.12,34.23-17.82,34.23-17.82Z"/><path class="cls-30" d="M441.86,662.36s-4.22,3.51-1.88,14.07,24.62,56.43,24.62,56.43"/><path class="cls-30" d="M545.74,721c.46-1.88,2.34-27.67,11.25-28.61s0,22.51-2.58,28.61-11.72,22.74-11.72,22.74"/><path class="cls-30" d="M551.77,571.22c3.66,1.25,31.17,18.82,32.73,31.61"/><path class="cls-30" d="M620.46,554c-.32,1.56-6.88,59.09-15,71.59"/><path class="cls-30" d="M626.08,608.43c0,1.87-19.56,47.39-25.81,51.45,0,0,33,10,58.72,11.62a29.05,29.05,0,0,0-6.24,1.38c-2.14.91-1.66,1.43-1.66,1.43"/><path class="cls-30" d="M654.22,615.62s-10.94,1.25-8.13,18a337.12,337.12,0,0,0,8.13,34.55"/><path class="cls-30" d="M657,670.45c.7-.71,25.32-20.64,31-22.75s10.9,1.88,6.09,7.15-20.4,14.07-33.29,15.6"/><path class="cls-30" d="M386.64,622.18c2.15,2.19,15.53,31,28.72,38.77"/><path class="cls-42" d="M-11.37,282.41s8.6-3.43,11.54-2a10,10,0,0,1,3.91,3"/><path class="cls-25" d="M-1.4,280.39s-1-.59-2.67,1.11-4.43,6.35-2,7.89,6.85-5.16,6.1-7.05S-1.4,280.39-1.4,280.39Z"/><path class="cls-30" d="M372.1,577.54s-1.14,8.89-2.31,16.17A79.92,79.92,0,0,0,368.58,604"/><path class="cls-30" d="M359.58,582.86s-2.87,10.23-4.71,20.35a76.93,76.93,0,0,0-1.2,11"/><path class="cls-30" d="M347,585.88s-3.94,13.3-6.73,20.75c-4.3,11.48-2.72,15.55-2.72,15.55"/><path class="cls-31" d="M494.21,733.48s-2.85-1-3.08,0,1.54,19.45,1.54,19.45,13.11-3,15.34-3.64-3.73,54.32.71,67.81c1.57,4.77,11.71,7.62,17.12,10.55"/><ellipse class="cls-31" cx="499.1" cy="742.9" rx="3.46" ry="5.69"/><path class="cls-25" d="M562.92,407.28A85.87,85.87,0,0,0,536.59,418c-26.35,16.65-19.79,30.37-30.33,49.32-4.77,8.58,3.08,32.34,3.08,32.34s-16.76,26-23.41,28.78-4.71,4-4.71,4,.77-10.44.8-13.06a213.39,213.39,0,0,0-1.58-25.29c-5.61-45.77,6.66-82.11,33.5-97.82,11.3-6.61,30-5.36,47.25,7.12Z"/><path class="cls-25" d="M510.24,432.7s33.09-1.55,48.43,3.86c0,0,2-8.22,3-6.77s1.56,7.83,1.56,7.83,15.81,1.63,23,12.77,5.44.52,5.44.52,2.86-73.24-52.48-50.66c0,0,6.39-4.49-8.77,2.56S510.24,432.7,510.24,432.7Z"/><path class="cls-30" d="M552.72,400.15s-6.46-9.17-27.52-7.87-35.89,30.19-41.53,43.57c-3.75,8.9-6,41.63-3.23,58.2a153,153,0,0,1,.78,37.71"/><path class="cls-30" d="M558.67,436.56c-10.49-5.4-37-4.07-37-4.07"/><path class="cls-30" d="M554.82,405.39s5.74,11.2,8.25,31.63c0,0,17.61,4.46,23.14,13.37"/><path class="cls-30" d="M551.08,397.33s19.21-2.57,27.95,8.84,13.46,27.8,12.62,55.57c-.91,29.81-12.33,66.31-7.15,84.78"/><path class="cls-30" d="M580.48,421.2s7.61,17.13,6.83,27.08"/><path class="cls-50" d="M198.37,481.22l-23.45,14.49a68.42,68.42,0,0,0,31.57,27.05l10.72-25.38A41,41,0,0,1,198.37,481.22Z"/><path class="cls-51" d="M273.79,462.47A40.77,40.77,0,0,1,221.66,499l-7.72,26.46a68.35,68.35,0,0,0,87.36-61.13Z"/><path class="cls-10" d="M192.28,459.79a40.8,40.8,0,0,1,81.55-2.05l27.53-1.38a68.66,68.66,0,0,0-68.28-64.94c-37.5,0-68.36,30.86-68.36,68.37a68.42,68.42,0,0,0,6.37,28.81l25-11.62A40.51,40.51,0,0,1,192.28,459.79Z"/><path class="cls-52" d="M296.43,419.06A75.42,75.42,0,0,0,233,384.44c-41.33,0-75.35,34-75.35,75.35A75.43,75.43,0,0,0,191,522.32"/><line class="cls-53" x1="213.94" y1="750.23" x2="262.51" y2="750.23"/><line class="cls-4" x1="220.77" y1="594.45" x2="274.83" y2="594.45"/><line class="cls-4" x1="220.77" y1="601.93" x2="251.41" y2="601.93"/><line class="cls-4" x1="220.77" y1="608.64" x2="263.84" y2="608.64"/><line class="cls-54" x1="545.56" y1="330.83" x2="594.06" y2="330.83"/><line class="cls-54" x1="545.56" y1="342.9" x2="632.6" y2="342.9"/><line class="cls-54" x1="545.56" y1="353.74" x2="608.48" y2="353.74"/><line class="cls-4" x1="749.98" y1="635.8" x2="779.9" y2="635.8"/><line class="cls-4" x1="749.98" y1="641.67" x2="803.69" y2="641.67"/><line class="cls-4" x1="749.98" y1="646.94" x2="788.8" y2="646.94"/><line class="cls-4" x1="669.07" y1="476.48" x2="686.66" y2="476.48"/><line class="cls-4" x1="669.07" y1="483.14" x2="700.64" y2="483.14"/><line class="cls-4" x1="669.07" y1="496.46" x2="691.89" y2="496.46"/><line class="cls-4" x1="669.07" y1="489.8" x2="677.86" y2="489.8"/><line class="cls-4" x1="669.07" y1="503.11" x2="691.89" y2="503.11"/><line class="cls-4" x1="669.07" y1="509.77" x2="691.89" y2="509.77"/><line class="cls-4" x1="633.17" y1="730.83" x2="706.36" y2="747.21"/><line class="cls-4" x1="630.9" y1="740.96" x2="672.4" y2="750.24"/><line class="cls-4" x1="628.87" y1="750.05" x2="687.18" y2="763.1"/><line class="cls-4" x1="626.89" y1="760.18" x2="668.39" y2="769.46"/><line class="cls-4" x1="624.86" y1="769.26" x2="656" y2="776.23"/><line class="cls-55" x1="213.94" y1="760.23" x2="276.07" y2="760.23"/><line class="cls-56" x1="213.94" y1="770.24" x2="259.34" y2="770.24"/><line class="cls-57" x1="339.95" y1="750.23" x2="376.47" y2="750.23"/><line class="cls-58" x1="339.95" y1="760.23" x2="381.53" y2="760.23"/><line class="cls-59" x1="339.95" y1="770.24" x2="354.7" y2="770.24"/><path class="cls-26" d="M267.69,569.26a6.15,6.15,0,1,1-6.14,6.15,6.15,6.15,0,0,1,6.14-6.15m0-1a7.15,7.15,0,1,0,7.14,7.15,7.14,7.14,0,0,0-7.14-7.15Z"/><path class="cls-26" d="M649.93,706.77a6.15,6.15,0,1,1-6.15,6.15,6.16,6.16,0,0,1,6.15-6.15m0-1a7.15,7.15,0,1,0,7.14,7.15,7.15,7.15,0,0,0-7.14-7.15Z"/><polyline class="cls-42" points="232.23 677.37 232.23 629.6 243.15 629.6 232.23 618.68 221.32 629.6"/><polyline class="cls-60" points="233.04 559.53 233.04 459.79 257.62 459.79"/><polygon class="cls-26" points="234.24 559.53 231.84 559.53 231.84 458.59 257.62 458.59 257.62 460.99 234.24 460.99 234.24 559.53"/><path class="cls-10" d="M231.84,476.33c.4,0,.8.07,1.2.07s.8,0,1.2-.07V461h15.35c0-.39.06-.79.06-1.19s0-.8-.06-1.2H231.84Z"/><path class="cls-4" d="M253.83,633.68s9.37,3.92,14.06-5-1.85-10.57-5.12-5.12,1.2,13.73,3.48,12.2,3.8-4.14,4.35-1.2,5-3.59,5-3.59"/><line class="cls-4" x1="219.49" y1="678.91" x2="229.73" y2="689.15"/><line class="cls-4" x1="229.73" y1="678.91" x2="219.49" y2="689.15"/><line class="cls-4" x1="250.48" y1="678.91" x2="260.73" y2="689.15"/><line class="cls-4" x1="260.73" y1="678.91" x2="250.48" y2="689.15"/><line class="cls-54" x1="871.23" y1="298.77" x2="881.47" y2="309.01"/><line class="cls-54" x1="881.47" y1="298.77" x2="871.23" y2="309.01"/><line class="cls-4" x1="234.99" y1="678.91" x2="245.23" y2="689.15"/><line class="cls-4" x1="245.23" y1="678.91" x2="234.99" y2="689.15"/><path class="cls-61" d="M485.77,403.84c-8.82-13.38-29.51-15.31-46.22-4.3-16.53,10.89-23,30.36-14.55,43.74l-13.65,14.59L415,466l16.12-16.14c10.31,7.54,26.67,7.22,40.37-1.8C488.19,437,494.58,417.23,485.77,403.84ZM468.2,443c-13.28,8.74-29.72,7.21-36.72-3.42s-1.93-26.35,11.35-35.1,29.72-7.21,36.72,3.43S481.48,434.28,468.2,443Z"/><path class="cls-30" d="M485.77,403.84c-8.82-13.38-29.51-15.31-46.22-4.3-16.53,10.89-23,30.36-14.55,43.74l-14.1,13.59L415,466l16.12-16.14c10.31,7.54,26.67,7.22,40.37-1.8C488.19,437,494.58,417.23,485.77,403.84ZM468.2,443c-13.28,8.74-29.72,7.21-36.72-3.42s-1.93-26.35,11.35-35.1,29.72-7.21,36.72,3.43S481.48,434.28,468.2,443Z"/><path class="cls-62" d="M483.5,400.46c-8.82-13.38-29.51-15.31-46.21-4.31S414.18,426.93,423,440.31s29.5,15.32,46.21,4.31S492.32,413.84,483.5,400.46Zm-17.57,39.18c-13.27,8.75-29.72,7.22-36.72-3.42s-1.92-26.34,11.35-35.09,29.72-7.21,36.73,3.42S479.21,430.9,465.93,439.64Z"/><path class="cls-30" d="M483.5,400.46c-8.82-13.38-29.51-15.31-46.21-4.31S414.18,426.93,423,440.31s29.5,15.32,46.21,4.31S492.32,413.84,483.5,400.46Zm-17.57,39.18c-13.27,8.75-29.72,7.22-36.72-3.42s-1.92-26.34,11.35-35.09,29.72-7.21,36.73,3.42S479.21,430.9,465.93,439.64Z"/><path class="cls-63" d="M429.74,452.22s5.93,1.78,4.37,5.3-11.95,11.86-13.43,14.59-7.93,17-8.79,20a11.21,11.21,0,0,1-6.49,7.51c-3.52,1.4-7.15,4.1-7.27,5.51S374.68,568,372.92,571.85s1,5.61-7.49,8.83-25.37,10-30.7,1.9c-2.3-3.49-3.49-11.72-2.06-14,.37-.59,12-17.06,18.61-27.38s23.07-31.6,22.26-32.93c-1.18-1.94-.16-5.16,0-6.57s-1.4-15.39-1.08-17.4c1.08-6.81,6.37-13.95,7.46-14.1s.51-5.71,2.15-6.34a13.55,13.55,0,0,0,7.42-6.91,8.44,8.44,0,0,1,4.77-4.36c1.95-.62,4.15-3.67,4.78-3.67,2.81,0,6,2.52,6,2.52s6.7-5.3,13.24-6.1c4.6-.56,4.83,2.1,4.83,3s-2.19,8.73-1.65,12.09Z"/><path class="cls-39" d="M371,578.11l28.78-74.55s10.71-6.1,13.21-10.95,6.09-18,9.53-21.73,11.57-12.34,11.57-15.31-4.38-3.6-5.16-3.29"/><path class="cls-39" d="M415.51,473.07a35.19,35.19,0,0,1,3.53-6.48c1.25-1.57-3.94-5.79-7.69-7.82s-4.28-5.71-6.94-7.89-5.94-2.35-6.41-1.57a9.38,9.38,0,0,1-4.53,2.9c-1.57.24-5.47,7.11-5.94,8.2s-2.82,2-4.85,3.28-2.34,5.79-2.34,5.79a23,23,0,0,1-4,5.08c-2.5,2.34-4.14,8.52-4.22,13.6a82.82,82.82,0,0,0,1.41,13"/><path class="cls-39" d="M405.4,451c.88-.08,11.18-7.26,15.28-5.73s1.68,7.48,1.68,7.48-.74,11-3.32,13.16"/><path class="cls-39" d="M390.86,469s9.73,11.72,10.67,13.48-4.92,11-6.57,12.31-3.86-.23-5.39-1.52-4-4-4-4"/><path class="cls-39" d="M399.3,459.65s10.32,15.59,11,16.76.94,2.23-2.46,6.1-7.74,10.38-8.56,10.67a4.46,4.46,0,0,1-2.05,0"/><path class="cls-39" d="M414,451.79s-2.76,4.82-1.91,7.54"/><path class="cls-64" d="M391.69,485.71l-5,5.49a4.09,4.09,0,0,1-5.82.07l-.47-.47a4.08,4.08,0,0,1,0-5.79l5.42-5.7Z"/><path class="cls-65" d="M456.19,542.55s2.93,29-8.32,56.27c0,0,14.71-23.43,16.73-21.52s16.83-4.65,15.84-7.15-8.55-20.34-9.18-27.75C471.26,542.4,456.44,542.15,456.19,542.55Z"/><path class="cls-66" d="M418.7,542.32s-8.35,13.85-4.83,17.21,11.61,16,8.62,27.49-3.66,41.8-4.42,53-3.26-4.07-4.72-20.63-2.85-27.67-5.41-34.32-14.86-30.24-14.86-30.24S416.38,542.87,418.7,542.32Z"/><path class="cls-39" d="M373.54,501.68s-1.41,5.86,0,6.57l-41.49,61.39"/><path class="cls-30" d="M418.7,661s-5.52-37.2-6.81-58.12-18.28-46.92-18.28-46.92"/><polyline class="cls-30" points="381.18 552.77 392.88 555.73 405.19 572.49"/><path class="cls-30" d="M428.17,661s2.25,19-2.07,30.65-6.79,13.92-.88,19.82,26.72,23,26.72,23,42.62-3,43.14-1.56,17.82,12.68,42.36,14.87,48.38-8.65,55.61-22.07"/><path class="cls-30" d="M582,546.52s36.7-.13,47,9.87"/><path class="cls-30" d="M629,556.39s77.55,81.35,107.88,97.72c13.65,7.37,15.41,11.78,14.91,14a161.57,161.57,0,0,1-5.54,17.06s-7.16,20-13.1,27.78"/><path class="cls-4" d="M711.74,456.22,678.36,370a92.65,92.65,0,0,0-59.11,86.26c0,50.74,41.75,92.49,92.49,92.49s92.49-41.75,92.49-92.49Z"/><path class="cls-67" d="M333.52,637.53c-1.08-.27-21-2.69-26.94-14.79-4.12-8.38,3.44-24.85,8-34.3,0,0,17.14-31.93,17-29.69-.21,3.68-.77,8,.4,13.74.7,3.38-18.88,26.06-16.8,35.94.51,2.41,3.31,10.8,7.89,13.07,16.56,8.21,52.35-2.67,52.55,5.42.35,14.68,39.72,40.21,39.72,40.21s-5.17,5.39-26.46-.61S353.84,642.53,333.52,637.53Z"/><path class="cls-30" d="M331.94,573.22c-.48.11-17.36,30.5-17.36,30.5"/><path class="cls-30" d="M436.78,652c-30.63,34.72-65.24,6.77-82.75-5.43s-47.9-11.08-48.75-29.21c-1-21.81,31.77-66.47,31.77-66.47s.45-1.36,2.76,0,3,1.71,3,1.71"/><path class="cls-30" d="M315.62,585.34s-3,15.93.56,27.19,14.07,12.54,23.21,9,35.5-18.6,38.77-28.92a34,34,0,0,0-.05-19.72"/><path class="cls-30" d="M336.19,584.2c-1.19,1.68-12.13,24.72-13.77,36.91"/><path class="cls-30" d="M334.8,554.09a17.13,17.13,0,0,0-3.1,7.88c-.56,6.92.52,21.13,6.2,23.07,12.58,4.29,40.73-9.12,40.26-12.41a7.6,7.6,0,0,0-2.19-4.69"/><path class="cls-30" d="M723,708.94c0-.47-4.06-20.63-6.56-22.82s-23.45,0-23.45,0"/><path class="cls-30" d="M732.07,698.31c-.94-.94-8.91-10.32-12.66-10.63"/><path class="cls-26" d="M691.05,686.77a3.56,3.56,0,0,0-1.9-1.17,20.67,20.67,0,0,0-4.75.38s-5.26-3.16-8.27-3.94-4.88,2.11-4.88,2.11S656,675,651.47,674.75a6.87,6.87,0,0,0-6.51,3.8,42.12,42.12,0,0,0-5.23,3.29c-3.43,2.57-10.89,9.17-11.48,10.64s.75,4.94,2.75,5.32,5.93-.64,6.74-1.33l1-.77c-.55,1.67-1,3-1.1,3.53-.59,2.38.63,4.26,4.33,3.76s7.43-7.71,7.51-8.49,2-5.49,2-5.49l10.27,4.42-2.4,2.91,40.37,9.06C700,701.92,691.05,686.77,691.05,686.77Z"/><path class="cls-39" d="M645,678.55c-.94.16-17.48,12.43-17,14.94s2.07,6.52,10.1,2.73"/><path class="cls-39" d="M700.14,706.2s-7.85-18.28-9.61-19.69-5.16-.35-7.39,0-13,8.55-13.13,9.49,1.41,4.34,1.41,4.34"/><path class="cls-39" d="M689.59,694.36s-6.21,3.29-6.57,4.46,2.05,3.87,2.05,3.87"/><path class="cls-39" d="M683,685.14c-.67-.39-6.88-3.91-8.76-3.2S658.64,697,658.64,697"/><path class="cls-39" d="M670,683.34s-13.39-7.5-15.78-8.2-6.36-.71-8.59,2.22-6.92,18.29-8.21,21.69,2.22,4.22,3.51,4.22,8.09-3.75,8.33-8.91c0,0,2.52-7.86,2.46-5.86,0,.68,6.92,3.4,9,4.46"/><path class="cls-68" d="M701.73,741.05c2.19-.2,51.9,0,51.9,0l7,5.59H846v66H701.73V741.05Z"/><path class="cls-31" d="M432.87,814.17s5-38.38,6.5-44.82.39-10,3.23-12.55,7.92-6.1,7.92-6.1l1.42-16.28"/><rect class="cls-54" x="508.23" y="298.45" width="10.87" height="10.87" rx="5.43"/><rect class="cls-54" x="526.89" y="298.45" width="10.87" height="10.87" rx="5.43"/><rect class="cls-54" x="545.56" y="298.45" width="10.87" height="10.87" rx="5.43"/><line class="cls-54" x1="504.45" y1="317.85" x2="898.7" y2="317.85"/><line class="cls-54" x1="852.11" y1="294.4" x2="852.11" y2="317.85"/><path class="cls-30" d="M379.49,585.88s.38,12.41-3.26,22"/><path class="cls-30" d="M471.26,542.4l-15.07.15a24,24,0,0,0-19.93-6.36c-12.51,1.64-45.09,19.1-45.09,19.1"/><path class="cls-69" d="M487.09,528.57s-4.76,10.87,6.85,19.78,25.61,11.14,25.61,11.14-11.55,9.71-1.29,15.93c0,0-17.51-.83-28.07-6.92s-17.8-19.81-18.29-23.43-1-3,2.62-6.18,5.53-6.55,8-8.19S487.78,527.09,487.09,528.57Z"/><path class="cls-30" d="M505.69,530.81s-9.17-4.64-14.74-4.37-13.77,8.89-15.65,11.47a16,16,0,0,1-4.29,4"/><path class="cls-70" d="M507.5,531.76s-8.76-4.32-13.76-5.13-7.89,1.78-8,7.1,4.93,11.41,7.2,12.58,10.94-3,10.94-3Z"/><path class="cls-71" d="M544.83,519.93c-20.05.88-32.42-16.77-33.15-17.2,0,0-1.9,22.79-8.55,37.17-2.31,5-4.77,4.85-11.43,5.91,1.83,2.31,9,10.86,25.74,13.47-.35-1-7.72-6.36-6.56-10.7,2.34-8.68,9-20.6,10.12-25.56C521.49,520.81,528.8,527,544.83,519.93Z"/><path class="cls-39" d="M506.68,491.55s.9,11.07,15.12,20.57,24,10.91,36.93,1.06,19.39-33.92,21.75-48.52"/><path class="cls-39" d="M511.85,503.24s-5.1,34.08-9.74,39.71c-1.68,2-10.83,2.4-10.83,2.4"/><path class="cls-39" d="M555.42,515.5S554,523.94,552.93,531s-3.09,17.34-2.17,18a4.12,4.12,0,0,0,2.21.7"/><path class="cls-63" d="M385.58,477.41l2.87,4.62s2.69,2.22,2.37,3-3.1,5.3-2.82,5.57,8.61-1.64,8.41-3.13S385.58,477.41,385.58,477.41Z"/><path class="cls-39" d="M382.42,475.71s8.44,8.68,8.44,9.14-2,4.46-2.46,4.46"/><path class="cls-35" d="M820.92,704.16q-2.55,5.13-5,10.76c-28.87,67.2-51.38,116.6-152.27,129.1a460.13,460.13,0,0,1-81.48,2.8"/><path class="cls-35" d="M895.26,635.93s-37.91,4.58-68.42,57.2"/><path class="cls-31" d="M529.13,831.63c1.17,0,21.81-7.5,34.71-23.91"/><path class="cls-31" d="M532,827.65c1.87-1.41,7.64-5.87,10.74-10.55"/><path class="cls-31" d="M522.55,776.23c0,.53,3,49,6.58,59.15"/><path class="cls-72" d="M480.48,751.72s-8.8,9-12.86,11.38,5.74,64.55,5.74,64.55l-40.13-14.07s6-51.57,7.71-54.18,10.14-8.53,9.93-9.42,31.54-1.19,31.42-.57S480.66,751,480.48,751.72Z"/><path class="cls-30" d="M535.56,411.52a100.47,100.47,0,0,0-22.17,36.76c-7.49,22.45-9.71,19.49-8.72,28.77s2,17,2,17"/><line class="cls-4" x1="720.47" y1="784.89" x2="759.29" y2="784.89"/><line class="cls-4" x1="720.47" y1="790.76" x2="750.4" y2="790.76"/><line class="cls-4" x1="720.47" y1="796.03" x2="759.29" y2="796.03"/><rect class="cls-73" x="764.94" y="281.54" width="14.96" height="90.68"/><rect class="cls-10" x="789.26" y="354.7" width="14.96" height="52.75"/><path class="cls-74" d="M657.75,253.69c-145.44-79.58-324-91.54-386.27,20.26,6.63,14.94,44.53,87.12,81.31,82.75C461,343.85,443,187.77,546,251.06,623.16,298.45,648,281.54,657.75,253.69Z"/><path class="cls-75" d="M423.84,315c17.92-22.07,30.3-47.66,46.14-63.58V193.56a332.56,332.56,0,0,0-46.14-1.2Z"/><path class="cls-76" d="M377.7,350.58c19.67-7.66,34.15-20.85,46.14-35.63V192.36a256.16,256.16,0,0,0-46.14,6.19Z"/><path class="cls-77" d="M377.7,198.55a189.87,189.87,0,0,0-46.13,17V351.61c7,3.91,14.11,5.94,21.22,5.09a101.21,101.21,0,0,0,24.91-6.12Z"/><path class="cls-78" d="M285.43,299.92c11.38,18.74,28.11,41.56,46.14,51.69V215.53a147.59,147.59,0,0,0-46.14,37.75Z"/><path class="cls-79" d="M265.65,261.53c6.63,14.94,45.16,100.19,87.14,95.17C461,343.78,443,187.77,546,251.06c77.15,47.39,103.41,30.48,114.2-2.82"/><polyline class="cls-4" points="368.97 397.16 375.44 390.69 380.92 397.16 387.59 390.69 393.66 397.16 399.93 390.69 405.42 397.16 411.49 390.69"/><polyline class="cls-4" points="368.97 407.95 375.44 401.49 380.92 407.95 387.59 401.49 393.66 407.95"/><line class="cls-4" x1="518.58" y1="851.8" x2="512.95" y2="894"/><line class="cls-37" x1="531.95" y1="852.64" x2="529.13" y2="897.35"/><path class="cls-4" d="M592.05,875s88.79,6.2,152-39.61"/><rect class="cls-4" x="586.11" y="871.81" width="5.94" height="5.78"/><rect class="cls-80" x="453.25" y="326.99" width="13.6" height="13.6"/><rect class="cls-81" x="345.99" y="404.72" width="13.6" height="13.6"/><rect class="cls-37" x="274.86" y="349.9" width="13.6" height="13.6"/><rect class="cls-4" x="317.68" y="381.97" width="4.95" height="4.95"/><line class="cls-31" x1="470.05" y1="827.06" x2="463.35" y2="850.8"/><path class="cls-35" d="M569.56,846c-96.34-7.84-165.48-43.44-184.61-54.3"/><rect class="cls-82" x="381.39" y="611.96" width="67.72" height="61.64" rx="7.7"/><rect class="cls-83" x="461.46" y="611.96" width="67.72" height="61.64" rx="7.7"/><rect class="cls-84" x="541.52" y="611.96" width="67.72" height="61.64" rx="7.7"/><rect class="cls-4" x="381.39" y="611.96" width="67.72" height="61.64" rx="7.7"/><circle class="cls-4" cx="395.45" cy="628.18" r="4.1"/><line class="cls-4" x1="391.67" y1="640.93" x2="423.14" y2="640.93"/><line class="cls-4" x1="391.67" y1="648.03" x2="413.44" y2="648.03"/><line class="cls-4" x1="391.67" y1="655.12" x2="415.36" y2="655.12"/><rect class="cls-4" x="461.46" y="611.96" width="67.72" height="61.64" rx="7.7"/><circle class="cls-4" cx="475.52" cy="628.18" r="4.1"/><circle class="cls-4" cx="488.18" cy="628.18" r="4.1"/><line class="cls-4" x1="471.73" y1="640.93" x2="510.14" y2="640.93"/><line class="cls-4" x1="471.73" y1="648.03" x2="511.85" y2="648.03"/><line class="cls-4" x1="471.73" y1="655.12" x2="502.33" y2="655.12"/><rect class="cls-4" x="541.52" y="611.96" width="67.72" height="61.64" rx="7.7"/><circle class="cls-4" cx="555.58" cy="628.18" r="4.1"/><circle class="cls-4" cx="568.24" cy="628.18" r="4.1"/><circle class="cls-4" cx="580.9" cy="628.18" r="4.1"/><line class="cls-4" x1="551.8" y1="640.93" x2="578.47" y2="640.93"/><line class="cls-4" x1="551.8" y1="648.03" x2="591.65" y2="648.03"/><line class="cls-4" x1="551.8" y1="655.12" x2="582.39" y2="655.12"/><rect class="cls-85" x="310.81" y="671.84" width="55.61" height="12.19"/><rect class="cls-86" x="509.85" y="327.7" width="27.45" height="29.17"/><path class="cls-4" d="M711.74,456.22l-3.87-10a10.71,10.71,0,1,0,14.57,10Z"/><path class="cls-30" d="M561.65,427.89s-1.68,6.08-3.12,8.67"/><path class="cls-30" d="M471.42,541.44s-.72,1.49.84,5.4,8.91,25.48,40,28.29S570.9,559.81,577.62,552s5.33-7.64,2.53-11.58-8.78-9.83-11-7.17S557,553.87,532,558.72s-41.91-11.13-44.86-20.17.75-12.71,4.84-12"/><circle class="cls-36" cx="359.6" cy="272.8" r="41.13"/><rect class="cls-87" x="337.98" y="263.58" width="8.55" height="34.87"/><rect class="cls-88" x="349.78" y="269.18" width="8.55" height="29.27"/><rect class="cls-89" x="361.57" y="243.3" width="8.55" height="55.15"/><rect class="cls-88" x="373.37" y="283.82" width="8.55" height="14.64"/><polyline class="cls-90" points="410.96 257.49 424.99 248.07 438.78 257.29 453.95 247.67 467.4 257.2 483.26 247.14 496.76 256.7 511.89 247.1 524.52 256.05"/><polyline class="cls-90" points="410.96 280.16 424.99 270.73 438.78 279.95 453.95 270.33 467.4 279.86 483.26 269.81 496.76 279.37"/></g></svg>