<svg xmlns="http://www.w3.org/2000/svg" xmlns:xlink="http://www.w3.org/1999/xlink" viewBox="0 0 1080 1080"><defs><style>.cls-1{fill:url(#linear-gradient);}.cls-2{fill:url(#linear-gradient-2);}.cls-13,.cls-15,.cls-17,.cls-18,.cls-20,.cls-21,.cls-25,.cls-26,.cls-27,.cls-29,.cls-3,.cls-32,.cls-34,.cls-36,.cls-42,.cls-45,.cls-46,.cls-5,.cls-50,.cls-51,.cls-52,.cls-53,.cls-54,.cls-55,.cls-56,.cls-57,.cls-58,.cls-59,.cls-6,.cls-60,.cls-61,.cls-62,.cls-63,.cls-64,.cls-65,.cls-66,.cls-67,.cls-68,.cls-69,.cls-7,.cls-9{fill:none;}.cls-29,.cls-3,.cls-9{stroke:#fff;}.cls-13,.cls-15,.cls-17,.cls-18,.cls-20,.cls-21,.cls-26,.cls-27,.cls-29,.cls-3,.cls-32,.cls-34,.cls-36,.cls-42,.cls-45,.cls-46,.cls-5,.cls-50,.cls-51,.cls-52,.cls-53,.cls-54,.cls-55,.cls-56,.cls-57,.cls-58,.cls-59,.cls-6,.cls-60,.cls-62,.cls-63,.cls-64,.cls-65,.cls-66,.cls-67,.cls-68,.cls-69,.cls-7{stroke-miterlimit:10;}.cls-4{fill:#ebebeb;}.cls-5{stroke:url(#linear-gradient-3);}.cls-6{stroke:#ff996c;}.cls-24,.cls-25,.cls-27,.cls-39,.cls-6,.cls-61,.cls-62,.cls-63,.cls-64,.cls-65,.cls-66,.cls-67{stroke-width:2px;}.cls-32,.cls-34,.cls-36,.cls-42,.cls-50,.cls-7{stroke-width:4px;}.cls-32,.cls-34,.cls-36,.cls-50,.cls-7{opacity:0.47;}.cls-7{stroke:url(#linear-gradient-4);}.cls-8{fill:url(#linear-gradient-5);}.cls-44,.cls-9{stroke-linecap:round;}.cls-44,.cls-61,.cls-9{stroke-linejoin:round;}.cls-10{fill:url(#linear-gradient-6);}.cls-11{fill:url(#linear-gradient-7);}.cls-12{fill:url(#linear-gradient-8);}.cls-13{stroke:url(#linear-gradient-9);}.cls-14{fill:#6a91d6;}.cls-15{stroke:url(#linear-gradient-10);}.cls-16{fill:url(#linear-gradient-11);}.cls-17,.cls-18,.cls-20,.cls-57,.cls-58,.cls-59,.cls-60{stroke-width:3px;}.cls-17{stroke:url(#linear-gradient-12);}.cls-18{stroke:url(#linear-gradient-13);}.cls-19{fill:url(#linear-gradient-14);}.cls-20{stroke:url(#linear-gradient-15);}.cls-21,.cls-24,.cls-25,.cls-39,.cls-42{stroke:#ed6921;}.cls-22{fill:#f37435;}.cls-23,.cls-24{fill:#f9b471;}.cls-26{stroke:#000;}.cls-27{stroke:url(#linear-gradient-16);}.cls-28{fill:url(#linear-gradient-17);}.cls-29,.cls-45,.cls-46{fill-rule:evenodd;}.cls-30,.cls-37,.cls-39{fill:#fff;}.cls-30,.cls-31,.cls-33,.cls-35{opacity:0.43;}.cls-31{fill:url(#linear-gradient-18);}.cls-32{stroke:url(#linear-gradient-19);}.cls-33{fill:url(#linear-gradient-20);}.cls-34{stroke:url(#linear-gradient-21);}.cls-35{fill:url(#linear-gradient-22);}.cls-36{stroke:url(#linear-gradient-23);}.cls-38{fill:#ed6921;}.cls-40{fill:#ffc995;}.cls-41{fill:#ff996c;}.cls-43{fill:url(#linear-gradient-24);}.cls-44{stroke:#f9b471;stroke-width:0.75px;fill:url(#linear-gradient-25);}.cls-45{stroke:url(#linear-gradient-26);}.cls-46{stroke:url(#linear-gradient-27);}.cls-47{fill:url(#linear-gradient-28);}.cls-48{fill:url(#linear-gradient-29);}.cls-49{fill:url(#linear-gradient-30);}.cls-50{stroke:url(#linear-gradient-31);}.cls-51{stroke:url(#linear-gradient-32);}.cls-52{stroke:url(#linear-gradient-33);}.cls-53{stroke:url(#linear-gradient-34);}.cls-54{stroke:url(#linear-gradient-35);}.cls-55{stroke:url(#linear-gradient-36);}.cls-56{stroke:url(#linear-gradient-37);}.cls-57{stroke:url(#linear-gradient-38);}.cls-58{stroke:url(#linear-gradient-39);}.cls-59{stroke:url(#linear-gradient-40);}.cls-60{stroke:url(#linear-gradient-41);}.cls-61{stroke:url(#linear-gradient-42);}.cls-62{stroke:url(#linear-gradient-43);}.cls-63{stroke:url(#linear-gradient-44);}.cls-64{stroke:url(#linear-gradient-45);}.cls-65{stroke:url(#linear-gradient-46);}.cls-66{stroke:url(#linear-gradient-47);}.cls-67{stroke:url(#linear-gradient-48);}.cls-68{stroke:url(#linear-gradient-49);}.cls-69{stroke:url(#linear-gradient-50);}.cls-70{fill:url(#linear-gradient-51);}.cls-71{fill:url(#linear-gradient-52);}.cls-72,.cls-73{opacity:0.2;}.cls-72{fill:url(#linear-gradient-53);}.cls-73{fill:url(#linear-gradient-54);}.cls-74{opacity:0.1;fill:url(#linear-gradient-55);}.cls-75{opacity:0.05;fill:url(#linear-gradient-56);}.cls-76{opacity:0.4;fill:url(#linear-gradient-57);}.cls-77{opacity:0.35;fill:url(#linear-gradient-58);}.cls-78{opacity:0.3;fill:url(#linear-gradient-59);}.cls-79{opacity:0.25;fill:url(#linear-gradient-60);}</style><linearGradient id="linear-gradient" x1="214.61" y1="413.36" x2="530.39" y2="413.36" gradientUnits="userSpaceOnUse"><stop offset="0" stop-color="#3b7ce9"/><stop offset="1" stop-color="#2b84e5"/></linearGradient><linearGradient id="linear-gradient-2" x1="431" y1="735.88" x2="739.38" y2="735.88" gradientUnits="userSpaceOnUse"><stop offset="0.16" stop-color="#197ddf" stop-opacity="0.6"/><stop offset="1" stop-color="#acf" stop-opacity="0"/></linearGradient><linearGradient id="linear-gradient-3" x1="246.52" y1="567.81" x2="808.02" y2="567.81" xlink:href="#linear-gradient"/><linearGradient id="linear-gradient-4" x1="262.49" y1="491.42" x2="465.05" y2="491.42" gradientUnits="userSpaceOnUse"><stop offset="0" stop-color="#fbfef9"/><stop offset="0.52" stop-color="#eceefc"/><stop offset="1" stop-color="#dbdbff"/></linearGradient><linearGradient id="linear-gradient-5" x1="153.38" y1="518.15" x2="449.16" y2="518.15" xlink:href="#linear-gradient"/><linearGradient id="linear-gradient-6" x1="376.6" y1="476.62" x2="664.21" y2="642.67" gradientUnits="userSpaceOnUse"><stop offset="0" stop-color="#94c8ff"/><stop offset="1" stop-color="#fff" stop-opacity="0.6"/></linearGradient><linearGradient id="linear-gradient-7" x1="535.76" y1="646.07" x2="793.88" y2="198.98" xlink:href="#linear-gradient-6"/><linearGradient id="linear-gradient-8" x1="410.99" y1="215.5" x2="613.22" y2="565.77" xlink:href="#linear-gradient-6"/><linearGradient id="linear-gradient-9" x1="582.54" y1="448.39" x2="658.21" y2="448.39" gradientTransform="matrix(0.27, 0.87, -0.96, 0.23, 879.82, -203.73)" gradientUnits="userSpaceOnUse"><stop offset="0.01" stop-color="#f1f6ff"/><stop offset="1" stop-color="#f1f6ff" stop-opacity="0"/></linearGradient><linearGradient id="linear-gradient-10" x1="562.59" y1="447.67" x2="673.44" y2="447.67" gradientTransform="matrix(0.26, 0.92, -0.97, 0.25, 882.58, -237.55)" xlink:href="#linear-gradient-9"/><linearGradient id="linear-gradient-11" x1="616.64" y1="459.2" x2="733.25" y2="661.18" xlink:href="#linear-gradient-4"/><linearGradient id="linear-gradient-12" x1="444.57" y1="430.6" x2="444.57" y2="731.21" gradientTransform="matrix(1, 0, 0, 1, 0, 0)" xlink:href="#linear-gradient-9"/><linearGradient id="linear-gradient-13" x1="500.65" y1="424.59" x2="500.65" y2="731.21" gradientTransform="matrix(1, 0, 0, 1, 0, 0)" xlink:href="#linear-gradient-9"/><linearGradient id="linear-gradient-14" x1="509.96" y1="464.34" x2="509.96" y2="727.47" gradientUnits="userSpaceOnUse"><stop offset="0" stop-color="#197ddf" stop-opacity="0.6"/><stop offset="1" stop-color="#acf" stop-opacity="0"/></linearGradient><linearGradient id="linear-gradient-15" x1="557.76" y1="420.67" x2="557.76" y2="731.21" gradientTransform="matrix(1, 0, 0, 1, 0, 0)" xlink:href="#linear-gradient-9"/><linearGradient id="linear-gradient-16" x1="799.58" y1="360.61" x2="834.86" y2="360.61" gradientTransform="translate(864.27 -531.39) rotate(69.21)" xlink:href="#linear-gradient"/><linearGradient id="linear-gradient-17" x1="514.31" y1="345.35" x2="600.15" y2="345.35" xlink:href="#linear-gradient-14"/><linearGradient id="linear-gradient-18" x1="446.81" y1="262.35" x2="470.87" y2="262.35" gradientUnits="userSpaceOnUse"><stop offset="0" stop-color="#1b44c0"/><stop offset="0.31" stop-color="#1b47c2"/><stop offset="0.55" stop-color="#1b51c8"/><stop offset="0.77" stop-color="#1a62d1"/><stop offset="0.98" stop-color="#1979df"/><stop offset="1" stop-color="#197ce1"/></linearGradient><linearGradient id="linear-gradient-19" x1="444.81" y1="262.35" x2="472.87" y2="262.35" xlink:href="#linear-gradient-4"/><linearGradient id="linear-gradient-20" x1="566.85" y1="677.3" x2="590.91" y2="677.3" xlink:href="#linear-gradient-18"/><linearGradient id="linear-gradient-21" x1="564.85" y1="677.3" x2="592.91" y2="677.3" xlink:href="#linear-gradient-4"/><linearGradient id="linear-gradient-22" x1="388.04" y1="487.4" x2="398.26" y2="487.4" xlink:href="#linear-gradient-18"/><linearGradient id="linear-gradient-23" x1="386.04" y1="487.4" x2="400.26" y2="487.4" xlink:href="#linear-gradient-4"/><linearGradient id="linear-gradient-24" x1="889.12" y1="712.03" x2="572.46" y2="712.03" gradientUnits="userSpaceOnUse"><stop offset="0" stop-color="#f37435"/><stop offset="1" stop-color="#f9b471"/></linearGradient><linearGradient id="linear-gradient-25" x1="589.88" y1="753.37" x2="837.5" y2="753.37" gradientTransform="matrix(-1, 0, 0, 1, 1376.61, 0)" gradientUnits="userSpaceOnUse"><stop offset="0" stop-color="#fff"/><stop offset="1" stop-color="#f4f7ff"/></linearGradient><linearGradient id="linear-gradient-26" x1="1476.97" y1="294.16" x2="1634.27" y2="295" gradientTransform="matrix(0.37, -0.07, -0.04, 0.99, 148.4, 87.57)" gradientUnits="userSpaceOnUse"><stop offset="0" stop-color="#f1f6ff" stop-opacity="0"/><stop offset="0.99" stop-color="#f1f6ff"/></linearGradient><linearGradient id="linear-gradient-27" x1="1474.12" y1="277.55" x2="1578.96" y2="278.11" xlink:href="#linear-gradient-26"/><linearGradient id="linear-gradient-28" x1="648.58" y1="619.12" x2="656.59" y2="619.12" xlink:href="#linear-gradient"/><linearGradient id="linear-gradient-29" x1="671.96" y1="585.89" x2="679.97" y2="585.89" xlink:href="#linear-gradient"/><linearGradient id="linear-gradient-30" x1="695.34" y1="631.58" x2="703.35" y2="631.58" xlink:href="#linear-gradient"/><linearGradient id="linear-gradient-31" x1="331.13" y1="374.4" x2="448.19" y2="374.4" xlink:href="#linear-gradient-4"/><linearGradient id="linear-gradient-32" x1="856.41" y1="720.16" x2="856.41" y2="776.94" gradientTransform="matrix(1, 0, 0, 1, 0, 0)" xlink:href="#linear-gradient-26"/><linearGradient id="linear-gradient-33" x1="819.93" y1="720.16" x2="819.93" y2="776.94" gradientTransform="matrix(1, 0, 0, 1, 0, 0)" xlink:href="#linear-gradient-26"/><linearGradient id="linear-gradient-34" x1="783.46" y1="654.3" x2="783.46" y2="776.94" gradientTransform="matrix(1, 0, 0, 1, 0, 0)" xlink:href="#linear-gradient-26"/><linearGradient id="linear-gradient-35" x1="746.98" y1="645.98" x2="746.98" y2="776.94" gradientTransform="matrix(1, 0, 0, 1, 0, 0)" xlink:href="#linear-gradient-26"/><linearGradient id="linear-gradient-36" x1="710.51" y1="661.36" x2="710.51" y2="776.94" gradientTransform="matrix(1, 0, 0, 1, 0, 0)" xlink:href="#linear-gradient-26"/><linearGradient id="linear-gradient-37" x1="674.03" y1="688.59" x2="674.03" y2="776.94" gradientTransform="matrix(1, 0, 0, 1, 0, 0)" xlink:href="#linear-gradient-26"/><linearGradient id="linear-gradient-38" x1="301.72" y1="396.35" x2="394.81" y2="396.35" xlink:href="#linear-gradient"/><linearGradient id="linear-gradient-39" x1="392.09" y1="344.29" x2="409.83" y2="344.29" xlink:href="#linear-gradient"/><linearGradient id="linear-gradient-40" x1="292.4" y1="453.59" x2="310.15" y2="453.59" xlink:href="#linear-gradient"/><linearGradient id="linear-gradient-41" x1="409.99" y1="745.75" x2="580.46" y2="745.75" gradientTransform="matrix(1, 0, 0, 1, 0, 0)" xlink:href="#linear-gradient-9"/><linearGradient id="linear-gradient-42" x1="460.23" y1="307.49" x2="662.92" y2="307.49" gradientTransform="matrix(1, 0, 0, 1, 0, 0)" xlink:href="#linear-gradient-9"/><linearGradient id="linear-gradient-43" x1="516.96" y1="292.48" x2="614.47" y2="292.48" xlink:href="#linear-gradient"/><linearGradient id="linear-gradient-44" x1="488.56" y1="214.96" x2="523.84" y2="214.96" gradientTransform="matrix(0.35, 0.74, -0.93, 0.28, 525.1, -221.33)" xlink:href="#linear-gradient"/><linearGradient id="linear-gradient-45" x1="438" y1="375.44" x2="459.3" y2="375.44" gradientTransform="matrix(0.29, 0.67, -0.76, 0.25, 613.61, -6.24)" xlink:href="#linear-gradient"/><linearGradient id="linear-gradient-46" x1="698.06" y1="322.07" x2="733.33" y2="322.07" gradientTransform="translate(762.75 -461.35) rotate(69.21)" xlink:href="#linear-gradient"/><linearGradient id="linear-gradient-47" x1="705.98" y1="373.57" x2="725.42" y2="373.57" gradientTransform="translate(810.9 -428.12) rotate(69.21)" xlink:href="#linear-gradient"/><linearGradient id="linear-gradient-48" x1="714.7" y1="349.15" x2="716.7" y2="349.15" xlink:href="#linear-gradient"/><linearGradient id="linear-gradient-49" x1="322.22" y1="321.76" x2="352.16" y2="321.76" gradientTransform="matrix(1, 0, 0, 1, 0, 0)" xlink:href="#linear-gradient-26"/><linearGradient id="linear-gradient-50" x1="322.24" y1="331.03" x2="352.14" y2="331.03" gradientTransform="matrix(1, 0, 0, 1, 0, 0)" xlink:href="#linear-gradient-26"/><linearGradient id="linear-gradient-51" x1="783.46" y1="574.47" x2="868.97" y2="574.47" xlink:href="#linear-gradient"/><linearGradient id="linear-gradient-52" x1="799.19" y1="574.48" x2="853.24" y2="574.48" gradientTransform="matrix(1, 0, 0, 1, 0, 0)" xlink:href="#linear-gradient-9"/><linearGradient id="linear-gradient-53" x1="672.33" y1="517.82" x2="708.74" y2="517.82" gradientTransform="translate(-297.48 1229.94) rotate(-90)" xlink:href="#linear-gradient"/><linearGradient id="linear-gradient-54" x1="698.26" y1="517.82" x2="734.67" y2="517.82" gradientTransform="translate(-297.48 1229.94) rotate(-90)" xlink:href="#linear-gradient"/><linearGradient id="linear-gradient-55" x1="724.2" y1="517.82" x2="760.61" y2="517.82" gradientTransform="translate(-297.48 1229.94) rotate(-90)" xlink:href="#linear-gradient"/><linearGradient id="linear-gradient-56" x1="750.14" y1="517.82" x2="786.55" y2="517.82" gradientTransform="translate(-297.48 1229.94) rotate(-90)" xlink:href="#linear-gradient"/><linearGradient id="linear-gradient-57" x1="568.58" y1="517.82" x2="604.99" y2="517.82" gradientTransform="translate(-297.48 1229.94) rotate(-90)" xlink:href="#linear-gradient"/><linearGradient id="linear-gradient-58" x1="594.52" y1="517.82" x2="630.92" y2="517.82" gradientTransform="translate(-297.48 1229.94) rotate(-90)" xlink:href="#linear-gradient"/><linearGradient id="linear-gradient-59" x1="620.45" y1="517.82" x2="656.86" y2="517.82" gradientTransform="translate(-297.48 1229.94) rotate(-90)" xlink:href="#linear-gradient"/><linearGradient id="linear-gradient-60" x1="646.39" y1="517.82" x2="682.8" y2="517.82" gradientTransform="translate(-297.48 1229.94) rotate(-90)" xlink:href="#linear-gradient"/></defs><title>illustrations sketch</title><g id="Layer_6" data-name="Layer 6"><path class="cls-1" d="M530.39,567.39,367.65,259.33a348.46,348.46,0,0,0-153,160.83Z"/><path class="cls-2" d="M530.39,567.39,431,889.39a337.06,337.06,0,0,0,308.38-57.65Z"/><path class="cls-3" d="M530.39,567.39,372.85,284.21A324.43,324.43,0,0,0,206.33,567.39c0,177.78,146.29,324.06,324.06,324.06a324.09,324.09,0,0,0,202-70.64Z"/><circle class="cls-4" cx="527.27" cy="567.81" r="270.19"/><path class="cls-5" d="M527.27,287.57C372.5,287.57,247,413,247,567.81S372.5,848.06,527.27,848.06,807.52,722.59,807.52,567.81,682.05,287.57,527.27,287.57ZM715.86,756.4A266.71,266.71,0,1,1,338.68,379.22c1.19-1.18,2.42-2.29,3.63-3.45a33.09,33.09,0,0,1-3.65,8.23c-4,5.91-10.58,8.27-14.73,13.82-3.78,5.05-6.82,12.69-8.23,18.37-1.53,6.14-.6,13.6-2.76,19.72-2.74,7.77-7.73,12.4-6.8,21.41,10.83,3.22,6.13-16,15.26-17,2.9,7.19,1,20.56.17,28.39-1.13,10.77-3.23,13.44,3.2,22.69,5.1,7.33,6.79,12.23,16.64,13.39,9,1.06,12.8,5.15,16.56,13.86,7,1.49,11.19,2.64,12.09,10.36,3,1.68,8.71,7.13,11.9,8,4.63,1.21,12.35-5.38,16.71-.3,7.29,8.48-9.22,30.61-12.17,38.25-4.33,11.19-5,27.62,5.63,35.65,5.45,4.12,11.23,6.1,13,13.58,1.64,6.92.37,12.68,3.43,19.21,4.78,10.2,15.73,13.58,23.52,21.38,10.22,10.23,9.52,23.52,9.52,38,0,15.17,5.76,26.7,7.77,40.59,2.07,14.33,6.27,27.61,9.29,41.45,2.26,10.42,11.25,26.17,24.26,24,.91-4.93-4.21-8.8-4.85-13.68-.59-4.45.66-9.07-.22-13.82-1.76-9.42-1.67-14.94,4.57-23.13,2.21-2.88,5.24-5.28,7.52-8.17,4.41-5.62,1-4,.84-10.11-.23-7.68,2.11-3.91,6.74-6.31,2.4-1.24,5.07-5,6.91-6.9,4-4.21,10.27-9.25,13.4-14.24,3.51-5.61,3.08-13.43,6.68-19.23,4.13-6.65,10-6.65,15.77-11,7.49-5.62,4.41-11.53,5.77-19.24,2.28-12.88,8.12-27.09,16.24-37.35,10.22-12.92,14.62-23.89,2.18-36.29-6.15-6.13-9.35-4.5-17.51-6.63-6.21-1.63-11.81-6.17-18.14-7-3.79-.47-6,.9-9.49,0-3.23-.85-2.84-2.82-6.24-2.78-5.08.06-12.17,10.64-16.46,3.87-2.38-3.76,4.86-14.18,4.53-19.23-.4-6.19-2.71-16.3-8.78-19.69-2.3-1.28-7.4-1.47-10.22-2.55a55.07,55.07,0,0,1-9.52-5.23c-3.86-2.48-11.34-6.81-13.06-11.24-4.75-.19-8-2.81-12.8-2.74-4.33.05-7.21,2.06-11.9,1.53-4.11-.46-8.53-3.7-12.95-3.09-3,.41-7.33,4.24-9.89,5.69a70,70,0,0,1-21.4,8c-11.56,2.16-13.63-2.26-12.95-13L376,511.86c4.3-11.94-3.44-12.78-12-15.67-1.18-8.51,9.28-14.58,4.9-23.9-8.84-.46-18.49,24.44-26,13.66-4.94-7.11,2.57-27,6.91-33s20.3-17,27.8-18c5.84-.73,10.95,1.84,13.19,6.95,2.45,5.58-.74,10.84,0,17.17,7.46-1.73,5.53-11.21,5.21-16.3-.55-8.5,3.9-7.86,8.24-14,3.95-5.58,4.56-11.94,9.48-17.34,3.84-4.2,8.34-8.63,12.55-12.5,4.79-4.42,10.21-4,15.13-7.27,7.49-4.95-2.41-14.15,8.62-13.45,3.92.24,2,2.69,7.17,1.51,2.2-.51,6.28-2.55,8.58-3.48,10.53-4.28,3.07-5.42-1.76-11-6.14-7.08,2.55-5.84,8.89-6.91,4.65-.78,3.67-2.3,7.75.43,3.6,2.41,1.49,5.62,6.72,5.44,10-.33,3.06-10.32.84-13.64-3.8-5.68-4.77-9.63-12.8-9.85a12.71,12.71,0,0,0-.26-8.37c-6.76.89-7.92-4-13-6-8.62-3.26-7.24,3.79-10.76,8.6-3.63,5-10.56,4.11-13.23,10.16-2.77,6.3-.13,11.11-10.25,9.39,1.37-3.79.9-8.65.64-12.7a45,45,0,0,1-8.35-2c0-10.13,11.23-11,18.85-11.94,8.53-1.08,11.33-9.76,18.95-11.23,7.12-1.36,12.21,10.16,21,3.48,5-3.81,2.69-6,.86-9.72-.49-1-3-3.19-3.69-4.1A2.29,2.29,0,0,1,476,306c6.8-1.31,13.68-2.33,20.61-3.11,1.3,3.78,4.13,8.36,5.67,11,1.13,1.92,3.27,3.22,4.17,5.33,1,2.4-1.39,5.39,1.64,7,4.7,2.51,18.36-13.82,21.64-16.47,4.16-3.36,6.76-5.21,5.77-8.46a266.92,266.92,0,0,1,64.12,9.75c1.65,2.06,3.34,4.18,5,6.53,3.63,5.05,5.93,9.6,12.5,11.85,3.79,1.3,15.93,1.06,10.88,9.74-4.66,8-9.81-2.49-12.15-5-3.26-3.49-12.88-7.37-12.57.65.44,11.92,27.31,10,21.55,23.1,3.21,1.89,9.57,5.05,8.52,9.74-1.29,5.79-8.83,2.1-8.68,9.5.21,10.49,11.66,19.12,22.29,15.35,11.33-4,2.79-19.76,15.78-21.38,5.12-.63,8.14.86,12.72,4.49,3.73,3,6.14,9.68,11.29,9.15.53-3.19-1.88-5.48-2.29-8.41,4,1,12,6,14.29,9.44,3.46,5.25,3.1,12.81,11.55,6-1.27-1-1.9-3.36-2.59-4.19,10.82,0,18.37,4.49,23,13.88,10.38,21-15.11,4.33-16.37,15.25-6.27-2-9.06-7-14.51-10.07-2.59-1.43-7.36-.66-9.34-2.12-2.73-2-2.06-5.62-4.46-7.59-9.42-7.73-30.91,4.75-39.57,9.73-2.35,1.36-4.85,1.5-6.45,4-2.75,4.35,1.11,5.47.25,9.53-1.23,5.81-8.8,8.48-11.09,13.13-5.5,11.17,5.66,27.16,4.16,39.56-.83,6.88-8.26,14.34-5.41,20.1,1.23,2.48,5.51,4.59,7.14,7.51,1.49,2.66,2.13,6.14,4.08,8.89,6.36,8.93,15.49,18.85,22.93,27.19,4.23,4.74,10,6.06,16.36,4.75,5.27-1.09,13.26-2.85,18.14-5.19,6.52-3.12,7.38-7.52,14.23-4.55,5.45,2.37,10.25,9.32,16.62,3.57,5.25,5.12-.57,14.06-1.75,19.77-1.5,7.33,1.4,13.68,5.9,19.91,5.4,7.47,6.67,8.78,5.57,18.76-.87,7.78-2.84,14.89-4.51,22.6-1.6,7.37-6.3,13-6,20.78.24,7.2,3.35,13,2.4,20.72-.84,6.81-1.25,14.92-3,21.59-1.82,6.83-6.64,12.88-8.67,19.87-1.93,6.65-1.39,15.26,3.26,20.72,4.84,5.7,9.65,2.44,15.33-1.87,11.2-8.5,16.31-22.93,23.74-34.4,7.6-11.71,15.26-22.4,20.33-34.54,1.07-2.58,2.37-5.11,3.69-7.65A265.19,265.19,0,0,1,715.86,756.4Z"/><path class="cls-6" d="M249.65,621.45c16,12.26,57.88,12.75,160.62-33"/><path class="cls-6" d="M244,583.75s-5.94,13.71-2.37,26"/><path class="cls-7" d="M464.63,269.47c-205.39,44.31,212.25,407.7-202,443.87"/><path class="cls-8" d="M209.62,487c7.94-9.63,20.92-23.69,53.9-17.3,26.82,5.2,25.71,28,51.21,42.83s33.4-27.55,84.33-1.37,50.1,57.08,50.1,57.08H153.51s-4-33.68,33.15-27S187,514.38,209.62,487Z"/><path class="cls-9" d="M181.47,568.23s-4.88-15.17,8-23.08c14.59-8.94,28.27,0,28.27,0s-.13-42.62,41-51.24C313.15,482.48,328.16,525,328.16,525s20.52-33.14,52.74-3.89"/><polygon class="cls-10" points="400.96 434.43 615.26 415.62 615.26 727.47 400.96 689.46 400.96 434.43"/><polygon class="cls-11" points="501.74 261.99 786.77 194.88 786.77 654.3 501.74 626.43 501.74 261.99"/><polygon class="cls-12" points="476.27 177.82 531.37 156.47 531.37 613.03 476.27 596.08 476.27 177.82"/><ellipse class="cls-13" cx="612.02" cy="442.25" rx="57.62" ry="32.03" transform="translate(126.82 1020.81) rotate(-85.87)"/><ellipse class="cls-14" cx="611.82" cy="444.49" rx="28.74" ry="16.19" transform="matrix(0.1, -0.99, 0.99, 0.1, 106.2, 1006.85)"/><ellipse class="cls-15" cx="612.02" cy="442.25" rx="84.74" ry="49.76" transform="translate(128.31 1022.05) rotate(-86.01)"/><polygon class="cls-16" points="633.99 449.18 709.76 445.85 709.76 674.74 633.99 663.9 633.99 449.18"/><line class="cls-17" x1="444.57" y1="430.6" x2="444.57" y2="731.21"/><line class="cls-18" x1="500.65" y1="424.59" x2="500.65" y2="731.21"/><path class="cls-19" d="M615.26,727.47S604.94,567.3,594.42,517.29s-35.3-77.86-55.31-22.61-17.43,112.71-40.84,96.24C474.65,574.3,467.35,438.53,438,518.75c-18.34,50.15-33.35,170.48-33.35,170.48Z"/><line class="cls-20" x1="557.76" y1="420.67" x2="557.76" y2="731.21"/><polyline class="cls-21" points="817.22 380.18 817.22 482.29 744.86 483.79 744.86 663.76 572.46 644.73"/><path class="cls-22" d="M483.75,582.36l13.31,2.08,67.35,8.74s-1-29.53-3.2-29.94S481,555.75,481,555.75Z"/><path class="cls-22" d="M519.79,673.42s-20,20.78-29.38,14.69,8-32.39,9.14-35.16c0,0,20.1-26.55,33.47-27.14,0,0-72.69-19.28-66.94-17.67S482.47,570,482.47,570L579,595.92Z"/><path class="cls-23" d="M376.76,727.47c2.77-2.22,75.95-23.26,82.6-38.24a212.77,212.77,0,0,0,10-27.18l5.27-22.73-8.74-36L438,575.71,404.76,541.2s-22.87,11.64-27.44,13.72-10,24.53-19.55,32.85-56.82,69-56.82,69l4,18.29,63.2,52.39Z"/><polygon class="cls-23" points="352.93 786.98 368.17 732.46 294.16 673.42 240.64 752.23 292.81 772.11 352.93 786.98"/><polygon class="cls-23" points="407.39 537.6 477.93 474.89 504.13 510.23 443.36 575.03 407.39 537.6"/><path class="cls-23" d="M505.79,507.52l58-33.95-18.3-31.32s-62.73,28.66-66.06,30.87Z"/><path class="cls-23" d="M566.75,472.4s35.64-12.69,37.85-13.24,17.74-17.19,8.87-25.5-66,7.2-66,7.2Z"/><path class="cls-22" d="M486.46,517.29s77.12,29,80.45,31.26,27.16,62.5,24.67,66.94-53.5,53.21-63.48,54.88S513.69,643.2,517,640.43s47.13-34.92,47.13-34.92L519.79,572.8l-24.33-9.63Z"/><path class="cls-24" d="M339.06,721.65c-5.82,6.65-22.75,57.13-22.75,57.13"/><polygon class="cls-22" points="441.76 576.96 489.99 518.75 497.06 563.24 445.64 612.25 441.76 576.96"/><path class="cls-25" d="M494.56,521.07l73.26,27.48s24.31,61.67,23.76,66.94-57.79,52.8-61.19,55-14.55-4.74-14.48-14.07,9-24.69,14.48-27.8,14.27-8.74,14.27-8.74,3.31-16.58,15.69-17.12"/><line class="cls-26" x1="489.99" y1="594.84" x2="499.55" y2="621.44"/><ellipse class="cls-27" cx="817.22" cy="360.61" rx="20.9" ry="15.92" transform="translate(190.01 996.62) rotate(-69.21)"/><path class="cls-28" d="M514.31,343.77l17.57-37.06,15.77-2.4-17.57,37.06Zm12.91,27,25.69-54.21a86.37,86.37,0,0,1,6.36-11.62,28.62,28.62,0,0,1,9.59-9.29A17.28,17.28,0,0,1,583.14,294c4.65,1.53,8.79,5.37,11.81,10.94,3.85,7.32,5.67,16.78,5.1,26.44a53.68,53.68,0,0,1-2.53,13.76,40.7,40.7,0,0,1-5.71,11.44,23.52,23.52,0,0,1-9.26,7.78,22.29,22.29,0,0,1-5.86,1.9l-7.7,1.17-13.13,27.75-15.72,2.38,21-44.38,1.72-3.63L573.25,348c3.64-.55,7.5-1.13,10.55-4.78h.06a20.2,20.2,0,0,0,3.36-6.67,27.08,27.08,0,0,0,1.1-8.16,24.49,24.49,0,0,0-1.39-7.88,15.51,15.51,0,0,0-3.57-5.86l-.16-.15-.08-.09-.12-.11a8,8,0,0,0-6.25-2.23l-.12,0a10.24,10.24,0,0,0-4.21,1.32,15.49,15.49,0,0,0-5.12,5,69.08,69.08,0,0,0-4.86,9l-19.53,41.16Z"/><polyline class="cls-29" points="481.22 882.11 477.1 876.75 482.47 874.86 478.3 869.17 483.82 867.42 479.46 861.48 485 859.72 480.84 854.05 486.02 852.4"/><rect class="cls-30" x="442.11" y="863.6" width="47.65" height="14.24" transform="translate(-493.01 1106.66) rotate(-75.67)"/><circle class="cls-31" cx="458.84" cy="262.35" r="12.03"/><circle class="cls-32" cx="458.84" cy="262.35" r="12.03"/><circle class="cls-33" cx="578.88" cy="677.3" r="12.03"/><circle class="cls-34" cx="578.88" cy="677.3" r="12.03"/><circle class="cls-35" cx="393.15" cy="487.4" r="5.11"/><circle class="cls-36" cx="393.15" cy="487.4" r="5.11"/><path class="cls-23" d="M428.87,689.23l82.74-71.32s28.69-11.29,39.77-21.24,11.15-29.32,4.25-29.28c-15,.11-59.44,17.34-62.49,17.34s-95.59,55.92-98.36,56.47"/><path class="cls-23" d="M417.78,536.21c-2,1.25-15.31,13.31-15.31,13.31L438,582.36l11.43-22.86Z"/><polygon class="cls-23" points="309.96 669.26 296.66 689.23 362.35 733.01 371.77 720.54 309.96 669.26"/><path class="cls-24" d="M240.1,752c1.76-2.06,53.16-77.24,53.16-77.24"/><polygon class="cls-22" points="347.89 723.37 365.12 734.95 350.98 786.98 319.89 779.78 347.89 723.37"/><path class="cls-37" d="M304.14,686.72,252.6,756.79s-10.52-5.37-10.13-4.81,54.19-74.68,54.19-74.68Z"/><path class="cls-23" d="M474.61,480.91c.41-.83,7.27-7.06,7.27-7.06l24.95,30.76L497.89,514Z"/><path class="cls-23" d="M544.66,443.91c.47-.55,7-1.94,7-1.94l15,27.3-6.83,5.62Z"/><path class="cls-37" d="M308.3,665.52s-2.08-8.11-1.46-8.94,47.82-61.74,47.82-61.74l-2.29-.37-49.75,61.9,3.18,15.38Z"/><path class="cls-22" d="M449.45,660.74l41.71-30.53L508.91,616l49.61-28.5a58.83,58.83,0,0,1-14.11,14.74c-8.72,6.18-27.77,12.49-32.8,16.46S438,681.11,438,681.11Z"/><line class="cls-24" x1="511.61" y1="618.74" x2="506.83" y2="611.73"/><path class="cls-22" d="M360.69,689.23,391,688s-4.16.28,16.42,5.13,31.92-4.54,38.46-13.86l23.49-19s-8.25,25.81-11.71,31.48-11.84,9.62-26.55,15.54S389.05,723,389.05,723s-18.59-9.62-25.83-24.33C352.23,676.25,360.69,689.23,360.69,689.23Z"/><path class="cls-38" d="M368.17,721.65l15-6.66,7.9,5.5-14.21,6.28s-8.66.07-8.66,0-4.57-3.47-4.3-3.4A40.08,40.08,0,0,0,368.17,721.65Z"/><polyline class="cls-25" points="444.46 596.67 441.76 576.96 407.39 541.2 374.82 555.75 355.49 589.99 302.62 656.37"/><polyline class="cls-24" points="444.46 573.7 501.74 514.8 510.93 504.96"/><line class="cls-24" x1="410.27" y1="535.04" x2="478.87" y2="474.89"/><polyline class="cls-25" points="503.44 502.14 510.93 504.96 562.42 476.36 563.1 469.01"/><path class="cls-37" d="M363.6,594.47c1.87-.67,20.78-37.26,20.78-37.26l-8.13-1.46L355.49,592Z"/><polygon class="cls-22" points="495.42 502.54 433.31 564.57 441.76 573.7 499.5 513.4 501.37 507.94 495.42 502.54"/><polygon class="cls-22" points="502.96 498.58 510.36 502.54 559.77 474.89 556.32 467.81 502.96 498.58"/><path class="cls-22" d="M563.1,466l2.77,3.06,38.87-11.83s6-6.1,7.28-8.9Z"/><path class="cls-22" d="M490.83,548.55l-45.19,63.7s13.44-11.32,15.94-8.68l14.69-7.49,20.58-33.4Z"/><line class="cls-24" x1="489.99" y1="528.73" x2="494.56" y2="559.5"/><path class="cls-24" d="M490,563.24c0,1.66-18.71,31.6-18.71,31.6"/><path class="cls-24" d="M326.31,631.43s5.27-7.44,15.25,1.68a90.42,90.42,0,0,0,18.29,13.28"/><path class="cls-24" d="M357.58,589.29s10.52-1.8,12.36,0S391,603.35,391,603.35"/><polygon class="cls-37" points="402.47 639.74 446.89 614.38 493.91 593.18 491.86 586.32 442.87 608.14 397 628.31 402.47 639.74"/><polygon class="cls-37" points="547.5 445.85 486.04 476.34 480.17 473.22 545.81 442.25 547.5 445.85"/><polygon class="cls-37" points="613.47 433.65 551.25 445.85 549.45 442.94 609.6 431.21 613.47 433.65"/><path class="cls-39" d="M260,723.37s6-5.66,8-4.66,36.11,12.5,36.11,12.5"/><path class="cls-25" d="M445.64,612.25s23.15,22.5,23.77,26.24-2.07,21.76-2.07,21.76"/><path class="cls-25" d="M385.63,703.56c.62,0,40.52-12,43.24-14.33l82.74-71.32s28.69-11.29,39.77-21.24,11.15-29.32,4.25-29.28c-15,.11-59.44,17.34-62.49,17.34s-93.37,43-96.14,43.58"/><path class="cls-37" d="M481,480.08c-.55.63-60,52.39-60,52.39l-6.23,1.07,65.43-57.2Z"/><path class="cls-25" d="M549.44,442s35.28-8.72,44-10.25,17.62-1.91,20,1.94,1.83,8.52,1.44,12.19-6.89,11.51-9.16,12.58-44.46,17.91-44.46,17.91"/><path class="cls-25" d="M480.75,472.4,546,442s2.63.14,5.27,3.88,10.94,24.39,10.94,24.39"/><line class="cls-25" x1="497.06" y1="561.13" x2="536.92" y2="570.96"/><line class="cls-25" x1="486.46" y1="580.4" x2="495.46" y2="582.36"/><line class="cls-25" x1="555.3" y1="595.95" x2="556.85" y2="603.35"/><path class="cls-25" d="M547.5,620.47s7.63-2.15,11,2.39,5.89,16.88,5.89,16.88"/><path class="cls-25" d="M464.63,557.55s13.93,15.8,13.06,28.42"/><path class="cls-25" d="M435.37,513s4-1.63,6.39.94,26.07,25.85,25.58,28.89,0,9.89,0,9.89"/><path class="cls-24" d="M479.43,474.89s3.73-.56,4.32,0,19.69,23.85,19.69,25.55,3,8.2,1.71,10.71"/><path class="cls-40" d="M486.46,482.29c-1.25,1.33-38.6,35-38.6,35l11.57,13.1,35.34-37.5Z"/><path class="cls-40" d="M444.46,521.73c-1.24,1.33-28.48,20.93-28.48,20.93l15.15,16.67,24.17-25.64Z"/><path class="cls-40" d="M551.19,448.28C550,449.61,490.38,480,490.38,480l6.68,9.61,60.06-29.45Z"/><path class="cls-40" d="M452.78,615.24c.83.18,45.49-19.29,45.49-19.29l7.22,15.78-36,21.38Z"/><path class="cls-40" d="M499.55,594.57c.83.18,58.21-20.87,58.21-20.87l-1.68,11.16-49.25,23.28Z"/><line class="cls-24" x1="492.65" y1="583.75" x2="503.5" y2="605.33"/><path class="cls-37" d="M495.46,586l2.81,4.95,60.25-18.64s-1-4-2.44-4S495.46,586,495.46,586Z"/><path class="cls-40" d="M282.07,733c-1,.48-20.42,28.22-20.42,28.22l51,15.71,14.56-36.58Z"/><path class="cls-40" d="M366.4,593.18c-1,.48-27.34,31.38-27.34,31.38l29,20.17,29-26Z"/><polygon class="cls-40" points="387.09 557.83 373.5 586.99 402.47 607.15 438.02 579.04 406 549.93 387.09 557.83"/><polygon class="cls-22" points="316.85 724.9 335.74 723.37 312.71 777.89 284.84 769.08 316.85 724.9"/><polygon class="cls-41" points="678.68 242.68 754.44 227.29 754.44 420.9 678.68 424.97 678.68 242.68"/><circle class="cls-39" cx="311.47" cy="678.14" r="26.23"/><circle class="cls-24" cx="311.47" cy="678.14" r="19.91"/><circle class="cls-39" cx="417.73" cy="549.93" r="17.64"/><circle class="cls-24" cx="417.73" cy="549.93" r="11.99"/><path class="cls-24" d="M382.51,639.74c.83.21,13.42-12.47,16.8-13.93"/><path class="cls-25" d="M511.61,642.23s-9.4,7.07-13.54,12.48-12.86,21.82-8.08,30.35,9.56,3.11,9.56,3.11l24.23-18.91"/><path class="cls-25" d="M534,622.31c-17.39,7.39-23,24.08-23,24.08"/><path class="cls-25" d="M540.51,604.81s-6.43,11.3-6.54,19.27"/><polygon class="cls-23" points="497.06 528.73 564.41 555.75 566.98 549.59 495.6 522.84 491.86 527.13 497.06 528.73"/><path class="cls-25" d="M536.92,538.12s3.77,7,2.19,10.43-8.72,18.84-8.72,18.84"/><polygon class="cls-23" points="568.99 553.99 590.92 614.45 583.37 608.14 567.64 561.13 568.99 553.99"/><path class="cls-25" d="M564.41,599.65s14.15,1.7,23.71,13.2"/><path class="cls-25" d="M567.46,550.63s1.31,11.38-3.05,16.76"/><path class="cls-40" d="M380.36,651.9c.56-.94,65.28-33.16,65.28-33.16l21.7,20L439.4,662.05l-6.09,17-25.92,10.78-21.76-5.08-21.77.55Z"/><path class="cls-42" d="M203.9,730.63s70.73,62.17,290.66,74C715,816.5,837.81,705.22,853.11,637.08"/><path class="cls-43" d="M572.46,776.94s8.56-33.54,38.2-28.27c76,13.5,37.05-27.21,48.55-50.61s28.69,7.79,42.41-22.57,68.8-44.34,97.6-.75c14.13,21.4,18.4,52.73,18.4,52.73s24.56-20.79,52.8,0c23,17,18.29,49.47,18.29,49.47Z"/><path class="cls-44" d="M786.73,789S776,724.84,730.89,743.63a17.54,17.54,0,0,1-20-4.62c-10.38-11.94-30.59-30.39-66.65-16.06-13.25,5.27-29,16.8-35.46,31-3.06,6.74-14.16,14.55-21.35,12.76-14.39-3.58-34.87-2.9-48.33,22.28Z"/><polyline class="cls-45" points="744.99 271.48 741.02 264.1 735.45 273.82 731.21 265.94 725.37 276.05 721.4 268.67 715.83 278.4 711.59 270.51 705.76 280.7 701.53 272.84 695.95 282.59 691.59 275.04 686.41 284.53"/><polyline class="cls-46" points="686.1 267.57 691.28 258.08 695.64 265.63 701.22 255.89 705.45 263.75 711.28 253.56 715.52 261.44 721.09 251.72 725.06 259.1"/><polygon class="cls-37" points="686.81 295.05 745.72 285.92 745.72 404.81 686.81 408.95 686.81 295.05"/><polygon class="cls-41" points="642.51 464.6 701.42 462.62 701.42 470.11 642.51 471.56 642.51 464.6"/><polygon class="cls-41" points="642.51 478.32 701.42 476.34 701.42 483.82 642.51 485.28 642.51 478.32"/><polygon class="cls-41" points="640.58 562.09 648.58 562.09 648.58 649.72 640.58 648.89 640.58 562.09"/><polygon class="cls-47" points="648.58 587.69 656.59 588.44 656.59 650.54 648.58 649.72 648.58 587.69"/><polygon class="cls-41" points="663.96 547.75 671.96 547.44 671.96 652.08 663.96 651.26 663.96 547.75"/><polygon class="cls-48" points="671.96 518.9 679.97 518.88 679.97 652.91 671.96 652.08 671.96 518.9"/><polygon class="cls-41" points="687.34 539.84 695.34 539.71 695.34 654.57 687.34 653.74 687.34 539.84"/><polygon class="cls-49" points="695.34 607.76 703.35 608.52 703.35 655.39 695.34 654.57 695.34 607.76"/><path class="cls-50" d="M391,485.17S313.86,417.62,337.7,348,447.86,264.1,447.86,264.1"/><line class="cls-51" x1="856.41" y1="720.16" x2="856.41" y2="776.94"/><line class="cls-52" x1="819.93" y1="720.16" x2="819.93" y2="776.94"/><line class="cls-53" x1="783.46" y1="654.3" x2="783.46" y2="776.94"/><line class="cls-54" x1="746.98" y1="645.98" x2="746.98" y2="776.94"/><line class="cls-55" x1="710.51" y1="661.36" x2="710.51" y2="776.94"/><line class="cls-56" x1="674.03" y1="688.59" x2="674.03" y2="776.94"/><path class="cls-57" d="M394.08,346.94s-60.81,33.79-91,99.51"/><circle class="cls-58" cx="400.96" cy="344.29" r="7.37"/><circle class="cls-59" cx="301.27" cy="453.59" r="7.37"/><path class="cls-60" d="M579,670.44s-17.69,175.1-168.69,146"/><path class="cls-61" d="M460.92,380.17c2.91-2.78,42.32-145.1,42.32-145.1l28.13,75.52,13.29-36.28,34.62,95.59,19.53-69.29L634,336.91l28-62.53"/><polyline class="cls-62" points="517.28 210.04 613.47 177.4 613.47 408.95"/><ellipse class="cls-63" cx="503.82" cy="215.22" rx="20.9" ry="12.65" transform="translate(157.21 639.5) rotate(-73.88)"/><ellipse class="cls-64" cx="457.44" cy="389.03" rx="9.87" ry="6.61" transform="translate(-43.28 720.51) rotate(-73.88)"/><path class="cls-6" d="M405.5,778.78c-23.44-9.9-33.73-26.8-33.73-26.8"/><path class="cls-6" d="M549.2,723s-18.64,47.76-84.57,60.51c-15,2.9-28,2.85-39.13,1"/><path class="cls-6" d="M819.64,571.77c-16.6,7.16-37.92,12-65.2,12"/><path class="cls-6" d="M876.27,511.15s-6.8,30.93-41,52.42"/><ellipse class="cls-65" cx="715.7" cy="322.07" rx="20.9" ry="15.92" transform="translate(160.56 876.84) rotate(-69.21)"/><ellipse class="cls-66" cx="715.7" cy="373.57" rx="10.95" ry="8.35" transform="translate(112.41 910.06) rotate(-69.21)"/><line class="cls-67" x1="715.7" y1="324.72" x2="715.7" y2="373.57"/><polygon class="cls-41" points="316.31 297.2 316.31 344.29 383.58 344.29 383.58 305.88 316.31 297.2"/><polygon class="cls-22" points="322.26 302.86 322.26 312.32 370.8 316.37 370.8 307.85 322.26 302.86"/><line class="cls-68" x1="322.26" y1="320.74" x2="352.12" y2="322.78"/><line class="cls-69" x1="322.26" y1="330.54" x2="352.12" y2="331.51"/><circle class="cls-70" cx="826.21" cy="574.47" r="42.75"/><path class="cls-71" d="M826.21,574.47l-1.22-27a27,27,0,1,0,28.25,27Z"/><polygon class="cls-72" points="255.63 541.97 255.63 557.61 185.06 536.84 185.06 521.2 255.63 541.97"/><polygon class="cls-73" points="255.63 516.04 255.63 531.67 185.06 510.9 185.06 495.27 255.63 516.04"/><polygon class="cls-74" points="255.63 490.1 255.63 505.74 185.06 484.97 185.06 469.33 255.63 490.1"/><polygon class="cls-75" points="255.63 464.16 255.63 479.8 185.06 459.03 185.06 443.39 255.63 464.16"/><polygon class="cls-76" points="255.63 645.72 255.63 661.36 185.06 640.59 185.06 624.95 255.63 645.72"/><polygon class="cls-77" points="255.63 619.78 255.63 635.42 185.06 614.65 185.06 599.01 255.63 619.78"/><polygon class="cls-78" points="255.63 593.85 255.63 609.49 185.06 588.72 185.06 573.08 255.63 593.85"/><polygon class="cls-79" points="255.63 567.91 255.63 583.55 185.06 562.78 185.06 547.14 255.63 567.91"/><path class="cls-37" d="M505.51,341.65l17.57-37.06,15.77-2.4-17.57,37.06Zm12.91,27,25.7-54.2a84.81,84.81,0,0,1,6.36-11.63,28.78,28.78,0,0,1,9.58-9.29,17.32,17.32,0,0,1,14.28-1.62c4.65,1.53,8.79,5.37,11.82,10.94,3.84,7.32,5.67,16.78,5.09,26.44A53.83,53.83,0,0,1,588.73,343,41.52,41.52,0,0,1,583,354.47a23.63,23.63,0,0,1-9.26,7.77,22.29,22.29,0,0,1-5.86,1.9l-7.71,1.17-13.12,27.75-15.72,2.38,21-44.38,1.71-3.63,10.38-1.58c3.65-.55,7.5-1.13,10.56-4.78h.06a20,20,0,0,0,3.35-6.67,26.77,26.77,0,0,0,1.11-8.16,24.76,24.76,0,0,0-1.39-7.88,15.64,15.64,0,0,0-3.57-5.86l-.16-.15-.09-.09-.12-.11a8,8,0,0,0-6.25-2.23l-.12,0a10.24,10.24,0,0,0-4.21,1.32,15.67,15.67,0,0,0-5.12,5,70.3,70.3,0,0,0-4.86,9l-19.52,41.16Z"/></g></svg>