<svg xmlns="http://www.w3.org/2000/svg" xmlns:xlink="http://www.w3.org/1999/xlink" viewBox="0 0 1080 1080"><defs><style>.cls-1,.cls-13,.cls-14,.cls-15,.cls-17,.cls-18,.cls-2,.cls-22,.cls-23,.cls-4,.cls-48,.cls-5,.cls-50,.cls-54,.cls-6,.cls-63,.cls-70,.cls-71,.cls-72,.cls-83,.cls-84,.cls-88,.cls-89,.cls-90,.cls-91,.cls-92,.cls-93{fill-rule:evenodd;}.cls-1{fill:url(#linear-gradient);}.cls-2{fill:url(#linear-gradient-2);}.cls-3{fill:#f4f7ff;}.cls-31,.cls-4{fill:#fff;}.cls-5{fill:url(#linear-gradient-3);}.cls-6{fill:url(#linear-gradient-4);}.cls-7{fill:url(#linear-gradient-5);}.cls-8{fill:url(#linear-gradient-6);}.cls-9{fill:url(#linear-gradient-7);}.cls-10{fill:#ebebeb;}.cls-11{fill:url(#linear-gradient-8);}.cls-12,.cls-13,.cls-14,.cls-19,.cls-20,.cls-21,.cls-23,.cls-35,.cls-42,.cls-43,.cls-48,.cls-52,.cls-55,.cls-58,.cls-59,.cls-61,.cls-62,.cls-67,.cls-68,.cls-69,.cls-73,.cls-74,.cls-75,.cls-76,.cls-77,.cls-78,.cls-82,.cls-85,.cls-87,.cls-88,.cls-90,.cls-91,.cls-92,.cls-93{fill:none;}.cls-12,.cls-14,.cls-83{stroke:#f9b471;}.cls-12,.cls-13,.cls-14,.cls-19,.cls-20,.cls-21,.cls-23,.cls-48,.cls-52,.cls-55,.cls-58,.cls-59,.cls-61,.cls-67,.cls-68,.cls-69,.cls-73,.cls-74,.cls-75,.cls-76,.cls-77,.cls-78,.cls-88,.cls-93{stroke-miterlimit:10;}.cls-13{stroke:url(#linear-gradient-9);}.cls-15{fill:#dfe9ff;stroke-width:5px;}.cls-15,.cls-16,.cls-42,.cls-43,.cls-48,.cls-82{stroke:#fff;}.cls-16{fill:#e3e8ee;stroke-width:6px;}.cls-17{fill:url(#linear-gradient-10);}.cls-18{fill:url(#linear-gradient-11);}.cls-19{stroke:url(#linear-gradient-12);}.cls-20{stroke:url(#linear-gradient-13);}.cls-21{stroke:url(#linear-gradient-14);}.cls-22{fill:url(#linear-gradient-15);}.cls-23,.cls-25,.cls-28,.cls-29,.cls-79{stroke:#113291;}.cls-23,.cls-41,.cls-55,.cls-58,.cls-59,.cls-61,.cls-62,.cls-64,.cls-70,.cls-79,.cls-80,.cls-81,.cls-82,.cls-83,.cls-85,.cls-90,.cls-91,.cls-92{stroke-linecap:round;}.cls-24{fill:url(#linear-gradient-16);}.cls-25{fill:#197ce1;}.cls-25,.cls-28,.cls-48{stroke-width:2px;}.cls-26,.cls-29{fill:#9fbdff;}.cls-27{fill:#bfd3ff;}.cls-28{fill:#0d5db5;}.cls-30{fill:#dae5ff;}.cls-32{fill:url(#linear-gradient-17);}.cls-33,.cls-49{fill:#113291;}.cls-33{fill-opacity:0.1;}.cls-34{fill:#849bd6;}.cls-35{stroke:#ffebd8;}.cls-36{fill:#f4f8ff;fill-opacity:0.69;}.cls-37{fill:url(#linear-gradient-18);}.cls-38{fill:url(#linear-gradient-19);}.cls-39{fill:url(#linear-gradient-20);}.cls-40{fill:#ed6921;}.cls-41,.cls-53,.cls-64,.cls-70,.cls-80,.cls-81{fill:#f9b471;}.cls-41,.cls-62,.cls-64,.cls-65,.cls-70,.cls-80,.cls-81,.cls-85{stroke:#ed6921;}.cls-42{stroke-opacity:0.51;}.cls-44{fill:#ebf1ff;fill-opacity:0.42;}.cls-45,.cls-46{fill:#ff7f2e;}.cls-45{opacity:0.31;}.cls-46{opacity:0.79;}.cls-47{fill:url(#linear-gradient-21);}.cls-50{fill:url(#linear-gradient-22);}.cls-51{fill:#f3f7ff;}.cls-52{stroke:url(#linear-gradient-23);}.cls-54{fill:#f37435;}.cls-55{stroke:url(#linear-gradient-24);}.cls-56,.cls-63,.cls-65{fill:#ff8f41;}.cls-57{opacity:0.39;}.cls-58{stroke:url(#linear-gradient-25);}.cls-59{stroke:url(#linear-gradient-26);}.cls-60{fill:url(#linear-gradient-27);}.cls-61{stroke:url(#linear-gradient-28);}.cls-64,.cls-79,.cls-80,.cls-82,.cls-83,.cls-85,.cls-90,.cls-91,.cls-92{stroke-linejoin:round;}.cls-66{fill:url(#linear-gradient-29);}.cls-67{stroke:url(#linear-gradient-30);}.cls-68{stroke:url(#linear-gradient-31);}.cls-69{stroke:url(#linear-gradient-32);}.cls-70,.cls-79,.cls-80,.cls-81,.cls-82{stroke-width:0.5px;}.cls-71{fill:url(#linear-gradient-33);}.cls-72{fill:url(#linear-gradient-34);}.cls-73{stroke:url(#linear-gradient-35);}.cls-74{stroke:url(#linear-gradient-36);}.cls-75{stroke:url(#linear-gradient-37);}.cls-76{stroke:url(#linear-gradient-38);}.cls-77{stroke:url(#linear-gradient-39);}.cls-78{stroke:url(#linear-gradient-40);}.cls-79{fill:#405ea8;}.cls-83{stroke-width:0.75px;fill:url(#linear-gradient-41);}.cls-84{fill:url(#linear-gradient-42);}.cls-86{opacity:0.5;fill:url(#linear-gradient-43);}.cls-87{stroke:#197ce1;}.cls-88{stroke:url(#linear-gradient-44);}.cls-89{fill:url(#linear-gradient-45);}.cls-90{stroke:url(#linear-gradient-46);}.cls-91{stroke:url(#linear-gradient-47);}.cls-92{stroke:url(#linear-gradient-48);}.cls-93{stroke:url(#linear-gradient-49);}</style><linearGradient id="linear-gradient" x1="81.03" y1="469.28" x2="227.84" y2="469.28" gradientUnits="userSpaceOnUse"><stop offset="0" stop-color="#3b7ce9"/><stop offset="1" stop-color="#2b84e5"/></linearGradient><linearGradient id="linear-gradient-2" x1="798.24" y1="-332.75" x2="489.64" y2="159.13" gradientTransform="matrix(1, 0, 0, -1, 0, 639.39)" gradientUnits="userSpaceOnUse"><stop offset="0" stop-color="#9fbdff"/><stop offset="1" stop-color="#ecf1ff"/></linearGradient><linearGradient id="linear-gradient-3" x1="843.18" y1="549.15" x2="702.96" y2="650.25" gradientUnits="userSpaceOnUse"><stop offset="0" stop-color="#dfe9ff"/><stop offset="1" stop-color="#ebebeb"/></linearGradient><linearGradient id="linear-gradient-4" x1="210.93" y1="371.12" x2="591.68" y2="79.87" gradientTransform="matrix(1, 0, 0, -1, 0, 639.39)" gradientUnits="userSpaceOnUse"><stop offset="0" stop-color="#197ce1"/><stop offset="1" stop-color="#9fbdff"/></linearGradient><linearGradient id="linear-gradient-5" x1="591.26" y1="474.8" x2="591.26" y2="549.45" gradientUnits="userSpaceOnUse"><stop offset="0" stop-color="#197ce1"/><stop offset="1" stop-color="#197ce1" stop-opacity="0"/></linearGradient><linearGradient id="linear-gradient-6" x1="634.43" y1="410.5" x2="634.43" y2="544.82" xlink:href="#linear-gradient-5"/><linearGradient id="linear-gradient-7" x1="675.17" y1="424.96" x2="675.17" y2="541.7" gradientUnits="userSpaceOnUse"><stop offset="0" stop-color="#aaceff"/><stop offset="1" stop-color="#197ce1" stop-opacity="0"/></linearGradient><linearGradient id="linear-gradient-8" x1="620.73" y1="769.42" x2="824.51" y2="769.42" gradientUnits="userSpaceOnUse"><stop offset="0" stop-color="#94c8ff"/><stop offset="1" stop-color="#fff" stop-opacity="0"/></linearGradient><linearGradient id="linear-gradient-9" x1="385.08" y1="425.25" x2="680.62" y2="425.25" gradientTransform="translate(288.39 -194.3) rotate(29.06)" gradientUnits="userSpaceOnUse"><stop offset="0" stop-color="#f37435"/><stop offset="1" stop-color="#f9b471"/></linearGradient><linearGradient id="linear-gradient-10" x1="330.71" y1="265.59" x2="330.71" y2="596" xlink:href="#linear-gradient-5"/><linearGradient id="linear-gradient-11" x1="209.88" y1="300.05" x2="536.15" y2="300.05" gradientTransform="matrix(1, 0, 0, 1, 0, 0)" xlink:href="#linear-gradient-9"/><linearGradient id="linear-gradient-12" x1="338.65" y1="403.43" x2="443.86" y2="403.43" gradientUnits="userSpaceOnUse"><stop offset="0" stop-color="#f1f6ff" stop-opacity="0"/><stop offset="0.99" stop-color="#f1f6ff"/></linearGradient><linearGradient id="linear-gradient-13" x1="395.88" y1="390.18" x2="489.59" y2="390.18" xlink:href="#linear-gradient-12"/><linearGradient id="linear-gradient-14" x1="449.15" y1="394.57" x2="544.21" y2="394.57" xlink:href="#linear-gradient-12"/><linearGradient id="linear-gradient-15" x1="116.26" y1="432.42" x2="230.17" y2="568.9" gradientTransform="matrix(-0.94, 0.35, 0.35, 0.94, 212.31, -37.67)" gradientUnits="userSpaceOnUse"><stop offset="0" stop-color="#94c8ff"/><stop offset="1" stop-color="#fff"/></linearGradient><linearGradient id="linear-gradient-16" x1="235.29" y1="674.99" x2="546.71" y2="711.97" gradientUnits="userSpaceOnUse"><stop offset="0" stop-color="#4e75d4" stop-opacity="0"/><stop offset="0.11" stop-color="#4e75d4" stop-opacity="0.03"/><stop offset="0.25" stop-color="#4e75d4" stop-opacity="0.1"/><stop offset="0.4" stop-color="#4e75d4" stop-opacity="0.23"/><stop offset="0.57" stop-color="#4e75d4" stop-opacity="0.41"/><stop offset="0.75" stop-color="#4d75d5" stop-opacity="0.63"/><stop offset="0.94" stop-color="#4d75d5" stop-opacity="0.9"/><stop offset="1" stop-color="#4d75d5"/></linearGradient><linearGradient id="linear-gradient-17" x1="530.03" y1="238.17" x2="530.03" y2="-7.8" gradientTransform="matrix(1, 0, 0, -1, 0, 639.39)" gradientUnits="userSpaceOnUse"><stop offset="0.01" stop-color="#f1f6ff"/><stop offset="1" stop-color="#f1f6ff" stop-opacity="0"/></linearGradient><linearGradient id="linear-gradient-18" x1="464.24" y1="232.08" x2="268.45" y2="331.93" gradientTransform="matrix(1, 0, 0, -1, 0, 639.39)" gradientUnits="userSpaceOnUse"><stop offset="0" stop-color="#f9b471" stop-opacity="0.33"/><stop offset="1" stop-color="#ed6921"/></linearGradient><linearGradient id="linear-gradient-19" x1="447.65" y1="202.31" x2="256.82" y2="299.62" xlink:href="#linear-gradient-18"/><linearGradient id="linear-gradient-20" x1="432.04" y1="168.94" x2="236.24" y2="268.79" xlink:href="#linear-gradient-18"/><linearGradient id="linear-gradient-21" x1="353.72" y1="701.49" x2="590.24" y2="701.49" gradientUnits="userSpaceOnUse"><stop offset="0.01" stop-color="#f1f6ff" stop-opacity="0.7"/><stop offset="1" stop-color="#f1f6ff" stop-opacity="0"/></linearGradient><linearGradient id="linear-gradient-22" x1="849.17" y1="439.06" x2="849.17" y2="556.93" xlink:href="#linear-gradient-5"/><linearGradient id="linear-gradient-23" x1="648.28" y1="461.84" x2="648.28" y2="432.06" gradientTransform="matrix(1, 0, 0, 1, 0, 0)" xlink:href="#linear-gradient-17"/><linearGradient id="linear-gradient-24" x1="691" y1="511.05" x2="763.3" y2="511.05" gradientTransform="matrix(1, 0, 0, 1, 0, 0)" xlink:href="#linear-gradient-9"/><linearGradient id="linear-gradient-25" x1="585.72" y1="650.17" x2="685.91" y2="650.17" gradientTransform="matrix(1, 0, 0, 1, 0, 0)" xlink:href="#linear-gradient-17"/><linearGradient id="linear-gradient-26" x1="498.23" y1="689.49" x2="566.86" y2="689.49" gradientTransform="matrix(1, 0, 0, 1, 0, 0)" xlink:href="#linear-gradient-17"/><linearGradient id="linear-gradient-27" x1="431.64" y1="679.66" x2="624.31" y2="679.66" gradientUnits="userSpaceOnUse"><stop offset="0" stop-color="#4e75d4" stop-opacity="0"/><stop offset="0.1" stop-color="#4e75d4" stop-opacity="0.03"/><stop offset="0.24" stop-color="#4e75d4" stop-opacity="0.11"/><stop offset="0.4" stop-color="#4e75d4" stop-opacity="0.24"/><stop offset="0.58" stop-color="#4e75d4" stop-opacity="0.42"/><stop offset="0.77" stop-color="#4d75d5" stop-opacity="0.66"/><stop offset="0.96" stop-color="#4d75d5" stop-opacity="0.94"/><stop offset="1" stop-color="#4d75d5"/></linearGradient><linearGradient id="linear-gradient-28" x1="641.53" y1="695.47" x2="728.54" y2="695.47" gradientTransform="matrix(1, 0, 0, 1, 0, 0)" xlink:href="#linear-gradient-17"/><linearGradient id="linear-gradient-29" x1="311.25" y1="748.46" x2="354.64" y2="748.46" gradientTransform="matrix(1, 0, 0, 1, 0, 0)" xlink:href="#linear-gradient-4"/><linearGradient id="linear-gradient-30" x1="297.46" y1="793.71" x2="368.3" y2="793.71" gradientTransform="matrix(1, 0, 0, 1, 0, 0)" xlink:href="#linear-gradient-17"/><linearGradient id="linear-gradient-31" x1="310.83" y1="770.56" x2="402.61" y2="770.56" gradientTransform="matrix(1, 0, 0, 1, 0, 0)" xlink:href="#linear-gradient-4"/><linearGradient id="linear-gradient-32" x1="500.49" y1="345.46" x2="551.37" y2="345.46" gradientTransform="matrix(1, 0, 0, 1, 0, 0)" xlink:href="#linear-gradient-17"/><linearGradient id="linear-gradient-33" x1="763.22" y1="634.22" x2="830.6" y2="634.22" gradientTransform="matrix(1, 0, 0, 1, 0, 0)" xlink:href="#linear-gradient-4"/><linearGradient id="linear-gradient-34" x1="587.39" y1="276.89" x2="981.83" y2="276.89" xlink:href="#linear-gradient"/><linearGradient id="linear-gradient-35" x1="622.84" y1="332.21" x2="634.16" y2="332.21" xlink:href="#linear-gradient-12"/><linearGradient id="linear-gradient-36" x1="677.15" y1="305.23" x2="700.16" y2="305.23" xlink:href="#linear-gradient-12"/><linearGradient id="linear-gradient-37" x1="730.32" y1="275.05" x2="766.42" y2="275.05" xlink:href="#linear-gradient-12"/><linearGradient id="linear-gradient-38" x1="809.41" y1="305.23" x2="832.42" y2="305.23" xlink:href="#linear-gradient-12"/><linearGradient id="linear-gradient-39" x1="874.87" y1="305.23" x2="897.88" y2="305.23" xlink:href="#linear-gradient-12"/><linearGradient id="linear-gradient-40" x1="943" y1="305.23" x2="966.02" y2="305.23" xlink:href="#linear-gradient-12"/><linearGradient id="linear-gradient-41" x1="696.01" y1="329.44" x2="934.45" y2="329.44" gradientUnits="userSpaceOnUse"><stop offset="0" stop-color="#fff"/><stop offset="1" stop-color="#f4f7ff"/></linearGradient><linearGradient id="linear-gradient-42" x1="719.25" y1="515.23" x2="769.47" y2="515.23" xlink:href="#linear-gradient-41"/><linearGradient id="linear-gradient-43" x1="472.16" y1="416.5" x2="603.34" y2="474.53" xlink:href="#linear-gradient-27"/><linearGradient id="linear-gradient-44" x1="667.36" y1="392.79" x2="741.56" y2="392.79" gradientTransform="matrix(1, 0, 0, 1, 0, 0)" xlink:href="#linear-gradient-17"/><linearGradient id="linear-gradient-45" x1="722.62" y1="764.09" x2="784.33" y2="764.09" gradientTransform="matrix(1, 0, 0, 1, 0, 0)" xlink:href="#linear-gradient-4"/><linearGradient id="linear-gradient-46" x1="824.01" y1="728.18" x2="872.35" y2="728.18" gradientTransform="matrix(1, 0, 0, 1, 0, 0)" xlink:href="#linear-gradient-4"/><linearGradient id="linear-gradient-47" x1="815.88" y1="744.98" x2="834.88" y2="744.98" gradientTransform="matrix(1, 0, 0, 1, 0, 0)" xlink:href="#linear-gradient-4"/><linearGradient id="linear-gradient-48" x1="808.79" y1="742.08" x2="827.88" y2="742.08" gradientTransform="matrix(1, 0, 0, 1, 0, 0)" xlink:href="#linear-gradient-4"/><linearGradient id="linear-gradient-49" x1="724.99" y1="351.09" x2="886.77" y2="351.09" gradientUnits="userSpaceOnUse"><stop offset="0" stop-color="#4e75d4" stop-opacity="0"/><stop offset="0.13" stop-color="#4e75d4" stop-opacity="0.22"/><stop offset="0.29" stop-color="#4e75d4" stop-opacity="0.46"/><stop offset="0.45" stop-color="#4d75d5" stop-opacity="0.65"/><stop offset="0.6" stop-color="#4d75d5" stop-opacity="0.8"/><stop offset="0.74" stop-color="#4d75d5" stop-opacity="0.91"/><stop offset="0.88" stop-color="#4d75d5" stop-opacity="0.98"/><stop offset="1" stop-color="#4d75d5"/></linearGradient></defs><title>illustrations sketch</title><g id="Layer_6" data-name="Layer 6"><path class="cls-1" d="M86.14,537.13S68.64,504,98.38,484.18s38.34-5.85,46.17-37.49,30.25-61.78,72.06-34.78S170,530.25,170,530.25Z"/><path class="cls-2" d="M259.48,661.46c0-.07,0-.14,0-.21,91.13-60.46,346.23-161.8,640.21-85.71C884.42,740.2,742.37,869.22,569.39,869.22,428,869.22,307.18,783,259.48,661.46Z"/><ellipse class="cls-3" cx="569.56" cy="544.62" rx="331.71" ry="323.24"/><path class="cls-4" d="M608.1,624.17,843.42,745.79S814.06,781.05,774,801,608.1,624.17,608.1,624.17Z"/><path class="cls-5" d="M643.69,681.21s141.65,63.89,191,86.45c0,0,81.55-78.07,72.94-181.45,0,0-155.37-56.46-343.38-25.14S643.69,681.21,643.69,681.21Z"/><path class="cls-6" d="M251,655.19,251,655C343.38,593.69,602,491,900,568.1c76.34-86.1,77.9-123.36-126-132.47-29.85-1.33,11.86-150.38-112.34-93.19C570.8,384.24,508.44,171.7,330,247.51,198,303.57,118.22,480.39,251,655.19Z"/><path class="cls-7" d="M560.59,482.56l56-7.76,5.34,67.78s-59.63,8.18-59.29,6.69S560.59,482.56,560.59,482.56Z"/><path class="cls-8" d="M611.92,414.22l35.7-3.72,9.32,132.3s-36.11,3.11-35.78,1.62S611.92,414.22,611.92,414.22Z"/><path class="cls-9" d="M648.8,427.23,693.34,425l8.2,116.43s-44.94,1-44.6-.51S648.8,427.23,648.8,427.23Z"/><path class="cls-10" d="M824.51,775.52C723.51,719.22,618,673.11,618,673.11l-71.84,7.33s-36,120.3-28.86,211.6c0,0,64.67,1.43,109.52-9.69C748.37,852.22,824.51,775.52,824.51,775.52Z"/><path class="cls-11" d="M824.51,775.52c-57.58-32.1-116.63-60.88-156.76-79.7-14,0-25.19,2.42-30.65,8.75-20.9,24.26-15.83,38.54-15.83,38.54s108.67-8.47,69.87,43c-22.9,30.37-2,51.8,37.64,56.93C789.39,810.89,824.51,775.52,824.51,775.52Z"/><path class="cls-12" d="M534.33,853s139.95,4.92,256.61-95.76"/><line class="cls-12" x1="629.81" y1="757.24" x2="674.19" y2="826.2"/><path class="cls-13" d="M375.35,443s83.34-133.86,123.49-102.85,39.47,93.42,103.44,49.23,74.24,97.31,64.65,135.32"/><path class="cls-14" d="M559,581c2.68.45,150.75,14,376.77,70.18"/><path class="cls-14" d="M581,571.13c2.68.45,82.06-11.21,289.08,24.94"/><path class="cls-14" d="M834.38,627.55S822,655.19,786.44,676"/><path class="cls-15" d="M357,872.18c36.39-104.66,114.21-148.13,114.21-148.13-19.09-5.94-64.7-37.19-64.7-37.19s-71.85,30.57-133.84,80.8c0,0,3.31,24.4,33.85,59.52C333.81,858.52,357,872.18,357,872.18Z"/><path class="cls-16" d="M587,816.22l-16.85-81.58-36.25,5.2c9.2-35.25,19.54-50.36,19.54-50.36-22.51,3.93-66.05,16.83-66.05,16.83s-95.54,66.2-123,148.26c0,0,24.46,21.71,70.7,39.11a319.47,319.47,0,0,0,86.11,18.8,724,724,0,0,1,0-89.89C532.53,822.7,560.13,822.26,587,816.22Z"/><path class="cls-17" d="M248.58,304.5,371.84,596q19.5-7.26,41-14.06c-15-41.16-83.11-224.52-117.22-316.35A244,244,0,0,0,248.58,304.5Z"/><path class="cls-18" d="M536.15,287.88c-50.61-40.63-112.3-80.33-206-40.52A243.46,243.46,0,0,0,209.88,359.21c30.74,13.8,78.91,21.32,122.06-32.43C399.18,243,467.55,322.93,536.15,287.88Z"/><line class="cls-19" x1="339.12" y1="243.76" x2="443.39" y2="563.11"/><line class="cls-20" x1="396.36" y1="231.24" x2="489.11" y2="549.11"/><line class="cls-21" x1="449.63" y1="237.55" x2="543.73" y2="551.58"/><path class="cls-22" d="M270.11,428s-22.33-46.81-76.63-17.8S173.12,489,173.12,489s-25.48-.89-26.29,27.87c0,0-53.15-24.34-60.69,20.27l256.75-21.06S373.32,420.33,270.11,428Z"/><path class="cls-23" d="M337.52,511.94s30.42-95.74-72.78-88c0,0-22.33-46.81-76.64-17.8s-20.36,78.75-20.36,78.75-25.47-.89-26.29,27.87c0,0-49.33-26-60.68,20.27"/><path class="cls-24" d="M614.42,621.2c-3.83-1.13-9.43-1.43-12.48-.57l-47.61,12.09a1.81,1.81,0,0,1-1.09-3.44h0a1.9,1.9,0,0,0,.69-.46c2.27-2.44,3-3.83,3.07-5.12a1.81,1.81,0,0,0-1.86-2L449.76,639.92a1.55,1.55,0,0,0-.31,0,27.88,27.88,0,0,0-10.87,4.82,1.85,1.85,0,0,1-.83.41L162.67,699.76a1.81,1.81,0,0,0-.9.46c-2.86,2.75-2.33,4.88,1.37,4.73l183.23,3.55a1.66,1.66,0,0,1,.8.27l151.71,94.88.24.13c8,3.63,20.61,4.54,28,2L833.28,683.87c3-1,4.34-1.9,5.13-2.85a1.8,1.8,0,0,0-1-2.86Z"/><path class="cls-25" d="M365.9,686.56,353.67,685l.17,3.38a7.94,7.94,0,0,0,2.26,5.61,9.41,9.41,0,0,0,2.86,1.8l.34.16h0l174.11,92.69a41.83,41.83,0,0,0,14,3.32,35.45,35.45,0,0,0,13.48-1.27L835.78,681.39h.06c1.33-.44,3.69-2.59,3.45-7.21l-.13-2.61-17.55.35h-.16l-.14,0L644,619.32a28.12,28.12,0,0,0-6.3-1,20.68,20.68,0,0,0-5.66.4h0L366.83,688.63l-1.67.44.49-1.66Z"/><path class="cls-26" d="M831.19,666.19,643.47,610.56h0a28.06,28.06,0,0,0-6.3-1,19.09,19.09,0,0,0-5.63.43h0L356.63,682.48h0a8,8,0,0,0-2.21.89c-.5.32-.65.58-.68.7s-.05.21.17.48a4.13,4.13,0,0,0,1.51,1h0l176.48,92.76a42,42,0,0,0,13.92,3.26,35.63,35.63,0,0,0,13.48-1.28L837.14,672h0a3.27,3.27,0,0,0,1.83-1.13c.08-.14.15-.4-.25-.91a7.59,7.59,0,0,0-2.53-1.86,29.26,29.26,0,0,0-5-1.91Z"/><path class="cls-27" d="M640.7,618.51l-11.06,3a1.73,1.73,0,0,1-1.14-.08L623.8,620c-.38-.14-.39-.23-.09-.34l8.45-2.23a14.4,14.4,0,0,1,7,.37l1.46.48C640.92,618.32,641,618.4,640.7,618.51Z"/><path class="cls-27" d="M625.22,622.68l-11.28,3.06a1.73,1.73,0,0,1-1.14-.08l-4.7-1.49c-.31-.15-.39-.23-.09-.34l11.29-3.06a1.73,1.73,0,0,1,1.14.08l4.69,1.5C625.44,622.49,625.45,622.66,625.22,622.68Z"/><path class="cls-27" d="M609.38,627,597.94,630a1.79,1.79,0,0,1-1.14-.07l-4.7-1.5c-.31-.15-.39-.31-.09-.33l11.44-3.08a1.73,1.73,0,0,1,1.14.08l4.69,1.5C609.67,626.77,609.68,626.94,609.38,627Z"/><path class="cls-27" d="M593.38,631.36l-11.66,3.17a2,2,0,0,1-1.21-.07l-4.63-1.58c-.31-.15-.39-.31-.09-.34l11.66-3.18a1.8,1.8,0,0,1,1.14.08l4.69,1.5C593.6,631.08,593.68,631.25,593.38,631.36Z"/><path class="cls-27" d="M659.63,624.31,648,627.48a2,2,0,0,1-1.21-.07l-14.32-4.47c-.38-.14-.39-.31-.09-.34l11.51-3.16a1.73,1.73,0,0,1,1.14.08l14.31,4.38C659.85,624.12,659.85,624.29,659.63,624.31Z"/><path class="cls-27" d="M616.13,627.1l11.73-3.18a2.07,2.07,0,0,1,1.22.07l14.31,4.47c.39.14.4.31.1.33l-11.81,3.28a2.08,2.08,0,0,1-1.22-.08l-14.24-4.56C615.84,627.38,615.83,627.21,616.13,627.1Z"/><path class="cls-27" d="M599.46,631.63l11.95-3.29a2.07,2.07,0,0,1,1.22.07L626.88,633c.38.14.39.31.09.34l-12,3.28a2.07,2.07,0,0,1-1.22-.07l-14.25-4.64C599.24,631.9,599.16,631.74,599.46,631.63Z"/><path class="cls-27" d="M582.57,636.26,594.75,633A2.08,2.08,0,0,1,596,633l14.17,4.65c.38.14.39.31.09.33L598,641.41a2.07,2.07,0,0,1-1.22-.07l-14.18-4.74C582.27,636.46,582.19,636.29,582.57,636.26Z"/><path class="cls-27" d="M593.52,644.68l12.33-3.4a2,2,0,0,1,1.21.07l14.57,4.87c.38.14.39.31.09.42l-12.4,3.5a2,2,0,0,1-1.21-.07l-14.57-5C593.23,645,593.22,644.79,593.52,644.68Z"/><path class="cls-27" d="M610.63,639.94l12.11-3.38a2,2,0,0,1,1.21.07l14.64,4.79c.38.13.47.3.09.41l-12.1,3.47a2,2,0,0,1-1.21-.07l-14.64-4.78C610.42,640.22,610.33,640.05,610.63,639.94Z"/><path class="cls-27" d="M655.42,637.05l-11.88,3.36a2.07,2.07,0,0,1-1.22-.07l-14.63-4.7c-.39-.14-.39-.31-.09-.33L639.48,632a2.07,2.07,0,0,1,1.22.07l14.7,4.69C655.63,636.77,655.71,636.94,655.42,637.05Z"/><path class="cls-27" d="M679,630.33l-19,5.4a2.08,2.08,0,0,1-1.22-.08l-14.7-4.6c-.39-.14-.39-.31-.09-.34l19-5.31a2,2,0,0,1,1.21.07l14.7,4.52C679.24,630.05,679.32,630.22,679,630.33Z"/><path class="cls-27" d="M636.89,654.55l-12.47,3.58a2.3,2.3,0,0,1-1.29-.06l-15-5.1c-.39-.14-.4-.31-.1-.42L620.55,649a2,2,0,0,1,1.22.07l15,5C637.18,654.27,637.19,654.44,636.89,654.55Z"/><path class="cls-27" d="M654,649.56l-12.25,3.56a2.3,2.3,0,0,1-1.29-.06l-15-5c-.38-.14-.39-.31-.09-.42l12.17-3.48a2.07,2.07,0,0,1,1.22.07l15,4.93C654.21,649.28,654.29,649.45,654,649.56Z"/><path class="cls-27" d="M670.8,644.67l-12,3.47a2.33,2.33,0,0,1-1.29-.07l-15.09-4.91c-.39-.14-.47-.31-.1-.42l12-3.38a2.16,2.16,0,0,1,1.22.07l15.09,4.84C671,644.4,671.1,644.56,670.8,644.67Z"/><path class="cls-27" d="M699,636.46l-23.52,6.89a2.07,2.07,0,0,1-1.22-.07l-15.09-4.84c-.39-.13-.47-.3-.17-.32l23.53-6.72a2.07,2.07,0,0,1,1.22.07l15.16,4.66C699.24,636.19,699.33,636.35,699,636.46Z"/><path class="cls-27" d="M648.58,663.93,636,667.7a2.31,2.31,0,0,1-1.29-.07l-15.42-5.31c-.38-.14-.47-.31-.1-.42l12.62-3.69a2.35,2.35,0,0,1,1.3.07l15.41,5.23C648.87,663.65,648.88,663.82,648.58,663.93Z"/><path class="cls-27" d="M665.9,658.75l-12.4,3.67a2.31,2.31,0,0,1-1.29-.07l-15.41-5.23c-.39-.14-.47-.31-.1-.42l12.4-3.58a2.31,2.31,0,0,1,1.29.06l15.48,5.15C666.11,658.48,666.19,658.64,665.9,658.75Z"/><path class="cls-27" d="M682.94,653.66l-12.17,3.65a2.39,2.39,0,0,1-1.29-.06L654,652.19c-.39-.14-.47-.31-.18-.41l12.1-3.56a2.33,2.33,0,0,1,1.29.07l15.48,5C683.15,653.39,683.24,653.64,682.94,653.66Z"/><path class="cls-27" d="M719.58,642.82l-31.88,9.53a2.39,2.39,0,0,1-1.29-.06l-15.48-5c-.38-.14-.47-.3-.17-.41l31.81-9.27a2.07,2.07,0,0,1,1.22.07l15.54,4.79C719.79,642.54,719.87,642.71,719.58,642.82Z"/><path class="cls-27" d="M657.13,663.66l12.38-3.75a2.34,2.34,0,0,1,1.3.06l15.94,5.28c.39.14.47.3.18.41l-12.47,3.84a2.31,2.31,0,0,1-1.29-.06l-15.87-5.37C656.84,663.94,656.83,663.77,657.13,663.66Z"/><path class="cls-27" d="M674.37,658.57l12.17-3.65a2.31,2.31,0,0,1,1.29.07l15.95,5.19c.38.14.46.3.17.41l-12.17,3.73a2.31,2.31,0,0,1-1.29-.06L674.55,659C674.16,658.76,674.07,658.59,674.37,658.57Z"/><path class="cls-27" d="M691.31,653.42l12-3.54a2.3,2.3,0,0,1,1.29.06l16,5c.39.14.47.3.17.41L708.79,659a2.31,2.31,0,0,1-1.29-.07l-15.94-5.1C691.1,653.7,691,653.53,691.31,653.42Z"/><path class="cls-27" d="M708,648.46l15.23-4.58a2.33,2.33,0,0,1,1.29.07l12.31,3.77c2.46.74,3,1.81,1.25,2.38L725.59,654a2.31,2.31,0,0,1-1.29-.07l-16-5C707.82,648.74,707.74,648.57,708,648.46Z"/><path class="cls-27" d="M653,734l84.38-31.21c3.1-1.09,2-3.21-2.46-4.66l-54.3-18.8c-4-1.34-9.78-1.7-12.9-.77l-84.32,26.28c-3.45,1-3.07,3.21.91,4.78L638.71,733C643.11,734.76,649.59,735.14,653,734Z"/><path class="cls-28" d="M559.76,404.25h0a13.71,13.71,0,0,0-3.34-5.37,5.31,5.31,0,0,0-3.91-1.8h-.14L253,387.36a7.71,7.71,0,0,0-5.68,5.1,12.78,12.78,0,0,0-.09,8.24h0l89.33,276h0c.86,2.58,3.5,6.39,11,6.75l6.08-.36L624,611.31l3-3.56a3.29,3.29,0,0,0,2.11-2.7c.37-1.56,1.67.47.9-1.71Z"/><path class="cls-29" d="M349,680.19h0L631.27,609l.66-.14a2.65,2.65,0,0,0,2.34-2.09c.37-1.56-.54-5.27-1.3-7.46h0l-71.8-195v0h0a13.59,13.59,0,0,0-3.34-5.37,5.29,5.29,0,0,0-3.91-1.79h-.14L252.64,386.37a4.26,4.26,0,0,0-3.54,2.84,9.83,9.83,0,0,0,.08,6.63h0l90.35,276.81h0a12.9,12.9,0,0,0,4.2,6.1A6.21,6.21,0,0,0,349,680.19Z"/><path class="cls-30" d="M348.59,669.34h0l277.7-69.46h0c.21,0,.5-.26.66-.92a4.65,4.65,0,0,0-.24-2.53h0L556.94,406h0v0a5.75,5.75,0,0,0-1.49-2.39,2.21,2.21,0,0,0-1.55-.75h-.11l-292.62-5.21a1.48,1.48,0,0,0-1.26,1,4.2,4.2,0,0,0,.1,2.85h0L344.68,666h0a5.6,5.6,0,0,0,1.83,2.72A2.47,2.47,0,0,0,348.59,669.34Z"/><path class="cls-31" d="M833,676,567.22,780.89v5.2c87.42-34.65,262.59-104.23,263.83-105.3S832.85,677.18,833,676Z"/><path class="cls-32" d="M433.54,647.19l17.66-246c42.27.43,96.88,1.78,100.78,1.7s4.67,1.14,4.57,1.75l70,195.94Z"/><path class="cls-33" d="M-41.21,378.48l-23-66.07,62-7.12,22,62.2Z"/><path class="cls-33" d="M292.07,444.79,284,418.35l98.85,1.58,6.93,23.28Z"/><path class="cls-33" d="M303.24,476.25l-8.1-26.44,96-1.56L399,471.56Z"/><path class="cls-33" d="M313.19,509.7l-8.1-26.44,96-4.33,7.87,23.78Z"/><path class="cls-34" d="M296,440.66l-8.09-26.44,98.85,1.58,6.93,23.28Z"/><path class="cls-34" d="M307.16,472.12l-8.1-26.43,96-1.56,7.87,23.31Z"/><path class="cls-34" d="M317.11,505.57,309,479.13,405,474.8l7.87,23.78Z"/><ellipse class="cls-31" cx="307.43" cy="427.44" rx="7.34" ry="10.1" transform="translate(-204.94 306.21) rotate(-40.96)"/><path class="cls-35" d="M320.88,421.46l56.51-.8"/><path class="cls-35" d="M322.41,426.78l34.73-.86"/><path class="cls-35" d="M323.76,433l12-.42"/><ellipse class="cls-31" cx="316.81" cy="457.35" rx="7.34" ry="10.1" transform="translate(-222.25 319.68) rotate(-40.96)"/><path class="cls-35" d="M330.25,451.36l56.52-.8"/><path class="cls-35" d="M331.79,456.68l34.72-.86"/><path class="cls-35" d="M333.13,462.91l12-.42"/><ellipse class="cls-31" cx="327.74" cy="491.24" rx="7.34" ry="10.1" transform="translate(-241.79 335.14) rotate(-40.96)"/><path class="cls-35" d="M339.94,484.21l56.42-3.3"/><path class="cls-35" d="M341.7,489.46l34.66-2.4"/><path class="cls-35" d="M343.32,495.62l11.95-.95"/><path class="cls-36" d="M406.56,353.83,365.11,386l10.42,31.43,40.88-31.37,54.09,24.81-10.78-32.09Z"/><path class="cls-36" d="M421.08,398.65l-41.45,32.16,10.43,31.43,40.87-31.37,54.76,25.3-11.45-32.58Z"/><path class="cls-36" d="M438.46,446.6,397,478.76l10.42,31.44,40.88-31.38,52.84,21.48-9.53-28.75Z"/><path class="cls-37" d="M413.59,341.31l-43.11,33.45,10.85,32.69,42.51-32.63,56.26,25.81-11.22-33.38Z"/><path class="cls-38" d="M427.86,388.57l-41.29,32a1.74,1.74,0,0,0-.59,1.93l9.68,29.19a1.75,1.75,0,0,0,2.72.84l39.73-30.49a1.71,1.71,0,0,1,1.79-.2L492.15,446a1.74,1.74,0,0,0,2.37-2.16l-10.29-29.31a1.75,1.75,0,0,0-.91-1l-53.65-25.18A1.74,1.74,0,0,0,427.86,388.57Z"/><path class="cls-39" d="M446.77,437.79l-43.11,33.45,10.85,32.7L457,471.31l55,22.33-9.91-29.9Z"/><path class="cls-40" d="M413.7,342.3l-43.22,32.46,11.95,30.59L423.23,374l.48-.37.54.25,55.85,26.43-11.47-33Zm-.22-2,55.59,26.61,12,33.39.73,2.19-2.1-1-56.26-25.8,1-.11-43.16,32.27-12.55-33.66Z"/><path class="cls-40" d="M428.66,388.23l-42.38,33.56,10.73,30,41.33-31.13.47-.37.55.26,54.74,25.15L483.26,413.9Zm-.07-1.3L484,413.24l11.59,34.22-57.08-25.12,1-.11-43.19,31.69-11.74-33.06Z"/><path class="cls-40" d="M446.88,438.79l-42.5,32.85,11.07,32-1.55-.48,42.51-32.63.45-.35.53.22,54.2,22.67-9.77-28.95Zm-.11-1,55.37,25.81,10.53,30.77-56-22.14,1-.13-42.51,32.63-1.09.84-.46-1.32L402.37,471Z"/><path class="cls-41" d="M494.51,617.1l-177.32,39c-8.33-62.43,29.75-30.3,35.7-50.5,5.06-17.15,5-48.06,48-9,15.73,14.3,11.91-27.61,12.94-61.93s25.43-14.1,37.55,2C462.17,550.94,486.05,596,494.51,617.1Z"/><path class="cls-42" d="M368,544.73l39.54,103.14"/><path class="cls-43" d="M411.25,554.92l5.49,14.33"/><path class="cls-43" d="M421.58,560.93l-15.17,2.31"/><path class="cls-43" d="M343.58,605.3l5.49,14.33"/><path class="cls-43" d="M353.91,611.32l-15.17,2.3"/><path class="cls-43" d="M427.12,510.48l5.49,14.33"/><path class="cls-43" d="M437.32,516.73,422,518.13"/><path class="cls-42" d="M459.45,533.46l38.28,93.8"/><ellipse class="cls-44" cx="433.07" cy="554.15" rx="19.27" ry="25.94" transform="translate(-247.23 375.75) rotate(-37.3)"/><path class="cls-42" d="M418.31,538.32,456,636.55"/><path class="cls-45" d="M495.43,557l8.22-31.32,17.43-2.64-8.22,31.32Zm23.69,21.72,12-45.82a43.92,43.92,0,0,1,3.56-9.86,18.71,18.71,0,0,1,8-8.07c4.49-2.36,10-3,16-1.94a37.79,37.79,0,0,1,17.21,8.53,48,48,0,0,1,14.5,21.6A31.6,31.6,0,0,1,592,554.65a21,21,0,0,1-2.87,9.68,16.71,16.71,0,0,1-8.16,6.8A25.45,25.45,0,0,1,574.8,573l-8.52,1.29-6.12,23.45-17.37,2.63,9.81-37.51.79-3.07L564.87,558c4-.61,8.29-1.26,10.63-4.4h.06a10.24,10.24,0,0,0,1.7-5.64,16.63,16.63,0,0,0-1.38-6.79,22.49,22.49,0,0,0-4.17-6.44,22.19,22.19,0,0,0-6-4.68l-.24-.12-.12-.07-.17-.08a14.53,14.53,0,0,0-7.95-1.58l-.13,0a12,12,0,0,0-4.44,1.27,10.1,10.1,0,0,0-4.27,4.36,35.41,35.41,0,0,0-2.68,7.62l-9.15,34.79Z"/><path class="cls-46" d="M502.5,549.27,510.72,518l17.43-2.64-8.22,31.32ZM526.2,571l12-45.82a44.42,44.42,0,0,1,3.56-9.86,18.71,18.71,0,0,1,8-8.07c4.49-2.36,10-3,16-1.94a37.8,37.8,0,0,1,17.2,8.53,48,48,0,0,1,14.5,21.61,31.52,31.52,0,0,1,1.57,11.46,21,21,0,0,1-2.87,9.68,16.71,16.71,0,0,1-8.16,6.8,25.32,25.32,0,0,1-6.15,1.82l-8.52,1.29-6.12,23.45-17.37,2.63,9.81-37.51.79-3.07,11.48-1.73c4-.61,8.29-1.26,10.63-4.4h.06a10.33,10.33,0,0,0,1.71-5.64,16.65,16.65,0,0,0-1.39-6.79,22.49,22.49,0,0,0-4.16-6.43,22.23,22.23,0,0,0-6-4.69l-.24-.12-.12-.07-.17-.08a14.53,14.53,0,0,0-8-1.58l-.13,0a11.87,11.87,0,0,0-4.43,1.27,10.07,10.07,0,0,0-4.28,4.36,35.41,35.41,0,0,0-2.68,7.62l-9.15,34.79Z"/><path class="cls-47" d="M590.24,621.06l-233.61,61.6h0a8,8,0,0,0-2.21.89c-.5.32-.65.58-.68.7s-.05.21.17.48a4.13,4.13,0,0,0,1.51,1h0l176.48,92.76a42,42,0,0,0,13.92,3.26,35.43,35.43,0,0,0,13.48-1.28l30.91-12Z"/><path class="cls-48" d="M238.93,661c.34-.16-60.94-111.35-60.94-111.35l39.49-19.5L276,644.3"/><path class="cls-48" d="M276,644.3c.33-.17-43.69-85.22-43.69-85.22l38.1-17.81,42.66,86.36"/><path class="cls-49" d="M549.35,782.75c-1.16,0-2.35,0-3.57-.13a42.88,42.88,0,0,1-14.26-3.35L355,686.48a5,5,0,0,1-1.87-1.31,1.47,1.47,0,0,1-.35-1.38,2.41,2.41,0,0,1,1.1-1.26,8.65,8.65,0,0,1,2.5-1L631.9,609.89a14.76,14.76,0,0,1,5.13-.36,22.58,22.58,0,0,1,5.82,1.08l188.62,54.62h0a29.76,29.76,0,0,1,5.21,2,8.53,8.53,0,0,1,2.86,2.14,1.74,1.74,0,0,1,.34,2,4.12,4.12,0,0,1-2.38,1.6L559.69,781.28A32.53,32.53,0,0,1,549.35,782.75ZM352.16,684.06a4.7,4.7,0,0,0,.85.49l.1.05,178.54,93.84a41.15,41.15,0,0,0,13.69,3.18,35,35,0,0,0,13.22-1.24l279.8-109.1c.63-.23.24-1,0-1.47a7.12,7.12,0,0,0-2.38-1.6,17.74,17.74,0,0,0-4-1.73L643.73,609.37a27.07,27.07,0,0,0-6.13-1,18,18,0,0,0-5.38.39L354.08,683.31A7.06,7.06,0,0,0,352.16,684.06Zm2.48.4Z"/><path class="cls-50" d="M797.24,548.07q26.57,3.52,53.73,8.86L901.1,450.72c-18.37-5.05-42.72-8.89-73.91-11.66Z"/><path class="cls-27" d="M577,635.77,565.12,639a2,2,0,0,1-1.21-.07l-4.63-1.59c-.31-.14-.39-.31-.09-.33l11.89-3.2a1.73,1.73,0,0,1,1.14.08l4.62,1.59C577.3,635.49,577.31,635.67,577,635.77Z"/><path class="cls-27" d="M560.34,640.3l-12.11,3.3a2.07,2.07,0,0,1-1.22-.07l-4.62-1.59c-.31-.14-.39-.31,0-.34l12.12-3.21a2,2,0,0,1,1.21.07l4.63,1.59C560.63,640,560.71,640.19,560.34,640.3Z"/><path class="cls-27" d="M543.44,644.85l-12.33,3.32a2.07,2.07,0,0,1-1.22-.07l-4.63-1.68c-.31-.14-.39-.31,0-.34l12.33-3.32a2.17,2.17,0,0,1,1.22.08l4.62,1.58C543.74,644.65,543.75,644.82,543.44,644.85Z"/><path class="cls-27" d="M526.18,649.51l-12.56,3.42a2,2,0,0,1-1.22-.07l-4.55-1.68c-.31-.14-.32-.31,0-.42l12.56-3.34a2,2,0,0,1,1.21.07l4.63,1.67C526.47,649.32,526.48,649.49,526.18,649.51Z"/><path class="cls-27" d="M508.61,654.28l-12.79,3.44a1.94,1.94,0,0,1-1.21-.07L490.05,656c-.31-.14-.31-.31,0-.42l12.79-3.44a2,2,0,0,1,1.21.07l4.56,1.68C508.9,654.09,508.91,654.26,508.61,654.28Z"/><path class="cls-27" d="M490.67,659.17l-13,3.55a2,2,0,0,1-1.21-.07l-4.56-1.77c-.31-.14-.32-.31,0-.42l13-3.46a1.94,1.94,0,0,1,1.21.07l4.56,1.68C491,658.89,491,659.06,490.67,659.17Z"/><path class="cls-27" d="M472.43,664.09l-13.31,3.56a1.88,1.88,0,0,1-1.22-.07l-4.48-1.77c-.31-.14-.32-.31.06-.43l13.23-3.56a1.84,1.84,0,0,1,1.21.07l4.56,1.76C472.79,663.8,472.81,664.05,472.43,664.09Z"/><path class="cls-27" d="M565.3,640.92l12.4-3.41a2.16,2.16,0,0,1,1.22.07l14.18,4.74c.38.14.39.31.09.42l-12.48,3.42a1.94,1.94,0,0,1-1.21-.08l-14.11-4.82C565,641.2,565,641,565.3,640.92Z"/><path class="cls-27" d="M547.73,645.69l12.63-3.42a2.07,2.07,0,0,1,1.22.07l14.11,4.83c.38.14.39.31.09.42l-12.7,3.51a2,2,0,0,1-1.22-.07l-14-4.92C547.37,646,547.36,645.81,547.73,645.69Z"/><path class="cls-27" d="M529.79,650.58l12.85-3.53a2,2,0,0,1,1.22.07l14,5c.39.14.39.31.1.42l-12.93,3.62a2,2,0,0,1-1.22-.07l-14-5C529.5,650.86,529.42,650.7,529.79,650.58Z"/><path class="cls-27" d="M511.48,655.59,524.63,652a2,2,0,0,1,1.22.07l14,5.1c.38.14.39.31,0,.42l-13.23,3.65a2.2,2.2,0,0,1-1.29-.06l-14-5.18C511.18,655.78,511.18,655.61,511.48,655.59Z"/><path class="cls-27" d="M492.86,660.62,506.24,657a1.87,1.87,0,0,1,1.22.07l13.9,5.18c.38.14.39.31,0,.43l-13.45,3.75a2.23,2.23,0,0,1-1.3-.06l-13.9-5.28C492.57,660.9,492.57,660.73,492.86,660.62Z"/><path class="cls-27" d="M473.88,665.76l13.68-3.68a1.84,1.84,0,0,1,1.21.07l13.83,5.28c.38.14.39.31,0,.42l-13.75,3.78a2.28,2.28,0,0,1-1.29-.07l-13.83-5.36C473.51,666.05,473.58,665.87,473.88,665.76Z"/><path class="cls-27" d="M454.51,671l13.91-3.79a2.28,2.28,0,0,1,1.29.07l13.75,5.37c.39.14.32.32,0,.43l-14,3.88a2.28,2.28,0,0,1-1.29-.07l-13.68-5.46C454.15,671.31,454.14,671.14,454.51,671Z"/><path class="cls-27" d="M463.72,680.78l14.12-4a2.2,2.2,0,0,1,1.29.06l14.14,5.59c.39.14.4.31,0,.43L479.1,687a2.09,2.09,0,0,1-1.29-.07l-14.07-5.68C463.36,681.15,463.34,680.9,463.72,680.78Z"/><path class="cls-27" d="M512.8,677.53l-13.89,4a2.27,2.27,0,0,1-1.29-.06l-14.15-5.6c-.38-.14-.32-.31,0-.42l13.9-3.88a2.28,2.28,0,0,1,1.29.07l14.22,5.5C513.16,677.16,513.18,677.42,512.8,677.53Z"/><path class="cls-27" d="M502.65,670l13.6-3.77a2.28,2.28,0,0,1,1.29.07l14.29,5.41c.39.14.39.31,0,.42L518.18,676a2.2,2.2,0,0,1-1.29-.07l-14.29-5.49C502.36,670.27,502.35,670.1,502.65,670Z"/><path class="cls-27" d="M521.56,664.76l13.3-3.74a2.31,2.31,0,0,1,1.29.07l14.35,5.23c.39.14.4.31,0,.43l-13.38,3.83a2.2,2.2,0,0,1-1.29-.07l-14.36-5.32C521.19,665.05,521.18,664.79,521.56,664.76Z"/><path class="cls-27" d="M541.16,659.57l13.08-3.64a1.94,1.94,0,0,1,1.21.08l14.43,5.14c.39.14.39.31.1.42l-13.15,3.72a2.3,2.3,0,0,1-1.29-.06L541.11,660C540.8,659.86,540.79,659.69,541.16,659.57Z"/><path class="cls-27" d="M558.25,654.49,571,651a1.94,1.94,0,0,1,1.21.07l14.5,5.05c.38.14.39.31.1.42L574,660.13a2.31,2.31,0,0,1-1.29-.07l-14.42-5.14C558,654.77,557.87,654.61,558.25,654.49Z"/><path class="cls-27" d="M576,649.53,588.58,646a2,2,0,0,1,1.22.08l14.57,5c.38.14.39.31.09.42l-12.62,3.59a2.3,2.3,0,0,1-1.29-.06l-14.5-5C575.74,649.81,575.73,649.64,576,649.53Z"/><path class="cls-27" d="M507.17,692.18l-14.34,4.17a2.56,2.56,0,0,1-1.37-.06l-14.53-5.9c-.39-.14-.4-.31,0-.43l14.27-4.08a2.16,2.16,0,0,1,1.29.07l14.61,5.81C507.53,691.9,507.55,692.15,507.17,692.18Z"/><path class="cls-27" d="M526.89,686.46l-14,4.06a2.19,2.19,0,0,1-1.3-.06l-14.61-5.82c-.38-.14-.39-.31,0-.42l14.05-4a2.2,2.2,0,0,1,1.29.06L526.94,686C527.18,686.18,527.26,686.43,526.89,686.46Z"/><path class="cls-27" d="M546.15,680.87l-13.81,4a2.28,2.28,0,0,1-1.29-.07l-14.68-5.63c-.39-.14-.39-.31,0-.43l13.74-3.95a2.28,2.28,0,0,1,1.29.07l14.75,5.54C546.44,680.59,546.53,680.84,546.15,680.87Z"/><path class="cls-27" d="M566.12,675.39l-13.51,3.93a2.31,2.31,0,0,1-1.3-.07l-14.74-5.54c-.39-.14-.4-.31,0-.43L550,669.44a2.28,2.28,0,0,1,1.29.07L566.1,675C566.41,675.11,566.42,675.28,566.12,675.39Z"/><path class="cls-27" d="M584.64,670l-13.22,3.81a2.2,2.2,0,0,1-1.29-.06l-14.82-5.45c-.38-.14-.39-.31-.09-.42l13.22-3.74a2.31,2.31,0,0,1,1.29.07l14.89,5.36C584.93,669.75,584.94,669.92,584.64,670Z"/><path class="cls-27" d="M601.64,664.78l-13,3.8a2.3,2.3,0,0,1-1.29-.06l-14.89-5.28c-.38-.14-.39-.31-.09-.42l12.92-3.71a2.31,2.31,0,0,1,1.29.07l14.88,5.19C601.93,664.5,602,664.67,601.64,664.78Z"/><path class="cls-27" d="M619.49,659.56l-12.69,3.69a2.34,2.34,0,0,1-1.3-.06l-15-5.19c-.39-.14-.4-.31-.1-.42l12.7-3.6a2.3,2.3,0,0,1,1.29.06l14.95,5.1C619.71,659.29,619.79,659.54,619.49,659.56Z"/><path class="cls-27" d="M537,697.18l-14.26,4.24a2.47,2.47,0,0,1-1.37-.06l-15-6c-.38-.14-.4-.4,0-.43l14.26-4.16a2.56,2.56,0,0,1,1.37.06l15.07,6C537.33,696.89,537.34,697.06,537,697.18Z"/><path class="cls-27" d="M556.53,691.39l-14,4.13a2.47,2.47,0,0,1-1.37-.06l-15.07-5.94c-.39-.14-.39-.31,0-.43l14-4.05a2.31,2.31,0,0,1,1.3.07l15.13,5.77C556.89,691,556.9,691.27,556.53,691.39Z"/><path class="cls-27" d="M575.71,685.63,562,689.74a2.47,2.47,0,0,1-1.37-.06l-15.14-5.76c-.38-.14-.39-.31,0-.43l13.67-4a2.28,2.28,0,0,1,1.29.07l15.21,5.68C576,685.35,576.09,685.51,575.71,685.63Z"/><path class="cls-27" d="M594.45,680.08l-13.43,4a2.23,2.23,0,0,1-1.3-.06l-15.21-5.68c-.38-.14-.39-.31-.09-.42L577.78,674a2.31,2.31,0,0,1,1.3.07l15.28,5.59C594.82,679.79,594.83,680,594.45,680.08Z"/><path class="cls-27" d="M612.89,674.55l-13.14,3.89a2.2,2.2,0,0,1-1.29-.06l-15.28-5.5c-.38-.14-.39-.31-.09-.42l13.14-3.81a2.3,2.3,0,0,1,1.29.06l15.35,5.41C613.18,674.27,613.19,674.44,612.89,674.55Z"/><path class="cls-27" d="M630.89,669.23,618,673.11a2.41,2.41,0,0,1-1.29-.07l-15.35-5.41c-.38-.14-.39-.31-.09-.42l12.84-3.79a2.31,2.31,0,0,1,1.29.07l15.42,5.32C631.17,669,631.26,669.11,630.89,669.23Z"/><path class="cls-27" d="M546.13,696.94l14-4.23a2.52,2.52,0,0,1,1.36.06l15.61,6c.38.14.47.39.1.5l-14,4.32a2.56,2.56,0,0,1-1.37-.06l-15.6-6.08C545.76,697.23,545.75,697.06,546.13,696.94Z"/><path class="cls-51" d="M565.53,691.08l86.59-25.9a2.43,2.43,0,0,1,1.3.06l15.87,5.37c.39.14.47.3.17.41L582.6,697.54a2.47,2.47,0,0,1-1.37-.06l-15.68-6C565.24,691.36,565.23,691.19,565.53,691.08Z"/><path class="cls-27" d="M458.41,723.19l.67-.23.45-.12,14.93-4.47a2.47,2.47,0,0,1,1.37.06l15.33,6.6c.38.14.4.4,0,.51l-6,1.87-5.82,1.76-.67.22a13.84,13.84,0,0,1-8.52-.58l-11.7-5.2C458,723.48,458,723.31,458.41,723.19Z"/><path class="cls-27" d="M420.58,706l30.25-8.64a2.56,2.56,0,0,1,1.37.06l14.4,6.09c.38.14.4.39,0,.51l-30.39,8.82a2.56,2.56,0,0,1-1.37-.06l-14.25-6.27Q420,706.2,420.58,706Z"/><path class="cls-27" d="M402.3,698l15-4.22a2.08,2.08,0,0,1,1.29.07l13.86,6c.39.14.33.4,0,.44l-15.09,4.31a2.56,2.56,0,0,1-1.37-.06l-13.79-6.14C401.86,698.24,401.92,698.07,402.3,698Z"/><path class="cls-27" d="M384.55,690.09l24.3-6.61a2.16,2.16,0,0,1,1.29.07l13.54,5.73c.31.14.32.31-.05.43l-24.44,6.79a2.16,2.16,0,0,1-1.29-.07l-13.4-5.91C384.11,690.38,384.18,690.2,384.55,690.09Z"/><path class="cls-27" d="M379.39,685.38l10.84-2.94a2.28,2.28,0,0,1,1.29.07l4.41,1.86c.31.14.32.32-.05.43l-14.35,3.91a2.19,2.19,0,0,1-1.29-.06l-1.4-.57C376.83,687.22,377.07,686,379.39,685.38Z"/><path class="cls-27" d="M415.54,679.52l-14.05,3.8a2.28,2.28,0,0,1-1.29-.07l-4.42-1.86c-.31-.15-.31-.32.06-.43l14.05-3.8a1.87,1.87,0,0,1,1.22.07l4.41,1.86C415.91,679.23,415.91,679.4,415.54,679.52Z"/><path class="cls-27" d="M434.9,674.25,421.07,678a1.91,1.91,0,0,1-1.21-.08l-4.41-1.86c-.31-.14-.32-.31.05-.43L429.26,672a2,2,0,0,1,1.21.07l4.49,1.86C435.27,674,435.2,674.23,434.9,674.25Z"/><path class="cls-27" d="M414.6,681.9,429.1,678a2.19,2.19,0,0,1,1.29.06L444,683.68c.39.14.32.32-.05.43l-14.58,4a2.16,2.16,0,0,1-1.29-.07l-13.54-5.73C414.24,682.19,414.23,682,414.6,681.9Z"/><path class="cls-27" d="M453.18,694.38l-14.79,4.2a2.47,2.47,0,0,1-1.37-.05l-13.93-6c-.31-.14-.32-.31.05-.43L437.86,688a2.2,2.2,0,0,1,1.3.06l14,5.87C453.62,694.09,453.56,694.27,453.18,694.38Z"/><path class="cls-27" d="M443.69,686.44l14.43-4a2.2,2.2,0,0,1,1.29.06l14.08,5.77c.38.14.39.31,0,.43L459,692.79a2.17,2.17,0,0,1-1.29-.06l-14-5.86C443.33,686.73,443.32,686.47,443.69,686.44Z"/><path class="cls-27" d="M456.66,695.72l14.64-4.19a2.09,2.09,0,0,1,1.29.07l14.55,6c.38.14.39.4,0,.51l-14.71,4.29a2.56,2.56,0,0,1-1.37-.06l-14.39-6.09Q456.11,695.9,456.66,695.72Z"/><path class="cls-27" d="M496.51,709.21l-20.24,6a2.52,2.52,0,0,1-1.36-.06l-14.79-6.4c-.39-.14-.4-.39.05-.52l20.16-5.84a2.56,2.56,0,0,1,1.37.06l14.93,6.22C496.87,708.92,496.88,709.09,496.51,709.21Z"/><path class="cls-27" d="M438.81,714.53l12.47-3.67,3.51-1.05a2.43,2.43,0,0,1,1.36.06l14.8,6.39c.38.14.39.4,0,.51l-1.42.46-14.63,4.36a2.43,2.43,0,0,1-1.36-.06l-14.72-6.48C438.45,714.91,438.44,714.65,438.81,714.53Z"/><path class="cls-27" d="M479.76,716.74l20.23-6a2.47,2.47,0,0,1,1.37.06l15.4,6.43c.38.14.39.39,0,.51l-20.37,6.2a2.88,2.88,0,0,1-1.45,0l-15.32-6.53C479.4,717.11,479.38,716.85,479.76,716.74Z"/><path class="cls-27" d="M448.34,682.47l-13.61-5.64c-.31-.14-.32-.31,0-.43l14.2-3.9a2.28,2.28,0,0,1,1.29.07L464,678.11c.39.14.32.32,0,.43l-14.27,4A2.44,2.44,0,0,1,448.34,682.47Z"/><path class="cls-27" d="M453.81,669.11l-13.53,3.68a2,2,0,0,1-1.21-.07l-4.49-1.86c-.31-.14-.32-.31.05-.43l13.53-3.67a1.87,1.87,0,0,1,1.22.07l4.48,1.77C454.18,668.91,454.19,669.08,453.81,669.11Z"/><path class="cls-27" d="M517,703.18l-14.63,4.36a2.56,2.56,0,0,1-1.37-.06L486,701.26c-.38-.14-.4-.39,0-.51l14.56-4.27a2.52,2.52,0,0,1,1.36.06l15,6C517.32,702.8,517.34,703.06,517,703.18Z"/><path class="cls-27" d="M505.89,709l14.63-4.36a2.56,2.56,0,0,1,1.37.06l15.46,6.26c.39.14.4.39,0,.51l-14.71,4.45a2.43,2.43,0,0,1-1.36-.06l-15.4-6.35C505.52,709.24,505.51,709.07,505.89,709Z"/><path class="cls-27" d="M526.19,702.85l14.33-4.25a2.55,2.55,0,0,1,1.37,0l15.54,6.17c.38.14.4.39.1.5l-14.4,4.43a2.47,2.47,0,0,1-1.37-.06l-15.54-6.25C525.91,703.21,525.82,703,526.19,702.85Z"/><path class="cls-52" d="M574.47,433.28s80.62-7.83,147.43,28.12"/><path class="cls-53" d="M844.39,428.67c17.35-15.87,52.13-50.9,67.35-66.43-4.3-11.84-14.94-36.53-23.06-40.59-10.15-5.08-78.67-5.45-83.28-4.06s-40.7,78.15-48.54,89.68-9.8,18.17,4.5,26.48,31.83,14.76,51.66,12.91S822.71,448.51,844.39,428.67Z"/><path class="cls-54" d="M787.5,426.72s79-99.42,76.85-100.4-28.23-14.21-29.84-10.93-57.62,89.36-57.62,89.36S778.59,438,787.5,426.72Z"/><path class="cls-55" d="M762.8,475.55c-2.26,2.91-13.95,36-71.3,71"/><path class="cls-56" d="M772.43,424.11c-2-7.92-10.62-14.62-16.52-14.62l45.79-89.68c16.62,1.24,50.21,3.46,51.53,2.47S799.91,389.75,772.43,424.11Z"/><g class="cls-57"><ellipse class="cls-31" cx="614.18" cy="679.32" rx="91.01" ry="23.73"/><path class="cls-31" d="M614.18,655.22a309.05,309.05,0,0,1,48.89,3.71,149.7,149.7,0,0,1,23.87,5.72,59.3,59.3,0,0,1,11.24,5.05,23.28,23.28,0,0,1,4.87,3.88,7.73,7.73,0,0,1,0,11.49,22.71,22.71,0,0,1-4.86,3.89A60.22,60.22,0,0,1,687,694a151.29,151.29,0,0,1-23.88,5.76,306.87,306.87,0,0,1-48.9,3.75,302.29,302.29,0,0,1-48.91-3.73,150.76,150.76,0,0,1-23.88-5.76A59.38,59.38,0,0,1,530.15,689a23.06,23.06,0,0,1-4.87-3.9,7.74,7.74,0,0,1,0-11.51,22.76,22.76,0,0,1,4.87-3.89,58.68,58.68,0,0,1,11.24-5,149.84,149.84,0,0,1,23.88-5.73A306.71,306.71,0,0,1,614.18,655.22Zm0,.74a306.14,306.14,0,0,0-48.77,3.74,150.28,150.28,0,0,0-23.73,5.73,58.35,58.35,0,0,0-11.07,5,22.12,22.12,0,0,0-4.67,3.74,6.88,6.88,0,0,0,0,10.34,22.35,22.35,0,0,0,4.68,3.72,57.7,57.7,0,0,0,11.07,5,149.08,149.08,0,0,0,23.73,5.69,308.32,308.32,0,0,0,48.76,3.69,303.6,303.6,0,0,0,48.75-3.67,149.2,149.2,0,0,0,23.74-5.69,58.06,58.06,0,0,0,11.08-5,22,22,0,0,0,4.67-3.73,6.89,6.89,0,0,0,0-10.36,22.42,22.42,0,0,0-4.67-3.75,58.72,58.72,0,0,0-11.08-5,148.23,148.23,0,0,0-23.74-5.73A301.49,301.49,0,0,0,614.18,656Z"/></g><g class="cls-57"><ellipse class="cls-31" cx="611.92" cy="679.32" rx="44.53" ry="11.61"/><path class="cls-31" d="M611.92,667.34a151.39,151.39,0,0,1,24,1.8,73.07,73.07,0,0,1,11.71,2.8,29,29,0,0,1,5.55,2.49,11.21,11.21,0,0,1,2.43,1.94,4.6,4.6,0,0,1,1.31,3,4.53,4.53,0,0,1-1.31,3,11.51,11.51,0,0,1-2.42,2,29.25,29.25,0,0,1-5.54,2.5,73.31,73.31,0,0,1-11.72,2.84,150.39,150.39,0,0,1-24,1.85,147,147,0,0,1-24-1.84,73,73,0,0,1-11.72-2.83,29,29,0,0,1-5.54-2.51,11,11,0,0,1-2.43-2,4,4,0,0,1,0-5.93,11.62,11.62,0,0,1,2.44-2,29.55,29.55,0,0,1,5.54-2.49,75.4,75.4,0,0,1,11.72-2.8A149.13,149.13,0,0,1,611.92,667.34Zm0,.75a149.5,149.5,0,0,0-23.82,1.84,73.48,73.48,0,0,0-11.58,2.8,28.26,28.26,0,0,0-5.37,2.42,10.62,10.62,0,0,0-2.23,1.79,3.72,3.72,0,0,0-1.09,2.38,3.77,3.77,0,0,0,1.09,2.38,10.9,10.9,0,0,0,2.24,1.78,28.82,28.82,0,0,0,5.37,2.4,73.4,73.4,0,0,0,11.58,2.77,151.69,151.69,0,0,0,23.81,1.79,149.44,149.44,0,0,0,23.82-1.78,73.91,73.91,0,0,0,11.58-2.76,28.22,28.22,0,0,0,5.37-2.41,10.9,10.9,0,0,0,2.24-1.78,3.16,3.16,0,0,0,0-4.78,11,11,0,0,0-2.24-1.79,28.26,28.26,0,0,0-5.37-2.42,71.59,71.59,0,0,0-11.58-2.8A146.11,146.11,0,0,0,611.92,668.09Z"/></g><path class="cls-58" d="M586.22,647.45a393.45,393.45,0,0,1,52.19-.14,295.23,295.23,0,0,1,47,6.52"/><path class="cls-59" d="M566.36,709.58c-25.72-3.32-46.28-9.26-57.74-16.68s-13-15.78-4.38-23.51"/><path class="cls-60" d="M604,686.54c.29,0,19.75,1.67,20.35-5.85s-21.16-5.28-21.16-5.28-90.95-4.56-138.17-4.49l-33.33,7.89s33.56,9.7,60.42,9.58S575.09,686.74,604,686.54Z"/><path class="cls-61" d="M728,679.5c0,7.31-8.45,14.42-24,20.2s-37.37,9.91-62,11.74"/><path class="cls-53" d="M798.94,466.52l14.43-22.34-29.26-18.43c-12,9.41-32.38,29.71-18.24,35.64S793.81,467.28,798.94,466.52Z"/><path class="cls-53" d="M813.42,466.55c-2.34-8.65-6-13.27-7.52-14.49l-36.32-22.41c-6.72,2.16-22.47,8.26-31.76,15.36-11.61,8.88-73.5,84.32-84.11,97.68-8.48,10.69,5.9,29.86,14.15,38.12l-34.19,63.26L607,670.79c-11.39,11.4-5.11,17.29,14.54,13s33.79-29.47,44-36.15c8.17-5.35,23-25.19,29.46-34.44,15.09-14,8.12-1.94,9.43,4.93,1.63,8.59,16.74,0,29.42-4.93S760,609.9,768.17,607s26.75-35,37.73-64S816.36,477.37,813.42,466.55Z"/><path class="cls-62" d="M811.27,459c3.24,11.49,6.94,43.24-4.19,78.38-13.92,43.93-31.94,61.68-37.73,63s-27.8,7.44-38.92,12-23.51,13-26.06,6.07c-2-5.59,1.22-15.07,9.25-21.06"/><path class="cls-62" d="M794.37,491.68c-.74,15.73-4.66,53.41-14.4,78.34-12.18,31.16-38.26,31.65-44,33.38s-13.8,8-24.3,15.23"/><path class="cls-40" d="M736.06,453.1a77.93,77.93,0,0,0,2.4,11.29,52.33,52.33,0,0,0,1.88,5.45,27.77,27.77,0,0,0,2.61,5.09,11,11,0,0,0,4,3.88c1.69.95,3.41,1.83,5.13,2.7,3.46,1.71,7,3.3,10.59,4.71a99.68,99.68,0,0,0,11,3.63,58,58,0,0,0,11.4,1.9c1,0,1.92.07,2.89.06l2.9-.06c1.93-.07,3.86-.17,5.79-.33s3.85-.37,5.76-.66a33.34,33.34,0,0,0,5.64-1.24h0a.13.13,0,0,1,.18.09.14.14,0,0,1-.09.18,33.84,33.84,0,0,1-5.68,1.3q-2.88.45-5.79.7t-5.81.37l-2.9.1c-1,0-2,0-2.93,0a59,59,0,0,1-11.51-1.83,100.14,100.14,0,0,1-11.09-3.57c-3.63-1.39-7.19-3-10.68-4.66-1.74-.86-3.48-1.73-5.18-2.67a12,12,0,0,1-4.29-4.1,29.45,29.45,0,0,1-2.72-5.22,52.45,52.45,0,0,1-1.95-5.52,79.58,79.58,0,0,1-2.52-11.41.5.5,0,1,1,1-.15h0Z"/><path class="cls-62" d="M743.52,544.07c2.84,3,9.69,9.59,14.42,11.35,5.93,2.2,7.58,4.87,6.48,8.94s-13.26,21.21-19.27,24.2a160.82,160.82,0,0,1-15,6.18"/><path class="cls-62" d="M720.27,554.52c-.43-3.13-.27-9.8,3.79-11.47,5.08-2.09,11.07,9.57,15.18,11.36s11.36,6,9.53,8.73-11.37,29.1-24.53,34.15c-10.53,4.05-15.43,2.45-16.57,1.14"/><path class="cls-62" d="M670.07,575.81c-3,6.44-10.06,19.41-12.92,25S640,632.58,633.27,645c-10.33,8.85-31.19,27.72-32,32.43-1,5.89,1.8,10,17.4,7s26-12.87,36.92-28.75c12.24-5.33,44.68-46.27,49.58-53.44"/><path class="cls-40" d="M682.3,592.37c-2.27,5.28-4.8,10.43-7.5,15.49s-5.6,10-8.69,14.87a163.73,163.73,0,0,1-10,14,89.57,89.57,0,0,1-11.9,12.5.5.5,0,1,1-.65-.76h0a88.31,88.31,0,0,0,11.87-12.27,163.39,163.39,0,0,0,10.06-13.88c3.12-4.8,6-9.73,8.78-14.75s5.31-10.15,7.62-15.39a.21.21,0,0,1,.27-.11A.22.22,0,0,1,682.3,592.37Z"/><path class="cls-40" d="M639.74,655.13a31.83,31.83,0,0,1-3,4.67q-1.63,2.22-3.38,4.36c-2.32,2.85-4.74,5.62-7.29,8.28a99.35,99.35,0,0,1-8,7.59,51.53,51.53,0,0,1-4.48,3.29,26.43,26.43,0,0,1-2.43,1.4,7.12,7.12,0,0,1-1.29.57l-1.33.51a.49.49,0,0,1-.64-.28.5.5,0,0,1,.28-.65h0l.06,0c3.38-1.07,6.41-3.24,9.26-5.47a97.43,97.43,0,0,0,8.06-7.42c2.57-2.61,5-5.34,7.37-8.15,1.17-1.4,2.32-2.83,3.42-4.29a31.13,31.13,0,0,0,3-4.54v0a.21.21,0,0,1,.28-.09A.2.2,0,0,1,639.74,655.13Z"/><path class="cls-56" d="M732.91,449.86s2.12,19.82,3.63,22.75-79.74,91.72-80.93,92.12-7-16.87-5.83-18.18S733.27,447.36,732.91,449.86Z"/><path class="cls-63" d="M652.07,553.79s11.43-1.71,12,0c4.59,13.56,26.15,34.15,28.44,35.86,0,0-8.43,3.9-9.23,5.09S670,585.26,663,576.62,650.3,554.48,652.07,553.79Z"/><path class="cls-56" d="M699.85,545.67s15,17.05,14,19.07-2.1,10.52-10.55,15.28-14.35,13.31-19,11.88-.9-9.14.17-10,18.23-13.92,19.3-15.71-.35-2.74-3.8-6.78S694.66,544.3,699.85,545.67Z"/><path class="cls-40" d="M704.19,565.73a19.36,19.36,0,0,1-4.43-6c-.56-1.11-1-2.26-1.47-3.38s-.92-2.28-1.32-3.44a15.5,15.5,0,0,1-.84-3.65,5,5,0,0,1,.22-1.95,3,3,0,0,1,1.22-1.61,8.17,8.17,0,0,1,3.61-1.19,13.44,13.44,0,0,1,3.75.12,20.12,20.12,0,0,1,7,2.61,35.22,35.22,0,0,1,5.68,4.76c1.74,1.72,3.41,3.51,5.09,5.28s3.34,3.57,5.15,5.15c.23.19.45.4.68.57s.45.3.74.55a2.46,2.46,0,0,1,.78,2,11.35,11.35,0,0,1-.83,3.7,48,48,0,0,1-3.24,6.64,126.76,126.76,0,0,1-8.06,12.29c-1.47,2-2.93,3.92-4.57,5.78a22.55,22.55,0,0,1-5.69,4.81,11.55,11.55,0,0,1-11,.36,8.07,8.07,0,0,1-2.91-2.58.51.51,0,0,1,.14-.7.5.5,0,0,1,.69.14h0l0,0a7,7,0,0,0,2.52,2.22,10.45,10.45,0,0,0,3.32,1,10.61,10.61,0,0,0,6.75-1.35c4.16-2.36,7.05-6.45,10-10.29a130.79,130.79,0,0,0,8-12.18,47.81,47.81,0,0,0,3.19-6.51,10.43,10.43,0,0,0,.79-3.4,1.69,1.69,0,0,0-.46-1.33c-.16-.15-.49-.36-.72-.54s-.48-.4-.73-.6c-1.86-1.64-3.51-3.45-5.19-5.22s-3.33-3.57-5.06-5.29a34.12,34.12,0,0,0-5.51-4.65,19.26,19.26,0,0,0-6.68-2.54,12.81,12.81,0,0,0-3.55-.12,7.39,7.39,0,0,0-3.28,1.06,3,3,0,0,0-1.14,2.91,15.27,15.27,0,0,0,.79,3.47c.39,1.15.84,2.28,1.3,3.4s.9,2.27,1.44,3.34a18.78,18.78,0,0,0,4.22,5.75l0,0a.34.34,0,0,1,0,.47A.33.33,0,0,1,704.19,565.73Z"/><path class="cls-63" d="M633.13,647c.48,1.54,5.35,5.63,6.42,4.62s35.66-59.15,33.82-60.52-5.27-8-6.1-7.24S632.66,645.44,633.13,647Z"/><path class="cls-4" d="M799.1,497.55c-1.42-.09-7.83,55-11.89,66.28s9.82-5.12,14.19-15.51c8.61-20.44,9-48.22,11-53.82C812.7,493.79,800.72,497.66,799.1,497.55Z"/><path class="cls-63" d="M777,497.08s13.33-4.29,13.1,0-8.1,59.73-11.43,60.33-21.9-6.61-20.71-10.86S777,497.08,777,497.08Z"/><path class="cls-4" d="M805.79,445.22l27.62-8.44,79-81.69c-4.28-3.1-7.46-28.39-7.46-28.39Z"/><path class="cls-4" d="M642.2,652.05s9.74.22,11.62-.27,50.06-48.51,48.91-49.19-18.58-7.9-19.45-6.28C658.05,643.41,641.31,651.89,642.2,652.05Z"/><path class="cls-4" d="M617.48,683.41s13-4.61,14.73-5.42,17.69-20.36,16.52-20.45-6.41.55-8,.38S631.13,673.94,617.48,683.41Z"/><path class="cls-62" d="M737.94,443.76C736.82,446,656.2,537.92,651,545s6.45,31.47,31.33,50c.69.13,4.68-1.63,15-9.72,13-10.1,15.19-13.63,15-15.65-.18-1.61,2.81-4.6-.08-9.86"/><path class="cls-40" d="M912,362a13.19,13.19,0,0,0-1.29,1.07c-.45.4-.89.81-1.33,1.23l-2.62,2.51-5.18,5.11-10.29,10.31-20.53,20.66c-6.86,6.87-13.73,13.74-20.66,20.54S836.15,437,828.91,443.51l-.07.05a29.35,29.35,0,0,1-5.93,2.58c-1,.36-2.06.61-3.1.9s-2.09.48-3.15.66a55.47,55.47,0,0,1-12.8.74,59.57,59.57,0,0,1-12.65-2.08,87.9,87.9,0,0,1-12-4.46c-3.91-1.69-7.8-3.4-11.64-5.25a78.49,78.49,0,0,1-11.18-6.24,16.85,16.85,0,0,1-4.53-4.61,9.83,9.83,0,0,1-1.2-6.34,13.27,13.27,0,0,1,1-3.11q.65-1.47,1.35-2.91c.94-1.91,1.92-3.8,2.92-5.68,4-7.5,8.23-14.89,12.4-22.31s8.33-14.82,12.43-22.27c8.2-14.9,16.18-29.92,23.64-45.2a.11.11,0,0,1,.14-.05.1.1,0,0,1,0,.14c-7.41,15.31-15.33,30.37-23.48,45.29q-6.12,11.2-12.36,22.33c-4.13,7.43-8.31,14.84-12.3,22.34-1,1.88-2,3.76-2.9,5.67q-.69,1.43-1.32,2.88a13.25,13.25,0,0,0-.93,2.95,9.24,9.24,0,0,0,1.14,5.94,16,16,0,0,0,4.37,4.4A78.14,78.14,0,0,0,767.88,436c3.83,1.82,7.73,3.52,11.64,5.19a85.37,85.37,0,0,0,11.9,4.38,58.65,58.65,0,0,0,12.48,2,54.77,54.77,0,0,0,12.6-.77c1-.18,2.07-.43,3.09-.66s2-.53,3-.89a29.06,29.06,0,0,0,5.73-2.52l-.07.06c7.19-6.51,14.14-13.29,21.08-20.08S863.15,409.08,870,402.2l20.53-20.66,10.29-10.31,5.19-5.12,2.63-2.52c.44-.42.89-.84,1.35-1.25l.7-.61a6.18,6.18,0,0,1,.83-.61.49.49,0,0,1,.68.15.5.5,0,0,1-.14.68Z"/><path class="cls-40" d="M811.07,448.67l-4.19,6.48a.49.49,0,0,1-.42.23h0a23.37,23.37,0,0,0-4.4.23c-1.48.2-3,.46-4.43.74-3,.58-5.88,1.27-8.8,2s-5.84,1.48-8.76,2.24-5.82,1.56-8.79,2.15a.09.09,0,0,1-.11-.08.09.09,0,0,1,.08-.12c2.93-.65,5.82-1.53,8.72-2.34s5.79-1.65,8.71-2.43,5.83-1.54,8.78-2.19c1.48-.32,3-.62,4.47-.85a25,25,0,0,1,4.6-.34h0l-.45.23,4.19-6.49a.5.5,0,0,1,.84.55Z"/><path class="cls-40" d="M736.19,445.5a1.67,1.67,0,0,0,.26,1,10.06,10.06,0,0,0,.83,1.29,29.29,29.29,0,0,0,2.06,2.42c1.45,1.56,3,3.07,4.54,4.54,3.13,3,6.36,5.8,9.6,8.63s6.43,5.74,9.88,8.27a61.27,61.27,0,0,0,5.34,3.57c.92.53,1.86,1,2.82,1.49a12.52,12.52,0,0,0,1.45.58,10.62,10.62,0,0,0,1.51.3,18.28,18.28,0,0,0,6.26-.63,40.87,40.87,0,0,0,6-2.13,77.73,77.73,0,0,0,11.29-6.17,75.69,75.69,0,0,0,10.2-7.87,25.48,25.48,0,0,0,2.19-2.34,7.27,7.27,0,0,0,.87-1.31,1.72,1.72,0,0,0,.12-1.45,1,1,0,0,0-1.19-.6c-.52,0-1,.12-1.6.17a3,3,0,0,1-1.64-.19,2.11,2.11,0,0,1-1-1.31.12.12,0,0,1,.07-.13.1.1,0,0,1,.13.06h0a1.89,1.89,0,0,0,.9,1.17,2.82,2.82,0,0,0,1.53.16c.53-.06,1.06-.17,1.61-.2a2.08,2.08,0,0,1,.85.11.89.89,0,0,1,.37.26c0,.06.11.12.15.18l.09.21a1.07,1.07,0,0,1,.1.42,3,3,0,0,1,0,.42l-.08.44-.16.39a8,8,0,0,1-.89,1.39,26.29,26.29,0,0,1-2.2,2.39,75.75,75.75,0,0,1-10.17,8,79.22,79.22,0,0,1-11.3,6.35,42.18,42.18,0,0,1-6.12,2.23,18.84,18.84,0,0,1-6.53.72,12,12,0,0,1-1.65-.31,12.64,12.64,0,0,1-1.56-.61c-1-.45-2-1-2.91-1.49a62.2,62.2,0,0,1-5.45-3.56c-1.76-1.27-3.46-2.62-5.11-4l-4.89-4.23c-3.26-2.83-6.51-5.67-9.66-8.64-1.57-1.48-3.13-3-4.59-4.59a28.56,28.56,0,0,1-2.11-2.53,10.25,10.25,0,0,1-.91-1.43,3.58,3.58,0,0,1-.33-.87,1.56,1.56,0,0,1,.13-1.17.5.5,0,0,1,.68-.19.5.5,0,0,1,.2.68Z"/><ellipse class="cls-64" cx="765.3" cy="424.96" rx="23.51" ry="15.36" transform="translate(261.34 1140.71) rotate(-83.89)"/><ellipse class="cls-65" cx="759.33" cy="424.63" rx="23.51" ry="15.36" transform="translate(256.33 1134.47) rotate(-83.89)"/><path class="cls-56" d="M740.51,478.06s29.15,14.84,30.72,15.38-33.29,46.64-33.29,46.64l-60.82,5.47Z"/><path class="cls-40" d="M660.51,534.19c0,.06.25.4.44.65l.64.8c.44.52.91,1,1.37,1.55.95,1,1.9,2,2.89,3,2,2,4,3.91,6.07,5.74a25.75,25.75,0,0,0,3.26,2.51,9.92,9.92,0,0,0,3.92,1,26.13,26.13,0,0,0,4.15,0,17.57,17.57,0,0,0,4.06-.66h0a.17.17,0,0,1,.21.11.17.17,0,0,1-.11.2,17.64,17.64,0,0,1-4.16.78,28.3,28.3,0,0,1-4.22.07,10.4,10.4,0,0,1-4.16-1,26.13,26.13,0,0,1-3.41-2.52c-2.16-1.8-4.22-3.69-6.23-5.64-1-1-2-2-3-3-.48-.51-1-1-1.43-1.56-.23-.26-.46-.55-.69-.82a3.46,3.46,0,0,1-.65-1.13.45.45,0,0,1,.29-.56.44.44,0,0,1,.49.16Z"/><path class="cls-40" d="M681,510.12a13.61,13.61,0,0,0,1.45,2.09c.55.7,1.13,1.38,1.71,2.06,1.15,1.35,2.35,2.68,3.55,4q3.62,4,7.37,7.81h0v0a4.12,4.12,0,0,0,1.78.93,18.77,18.77,0,0,0,2.12.53c1.44.29,2.91.49,4.37.65s3,.28,4.42.36a36.23,36.23,0,0,0,4.42,0h0a.17.17,0,0,1,.18.15.16.16,0,0,1-.15.17,33.4,33.4,0,0,1-4.47.07c-1.49,0-3-.14-4.45-.28s-3-.31-4.44-.58c-.73-.14-1.46-.3-2.19-.51a8.79,8.79,0,0,1-1.08-.4,2.65,2.65,0,0,1-1-.72l0,0q-3.82-3.78-7.52-7.7c-1.23-1.3-2.45-2.62-3.64-4-.6-.67-1.19-1.35-1.76-2.05a13.23,13.23,0,0,1-1.63-2.3.5.5,0,0,1,.22-.67.49.49,0,0,1,.67.22h0Z"/><path class="cls-40" d="M710.45,478a11.4,11.4,0,0,0,.76,2.32c.32.78.67,1.56,1,2.34.74,1.54,1.53,3.07,2.35,4.58,1.64,3,3.39,6,5.27,8.86,1,1.43,1.92,2.85,3,4.19a22,22,0,0,0,1.67,1.93,5.36,5.36,0,0,0,2,1.41,36.13,36.13,0,0,0,10,2.19.15.15,0,0,1,.15.17.17.17,0,0,1-.17.16,44.5,44.5,0,0,1-5.15-.67,26.71,26.71,0,0,1-5-1.39,5.07,5.07,0,0,1-1.2-.62,7.7,7.7,0,0,1-1-.87,21.55,21.55,0,0,1-1.75-1.95c-1.1-1.34-2.11-2.75-3.08-4.18-2-2.86-3.75-5.82-5.45-8.83-.85-1.5-1.67-3-2.44-4.58q-.58-1.17-1.11-2.37a12,12,0,0,1-.86-2.58.5.5,0,1,1,1-.17h0Z"/><path class="cls-62" d="M671.84,640.73c-2.73-.67-13,1.64-20.33-5.69-5.85-5.86-7.47-9.43-7.24-10.27m14-26.75c3,4.51,11.28,13.28,20.87,12.29"/><path class="cls-66" d="M311.25,746.57s13.82,15,19.82,21.09c0,0,15-16,23.57-22.92l-18.47-15.48S319.34,740.39,311.25,746.57Z"/><path class="cls-67" d="M297.94,755.67s7.84,28.07,70.05,75.81"/><path class="cls-68" d="M402.37,721.66c-1.65.91-46.52,30.65-91.12,98"/><polyline class="cls-69" points="517.27 374.38 501.15 318.02 551.36 316.89"/><path class="cls-70" d="M366.81,858.77,363,871.3a162.78,162.78,0,0,0,29.44,12.81l2.07-9.29S377.77,866.21,366.81,858.77Z"/><path class="cls-70" d="M384.22,827.57S436.46,863.13,510,869.22l1.87-29.91s-30-3.26-45.7-7.83L462.94,846s-39.91-9.39-74.22-27.39A87.86,87.86,0,0,0,384.22,827.57Z"/><path class="cls-71" d="M763.22,620.15c9.61,2.56,32.69,9.23,32.69,9.23L782.7,642.2l29.42,10.22c13-12.19,18.48-23.55,18.48-23.55L768.22,616Z"/><path class="cls-72" d="M981.83,356.06H587.7s-7.82-57.12,54.73-46.37,16-71.45,56.41-105.15S820.37,273,820.37,273s47.71-56.22,84.35,40.84C904.72,313.83,955.5,303.89,981.83,356.06Z"/><line class="cls-73" x1="623.33" y1="308.35" x2="633.67" y2="356.06"/><line class="cls-74" x1="677.64" y1="254.4" x2="699.68" y2="356.06"/><line class="cls-75" x1="730.81" y1="194.05" x2="765.93" y2="356.06"/><line class="cls-76" x1="809.89" y1="254.4" x2="831.93" y2="356.06"/><line class="cls-77" x1="875.36" y1="254.4" x2="897.39" y2="356.06"/><line class="cls-78" x1="943.49" y1="254.4" x2="965.53" y2="356.06"/><path class="cls-79" d="M543.34,351.28l15.52-49.47,7.19-4.17-16.57,47.88Z"/><path class="cls-80" d="M567.94,294.81l-9.57,7.37,55.78,33.14,9.19-8.61Z"/><path class="cls-79" d="M614.15,335.32l3.7-90.63,9.3-5.62-3.81,87.64Z"/><path class="cls-80" d="M697.09,294.3l-68.71-57.41-10.53,7.8L689.8,300Z"/><path class="cls-79" d="M689.8,300,699,165.18l8.4-6.22L697.09,294.3Z"/><path class="cls-81" d="M770.55,373.74s18.13,43.33,19.51,40.46,22.64-30.54,22.64-30.54l-15.86-29.8,7.47-13.6L791.63,326.7Z"/><path class="cls-82" d="M849.15,429.25s-51.89-5-49.62-7.23,26.7-29.5,26.7-29.5l33.3,5.45L870,386.53l13.54,3.2Z"/><polygon class="cls-63" points="667.72 555.87 684.03 576.48 696.39 566.83 691.5 558.87 667.72 555.87"/><path class="cls-4" d="M685.72,595c.53.76,17.09,3.91,18.92,3s21.9-18.41,23.73-30.93l-13-2.35s-.65,8.09-4.17,11.74S685.72,595,685.72,595Z"/><path class="cls-4" d="M732.94,564.74l14.51-2.22s-12.68,30.24-24,33.79-14.09,1.88-14.09,1.88,15.77-12.33,19-24.26S732.94,564.74,732.94,564.74Z"/><path class="cls-4" d="M752.42,563.11l10.69-1.63s-9.34,22.29-17.71,24.9-11.81,5.91-11.81,5.91,13-13.61,15.46-22.4S752.42,563.11,752.42,563.11Z"/><path class="cls-83" d="M934.45,374.33H696s16.93-46.1,54.77-39.59,4.48-23.38,29-43.77,54.16,14.34,54.16,14.34,31.75-15.44,53.91,43.28C887.8,348.59,918.52,342.77,934.45,374.33Z"/><path class="cls-84" d="M756.67,491.68l-37.42,47.11S737.89,537.35,738,537s32-41.44,31.5-41.79S756.67,491.68,756.67,491.68Z"/><path class="cls-85" d="M777,497.08c-5.73,10.2-19.76,48.47-22.37,51.24m1.95-59.75c-9.09,11.39-40.83,50.53-46.79,55.73m61.53-49.13c-4,6.59-27.65,39.07-29.47,44.91"/><polygon class="cls-86" points="517.12 476.25 495.6 412.2 552.55 412.2 576.29 474.8 517.12 476.25"/><path class="cls-87" d="M565.54,444.57c.51,5.25-.56,18-7.77,5.25-9.21-16.31-23.65-41.9-20.15-12,4.59,39.33,4.64,59.78-11.42,33.41-17.26-28.33-25.05-52.85-30.6-39.63"/><polyline class="cls-88" points="667.72 397.5 676.2 388.47 685.73 397.5 694.95 388.28 704.27 397.61 713.9 387.98 723.26 397.33 732.46 388.14 741.21 396.89"/><ellipse class="cls-31" cx="618.91" cy="792.65" rx="13.3" ry="8.41" transform="translate(-82.21 71.7) rotate(-6.22)"/><ellipse class="cls-31" cx="332.97" cy="745.87" rx="7.91" ry="5.35" transform="translate(-191.34 119.54) rotate(-15.88)"/><path class="cls-89" d="M722.62,764.37l23,19.57s24.46-14.85,38.74-26.7l-24.56-13S749,750.52,722.62,764.37Z"/><path class="cls-90" d="M824.51,756s22.82-18.52,47.34-55.57"/><path class="cls-91" d="M816.38,753.18a93.09,93.09,0,0,0,18-16.39"/><path class="cls-92" d="M809.29,749.53s10.84-7.45,18.09-14.89"/><path class="cls-70" d="M819,611.37c1.18,0,85,13.5,85,13.5s-1.55,10-2.78,15l-89.56-19.71Z"/><path class="cls-93" d="M725.49,378s7.81-59.22,55.29-51.26,60.4,54.35,105.59-2.24"/></g></svg>