<svg xmlns="http://www.w3.org/2000/svg" xmlns:xlink="http://www.w3.org/1999/xlink" viewBox="0 0 1080 1080"><defs><style>.cls-1{fill:#ebebeb;}.cls-2{fill:url(#linear-gradient);}.cls-3{fill:url(#linear-gradient-2);}.cls-11,.cls-12,.cls-14,.cls-15,.cls-16,.cls-17,.cls-18,.cls-19,.cls-21,.cls-24,.cls-25,.cls-29,.cls-33,.cls-36,.cls-37,.cls-4,.cls-44,.cls-53,.cls-55,.cls-58,.cls-59,.cls-60,.cls-62,.cls-71,.cls-74,.cls-75{fill:none;}.cls-33,.cls-4{stroke:#6a91d6;}.cls-11,.cls-12,.cls-14,.cls-15,.cls-16,.cls-17,.cls-18,.cls-19,.cls-25,.cls-33,.cls-36,.cls-37,.cls-4,.cls-53,.cls-55,.cls-62,.cls-75{stroke-miterlimit:10;}.cls-4{opacity:0.56;}.cls-5{fill:url(#linear-gradient-3);}.cls-6{fill:url(#linear-gradient-4);}.cls-7{fill:url(#linear-gradient-5);}.cls-8{fill:url(#linear-gradient-6);}.cls-9{fill:url(#linear-gradient-7);}.cls-10{fill:url(#linear-gradient-8);}.cls-11,.cls-14,.cls-15,.cls-16,.cls-17,.cls-19{stroke-width:3px;}.cls-11{stroke:url(#linear-gradient-9);}.cls-12,.cls-50{stroke-width:2px;}.cls-12{stroke:url(#linear-gradient-10);}.cls-13{fill:url(#linear-gradient-11);}.cls-14{stroke:url(#linear-gradient-12);}.cls-15{stroke:url(#linear-gradient-13);}.cls-16{stroke:url(#linear-gradient-14);}.cls-17{stroke:url(#linear-gradient-15);}.cls-18{stroke:url(#linear-gradient-16);}.cls-19{stroke:url(#linear-gradient-17);}.cls-20{fill:url(#linear-gradient-18);}.cls-21,.cls-77{stroke:#9fbdff;}.cls-21,.cls-24,.cls-29,.cls-45,.cls-58,.cls-59,.cls-60,.cls-74,.cls-77{stroke-linejoin:round;}.cls-22{fill:#f9b471;}.cls-23{fill:#6b90d6;}.cls-24,.cls-44,.cls-50,.cls-76{stroke:#113291;}.cls-24,.cls-29,.cls-44,.cls-45,.cls-71,.cls-74,.cls-76{stroke-linecap:round;}.cls-25{stroke:#fff;}.cls-26{opacity:0.51;fill:url(#linear-gradient-19);}.cls-27{fill:url(#linear-gradient-20);}.cls-28{fill:url(#linear-gradient-21);}.cls-29,.cls-71{stroke:#ed6921;}.cls-30{fill:url(#linear-gradient-22);}.cls-31{fill:url(#linear-gradient-23);}.cls-32{fill:#b5cbfa;}.cls-34{fill:#3a66c9;}.cls-35{fill:#0a46be;}.cls-36{stroke:url(#linear-gradient-24);}.cls-37{stroke:url(#linear-gradient-25);}.cls-38{fill:url(#linear-gradient-26);}.cls-39{fill:url(#linear-gradient-27);}.cls-40{fill:url(#linear-gradient-28);}.cls-41{fill:#6b91d8;}.cls-42{fill:#577ccd;}.cls-43{opacity:0.47;fill:url(#linear-gradient-29);}.cls-45,.cls-46,.cls-64,.cls-76,.cls-77{fill:#fff;}.cls-45,.cls-62,.cls-74{stroke:#c4c4c4;}.cls-47{fill:url(#linear-gradient-30);}.cls-48{fill:url(#linear-gradient-31);}.cls-49{fill:#0d2265;}.cls-50{fill:#0d5db5;}.cls-51{fill:#9fbdff;}.cls-52{fill:url(#linear-gradient-32);}.cls-53{stroke:#849bd6;}.cls-54{fill:#6c92d9;}.cls-55{stroke:#324bb0;}.cls-56{fill:#b5cdfd;}.cls-57{fill:#ff996c;}.cls-58,.cls-59,.cls-60{fill-rule:evenodd;}.cls-58{stroke:url(#linear-gradient-33);}.cls-59{stroke:url(#linear-gradient-34);}.cls-60{stroke:url(#linear-gradient-35);}.cls-61{fill:#c4c4c4;}.cls-63{fill:#577bd1;}.cls-64{opacity:0.1;}.cls-65{fill:#ebf1ff;fill-opacity:0.42;}.cls-66{fill:#ff8f41;}.cls-67{fill:#fdfffe;}.cls-68,.cls-69{fill:#f4f7ff;}.cls-69{opacity:0.57;}.cls-70{fill:#849bd6;}.cls-72{fill:url(#linear-gradient-36);}.cls-73{fill:url(#linear-gradient-37);}.cls-75{stroke:#ff996c;}.cls-78{fill:#6a91d6;}.cls-79{fill:url(#linear-gradient-38);}.cls-80{fill:url(#linear-gradient-39);}.cls-81{fill:url(#linear-gradient-40);}.cls-82{fill:url(#linear-gradient-41);}</style><linearGradient id="linear-gradient" x1="468.11" y1="629.5" x2="696.37" y2="234.14" gradientUnits="userSpaceOnUse"><stop offset="0" stop-color="#94c8ff"/><stop offset="1" stop-color="#fff" stop-opacity="0"/></linearGradient><linearGradient id="linear-gradient-2" x1="752.2" y1="641.72" x2="286.45" y2="372.82" xlink:href="#linear-gradient"/><linearGradient id="linear-gradient-3" x1="635.4" y1="659.71" x2="834.92" y2="314.13" xlink:href="#linear-gradient"/><linearGradient id="linear-gradient-4" x1="635.4" y1="659.7" x2="834.92" y2="314.13" xlink:href="#linear-gradient"/><linearGradient id="linear-gradient-5" x1="597.95" y1="678.02" x2="810.93" y2="309.12" gradientUnits="userSpaceOnUse"><stop offset="0" stop-color="#fff" stop-opacity="0"/><stop offset="1" stop-color="#94c8ff"/></linearGradient><linearGradient id="linear-gradient-6" x1="597.95" y1="678.02" x2="810.93" y2="309.12" xlink:href="#linear-gradient"/><linearGradient id="linear-gradient-7" x1="256.15" y1="524.16" x2="813.16" y2="524.16" gradientUnits="userSpaceOnUse"><stop offset="0" stop-color="#197ce1"/><stop offset="1" stop-color="#197ce1" stop-opacity="0"/></linearGradient><linearGradient id="linear-gradient-8" x1="339.79" y1="293.01" x2="631.48" y2="798.23" gradientUnits="userSpaceOnUse"><stop offset="0.01" stop-color="#f1f6ff" stop-opacity="0.8"/><stop offset="1" stop-color="#f1f6ff" stop-opacity="0"/></linearGradient><linearGradient id="linear-gradient-9" x1="521.46" y1="511.37" x2="607.7" y2="361.99" gradientUnits="userSpaceOnUse"><stop offset="0.01" stop-color="#f1f6ff"/><stop offset="1" stop-color="#f1f6ff" stop-opacity="0"/></linearGradient><linearGradient id="linear-gradient-10" x1="246.41" y1="370.77" x2="801.85" y2="370.77" xlink:href="#linear-gradient-9"/><linearGradient id="linear-gradient-11" x1="224.58" y1="710.21" x2="393.68" y2="710.21" gradientUnits="userSpaceOnUse"><stop offset="0" stop-color="#dfe9ff"/><stop offset="1" stop-color="#ebebeb"/></linearGradient><linearGradient id="linear-gradient-12" x1="243.03" y1="712.39" x2="332.38" y2="712.39" xlink:href="#linear-gradient-9"/><linearGradient id="linear-gradient-13" x1="264.26" y1="709.56" x2="353.61" y2="709.56" xlink:href="#linear-gradient-9"/><linearGradient id="linear-gradient-14" x1="286.4" y1="706.06" x2="375.76" y2="706.06" xlink:href="#linear-gradient-9"/><linearGradient id="linear-gradient-15" x1="309.46" y1="704.7" x2="398.81" y2="704.7" xlink:href="#linear-gradient-9"/><linearGradient id="linear-gradient-16" x1="417.67" y1="717.63" x2="417.67" y2="210.4" xlink:href="#linear-gradient-9"/><linearGradient id="linear-gradient-17" x1="500.65" y1="542.38" x2="578.74" y2="407.12" xlink:href="#linear-gradient-9"/><linearGradient id="linear-gradient-18" x1="650.47" y1="701.52" x2="752.42" y2="701.52" xlink:href="#linear-gradient"/><linearGradient id="linear-gradient-19" x1="655.63" y1="857.39" x2="723.99" y2="857.39" gradientUnits="userSpaceOnUse"><stop offset="0" stop-color="#1b44c0" stop-opacity="0"/><stop offset="0.02" stop-color="#1b46c1" stop-opacity="0.03"/><stop offset="0.23" stop-color="#1a56cb" stop-opacity="0.32"/><stop offset="0.42" stop-color="#1a64d3" stop-opacity="0.56"/><stop offset="0.6" stop-color="#196ed9" stop-opacity="0.75"/><stop offset="0.76" stop-color="#1976dd" stop-opacity="0.89"/><stop offset="0.9" stop-color="#197ae0" stop-opacity="0.97"/><stop offset="1" stop-color="#197ce1"/></linearGradient><linearGradient id="linear-gradient-20" x1="650.47" y1="781.09" x2="752.42" y2="781.09" xlink:href="#linear-gradient-11"/><linearGradient id="linear-gradient-21" x1="638.37" y1="708.51" x2="720.82" y2="851.32" xlink:href="#linear-gradient"/><linearGradient id="linear-gradient-22" x1="631.7" y1="462.47" x2="855.94" y2="462.47" gradientUnits="userSpaceOnUse"><stop offset="0" stop-color="#fff"/><stop offset="1" stop-color="#f4f7ff"/></linearGradient><linearGradient id="linear-gradient-23" x1="542.14" y1="269.58" x2="721.25" y2="269.58" xlink:href="#linear-gradient-22"/><linearGradient id="linear-gradient-24" x1="457.03" y1="717.63" x2="457.03" y2="210.4" xlink:href="#linear-gradient-9"/><linearGradient id="linear-gradient-25" x1="496.58" y1="717.63" x2="496.58" y2="210.4" xlink:href="#linear-gradient-9"/><linearGradient id="linear-gradient-26" x1="255.41" y1="631.61" x2="555.77" y2="631.61" gradientUnits="userSpaceOnUse"><stop offset="0" stop-color="#197ddf"/><stop offset="0.44" stop-color="#1661be"/></linearGradient><linearGradient id="linear-gradient-27" x1="283.1" y1="637.32" x2="435.6" y2="637.32" gradientUnits="userSpaceOnUse"><stop offset="0" stop-color="#1b44c0"/><stop offset="0.01" stop-color="#1b44c0"/><stop offset="0.41" stop-color="#1a63d2"/><stop offset="0.76" stop-color="#1975dd"/><stop offset="1" stop-color="#197ce1"/></linearGradient><linearGradient id="linear-gradient-28" x1="363.99" y1="634.43" x2="458.63" y2="634.43" gradientUnits="userSpaceOnUse"><stop offset="0" stop-color="#ff7d2b"/><stop offset="1" stop-color="#ff7d2b" stop-opacity="0"/></linearGradient><linearGradient id="linear-gradient-29" x1="226.32" y1="661.66" x2="447.63" y2="661.66" xlink:href="#linear-gradient-27"/><linearGradient id="linear-gradient-30" x1="384.35" y1="466.48" x2="419.13" y2="466.48" gradientUnits="userSpaceOnUse"><stop offset="0" stop-color="#ced6dd"/><stop offset="0.14" stop-color="#ced6dd" stop-opacity="0.83"/><stop offset="0.35" stop-color="#ced6dd" stop-opacity="0.61"/><stop offset="0.54" stop-color="#ced6dd" stop-opacity="0.43"/><stop offset="0.72" stop-color="#ced6dd" stop-opacity="0.3"/><stop offset="0.88" stop-color="#ced6dd" stop-opacity="0.23"/><stop offset="1" stop-color="#ced6dd" stop-opacity="0.2"/></linearGradient><linearGradient id="linear-gradient-31" x1="384.43" y1="486.17" x2="413.35" y2="486.17" xlink:href="#linear-gradient-30"/><linearGradient id="linear-gradient-32" x1="763.49" y1="335.04" x2="778.48" y2="309.07" gradientUnits="userSpaceOnUse"><stop offset="0" stop-color="#197ce1" stop-opacity="0.4"/><stop offset="1" stop-color="#197ce1" stop-opacity="0"/></linearGradient><linearGradient id="linear-gradient-33" x1="59.14" y1="549.56" x2="105.36" y2="549.56" gradientTransform="matrix(1.25, -0.1, 0.08, 1, 450.63, -162.44)" xlink:href="#linear-gradient-9"/><linearGradient id="linear-gradient-34" x1="-23.53" y1="425.87" x2="11.06" y2="425.87" gradientTransform="matrix(1.25, -0.1, 0.08, 1, 450.63, -162.44)" xlink:href="#linear-gradient-9"/><linearGradient id="linear-gradient-35" x1="-24.48" y1="442.01" x2="-6.91" y2="442.01" gradientTransform="matrix(1.25, -0.1, 0.08, 1, 450.63, -162.44)" xlink:href="#linear-gradient-9"/><linearGradient id="linear-gradient-36" x1="731.08" y1="403.75" x2="759.52" y2="453.01" gradientUnits="userSpaceOnUse"><stop offset="0" stop-color="#fff" stop-opacity="0.4"/><stop offset="1" stop-color="#f4f7ff" stop-opacity="0.1"/></linearGradient><linearGradient id="linear-gradient-37" x1="611.53" y1="188.9" x2="639.97" y2="238.17" gradientTransform="translate(41.1 -73.5) rotate(7.16)" xlink:href="#linear-gradient-36"/><linearGradient id="linear-gradient-38" x1="204.2" y1="454.5" x2="307.05" y2="454.5" xlink:href="#linear-gradient-8"/><linearGradient id="linear-gradient-39" x1="312.26" y1="575.53" x2="349.78" y2="575.53" xlink:href="#linear-gradient-28"/><linearGradient id="linear-gradient-40" x1="303.78" y1="613.1" x2="330.82" y2="613.1" xlink:href="#linear-gradient-28"/><linearGradient id="linear-gradient-41" x1="308.76" y1="656.33" x2="338.33" y2="656.33" xlink:href="#linear-gradient-30"/></defs><title>support</title><g id="Layer_6" data-name="Layer 6"><path class="cls-1" d="M380.23,558.71S236.16,530.47,258.5,394.23,449.57,149.41,505.79,239.92s162.28-21.92,252.47,30S854,772.55,568.67,813.18,380.23,558.71,380.23,558.71Z"/><path class="cls-2" d="M758.26,269.87C668.07,218,562,330.43,505.79,239.92c-23.23-37.4-65.67-40.8-109-22.31-23.42,20.62-41.22,45.53-31.38,69.39,22.82,55.33,99.53,6.6,80.56,94.18s-61.29,152.57,65.94,165.56S618.69,754.47,696.7,755.19C849.2,621.79,832.05,312.31,758.26,269.87Z"/><path class="cls-3" d="M678.22,257.13c-66.93,8.7-132.35,47.32-172.43-17.21-28.6-46-86.32-40.56-139.07-6.13V555.1c8.29,2.59,13.51,3.61,13.51,3.61a370.23,370.23,0,0,0-13.51,64.91v72.92c10.09,70.43,56.06,137.4,201.95,116.64,42.84-6.1,79.13-21.46,109.55-43.32Z"/><path class="cls-4" d="M403.65,214.85S392,271.62,416.57,255.92s43-19,47.84,43.15,34.13,25.19,59.69,4,25.41,48,64.68,53.56,57.77-71.06,81.9-36.82,50.78,104.58,115.4-16.74"/><path class="cls-5" d="M733.13,716.14c19-24.75,34.2-52.74,46-82.37V291.07c-6.29-9.58-13.3-16.82-20.92-21.2a104.15,104.15,0,0,0-25.13-10.39Z"/><path class="cls-6" d="M733.13,716.13c19-24.75,34.2-52.74,46-82.36V291.07c-6.29-9.58-13.3-16.82-20.92-21.2a104.15,104.15,0,0,0-25.13-10.39Z"/><path class="cls-7" d="M720.41,256.86a141.32,141.32,0,0,0-31.58-.83V730.49h31.58Z"/><path class="cls-8" d="M720.41,256.86a141.32,141.32,0,0,0-31.58-.83V730.49h31.58Z"/><path class="cls-9" d="M791.13,490l-52.61-72-45.63,64.2-42.1-47.06-27.36,51.3-35.55-60.29-11.37,19.37-26.13-56-23.81,50.55-45-110.79L439,439.16,377.38,231.3,318,468.89,259.4,389.23c-.32,1.66-.62,3.33-.9,5C236.16,530.47,380.23,558.71,380.23,558.71S283.29,853.8,568.67,813.18C748,787.65,812.4,600.2,813.16,451.51Z"/><path class="cls-10" d="M618.51,606.82c-47.74-3-42-226.9-145.39-136.37S445.39,364,387.61,301.05c-38.7-42.16-93.5,26.18-125.46,75.9-1.47,5.7-2.7,11.47-3.65,17.28C236.16,530.47,380.23,558.71,380.23,558.71S283.29,853.8,568.67,813.18c98.12-14,161.85-76.44,199.56-154.51C700.2,503.63,662.8,609.62,618.51,606.82Z"/><path class="cls-11" d="M797.19,613.54c-68-155-52.11-78-96.4-80.81-47.74-3-53.2-145.9-156.64-55.38S474.34,318.86,416.57,255.92c-38.7-42.16-93.5,26.18-125.47,75.9"/><polyline class="cls-12" points="800.98 464.63 778.95 503.16 726.34 431.19 680.71 495.39 638.61 448.33 611.25 499.63 575.7 439.34 564.33 458.7 538.2 402.71 514.39 453.26 469.42 342.46 426.85 452.29 365.2 240.4 305.77 482.02 247.21 402.36"/><path class="cls-13" d="M325.79,604.61C304.27,709.16,393.68,798.4,393.68,798.4l-86.63,28.89c-85.63-108-82.45-234.16-82.45-234.16Z"/><path class="cls-14" d="M244.57,595.39s-4.52,133.66,86.71,233"/><path class="cls-15" d="M265.79,592.56s-4.51,133.66,86.71,233"/><path class="cls-16" d="M287.94,589.07s-4.51,133.66,86.71,233"/><path class="cls-17" d="M311,587.71s-4.52,133.66,86.71,233"/><line class="cls-18" x1="417.67" y1="717.63" x2="417.67" y2="210.4"/><path class="cls-19" d="M768.23,658.67c-68-155-105.43-49-149.72-51.85-47.74-3-42-226.9-145.39-136.37S445.39,364,387.61,301.05c-38.7-42.16-93.5,26.18-125.46,75.9"/><ellipse class="cls-20" cx="701.45" cy="701.52" rx="50.98" ry="7.71"/><ellipse class="cls-21" cx="701.45" cy="701.52" rx="50.98" ry="7.71"/><path class="cls-22" d="M698.74,712.63S663.92,699.29,632,674.8s-11.27-26,4.35-40.7-26.63-11-45.61-34-5.25-33.07,2.27-35.31c10.58-3.15,16.71-1.51,20.51-7.18,5.54-8.27-16.65-29.56-22.78-38.42-5.1-7.36-20.06-35.56,4.28-35.56,28,0,12.29-37.67,24.8-45.46,6.16-3.85,11.14,2.43,17.78,20.6,3,8.22,7.08,24.86,20.48,20.3,15.27-5.2,22.66,1.51,18.55,25.11-3.24,18.67-13.79,47.46-2.57,43.12,28.44-11,13.09,47.81,15,53.16,2.83,7.78,9.82-6.94,21.93-1.28C737.78,611.69,698.74,712.63,698.74,712.63Z"/><path class="cls-23" d="M698.91,712.19S703,647,748.12,616.34C783.91,592,829.58,589.2,847,589.08a1,1,0,0,1,.29,1.86c-14.42,4.67-48.8,21-75,75.12C758.64,694.22,721.33,706.05,698.91,712.19Z"/><path class="cls-24" d="M701.45,707.87c2-3.07,45.14-98,142.81-117.24"/><path class="cls-25" d="M621.15,437.53s23.29,57.85,29.64,124.31c7.85,82.22,45.08,143.74,45.08,143.74"/><ellipse class="cls-26" cx="689.81" cy="857.39" rx="34.18" ry="5.17"/><path class="cls-27" d="M701.45,709.24c-28.16,0-51-3.46-51-7.72h0c0,147.47,29.45,156.63,29.45,156.63h.59c2.26,1.43,10.77,2.5,20.94,2.5s18.67-1.07,20.93-2.5H723s29.45-9.16,29.45-156.63h0C752.42,705.78,729.6,709.24,701.45,709.24Z"/><path class="cls-25" d="M615.27,654.54s51.65,8.64,63,15"/><path class="cls-25" d="M714,601.12s-30.38,22.75-34.5,71.16"/><path class="cls-25" d="M581.34,577.28s65.46,9.1,78.1,36.23"/><path class="cls-28" d="M704.74,860.61c-13.3-61.79-17.08-120.68-18.14-151.71-20.91-1-36.13-3.9-36.13-7.38h0c0,147.47,29.45,156.63,29.45,156.63h.59c2.26,1.43,10.77,2.5,20.94,2.5C702.57,860.65,703.66,860.63,704.74,860.61Z"/><path class="cls-21" d="M701.45,709.24c-28.16,0-51-3.46-51-7.72h0c0,147.47,29.45,156.63,29.45,156.63h.59c2.26,1.43,10.77,2.5,20.94,2.5s18.67-1.07,20.93-2.5H723s29.45-9.16,29.45-156.63h0C752.42,705.78,729.6,709.24,701.45,709.24Z"/><path class="cls-21" d="M752.42,701.52c0,4.26-22.82,7.72-51,7.72s-51-3.46-51-7.72"/><path class="cls-25" d="M582.2,490.57s53.2,24.72,67.16,66.23"/><path class="cls-29" d="M698.74,712.63S663.92,699.29,632,674.8s-11.27-26,4.35-40.7-26.63-11-45.61-34-5.25-33.07,2.27-35.31c10.58-3.15,16.71-1.51,20.51-7.18,5.54-8.27-16.65-29.56-22.78-38.42-5.1-7.36-20.06-35.56,4.28-35.56,28,0,12.29-37.67,24.8-45.46,6.16-3.85,11.14,2.43,17.78,20.6,3,8.22,7.08,24.86,20.48,20.3,15.27-5.2,22.66,1.51,18.55,25.11-3.24,18.67-13.79,47.46-2.57,43.12,28.44-11,13.09,47.81,15,53.16,2.83,7.78,9.82-6.94,21.93-1.28C737.78,611.69,698.74,712.63,698.74,712.63Z"/><polygon class="cls-30" points="853.3 529.87 631.7 568.27 634.33 395.06 855.94 356.67 853.3 529.87"/><polygon class="cls-31" points="719.15 323.42 542.14 354.08 544.25 215.74 721.25 185.07 719.15 323.42"/><path class="cls-32" d="M711.45,324.75s9.8-77.31-2.69-89.21c-4.22-4-38.08,1.49-38.08,1.49L644.82,336.3Z"/><polyline class="cls-33" points="765.24 284.98 817.02 275.51 817.02 346.75"/><path class="cls-21" d="M670.68,237s33.86-5.51,38.08-1.49c12.49,11.9,2.69,89.21,2.69,89.21"/><path class="cls-32" d="M701,326.57s9.81-77.31-2.68-89.21c-4.23-4-38.09,1.49-38.09,1.49l-25.86,99.26Z"/><path class="cls-21" d="M660.19,238.85s33.86-5.51,38.09-1.49c12.49,11.9,2.68,89.21,2.68,89.21"/><path class="cls-32" d="M833.1,533.37s9.81-77.31-2.68-89.2c-4.23-4-38.09,1.48-38.09,1.48l-25.86,99.27Z"/><path class="cls-21" d="M765.15,449.39s61-9.25,65.27-5.22c12.49,11.89,2.68,89.2,2.68,89.2"/><path class="cls-32" d="M822.61,535.19s9.81-77.31-2.68-89.2c-4.23-4-56.14,4.49-56.14,4.49L756,546.74Z"/><path class="cls-21" d="M765.15,450.14S815.7,442,819.93,446c12.49,11.89,2.68,89.2,2.68,89.2"/><path class="cls-34" d="M664,203.43s4.65,11.55,5.47,16.69,9.65,38.86,12.1,45.18,0,26.15,0,26.15-33.65-27.69-33.17-28.86S664,203.43,664,203.43Z"/><path class="cls-35" d="M588.79,270.94s-.65-14.6,7.07-21.86,10-25,10-25-3.31-24.4,7.52-28.28,26.83-1.43,26.83-1.43l-1.36,75Z"/><line class="cls-36" x1="457.03" y1="210.4" x2="457.03" y2="717.63"/><path class="cls-35" d="M614.15,234.09c-3.4.75-9,2.42-10.92-12.15s3.38-16.4,3.38-16.4S619,199.94,620.7,207,628.4,231,614.15,234.09Z"/><line class="cls-37" x1="496.58" y1="210.4" x2="496.58" y2="717.63"/><path class="cls-38" d="M313,555.79c-7.12,1.74-15.33,3.52-34,2.15-16.58-1.21-23.57-5.15-23.57-5.15s14.24,7.77,20.22,48.46,25.79,100.24,36.26,114,27.05,20.42,33.76,10.49,8.05-44.55,51.66-43.48c0,0,29.09-1.7,49.09,10.13s46.77,23.49,66.14,25.48a38.14,38.14,0,0,0,31-11.23S556,682.9,555.77,676s-75.49,24.57-113-19.29-102-124-102-124S337.84,549.71,313,555.79Z"/><path class="cls-39" d="M295,559.73s-10.08,17.16-11.71,25.06,7.08,130,36.64,122.05,34.41-18.51,34.41-18.51,7.55,54.2,12.38,54.2,68.88-73.29,68.88-73.29L349.66,532.11S343.22,558.09,295,559.73Z"/><path class="cls-22" d="M436.79,499s1.77,1.74,3.72,8.71c.88,3.17,28.73,13,28.73,13L435.46,632.55l.51,10.34s-20,34.39-27.17,34.8c-4,.24-17.54-6-35.44,4.45,0,0,.54-37.43-1.5-59-.68-7.21-6.39-19.76-7.14-21.6-1.16-2.85-6.08,25.51-7.36,25.51-17.1,0-46,19.32-52.36,1.15-1.64-4.68-1.46-10.16,0-15.43q1-3.74,2-7.31c.61-2.35,4.47-1.41,5-3.65,2.64-10.46,8.74-17.57,8.66-26.25-.2-20.18-.19-30.6,2-36.54,3.89-10.44,41.19-21,53.37-41.18.52-.86-1.39-2.6-.39-4.15,3.44-5.31,3.86-8.63,3.86-10.33C379.54,473.5,420.37,488.11,436.79,499Z"/><path class="cls-40" d="M378.65,599.73c1.36,1.09,12.36,7.18,15.18,8.81,14.13,8.14,42.57,25.27,64,15.78,9.6-4.25-70.81,52.78-70.81,52.78s-10.53,1.41-13.36,4l-3.24-55.34s-4.51-15.47-6.18-22.62,5.21-15.48,5.21-15.48Z"/><path class="cls-41" d="M226.52,537.16c-1-2-4.69-8.78,2-8.76s50,13.35,58.89,61.85,13.92,129,37.63,135.53,25-9.76,30.18-22S375.65,665.2,426.91,685s91.78,53.54,122.71,10.94l10-2.31s-2.46,25-34.4,59.46S440.7,799.35,388.5,783.41s-71.89-45.14-82.59-64.74S251,585.47,226.52,537.16Z"/><path class="cls-42" d="M554.4,704s2.76,9.58-23.53,41.57-76.16,57.64-145.87,37-90.77-84.27-104.18-118.35c-10.43-26.5-38.59-94.35-53-123.08-2.05-4.09-3.1-11.46,3.36-6.94,11,7.69,29.71,25.21,34.7,43.81,8.11,30.2,27.16,128,49.24,145.92s36.84,10.59,42.25-10.56,26.19-41.12,72.49-19.67,95.62,42.7,120.29,8.47Z"/><path class="cls-43" d="M326.82,734.22s35.2,51.49,120.81,54.35c0,0-26.13,6.39-85.49-14.79S250.64,596.12,243.6,573s-24.3-37.91-14.18-39.14,36,34,42.21,57.52S282.9,695.94,326.82,734.22Z"/><path class="cls-44" d="M554.07,699c-7.73,11.11-42.79,39.82-95.73,7.29s-88.39-27.31-96.22-8-7.34,42.64-31.81,32.11-46.51-73-56.91-131.22c-5.71-32-28.72-54.58-41.65-64.6-3.34-2.59-8.58-2.38-2.9,7.44,12.05,20.83,30.62,70.55,53.74,126.74,31.64,76.9,53.91,107.14,132.75,120.14s133.2-47.68,140.85-91.27"/><path class="cls-44" d="M226.52,537.16s-5.94-9.21,2.53-8.73S277.3,541.86,286.3,585s14.63,114.41,34.36,135.38c7.83,8.32,24,7.23,34.58-16.59s35.18-40.88,87.93-13.18,83.26,34.91,104.29,9.88"/><path class="cls-44" d="M274.37,557.51s25.73,3.58,45.55-3.87"/><path class="cls-45" d="M421.81,485S412.57,498.5,411,510.85"/><path class="cls-46" d="M424,481.47c-.06.3-1.7,25.94-1.7,25.94s7.38,5.22,7.85,10.48c.52,5.89-3.15,18.8-4,21.1,0,0-3.18-6.2-7.4-10.06a58.23,58.23,0,0,1-10.41-12.6c-5.13-9.32-6.11-14.42-7.3-15.59,0,0-15.39-7.84-16.15-11.46S391.7,465,391.7,465Z"/><path class="cls-45" d="M383,447.94s-3.57,19.73,15.64,38.48,25,11.74,33.28,5.29,11.92-21.91,13.33-26.19c2.35-7.14,6.47-20.7,6.91-24.35s8.13-19-15.8-32.78-40.6-16.75-53.72-3.18S376.14,428.06,383,447.94Z"/><path class="cls-47" d="M413.35,437.1c.88.85,4.14,7.08,5.57,8s-4.9,1.53-6.94,8.12,1,13.13,1.37,14.77,2.65,37.38-5.84,25.43c-.42-.58-14.37-3.12-21.49-25.36-1.64-5.12-2.46-9.71-.62-13.46C391.56,442.09,413.35,437.1,413.35,437.1Z"/><path class="cls-48" d="M384.44,488.83c-.22.46,14.94,16.39,28.91,8.47,0,0-10.89-7.08-13.89-9.9-3.48-3.29-12-14.56-12-14.56S387.05,483.21,384.44,488.83Z"/><path class="cls-49" d="M384.87,465c.18-10.71-4.5-20.42,2.74-22.5,2.72-.78,3-.7,3.15,3.23.07,1.71.41,7,.95,6.76,9.18-4.81,23.84-29,23.84-29S440.1,439.16,457,436.3c0,0,.79-7.91-3.32-22.54-2.58-9.19-4.95-8-10.41-11.51,0,0,3.75,1.68-4.86-4.94-14.66-11.29-35.38-9.38-42.77-6.05-29.73,13.41-20.42,28.61-24.65,37.45C363.9,443.61,384.78,470.09,384.87,465Z"/><path class="cls-50" d="M557.26,592.39s-113.65,40-117.84,41.14-2.12-5.82-2.12-5.82,11.52-66.38,16-92.91c1-6,1.41-8.71,7.8-10.62s102.08-19.35,107-19.89c3.62-.4,4,2,3.62,4.57-2.46,17.26-10.43,75.79-10.43,75.79S561.22,591,557.26,592.39Z"/><path class="cls-51" d="M560.57,592.85s-113.65,40-117.84,41.15-2.12-5.83-2.12-5.83,11.53-66.37,16-92.9c1-6,1.42-8.71,7.8-10.62s102.08-19.35,107-19.89c3.62-.4,4,2,3.62,4.57-2.46,17.26-10.43,75.79-10.43,75.79S564.53,591.46,560.57,592.85Z"/><line class="cls-44" x1="368.8" y1="648.92" x2="435.6" y2="629.4"/><path class="cls-50" d="M370.57,651.56l2.22,2.09,63.46-17.08s6.55-2.33,6.55-4.51-1.09-2.66-1.09-2.66l-75,21.18Z"/><path class="cls-24" d="M601.8,761.76c-.38,1.61,1.51,26.58-.41,27.49s-16,1.62-16,1.62"/><path class="cls-45" d="M584.77,793.29s5.69,21,5.11,26.76-7.52,22,2.08,25.66,20.42-1.41,28.56.53,23.09,7.79,30.82,4.27,14.31-8.6,10.06-11.15-16.69-3.91-23.15-7.9-32.5-21.17-32.82-23-1.06-19.15-1.06-19.15"/><path class="cls-45" d="M661.89,771.12s13,11.26,23.48,15.81,42.42,14.18,47.42,15.37,14.65,2.8,8.66,13-20.09,13.61-27.1,12.28-12.56-9.46-19.92-10.7-12.48,1.63-22.15-4.25-9.6-14-15.22-21.15S645.11,783,645.11,783"/><polygon class="cls-46" points="461.46 350.04 426.87 356.03 427.28 317.13 461.87 311.13 461.46 350.04"/><polygon class="cls-52" points="780.07 330.81 761.68 333.99 761.9 313.3 780.29 310.11 780.07 330.81"/><polygon class="cls-46" points="411.19 311.44 393.68 314.48 393.88 294.77 411.4 291.74 411.19 311.44"/><line class="cls-53" x1="431.6" y1="346.77" x2="451.91" y2="343.58"/><line class="cls-53" x1="431.6" y1="339.67" x2="447.73" y2="337.13"/><line class="cls-53" x1="431.6" y1="327.03" x2="447.73" y2="324.49"/><line class="cls-53" x1="431.6" y1="333.48" x2="451.91" y2="330.29"/><path class="cls-54" d="M593.26,269.41c2-.45,18.46-12.76,31.58-13.86,0,0,15.7-2.4,17.32,0s8.46-1.64,16.89.27c2.25.51,9.92.86,19.17,13.76,1.54,2.13,3.26,17.62,12,28.81A50.09,50.09,0,0,1,701,326.57l-85.42,14.8Z"/><path class="cls-55" d="M641,208.51c1,2.21-1,31.93,14.85,43.27"/><path class="cls-56" d="M657.83,258.37s-5.64,11.53-14,14.05S628.37,266.74,630,262a23.31,23.31,0,0,0,1.36-8.16s-.09-10.59-1-14.52S653.93,226.14,655,229,652.19,245.24,657.83,258.37Z"/><path class="cls-57" d="M561.45,375.29l72-12.39v15.62l-72,12.38Z"/><polyline class="cls-58" points="568.16 385.02 573.89 378.25 581.94 382.61 588.22 375.63 596.14 380.2 602.71 372.91 610.65 377.5 616.92 370.53 624.35 374.83"/><path class="cls-57" d="M449.74,260.12l62.82-10.81v13.62l-62.82,10.81Z"/><polyline class="cls-59" points="455.44 268.43 459.71 263.39 465.7 266.64 470.38 261.44 476.27 264.85 481.16 259.41 487.08 262.83 491.74 257.64 497.28 260.84"/><path class="cls-57" d="M449.74,276.24l31.41-5.4v13.62l-31.41,5.4Z"/><polyline class="cls-60" points="455.44 283.55 459.71 278.51 465.7 281.76 470.38 276.56 476.27 279.97"/><path class="cls-41" d="M661.67,799.43c3.89,7,26.8,3.84,32.23-1.33s-3.63-9.24-3.63-9.24L686,787.17a4.64,4.64,0,0,0,2.1.51c1.33,0,20.39,5.48,25.3,7.07s27.33,2.72,31.29,7.86,2.57,14.48-7.72,21.27-18,4-33.94-.38-30.34-9-31.33-9.53a28.55,28.55,0,0,1-7.08-7.4A19.75,19.75,0,0,1,661.67,799.43Z"/><path class="cls-44" d="M661.67,799.43c3.89,7,26.8,3.84,32.23-1.33s-3.63-9.24-3.63-9.24L686,787.17s.83,0,2.15,0,20.34,6,25.25,7.55,27.33,2.72,31.29,7.86,2.57,14.48-7.72,21.27-18,4-33.94-.38-30.34-9-31.33-9.53a28.55,28.55,0,0,1-7.08-7.4A19.75,19.75,0,0,1,661.67,799.43Z"/><path class="cls-41" d="M588.1,823.19s2.27,3.69,10.25,3.7,17.52-2.13,19.49-3.35a6.68,6.68,0,0,0,2.56-3.81s18.49,10.67,20.23,11.32,24.14,6.39,25.72,7.61,1.77,4.41,1.77,4.41-1.92,12-23.88,8.52-40.85-4.39-49.81-3.79-7.76-1.85-7.76-1.85a33.68,33.68,0,0,1-.62-11.07C586.67,828.31,588.14,826.56,588.1,823.19Z"/><path class="cls-44" d="M668.07,810.88s5.13,8.34,7.35,9,18.68,3.75,23.59,6.74,18.45,6.63,29.25,6,19.66-8.48,21.12-14a23.44,23.44,0,0,0-.33-11.56c-.14-.59-5.8-5.63-5.8-5.63"/><path class="cls-24" d="M588.1,823.19s2.27,3.69,10.25,3.7,17.52-2.13,19.49-3.35a6.68,6.68,0,0,0,2.56-3.81s18.49,10.67,20.23,11.32,24.14,6.39,25.72,7.61,1.77,4.41,1.77,4.41-1.92,12-23.88,8.52-40.85-4.39-49.81-3.79-7.76-1.85-7.76-1.85a33.68,33.68,0,0,1-.62-11.07C586.67,828.31,588.14,826.56,588.1,823.19Z"/><path class="cls-24" d="M586.42,844.81,586,852.5s-1.29,2.32,7.48,2.52,27.18-.36,41.34,2.38,27.74,0,30.64-2.93,3.29-5.24,3.38-6.2a42.16,42.16,0,0,0-.68-5.2"/><path class="cls-49" d="M416.41,431.77s11.72,2,11.52,3.43-1.93,5,.81,2.53,2.53-1.05,2.07-.23-1.7,4.65-2.5,4.41-10.81-4.71-16.77-5"/><path class="cls-49" d="M441.87,456.59s-.73,6.35-3.83,5.78-2-6.33.88-7.69S441.87,456.59,441.87,456.59Z"/><path class="cls-49" d="M418.25,450a4.34,4.34,0,0,0-1.42,5.32c1.36,3.34,4.79.72,5.29-1.46s-.45-5.18-2.36-4.7S418.25,450,418.25,450Z"/><path class="cls-49" d="M441.22,440.71a34.8,34.8,0,0,0-2.57,4.6c-.11.71,6.49.84,11.1,4.5,0,0,.8-3.13.19-4s-5.15-3.94-5.89-4-2.26,2.69-2.94,2.78S443.49,439,441.22,440.71Z"/><path class="cls-61" d="M420.39,469.55a56.25,56.25,0,0,0,6.55-.79c2.32-.51,5.26,2.49,5.82,3.51s-3,1.4-6.74.5A10.59,10.59,0,0,1,420.39,469.55Z"/><path class="cls-62" d="M409.92,473.75a73.57,73.57,0,0,1,6.84,5.18c2.79,2.49,8.63,4.91,14.07,2.16"/><path class="cls-62" d="M416.13,485.54s4.59,4.45,9.95,1.17"/><path class="cls-61" d="M428.83,482.22c.68,0,.4-2.84-2.4-3s-4.37-1.93-5.62-1.68a43,43,0,0,1-5.26.39S418.9,482.74,428.83,482.22Z"/><path class="cls-24" d="M707.26,799s-.18,4.29-5.47,8"/><path class="cls-24" d="M713.62,800.55s-1.31,6.41-5.22,9.16"/><path class="cls-24" d="M699.85,798.4s-12.52-20.35,2-24.87S704.17,797,704.17,797"/><path class="cls-24" d="M695.55,800.59s-12-3.56-9.13,7.21,12.27-4.5,12.27-4.5"/><path class="cls-24" d="M629.83,824.65s1.14,3.14-2.52,5.28"/><path class="cls-24" d="M634.46,827.74s2.26,3.24-2.35,6.13"/><path class="cls-24" d="M624.33,823.34s-12.92-16.33,1.11-22.92,2.87,25.33,2.87,25.33"/><path class="cls-24" d="M621.79,825.68s-9.54-2.77-9.75,3.41,12.94-.26,12.94-.26"/><path class="cls-44" d="M397.73,499.7s-14.27-10.49-17.52-15.53,6.39-3.36,6.39-3.36"/><path class="cls-44" d="M379.22,483.33s1,5.06-3.42,10c0,0-2.72,9.16,17.17,31.72,1.26,1.43.56-19.07,6.18-24,2.8-2.45,4,7.78,8.4,14.08a83.78,83.78,0,0,0,8.87,11.09c6.16,6.87,7.44,8.93,9.25,12.83s11.12,85.23,11.12,85.23"/><path class="cls-44" d="M422.34,507.41s5.68,3.44,7.59,9.2c.65,2-1.43,13.6-2.86,17.24s-.8,10.5-.8,10.5"/><path class="cls-44" d="M429.14,494.57s6.83,4,7.65,4.4,5,10.08,5.65,17.85"/><path class="cls-44" d="M430.83,517.89c.15-.36,3.92-20.15,6-18.92"/><path class="cls-44" d="M440.72,508.4s20.94,9.49,29.76,13"/><path class="cls-42" d="M335.52,856.84c-.11-4.72,12.71-9.22,33.25-13.88a395.06,395.06,0,0,1,162.34-3.65c20,3.65,32.43,7.47,32.54,12.09.22,9.45-50.66,18.32-113.66,19.83S335.75,866.29,335.52,856.84Z"/><path class="cls-44" d="M335.52,856.84c-.11-4.54,11.37-9,30.41-13.24,7.56-1.7,23.8-5.58,36.6-7.75,13.52-2.29,30.85,1.54,46.65,1.17,17.05-.41,33.23-.24,47.78.42,3.7.17,4.2-2.78,7.65-2.3,35.36,4.92,58.89,10,59,16.26.22,9.45-50.66,18.32-113.66,19.83S335.75,866.29,335.52,856.84Z"/><ellipse class="cls-42" cx="449.24" cy="839.69" rx="61.14" ry="7.65" transform="translate(-19.89 10.95) rotate(-1.37)"/><ellipse class="cls-44" cx="449.24" cy="839.69" rx="61.14" ry="7.65" transform="translate(-19.89 10.95) rotate(-1.37)"/><path class="cls-63" d="M458.27,777.5l-1.34,61.83c-9.62,5.43-15.21-.68-15.21-.68l-8.17-50.29Z"/><path class="cls-44" d="M433.55,788.36l7.93,44.42s-.51,2.29,7.5,3.05,7.17-1.86,7.17-1.86l2.14-47.65"/><path class="cls-41" d="M444.4,782.58,447,833.83s2.86,1.92,8.17,0l2.69-49.45s-.78-1.29-5.21-1.8A34,34,0,0,0,444.4,782.58Z"/><path class="cls-41" d="M461.12,849.66l9.6,19.21s34.74-1,62.12-6.34,31.56-10,25.64-14.2S512.3,837.4,512.3,837.4s4.7,4.19-5.72,6.34S461.12,849.66,461.12,849.66Z"/><path class="cls-44" d="M429.86,786.32s5.62-4.29,16.5-4.9,16.17,1.63,12.81,3.27"/><path class="cls-41" d="M461.18,787.19c63.61-15,84.3-64,84.3-64-2.19-.09-6.9-7.36-6.9-7.36l-23.32,9.25s-8.65,39.83-53,59.91Z"/><path class="cls-64" d="M442.73,634c4.19-1.13,117.84-41.15,117.84-41.15,4-1.39,4-7.73,4-7.73s4.49-33,7.77-56.71c0,0-15.25,30.77-44.4,39.86s-8.72-17.53-27.79-18.71-49.85,33.87-51.95,34.83c-4,23-7.58,43.78-7.58,43.78S438.54,635.12,442.73,634Z"/><ellipse class="cls-65" cx="516.3" cy="568.94" rx="10.53" ry="6.55" transform="translate(-234.56 731.6) rotate(-60)"/><path class="cls-24" d="M559.68,593S446,633,441.85,634.14s-2.12-5.83-2.12-5.83,11.52-66.37,16-92.9c1-6,1.41-8.71,7.8-10.63s102.08-19.35,107-19.88c3.62-.4,4,2,3.62,4.57-2.47,17.25-10.44,75.79-10.44,75.79S563.64,591.6,559.68,593Z"/><path class="cls-49" d="M491.13,627s39.15-31.72,60.84-37.79c14.63-4.1,32.43,2.39,35.48,30.6s15.13,113.35,15.7,129.7S605.71,789,605.71,789s-32.27,8.1-34.93,7.59c0,0-22.92-77.32-23.67-111.55s1.33-20,1.33-20-16.1,19.61-30.23,7S511.12,648.88,491.13,627Z"/><path class="cls-49" d="M387,677.1s65.19-45.32,85.64-59.84,39-9.66,61.43,12.62,98.48,106.73,110.41,120.48,15.75,17.89,15.75,17.89-24,31.72-26.7,33.14c0,0-69.42-54.57-94.7-83.11C518.41,695.2,519,694.47,519,694.47s-18.93,16.62-28.36,16.77C460.9,711.73,420.19,671.7,387,677.1Z"/><path class="cls-44" d="M387.74,677s82.45-60,93.86-64.9c10.24-4.36,28.75-9.24,52.46,16.66,27,29.44,126.2,139.49,126.2,139.49s-21.64,31.41-26.7,33.14"/><path class="cls-44" d="M490,661.48c8.94,7.54,48.39,56.35,52,60.27,16.36,17.71,91.53,79.64,91.53,79.64"/><path class="cls-44" d="M514.43,610s38.82-32.71,57.37-19c20.43,15.06,25.56,106.88,25.56,106.88"/><path class="cls-44" d="M368.8,589.07c-1.76,2.21-10.05,34.62-10.46,37.07s-6.39-.1-13.57,3.26"/><path class="cls-44" d="M364.42,602.58s3.76,12.74,6,23.23l2.93,56.33"/><path class="cls-45" d="M390,442.23s-6.65-12.14-12.11-6-1.69,20.66,3.49,22.2a5.87,5.87,0,0,0,7.22-3.18"/><path class="cls-45" d="M381.92,442.85s-1.63,8.26,3.22,9.28,3.89-5.48.09-8.93-6.91,2.09-6.91,2.09"/><path class="cls-44" d="M481.6,709.07c15.33-8.77,25.26-35.19,25.26-35.19"/><path class="cls-24" d="M409.47,452.34a23.12,23.12,0,0,1,6.08-3.27c2.68-.73,5.55,0,8.19,1.42"/><path class="cls-24" d="M436.86,454.27c.27.2,4.81.65,6.12,2.1"/><path class="cls-46" d="M351.09,623.5s-1.44,4.67-5.91,18c0,0,14.71-4.69,20.71-7.7,0,0,25.37-14.33,25.37-2.92,0,.84,3.59,1.92,2.29,3.77s-7.46,4.42-9.48,6.74c-7.46,8.62-18.07,19-18.07,19s-27.7,24.42-40.35,31.05-18.59-15.91-16.52-32.27c3.36-26.49,2.89-33.14,4.62-39.21l19.1.55Z"/><path class="cls-46" d="M425.07,632.4s-5.33-8.82-9-9.08-18.22-1.29-21.59-1.08-15.85,6.14-18.2,8.08c-1.32,1.1,5.85,8.32,12.58,10.31,4.44,1.31,10.8-1.26,10.8-1.26Z"/><path class="cls-44" d="M425.07,632.4c-.66-1.77-4.14-8.08-7.82-8.76-4.25-.8-17.63-1.19-22.13-1.39-3.46-.15-18.7,7-33.16,13.06-15.38,6.39-25.62,9.25-27.13,11.08a21.35,21.35,0,0,0-7.63,12.28"/><path class="cls-44" d="M383.76,641.24c1-.29,8.23-6.32,9.18-5.91s8.46-.42,8.73.53l.2,3.3"/><path class="cls-44" d="M399.21,628.79a49.41,49.41,0,0,1,8.47,1.5,4.56,4.56,0,0,1,2.43,2.45c0,.41-1.7,4.3-1.7,4.3"/><path class="cls-44" d="M410.11,627c.4,0,5.85,1.09,5.85,1.77s1,5.69,1,5.69"/><path class="cls-64" d="M440.1,687.22s50.66-49.65,54.13-50.29-4.44,16.31,1.56,7.69,8.38-16.88,11.81-7.3S510.39,653.43,525,674s99.74,74,103.64,77.52,27.23,24.58,27.23,24.58l4.16-7.42s-99.7-114.93-118.77-134.43-31.49-28-49.39-25.23S390.38,676.3,390.38,676.3s19.91-2,29.08,4.85,19,9.34,19.12,8.8A20.81,20.81,0,0,1,440.1,687.22Z"/><path class="cls-64" d="M526.09,620.82c1,1,23.91-11,23.71-9s-3.48,13.37,2.65,8.12,2,31.26,2,31.26l43,47.56s-6.35-90.68-18.52-101.92S554,586.38,543.13,592s-31.27,19.86-31.27,19.86S522.35,617.15,526.09,620.82Z"/><ellipse class="cls-22" cx="306.51" cy="333.58" rx="57.14" ry="41.97" transform="translate(-106.11 520.59) rotate(-71.8)"/><ellipse class="cls-66" cx="300.42" cy="331.58" rx="57.14" ry="41.97" transform="translate(-108.4 513.43) rotate(-71.8)"/><ellipse class="cls-67" cx="300.42" cy="331.58" rx="46.28" ry="33.99" transform="translate(-108.4 513.43) rotate(-71.8)"/><ellipse class="cls-68" cx="303.3" cy="331.58" rx="39.34" ry="28.9" transform="translate(-106.42 516.16) rotate(-71.8)"/><ellipse class="cls-69" cx="303.3" cy="331.58" rx="46.06" ry="32.49" transform="translate(-106.42 516.16) rotate(-71.8)"/><polygon class="cls-66" points="320.22 332.92 302.25 337.06 287.1 303.76 288.25 302.64 303.17 331.25 320.22 330.64 320.22 332.92"/><ellipse class="cls-70" cx="303.3" cy="332.97" rx="8.05" ry="5.92" transform="translate(-107.74 517.11) rotate(-71.8)"/><path class="cls-66" d="M318.27,277.3c-22-7.24-47.86,11.2-57.71,41.18s0,60.15,22,67.39,47.86-11.2,57.71-41.18S340.29,284.54,318.27,277.3Zm14.44,64.9c-8,24.28-28.91,39.21-46.74,33.35s-25.82-30.3-17.83-54.58,28.9-39.21,46.74-33.35S340.69,317.92,332.71,342.2Z"/><path class="cls-71" d="M318.27,277.3c-22-7.24-47.86,11.2-57.71,41.18s0,60.15,22,67.39,47.86-11.2,57.71-41.18S340.29,284.54,318.27,277.3Zm14.44,64.9c-8,24.28-28.91,39.21-46.74,33.35s-25.82-30.3-17.83-54.58,28.9-39.21,46.74-33.35S340.69,317.92,332.71,342.2Z"/><path class="cls-54" d="M691.27,515.09s7.46-11,14.72-23.75,30.8-20.21,30.8-20.21,1.19-3.76,9.77-7.84,11.6-6.13,17.24-6.54,10.67,1.53,10.3,5.36c0,0,27,9.5,34.73,22.76,9.75,16.73,13.78,50.32,13.78,50.32L696.07,557.12Z"/><path class="cls-56" d="M762.69,436c.67.55,7.41,29.71,7.41,29.71s-1.87,12.08-14.41,15.79-12.28-4.63-12.28-4.63l-.22-10.81V455.68Z"/><path class="cls-21" d="M781.71,506.48c-.64,1-5.21,22.87-5.06,36.68"/><path class="cls-21" d="M717.54,506.13c.39.85-4.84,28.89-5.3,42.67"/><path class="cls-51" d="M759.5,445.07l-11,5.3-5.26,5.31v8.49a5.72,5.72,0,0,0,4.87,1.7C757.18,465.33,759.5,445.07,759.5,445.07Z"/><path class="cls-51" d="M632.76,498.7l54.07-10.59s5.18-1.65,8.72,4.49,30,59.35,30,59.35l-93.8,16.32Z"/><path class="cls-64" d="M632.76,498.7l51.55-10.08s5.17-1.65,8.72,4.49,30,59.34,30,59.34L631.7,568.27Z"/><path class="cls-35" d="M724.37,446.36c-3.36.9-8.9,2.8-11.42-11.67s2.66-16.53,2.66-16.53,12.1-6.13,14.14.82S738.48,442.6,724.37,446.36Z"/><path class="cls-56" d="M763.07,441.74s-7.71,11.61-14.92,17.13-15.24,5.76-23.66-6.93-7-42.82-7-42.82.87-18.74,22.94-12.82S771.09,428.7,763.07,441.74Z"/><path class="cls-72" d="M730.37,408.06s1.49,22.87-2,27.85c-1.19,1.68.31,3.36,1.81,4.48,1.11.83,5.21.15,5.21.15s-2.67,2.54-2.59,3c1.23,7.29,2.93,17,8.76,18.3,7.45,1.69,24.06-20.24,25.15-29S756,396.23,747.69,396,730.37,408.06,730.37,408.06Z"/><path class="cls-34" d="M764.41,393s13.48,7.41,10.25,15.39.45,7.77.45,7.77-.6,22.79-2.78,25.24-19-10.22-19-10.22c-10.07-4.23-8.86-18.46-9.17-19.32l-2.37-3.53s-8.72,15.15-22.61,9.8-8.38-23.38,0-26.34,25.36-1.45,25.36-1.45S751.46,386,764.41,393Z"/><path class="cls-35" d="M761.23,416.81c-2.38-25.38-20.2-26.68-20.2-26.68l5.61-1c7.72,1.47,14,6,15.7,12.7,1.46,5.92,3.66,14,3.51,13.4Z"/><path class="cls-21" d="M765.42,445.07s4.51,19.24,4.68,20.63-5.31,18.69-20.83,16.72"/><path class="cls-21" d="M774.1,462.11s26.4,10.78,32.53,19.26,14.18,32.82,16,53.82"/><path class="cls-64" d="M632.56,511.85s21.78-.19,23.76,20.88,47.76,23,47.76,23L631.7,568.27Z"/><path class="cls-56" d="M650.05,235.4s-19.89,21.33-29.76,9.81-9.4-33.79-9.4-33.79,1.43-13.75,7.26-15.25c12.48-3.22,35.44-9.74,37.69,5.68S656.52,229.88,650.05,235.4Z"/><path class="cls-73" d="M623.05,194.34s-.13,23.35-4.26,27.84c-1.4,1.52-.26,2.45,1.09,3.75,1,1,2.93.34,2.93.34a17.25,17.25,0,0,0-1.84,3.11c.31,7.38.81,17.65,6.43,19.7,7.18,2.61,26.4-17.08,28.56-25.59s-6.05-37.69-14.22-39S623.05,194.34,623.05,194.34Z"/><path class="cls-34" d="M675.38,265.44c-42.37-21.52-31.6-56.93-31.6-56.93s-5-.21-21.12-4.47c-12.22-3.23-10,5.6-11.78,1.94-2.62-5.46-1.9-12.35,4.72-18.87,14.28-14.07,37.6-7.5,45.77,4.17,2.42,3.47,4.53,10.69,6.3,19.12,4.17,19.92,6.42,46.6,6.42,46.6Z"/><path class="cls-35" d="M641.67,220.8c.37,16.75,13.42,20.19,20.09,11.07s3.76-25.36-6-27.83-12.65,3-13.48,6.64A61.32,61.32,0,0,0,641.67,220.8Z"/><path class="cls-35" d="M648.56,207.82c-1.28-25.46-21.95-27.34-21.95-27.34a10.78,10.78,0,0,1,2.83-1.87,30.56,30.56,0,0,1,4.43.53c7.66,1.81,15.08,6.94,16.45,13.75,1.21,6,3,14.15,2.93,13.54Z"/><path class="cls-41" d="M644.83,220.81c.37,16.75,13.42,20.19,20.09,11.07s3.76-25.36-6-27.83-12.65,3-13.48,6.64A61.32,61.32,0,0,0,644.83,220.81Z"/><path class="cls-51" d="M543.29,279l73.11-13.55s4.5-1.16,5.73,3.33,18,68.33,18,68.33l-98,17Z"/><path class="cls-64" d="M543.29,279l69.16-12.72s4.5-1.16,5.73,3.33,18,68.19,18,68.19l-94.05,16.3Z"/><path class="cls-21" d="M662.1,258.69s-2.74,17.71-15,20a20,20,0,0,1-19.06-6.45"/><path class="cls-21" d="M661.06,299.07s6.08,11,4.31,20.65.17,13,.17,13"/><path class="cls-64" d="M568.31,274.35s-23.83,20.91-9.32,35.76,38.4,2.9,51.89,32.06l-68.74,11.92,1.15-75.1Z"/><path class="cls-35" d="M754.9,430.07c1.09,16.72,14.27,19.59,20.55,10.2s2.66-25.5-7.24-27.55-12.52,3.52-13.18,7.21A59.79,59.79,0,0,0,754.9,430.07Z"/><path class="cls-41" d="M758.06,429.94c1.09,16.72,14.27,19.6,20.54,10.2s2.67-25.5-7.24-27.54-12.51,3.51-13.18,7.21A60.76,60.76,0,0,0,758.06,429.94Z"/><path class="cls-44" d="M351,623.83s-2,7.71-5.8,17.69"/><polyline class="cls-33" points="663.38 195.14 721.25 185.07 721.25 323.42 542.14 354.08 544.25 215.74 606.56 204.94"/><polygon class="cls-33" points="853.3 529.87 631.7 568.27 634.33 395.06 855.94 356.67 853.3 529.87"/><path class="cls-32" d="M564.37,257.8l-35.93,6.41a4,4,0,0,1-4.69-4l.39-25.83a7.06,7.06,0,0,1,5.86-6.86l35.87-6.21a4.06,4.06,0,0,1,4.74,4.06l-.38,25.56A7.08,7.08,0,0,1,564.37,257.8Z"/><path class="cls-57" d="M834.2,384.83l-35.92,6.41a4,4,0,0,1-4.7-4l.39-25.82a7.08,7.08,0,0,1,5.86-6.86l35.87-6.21a4,4,0,0,1,4.75,4L840.06,378A7.06,7.06,0,0,1,834.2,384.83Z"/><path class="cls-70" d="M694.52,475.56,658.6,482a4,4,0,0,1-4.69-4l.39-57.42a7.06,7.06,0,0,1,5.85-6.85L696,407.49a4.06,4.06,0,0,1,4.74,4.06l-.39,57.16A7.06,7.06,0,0,1,694.52,475.56Z"/><polygon class="cls-25" points="530.56 234.93 530.56 242.11 537.51 240.9 537.51 233.82 530.56 234.93"/><line class="cls-25" x1="541.52" y1="233.82" x2="550.38" y2="232.29"/><line class="cls-25" x1="541.52" y1="238.27" x2="561.03" y2="234.89"/><line class="cls-25" x1="541.52" y1="244.66" x2="557.46" y2="241.89"/><line class="cls-25" x1="541.52" y1="249.55" x2="563.34" y2="245.77"/><line class="cls-25" x1="541.52" y1="254.71" x2="557.46" y2="251.95"/><line class="cls-25" x1="661.06" y1="423.92" x2="674.62" y2="421.57"/><line class="cls-25" x1="661.06" y1="429.03" x2="690.9" y2="423.86"/><line class="cls-25" x1="661.06" y1="439.23" x2="685.43" y2="435.01"/><line class="cls-25" x1="661.06" y1="449.44" x2="694.43" y2="443.65"/><line class="cls-25" x1="661.06" y1="459.64" x2="685.43" y2="455.42"/><line class="cls-25" x1="661.06" y1="434.13" x2="674.62" y2="431.78"/><line class="cls-25" x1="661.06" y1="444.33" x2="690.9" y2="439.16"/><line class="cls-25" x1="661.06" y1="454.54" x2="685.43" y2="450.32"/><line class="cls-25" x1="661.06" y1="464.74" x2="694.43" y2="458.96"/><line class="cls-25" x1="661.06" y1="469.85" x2="685.43" y2="465.62"/><polyline class="cls-33" points="438.55 303.11 438.55 257.12 495.49 245.77"/><path class="cls-44" d="M386.55,639.57s1.67,2,8.61,1.09"/><path class="cls-74" d="M387.45,472.84s1.19,4.49-3,16"/><path class="cls-44" d="M397.73,499.7s-14.27-10.49-17.52-15.53"/><line class="cls-75" x1="754.75" y1="281.23" x2="754.75" y2="343.58"/><line class="cls-75" x1="639.93" y1="363.99" x2="808.43" y2="333.58"/><path class="cls-76" d="M515.72,470.92a26.82,26.82,0,0,1,2.53-5.69q1.47-2.4,3.82-5.62c1.21-1.66,2.17-3,2.85-4.09a18.48,18.48,0,0,0,1.72-3.48,11.88,11.88,0,0,0,.74-3.89v0c0-2.16-.47-3.73-1.55-4.73a5.24,5.24,0,0,0-4.58-1,6.2,6.2,0,0,0-5.1,4c-3.48,7.47-7.72,10.79-10.72,6.45-2.08-3-.09-6.63,1.32-9.43a18.25,18.25,0,0,1,5.84-6.82,20.73,20.73,0,0,1,8.78-3.44,19.23,19.23,0,0,1,9,.37,9.86,9.86,0,0,1,5.63,4.36,14.63,14.63,0,0,1,1.79,8v0a18.29,18.29,0,0,1-1,5.66,22.44,22.44,0,0,1-2.17,4.62c-.85,1.35-2,3-3.4,4.88s-2.56,3.55-3.42,4.92a22.7,22.7,0,0,0-2.19,4.73,17.19,17.19,0,0,0-.59,2.22,5.26,5.26,0,0,1-4.28,4.26l-.22,0a4.48,4.48,0,0,1-5-5.68C515.59,471.34,515.66,471.13,515.72,470.92Zm4.73,12.88.32-.05a3.27,3.27,0,0,1,3.79,3.3h0a7.41,7.41,0,0,1-6.23,7.16l-.32.05a3.27,3.27,0,0,1-3.79-3.3h0A7.4,7.4,0,0,1,520.45,483.8Z"/><path class="cls-4" d="M740.22,261.36l.41-.06a5.18,5.18,0,0,1,6,5.23h0a6.47,6.47,0,0,1-5.44,6.26l-.42.07a5.19,5.19,0,0,1-6-5.24h0A6.48,6.48,0,0,1,740.22,261.36Zm1.38-57.66.12,0a5.19,5.19,0,0,1,6,5.23l-.82,38.45a6.49,6.49,0,0,1-5.45,6.26l-.12,0a5.2,5.2,0,0,1-6-5.24l.83-38.44A6.48,6.48,0,0,1,741.6,203.7Z"/><path class="cls-77" d="M540.8,406.91l-61.24,10.61-8.86,11.19.8-62.13a12.15,12.15,0,0,1,10.09-11.8l61.8-10.71a7,7,0,0,1,8.17,7l-.67,44A12.16,12.16,0,0,1,540.8,406.91Z"/><polygon class="cls-78" points="542.85 361.57 479.41 372.56 479.41 366.89 542.85 355.9 542.85 361.57"/><polygon class="cls-78" points="528.77 375.46 479.41 384.01 479.41 378.33 528.77 369.79 528.77 375.46"/><polygon class="cls-46" points="833.82 363.32 800.65 369.07 800.65 366.11 833.82 360.36 833.82 363.32"/><polygon class="cls-46" points="826.46 370.59 800.65 375.05 800.65 372.09 826.46 367.62 826.46 370.59"/><polygon class="cls-78" points="542.85 384.53 479.41 395.52 479.41 389.85 542.85 378.86 542.85 384.53"/><polygon class="cls-78" points="511.13 401.2 479.41 406.69 479.41 401.02 511.13 395.52 511.13 401.2"/><polyline class="cls-33" points="283.17 540 283.17 510.04 326.82 503.16 326.82 434.52 314.87 437.1"/><polygon class="cls-70" points="317.96 468.89 216.32 486.5 217.52 419.86 319.17 402.25 317.96 468.89"/><polygon class="cls-79" points="305.84 479.02 204.2 496.63 205.41 429.99 307.05 412.38 305.84 479.02"/><polygon class="cls-78" points="304.76 426.67 269.44 432.79 269.44 429.63 304.76 423.51 304.76 426.67"/><polygon class="cls-78" points="296.91 434.4 269.44 439.16 269.44 436 296.91 431.25 296.91 434.4"/><polygon class="cls-78" points="304.76 439.13 269.44 445.25 269.44 442.09 304.76 435.97 304.76 439.13"/><polygon class="cls-78" points="296.91 446.86 269.44 451.62 269.44 448.46 296.91 443.71 296.91 446.86"/><polygon class="cls-78" points="304.76 451.59 269.44 457.71 269.44 454.55 304.76 448.43 304.76 451.59"/><polygon class="cls-78" points="296.91 459.32 269.44 464.08 269.44 460.92 296.91 456.17 296.91 459.32"/><ellipse class="cls-46" cx="242.53" cy="450.17" rx="18.3" ry="13.44" transform="translate(-265.44 508.84) rotate(-68.27)"/><ellipse class="cls-66" cx="656.32" cy="410.25" rx="11.5" ry="8.44" transform="translate(61.63 905.63) rotate(-71.8)"/><path class="cls-44" d="M325,539s8.91-6.38,23.34,1,20.42,48.06,20.42,48.06"/><path class="cls-80" d="M321,546.29s-.8-8.11,5.84-1.94,15.75,41,15.11,43.36-15.06,6.44-20.08,9.38,14.92,1.84,24.41,8.8-2,.39-12.61-1a171.11,171.11,0,0,0-21.39-1.21,87.25,87.25,0,0,1,5.75-19,104.74,104.74,0,0,0,2.73-10.31C322.05,565,320.48,548.14,321,546.29Z"/><path class="cls-44" d="M376.07,497.81c-17.88,25.45-48.16,27.28-53.37,41.18-3.56,9.48-1.77,26.4-2,35.4-.17,7.68-6.45,16.05-9.42,29.31"/><path class="cls-81" d="M330.82,605a43.58,43.58,0,0,0-4.86,1.89c-3.66,1.56-7.18,12.84-7.76,13s-6.74-1.12-10.49.09-3.49,3.76-3.87,2.78,1.28-10.37,2-12.94,1.68-5.83,3.29-6.14a47,47,0,0,1,10.71-.42A53.19,53.19,0,0,1,330.82,605Z"/><path class="cls-44" d="M355.08,610.59s-8.24-3.58-22.41-5.8-20.76-1.82-23.59-1.09-2.05,2.77-3.31,6.89-2.36,11.46-1.57,14.52"/><path class="cls-82" d="M324.91,620.38s-1.37,3.55-3.58,11.23-6.46,34.87-5.16,40.22S327.05,684.22,329.5,685s8.83-1.26,8.83-1.26-15.57,12.2-21,8.07-8.55-14.6-8.54-24.48,5-47.33,5-47.33Z"/><path class="cls-44" d="M313.6,620.37s-4.2,21.73-4.79,41.21,3.89,29.55,11.12,31.36,46.74-28.87,63.83-51.42"/><path class="cls-44" d="M310.05,634.56c-5.34-2.95-9.44-15-1.06-14.61,10.53.46,26.12-2.1,48.45,6"/><path class="cls-24" d="M554.65,733.94l16.13,62.61s29.74-5.44,34.93-7.59c0,0-.07-8.37-.9-11.55"/></g></svg>