<svg xmlns="http://www.w3.org/2000/svg" xmlns:xlink="http://www.w3.org/1999/xlink" viewBox="0 0 1080 1080"><defs><style>.cls-1,.cls-16,.cls-20,.cls-26,.cls-27,.cls-31,.cls-34,.cls-38,.cls-39,.cls-44,.cls-46,.cls-5,.cls-51,.cls-53,.cls-61,.cls-65,.cls-66,.cls-67,.cls-68,.cls-7,.cls-70,.cls-71,.cls-72{fill:none;}.cls-2,.cls-3{fill:#ebebeb;}.cls-2,.cls-31,.cls-5,.cls-53,.cls-66,.cls-69{stroke:#fff;}.cls-16,.cls-2,.cls-20,.cls-5,.cls-65,.cls-70,.cls-71,.cls-72{stroke-miterlimit:10;}.cls-4{fill:#d8d8d8;}.cls-6{fill:url(#linear-gradient);}.cls-20,.cls-65,.cls-7{stroke:#b8c5ef;}.cls-30,.cls-31,.cls-34,.cls-38,.cls-39,.cls-44,.cls-45,.cls-46,.cls-51,.cls-53,.cls-58,.cls-61,.cls-68,.cls-7{stroke-linecap:round;}.cls-24,.cls-34,.cls-58,.cls-66,.cls-67,.cls-7{stroke-linejoin:round;}.cls-22,.cls-25,.cls-32,.cls-69,.cls-8{fill:#9fbdff;}.cls-10,.cls-11,.cls-12,.cls-9{opacity:0.2;}.cls-9{fill:url(#linear-gradient-2);}.cls-10{fill:url(#linear-gradient-3);}.cls-11{fill:url(#linear-gradient-4);}.cls-13{fill:url(#linear-gradient-5);}.cls-14{fill:url(#linear-gradient-6);}.cls-15{clip-path:url(#clip-path);}.cls-16{stroke:#164da7;stroke-width:0.5px;}.cls-17{fill:url(#linear-gradient-7);}.cls-18{fill:url(#linear-gradient-8);}.cls-19{fill:url(#linear-gradient-9);}.cls-20,.cls-26,.cls-27,.cls-30,.cls-31,.cls-32,.cls-65,.cls-68{stroke-width:2px;}.cls-21{fill:url(#linear-gradient-10);}.cls-22,.cls-29,.cls-69{fill-opacity:0.54;}.cls-23{fill:#f9b471;}.cls-24,.cls-29,.cls-35{fill:#fff;}.cls-24,.cls-51,.cls-67{stroke:#9fbdff;}.cls-25,.cls-27,.cls-65{fill-rule:evenodd;}.cls-26,.cls-27,.cls-32,.cls-38{stroke:#197ce1;}.cls-28{fill:#6b90d6;}.cls-30,.cls-43{fill:#ed6921;}.cls-30{stroke:#f9b471;}.cls-33{fill:#0d2265;}.cls-34,.cls-45,.cls-46,.cls-68{stroke:#113291;}.cls-36,.cls-40,.cls-58{fill:#feb36f;}.cls-37{fill:url(#linear-gradient-11);}.cls-39{stroke:#9c9c9c;}.cls-40,.cls-44,.cls-58,.cls-61{stroke:#ed6921;}.cls-41{fill:url(#linear-gradient-12);}.cls-42,.cls-73{fill:#2150c3;}.cls-45{fill:#197ce1;}.cls-47{fill:#9c9c9c;}.cls-48{fill:#113291;}.cls-49{fill:#c4c4c4;}.cls-50{fill:#e6e6e6;}.cls-52{fill:#ff7d2b;}.cls-54{fill:url(#linear-gradient-13);}.cls-55{fill:#197ddf;}.cls-56{fill:url(#linear-gradient-14);}.cls-57{fill:url(#linear-gradient-15);}.cls-59{fill:url(#linear-gradient-16);}.cls-60{fill:url(#linear-gradient-17);}.cls-61{stroke-width:2.56px;}.cls-62{fill:url(#linear-gradient-18);}.cls-63{fill:url(#linear-gradient-19);}.cls-64{fill:url(#linear-gradient-20);}.cls-70{stroke:url(#linear-gradient-21);}.cls-71{stroke:url(#linear-gradient-22);}.cls-72{stroke:url(#linear-gradient-23);}.cls-73{opacity:0.29;}</style><linearGradient id="linear-gradient" x1="204.22" y1="425.86" x2="846.53" y2="425.86" gradientUnits="userSpaceOnUse"><stop offset="0" stop-color="#3b7ce9"/><stop offset="1" stop-color="#2b84e5"/></linearGradient><linearGradient id="linear-gradient-2" x1="776.95" y1="604.65" x2="694.49" y2="406.15" gradientUnits="userSpaceOnUse"><stop offset="0" stop-color="#fbfef9"/><stop offset="0.52" stop-color="#eceefc"/><stop offset="1" stop-color="#dbdbff"/></linearGradient><linearGradient id="linear-gradient-3" x1="676.98" y1="620.84" x2="597.58" y2="429.71" xlink:href="#linear-gradient-2"/><linearGradient id="linear-gradient-4" x1="504.16" y1="617.4" x2="380.13" y2="318.8" xlink:href="#linear-gradient-2"/><linearGradient id="linear-gradient-5" x1="376.05" y1="392.13" x2="321.21" y2="260.1" xlink:href="#linear-gradient-2"/><linearGradient id="linear-gradient-6" x1="361.84" y1="603.69" x2="312.3" y2="484.42" xlink:href="#linear-gradient-2"/><clipPath id="clip-path"><path class="cls-1" d="M158.81-877.44s202.16-156.31,456-85.65c79.49,22.14,192.14,106.9,273.38,166.14,101.56,74.05,106.92,379-288.72,508-299.54,97.71-444-16.74-440.61-203.67Z"/></clipPath><linearGradient id="linear-gradient-7" x1="334.82" y1="-658.16" x2="334.82" y2="129.44" gradientUnits="userSpaceOnUse"><stop offset="0" stop-color="#acf" stop-opacity="0"/><stop offset="0.44" stop-color="#197ddf"/></linearGradient><linearGradient id="linear-gradient-8" x1="165.11" y1="-619.37" x2="165.11" y2="43.62" gradientUnits="userSpaceOnUse"><stop offset="0" stop-color="#1a58ad" stop-opacity="0.5"/><stop offset="0.77" stop-color="#1a58ad" stop-opacity="0"/></linearGradient><linearGradient id="linear-gradient-9" x1="811.45" y1="-581.29" x2="811.45" y2="43.62" xlink:href="#linear-gradient-8"/><linearGradient id="linear-gradient-10" x1="382.59" y1="290.87" x2="618.69" y2="-109.91" gradientTransform="matrix(1, 0, 0, -1, 24, 705.32)" gradientUnits="userSpaceOnUse"><stop offset="0" stop-color="#b5cdfd"/><stop offset="1" stop-color="#ecf1ff"/></linearGradient><linearGradient id="linear-gradient-11" x1="518" y1="180.29" x2="536.09" y2="173.08" gradientTransform="matrix(1, 0, 0, -1, 0, 639.39)" gradientUnits="userSpaceOnUse"><stop offset="0" stop-color="#969696"/><stop offset="1" stop-color="#c4c4c4" stop-opacity="0"/></linearGradient><linearGradient id="linear-gradient-12" x1="503.83" y1="218.11" x2="540.27" y2="216.9" gradientTransform="matrix(1, 0, 0, -1, 0, 639.39)" gradientUnits="userSpaceOnUse"><stop offset="0" stop-color="#969696"/><stop offset="0.79" stop-color="#c4c4c4" stop-opacity="0"/></linearGradient><linearGradient id="linear-gradient-13" x1="601.4" y1="603.89" x2="785.25" y2="561.45" gradientUnits="userSpaceOnUse"><stop offset="0" stop-color="#ff7d2b"/><stop offset="1" stop-color="#ff7d2b" stop-opacity="0"/></linearGradient><linearGradient id="linear-gradient-14" x1="435" y1="735.1" x2="498.73" y2="735.1" gradientUnits="userSpaceOnUse"><stop offset="0" stop-color="#1b44c0"/><stop offset="0.01" stop-color="#1b44c0"/><stop offset="0.41" stop-color="#1a63d2"/><stop offset="0.76" stop-color="#1975dd"/><stop offset="1" stop-color="#197ce1"/></linearGradient><linearGradient id="linear-gradient-15" x1="553.47" y1="-78.52" x2="588.83" y2="-41.99" gradientTransform="matrix(1, 0, 0, -1, 0, 639.39)" gradientUnits="userSpaceOnUse"><stop offset="0" stop-color="#1b44c0"/><stop offset="0.1" stop-color="#1b47c1" stop-opacity="0.95"/><stop offset="0.27" stop-color="#1b4dc6" stop-opacity="0.83"/><stop offset="0.48" stop-color="#1a59cc" stop-opacity="0.63"/><stop offset="0.73" stop-color="#1a68d5" stop-opacity="0.35"/><stop offset="1" stop-color="#197ce1" stop-opacity="0"/></linearGradient><linearGradient id="linear-gradient-16" x1="457.84" y1="657.8" x2="486.73" y2="657.8" xlink:href="#linear-gradient-14"/><linearGradient id="linear-gradient-17" x1="502.35" y1="626.96" x2="580.4" y2="626.96" gradientUnits="userSpaceOnUse"><stop offset="0" stop-color="#ff7d2b" stop-opacity="0.3"/><stop offset="1" stop-color="#ff7d2b" stop-opacity="0"/></linearGradient><linearGradient id="linear-gradient-18" x1="613.38" y1="521.15" x2="666.95" y2="430.23" xlink:href="#linear-gradient-17"/><linearGradient id="linear-gradient-19" x1="449.48" y1="627.13" x2="432.17" y2="585.46" xlink:href="#linear-gradient-17"/><linearGradient id="linear-gradient-20" x1="547.04" y1="557.27" x2="529.72" y2="515.57" xlink:href="#linear-gradient-17"/><linearGradient id="linear-gradient-21" x1="267.17" y1="485.29" x2="287.26" y2="485.29" gradientUnits="userSpaceOnUse"><stop offset="0" stop-color="#f1f6ff" stop-opacity="0"/><stop offset="0.99" stop-color="#f1f6ff"/></linearGradient><linearGradient id="linear-gradient-22" x1="773.91" y1="390.57" x2="793.99" y2="390.57" xlink:href="#linear-gradient-21"/><linearGradient id="linear-gradient-23" x1="355.18" y1="303.11" x2="434.25" y2="303.11" gradientTransform="translate(3.81 19.27)" xlink:href="#linear-gradient-21"/></defs><title>illustrations sketch</title><g id="Layer_6" data-name="Layer 6"><polygon class="cls-2" points="225.47 317.06 225.47 493.23 366.73 439.36 351.41 336.96 225.47 317.06"/><polygon class="cls-3" points="502.88 439.07 706.81 575.4 706.81 199.52 502.88 242.7 502.88 439.07"/><polygon class="cls-4" points="554.47 428.11 605.48 596.79 605.48 220.91 554.47 231.74 554.47 428.11"/><line class="cls-5" x1="605.37" y1="218.65" x2="605.37" y2="562.5"/><line class="cls-5" x1="708.9" y1="254.99" x2="370.22" y2="314.4"/><line class="cls-5" x1="708.9" y1="310.55" x2="370.22" y2="369.95"/><line class="cls-5" x1="656.48" y1="209.49" x2="656.48" y2="553.34"/><polyline class="cls-5" points="706.81 276.44 631.85 236.3 492.5 368.18"/><line class="cls-5" x1="554.47" y1="218.65" x2="554.47" y2="562.5"/><path class="cls-6" d="M269.8,660.47s-152.56-158.42,7.7-210.18,12.74-64.39,4-177.26,207.13-117.1,222.87,39S683.18,247.5,802,336.87s-37.66,278.81-37.66,278.81Z"/><path class="cls-7" d="M281.52,273c2.68,34.76,18.53,60,34.5,79.83,8.16-10.32,21.36-18.21,42.65-18.21,71.41,0,73.13-36.42,78.9-61.62,6.23-27.27,20.76-36.44,34.49-38.48C408.07,162.48,274.62,183.81,281.52,273Z"/><path class="cls-8" d="M394.54,335.81s1.08-1.19,5.54-.88,6.19.45,6,1.51-.28,7.76-2.58,9.25-5.72,1-8-1.71S394.54,335.81,394.54,335.81Z"/><path class="cls-9" d="M693.36,320.26V594.44h42.51V314.75C721.74,314.61,707.48,316.75,693.36,320.26Z"/><path class="cls-10" d="M677.34,324.8c-52.6,16.61-102,47.63-134.66,44.55V594.44H677.34Z"/><path class="cls-11" d="M460.69,223.32c-24.73-21.45-56.43-31.79-86.29-32.07V594.44h86.29Z"/><g class="cls-12"><path class="cls-13" d="M298.48,220.24V327.5c14.84,26.11,35.46,44.33,46.19,59.53V194.47C326.2,198.82,309.92,207.51,298.48,220.24Z"/><path class="cls-14" d="M344.67,419.08c-7.7,7.49-22.19,15.21-46.19,24V594.44h46.19Z"/></g><g class="cls-15"><polygon class="cls-16" points="667.62 126.09 790.71 162.01 790.71 -815.86 667.62 -851.78 667.62 126.09"/><polygon class="cls-17" points="401.61 90.45 268.03 129.44 268.03 -432.47 401.61 -658.16 401.61 90.45"/><polygon class="cls-18" points="231.9 4.64 98.32 43.62 98.32 -518.29 231.9 -619.37 231.9 4.64"/><polygon class="cls-19" points="878.24 4.64 744.66 43.62 744.66 -581.29 878.24 -526.78 878.24 4.64"/></g><path class="cls-20" d="M250.73,658.89s-152.56-158.42,7.7-210.18,12.73-64.39,4-177.26S469.58,154.36,485.32,310.4s178.79-64.48,297.6,24.9-37.66,278.81-37.66,278.81Z"/><ellipse class="cls-21" cx="540.52" cy="641.8" rx="318.14" ry="160.27" transform="translate(-78.84 75.7) rotate(-7.47)"/><path class="cls-5" d="M242.63,712.31s96.77,43,247,33.8"/><path class="cls-5" d="M843.57,599.76S746.29,732,582.72,747.4"/><path class="cls-5" d="M339.44,558S381.76,688.8,505.11,708.33"/><ellipse class="cls-5" cx="538.69" cy="669.22" rx="255.43" ry="128.68" transform="translate(-82.42 75.7) rotate(-7.47)"/><path class="cls-5" d="M274,594.44s51.51,110.7,184.6,135.41"/><path class="cls-22" d="M770,261.43l80.65-17.75V442.5L770,448.32Z"/><path class="cls-23" d="M786.27,372.81l-22.6,39.55V424l22.6-39.37,16.29,12.3,38-84.86,17,13.18L880,280.35l-5.64-3.91-16.86,35.62-17-12.52-38,87.51Z"/><path class="cls-22" d="M802,326.43l32.88-5.6v12.26L802,336.87Z"/><path class="cls-22" d="M775.94,420.6l19.68-2V442l-19.68,1.61Z"/><path class="cls-22" d="M800.48,392.74l19.69-2.17v49.86l-19.69,1.26Z"/><path class="cls-22" d="M825,338.07l19.68-3.16V438.05L825,439.45Z"/><path class="cls-24" d="M420.27,199.22l-56.6,88.9"/><path class="cls-24" d="M412.25,199.52,311.13,229.21"/><ellipse class="cls-24" cx="304.82" cy="231.48" rx="7.53" ry="8.9" transform="translate(-75.92 270.66) rotate(-43.09)"/><ellipse class="cls-24" cx="363.67" cy="289.13" rx="4.32" ry="5.11" transform="translate(-99.43 326.41) rotate(-43.09)"/><ellipse class="cls-24" cx="414.3" cy="201.72" rx="17.81" ry="21.04" transform="translate(-26.07 337.42) rotate(-43.09)"/><path class="cls-25" d="M794.37,607.84c-.75-4.15-10.59-42.82-38-21.46-11.09,8.65-17.31,21.31-22.6,32.09-7.8,15.89-13.6,27.71-30,16.67-1.31-.88-2.79-1.91-4.4-3h0c-21.48-14.87-67.14-46.49-72.7,13.74-3.41,36.88-19,32-38.79,25.86-15-4.66-32.34-10.08-48.71,1.18-30.43,20.94-28.06,63.7-23.06,82.78,22.28,19.48,70.18,47.14,120.27,59.34,37.12,7.9,38.9-19.1,40.51-43.43.91-13.8,1.77-26.74,9-32,6.63-4.8,18.32-3.88,30.5-2.92,24.46,1.93,50.86,4,42-39.88-4.15-20.58,6.6-31.81,17.54-43.24C787,641.92,798.39,630.05,794.37,607.84ZM633.5,759.13c3-2.46,12.73-3.48,21.58,5.86,11.07,11.69,10.35,35.56-5.81,31.9s-23-14.95-22.15-24.69C627.79,764.41,631.68,760.62,633.5,759.13Zm23.74-21.55c-4-4.21-5.8-5.61-8.83-3.89a8.89,8.89,0,0,0-3.76,7.14c-.15,6.87,5.61,14,12.89,15.62S662.23,742.85,657.24,737.58Zm62.56-29.17c.73-1.81,5.37-4.77,13-3.22,9.53,1.95,17.05,12,7.56,14.75s-16.71-.18-19.5-4.44C718.62,712.1,719.36,709.5,719.8,708.41Zm36.42-102.58c-6.9,10.74-5.11,19.6-2.77,21.78,1.41,1.32,4.94,4,11.47,2.59,8.16-1.75,20.31-16.05,16.63-31.35C777.76,583.12,764.84,592.41,756.22,605.83Zm-25.91,37.42c-1.31-2.14.83-8,4.21-13.71,4.08-6.86,10.18-6.31,12.65,1.72,2.4,7.81-5.19,12.76-9.36,13.93C734.47,646.13,732.19,646.31,730.31,643.25Z"/><path class="cls-8" d="M756.36,586.38l.3.4h0Zm38,21.46-.49.09h0Zm-60.61,10.63.44.22h0Zm-34.44,13.65.28-.41h0Zm0,0-.28.41h0Zm-72.7,13.74.49,0h0Zm-38.79,25.86.14-.48h0Zm-48.71,1.18.28.41h0Zm-23.06,82.78-.48.12,0,.15.12.1ZM636.33,815l-.12.49h0Zm40.51-43.43-.49,0h0Zm9-32,.3.4h0Zm30.5-2.92,0,.49h0Zm42-39.88.49-.09h0Zm17.54-43.24-.36-.35h0ZM655.08,765l-.36.34h0Zm-21.58-5.86-.32-.39h0Zm15.77,37.76.11-.49h0ZM627.12,772.2l.49,0h0Zm21.29-38.51.25.43h0Zm8.83,3.89-.36.34h0Zm-12.59,3.25h0Zm12.89,15.62-.11.49h0Zm75.26-51.26.09-.48h0Zm-13,3.22-.46-.18h0Zm20.56,11.53-.14-.48h0Zm-19.5-4.44.41-.27h0Zm32.59-87.89-.34.37h0Zm2.77-21.78-.42-.27h0Zm8.7,24.37.1.49h0Zm16.63-31.35-.49.12h0Zm-47,30.69.43.26h0Zm-4.21,13.71-.42.26h0Zm16.86-12,.47-.15h0Zm-9.36,13.93-.14-.48h0Zm18.85-58.41c6.79-5.29,12.42-6.81,17-6.15s8.34,3.52,11.29,7.22c5.9,7.42,8.53,18,8.9,20.08l1-.17c-.38-2.11-3.05-12.91-9.11-20.52-3-3.82-7-6.88-11.92-7.59s-10.86,1-17.78,6.34ZM734.2,618.69c5.31-10.8,11.48-23.35,22.46-31.91l-.61-.79c-11.19,8.72-17.45,21.49-22.74,32.27Zm-30.76,16.86c4.15,2.79,7.68,4.17,10.78,4.37a11.3,11.3,0,0,0,8.07-2.63,28.28,28.28,0,0,0,6.22-7.7c1.91-3.19,3.75-6.93,5.69-10.9l-.89-.43c-1.95,4-3.77,7.67-5.65,10.82a27.28,27.28,0,0,1-6,7.43,10.32,10.32,0,0,1-7.39,2.42c-2.85-.19-6.21-1.47-10.28-4.21Zm-4.4-3c1.61,1.11,3.09,2.14,4.4,3l.56-.83c-1.31-.87-2.78-1.89-4.4-3Zm0,0h0l.56-.82h0Zm0,0h0l.56-.82h0Zm0,0h0l.56-.82h0Zm0,0h0l.56-.82h0Zm-71.93,13.38c1.39-15,5.26-24.19,10.54-29.34s12-6.35,19.27-5.25,15.15,4.53,22.52,8.64,14.22,8.85,19.6,12.57l.56-.82c-5.37-3.72-12.27-8.49-19.68-12.62s-15.36-7.62-22.85-8.75-14.57.1-20.11,5.52-9.44,14.85-10.84,30Zm-39.43,26.28a115.4,115.4,0,0,0,14,3.77c4.34.75,8.35.8,11.87-.56,7.09-2.74,11.85-11,13.56-29.49l-1-.09c-1.7,18.42-6.43,26.14-12.93,28.65-3.28,1.27-7.08,1.25-11.34.51A114.67,114.67,0,0,1,588,671.24Zm-48.28,1.12c16.14-11.1,33.28-5.79,48.28-1.12l.29-1c-14.92-4.65-32.54-10.16-49.13,1.25Zm-22.86,82.24a102.65,102.65,0,0,1-1.75-40.48c2.58-15.61,9.54-31.39,24.61-41.76l-.56-.82c-15.36,10.57-22.43,26.64-25,42.42a103.54,103.54,0,0,0,1.77,40.89Zm119.9,59c-50-12.18-97.83-39.81-120.06-59.24l-.65.75c22.34,19.54,70.31,47.23,120.48,59.46Zm39.91-43c-.41,6.09-.82,12.31-1.79,18.11s-2.49,11.14-5.08,15.47a20.74,20.74,0,0,1-11.54,9.38c-5.31,1.76-12.28,2-21.51,0l-.21,1c9.34,2,16.5,1.79,22,0a21.69,21.69,0,0,0,12.08-9.81c2.69-4.48,4.24-10,5.21-15.81s1.4-12.14,1.8-18.21Zm9.18-32.34c-3.76,2.72-5.81,7.42-7,13.07s-1.68,12.38-2.13,19.27l1,.07c.45-6.91.89-13.56,2.11-19.13s3.21-10,6.67-12.48Zm30.83-3a144.52,144.52,0,0,0-17.39-.7c-5.31.25-10,1.23-13.44,3.72l.59.8c3.19-2.31,7.65-3.28,12.89-3.53a145.38,145.38,0,0,1,17.27.7Zm41.48-39.28c2.21,10.94,2.2,19,.62,24.79s-4.73,9.5-8.89,11.8-9.4,3.23-15.14,3.45a159.53,159.53,0,0,1-18.07-.76l-.08,1a158.48,158.48,0,0,0,18.18.76c5.81-.22,11.22-1.16,15.59-3.57s7.72-6.34,9.37-12.41,1.62-14.24-.6-25.24Zm17.67-43.69c-5.46,5.71-10.93,11.43-14.51,18.31s-5.25,15-3.16,25.38l1-.19c-2.06-10.18-.42-18,3.06-24.73s8.87-12.35,14.35-18.08Zm18.37-45.3c2,11,.17,19.41-3.51,26.51s-9.27,13-14.86,18.79l.72.69c5.57-5.82,11.25-11.75,15-19s5.64-15.93,3.61-27.14ZM655.44,764.65c-4.5-4.75-9.24-6.89-13.27-7.51s-7.34.26-9,1.6l.63.77c1.36-1.11,4.39-2,8.21-1.39s8.34,2.62,12.7,7.21Zm-6.28,32.72c4.17.94,7.41.12,9.72-1.91s3.58-5.15,4-8.71a29.07,29.07,0,0,0-7.44-22.1l-.72.68a28.1,28.1,0,0,1,7.17,21.31c-.4,3.41-1.62,6.28-3.67,8.08s-4.92,2.57-8.84,1.68Zm-22.54-25.21c-.85,10,6.18,21.5,22.54,25.21l.22-1c-16-3.61-22.58-14.71-21.77-24.16Zm6.56-13.42c-1.88,1.55-5.87,5.45-6.56,13.42l1,.08c.66-7.61,4.45-11.29,6.2-12.73Zm15.48-24.62a4.4,4.4,0,0,1,1.88-.65,3.33,3.33,0,0,1,1.71.39c1.23.61,2.62,1.94,4.63,4.06l.72-.68a20.59,20.59,0,0,0-4.91-4.27,4.18,4.18,0,0,0-2.21-.49,5.44,5.44,0,0,0-2.31.77Zm-3.52,6.72a8.89,8.89,0,0,1,1.27-4.32,6.84,6.84,0,0,1,2.25-2.4l-.49-.87a7.77,7.77,0,0,0-2.61,2.76,9.79,9.79,0,0,0-1.41,4.81ZM657.65,756c-7.07-1.6-12.65-8.52-12.51-15.13l-1,0c-.15,7.12,5.79,14.42,13.28,16.12Zm-.77-18.05a16.48,16.48,0,0,1,3.07,5.24,24.19,24.19,0,0,1,1.54,6.49,9.37,9.37,0,0,1-.66,5.05,2.59,2.59,0,0,1-1.21,1.18,3.16,3.16,0,0,1-2,.09l-.22,1a4.15,4.15,0,0,0,2.59-.15,3.63,3.63,0,0,0,1.68-1.61,10.37,10.37,0,0,0,.78-5.61,25.23,25.23,0,0,0-1.6-6.77,17.41,17.41,0,0,0-3.28-5.56Zm76-33.21a17.59,17.59,0,0,0-9.34.36,10.08,10.08,0,0,0-2.79,1.46,4.43,4.43,0,0,0-1.42,1.7l.92.37a3.46,3.46,0,0,1,1.11-1.28,9,9,0,0,1,2.51-1.31,16.65,16.65,0,0,1,8.82-.33Zm7.61,15.71c2.46-.71,3.94-1.92,4.49-3.49a5.77,5.77,0,0,0-.86-4.91c-2-3.23-6.35-6.31-11.24-7.31l-.19,1c4.64,1,8.78,3.89,10.58,6.86a4.79,4.79,0,0,1,.77,4.06c-.4,1.15-1.54,2.21-3.83,2.86Zm-20.06-4.65c2.95,4.5,10.44,7.39,20.06,4.65l-.28-1c-9.35,2.67-16.31-.22-19-4.23Zm-1.1-7.54c-.48,1.19-1.25,4,1.1,7.54l.83-.54c-2.12-3.23-1.4-5.64-1-6.63Zm34.45-81a5.88,5.88,0,0,1-1.39-2.59,15.05,15.05,0,0,1-.53-4.71,27.55,27.55,0,0,1,4.77-13.85l-.84-.54a28.67,28.67,0,0,0-4.93,14.36,15.89,15.89,0,0,0,.58,5,6.9,6.9,0,0,0,1.66,3Zm11,2.46c-6.32,1.36-9.69-1.21-11-2.46l-.68.73c1.49,1.39,5.18,4.15,11.91,2.71ZM781.06,599c1.81,7.49-.26,14.75-3.81,20.37s-8.54,9.54-12.44,10.37l.21,1c4.26-.92,9.44-5.05,13.07-10.82s5.82-13.32,3.94-21.13Zm-24.42,7.13c4.29-6.69,9.61-12.26,14.25-14.24,2.3-1,4.36-1,6.06,0s3.18,3.25,4.11,7.13l1-.23c-1-4-2.53-6.52-4.57-7.75s-4.48-1.09-7,0c-4.92,2.09-10.37,7.88-14.7,14.61Zm-22.55,23.19a43.25,43.25,0,0,0-3.91,8.29,15.45,15.45,0,0,0-.74,3.39,4.29,4.29,0,0,0,.45,2.54l.84-.52a3.46,3.46,0,0,1-.3-2,14.41,14.41,0,0,1,.7-3.16A41.94,41.94,0,0,1,735,629.8Zm13.55,1.82c-1.26-4.09-3.5-6.47-6.13-6.79s-5.33,1.46-7.42,5l.86.51c2-3.36,4.38-4.74,6.44-4.49s4.09,2.16,5.3,6.09Zm-9.7,14.56a16.58,16.58,0,0,0,7.38-4.62,9.9,9.9,0,0,0,2.32-9.94l-.95.29a8.92,8.92,0,0,1-2.1,9,15.62,15.62,0,0,1-6.92,4.33Zm-8.05-2.16a5.16,5.16,0,0,0,3.53,2.7,10.44,10.44,0,0,0,4.52-.54l-.27-1a9.45,9.45,0,0,1-4.07.52,4.22,4.22,0,0,1-2.87-2.24Z"/><path class="cls-26" d="M775.15,606.14c-9,18.27-36.11,57.28-72.32,67.09C657.57,685.5,576.9,739.79,557.57,783.87"/><path class="cls-26" d="M656.72,693.67c9.2-4.27,37.23-6.45,75.68,19m-142.9,45.9c2.84.37,41.66.74,64.79,21.42"/><path class="cls-27" d="M654.13,618.47s15.33,52.7-7.73,80.88"/><path class="cls-27" d="M570.56,704.53s13.57,31.08,5.53,50.77"/><path class="cls-26" d="M339.44,664.49c1.6,3.11,19.16,91,104,118.17,67.83,21.72,18.06,4.23,23.34,16.65"/><path class="cls-28" d="M328.21,639.56c-2.79-14.53.82-27.23,1.21-29a53.3,53.3,0,0,0,9.44,22.61c10.22,14.12,2.29,26.11.3,26.28S331,654.09,328.21,639.56Z"/><path class="cls-28" d="M332.05,674.65c-7.43-5-21.79-17.78-23.53-19,4.49,9.17,12.38,23.09,20,30.62,6,6,14.81,6.92,18.43,6.61C344.43,688.44,338,678.65,332.05,674.65Z"/><path class="cls-28" d="M334.49,704.62c-8.9-1-31.45,6-33.59,6.21,16.67-1.69,17.74,1,35.3,4.8,8.35,1.79,15.65-.16,18.14-2.81C349.56,711.21,347.39,706,334.49,704.62Z"/><path class="cls-28" d="M342.34,730.5c-8.13,3.74-23.92,21.28-25.65,22.56,13.44-10,15.77-8.2,32.76-14,8.09-2.75,13.35-8.16,14.13-11.71C358.65,728.42,354.13,725.08,342.34,730.5Z"/><path class="cls-28" d="M348.48,751.76c-7.58,7.5-18.1,33.59-19.5,35.73,10.95-16.69,14.3-15.62,31-29,7.92-6.38,11.61-14.6,11-18.89C365.89,742.77,359.47,740.87,348.48,751.76Z"/><path class="cls-28" d="M362.66,774.37c-6.41,11.25-10.18,45.18-11.13,48.14,7.36-23.09,11.62-22.93,26.72-44.06,7.18-10.06,8.81-20.86,6.72-25.69C380.08,758.17,372,758.05,362.66,774.37Z"/><path class="cls-28" d="M385.84,792.34c-.43,11.93,11.89,45.17,12.43,48.17-4.19-23.45-.38-24.06,3.13-47,1.67-10.92-1.89-21.58-5.94-25.84C393.66,773.73,386.48,775.05,385.84,792.34Z"/><path class="cls-28" d="M366.32,683.12c.66-8.93-.93-15.08,10-30.65-13,11.27-19,23-21.81,33.26-2.24,8.25,1.32,16.3,3.38,19.3C360.47,700.7,365.79,690.26,366.32,683.12Z"/><path class="cls-28" d="M382.32,706.47c.66-8.93.08-17.94,11-33.51-13,11.26-19.86,20.58-22.65,30.88-2.24,8.25-.76,19.62,1.3,22.62C374.57,722.13,381.79,713.61,382.32,706.47Z"/><path class="cls-28" d="M399.07,726.13c.66-8.93,7.22-22.74,18.14-38.3-13,11.26-27,25.37-29.78,35.67-2.23,8.24-.76,19.62,1.3,22.61C391.32,741.79,398.55,733.27,399.07,726.13Z"/><path class="cls-28" d="M418.59,740.88c3.34-8.31,3.84-17.09,19-28.61-15.81,6.79-23.48,13.6-29.27,22.57-4.64,7.18-6.68,18.46-5.63,21.94C406.45,753.45,415.92,747.52,418.59,740.88Z"/><path class="cls-22" d="M267.67,418.2l-53.11,15.29v42.26l53.11-24.29Z"/><path class="cls-29" d="M267.67,462.28l-53.11,25.14v42.26l53.11-34.14Z"/><path class="cls-29" d="M267.67,504.08l-53.11,36.19v42.26l53.11-45.19Z"/><path class="cls-26" d="M225.47,440.71l36.31-11.56m-19.15,16.77,19.15-6.85"/><path class="cls-26" d="M221.61,493.21l40.17-19.39M239.5,493.21l22.28-11.88"/><path class="cls-26" d="M222.52,550.63l39.26-27.78M237,552.57,261.78,534"/><path class="cls-26" d="M261.78,489.44,234.65,505"/><path class="cls-23" d="M298.48,336l-57.36-6.92v30.72h57.36Z"/><path class="cls-30" d="M260.27,337.3l-13-1.35v17h13Z"/><path class="cls-23" d="M298.48,368.18,241.12,371v30.73L298.48,392Z"/><path class="cls-30" d="M260.27,376.34l-13,.74v17l13-2.1Z"/><path class="cls-31" d="M266.53,340.25l22,1.81"/><path class="cls-31" d="M266.53,379.94l22.38-1.79"/><path class="cls-31" d="M266.53,346l15,1"/><path class="cls-31" d="M266.53,385.72l16.63-1.91"/><path class="cls-32" d="M425.48,383.81V362.72l13.42,21.09L425.48,404.9Z"/><path class="cls-32" d="M448.3,383.81V362.72l13.42,21.09L448.3,404.9Z"/><path class="cls-32" d="M471.13,383.81V362.72l13.42,21.09L471.13,404.9Z"/><path class="cls-33" d="M514.68,363c15.21-9.87,28.43-9.93,33.14-8.73,11.83,1.18,34.09,7.76,37.78,32.11s12.59,30.27,22.92,46c8.27,12.6,11.63,24.78,12.28,29.29-5.83-.05-17.76-.12-18.83,0s-1.66-6-1.81-9.13c-.45,3-1.47,9.17-2,9.92-.63.95-13.61,2.06-14.34,2.06s-1.53-4.62-1.94-6.93l-1,6.93c-3.54-.37-17.36.73-23.82,1.33l-31.79,5.85H493.07c-6-4.89-7.87-16-8.07-20.92a36.76,36.76,0,0,0,2.45,21.63h-20.3c-2-3.51-5.24-13.87-1.54-27.23,4.63-16.7,16.19-27.23,23.89-38.54S495.67,375.29,514.68,363Z"/><path class="cls-34" d="M556.77,465.41c7-.47,21.62-1.33,24.08-1,1.12-6.35-.47-26.12-1.41-35.21"/><path class="cls-35" d="M710.74,396.29c-3.57,1.88-12.56,13.8-17.25,17.81-.72,2.76,1.4,5.66,6.53,9.57s7.28.14,8-1l8.71-7.57c5.31,4.85,17.08,5.27,22.55,8.5,1.83,1.08,10,5.94,12.5,5.45,1.68-.33,4.86,1.58,3.71-3.42s-10-8.83-12.21-10.91-6.7-3.54-6.76-5.37c0-1.46-.77-4.25,2.31-7,.25-.4,10.18-3,12.81-3.2,3.28-.31,5.74.2,7.7-.78s10.68-1,18-1.09,8.15-3.41,7.4-5.43-18.91-1.38-23.49-1.41-5.81-.49-11.28,0-7.26,3.16-14.93,2.89C721.35,392.87,715.21,393.94,710.74,396.29Z"/><path class="cls-36" d="M644.11,490.09c-11.23,2.18-33.33,11.92-48.3,11.16-4.71,4.92,3.67,46.37,18.73,44s60.9-20.37,64.94-26.71,16-21.63,17.16-47.34c.61-13.75,16.4-8.94,15.45-35.61-.37-10.62-2.71-16.17-6-17.72-4.28-2-11-4.54-14.34-1.75-4.93,4.11-15.83,32-33.35,55.16C655,475.81,645.7,489.79,644.11,490.09Z"/><path class="cls-35" d="M520.92,482.3c.21-4.35-2.38-26.29-3.71-36.72l41.09,12.06c-.66,7.12-2,22.49-2.25,27.05C555.79,490.39,520.66,487.74,520.92,482.3Z"/><path class="cls-37" d="M532.5,459.82c-1.32-1.21-13.7-12.51-14.36-12.84-1.79-1.37,2,21.38,2,25.12,1.63,1,10.15.8,13.29.93C530.68,466.81,533.82,461,532.5,459.82Z"/><path class="cls-38" d="M481.66,560.81c-.45,7.5-1.76,23-3.52,27.73m-.26.61c.09-.18.17-.38.26-.61m12.49-27.73c-3.78,8-6.09,12.47-12.49,27.73"/><path class="cls-39" d="M759.79,397.47c3.74,1,19.14,1.85,22.6-1.29,4.31-3.91,4.22-6.63-5.82-6.29s-15.31.08-21.74.12-15.25,2.95-21.71,3.42-18.16-2.38-25.63,6c-3,3.33-9.22,10-13.08,15.13"/><path class="cls-36" d="M389.32,460.31c0-20.27-4.67-48.06,1-65.14,4.39-.86,19.16,1.87,24.17,9.38,1.59,2.39-7.82,25.43,1.84,44.85,9,18.11,12.35,26.05,13.5,31.62,8.84,1.11,4.42.62,12.15,8.1,14.06,13.62,43.95,20.47,44.75,21.53s-45,30.46-49.05,29.18c-20.23-6.35-31.49-14.54-36.18-23.92C394.8,502.58,389.32,485.12,389.32,460.31Z"/><path class="cls-40" d="M522.19,472.41c-6.71-1.49-4-3.73-1.86-4.66-1.87.32-4,1.13-4,4.66,0,2.82,1.55,10.07-.36,19.73-1.81.76-5.42,1.64-12.3,2.65-8.6,1.27-32.58,6-41.77,6.48s-13.54,6.78-16.93,13.79,3.63,18.14,13.79,30.24.42,24.1,0,34c-.76,17.67,6.32,20.81,5,35.08-1.17,12.83-25.67,30.76-6.49,42.44s78.72,2.67,103.17-1.29c0,0,18.76,9.11,20.12-9.75s-9.27-16.37,0-35.37,9.69-18.55,9.8-26.48a78.82,78.82,0,0,1,2.3-17.65c2.69-9.08,9.08,19.13,28.33,42,11,13,46.76-5.43,46.76-5.43,3.09-28.34-13.16-29.42-22.12-41.67a163.19,163.19,0,0,1-24.35-47.62c-3.05-9.15-1.52-8.28-13.71-11.72-9.76-2.76-33.17-5.75-45.2-7-3.53-3.5-1.44-25-2-22.89C559.75,474.54,530.58,474.27,522.19,472.41Z"/><path class="cls-36" d="M791.74,590.19c-6-3.39-15.4-17.26-14.57-21.34-1.84-1.77-2.11-4-8.38-.9C758,573.3,745.6,582,734.65,586.27c-16,6.2-28.61,5.74-34.36,6.83-13.56,2.55-29.88,9.5-31.63,8.5s-8.74-12-13.48-19-44.12,11.23-39.13,19,20.21,24.53,26.45,30,9.84,11.78,19.79,12.73c15.73,1.5,49-7.82,70.48-17.81,11.3-5.25,9-5.1,20.62-9.27,5.2-1.23,32.57-3.73,35.17-5.7C793.25,608,794,591.48,791.74,590.19Z"/><path class="cls-36" d="M367.93,535.2c-4.39,9.57-14.89,12.95-17.9,12.36l-3.38-1c-.39,1-1.13.26.69,2.56.44.56,3.8-1,5.46,1.53,1.34,3.35-4.6,6.32-2.77,11.05,1,2.54,10.36,26.72,11.43,29.5a342.31,342.31,0,0,0,17.08,38.47c8.19,16.21,16.19,21.4,31,22.08,11.87.55,47.07-43.59,60.76-75.21,2.73-18.86.13-75-12.76-72.89-16.09,2.63-19.85,18.4-22,27.28V531c-11.67,48.85-26,43.84-27.44,50-2.86,12,.44,14.05-3.29,10.79-13.73-12-25.09-50.37-29.73-50.37s-6-8.66-7.2-10.47c-1-1.45.63.69,0,1.29Z"/><path class="cls-36" d="M443.43,565.13c-5.62-11-13.49-7.47-16.72-4.35,2.05-8.42,6.63-26.7,8.57-32.42,2.43-7.16,4.09-13.8,10.48-20.45s11-6.89,20.06-7c7.26-.1,36.55-5.72,50.29-8.51,3.33,2.18,13.15,6.71,25.75,7.33s18.86-3.33,20.41-5.39c13.31,2.16,41.18,6.7,46.11,7.56C614.55,503,621,505.41,625,520.62c3.22,12.17,16.07,33.06,22.1,42-5.28-3-17.76-7.62-25.53-1.83s-7.87,28.38-7,39c-3.79-5.27-17.48-32-18.14-33.57s-2.87-2.3-3.94-1.48c-.86.66-.92,7.34-.84,10.61-.89-.14-5-1.37-14.47-5.17-11.78-4.76-28.94.62-35.35,2.48s-19.65.08-47-5.15-34.61,7.84-36.22,10.9c-1.29,2.45.53,13.19,1.61,18.26l-11.8,17.7C449.12,602.49,449.05,576.1,443.43,565.13Z"/><path class="cls-35" d="M511.26,435.44c-6.08-16-2.24-43.71.86-53.87a138.32,138.32,0,0,1,27.59-1.44c.54,0,.42-2.81,1-2.78s1.89,3,2.49,3a100.38,100.38,0,0,1,11.88,1.8c.52.11.52-10,1-9.91s3.44,10.7,4,10.84c9.86,2.48,16.37,5.91,19.48,8.27-.13.84-.45,4.75-1.84,18.72-1.75,17.46-6.92,38.32-24.46,52.49C543.29,470.63,517.34,451.46,511.26,435.44Z"/><path class="cls-41" d="M516.05,392.71c-.72-.09,2-8.65,2.94-11.67-3.29-.79-6-.77-7.78,3.95-2.23,5.89-4.94,23.89-2.23,41.73s23.18,34.25,31.86,36.64-10.71-13.68-12.3-16.17c-3.83-6-8.45-32.53,1.21-36.28,6.12-3.17,6.34-3.88,8.89-4.57,5.76-1.56,4.69-4.34,4.69-5.28,0-2.67-6.71-8.65-11.25-9.78S517,392.82,516.05,392.71Z"/><path class="cls-42" d="M583.71,413c-3.36,1.9-5.63-1.85-6.35-4-1.47,7.75-4,21.6-2.49,15.07,1.93-8.16,4.08,11.1,5.89,2.49s10.31,1.25,8.73-4.64,14.84,5,11.55,1.58c-2.63-2.71-8.8-12.91-11.55-17.67A14.1,14.1,0,0,1,583.71,413Z"/><path class="cls-22" d="M833.17,479.57l29.59,6.92V509.4l-2.37,7.6-5.84-9.92-21.38-7.53Z"/><path class="cls-4" d="M749,406.07c-2.56.36-9-1-11.88-1.66,2.09-1.82,6.56-5.43,7.65-5.37,1.37.07,8.54-.39,11-1.29a7.11,7.11,0,0,1,4.55-.37l-2.22,1.15c1,1.61,5.11,5.89,8,7,3.57,1.42,10.06,7.51,11.11,9s-3.46,2.19-10.57.36-10.71-6.95-11.64-7.79S752.19,405.62,749,406.07Z"/><path class="cls-39" d="M738.75,404.53c2.83.67,9.21,1.8,12.13,1,3.64-1,5,7,16.84,9.54s10.74-.18,7.29-2.87-12.6-8.17-13.84-10.28a8.22,8.22,0,0,0-3.15-3"/><path class="cls-39" d="M761,394.91c-.71.45-1.78,1.58-.38,2.47m-13.84,3.2c.83.12,11.57-1.75,13-3.11"/><path class="cls-39" d="M716.57,414.93c-1.76,1.22-5.36,4.12-6.64,6.19"/><path class="cls-36" d="M698.57,403.42c-1.74.2-4.55,7.71-5.73,11.45-.22.32.92.93,7.23.73a10.59,10.59,0,0,1,10.3,7.32l5.36-3.69c-1.29-3.08-4.5-9.87-7.1-12.38A13.49,13.49,0,0,0,698.57,403.42Z"/><path class="cls-43" d="M711.19,424a81.27,81.27,0,0,1,1.43,11.66,34,34,0,0,1-1.3,11.72,20.55,20.55,0,0,1-2.6,5.35,29.65,29.65,0,0,1-3.87,4.48c-1.39,1.38-2.84,2.68-4.1,4.12a17.55,17.55,0,0,0-3.1,4.77,18.16,18.16,0,0,0-1.32,5.54c-.16,1.9-.11,3.87-.25,5.83a62.84,62.84,0,0,1-2,11.57,100.34,100.34,0,0,1-8.76,21.7v0A30.56,30.56,0,0,1,681,517a33.84,33.84,0,0,1-5.64,5.19,37.81,37.81,0,0,1-6.73,3.65L661.66,529c-4.64,2.08-9.3,4.11-14,6a129.92,129.92,0,0,1-14.42,5,.18.18,0,0,1-.2-.11.18.18,0,0,1,.12-.21,128.46,128.46,0,0,0,14.35-5c4.7-1.91,9.35-4,14-6.06l6.91-3.21a37.92,37.92,0,0,0,6.62-3.64,33.53,33.53,0,0,0,5.53-5.12,30.41,30.41,0,0,0,4.24-6.2v0h0a99.4,99.4,0,0,0,8.61-21.59,61.78,61.78,0,0,0,2-11.44c.13-1.92.07-3.86.23-5.85a18.73,18.73,0,0,1,1.35-5.78,18.34,18.34,0,0,1,3.22-5c1.3-1.49,2.75-2.81,4.12-4.17A29.12,29.12,0,0,0,708,452.2a19.65,19.65,0,0,0,2.47-5.14,33.1,33.1,0,0,0,1.21-11.4,81.4,81.4,0,0,0-1.46-11.51.5.5,0,0,1,1-.2Z"/><path class="cls-44" d="M644,490.94c6.47-6.79,25.36-34.78,33.29-49,5.65-10.14,9.3-20.77,15.84-27.34"/><path class="cls-43" d="M599.2,499.55a112.51,112.51,0,0,0,26.39-4.68c2.14-.66,4.25-1.4,6.4-2.09s4.34-1.26,6.57-1.72a37.43,37.43,0,0,1,6.77-.76,33.62,33.62,0,0,1,6.8.63.5.5,0,1,1-.18,1h0a32.53,32.53,0,0,0-6.6-.64,35.83,35.83,0,0,0-6.6.71c-2.18.43-4.34,1-6.48,1.66s-4.26,1.41-6.42,2.06a112.81,112.81,0,0,1-26.6,4.57.36.36,0,0,1-.38-.34A.35.35,0,0,1,599.2,499.55Z"/><path class="cls-44" d="M692.48,415.12c.85-.52,3.62-1,10,1s8.06,6.27,8.11,8.16"/><path class="cls-44" d="M703,404.1c-1.45,2.39-4.48,7.91-5,10.9m10.26-8.11c-1.51,1.58-4.72,5.64-5.52,9.24m9.58-3.42c-1.65,1.24-5,4.12-5.39,5.66"/><path class="cls-44" d="M692.87,414.6c1.44-3.61,4.52-10.9,5.35-11.2,1-.37,7.17,0,10.93,4.38a47.65,47.65,0,0,1,6.56,11.37l-5.09,3.29"/><path class="cls-45" d="M810.8,563.24c-4.27.35-4.83-2.64-4.11-4.09,16.11-9.33,49-28.1,51.48-28.63,3.16-.65,10.34-1.52,10.67-1.08s.87,3-3.81,5.44S816.13,562.8,810.8,563.24Z"/><path class="cls-4" d="M806.69,560.59c-3.12-.78-5.31-4.66-6-6.5a6.38,6.38,0,0,1,0-4.51c.93-2.46,6-12.72,8.07-14.81s12.72-4.64,15.36-4.64,3.42,6,9.63,8.82c1.84.85,2.72,3.76,0,4.9s-11-5.09-12.27-5.81-4.54,1.42-1.94,4.67,6,1.47,9.92,2.44S810.59,561.57,806.69,560.59Z"/><path class="cls-8" d="M868.9,529c.41-.73-7.8-3.19-9.93-4.62-16.47,8.3-45.58,24.46-46.52,25.09-1.17.78-4.3,6.91-5.08,8.08s-2.87,4,2.6,2.74S868.37,529.93,868.9,529Z"/><path class="cls-35" d="M810.11,563.18c-3.24.28-8.81-6.12-9.71-8.42-.29-.61-.93-1.6-1.25-.65s-6.66,7-9.79,9.87a13.71,13.71,0,0,0,2.37,8.21c2.14,3,6.67,6.77,8.67,8.3,2.77-2.29,9-7.16,11.86-8.3s13.19-5.68,18-7.81c1.87-1.85,6.26-5.86,8.85-7.19s4.71-5.71,5.45-7.74c3.21-2.18,10.45-4.94,13.23-6.33,3.48-1.74,3.71-2.25,4.58-3.28s2.84-1.84,0-1.84c-2.27,0-13.52,6.49-16.39,8.18.74-1.34,9.89-13,4.07-12.91-4.19.08-8.18,8.21-9.36,10.65a14.21,14.21,0,0,1-4,4.5,2.13,2.13,0,0,0-1.58-3.08c-2.61-.63-5,3.58-7.81,9.42S820,562.32,810.11,563.18Z"/><path class="cls-46" d="M850.6,538.86l18-9.09c2-2.13-8.14-5.42-9.59-5.16l-21.22,11.47c-7.17,4.08-23,12.52-25.24,13.5s-7,10.2-6.65,10.89c.26.92,1.55,2.65,4.7,2.25a15.22,15.22,0,0,0,7.12-2.63"/><path class="cls-39" d="M818.9,538.8c-.1,1.86,1.1,4.36,2.45,5.13"/><path class="cls-39" d="M831.19,563.19c.34-.24,8.93-7.47,9.78-8.73s10.94-18.81,11-20.1-2.12-1.56-4.43-.84S842.4,539.78,842,541s-4,6.44-5.76,7.69"/><path class="cls-39" d="M863,536.29c1.58,2.65-.69,3.76-3,5.45-2,1.49-14.46,8.32-16.43,9.22"/><path class="cls-4" d="M373.6,368.25l2.13-3.08c3-3.23,9.7-3.8,12.63-3.68.42-1.47-2.27-5.46-3.67-7.27,3.23-.37,6.39-4,7.94-6.61s.29-4.56-1.11-5.88-6.54,5.29-6.83,5.88-5.07.36-7.71,1c-2.12.52-1.72,4.82-1.25,6.9l-5.59-3.38a25.12,25.12,0,0,0-2.15-4.5c-1.18-2-5.63-7.16-10-8.19s-4.53.58-2.54,4.11,8.27,9.76,10,11,4.26,5.14,1.84,4.41a6.93,6.93,0,0,1-3.6-2.58c-2.28-3-6.47-6.31-9.18-7.05a3,3,0,0,0-3.75,4c.95,2.13,5.58,7.49,9.77,8.6s7.42,5.21,8.6,5.87C370.13,368.34,372.52,368.33,373.6,368.25Z"/><path class="cls-35" d="M373.57,368.35c.29-1.81,3-5.63,11.63-6.39,10.78-.95,17.55,4.1,17.84,3.62s.19-4.95,4.29-7.82c0-.47-3.44-2.47-3.24-7.53s3.24-7.91,4.48-6.67a4.51,4.51,0,0,1,1.14,3.14c1.3,2.13,4.22,6.51,5.44,7a3.5,3.5,0,0,1,2.19,4.1c-.38,2-2,16.31-7.63,26.23v11.25a19.83,19.83,0,0,0-11.44-5.05,32.83,32.83,0,0,0-5.53-.11v.11c-.1,0-.12-.08,0-.11,0-2.45-.45-7.4-2.1-8.38a28.42,28.42,0,0,0-12.59-4.29c-6.4-.59-4.45-.82-6.81-2.09s-11.08-3.9-14.94-4.13-5.45-2.36-4.59-3.73,8.81-2.18,15.67.89A25.84,25.84,0,0,1,373.57,368.35Z"/><path class="cls-39" d="M407.33,357.45c-4.15-3-3.65-8.44-2.88-10.76,0,0,.78-3.24,2.13-3.51"/><path class="cls-47" d="M402.54,365.31A12.17,12.17,0,0,1,405,359.6a10.06,10.06,0,0,1,5.12-3.49.42.42,0,0,1,.26.8h0a10.2,10.2,0,0,0-2.56,1.27,9,9,0,0,0-2.06,2,11.39,11.39,0,0,0-2.21,5.25v0a.5.5,0,0,1-.56.43.51.51,0,0,1-.43-.57Z"/><path class="cls-47" d="M406.43,342.7a2.54,2.54,0,0,1,1.48,0,1.83,1.83,0,0,1,1.07,1.15,7.43,7.43,0,0,1,.29,1.23,3.57,3.57,0,0,0,.13.5c.05.15.11.17.05.14h0l.28.22a43.8,43.8,0,0,0,3,4.48,19.84,19.84,0,0,0,1.73,2,7.37,7.37,0,0,0,1,.83,2.75,2.75,0,0,0,.5.27,3.5,3.5,0,0,1,.7.31,2.41,2.41,0,0,1,1.06,1.27,4.55,4.55,0,0,1,.23,1.51c0,1-.12,1.86-.17,2.75a19,19,0,0,1-.21,2.77c-.15.91-.34,1.81-.55,2.7-.85,3.57-1.91,7.06-3.08,10.52-.59,1.72-1.21,3.44-1.91,5.14a11.85,11.85,0,0,1-3.14,4.64.41.41,0,0,1-.59-.05.42.42,0,0,1,0-.59,11.15,11.15,0,0,0,2.87-4.34c.69-1.67,1.3-3.38,1.88-5.09,1.15-3.44,2.2-6.92,3-10.44.2-.87.38-1.76.53-2.64a20.58,20.58,0,0,0,.19-2.67c0-.92.15-1.83.15-2.69a2,2,0,0,0-.82-2,2.74,2.74,0,0,0-.54-.23,3.17,3.17,0,0,1-.71-.38,7.81,7.81,0,0,1-1.11-.93A22.66,22.66,0,0,1,412,351a45.21,45.21,0,0,1-3.09-4.57l.27.22h0a1.14,1.14,0,0,1-.68-.74,3.93,3.93,0,0,1-.17-.65,8.26,8.26,0,0,0-.25-1.08c-.12-.31-.26-.49-.46-.55a1.53,1.53,0,0,0-.86.05h0a.51.51,0,0,1-.62-.34.5.5,0,0,1,.34-.62Z"/><path class="cls-47" d="M393.27,382.26a12.94,12.94,0,0,0-1.29-2.68,10.5,10.5,0,0,0-.87-1.2,4.06,4.06,0,0,0-1-.89l-.05,0a.42.42,0,0,1,.36-.76,3.91,3.91,0,0,1,1.38,1.08,11.12,11.12,0,0,1,1,1.28,13,13,0,0,1,1.45,2.88.5.5,0,0,1-.32.63.49.49,0,0,1-.63-.31Z"/><path class="cls-39" d="M393.91,384.07a26.7,26.7,0,0,0-12.39-6.14c-7.37-1.35-7.73-.61-9.33-1.84s-9.45-4.79-15.1-5-8-3.44-2.82-4.54c4.13-.89,10.64.94,13.38,2,3.44-.29,11.46-.17,16.08,2.58"/><path class="cls-39" d="M376.47,364.59c-.49-.37-6.73-5.56-10.05-6.3s-3.93-4.54-8.83-7.85-7.49.86-6.76,2.82,7.12,8.1,9.21,8.35c1.67.19,7.57,4.58,10.31,6.75"/><path class="cls-39" d="M382.07,362.1c-2.42-2.6-7.73-7.69-10.46-8.8-3.41-1.38-.21-3.52-7.46-9.7-7.56-6.76-9.92-4.31-10-2.61s8.32,11.14,10,12.31c1.36.94,4.05,4.15,4.22,5.74"/><path class="cls-39" d="M375.91,356c-.27-1.09-.82-3.4-.82-3.84A6.7,6.7,0,0,1,376.6,349c.75-.75,8-1.23,8.51-1.71s5.62-7.55,7.27-4.46c1.32,2.47,0,5.14-.82,6.17-1.24,1.65-4.46,5-7.48,5.22m-6-1.38c4.57-.85,5.2.9,5.2.9.21.48,5.49,4.05,5.36,7.76"/><path class="cls-39" d="M403.18,365.68c-1-1-4.45-3.16-10.34-3.84-7.36-.86-14.72-.11-18.13,4.58"/><path class="cls-39" d="M391.21,382.08c.64,1.75,1.83,5.74,1.53,7.72m16.69-5.73c-.26,3.05-.61,9.38,0,11.36"/><path class="cls-36" d="M391.71,386c-2.67.36-1.29,6.27-.27,9.19-.42.09.34.45,6.75,1.17,8,.9,11.08,4.64,11.18,3.33s5.58-5.45,6-6.35-4.41-3.74-7.75-5S395,385.58,391.71,386Z"/><path class="cls-48" d="M620.28,460.8a81.15,81.15,0,0,0-5.67-16.74,77.78,77.78,0,0,0-4.09-7.84,64.79,64.79,0,0,0-5-7.3c-1.8-2.31-3.88-4.43-5.76-6.76A84.85,84.85,0,0,1,594.5,415a67.67,67.67,0,0,1-4.41-7.78A38.73,38.73,0,0,1,587,398.7a.51.51,0,0,1,.39-.59.49.49,0,0,1,.59.39h0v0a38.37,38.37,0,0,0,3,8.22,67.48,67.48,0,0,0,4.3,7.7,84.61,84.61,0,0,0,5.17,7.17c1.83,2.3,3.9,4.43,5.72,6.81a64.5,64.5,0,0,1,5,7.42,80.36,80.36,0,0,1,4.08,7.94,82.48,82.48,0,0,1,5.59,16.92.28.28,0,0,1-.22.33.29.29,0,0,1-.33-.22Z"/><path class="cls-48" d="M637.07,458a31.35,31.35,0,0,0-1-4.57,43.78,43.78,0,0,0-1.51-4.44,46.1,46.1,0,0,0-4.27-8.33,35.58,35.58,0,0,0-6.08-7.1c-1.16-1-2.42-2-3.65-3s-2.46-2-3.67-3a68.87,68.87,0,0,1-13-13.73,92.57,92.57,0,0,1-9-16.63c-.63-1.44-1.19-2.92-1.8-4.37l-1.82-4.34c-.63-1.43-1.39-2.81-2.07-4.22s-1.56-2.72-2.33-4.08A59.72,59.72,0,0,0,574.67,366l-1.8-1.51-1.9-1.37a43.84,43.84,0,0,0-3.94-2.52,20.59,20.59,0,0,0-2.07-1.11l-2.09-1-2.18-.87a18.61,18.61,0,0,0-2.2-.8,39.07,39.07,0,0,0-4.51-1.24c-.76-.15-1.52-.35-2.29-.46l-2.32-.3-1.16-.15-1.17,0-2.34-.1c-1.56,0-3.14,0-4.7.12s-3.12.2-4.67.44c-.77.11-1.55.2-2.32.33l-2.3.46a22.11,22.11,0,0,0-2.27.56l-2.25.64-2.2.8c-.36.14-.73.26-1.09.41l-1.06.5-2.11,1-2,1.17-1,.59-1,.68-1.9,1.36a44.28,44.28,0,0,0-6.61,6.59A62.87,62.87,0,0,0,498,386.38c-1.19,2.88-2.26,5.88-3.52,8.78s-2.61,5.75-4.06,8.55a157.43,157.43,0,0,1-9.87,16.16c-3.54,5.21-7.38,10.22-10.59,15.59a32.49,32.49,0,0,0-3.71,8.51,43.36,43.36,0,0,0-1.24,9.24,73.72,73.72,0,0,0,1.8,18.61h0l-.49-.38h21.55l-.37.83a10.06,10.06,0,0,1-1.5-2.78,24.09,24.09,0,0,1-.9-2.93,40.73,40.73,0,0,1-1-6c-.17-2-.28-4-.26-6s.1-4,.23-6a.5.5,0,0,1,1,.07h0c-.12,2-.22,4-.22,6s.09,4,.26,5.94a39.38,39.38,0,0,0,.93,5.85,24.65,24.65,0,0,0,.86,2.81,9.61,9.61,0,0,0,1.32,2.48h0a.51.51,0,0,1-.07.71.54.54,0,0,1-.32.11H466.31a.5.5,0,0,1-.48-.38h0a75,75,0,0,1-1.8-18.89,45,45,0,0,1,1.28-9.44,33.68,33.68,0,0,1,3.83-8.75c3.26-5.44,7.11-10.44,10.65-15.63a155.92,155.92,0,0,0,9.83-16.05c1.45-2.78,2.81-5.61,4.05-8.49s2.3-5.82,3.52-8.75a63.22,63.22,0,0,1,9.41-16.44,44.09,44.09,0,0,1,6.75-6.7l1.94-1.39,1-.69,1-.6,2.06-1.2,2.16-1,1.08-.5c.36-.15.74-.28,1.11-.42l2.24-.82,2.29-.64a20.61,20.61,0,0,1,2.32-.56l2.33-.47c.78-.13,1.57-.22,2.35-.33,1.57-.24,3.15-.31,4.73-.43s3.16-.11,4.74-.12l2.38.1,1.19.05,1.18.16,2.36.3c.79.12,1.56.33,2.33.48a39.9,39.9,0,0,1,4.59,1.26,21.19,21.19,0,0,1,2.23.82l2.21.89,2.13,1.07a20,20,0,0,1,2.09,1.13,43.13,43.13,0,0,1,4,2.57l1.93,1.39,1.82,1.52a60.27,60.27,0,0,1,12.27,14.41c.78,1.37,1.61,2.72,2.35,4.12s1.44,2.81,2.08,4.26l1.83,4.37c.6,1.45,1.16,2.92,1.79,4.36a90.22,90.22,0,0,0,8.94,16.52,68.15,68.15,0,0,0,12.87,13.63q1.82,1.5,3.66,3c1.23,1,2.47,1.94,3.67,3a36.28,36.28,0,0,1,6.17,7.21,48.07,48.07,0,0,1,4.32,8.45,46.65,46.65,0,0,1,1.52,4.5,36.55,36.55,0,0,1,1,4.64.28.28,0,0,1-.24.32A.3.3,0,0,1,637.07,458Z"/><path class="cls-49" d="M294.9,500c6.78-3.38,9-3.24,9.6-3.38.72.95,3.34,3.32,8.05,5.18s6.42,2.46,6.69,2.52c.45,1.33,1.61,4.23,2.64,5.21a20,20,0,0,1,2.88,4.59L318,515c-2.23,2.23-7.3,6.86-9.67,7.48-3,.78-5.15-.21-5.36-2.05-.17-1.46,6.75-6.91,10.23-9.45v-1.42h-1.9c-3.56,2.43-11.3,7.4-13.84,7.91-3.18.64-5.65-1.2-5.15-2.47.39-1,5.72-5.84,8.33-8.12l-1.2-.42a69.89,69.89,0,0,1-8.26,3.53c-4.17,1.41-7.13-1.06-7.56-2.69S288.12,503.41,294.9,500Z"/><path class="cls-35" d="M352.46,511.63c3,2.73,10.76,13.54,14.27,18.61,0,2.85-1.49,9.18-7.45,11.66s-8.2.62-8.57-.62l-7.54-14.46c-5.14.38-16.6,2.06-21.39,5.78-6,4.65-9.4,6.31-11.06,6.72s-3-3-.62-7.54,8.06-5.69,10.75-7.13a12.31,12.31,0,0,0,5.27-6.31c.41-1.4-4-8.71-6.3-12.19-.14-.45-1-1.57-3.52-2.48-3.1-1.13-13.12-8.16-14.77-9.61s-10,0-17-2-7-5.37-5.79-7.13,18.81,1.86,23.25,3,7.85,4.23,13,6.09,11.47,3.52,18.39,6.82l.21.1C340.44,504.27,348.78,508.25,352.46,511.63Z"/><path class="cls-50" d="M507.56,405.71l0,.07,1.12,20.83c-.93,1.21-.85.88-1.92,1.86-1.35,1.23-3.74-2.9-4.89-8.09s-3.75-16.55,0-18.95C504.88,399.52,506.13,402.41,507.56,405.71Z"/><path class="cls-42" d="M482.37,430.17c1.4-6-11.08,2.55-8.66,0-1.49.2,12.27-19.91,11.06-17.84-.33.56.17.45,1.05.08,2.33-1,7.35-3.93,6.61-1.34C491.41,414.63,481,436.16,482.37,430.17Z"/><path class="cls-42" d="M509.23,429.78c3.42,7.3-10.23-4.87-26,.61-1.24.43,7.78-16.34,9.21-19.1a.77.77,0,0,1,.1-.24c.15-.25.1-.14-.1.24-.38,1.64,7.59-.28,8.49,3.15,2.24,8.53,1.85,11.68,4.32,13.84C506.5,429.34,508.36,427.94,509.23,429.78Z"/><path class="cls-39" d="M512.57,381.78c-1.38,5.25-8.38,19.81-3.7,46.63,4.91,18.08,19.38,29.71,31.52,35.13s21.44-9,28.94-21.18c6-9.72,9.21-38.49,10.07-51.67m-71.75,15.93c0-.49-2.38-8-6.09-5s-.83,14.22.9,20.52,2.62,6.3,4,6.3a4.42,4.42,0,0,0,2.45-1"/><path class="cls-46" d="M509.9,382.54a126,126,0,0,1,29.76-3.13l1.1-3.31,1.47,4.23a47.75,47.75,0,0,1,12.86,2.21,46.94,46.94,0,0,0,0-12c1.63,2.68,4.86,9,4.76,12.68,4.9,1.19,16,4.73,21,9.4"/><path class="cls-48" d="M457.54,450.26a39,39,0,0,1,2.76-8.2,57.7,57.7,0,0,1,4.14-7.61,60.59,60.59,0,0,1,11.33-13.06,68.82,68.82,0,0,0,11.76-12.48A58.81,58.81,0,0,0,492,401.6a42.47,42.47,0,0,0,1.76-3.89,24.7,24.7,0,0,0,1.26-4h0a.5.5,0,0,1,.59-.39.49.49,0,0,1,.38.59h0a25.84,25.84,0,0,1-1.36,4.18,43.15,43.15,0,0,1-1.84,4,59.12,59.12,0,0,1-4.62,7.37,69.21,69.21,0,0,1-12,12.48,59.86,59.86,0,0,0-11.37,12.82,58.76,58.76,0,0,0-4.2,7.51,39.81,39.81,0,0,0-2.83,8.11.12.12,0,0,1-.14.1A.12.12,0,0,1,457.54,450.26Z"/><path class="cls-48" d="M486.8,458.77c.3,1.11.7,2.24,1.09,3.34s.83,2.2,1.3,3.27,1,2.12,1.56,3.12a8.26,8.26,0,0,0,2.1,2.53l0,0a.5.5,0,0,1-.56.82l0,0a8.9,8.9,0,0,1-2.25-3,33.9,33.9,0,0,1-1.43-3.28c-.42-1.11-.79-2.23-1.14-3.36s-.67-2.26-.92-3.44a.14.14,0,0,1,.1-.15.13.13,0,0,1,.15.09Z"/><path class="cls-48" d="M493.66,471.32l20.07-.37a.49.49,0,0,1,.51.49.5.5,0,0,1-.49.51h0l-20.07-.38a.12.12,0,0,1-.13-.12A.14.14,0,0,1,493.66,471.32Z"/><path class="cls-39" d="M517.28,445.78c.94,7.53,2.81,20.67,2.81,26.32m37.7-13.92c-.38,4.6-1.17,11.24-1.17,13.9"/><path class="cls-46" d="M594.31,436.13c.91,2.64,6.37,13.66,6.46,19.77s.32,5.52,1.08,5.43,12.83,0,18.86,0"/><path class="cls-34" d="M495.41,400.78a57.28,57.28,0,0,1-7.3,19.69c-6,10-10,20.86-9.62,28.62"/><path class="cls-34" d="M600.29,452.06c-.17,3.16-1.46,9.69-1.9,10.39-.57.87-12.95,1.74-14.07,1.93s-2.31-1.13-3.06-7.48"/><path class="cls-39" d="M531.23,433.35c5.21,1.67,12.73,5.29,25,5.29"/><path class="cls-44" d="M561.89,494.45c16.57,2.19,48.31,6.95,53.28,9.41,6.22,3.08,8.94,17.43,14.31,28.42,8.23,16.85,10.75,22.69,19.62,32.48,12.13,13.39,19.66,11.84,18.43,36.84"/><path class="cls-44" d="M560.56,471.2c-.16,7.06-1.19,15.28,1.33,23.25"/><ellipse class="cls-33" cx="530.61" cy="401.55" rx="4.66" ry="3.79" transform="translate(49.25 860.98) rotate(-80.78)"/><ellipse class="cls-33" cx="562.97" cy="408.03" rx="4.66" ry="3.54" transform="translate(70.04 898.37) rotate(-80.78)"/><path class="cls-33" d="M557.54,395c3.3-1.07,12.8,1.83,19.78,8.89a2.53,2.53,0,0,0,1.36-.13c1-.29-10.11-13.14-14.15-13.87a7.45,7.45,0,0,0-6.7,2.53c.35-1.27.9-3.68.25-3.11C557.26,390,553.42,396.34,557.54,395Z"/><path class="cls-39" d="M536.06,438.36c.91.35,6,4.18,9,4.65,2.39.37,5.5-1,6.75-1.75"/><path class="cls-47" d="M543,432.76c-1.21.92-5.48,1.33-7.46,1.42a104,104,0,0,0,17.93,4.26c-1-1.42-3-4.38-3.37-4.88s-1.42.62-2.75,0S544.49,431.61,543,432.76Z"/><path class="cls-49" d="M549.17,424.67c-3-.92-8.69.83-9.61.93,3.18.74,9.7,2,12.57,2.58A3.92,3.92,0,0,0,549.17,424.67Z"/><path class="cls-44" d="M350.25,539.57c-1.12.82-4,4.66-4,7.11"/><path class="cls-39" d="M323.05,496.61c5.09,1.24,21.7,10.05,26.22,12.42s13.76,15.87,17,21.77"/><path class="cls-39" d="M349.44,523.51c-.64,1-3.7,3.08-10.85,3.76-8.94.85-18.42,5.61-20.52,8s-9.12,7.86-9.16.52,8.42-9.3,11.28-10.56,8.21-7.62,8.36-12.47"/><path class="cls-39" d="M323.05,496.61c-.71-.15-14.09-5-18.23-7.61s-21.44-3.86-24.25-4.45-3.93,2.65-.83,5.35,16.45,3.36,20.1,4.12,6.75,6.63,19.62,11m-.74-5.22c0,2.36.87,7.84,3.86,10.93,3.73,3.86,4.13,8.93,2.76,11.28"/><path class="cls-39" d="M304.8,497.07A19.71,19.71,0,0,0,294.29,500c-4.85,3.17-11.11,5.35-10.64,7.15s3.78,3.95,8.52,2.9,8.53-5.63,11.15-5.93c2.1-.24,5.86-.53,7.47-.65m8.67,5.84c-.57-.12-7.23-.08-8.25.31s-8,7.19-14.34,7.73-4.57-3.43-2.94-4.71c1.31-1,5.74-4.56,7.79-6.21M324,513.92c-.38.17-5,.73-5.78,1.09s-8.21,8.6-12.35,7.64-3-3.54-.24-5.77c2.22-1.79,6.52-5.2,8.4-6.68"/><path class="cls-43" d="M777.7,569.39a5.12,5.12,0,0,0-3.27-1.73,10.37,10.37,0,0,0-3.89.39,38.59,38.59,0,0,0-7.47,3.27c-4.81,2.66-9.46,5.66-14.24,8.45A115.24,115.24,0,0,1,734,587.33a57.75,57.75,0,0,1-7.91,2.63,59.86,59.86,0,0,1-8.22,1.41,284.92,284.92,0,0,0-32.51,6.08q-8,2-16,4.39a17.8,17.8,0,0,0-3.77,1.41,8.81,8.81,0,0,0-2.87,2.67c-.79,1.08-1.5,2.29-2.32,3.43a23.7,23.7,0,0,1-2.71,3.22.45.45,0,0,1-.64,0,.46.46,0,0,1,0-.64,24.21,24.21,0,0,0,2.6-3.11c.8-1.1,1.49-2.29,2.32-3.44a9.79,9.79,0,0,1,3.15-2.92,18.78,18.78,0,0,1,4-1.5q8-2.4,16-4.41a286.36,286.36,0,0,1,32.61-6.13,57.59,57.59,0,0,0,8.1-1.39,57,57,0,0,0,7.79-2.6,114.62,114.62,0,0,0,14.68-7.5c4.76-2.78,9.39-5.79,14.26-8.47a39.24,39.24,0,0,1,7.67-3.37,11.47,11.47,0,0,1,4.3-.42,6.15,6.15,0,0,1,3.88,2.06.5.5,0,0,1,0,.71A.51.51,0,0,1,777.7,569.39Z"/><path class="cls-39" d="M342.66,526.72A65.72,65.72,0,0,1,350.58,541"/><path class="cls-44" d="M591.29,566.38c.48-1.24,2-3.35,4.14-1.86,2.68,1.86,15.76,39.63,46.83,66.91"/><path class="cls-44" d="M357.55,551.74c2.07-.22,10.3-1.15,15.33-11.07"/><path class="cls-44" d="M357.2,545.33l2.93,6.08m2.8-9.64,4,7m-.48-11,4,6.56"/><path class="cls-43" d="M411.08,610.52a21,21,0,0,0-1-6.94,40.62,40.62,0,0,0-2.58-6.56,56.7,56.7,0,0,0-7.91-11.65,77.8,77.8,0,0,1-8.07-11.71c-1.17-2.07-2.24-4.19-3.24-6.34s-1.9-4.36-2.94-6.42v0a.5.5,0,0,1,.22-.67.49.49,0,0,1,.67.22h0c1.05,2.17,1.89,4.36,2.87,6.5s2,4.27,3.12,6.33A77.22,77.22,0,0,0,400.11,585a57.07,57.07,0,0,1,7.8,11.86,38.66,38.66,0,0,1,2.51,6.65,21.29,21.29,0,0,1,.89,7,.11.11,0,0,1-.12.1.1.1,0,0,1-.11-.11Z"/><path class="cls-44" d="M406.93,594.44c-.56-3.86-.92-12.28,2.1-15.1,3.77-3.52,11.4-5.53,18.45-23"/><path class="cls-43" d="M406.34,594.17a20.57,20.57,0,0,1-.22-4.06,19.58,19.58,0,0,1,.51-4,6.78,6.78,0,0,1,1.92-3.71,2.68,2.68,0,0,1,2.19-.58,4.43,4.43,0,0,1,2,.9,8,8,0,0,1,2.14,3.54,33.21,33.21,0,0,1,1.08,3.87A72.29,72.29,0,0,1,417.1,598a116.94,116.94,0,0,1,.37,15.88c-.13,2.65-.34,5.29-.72,7.92a29.89,29.89,0,0,1-2,7.7.15.15,0,0,1-.2.08.14.14,0,0,1-.08-.2h0a29.59,29.59,0,0,0,1.87-7.63c.35-2.61.53-5.24.63-7.88a114.23,114.23,0,0,0-.55-15.8,70.34,70.34,0,0,0-1.23-7.78,33.78,33.78,0,0,0-1.08-3.76,7.46,7.46,0,0,0-1.92-3.16c-.94-.72-2.27-1.07-3.11-.3a6.16,6.16,0,0,0-1.59,3.25,21.11,21.11,0,0,0-.18,7.68v0a.5.5,0,0,1-.41.58A.51.51,0,0,1,406.34,594.17Z"/><path class="cls-44" d="M405.13,397.7c1.62.82,6.6,3.24,8.7,5.93,2.61,3.37-3.55,18.72-2.21,30,1.92,16.14,16,35,18.17,47.4"/><path class="cls-44" d="M390.74,394.39c-.31-2.5-.74-7.65,0-8.3.92-.82,19.16.82,24.39,6.45.44.79-.37,1-1.43,1.85a9.84,9.84,0,0,0-4.1,5"/><path class="cls-43" d="M416.21,482.45c4.34-.51,8.77-1.17,13.21-1.29a28.88,28.88,0,0,1,3.35.08,7.62,7.62,0,0,1,1.71.34,6.26,6.26,0,0,1,1.52.85,46.22,46.22,0,0,1,4.9,4.56,64.53,64.53,0,0,0,10,8.6,39.71,39.71,0,0,0,11.86,5.47.5.5,0,0,1,.36.61.51.51,0,0,1-.62.36h0a40.65,40.65,0,0,1-12.09-5.71,65.66,65.66,0,0,1-10-8.81A46,46,0,0,0,435.6,483a5.82,5.82,0,0,0-1.36-.78,7.15,7.15,0,0,0-1.53-.31,29.79,29.79,0,0,0-3.28-.12c-2.2,0-4.4.23-6.59.44l-3.3.36-1.65.19a8.44,8.44,0,0,1-1.68.09.2.2,0,0,1-.18-.23A.2.2,0,0,1,416.21,482.45Z"/><path class="cls-43" d="M650.93,613.6a23.86,23.86,0,0,0,4.1-10.17c.52-3.66.31-7.42.89-11.17a28.85,28.85,0,0,1,1.38-5.49,7,7,0,0,1,.58-1.36,2.74,2.74,0,0,1,1.12-1.18,1.88,1.88,0,0,1,1.73.07,4.41,4.41,0,0,1,1.2,1,17.38,17.38,0,0,1,2.91,5,23.25,23.25,0,0,1,.93,2.7,11.73,11.73,0,0,1,.5,2.88.49.49,0,0,1-.49.51.5.5,0,0,1-.51-.48v0a16.8,16.8,0,0,0-1.3-5.23,16.5,16.5,0,0,0-2.68-4.7c-.57-.64-1.35-1.17-1.92-.86a2.08,2.08,0,0,0-.77.83,6.78,6.78,0,0,0-.52,1.22,28.08,28.08,0,0,0-1.4,5.33c-.61,3.64-.44,7.4-1,11.15a24.36,24.36,0,0,1-4.3,10.37.27.27,0,1,1-.44-.3Z"/><path class="cls-43" d="M571.6,657.45a9.39,9.39,0,0,0,6.62-4.21,12.85,12.85,0,0,0,1.69-3.73c.14-.67.33-1.34.41-2s.19-1.38.19-2.08c.27-5.63-1.75-11-3-16.58-.69-2.77-1.31-5.55-1.78-8.36a48.71,48.71,0,0,1-.81-8.53,30.09,30.09,0,0,1,1.21-8.49,50.15,50.15,0,0,1,3.21-7.94.23.23,0,0,1,.31-.1.22.22,0,0,1,.1.3,51.65,51.65,0,0,0-3.12,7.88,29.44,29.44,0,0,0-1.11,8.35,47.6,47.6,0,0,0,.86,8.41c.49,2.79,1.13,5.55,1.84,8.3s1.52,5.45,2.18,8.25a31.83,31.83,0,0,1,1,8.55c0,.72-.12,1.44-.17,2.16s-.28,1.43-.42,2.15a13.62,13.62,0,0,1-1.79,4,10.33,10.33,0,0,1-7.29,4.68.5.5,0,1,1-.12-1h0Z"/><path class="cls-44" d="M394.39,385.91c-.11,2-.09,6.72.83,9.33m5.19-8.32a57.37,57.37,0,0,0-1.19,9.15m7.49-7.4c-.14.18-3.72,6.34-3.77,8.45"/><path class="cls-46" d="M806,559.92c-.35.61.3,1.34,5.68-.61a181.64,181.64,0,0,0,17.11-7.86"/><path class="cls-39" d="M800.09,580.69c3.91-3.58,8-7.35,9.36-7.76,5.22-1.57,12.67-3.65,15.33-4.88,5.64-2.62,6.57-4.74,7.36-7.25s5.22-14.13,4.66-14.82-3.53-1.11-5.41,1.06-4.35,10.26-5.17,11a15.67,15.67,0,0,1-6.2,2.71"/><path class="cls-4" d="M834.31,539.91c-.83-.68-5.49-4.8-5.78-5l-2.09.36c-.83,1.55-2,5-.22,6.25,2.28,1.59,5.24,2.82,7.23,2A2.12,2.12,0,0,0,834.31,539.91Z"/><path class="cls-39" d="M815.62,538.8c1.73-.37,5.44-1,6.44-.73,1.25.39,4.62,4.21,7.52,5.12a4.69,4.69,0,0,0,5.46-1.73c.66-1-1.94-2.33-4.33-4s-4.52-5.38-5.34-6.33-3.78-.59-7.28-.14-9.71,3.49-10.48,4.29-8.24,16.08-8.21,18.16c0,1.66-8.43,9.4-15.07,15.8"/><path class="cls-43" d="M458.24,579.4a11,11,0,0,1,2.13-3.87,16.56,16.56,0,0,1,1.5-1.63c.55-.5,1.11-1,1.7-1.43a27.82,27.82,0,0,1,7.85-3.94,51.46,51.46,0,0,1,17.4-2,149.7,149.7,0,0,1,17.43,2c5.78.94,11.46,2.37,17.17,3.44a58.65,58.65,0,0,0,8.65.93,51.35,51.35,0,0,0,8.66-.62c1.44-.18,2.86-.48,4.28-.77s2.83-.66,4.24-1c2.82-.72,5.69-1.44,8.59-1.88a55.08,55.08,0,0,1,8.8-.61,48.89,48.89,0,0,1,8.78.83,45,45,0,0,1,8.51,2.36,32,32,0,0,1,7.8,4.24.5.5,0,0,1,.09.7.51.51,0,0,1-.7.1h0a30.67,30.67,0,0,0-7.52-4.12,44.69,44.69,0,0,0-8.33-2.36,48.9,48.9,0,0,0-8.62-.85,54.55,54.55,0,0,0-8.66.57c-2.88.42-5.67,1.11-8.52,1.82-1.42.35-2.83.74-4.28,1s-2.87.59-4.33.76a52.72,52.72,0,0,1-8.79.59,61.18,61.18,0,0,1-8.75-1c-5.75-1.1-11.4-2.55-17.15-3.52a149,149,0,0,0-17.35-2A51.06,51.06,0,0,0,471.57,569a27.11,27.11,0,0,0-7.75,3.84c-.57.44-1.13.91-1.66,1.39a16.87,16.87,0,0,0-1.47,1.58,10.58,10.58,0,0,0-2.08,3.73.2.2,0,0,1-.24.13A.19.19,0,0,1,458.24,579.4Z"/><path class="cls-34" d="M537.19,402.62c-.36-1-2.09-3.42-6.16-5-5.09-2-9.09,1.13-10.07,1.31s-2.3-.49-3.69-.86m38.57,6.15c1.11.09,4.74-.75,8.17,0,2.72.58,4.51,3.32,6.24,4.49a5.27,5.27,0,0,0,2.11.27"/><path class="cls-51" d="M837.17,484.72l17.7,4.45m-17.7-.83,10.1,2.87m-10.1,1,14.55,4.55m-14.55-.81,10.1,3.34"/><path class="cls-52" d="M360.28,557.17c-1.74,1.5-8.63,5.45-10,1.21-3.93,1.27,12.41,31.35,18.42,48.56s20.05,40.33,29.86,43.54c18.49,6.06,34.64-16.06,30.27-16.06s-30.73,10.66-37.44,4-13.9-35-13.74-44.66S362.47,555.3,360.28,557.17Z"/><path class="cls-52" d="M423.32,499.41c6.7-6.51-24.91-3.1-28.1-14.27-5.84-20.42-5.08-61.78-5.07-77.35,0-1.39,11.11-7.21,11.13-8.38.06-4.18-10.7-5.63-11.65-3.05-1.75,4.72-1.56,22.83-1.14,41.82.3,13.17.24,27.2,2,40.45,2.35,18.15,7.27,34.5,13.95,41.91,7.79,9.72,23.07,15.58,28.29,16.75l4.82-15.52C432.62,520.82,395.22,526.72,423.32,499.41Z"/><path class="cls-52" d="M536.9,499.26c-.5-.93-7.43-17.76-6.77-24.08,0-1.16-8.15-2.9-11.45-4.05s-1.33,1.82-.89,7.16-1.52,11.45-1.79,13.85S537.52,500.42,536.9,499.26Z"/><path class="cls-53" d="M560.46,361.39c3.14,2.88,9.57,10.88,10.1,19.81"/><path class="cls-52" d="M467.2,589.64c-3.32-6.1-4.84-30.39-4.35-32.49-2.16,6.5-2.44,9.33-4.21,21.2-.14.95-1.85,11.75,3.09,20.08,2.4,4.06,3.07,22.1,4.18,27.41C469.55,605.61,471.34,597.27,467.2,589.64Z"/><path class="cls-54" d="M632.5,586.61c-11.13-6.52-25.56-27-31.38-36.35-.35-.66-3.68-3.84-5-2.27-1.7,2-6,15.26-3.39,16s10.87,15.83,20.6,33.71,46.37,48.13,44.58,45.74c16.71,3.07,51.63-5.72,82.55-20.56,3.55-1.7,14.44-5.44,17.9-6.67,19-6.76,29.83,1.56,33.24-10,1.11-3.74,1.86-11.11.37-15.65-1.91-5.79-6.46-8.09-7.6-4.29-5.58,18.58-10.82,13.1-15.41,15.53-51.6,27.25-100.15,37-108.88,25.76-1.63-2.09-2.73-4.7-4.06-7-3.46-6.09-19.92-2.24-18.62-5.32C641.14,606.31,646.4,594.75,632.5,586.61Z"/><path class="cls-33" d="M537.73,392c-2.63-2.24-12.53-3.21-21.68.65a2.54,2.54,0,0,1-1.21-.65c-.8-.64,14.38-8.27,18.39-7.38a7.42,7.42,0,0,1,5.22,4.9c.16-1.32.58-3.75,1-3C539.9,387.53,541,394.84,537.73,392Z"/><path class="cls-52" d="M451.82,507.84c5-5.75,38.09-7.84,54.35-10.89,8.72-1.63,27.32,2.59,28.52,2s-18.15-5.69-17.74-6.43c-4.9,1-27.33,5.33-40.48,7.16-12.28,1.71-23.77,1.64-26,3.48-8.74,6.39-14.74,21-15.79,29.13-7.18,40.83-24.77,44.26-26.77,49.91l4.35.66s6.2-6,8.08-8.17C441.65,550.1,436.77,525.19,451.82,507.84Z"/><path class="cls-44" d="M405.13,397.7A88.86,88.86,0,0,0,391.49,395c-5.46-.53-3.11,29.05-3.11,35.32,0,4.82,1.06,16.09,1.06,33.13s4.4,37.75,10.05,48.78,12.13,19.18,33.63,25.67"/><path class="cls-39" d="M714.51,411c.54,2.37,3.49,7.45,10.93,8.83,9.29,1.73,13.87,3.06,19.21,6.74s11,2.94,11.4.45S744.82,415,739.65,412.3s-3.13-6.68-.71-9c1.94-1.88,7.81-6.31,10.5-8.29"/><path class="cls-52" d="M471.68,650.29s37.79-1.08,29.63-1.41c-27.64-1.09-32-33.58-31.81-51.16.08-8.05-4.7,11.66-5.75,15.18a66.22,66.22,0,0,1-9.26,20.28c-8.42,12.53-2.93,24.62,5.09,24.2A15.51,15.51,0,0,0,471.68,650.29Z"/><path class="cls-55" d="M530,649.48c-34.46-2.85-62.64,1.6-71.66,2.78-1.74,3.2,1.08,10.76-.6,16.7-11.79,41.72-28.87,87.88-20,137.21,61.4,5.21,128.39-5.72,158.77-13.07,4.9-17.18,1-50.53-7.89-73.93-7.79-20.45-15-43.93-15-45.59,0-2.12-.32-.64-.91-4.85-.09-.68-1.56-.22-1.68-1-.38-2.5.87-9.11.21-12.82C571.26,653.3,564.48,652.32,530,649.48Z"/><path class="cls-56" d="M474.65,729.64c6.21-23.39,18.14-62.75,19.24-67.5-2.76-.79-34.64,3.48-35.73,3.82s-3,13.61-4.39,18-7.48,28-15.14,54.12c-6.12,20.88-3.13,53.83-.87,67.69,25.08,4.78,60,1,61,1C485.94,783,468.44,753,474.65,729.64Z"/><path class="cls-46" d="M458.14,665.85c-12.56,52.61-20.86,64.09-22.52,98.54-.57,11.67-.09,32.56,2.25,41.65"/><path class="cls-46" d="M572.73,668.73c1.09,10.87,16.94,53.23,20,62.21,7.12,21,6.95,41.43,5.11,51.87"/><ellipse class="cls-48" cx="502.35" cy="656.54" rx="4.09" ry="3.15" transform="translate(-218.12 1061.91) rotate(-81.94)"/><path class="cls-48" d="M572.5,669.17a25.72,25.72,0,0,0-4.27-1.39c-1.48-.39-3-.72-4.47-1-3-.62-6-1.15-9.06-1.62-6.07-.92-12.18-1.64-18.3-2.23a.34.34,0,0,1,.07-.67c6.13.53,12.25,1.2,18.35,2.08,3,.44,6.09.94,9.12,1.54,1.51.3,3,.63,4.53,1a27.13,27.13,0,0,1,4.49,1.43.51.51,0,0,1,.25.66.49.49,0,0,1-.66.25h0Z"/><path class="cls-48" d="M553.58,679.1a52.81,52.81,0,0,0,1.95,8.22,72.51,72.51,0,0,0,11.8,22.29,64.5,64.5,0,0,0,5.64,6.27c1,1,2.08,1.89,3.12,2.83l3.27,2.7c2.2,1.77,4.42,3.51,6.74,5.09a29.06,29.06,0,0,0,3.57,2.14,4,4,0,0,0,1.74.5c.09,0,.09,0,.1,0a.45.45,0,0,0,0-.22,2.91,2.91,0,0,0-.27-.84.49.49,0,0,1,.24-.66.5.5,0,0,1,.67.23v0a3.47,3.47,0,0,1,.34,1.18,1.28,1.28,0,0,1-.17.81,1.12,1.12,0,0,1-.78.49,4.58,4.58,0,0,1-2.3-.61,29.64,29.64,0,0,1-3.68-2.25c-2.34-1.63-4.55-3.4-6.74-5.2l-3.25-2.74c-1.05-1-2.12-1.91-3.13-2.9a65.85,65.85,0,0,1-5.64-6.4,69.29,69.29,0,0,1-8.66-14.62,68,68,0,0,1-3-8,51,51,0,0,1-1.88-8.29.16.16,0,0,1,.13-.17A.15.15,0,0,1,553.58,679.1Z"/><path class="cls-57" d="M553.44,664.36s19.23,3.89,19.29,4.37c1.24,9.19,15.22,53,20,62.21C592.2,730,548.54,707.08,553.44,664.36Z"/><path class="cls-46" d="M572.73,655.07a28.48,28.48,0,0,0-6.65-1.59"/><path class="cls-48" d="M458.75,725.57a17.56,17.56,0,0,0-.71,2.52c-.21.86-.39,1.73-.58,2.59q-.54,2.61-1,5.22-1,5.24-1.79,10.49c-.55,3.5-1,7-1.45,10.53s-.77,7-.9,10.56a.5.5,0,1,1-1,0h0c.2-3.57.63-7.1,1.11-10.62s1-7,1.66-10.53,1.27-7,2-10.46q.54-2.61,1.13-5.21c.21-.86.4-1.73.63-2.59a15.83,15.83,0,0,1,.8-2.57.08.08,0,0,1,.12,0,.08.08,0,0,1,0,.11Z"/><path class="cls-48" d="M451.88,779.23a16.61,16.61,0,0,0,.08,3.45c.12,1.16.29,2.3.49,3.45a42.83,42.83,0,0,0,1.64,6.7v0a.49.49,0,0,1-.3.64.51.51,0,0,1-.64-.31v0a45,45,0,0,1-1.28-6.94c-.13-1.16-.24-2.33-.29-3.5a17.19,17.19,0,0,1,.13-3.51.1.1,0,0,1,.11-.08.1.1,0,0,1,.07.1Z"/><path class="cls-48" d="M550.16,750.13q.38,10.49,1,21c.21,3.49.45,7,.75,10.46s.62,7,1.17,10.41a.2.2,0,1,1-.39.07c-.6-3.46-1-6.95-1.33-10.43s-.63-7-.9-10.47q-.78-10.47-1.3-21a.51.51,0,0,1,.48-.53.5.5,0,0,1,.52.48Z"/><path class="cls-43" d="M395.14,595.82c0-3.06-.1-6.13-.4-9.17a38.83,38.83,0,0,0-1.81-8.91,24.23,24.23,0,0,0-1.87-4.12,37.51,37.51,0,0,1-1.93-4.26c-1.17-2.84-2.43-5.64-3.73-8.42-2.61-5.56-5.42-11-8.27-16.49-.35-.67-.71-1.39-1.07-2a1.73,1.73,0,0,0-.57-.66,1,1,0,0,0-.76,0,2.23,2.23,0,0,1-1.42.08,2.1,2.1,0,0,1-1.07-1c-.4-.71-.73-1.37-1.1-2.06-1.44-2.73-2.75-5.51-4.27-8.17l.87-.49a5,5,0,0,1,.78,2,8.61,8.61,0,0,1-.07,2.1,9.39,9.39,0,0,1-1.33,3.91,13.73,13.73,0,0,1-2.85,2.94c-1,.84-2.09,1.63-3.17,2.4a30.38,30.38,0,0,1-7,3.86,12.93,12.93,0,0,1-4,.78,6.72,6.72,0,0,1-2.11-.32,3.68,3.68,0,0,1-1.86-1.28l.86,0a1.53,1.53,0,0,0-.22.92,1,1,0,0,0,.21.35,3.54,3.54,0,0,1,.48.6l0,0c-.06-.1,0,0,.11,0a2.49,2.49,0,0,0,.42.06l1,.09a8,8,0,0,1,2,.45,5,5,0,0,1,1.76,1.16,6,6,0,0,1,1.16,1.74l.11.24-.16.24a27.76,27.76,0,0,0-2.93,5.44,6.18,6.18,0,0,0-.53,2.8l.08.28.16.36.3.73.61,1.45L356.34,575c3.25,7.76,6.48,15.53,9.38,23.45A234,234,0,0,0,375,621.86a121.08,121.08,0,0,0,5.9,11.08c1.07,1.81,2.22,3.56,3.38,5.3.58.87,1.2,1.72,1.8,2.58s1.25,1.64,2,2.38a25.62,25.62,0,0,0,10.28,6.66,23.83,23.83,0,0,0,3,.8l1.52.3,1.54.14a24.33,24.33,0,0,0,3.08.06c.51,0,1-.11,1.53-.17a8.76,8.76,0,0,0,1.52-.25l1.5-.35c.48-.16,1-.34,1.44-.52l.73-.26.68-.34,1.36-.7a23,23,0,0,0,4.67-4q4.37-4.54,8.63-9.19c5.68-6.19,11.21-12.52,16.45-19.09a154.29,154.29,0,0,0,14.33-20.68h0a.2.2,0,0,1,.28-.08.21.21,0,0,1,.08.27,143,143,0,0,1-14.12,20.94c-5.2,6.63-10.71,13-16.35,19.25q-4.25,4.68-8.59,9.27a23.32,23.32,0,0,1-4.86,4.18l-1.44.75-.73.36-.76.28c-.51.18-1,.37-1.52.54l-1.58.37a9.42,9.42,0,0,1-1.59.26c-.53.06-1.07.14-1.6.18a26.62,26.62,0,0,1-3.22-.06l-1.6-.15-1.58-.31a25.93,25.93,0,0,1-3.11-.83,26.67,26.67,0,0,1-10.68-6.93c-.74-.77-1.37-1.65-2.05-2.48s-1.22-1.72-1.8-2.6c-1.18-1.75-2.34-3.52-3.41-5.34a122.17,122.17,0,0,1-6-11.18,237.91,237.91,0,0,1-9.26-23.51c-2.88-7.88-6.12-15.65-9.36-23.41l-4.91-11.62-.61-1.46-.31-.72-.15-.37a3.64,3.64,0,0,1-.14-.47,4.49,4.49,0,0,1,.1-1.77,11.41,11.41,0,0,1,.47-1.57,28.43,28.43,0,0,1,3-5.65l0,.47a5,5,0,0,0-.95-1.43,4.12,4.12,0,0,0-1.42-.93,6.93,6.93,0,0,0-1.73-.39l-.95-.08c-.17,0-.34,0-.53-.08a1.18,1.18,0,0,1-.74-.42h0l0,0a2.77,2.77,0,0,0-.35-.42,2,2,0,0,1-.43-.77,2.43,2.43,0,0,1,.3-1.61l.35-.76.51.71a2.73,2.73,0,0,0,1.35.88,5.59,5.59,0,0,0,1.79.27,11.85,11.85,0,0,0,3.69-.72,29.39,29.39,0,0,0,6.78-3.74c1.06-.75,2.11-1.54,3.12-2.36a12.53,12.53,0,0,0,2.64-2.71,8.27,8.27,0,0,0,1.18-3.5,7.64,7.64,0,0,0,.06-1.84,3.94,3.94,0,0,0-.65-1.64l.87-.49c1.54,2.69,2.86,5.48,4.29,8.2.35.67.72,1.38,1.07,2a1.2,1.2,0,0,0,.54.57,1.53,1.53,0,0,0,.84-.1,1.88,1.88,0,0,1,1.48.08,2.57,2.57,0,0,1,1,1c.41.72.73,1.38,1.1,2.07,2.85,5.46,5.66,10.94,8.28,16.53,1.31,2.79,2.58,5.61,3.76,8.46a35.58,35.58,0,0,0,1.87,4.15,25.44,25.44,0,0,1,1.95,4.28,40.41,40.41,0,0,1,1.85,9.14,92.73,92.73,0,0,1,.41,9.27.5.5,0,0,1-1,0Z"/><path class="cls-44" d="M517,470.21c4.74,4.14,41.12,5.14,43.06,2,1.55-2.51-1.5-3.25-3.22-3.31"/><path class="cls-44" d="M515.46,493.23c3.94-17.62.47-23.66,1.66-24.37a6.63,6.63,0,0,1,3-.83"/><path class="cls-43" d="M515.92,492.1a32.3,32.3,0,0,0,8.32,4.12,50.08,50.08,0,0,0,9.13,2.15,61.32,61.32,0,0,0,9.39.65,82.38,82.38,0,0,0,9.41-.58h0a.24.24,0,0,1,.05.47,85.65,85.65,0,0,1-9.47.71,62.77,62.77,0,0,1-9.49-.52A51.18,51.18,0,0,1,524,497a32.93,32.93,0,0,1-8.65-4.14.5.5,0,0,1,.57-.82h0Z"/><path class="cls-44" d="M791.76,589.21c1.22,10.14,2.78,19.68-6,23.42-2.73,1.17-23.5,1.5-33.23,4.34m16.92-9.14c-59.84,34-100.17,39.29-111.58,35.63-7.33-2.35-14-10.9-16-12.29"/><path class="cls-58" d="M779,576.59c-3.61-6.84-2.59-8.17-1.62-8l11.74-5.35c-.34,7,5.44,13.12,10.62,17.23,1.26,1,4.62.43,4.62.43,1.4,5.42-10.66,8.8-12.42,9.08C789.7,590.34,783.46,585.14,779,576.59Z"/><path class="cls-44" d="M777.9,574.38c3.52-1.45,10.86-4.55,12.09-5.33m-8.59,10.83c3.48-2,10.74-6,12-6m-7.1,11.86c3.49-1.83,10.89-5.58,12.49-5.9"/><path class="cls-46" d="M510.05,648.85c-.66,5.73-1.69,15-1.69,16.84,0,2.25-7,49.27-9.29,62.5-1.8,10.59,3.94,36.14,7,47.59"/><path class="cls-48" d="M490,764.86q5.61,3.38,11.05,7c1.82,1.2,3.63,2.42,5.4,3.72a19.67,19.67,0,0,1,2.58,2.17,17.14,17.14,0,0,1,1.7,2.92c1.9,4,3.52,8,5.16,12s3.19,8.1,4.74,12.17a.19.19,0,0,1-.35.14l-5-12c-1.71-4-3.41-8-5.35-11.88a17.09,17.09,0,0,0-1.61-2.69,19.74,19.74,0,0,0-2.44-2c-1.74-1.27-3.54-2.48-5.36-3.68-3.63-2.38-7.31-4.7-11-7a.51.51,0,0,1-.16-.69A.5.5,0,0,1,490,764.86Z"/><path class="cls-59" d="M457.85,654.05c-.14-1.6,7.47-4,28.5-4.07,0,0,.93,8.4-.14,12.57,0,0-20.14,0-27.84,3.08C458.37,665.63,458.25,658.94,457.85,654.05Z"/><path class="cls-46" d="M458.31,665.91c.51-1.87-.22-8.31-.64-11.3-1.42-2.62,6.7-4.8,41.15-5.67,33-.83,50.71,1.67,72.44,5.42.65,2.84-1.28,8.31-.12,13.84"/><path class="cls-48" d="M457.86,665.56a9.6,9.6,0,0,1,2.5-1.13l1.28-.36,1.28-.28c1.72-.35,3.44-.57,5.16-.77,3.45-.38,6.91-.6,10.36-.75,6.92-.3,13.83-.34,20.74-.29a.17.17,0,0,1,.17.16.18.18,0,0,1-.17.17c-6.91.06-13.81.22-20.7.62-3.45.21-6.89.48-10.3.91-1.7.23-3.4.48-5.07.85a13.63,13.63,0,0,0-4.65,1.67l0,0a.5.5,0,1,1-.55-.83Z"/><path class="cls-44" d="M516.06,490.66c-.53,1.63.34,1.93-4.12,2.87-10.36,2.18-50.39,8.58-54.73,8S441.79,506,436,527.3c-4.62,17.07-7.61,27.19-8.71,29.32"/><path class="cls-60" d="M502.35,602.49s3.65,18.77,10.7,27.18,4.6,18.87,4.6,18.87,49.66,4.55,51.75,8,10.48,2.79,11-8.75-13.58-36.44-5.23-47.21.94,2.16-22.09,0-22.74-6.06-35.41-4.76S502.35,602.49,502.35,602.49Z"/><path class="cls-52" d="M589.23,558s6.19-17.87,11.06-19.7-1.92,8.11,2.79,15S589.11,572.71,589.23,558Z"/><path class="cls-44" d="M596.52,547.22c-4,6.93-4.6,12.83-4.6,19.55,0,5.67-.47,9.16-1.67,17.86-1,7-10.51,29.54-13.82,35.94"/><path class="cls-61" d="M352.23,554.66c-.19.13-5.61,4.56,0,5.54s17.16-10.1,17.16-10.1"/><path class="cls-46" d="M464.13,676.48a113.77,113.77,0,0,1-20.77,43.44"/><path class="cls-52" d="M456.57,505s-6.69,3.38-6.54,10.43,5.19,20.14,7.81,27.65,6.72,12.64,4.75,17.15-3.8,19-3.8,19-3.64-33.91-9.9-34.9-18.36,14-19.37,16.29,11.94-42.19,16-47.87S456.57,505,456.57,505Z"/><path class="cls-52" d="M406.55,593.21s-.79-11.35,2.94-10.37,6.68,5.85,7.24,14.75,0,20.79,0,20.79-3.1-8.48-5.49-13.56S406.55,593.21,406.55,593.21Z"/><path class="cls-52" d="M633.18,539.87c2.49,4,24.26-9.48,24.26-9.48-23.09,3.44-32.45-9.77-32.45-9.77S631.48,537.15,633.18,539.87Z"/><path class="cls-62" d="M622.43,503.14c2,0,18.59-9.05,26-9.91s11.15-3.2,6.65-3.78,4.19-17.75,12.56-24,13-30,13-30S667,460.61,660.06,469.26a230.67,230.67,0,0,0-13.76,19.79s-19.66,6.86-29.08,8.46-16.93,2.4-16.93,2.4,15.71,3.14,16.6,4.6S622.43,503.14,622.43,503.14Z"/><path class="cls-63" d="M453.58,559.1s-6.5,16.61-16.07,26.5-16-2.44-15.24,14-8.6,35.28-1.75,33.58,15-7.69,23.62-18.87S456.71,599,454.36,585.6,455.85,554,453.58,559.1Z"/><path class="cls-64" d="M494.47,522.71s7.61,22.69,19.26,27.39,24.12,5.87,26.79,4.11,13.82-19.84,23.41-29.19,6.29-12.29-20.14-8.57-43.13-8.61-48.28-4.7S493.22,519.37,494.47,522.71Z"/><path class="cls-44" d="M423,499.71s-11.36,10-9.94,15.11c2.36,8.56,12.61,7,20.05,6.85"/><path class="cls-44" d="M392.18,468.52c.65,3.68,3,17,4.56,19.32s6.11,3.54,20.72,7"/><path class="cls-44" d="M464.13,576.49s1,9,3.76,14.55c3.43,6.8.1,33.06,13.77,49.05"/><path class="cls-43" d="M460.47,566.76a21.19,21.19,0,0,0,1.5-1.5c.5-.53,1-1.06,1.55-1.58s1.07-1,1.6-1.54l1.68-1.46a42.51,42.51,0,0,1,7.39-4.94,38.64,38.64,0,0,1,8.33-3.16,38.23,38.23,0,0,1,8.85-1l2.23,0c.74.07,1.47.17,2.21.25l2.21.26,2.18.39c2.91.5,5.79,1.09,8.68,1.69,5.76,1.19,11.49,2.55,17.29,3.4a82.26,82.26,0,0,0,8.73.77,75.37,75.37,0,0,0,8.76-.32c1.46-.1,2.91-.3,4.36-.5s2.9-.44,4.34-.69,2.92-.46,4.39-.69c.73-.13,1.48-.13,2.22-.2s1.48-.13,2.22-.12a46.4,46.4,0,0,1,8.88.71,48,48,0,0,1,8.56,2.43,43.73,43.73,0,0,1,15,9.54.5.5,0,0,1-.71.71h0a42.69,42.69,0,0,0-14.58-9.32,47.14,47.14,0,0,0-8.38-2.4,46.06,46.06,0,0,0-8.69-.71c-.73,0-1.45.08-2.18.12a19.89,19.89,0,0,0-2.17.2c-1.44.21-2.87.41-4.34.67s-2.9.52-4.37.69-2.93.39-4.41.5a77.08,77.08,0,0,1-8.86.3,81.53,81.53,0,0,1-8.84-.79c-5.85-.86-11.59-2.24-17.34-3.44-2.88-.6-5.76-1.19-8.65-1.69l-2.17-.39-2.17-.26c-.72-.08-1.44-.18-2.16-.25l-2.19,0a34.56,34.56,0,0,0-16.79,4,41.47,41.47,0,0,0-7.26,4.83l-1.65,1.44c-.53.5-1.07,1-1.59,1.51l-1.53,1.57a20.78,20.78,0,0,1-1.63,1.61.39.39,0,0,1-.5-.61Z"/><path class="cls-43" d="M463.91,602.43a38.61,38.61,0,0,1-.39,15.55,25,25,0,0,1-2.94,7.3c-.69,1.14-1.56,2.14-2.26,3.18s-1.46,2.11-2.15,3.19a51.07,51.07,0,0,0-3.7,6.71,20.61,20.61,0,0,0-1.9,7.27,10.71,10.71,0,0,0,2.1,6.94,18.57,18.57,0,0,0,5.74,4.8h0a.52.52,0,0,1,.18.69.51.51,0,0,1-.69.18,19.79,19.79,0,0,1-6.08-5,11.65,11.65,0,0,1-2.3-7.6,21.76,21.76,0,0,1,2-7.64,52.28,52.28,0,0,1,3.79-6.84c.7-1.1,1.43-2.17,2.18-3.23s1.6-2,2.26-3.12a23.9,23.9,0,0,0,2.91-7,36.43,36.43,0,0,0,1.05-7.57,38.31,38.31,0,0,0-.42-7.65h0a.31.31,0,0,1,.25-.36A.32.32,0,0,1,463.91,602.43Z"/><path class="cls-43" d="M455.87,536.06q2.2,5.52,4.24,11.09c.68,1.86,1.34,3.72,2,5.6.31.94.62,1.88.89,2.85a8.22,8.22,0,0,1,.33,1.56,9.84,9.84,0,0,1-.3,1.56c-2.05,7.63-3.86,15.34-4.13,23.21a36.94,36.94,0,0,0,1.24,11.62,39.4,39.4,0,0,0,2.23,5.42c.84,1.79,1.61,3.62,2.41,5.43,1.53,3.65,3,7.34,4.16,11.12.58,1.9,1.12,3.81,1.51,5.76.18,1,.35,2,.44,3a9.46,9.46,0,0,1-.12,3,.26.26,0,1,1-.5-.12v0a9,9,0,0,0,.08-2.85,26,26,0,0,0-.44-2.9c-.39-1.92-.94-3.81-1.52-5.69-1.21-3.75-2.65-7.42-4.2-11.05-.8-1.8-1.58-3.61-2.43-5.39a40,40,0,0,1-2.3-5.51,38,38,0,0,1-1.33-11.85c.24-8,2-15.77,4-23.39a10.59,10.59,0,0,0,.27-1.34,9.54,9.54,0,0,0-.31-1.33c-.26-.93-.57-1.86-.89-2.8-.63-1.86-1.3-3.72-2-5.57-1.37-3.69-2.79-7.38-4.27-11a.49.49,0,0,1,.27-.65.5.5,0,0,1,.65.27Z"/><polyline class="cls-65" points="497.22 301.2 502.17 290.85 507.72 298.38 513.09 287.72 518.53 295.58 524.15 284.44 529.6 292.33 534.96 281.69 540.07 289.07"/><polyline class="cls-65" points="743.45 491.68 753.85 485.77 755.86 495.67 766.86 489.76 768.58 499.88 780.08 493.7 781.8 503.85 792.77 497.95 794.38 507.44"/><path class="cls-29" d="M385.88,305.93c-6.7,8.62-1.42,18.11,2.06,21.79a65.82,65.82,0,0,1,4.44,6.08c1.31,2.22,0,7,1.64,11.1s5.18,4.85,7.56,3.94,3-3.29,4.44-12.16,4.93-6.17,8.72-13.16,1-15.94-3.79-19.72S394.27,295.17,385.88,305.93Z"/><path class="cls-66" d="M401.61,338.76a45.07,45.07,0,0,1,2.56-16.93c3.18-8.53,6.49-8.14,7.85-6.79s1.07,8.93-4.2,10.68-4.85-3.25-7.5-3.68-1.09,4.74-6.5,3.85-8.33-5.22-7-9,5.83-1,7.21,2.37,3,13,2.37,19"/><path class="cls-67" d="M405.21,338c-4.34-1.32-9.1-1.25-11.56-.3,1.49,1.2,7.94.88,11,4.17-4-1-8.06-1.11-10.67,1.24,2.38-.42,7.21-.22,10.47,1.64"/><path class="cls-67" d="M405.31,338c-.05.33-.24,1.47-.69,3.43-.55,2.46.66,7.38-5.38,7.51-4.07.09-5.05-3.22-5.58-5a28.58,28.58,0,0,1-.35-6.46,12.55,12.55,0,0,0-1.58-4.72c-1.22-1.72-9-9.77-9.07-16.71s5.27-17,16-16.71,18.49,7.9,17.8,17-5.32,11.5-8,14-3.19,7.6-3.19,7.6"/><path class="cls-67" d="M396.89,348.54c.13.35.86,2.46,2.67,2.38a1.79,1.79,0,0,0,1.9-2.24"/><path class="cls-66" d="M379.2,326c-.75,0-3.63,1.63-5.51,4m15.78-42.33A30.81,30.81,0,0,1,392.6,294m-20.79,11a45.86,45.86,0,0,1,6.64,1.88m41.95-.63a27.42,27.42,0,0,1,7.39-2.38M407.25,294c.38-1.3,1.4-4.14,2.5-5.14m10.65,35.19c1.17.42,3.81,1.38,5,1.88"/><path class="cls-8" d="M393.65,337.67s-1.16,6.49,1.3,9.22,8.63,2.56,9.09-1,.95-7.82.95-7.82S397.64,335.71,393.65,337.67Z"/><path class="cls-68" d="M275.93,579.28s-53,44-51.55,90.25,29,98.44,151.93,126.1c76.13,17.13,161.76,10.59,231.1-3.55,42.62-8.69,79.08-20.25,103.4-30.94C774.71,733,892.55,655.19,846,570.46"/><polygon class="cls-69" points="288.91 385.72 310.79 382.11 310.79 448.75 288.91 458.18 288.91 385.72"/><polygon class="cls-69" points="788.22 266.3 739.13 276.44 739.13 340.42 788.22 331.1 788.22 266.3"/><path class="cls-24" d="M659.74,396.8l-44.37-95.59"/><path class="cls-24" d="M622.78,299.15l104.11,16.32"/><ellipse class="cls-24" cx="731.35" cy="316.01" rx="16.14" ry="13.66" transform="translate(-60.17 225.34) rotate(-16.83)"/><ellipse class="cls-24" cx="614.67" cy="298.66" rx="9.39" ry="7.95" transform="translate(-60.15 190.8) rotate(-16.83)"/><ellipse class="cls-24" cx="659.11" cy="398.33" rx="6.87" ry="5.81" transform="translate(-87.11 207.94) rotate(-16.83)"/><line class="cls-20" x1="498.43" y1="308.98" x2="523.21" y2="303.91"/><line class="cls-20" x1="499.73" y1="317.06" x2="513.82" y2="314.3"/><rect class="cls-70" x="267.67" y="475.75" width="19.09" height="19.09"/><rect class="cls-71" x="774.41" y="381.03" width="19.09" height="19.09"/><rect class="cls-72" x="359.49" y="283.35" width="78.07" height="78.07" transform="translate(-111.23 376.23) rotate(-45)"/><circle class="cls-8" cx="635.87" cy="414.57" r="8.11"/><ellipse class="cls-2" cx="631.85" cy="235.51" rx="6.06" ry="4.7" transform="translate(18.53 515.77) rotate(-45)"/><circle class="cls-73" cx="635.87" cy="414.57" r="4.02"/><circle class="cls-8" cx="345.27" cy="465.07" r="8.96"/><circle class="cls-73" cx="345.27" cy="465.07" r="4.44"/></g></svg>