<svg width="360" height="360" viewBox="0 0 360 360" fill="none" xmlns="http://www.w3.org/2000/svg">
<circle cx="191.887" cy="263.208" r="1.69811" fill="#FEB46D"/>
<circle cx="215.66" cy="263.208" r="1.69811" fill="#FEB46D"/>
<circle cx="239.434" cy="263.208" r="1.69811" fill="#FEB46D"/>
<circle cx="263.208" cy="263.208" r="1.69811" fill="#FEB46D"/>
<circle cx="286.981" cy="263.208" r="1.69811" fill="#FEB46D"/>
<circle cx="310.755" cy="263.208" r="1.69811" fill="#FEB46D"/>
<circle cx="334.528" cy="263.208" r="1.69811" fill="#FEB46D"/>
<circle cx="358.302" cy="263.208" r="1.69811" fill="#FEB46D"/>
<circle cx="191.887" cy="286.981" r="1.69811" fill="#FEB46D"/>
<circle cx="215.66" cy="286.981" r="1.69811" fill="#FEB46D"/>
<circle cx="239.434" cy="286.981" r="1.69811" fill="#FEB46D"/>
<circle cx="263.208" cy="286.981" r="1.69811" fill="#FEB46D"/>
<circle cx="286.981" cy="286.981" r="1.69811" fill="#FEB46D"/>
<circle cx="310.755" cy="286.981" r="1.69811" fill="#FEB46D"/>
<circle cx="334.528" cy="286.981" r="1.69811" fill="#FEB46D"/>
<circle cx="358.302" cy="286.981" r="1.69811" fill="#FEB46D"/>
<circle cx="191.887" cy="310.755" r="1.69811" fill="#FEB46D"/>
<circle cx="215.66" cy="310.755" r="1.69811" fill="#FEB46D"/>
<circle cx="239.434" cy="310.755" r="1.69811" fill="#FEB46D"/>
<circle cx="263.208" cy="310.755" r="1.69811" fill="#FEB46D"/>
<circle cx="286.981" cy="310.755" r="1.69811" fill="#FEB46D"/>
<circle cx="310.755" cy="310.755" r="1.69811" fill="#FEB46D"/>
<circle cx="334.528" cy="310.755" r="1.69811" fill="#FEB46D"/>
<circle cx="358.302" cy="310.755" r="1.69811" fill="#FEB46D"/>
<circle cx="191.887" cy="334.528" r="1.69811" fill="#FEB46D"/>
<circle cx="215.66" cy="334.528" r="1.69811" fill="#FEB46D"/>
<circle cx="239.434" cy="334.528" r="1.69811" fill="#FEB46D"/>
<circle cx="263.208" cy="334.528" r="1.69811" fill="#FEB46D"/>
<circle cx="286.981" cy="334.528" r="1.69811" fill="#FEB46D"/>
<circle cx="310.755" cy="334.528" r="1.69811" fill="#FEB46D"/>
<circle cx="334.528" cy="334.528" r="1.69811" fill="#FEB46D"/>
<circle cx="358.302" cy="334.528" r="1.69811" fill="#FEB46D"/>
<circle cx="191.887" cy="358.302" r="1.69811" fill="#FEB46D"/>
<circle cx="215.66" cy="358.302" r="1.69811" fill="#FEB46D"/>
<circle cx="239.434" cy="358.302" r="1.69811" fill="#FEB46D"/>
<circle cx="263.208" cy="358.302" r="1.69811" fill="#FEB46D"/>
<circle cx="286.981" cy="358.302" r="1.69811" fill="#FEB46D"/>
<circle cx="310.755" cy="358.302" r="1.69811" fill="#FEB46D"/>
<circle cx="334.528" cy="358.302" r="1.69811" fill="#FEB46D"/>
<circle cx="358.302" cy="358.302" r="1.69811" fill="#FEB46D"/>
<circle cx="1.69811" cy="191.887" r="1.69811" fill="#FEB46D"/>
<circle cx="25.4718" cy="191.887" r="1.69811" fill="#FEB46D"/>
<circle cx="49.2452" cy="191.887" r="1.69811" fill="#FEB46D"/>
<circle cx="73.0189" cy="191.887" r="1.69811" fill="#FEB46D"/>
<circle cx="96.7924" cy="191.887" r="1.69811" fill="#FEB46D"/>
<circle cx="120.566" cy="191.887" r="1.69811" fill="#FEB46D"/>
<circle cx="1.69811" cy="215.66" r="1.69811" fill="#FEB46D"/>
<circle cx="25.4718" cy="215.66" r="1.69811" fill="#FEB46D"/>
<circle cx="49.2452" cy="215.66" r="1.69811" fill="#FEB46D"/>
<circle cx="73.0189" cy="215.66" r="1.69811" fill="#FEB46D"/>
<circle cx="96.7924" cy="215.66" r="1.69811" fill="#FEB46D"/>
<circle cx="120.566" cy="215.66" r="1.69811" fill="#FEB46D"/>
<circle cx="1.69811" cy="239.434" r="1.69811" fill="#FEB46D"/>
<circle cx="25.4718" cy="239.434" r="1.69811" fill="#FEB46D"/>
<circle cx="49.2452" cy="239.434" r="1.69811" fill="#FEB46D"/>
<circle cx="73.0189" cy="239.434" r="1.69811" fill="#FEB46D"/>
<circle cx="96.7924" cy="239.434" r="1.69811" fill="#FEB46D"/>
<circle cx="120.566" cy="239.434" r="1.69811" fill="#FEB46D"/>
<circle cx="1.69811" cy="263.208" r="1.69811" fill="#FEB46D"/>
<circle cx="25.4718" cy="263.208" r="1.69811" fill="#FEB46D"/>
<circle cx="49.2452" cy="263.208" r="1.69811" fill="#FEB46D"/>
<circle cx="73.0189" cy="263.208" r="1.69811" fill="#FEB46D"/>
<circle cx="96.7924" cy="263.208" r="1.69811" fill="#FEB46D"/>
<circle cx="120.566" cy="263.208" r="1.69811" fill="#FEB46D"/>
<circle cx="144.34" cy="263.208" r="1.69811" fill="#FEB46D"/>
<circle cx="168.113" cy="263.208" r="1.69811" fill="#FEB46D"/>
<circle cx="1.69811" cy="286.981" r="1.69811" fill="#FEB46D"/>
<circle cx="25.4718" cy="286.981" r="1.69811" fill="#FEB46D"/>
<circle cx="49.2452" cy="286.981" r="1.69811" fill="#FEB46D"/>
<circle cx="73.0189" cy="286.981" r="1.69811" fill="#FEB46D"/>
<circle cx="96.7924" cy="286.981" r="1.69811" fill="#FEB46D"/>
<circle cx="120.566" cy="286.981" r="1.69811" fill="#FEB46D"/>
<circle cx="144.34" cy="286.981" r="1.69811" fill="#FEB46D"/>
<circle cx="168.113" cy="286.981" r="1.69811" fill="#FEB46D"/>
<circle cx="1.69811" cy="310.755" r="1.69811" fill="#FEB46D"/>
<circle cx="25.4718" cy="310.755" r="1.69811" fill="#FEB46D"/>
<circle cx="49.2452" cy="310.755" r="1.69811" fill="#FEB46D"/>
<circle cx="73.0189" cy="310.755" r="1.69811" fill="#FEB46D"/>
<circle cx="96.7924" cy="310.755" r="1.69811" fill="#FEB46D"/>
<circle cx="120.566" cy="310.755" r="1.69811" fill="#FEB46D"/>
<circle cx="144.34" cy="310.755" r="1.69811" fill="#FEB46D"/>
<circle cx="168.113" cy="310.755" r="1.69811" fill="#FEB46D"/>
<circle cx="1.69811" cy="334.528" r="1.69811" fill="#FEB46D"/>
<circle cx="25.4718" cy="334.528" r="1.69811" fill="#FEB46D"/>
<circle cx="49.2452" cy="334.528" r="1.69811" fill="#FEB46D"/>
<circle cx="73.0189" cy="334.528" r="1.69811" fill="#FEB46D"/>
<circle cx="96.7924" cy="334.528" r="1.69811" fill="#FEB46D"/>
<circle cx="120.566" cy="334.528" r="1.69811" fill="#FEB46D"/>
<circle cx="144.34" cy="334.528" r="1.69811" fill="#FEB46D"/>
<circle cx="168.113" cy="334.528" r="1.69811" fill="#FEB46D"/>
<circle cx="1.69811" cy="358.302" r="1.69811" fill="#FEB46D"/>
<circle cx="25.4718" cy="358.302" r="1.69811" fill="#FEB46D"/>
<circle cx="49.2452" cy="358.302" r="1.69811" fill="#FEB46D"/>
<circle cx="73.0189" cy="358.302" r="1.69811" fill="#FEB46D"/>
<circle cx="96.7924" cy="358.302" r="1.69811" fill="#FEB46D"/>
<circle cx="120.566" cy="358.302" r="1.69811" fill="#FEB46D"/>
<circle cx="144.34" cy="358.302" r="1.69811" fill="#FEB46D"/>
<circle cx="168.113" cy="358.302" r="1.69811" fill="#FEB46D"/>
<circle cx="334.528" cy="73.0189" r="1.69811" fill="#FEB46D"/>
<circle cx="1.69811" cy="1.69811" r="1.69811" fill="#FEB46D"/>
<circle cx="25.4718" cy="1.69811" r="1.69811" fill="#FEB46D"/>
<circle cx="49.2452" cy="1.69811" r="1.69811" fill="#FEB46D"/>
<circle cx="73.0189" cy="1.69811" r="1.69811" fill="#FEB46D"/>
<circle cx="96.7924" cy="1.69811" r="1.69811" fill="#FEB46D"/>
<circle cx="120.566" cy="1.69811" r="1.69811" fill="#FEB46D"/>
<circle cx="1.69811" cy="25.4717" r="1.69811" fill="#FEB46D"/>
<circle cx="25.4718" cy="25.4717" r="1.69811" fill="#FEB46D"/>
<circle cx="49.2452" cy="25.4717" r="1.69811" fill="#FEB46D"/>
<circle cx="73.0189" cy="25.4717" r="1.69811" fill="#FEB46D"/>
<circle cx="96.7924" cy="25.4717" r="1.69811" fill="#FEB46D"/>
<circle cx="120.566" cy="25.4717" r="1.69811" fill="#FEB46D"/>
<circle cx="1.69811" cy="49.2453" r="1.69811" fill="#FEB46D"/>
<circle cx="25.4718" cy="49.2453" r="1.69811" fill="#FEB46D"/>
<circle cx="49.2452" cy="49.2453" r="1.69811" fill="#FEB46D"/>
<circle cx="73.0189" cy="49.2453" r="1.69811" fill="#FEB46D"/>
<circle cx="96.7924" cy="49.2453" r="1.69811" fill="#FEB46D"/>
<circle cx="120.566" cy="49.2453" r="1.69811" fill="#FEB46D"/>
<circle cx="1.69811" cy="73.0189" r="1.69811" fill="#FEB46D"/>
<circle cx="25.4718" cy="73.0189" r="1.69811" fill="#FEB46D"/>
<circle cx="49.2452" cy="73.0189" r="1.69811" fill="#FEB46D"/>
<circle cx="73.0189" cy="73.0189" r="1.69811" fill="#FEB46D"/>
<circle cx="96.7924" cy="73.0189" r="1.69811" fill="#FEB46D"/>
<circle cx="120.566" cy="73.0189" r="1.69811" fill="#FEB46D"/>
<circle cx="1.69811" cy="96.7924" r="1.69811" fill="#FEB46D"/>
<circle cx="25.4718" cy="96.7924" r="1.69811" fill="#FEB46D"/>
<circle cx="49.2452" cy="96.7924" r="1.69811" fill="#FEB46D"/>
<circle cx="73.0189" cy="96.7924" r="1.69811" fill="#FEB46D"/>
<circle cx="96.7924" cy="96.7924" r="1.69811" fill="#FEB46D"/>
<circle cx="120.566" cy="96.7924" r="1.69811" fill="#FEB46D"/>
<circle cx="1.69811" cy="120.566" r="1.69811" fill="#FEB46D"/>
<circle cx="25.4718" cy="120.566" r="1.69811" fill="#FEB46D"/>
<circle cx="49.2452" cy="120.566" r="1.69811" fill="#FEB46D"/>
<circle cx="73.0189" cy="120.566" r="1.69811" fill="#FEB46D"/>
<circle cx="96.7924" cy="120.566" r="1.69811" fill="#FEB46D"/>
<circle cx="120.566" cy="120.566" r="1.69811" fill="#FEB46D"/>
<circle cx="1.69811" cy="144.34" r="1.69811" fill="#FEB46D"/>
<circle cx="25.4718" cy="144.34" r="1.69811" fill="#FEB46D"/>
<circle cx="49.2452" cy="144.34" r="1.69811" fill="#FEB46D"/>
<circle cx="73.0189" cy="144.34" r="1.69811" fill="#FEB46D"/>
<circle cx="96.7924" cy="144.34" r="1.69811" fill="#FEB46D"/>
<circle cx="120.566" cy="144.34" r="1.69811" fill="#FEB46D"/>
<circle cx="1.69811" cy="168.113" r="1.69811" fill="#FEB46D"/>
<circle cx="25.4718" cy="168.113" r="1.69811" fill="#FEB46D"/>
<circle cx="49.2452" cy="168.113" r="1.69811" fill="#FEB46D"/>
<circle cx="73.0189" cy="168.113" r="1.69811" fill="#FEB46D"/>
<circle cx="96.7924" cy="168.113" r="1.69811" fill="#FEB46D"/>
<circle cx="120.566" cy="168.113" r="1.69811" fill="#FEB46D"/>
</svg>
