<svg width="70" height="70" viewBox="0 0 70 70" fill="none" xmlns="http://www.w3.org/2000/svg">
<path d="M53.7113 61.8977C40.2615 61.8977 31.0254 68.8646 24.5446 68.8646C18.0637 68.8646 4.45264 65.1391 4.45264 35.3249C4.45264 5.51073 22.7635 1.13379 29.8918 1.13379C63.2721 1.13379 77.5307 61.8977 53.7113 61.8977Z" fill="#EFEFEF"/>
<path d="M63.1945 19.4447C61.5864 19.4447 60.2778 18.1361 60.2778 16.528C60.2778 14.9199 61.5864 13.6113 63.1945 13.6113C64.8026 13.6113 66.1112 14.9199 66.1112 16.528C66.1112 18.1361 64.8026 19.4447 63.1945 19.4447ZM63.1945 15.5558C62.6578 15.5558 62.2223 15.9933 62.2223 16.528C62.2223 17.0627 62.6578 17.5002 63.1945 17.5002C63.7312 17.5002 64.1667 17.0627 64.1667 16.528C64.1667 15.9933 63.7312 15.5558 63.1945 15.5558Z" fill="#A4AFC1"/>
<path d="M34.5139 47.1529V48.1309C34.5139 50.8162 32.3381 52.9921 29.6528 52.9921V56.8751H13.125V41.4401C13.125 37.8934 14.7369 34.5412 17.5078 32.3265L22.0694 28.6807L34.5139 47.1529Z" fill="#FEB46D"/>
<path d="M50.0694 47.1528H25.7638C24.1538 47.1528 22.8472 45.8461 22.8472 44.2361V16.0417C22.8472 14.4317 24.1538 13.125 25.7638 13.125H50.0694C51.6794 13.125 52.9861 14.4317 52.9861 16.0417V44.2361C52.9861 45.8461 51.6794 47.1528 50.0694 47.1528Z" fill="#F3F3F1"/>
<path d="M32.1224 33.0555C32.1224 34.2416 31.6752 35.4277 30.7613 36.3222L27.2224 39.8611C27.6891 40.8138 27.9224 41.825 27.9224 42.8361C27.9224 44.3722 27.3974 45.8694 26.3669 47.0944L23.3336 50.7305V56.875H13.6113V44.45L25.9391 32.9972L29.4197 29.7694C29.8085 29.4194 30.3919 29.4194 30.7613 29.7888C31.6752 30.6833 32.1224 31.8694 32.1224 33.0555Z" fill="#FEB46D"/>
<path d="M36.9447 23.8196C38.2871 23.8196 39.3753 22.7314 39.3753 21.3891C39.3753 20.0467 38.2871 18.9585 36.9447 18.9585C35.6024 18.9585 34.5142 20.0467 34.5142 21.3891C34.5142 22.7314 35.6024 23.8196 36.9447 23.8196Z" fill="#FEB46D"/>
<path d="M45.6947 33.5418C47.0371 33.5418 48.1253 32.4536 48.1253 31.1112C48.1253 29.7689 47.0371 28.6807 45.6947 28.6807C44.3524 28.6807 43.2642 29.7689 43.2642 31.1112C43.2642 32.4536 44.3524 33.5418 45.6947 33.5418Z" fill="#FEB46D"/>
<path d="M38.8887 21.3891C38.8887 21.0196 38.9839 20.6793 39.1317 20.3663C38.7428 19.5399 37.9164 18.9585 36.9442 18.9585C35.6026 18.9585 34.5137 20.0474 34.5137 21.3891C34.5137 22.7307 35.6026 23.8196 36.9442 23.8196C37.9164 23.8196 38.7428 23.2382 39.1317 22.4118C38.9839 22.0988 38.8887 21.7585 38.8887 21.3891Z" fill="#FF6600"/>
<path d="M47.6387 31.1112C47.6387 30.7418 47.7339 30.4015 47.8817 30.0884C47.4928 29.2621 46.6664 28.6807 45.6942 28.6807C44.3526 28.6807 43.2637 29.7696 43.2637 31.1112C43.2637 32.4529 44.3526 33.5418 45.6942 33.5418C46.6664 33.5418 47.4928 32.9604 47.8817 32.134C47.7339 31.8209 47.6387 31.4807 47.6387 31.1112Z" fill="#FF6600"/>
<path d="M22.8472 35V16.0417C22.8472 14.4278 24.1499 13.125 25.7638 13.125H30.1388C28.5249 13.125 27.2222 14.4278 27.2222 16.0417V32.0833L22.8472 35Z" fill="#D5DBE1"/>
<path d="M31.8597 31.5643C31.6381 30.9148 31.2861 30.3023 30.7611 29.789C30.3917 29.4196 29.8083 29.4196 29.4194 29.7696L25.9389 32.9973L21.8828 32.3265L23.6017 30.9537L22.0694 28.6807L17.5078 32.3265C14.7369 34.5412 13.125 37.8934 13.125 41.4401V56.8751H17.5V46.6571C17.5 45.5798 17.9472 44.5493 18.7347 43.8143L31.8597 31.5643Z" fill="#FF6600"/>
<path d="M36.9446 25.2778C34.7998 25.2778 33.0557 23.5336 33.0557 21.3889C33.0557 19.2442 34.7998 17.5 36.9446 17.5C39.0893 17.5 40.8334 19.2442 40.8334 21.3889C40.8334 23.5336 39.0893 25.2778 36.9446 25.2778ZM36.9446 20.4167C36.4079 20.4167 35.9723 20.8542 35.9723 21.3889C35.9723 21.9236 36.4079 22.3611 36.9446 22.3611C37.4812 22.3611 37.9168 21.9236 37.9168 21.3889C37.9168 20.8542 37.4812 20.4167 36.9446 20.4167Z" fill="black"/>
<path d="M45.6946 34.9999C43.5498 34.9999 41.8057 33.2558 41.8057 31.1111C41.8057 28.9663 43.5498 27.2222 45.6946 27.2222C47.8393 27.2222 49.5834 28.9663 49.5834 31.1111C49.5834 33.2558 47.8393 34.9999 45.6946 34.9999ZM45.6946 30.1388C45.1579 30.1388 44.7223 30.5763 44.7223 31.1111C44.7223 31.6458 45.1579 32.0833 45.6946 32.0833C46.2312 32.0833 46.6668 31.6458 46.6668 31.1111C46.6668 30.5763 46.2312 30.1388 45.6946 30.1388Z" fill="black"/>
<path d="M36.9447 48.1251C36.8222 48.1251 36.6958 48.1096 36.5713 48.0765C35.9316 47.9073 35.4863 47.3298 35.4863 46.6668V24.3057H38.403V41.1543L43.0658 32.9565L45.6013 34.3993L38.2124 47.3882C37.948 47.8509 37.4599 48.1251 36.9447 48.1251Z" fill="black"/>
<path d="M25.9351 50.0034L23.6485 48.1912L25.239 46.1845C26.5807 44.5726 26.8393 42.3559 25.9176 40.5126C25.6357 39.9526 25.7465 39.274 26.1918 38.8307L29.7112 35.3112C30.8429 34.1795 30.944 32.4023 30.0165 31.152L19.9482 40.4445L17.9688 38.3018L28.4046 28.669C29.3651 27.7784 30.8449 27.8115 31.7704 28.7332C34.1524 31.117 34.1524 34.9904 31.7704 37.3704L28.9412 40.1995C29.8532 42.8518 29.3301 45.8248 27.5004 48.0201L25.9351 50.0034Z" fill="black"/>
<path d="M29.6526 58.3336H13.1248C12.3198 58.3336 11.6665 57.6802 11.6665 56.8752V41.4402C11.6665 37.4288 13.4632 33.6916 16.5976 31.1872L21.6318 27.0669L23.479 29.3224L18.4312 33.4544C15.9812 35.4144 14.5832 38.3213 14.5832 41.4422V55.4169H28.1943V52.9922C28.1943 52.1872 28.8476 51.5338 29.6526 51.5338C31.529 51.5338 33.0554 50.0075 33.0554 48.1311V47.153H35.9721V48.1311C35.9721 51.1138 33.8954 53.6202 31.1109 54.2813V56.8752C31.1109 57.6802 30.4576 58.3336 29.6526 58.3336Z" fill="black"/>
<path d="M51.0415 48.611H26.7359V45.6943H51.0415C51.3059 45.6943 51.5276 45.4726 51.5276 45.2082V15.0693C51.5276 14.8048 51.3059 14.5832 51.0415 14.5832H24.7914C24.527 14.5832 24.3053 14.8048 24.3053 15.0693V34.9998H21.3887V15.0693C21.3887 13.1929 22.9151 11.6665 24.7914 11.6665H51.0415C52.9178 11.6665 54.4442 13.1929 54.4442 15.0693V45.2082C54.4442 47.0846 52.9178 48.611 51.0415 48.611Z" fill="black"/>
</svg>
