<svg width="70" height="70" viewBox="0 0 70 70" fill="none" xmlns="http://www.w3.org/2000/svg">
<path d="M53.7113 61.8977C40.2615 61.8977 31.0254 68.8646 24.5446 68.8646C18.0637 68.8646 4.45264 65.1391 4.45264 35.3249C4.45264 5.51073 22.7635 1.13379 29.8918 1.13379C63.2721 1.13379 77.5307 61.8977 53.7113 61.8977Z" fill="#EFEFEF"/>
<path d="M18.7153 6.31934H20.6598V10.2082H18.7153V6.31934Z" fill="#A4AFC1"/>
<path d="M11.9097 12.1528H15.7986V14.0973H11.9097V12.1528Z" fill="#A4AFC1"/>
<path d="M23.0903 12.1528H26.9792V14.0973H23.0903V12.1528Z" fill="#A4AFC1"/>
<path d="M43.2641 35.4861V33.6933C43.2641 32.6628 42.8538 31.6731 42.1247 30.9439L39.3752 28.1944V22.4817C39.3752 20.5042 38.7724 18.5733 37.6466 16.9478L35.0002 13.125L32.3538 16.9478C31.228 18.5733 30.6252 20.5042 30.6252 22.4817V28.1944L27.8758 30.9439C27.1466 31.6731 26.7363 32.6628 26.7363 33.6933V35.4861H43.2641Z" fill="#F3F3F1"/>
<path d="M54.9306 20.9028H46.1806H39.2389C39.3244 21.422 39.375 21.9489 39.375 22.4817V28.1945L42.1244 30.9439C42.8536 31.6731 43.2639 32.6628 43.2639 33.6934V35.4862H26.7361V33.6934C26.7361 32.6628 27.1464 31.6731 27.8756 30.9439L30.625 28.1945V22.4817C30.625 21.9509 30.6756 21.4239 30.7611 20.9028H23.8194H15.0694C13.9961 20.9028 13.125 21.7739 13.125 22.8473V47.1528C13.125 48.2262 13.9961 49.0973 15.0694 49.0973H54.9306C56.0039 49.0973 56.875 48.2262 56.875 47.1528V22.8473C56.875 21.7739 56.0039 20.9028 54.9306 20.9028Z" fill="#FEB46D"/>
<path d="M17.5 47.1528V22.8473C17.5 21.7739 18.3711 20.9028 19.4444 20.9028H15.0694C13.9961 20.9028 13.125 21.7739 13.125 22.8473V47.1528C13.125 48.2262 13.9961 49.0973 15.0694 49.0973H19.4444C18.3711 49.0973 17.5 48.2262 17.5 47.1528Z" fill="#FF6600"/>
<path d="M32.0077 30.9439L34.7572 28.1944V22.4817C34.7572 20.5042 35.3599 18.5733 36.4858 16.9478L37.0652 16.1097L35.0002 13.125L32.3538 16.9478C31.228 18.5733 30.6252 20.5042 30.6252 22.4817V28.1944L27.8758 30.9439C27.1466 31.6731 26.7363 32.6628 26.7363 33.6933V35.4861H30.8683V33.6933C30.8683 32.6628 31.2786 31.6731 32.0077 30.9439Z" fill="#D5DBE1"/>
<path d="M54.9304 50.5554H15.0693C13.1929 50.5554 11.6665 49.0291 11.6665 47.1527V22.8471C11.6665 20.9707 13.1929 19.4443 15.0693 19.4443H23.8193V22.361H15.0693C14.8009 22.361 14.5832 22.5788 14.5832 22.8471V47.1527C14.5832 47.421 14.8009 47.6388 15.0693 47.6388H54.9304C55.1987 47.6388 55.4165 47.421 55.4165 47.1527V22.8471C55.4165 22.5788 55.1987 22.361 54.9304 22.361H46.1804V19.4443H54.9304C56.8068 19.4443 58.3332 20.9707 58.3332 22.8471V47.1527C58.3332 49.0291 56.8068 50.5554 54.9304 50.5554Z" fill="black"/>
<path d="M33.5415 49.0972H36.4582V56.8749H33.5415V49.0972Z" fill="black"/>
<path d="M25.2778 55.4165H44.7223V58.3332H25.2778V55.4165Z" fill="black"/>
<path d="M43.2639 36.9444H26.7362C25.9312 36.9444 25.2778 36.2911 25.2778 35.4861V33.6953C25.2778 32.2661 25.8339 30.9244 26.8451 29.9133L29.1667 27.5897V22.4817C29.1667 20.1989 29.8551 17.9978 31.152 16.1175L33.8003 12.2947C34.3428 11.5072 35.6534 11.5072 36.1959 12.2947L38.8423 16.1175C40.1451 17.9978 40.8334 20.1989 40.8334 22.4817V27.5897L43.1551 29.9114C44.1662 30.9225 44.7223 32.2642 44.7223 33.6933V35.4842C44.7223 36.2911 44.0689 36.9444 43.2639 36.9444ZM28.1945 34.0278H41.8056V33.6953C41.8056 33.0458 41.5528 32.4353 41.0939 31.9764L38.3445 29.225C38.0703 28.9508 37.9167 28.5794 37.9167 28.1944V22.4817C37.9167 20.7939 37.4073 19.1664 36.4467 17.7781L35.0001 15.6858L33.5514 17.7761C32.5928 19.1644 32.0834 20.7919 32.0834 22.4797V28.1944C32.0834 28.5814 31.9298 28.9528 31.6556 29.225L28.9062 31.9744C28.4473 32.4333 28.1945 33.0439 28.1945 33.6933V34.0278Z" fill="black"/>
<path d="M37.9165 35.4863H40.8332V39.3752H37.9165V35.4863Z" fill="black"/>
<path d="M29.1665 35.4863H32.0832V39.3752H29.1665V35.4863Z" fill="black"/>
<path d="M3.88867 55.4165H66.1109V58.3332H3.88867V55.4165Z" fill="black"/>
</svg>
