<svg width="70" height="70" viewBox="0 0 70 70" fill="none" xmlns="http://www.w3.org/2000/svg">
<path d="M53.7113 61.8977C40.2615 61.8977 31.0254 68.8646 24.5446 68.8646C18.0637 68.8646 4.45264 65.1391 4.45264 35.3249C4.45264 5.51073 22.7635 1.13379 29.8918 1.13379C63.2721 1.13379 77.5307 61.8977 53.7113 61.8977Z" fill="#EFEFEF"/>
<path d="M3.87891 8.96875L5.25384 7.59382L8.0037 10.3437L6.62877 11.7186L3.87891 8.96875Z" fill="#A4AFC1"/>
<path d="M11.7822 16.8726L13.1572 15.4976L15.907 18.2475L14.5321 19.6224L11.7822 16.8726Z" fill="#A4AFC1"/>
<path d="M3.53369 18.249L6.28355 15.4992L7.65848 16.8741L4.90862 19.624L3.53369 18.249Z" fill="#A4AFC1"/>
<path d="M11.4385 10.3457L14.1883 7.59584L15.5633 8.97077L12.8134 11.7206L11.4385 10.3457Z" fill="#A4AFC1"/>
<path d="M24.7916 37.4306H36.4583V45.2083L42.2916 37.4306H54.9305C56.0038 37.4306 56.8749 36.5594 56.8749 35.4861V15.0694C56.8749 13.9961 56.0038 13.125 54.9305 13.125H24.7916C23.7183 13.125 22.8472 13.9961 22.8472 15.0694V35.4861C22.8472 36.5594 23.7183 37.4306 24.7916 37.4306Z" fill="#F3F3F1"/>
<path d="M44.2363 18.9585H49.0974V31.5974H44.2363V18.9585Z" fill="#FEB46D"/>
<path d="M32.5693 26.7363H37.4304V31.5974H32.5693V26.7363Z" fill="#FEB46D"/>
<path d="M22.3613 44.2363C24.7776 44.2363 26.7363 42.2776 26.7363 39.8613C26.7363 37.4451 24.7776 35.4863 22.3613 35.4863C19.9451 35.4863 17.9863 37.4451 17.9863 39.8613C17.9863 42.2776 19.9451 44.2363 22.3613 44.2363Z" fill="#FEB46D"/>
<path d="M31.5972 56.8749V53.9582C31.5972 51.8096 29.8569 50.0693 27.7083 50.0693H17.0139C14.8653 50.0693 13.125 51.8096 13.125 53.9582V56.8749H31.5972Z" fill="#FEB46D"/>
<path d="M27.2222 35.4861V15.0694C27.2222 13.9961 28.0933 13.125 29.1666 13.125H24.7916C23.7183 13.125 22.8472 13.9961 22.8472 15.0694V35.4861C22.8472 36.5594 23.7183 37.4306 24.7916 37.4306H29.1666C28.0933 37.4306 27.2222 36.5594 27.2222 35.4861Z" fill="#D5DBE1"/>
<path d="M44.2363 18.9585H48.6113V31.5974H44.2363V18.9585Z" fill="#FF6600"/>
<path d="M32.5693 26.7363H36.9443V31.5974H32.5693V26.7363Z" fill="#FF6600"/>
<path d="M22.3613 39.8613C22.3613 38.2455 23.2461 36.8513 24.5488 36.093C23.9033 35.7177 23.1624 35.4863 22.3613 35.4863C19.9444 35.4863 17.9863 37.4444 17.9863 39.8613C17.9863 42.2783 19.9444 44.2363 22.3613 44.2363C23.1624 44.2363 23.9033 44.0049 24.5488 43.6297C23.2461 42.8713 22.3613 41.4772 22.3613 39.8613Z" fill="#FF6600"/>
<path d="M21.3889 50.0693H17.0139C14.8653 50.0693 13.125 51.8096 13.125 53.9582V56.8749H17.5V53.9582C17.5 51.8096 19.2403 50.0693 21.3889 50.0693Z" fill="#FF6600"/>
<path d="M49.0973 33.0556H44.2362C43.4312 33.0556 42.7778 32.4022 42.7778 31.5972V18.9583C42.7778 18.1533 43.4312 17.5 44.2362 17.5H49.0973C49.9023 17.5 50.5556 18.1533 50.5556 18.9583V31.5972C50.5556 32.4022 49.9023 33.0556 49.0973 33.0556ZM45.6945 30.1389H47.6389V20.4167H45.6945V30.1389Z" fill="black"/>
<path d="M37.4308 33.0556H32.5697C31.7647 33.0556 31.1113 32.4023 31.1113 31.5973V26.7362C31.1113 25.9312 31.7647 25.2778 32.5697 25.2778H37.4308C38.2358 25.2778 38.8891 25.9312 38.8891 26.7362V31.5973C38.8891 32.4023 38.2358 33.0556 37.4308 33.0556ZM34.028 30.1389H35.9724V28.1945H34.028V30.1389Z" fill="black"/>
<path d="M29.1665 30.1387H52.4998V33.0553H29.1665V30.1387Z" fill="black"/>
<path d="M36.4581 46.6665C36.3045 46.6665 36.149 46.6412 35.9973 46.5907C35.4023 46.3923 34.9998 45.8362 34.9998 45.2082V38.8887H32.5692V35.9721H36.4581C37.2631 35.9721 37.9165 36.6254 37.9165 37.4304V40.8332L41.1248 36.5554C41.4009 36.1898 41.8306 35.9721 42.2915 35.9721H54.9303C55.1987 35.9721 55.4165 35.7543 55.4165 35.4859V15.0693C55.4165 14.8009 55.1987 14.5832 54.9303 14.5832H24.7914C24.5231 14.5832 24.3053 14.8009 24.3053 15.0693V27.7082H21.3887V15.0693C21.3887 13.1929 22.9151 11.6665 24.7914 11.6665H54.9303C56.8067 11.6665 58.3331 13.1929 58.3331 15.0693V35.4859C58.3331 37.3623 56.8067 38.8887 54.9303 38.8887H43.0206L37.6248 46.0832C37.3448 46.4585 36.9073 46.6665 36.4581 46.6665Z" fill="black"/>
<path d="M22.3612 45.6945C19.1451 45.6945 16.5278 43.0773 16.5278 39.8612C16.5278 36.6451 19.1451 34.0278 22.3612 34.0278C25.5773 34.0278 28.1945 36.6451 28.1945 39.8612C28.1945 43.0773 25.5773 45.6945 22.3612 45.6945ZM22.3612 36.9445C20.7531 36.9445 19.4445 38.2531 19.4445 39.8612C19.4445 41.4692 20.7531 42.7778 22.3612 42.7778C23.9692 42.7778 25.2778 41.4692 25.2778 39.8612C25.2778 38.2531 23.9692 36.9445 22.3612 36.9445Z" fill="black"/>
<path d="M33.0554 56.8752H30.1387V53.9586C30.1387 52.6188 29.0479 51.528 27.7082 51.528H17.0137C15.674 51.528 14.5832 52.6188 14.5832 53.9586V56.8752H11.6665V53.9586C11.6665 51.0088 14.064 48.6113 17.0137 48.6113H27.7082C30.6579 48.6113 33.0554 51.0088 33.0554 53.9586V56.8752Z" fill="black"/>
<path d="M3.88867 53.9585H66.1109V56.8752H3.88867V53.9585Z" fill="black"/>
</svg>
