<svg width="50" height="50" viewBox="0 0 50 50" fill="none" xmlns="http://www.w3.org/2000/svg">
<path d="M48.4776 28.2708C43.2248 20.2277 43.7832 11.9833 41.2512 8.10689C38.7193 4.2305 31.1734 -2.45283 13.3443 9.193C-4.48489 20.8388 0.0498306 33.4986 2.83594 37.7611C15.8748 57.7222 57.7818 42.5152 48.4776 28.2708Z" fill="white"/>
<path d="M7.59994 44.3903C6.45132 44.3903 5.5166 43.4556 5.5166 42.307C5.5166 41.1584 6.45132 40.2236 7.59994 40.2236C8.74855 40.2236 9.68327 41.1584 9.68327 42.307C9.68327 43.4556 8.74855 44.3903 7.59994 44.3903ZM7.59994 41.6125C7.2166 41.6125 6.90549 41.9236 6.90549 42.307C6.90549 42.6903 7.2166 43.0014 7.59994 43.0014C7.98327 43.0014 8.29438 42.6903 8.29438 42.307C8.29438 41.9236 7.98327 41.6125 7.59994 41.6125Z" fill="#A4AFC1"/>
<path d="M40.4902 4.16675H41.8791V6.94453H40.4902V4.16675Z" fill="#A4AFC1"/>
<path d="M40.4902 12.1528H41.8791V14.9306H40.4902V12.1528Z" fill="#A4AFC1"/>
<path d="M35.6289 8.68066H38.4067V10.0696H35.6289V8.68066Z" fill="#A4AFC1"/>
<path d="M43.6152 8.68066H46.393V10.0696H43.6152V8.68066Z" fill="#A4AFC1"/>
<path d="M9.375 21.5278L25 26.7362L40.625 21.5278H9.375Z" fill="#FEB46D"/>
<path d="M37.8472 37.8471H12.1528C10.6181 37.8471 9.375 36.6041 9.375 35.0693V19.0971C9.375 17.5624 10.6181 16.3193 12.1528 16.3193H37.8472C39.3819 16.3193 40.625 17.5624 40.625 19.0971V35.0693C40.625 36.6041 39.3819 37.8471 37.8472 37.8471Z" fill="#FEB46D"/>
<path d="M20.4863 16.3195V13.5417C20.4863 12.7751 21.1085 12.1528 21.8752 12.1528H28.1252C28.8919 12.1528 29.5141 12.7751 29.5141 13.5417V16.3195H20.4863Z" fill="#F3F3F1"/>
<path d="M25.0001 27.7777C24.889 27.7777 24.7778 27.7596 24.6709 27.7235L9.0459 22.5152L9.70562 20.5388L25.0001 25.6374L40.2959 20.5388L40.9556 22.5152L25.3306 27.7235C25.2223 27.7596 25.1112 27.7777 25.0001 27.7777Z" fill="black"/>
<path d="M37.8474 38.8889H12.1529C10.046 38.8889 8.3335 37.1764 8.3335 35.0695V19.0973C8.3335 16.9903 10.046 15.2778 12.1529 15.2778H37.8474C39.9543 15.2778 41.6668 16.9903 41.6668 19.0973V27.0834H39.5835V19.0973C39.5835 18.1403 38.8043 17.3612 37.8474 17.3612H12.1529C11.196 17.3612 10.4168 18.1403 10.4168 19.0973V35.0695C10.4168 36.0264 11.196 36.8056 12.1529 36.8056H37.8474C38.8043 36.8056 39.5835 36.0264 39.5835 35.0695V30.6876H41.6668V35.0695C41.6668 37.1764 39.9543 38.8889 37.8474 38.8889Z" fill="black"/>
<path d="M30.5554 16.3194H28.4721V13.5416C28.4721 13.35 28.3166 13.1944 28.1249 13.1944H21.8749C21.6832 13.1944 21.5277 13.35 21.5277 13.5416V16.3194H19.4443V13.5416C19.4443 12.2014 20.5346 11.1111 21.8749 11.1111H28.1249C29.4652 11.1111 30.5554 12.2014 30.5554 13.5416V16.3194Z" fill="black"/>
</svg>
