<svg width="70" height="70" viewBox="0 0 70 70" fill="none" xmlns="http://www.w3.org/2000/svg">
<path d="M8.10268 16.2886C8.10268 29.7384 1.13574 38.9745 1.13574 45.4553C1.13574 51.9361 4.8613 65.5473 34.6755 65.5473C64.4896 65.5473 68.8646 47.2364 68.8646 40.1081C68.8666 6.7278 8.10268 -7.53081 8.10268 16.2886Z" fill="#EFEFEF"/>
<path d="M61.2502 9.72225C59.6421 9.72225 58.3335 8.41364 58.3335 6.80558C58.3335 5.19753 59.6421 3.88892 61.2502 3.88892C62.8582 3.88892 64.1668 5.19753 64.1668 6.80558C64.1668 8.41364 62.8582 9.72225 61.2502 9.72225ZM61.2502 5.83336C60.7154 5.83336 60.2779 6.27086 60.2779 6.80558C60.2779 7.3403 60.7154 7.7778 61.2502 7.7778C61.7849 7.7778 62.2224 7.3403 62.2224 6.80558C62.2224 6.27086 61.7849 5.83336 61.2502 5.83336Z" fill="#A4AFC1"/>
<path d="M52.014 46.6668C49.4901 46.6668 46.5598 47.8879 43.7501 48.7493V47.9112C43.7501 46.064 42.4473 44.4695 40.639 44.1001L21.914 40.2695L19.0557 50.8279C22.789 52.5779 32.3168 56.8751 36.9446 56.8751C42.7779 56.8751 56.8751 49.0973 56.8751 49.0973C56.8751 49.0973 55.9029 46.6668 52.014 46.6668Z" fill="#F3F3F1"/>
<path d="M42.7777 17.9861C44.1201 17.9861 45.2083 16.8979 45.2083 15.5556C45.2083 14.2132 44.1201 13.125 42.7777 13.125C41.4354 13.125 40.3472 14.2132 40.3472 15.5556C40.3472 16.8979 41.4354 17.9861 42.7777 17.9861Z" fill="#FEB46D"/>
<path d="M54.4442 29.6529C55.7866 29.6529 56.8748 28.5647 56.8748 27.2223C56.8748 25.8799 55.7866 24.7917 54.4442 24.7917C53.1019 24.7917 52.0137 25.8799 52.0137 27.2223C52.0137 28.5647 53.1019 29.6529 54.4442 29.6529Z" fill="#FEB46D"/>
<path d="M13.125 36.4583V52.986H18.4722L22.3611 38.6244C22.3611 38.6244 19.5261 36.4583 13.125 36.4583Z" fill="#FEB46D"/>
<path d="M23.4307 50.8279L26.0595 41.1173L21.914 40.2695L19.0557 50.8279C22.789 52.5779 32.3168 56.8751 36.9445 56.8751C37.557 56.8751 38.2745 56.774 39.0407 56.6204C34.0609 55.6831 26.6273 52.327 23.4307 50.8279Z" fill="#D5DBE1"/>
<path d="M44.7222 15.5556C44.7222 15.1861 44.8175 14.8458 44.9652 14.5328C44.5763 13.7064 43.75 13.125 42.7777 13.125C41.4361 13.125 40.3472 14.2139 40.3472 15.5556C40.3472 16.8972 41.4361 17.9861 42.7777 17.9861C43.75 17.9861 44.5763 17.4047 44.9652 16.5783C44.8175 16.2653 44.7222 15.925 44.7222 15.5556Z" fill="#FF7F2E"/>
<path d="M56.3887 27.2223C56.3887 26.8529 56.484 26.5126 56.6317 26.1995C56.2428 25.3731 55.4165 24.7917 54.4442 24.7917C53.1026 24.7917 52.0137 25.8806 52.0137 27.2223C52.0137 28.564 53.1026 29.6529 54.4442 29.6529C55.4165 29.6529 56.2428 29.0715 56.6317 28.2451C56.484 27.932 56.3887 27.5917 56.3887 27.2223Z" fill="#FF7F2E"/>
<path d="M13.125 36.4583V52.986H17.5V36.8471C16.2828 36.6196 14.8419 36.4583 13.125 36.4583Z" fill="#FF7F2E"/>
<path d="M42.7776 19.4445C40.6328 19.4445 38.8887 17.7004 38.8887 15.5556C38.8887 13.4109 40.6328 11.6667 42.7776 11.6667C44.9223 11.6667 46.6665 13.4109 46.6665 15.5556C46.6665 17.7004 44.9223 19.4445 42.7776 19.4445ZM42.7776 14.5834C42.2428 14.5834 41.8053 15.0209 41.8053 15.5556C41.8053 16.0904 42.2428 16.5279 42.7776 16.5279C43.3123 16.5279 43.7498 16.0904 43.7498 15.5556C43.7498 15.0209 43.3123 14.5834 42.7776 14.5834Z" fill="black"/>
<path d="M54.4446 31.111C52.2998 31.111 50.5557 29.3669 50.5557 27.2221C50.5557 25.0774 52.2998 23.3333 54.4446 23.3333C56.5893 23.3333 58.3334 25.0774 58.3334 27.2221C58.3334 29.3669 56.5893 31.111 54.4446 31.111ZM54.4446 26.2499C53.9098 26.2499 53.4723 26.6874 53.4723 27.2221C53.4723 27.7569 53.9098 28.1944 54.4446 28.1944C54.9793 28.1944 55.4168 27.7569 55.4168 27.2221C55.4168 26.6874 54.9793 26.2499 54.4446 26.2499Z" fill="black"/>
<path d="M41.1343 28.7659L53.7841 12.2463L56.0999 14.0196L43.4501 30.5392L41.1343 28.7659Z" fill="black"/>
<path d="M18.4721 54.4444H13.1248C12.3198 54.4444 11.6665 53.7911 11.6665 52.9861V36.4583C11.6665 35.6533 12.3198 35 13.1248 35C19.9421 35 23.1154 37.3664 23.2457 37.4675C23.7162 37.8272 23.9243 38.4358 23.7687 39.0075L19.8798 53.3692C19.7087 54.0031 19.1312 54.4444 18.4721 54.4444ZM14.5832 51.5278H17.3559L20.6576 39.3342C19.6407 38.8539 17.6534 38.1383 14.5832 37.9594V51.5278Z" fill="black"/>
<path d="M36.9442 58.3333C32.5478 58.3333 24.4531 54.9694 18.4351 52.146L19.6737 49.5074C27.6828 53.2641 33.9789 55.4166 36.9442 55.4166C40.8876 55.4166 49.8398 51.1583 54.5317 48.7005C53.9912 48.3913 53.1862 48.1249 52.0137 48.1249C50.3065 48.1249 48.1948 48.8269 46.1551 49.5094C43.8937 50.2638 41.5564 51.0416 39.3748 51.0416C35.2778 51.0416 29.8684 49.0913 29.6409 49.0096L30.6364 46.268C30.687 46.2874 35.7931 48.1249 39.3748 48.1249C41.082 48.1249 43.1937 47.423 45.2334 46.7405C47.4948 45.986 49.832 45.2083 52.0137 45.2083C56.834 45.2083 58.1737 48.4185 58.2281 48.5566C58.5023 49.241 58.2223 50.0188 57.5787 50.3746C56.9915 50.6994 43.0828 58.3333 36.9442 58.3333Z" fill="black"/>
<path d="M45.588 48.9458H42.6714V48.0708C42.6714 46.9217 41.8528 45.9203 40.7269 45.6869L22 41.8564L22.5853 39L41.3122 42.8306C43.7894 43.3381 45.588 45.5411 45.588 48.0689V48.9458Z" fill="black"/>
</svg>
