<svg width="19" height="19" viewBox="0 0 19 19" fill="none" xmlns="http://www.w3.org/2000/svg">
<path d="M9.50024 0.220001C7.03864 0.220001 4.67899 1.19762 2.93783 2.93762C1.19783 4.67875 0.220215 7.03851 0.220215 9.50003C0.220215 11.9615 1.19783 14.3213 2.93783 16.0624C4.67897 17.8024 7.03872 18.7801 9.50024 18.7801C11.9618 18.7801 14.3215 17.8024 16.0627 16.0624C17.8027 14.3213 18.7803 11.9615 18.7803 9.50003C18.7803 7.03851 17.8027 4.67878 16.0627 2.93762C14.3215 1.19762 11.9618 0.220001 9.50024 0.220001ZM9.50024 16.46C7.65489 16.46 5.88423 15.7271 4.57923 14.421C3.2731 13.116 2.54019 11.3455 2.54019 9.49994C2.54019 7.65438 3.2731 5.88393 4.57923 4.57893C5.88423 3.2728 7.65468 2.53988 9.50024 2.53988C11.3458 2.53988 13.1163 3.2728 14.4213 4.57893C15.7274 5.88393 16.4603 7.65438 16.4603 9.49994C16.4603 11.3455 15.7274 13.116 14.4213 14.421C13.1163 15.7271 11.3458 16.46 9.50024 16.46Z" fill="#1A75E2"/>
<path d="M8.34033 8.92H10.6603V14.14H8.34033V8.92Z" fill="#1A75E2"/>
<path d="M10.6603 6.02C10.6603 7.56628 8.34033 7.56628 8.34033 6.02C8.34033 4.47372 10.6603 4.47372 10.6603 6.02Z" fill="#1A75E2"/>
</svg>
