<svg width="29" height="29" viewBox="0 0 29 29" fill="none" xmlns="http://www.w3.org/2000/svg">
<path d="M14.28 5C11.8184 5 9.45878 5.97762 7.71762 7.71762C5.97762 9.45875 5 11.8185 5 14.28C5 16.7415 5.97762 19.1013 7.71762 20.8424C9.45875 22.5824 11.8185 23.5601 14.28 23.5601C16.7415 23.5601 19.1013 22.5824 20.8424 20.8424C22.5824 19.1013 23.5601 16.7415 23.5601 14.28C23.5601 11.8185 22.5824 9.45878 20.8424 7.71762C19.1013 5.97762 16.7415 5 14.28 5ZM14.28 21.24C12.4347 21.24 10.664 20.5071 9.35902 19.201C8.05289 17.896 7.31997 16.1255 7.31997 14.2799C7.31997 12.4344 8.05289 10.6639 9.35902 9.35893C10.664 8.0528 12.4345 7.31988 14.28 7.31988C16.1256 7.31988 17.896 8.0528 19.201 9.35893C20.5072 10.6639 21.2401 12.4344 21.2401 14.2799C21.2401 16.1255 20.5072 17.896 19.201 19.201C17.896 20.5071 16.1256 21.24 14.28 21.24Z" fill="#FF7F2E"/>
<path d="M13.1201 13.7002H15.4401V18.9202H13.1201V13.7002Z" fill="#FF7F2E"/>
<path d="M15.4401 10.7998C15.4401 12.3461 13.1201 12.3461 13.1201 10.7998C13.1201 9.25357 15.4401 9.25357 15.4401 10.7998Z" fill="#FF7F2E"/>
</svg>
