<svg width="35" height="35" viewBox="0 0 35 35" fill="none" xmlns="http://www.w3.org/2000/svg">
<g id="icons8-facebook 1">
<path id="Vector" d="M17.4998 2.91666C9.44546 2.91666 2.9165 9.44562 2.9165 17.5C2.9165 25.5544 9.44546 32.0833 17.4998 32.0833C25.5542 32.0833 32.0832 25.5544 32.0832 17.5C32.0832 9.44562 25.5542 2.91666 17.4998 2.91666Z" fill="url(#paint0_linear_1175_2549)"/>
<path id="Vector_2" d="M19.4739 21.3653H23.2481L23.8409 17.5313H19.4739V15.4357C19.4739 13.8432 19.9945 12.4308 21.4842 12.4308H23.8781V9.0854C23.4573 9.02853 22.5677 8.90457 20.887 8.90457C17.3768 8.90457 15.3191 10.7581 15.3191 14.9814V17.5321H11.7104V21.366H15.3184V31.9039C16.0329 32.0104 16.757 32.0833 17.5 32.0833C18.1716 32.0833 18.8271 32.0221 19.4739 31.9346V21.3653Z" fill="white"/>
</g>
<defs>
<linearGradient id="paint0_linear_1175_2549" x1="7.2864" y1="7.28655" x2="29.6149" y2="29.6151" gradientUnits="userSpaceOnUse">
<stop stop-color="#2AA4F4"/>
<stop offset="1" stop-color="#007AD9"/>
</linearGradient>
</defs>
</svg>
