<svg width="70" height="70" viewBox="0 0 70 70" fill="none" xmlns="http://www.w3.org/2000/svg">
<path d="M6.69278 46.4392C18.4781 52.92 23.2147 63.4745 28.8925 66.5972C34.5722 69.72 48.2942 73.012 62.6597 46.8864C77.0253 20.7608 63.0895 8.10445 56.8419 4.66862C27.5936 -11.4119 -14.1789 34.9631 6.69278 46.4392Z" fill="#EFEFEF"/>
<path d="M13.2648 16.9652C11.6568 16.9652 10.3481 15.6566 10.3481 14.0485C10.3481 12.4404 11.6568 11.1318 13.2648 11.1318C14.8729 11.1318 16.1815 12.4404 16.1815 14.0485C16.1815 15.6566 14.8729 16.9652 13.2648 16.9652ZM13.2648 13.0763C12.7281 13.0763 12.2926 13.5118 12.2926 14.0485C12.2926 14.5852 12.7281 15.0207 13.2648 15.0207C13.8015 15.0207 14.237 14.5852 14.237 14.0485C14.237 13.5118 13.8015 13.0763 13.2648 13.0763Z" fill="#A4AFC1"/>
<path d="M51.2202 57.1841H55.1091V59.1285H51.2202V57.1841Z" fill="#A4AFC1"/>
<path d="M62.4009 57.1841H66.2898V59.1285H62.4009V57.1841Z" fill="#A4AFC1"/>
<path d="M57.54 62.0452H59.4845V65.934H57.54V62.0452Z" fill="#A4AFC1"/>
<path d="M57.54 50.8647H59.4845V54.7536H57.54V50.8647Z" fill="#A4AFC1"/>
<path d="M33.1218 56.9372C44.0884 56.9372 52.9785 48.0471 52.9785 37.0805C52.9785 26.114 44.0884 17.2239 33.1218 17.2239C22.1553 17.2239 13.2651 26.114 13.2651 37.0805C13.2651 48.0471 22.1553 56.9372 33.1218 56.9372Z" fill="#FEB46D"/>
<path d="M17.154 37.0805C17.154 26.7711 25.0135 18.3011 35.0662 17.323C34.4265 17.2608 33.779 17.2239 33.1218 17.2239C22.1551 17.2239 13.2651 26.1139 13.2651 37.0805C13.2651 48.0472 22.1551 56.9372 33.1218 56.9372C33.779 56.9372 34.4265 56.9022 35.0662 56.838C25.0135 55.86 17.154 47.39 17.154 37.0805Z" fill="#FF7F2E"/>
<path d="M46.6668 33.5417C52.3047 33.5417 56.8751 28.9712 56.8751 23.3333C56.8751 17.6954 52.3047 13.125 46.6668 13.125C41.0289 13.125 36.4585 17.6954 36.4585 23.3333C36.4585 28.9712 41.0289 33.5417 46.6668 33.5417Z" fill="#F3F3F1"/>
<path d="M17.7529 24.7334C19.2696 25.6473 20.8835 26.4056 22.5946 27.0084C22.6918 27.0473 22.8085 27.0862 22.9057 27.1056C25.589 28.0584 28.5057 28.6028 31.5585 28.7195L17.7529 24.7334Z" fill="#FEB46D"/>
<path d="M13.0669 37.0805H13.1252L20.6697 36.9833H21.3891L32.9975 36.8666H33.0558L38.0336 36.8472H38.053L13.0669 37.0805Z" fill="#FEB46D"/>
<path d="M40.3474 23.3333C40.3474 18.3614 43.9057 14.2294 48.6113 13.3214C47.9813 13.1989 47.3338 13.125 46.6668 13.125C41.0299 13.125 36.4585 17.6944 36.4585 23.3333C36.4585 28.9703 41.0299 33.5417 46.6668 33.5417C47.3338 33.5417 47.9813 33.4678 48.6113 33.3453C43.9057 32.4372 40.3474 28.3053 40.3474 23.3333Z" fill="#D5DBE1"/>
<path d="M46.6667 35.0001C40.2325 35.0001 35 29.7676 35 23.3334C35 16.8992 40.2325 11.6667 46.6667 11.6667C53.1008 11.6667 58.3333 16.8992 58.3333 23.3334C58.3333 29.7676 53.1008 35.0001 46.6667 35.0001ZM46.6667 14.5834C41.8425 14.5834 37.9167 18.5092 37.9167 23.3334C37.9167 28.1576 41.8425 32.0834 46.6667 32.0834C51.4908 32.0834 55.4167 28.1576 55.4167 23.3334C55.4167 18.5092 51.4908 14.5834 46.6667 14.5834Z" fill="black"/>
<path d="M18.5926 51.0572L17.0234 48.5974C18.5654 47.6155 20.259 46.7658 22.0576 46.0735C25.5362 44.7377 29.2346 44.0377 33.0554 43.993C36.8568 43.9288 40.5901 44.5607 44.0979 45.813C45.9062 46.4605 47.6193 47.2674 49.1884 48.2144L47.6815 50.711C46.2796 49.8633 44.7434 49.1399 43.1159 48.5585C39.9348 47.423 36.5865 46.8455 33.0884 46.9096C29.6157 46.9505 26.2557 47.5863 23.1037 48.7977C21.4859 49.4199 19.9693 50.1802 18.5926 51.0572Z" fill="black"/>
<path d="M31.5021 30.1779C28.3288 30.0573 25.2994 29.4934 22.4935 28.5076C22.3458 28.4707 22.1863 28.4182 22.0502 28.3618C20.3138 27.7532 18.5969 26.9443 17.0005 25.9837L18.5035 23.4851C19.9308 24.3446 21.4688 25.0659 23.0788 25.6337C23.1488 25.6473 23.3238 25.7076 23.3919 25.7329C25.9391 26.6371 28.7041 27.1523 31.613 27.2632L31.5021 30.1779Z" fill="black"/>
<path d="M13.1447 38.5389L13.0669 35.6222L21.3891 35.525L38.0277 35.3889L38.053 38.3056L13.1447 38.5389Z" fill="black"/>
<path d="M31.5972 31.811H34.5138V56.8749H31.5972V31.811Z" fill="black"/>
<path d="M33.0554 58.3333C32.8143 58.3333 32.5518 58.3314 32.3107 58.308C26.3568 58.1525 20.6421 55.3972 16.7337 50.7558C13.5079 46.9486 11.7073 42.0933 11.6665 37.0922C11.6665 25.6141 20.5215 16.2302 31.8246 15.5789L31.9918 18.4897C22.2307 19.0516 14.5832 27.158 14.5832 36.9444C14.6182 41.3894 16.1737 45.5816 18.9621 48.8736C22.3357 52.883 27.2668 55.2591 32.4915 55.3972C32.7443 55.4186 32.9037 55.4166 33.0554 55.4166C33.2012 55.4166 33.3684 55.4186 33.5162 55.405C43.0926 55.1308 50.954 47.4911 51.5101 38.0061L54.4209 38.1772C53.7754 49.1575 44.6734 58.0047 33.6971 58.3139C33.559 58.3314 33.2965 58.3333 33.0554 58.3333Z" fill="black"/>
<path d="M33.0557 58.3334C32.8146 58.3334 32.5521 58.3314 32.3109 58.3081C27.8757 57.9173 23.9071 53.9662 21.7059 47.7362C20.5451 44.487 19.9307 40.7673 19.9307 36.9834C19.9307 33.3084 20.4809 29.7462 21.5232 26.6409C23.5687 20.5295 27.3409 16.4306 31.6168 15.6742C31.7004 15.6606 31.784 15.6528 31.8696 15.6528L31.8793 17.1676L32.1223 18.5481C28.9179 19.1159 25.9876 22.4876 24.2882 27.5684C23.3451 30.3781 22.8473 33.6195 22.8473 36.9445C22.8473 40.4367 23.4034 43.8181 24.4534 46.7581C26.2657 51.8856 29.3029 55.1134 32.5793 55.4031C32.7426 55.4187 32.9021 55.4167 33.0557 55.4167C33.2015 55.4167 33.3687 55.4187 33.5165 55.4051C36.8143 55.1192 39.9546 51.7242 41.7279 46.5442C42.5134 44.2984 43.0034 41.8095 43.1882 39.1378L46.0971 39.3401C45.8948 42.2703 45.3523 45.0139 44.4832 47.4989C42.2996 53.8709 38.2998 57.9153 33.7829 58.3101C33.5593 58.3314 33.2968 58.3334 33.0557 58.3334Z" fill="black"/>
<path d="M45.2085 26.7361H48.1252V31.1111H45.2085V26.7361Z" fill="black"/>
<path d="M45.2085 15.5557H48.1252V19.9307H45.2085V15.5557Z" fill="black"/>
<path d="M46.9098 29.1667H42.7778V26.25H46.9098C47.3123 26.25 47.6389 25.9233 47.6389 25.5208C47.6389 25.1183 47.3123 24.7917 46.9098 24.7917H46.4237C44.4131 24.7917 42.7778 23.1564 42.7778 21.1458C42.7778 19.1353 44.4131 17.5 46.4237 17.5H50.5556V20.4167H46.4237C46.0212 20.4167 45.6945 20.7433 45.6945 21.1458C45.6945 21.5483 46.0212 21.875 46.4237 21.875H46.9098C48.9203 21.875 50.5556 23.5103 50.5556 25.5208C50.5556 27.5314 48.9203 29.1667 46.9098 29.1667Z" fill="black"/>
</svg>
