<svg width="35" height="35" viewBox="0 0 35 35" fill="none" xmlns="http://www.w3.org/2000/svg">
<path d="M31.7995 14.6438H30.6248V14.5833H17.4998V20.4167H25.7416C24.5392 23.8124 21.3083 26.25 17.4998 26.25C12.6677 26.25 8.74984 22.3322 8.74984 17.5C8.74984 12.6678 12.6677 8.74999 17.4998 8.74999C19.7304 8.74999 21.7596 9.59145 23.3047 10.9659L27.4296 6.84103C24.825 4.41364 21.3411 2.91666 17.4998 2.91666C9.44619 2.91666 2.9165 9.44634 2.9165 17.5C2.9165 25.5536 9.44619 32.0833 17.4998 32.0833C25.5535 32.0833 32.0832 25.5536 32.0832 17.5C32.0832 16.5222 31.9825 15.5677 31.7995 14.6438Z" fill="#FBC02D"/>
<path d="M4.59814 10.7122L9.3895 14.226C10.686 11.0162 13.8257 8.74999 17.5 8.74999C19.7305 8.74999 21.7598 9.59145 23.3049 10.9659L27.4298 6.84103C24.8252 4.41364 21.3413 2.91666 17.5 2.91666C11.8986 2.91666 7.04085 6.07905 4.59814 10.7122Z" fill="#E53935"/>
<path d="M17.4999 32.0833C21.2668 32.0833 24.6895 30.6418 27.2773 28.2975L22.7638 24.4781C21.2996 25.5872 19.4796 26.25 17.4999 26.25C13.7068 26.25 10.486 23.8314 9.27271 20.4561L4.51709 24.1201C6.93063 28.8429 11.8321 32.0833 17.4999 32.0833Z" fill="#4CAF50"/>
<path d="M31.7997 14.6439L31.788 14.5833H30.625H17.5V20.4167H25.7418C25.1643 22.0478 24.115 23.4544 22.7617 24.4789C22.7624 24.4781 22.7631 24.4781 22.7639 24.4774L27.2774 28.2968C26.958 28.587 32.0833 24.7917 32.0833 17.5C32.0833 16.5222 31.9827 15.5677 31.7997 14.6439Z" fill="#1565C0"/>
</svg>
