<svg width="15" height="19" viewBox="0 0 15 19" fill="none" xmlns="http://www.w3.org/2000/svg">
<path d="M12.9557 7.74041H12.4373L12.4348 5.15489C12.4323 2.33879 10.1412 0.0476948 7.32593 0.0500048C4.50983 0.0524658 2.21873 2.34362 2.22041 5.15888L2.22451 7.74377L2.03994 7.7446C1.07196 7.74706 0.286102 8.53209 0.28858 9.50007V17.1961C0.28858 18.1641 1.07608 18.95 2.04405 18.95L12.9599 18.9434C13.9278 18.9434 14.7137 18.1584 14.7112 17.1896V9.49183C14.7112 8.52385 13.9237 7.74047 12.9557 7.74047L12.9557 7.74041ZM4.10611 7.74452L4.102 5.15963C4.102 3.38118 5.54657 1.93424 7.32592 1.93172C9.10437 1.93172 10.5513 3.37874 10.5513 5.15564L10.5554 7.74053L4.10611 7.74452Z" fill="#18B786"/>
</svg>
