<svg width="29" height="33" viewBox="0 0 29 33" fill="none" xmlns="http://www.w3.org/2000/svg">
<path d="M28.169 24.325C27.4143 26.0012 27.0506 26.7504 26.0799 28.2297C24.7209 30.2969 22.8041 32.8781 20.4361 32.8945C18.3279 32.9137 17.7838 31.5191 14.9209 31.5438C12.0608 31.5574 11.4647 32.9219 9.35372 32.9C6.98302 32.8781 5.17013 30.5539 3.81114 28.4895C0.0103621 22.7008 -0.391591 15.9141 1.95724 12.3047C3.61974 9.74532 6.24747 8.24142 8.71661 8.24142C11.2322 8.24142 12.8127 9.62228 14.8908 9.62228C16.9088 9.62228 18.1365 8.23868 21.0459 8.23868C23.2443 8.23868 25.5686 9.43634 27.2311 11.5035C21.7951 14.484 22.6783 22.2469 28.169 24.325ZM18.8365 5.92814C19.8947 4.56915 20.6986 2.65236 20.4061 0.700012C18.6807 0.81759 16.6627 1.91954 15.4842 3.34689C14.4151 4.64845 13.5291 6.57892 13.8736 8.4465C15.7576 8.50665 17.7072 7.38282 18.8365 5.92814Z" fill="black"/>
</svg>
