<svg width="70" height="70" viewBox="0 0 70 70" fill="none" xmlns="http://www.w3.org/2000/svg">
<path d="M16.2884 8.10244C29.7381 8.10244 38.9742 1.1355 45.4551 1.1355C51.9359 1.1355 65.547 4.86105 65.547 34.6752C65.547 64.4894 47.2362 68.8644 40.1078 68.8644C6.72756 68.8663 -7.53106 8.10244 16.2884 8.10244Z" fill="#EFEFEF"/>
<path d="M55.372 43.4642L52.5195 48.4089C51.4734 50.2347 49.1342 50.8433 47.3259 49.7972L44.4345 48.1231C43.5789 48.7511 42.6456 49.2839 41.6578 49.7214V53.0697C41.6578 55.1619 39.9467 56.875 37.8525 56.875H32.1456C30.0534 56.875 28.3403 55.1639 28.3403 53.0697V49.7214C27.3506 49.2839 26.4192 48.7511 25.5637 48.1231L22.6723 49.7972C20.8659 50.8433 18.5248 50.2347 17.4787 48.4089L14.6262 43.4642C13.58 41.6383 14.2081 39.3167 16.0145 38.2706L18.9059 36.5964C18.8495 36.0636 18.8495 33.9325 18.9059 33.3997L16.0145 31.7256C14.2081 30.6794 13.58 28.3578 14.6262 26.5319L17.4787 21.5872C18.5248 19.7614 20.8639 19.1528 22.6723 20.1989L25.5637 21.8731C26.4192 21.245 27.3525 20.7122 28.3403 20.2747V16.9303C28.3403 14.8381 30.0514 13.125 32.1456 13.125H37.8525C39.9448 13.125 41.6578 14.8361 41.6578 16.9303V20.2786C42.6475 20.7161 43.5789 21.2489 44.4345 21.8769L47.3259 20.2028C49.1323 19.1567 51.4734 19.7653 52.5195 21.5911L55.372 26.5358C56.4181 28.3617 55.79 30.6833 53.9837 31.7294L51.0923 33.4036C51.1487 33.9364 51.1681 34.4692 51.1681 35.0019C51.1681 35.5347 51.1487 36.0675 51.0923 36.6003L53.9837 38.2744C55.79 39.3186 56.4181 41.6383 55.372 43.4642Z" fill="white"/>
<path d="M29.9408 21.875C30.7963 21.2469 31.7297 20.7142 32.7174 20.2767V16.9283C32.7174 14.8361 34.4286 13.125 36.5208 13.125H32.1458C30.0536 13.125 28.3424 14.8361 28.3424 16.9283V20.2767C28.1286 20.37 27.9302 20.4867 27.7222 20.5897L29.9408 21.875Z" fill="#D5DBE1"/>
<path d="M21.8556 48.4107L19.0031 43.466C17.957 41.6402 18.585 39.3185 20.3914 38.2724L23.2828 36.5982C23.2264 36.0654 23.2264 33.9343 23.2828 33.4016L20.3914 31.7274C18.585 30.6813 17.957 28.3596 19.0031 26.5338L21.8556 21.5891C22.1434 21.0874 22.5342 20.6868 22.9795 20.3777L22.6723 20.2007C20.8659 19.1546 18.5248 19.7632 17.4787 21.5891L14.6262 26.5338C13.58 28.3596 14.2081 30.6813 16.0145 31.7274L18.9059 33.4016C18.8495 33.9343 18.8495 36.0654 18.9059 36.5982L16.0145 38.2724C14.2081 39.3185 13.58 41.6402 14.6262 43.466L17.4787 48.4107C18.5248 50.2366 20.8639 50.8452 22.6723 49.7991L22.9795 49.6221C22.5342 49.3129 22.1434 48.9124 21.8556 48.4107Z" fill="#D5DBE1"/>
<path d="M32.7174 53.0697V49.7214C31.7277 49.2839 30.7963 48.7511 29.9408 48.123L27.7222 49.4064C27.9302 49.5094 28.1286 49.6261 28.3424 49.7194V53.0678C28.3424 55.16 30.0536 56.873 32.1458 56.873H36.5208C34.4305 56.875 32.7174 55.1639 32.7174 53.0697Z" fill="#D5DBE1"/>
<path d="M34.9998 45.2084C40.6377 45.2084 45.2082 40.638 45.2082 35.0001C45.2082 29.3622 40.6377 24.7917 34.9998 24.7917C29.3619 24.7917 24.7915 29.3622 24.7915 35.0001C24.7915 40.638 29.3619 45.2084 34.9998 45.2084Z" fill="#FEB46D"/>
<path d="M29.1665 35.0001C29.1665 30.1156 32.6023 26.042 37.1873 25.0387C36.4815 24.8851 35.7523 24.7917 34.9998 24.7917C29.3629 24.7917 24.7915 29.3612 24.7915 35.0001C24.7915 40.637 29.3629 45.2084 34.9998 45.2084C35.7523 45.2084 36.4815 45.1151 37.1873 44.9595C32.6023 43.9581 29.1665 39.8845 29.1665 35.0001Z" fill="#FF7F2E"/>
<path d="M57.7627 11.2014L60.5126 8.45156L61.8875 9.82649L59.1376 12.5763L57.7627 11.2014Z" fill="#A4AFC1"/>
<path d="M49.8584 9.48022L51.2333 8.10529L53.9832 10.8552L52.6083 12.2301L49.8584 9.48022Z" fill="#A4AFC1"/>
<path d="M57.771 17.4058L59.1459 16.0308L61.8958 18.7807L60.5209 20.1556L57.771 17.4058Z" fill="#A4AFC1"/>
<path d="M37.8524 58.3334H32.1455C29.2444 58.3334 26.8819 55.9709 26.8819 53.0698V50.6431C26.4035 50.3981 25.9427 50.1317 25.4974 49.8479L23.4033 51.0612C22.1822 51.767 20.7549 51.9517 19.3958 51.5862C18.0385 51.2206 16.9088 50.3515 16.2127 49.1362L13.3622 44.1934C11.9194 41.6773 12.7827 38.4573 15.2813 37.0106L17.4144 35.7779C17.4047 35.2859 17.4047 34.7142 17.4144 34.2223L15.2852 32.9915C12.7866 31.5448 11.9233 28.3248 13.3641 25.8106L16.2185 20.8601C16.9127 19.6487 18.0424 18.7795 19.4016 18.414C20.7666 18.0465 22.1899 18.2331 23.4072 18.939L25.5013 20.1523C25.9446 19.8684 26.4074 19.604 26.8858 19.359V16.9284C26.8838 14.0273 29.2463 11.6667 32.1474 11.6667H37.8544C40.7555 11.6667 43.116 14.0273 43.116 16.9284V19.357C43.5944 19.602 44.0571 19.8684 44.5005 20.1523L46.5966 18.937C47.8138 18.2312 49.2313 18.0445 50.6002 18.412C51.9555 18.7776 53.0871 19.6467 53.7852 20.862L56.6377 25.8048C58.0785 28.3209 57.2172 31.5409 54.7185 32.9895L52.6146 34.2048C52.6263 34.4712 52.6302 34.7337 52.6302 34.9981C52.6302 35.2626 52.6263 35.5251 52.6146 35.7895L54.7185 37.0067C57.2172 38.4554 58.0805 41.6754 56.6396 44.1856C56.6396 44.1876 56.6396 44.1876 56.6377 44.1895L53.7833 49.1362C53.091 50.3476 51.9594 51.2167 50.6021 51.5842C49.2391 51.9479 47.8177 51.7651 46.5966 51.0573L44.5005 49.844C44.0552 50.1279 43.5944 50.3942 43.116 50.6392V53.0659C43.116 55.9709 40.7555 58.3334 37.8524 58.3334ZM25.5655 46.6667C25.8688 46.6667 26.1721 46.762 26.4269 46.9506C27.1871 47.5067 28.0272 47.9909 28.9294 48.3876C29.4563 48.6209 29.7985 49.1459 29.7985 49.7234V53.0717C29.7985 54.3667 30.8505 55.4187 32.1455 55.4187H37.8524C39.1455 55.4187 40.1974 54.3667 40.1974 53.0717V49.7234C40.1974 49.1459 40.5397 48.6229 41.0666 48.3876C41.9669 47.9909 42.8088 47.5067 43.571 46.9487C44.0377 46.6084 44.6599 46.5754 45.1635 46.8631L48.0549 48.5354C48.5974 48.8504 49.2294 48.9359 49.8399 48.7687C50.4427 48.6073 50.9405 48.2223 51.2516 47.6837L54.106 42.737C54.7477 41.6151 54.3666 40.1781 53.2524 39.5345L50.361 37.8604C49.8613 37.5706 49.5813 37.0145 49.6416 36.4429C49.6922 35.9626 49.7096 35.4823 49.7096 35.002C49.7096 34.5198 49.6922 34.0395 49.6416 33.5592C49.5813 32.9856 49.8633 32.4295 50.361 32.1417L53.2524 30.4695C54.3666 29.8259 54.7496 28.387 54.106 27.2651L51.2535 22.3223C50.9424 21.7817 50.4408 21.3948 49.838 21.2334C49.2352 21.072 48.5955 21.1517 48.0549 21.4667L45.1655 23.139C44.6619 23.4248 44.0377 23.3956 43.573 23.0515C42.8185 22.4992 41.9747 22.0131 41.0666 21.6106C40.5397 21.3773 40.1994 20.8542 40.1994 20.2767V16.9284C40.1994 15.6354 39.1474 14.5834 37.8544 14.5834H32.1474C30.8524 14.5834 29.8005 15.6354 29.8005 16.9284V20.2767C29.8005 20.8542 29.4602 21.3754 28.9333 21.6106C28.0233 22.0151 27.1813 22.4992 26.4308 23.0515C25.9622 23.3976 25.338 23.4267 24.8363 23.139L21.9449 21.4648C21.4044 21.1517 20.7666 21.0681 20.1599 21.2315C19.5552 21.3929 19.0555 21.7779 18.7463 22.3165L15.8919 27.267C15.2522 28.3851 15.6333 29.824 16.7474 30.4676L19.6388 32.1398C20.1366 32.4276 20.4185 32.9856 20.3583 33.5573C20.3116 33.989 20.3116 36.0112 20.3583 36.4409C20.4185 37.0145 20.1385 37.5687 19.6388 37.8584L16.7474 39.5326C15.6333 40.1762 15.2483 41.6131 15.8938 42.7351L18.7444 47.6779C19.0535 48.2184 19.5552 48.6054 20.158 48.7667C20.7705 48.9281 21.4024 48.8465 21.9449 48.5334L24.8363 46.8612C25.0619 46.7329 25.3146 46.6667 25.5655 46.6667Z" fill="black"/>
<path d="M35.0002 46.6666C28.566 46.6666 23.3335 41.4341 23.3335 34.9999C23.3335 28.5658 28.566 23.3333 35.0002 23.3333C41.4343 23.3333 46.6668 28.5658 46.6668 34.9999C46.6668 41.4341 41.4324 46.6666 35.0002 46.6666ZM35.0002 26.2499C30.176 26.2499 26.2502 30.1758 26.2502 34.9999C26.2502 39.8241 30.176 43.7499 35.0002 43.7499C39.8243 43.7499 43.7502 39.8241 43.7502 34.9999C43.7502 30.1758 39.8243 26.2499 35.0002 26.2499Z" fill="black"/>
<path d="M37.3701 39.4353L33.9673 36.0326C33.6951 35.7584 33.5415 35.3889 33.5415 35.0001V29.6528H36.4582V34.3953L39.4332 37.3703L37.3701 39.4353Z" fill="black"/>
</svg>
