<svg width="28" height="18" viewBox="0 0 28 18" fill="none" xmlns="http://www.w3.org/2000/svg">
<path d="M19.6252 9.00007C19.6252 10.4919 19.0322 11.9227 17.9775 12.9775C16.9229 14.0322 15.492 14.6251 14.0001 14.6251C12.5083 14.6251 11.0775 14.0322 10.0227 12.9775C8.96805 11.9228 8.37507 10.4919 8.37507 9.00007C8.37507 7.50823 8.96805 6.07741 10.0227 5.02267C11.0774 3.96799 12.5083 3.37501 14.0001 3.37501C15.492 3.37501 16.9228 3.96799 17.9775 5.02267C19.0322 6.07735 19.6252 7.50823 19.6252 9.00007ZM27.397 9.00007L26.9188 9.59071C22.6814 14.7939 18.3407 17.4375 14.0003 17.4375C9.65985 17.4375 5.31885 14.7938 1.08166 9.59071L0.603516 9.00007L1.08166 8.40943C9.51915 -2.00627 18.4535 -2.00627 26.9191 8.40943L27.397 9.00007ZM21.5002 9.00007C21.5002 7.0114 20.7104 5.10367 19.3029 3.69727C17.8967 2.28985 15.9888 1.50001 14.0001 1.50001C12.0114 1.50001 10.1037 2.28985 8.69733 3.69727C7.28991 5.10352 6.50007 7.01137 6.50007 9.00007C6.50007 10.9888 7.28991 12.8965 8.69733 14.3029C10.1036 15.7103 12.0114 16.5001 14.0001 16.5001C15.9888 16.5001 17.8965 15.7103 19.3029 14.3029C20.7104 12.8966 21.5002 10.9888 21.5002 9.00007Z" fill="#DCDCDC"/>
</svg>
