<svg width="50" height="50" viewBox="0 0 50 50" fill="none" xmlns="http://www.w3.org/2000/svg">
<path d="M11.6348 5.78742C21.2417 5.78742 27.839 0.811035 32.4681 0.811035C37.0973 0.811035 46.8195 3.47215 46.8195 24.768C46.8195 46.0638 33.7403 49.1888 28.6487 49.1888C4.80561 49.1902 -5.37912 5.78742 11.6348 5.78742Z" fill="#EFEFEF"/>
<path d="M37.3652 5.02295L38.3473 4.04086L40.3115 6.00504L39.3294 6.98713L37.3652 5.02295Z" fill="#A4AFC1"/>
<path d="M43.0117 10.6702L43.9938 9.68808L45.958 11.6523L44.9759 12.6343L43.0117 10.6702Z" fill="#A4AFC1"/>
<path d="M42.7661 6.00537L44.7303 4.04119L45.7124 5.02328L43.7482 6.98746L42.7661 6.00537Z" fill="#A4AFC1"/>
<path d="M29.5139 35.0696H9.375V30.2084C9.375 27.907 11.2403 26.0417 13.5417 26.0417H25.3472C27.6486 26.0417 29.5139 27.907 29.5139 30.2084V35.0696Z" fill="#F3F3F1"/>
<path d="M19.4447 21.1806C22.3212 21.1806 24.653 18.8487 24.653 15.9723C24.653 13.0958 22.3212 10.7639 19.4447 10.7639C16.5682 10.7639 14.2363 13.0958 14.2363 15.9723C14.2363 18.8487 16.5682 21.1806 19.4447 21.1806Z" fill="#F3F3F1"/>
<path d="M24.6389 15.6945C22.2778 16.0556 20.8333 13.5417 20.8333 13.5417C18.3889 15.8195 15.2917 15.7639 14.25 15.6667C14.4028 12.9306 16.6667 10.7639 19.4444 10.7639C22.2222 10.7639 24.5 12.9445 24.6389 15.6945Z" fill="#FEB46D"/>
<path d="M32.6389 40.6251C37.0496 40.6251 40.6251 37.0496 40.6251 32.6389C40.6251 28.2283 37.0496 24.6528 32.6389 24.6528C28.2283 24.6528 24.6528 28.2283 24.6528 32.6389C24.6528 37.0496 28.2283 40.6251 32.6389 40.6251Z" fill="#FEB46D"/>
<path d="M27.7778 32.6389C27.7778 28.7639 30.5389 25.5348 34.2014 24.8084C33.6959 24.7084 33.1737 24.6528 32.6389 24.6528C28.2278 24.6528 24.6528 28.2278 24.6528 32.6389C24.6528 37.0501 28.2278 40.6251 32.6389 40.6251C33.1737 40.6251 33.6959 40.5709 34.2014 40.4695C30.5389 39.7431 27.7778 36.5139 27.7778 32.6389Z" fill="#FF7F2E"/>
<path d="M16.6667 26.0417H13.5417C11.2403 26.0417 9.375 27.907 9.375 30.2084V35.0696H12.5V30.2084C12.5 27.907 14.3653 26.0417 16.6667 26.0417Z" fill="#D5DBE1"/>
<path d="M17.3613 15.9723C17.3613 13.6445 18.8988 11.6959 21.0071 11.0292C20.5113 10.8722 19.9933 10.7639 19.4447 10.7639C16.5683 10.7639 14.2363 13.0959 14.2363 15.9723C14.2363 18.8486 16.5683 21.1806 19.4447 21.1806C19.9933 21.1806 20.5113 21.0723 21.0071 20.9153C18.8988 20.2486 17.3613 18.3 17.3613 15.9723Z" fill="#D5DBE1"/>
<path d="M21.0042 11.0264C20.5097 10.8695 19.9917 10.7639 19.4444 10.7639C16.6667 10.7639 14.4028 12.9306 14.25 15.6667C14.8264 15.7209 16.0403 15.7459 17.418 15.3847C17.6486 13.3181 19.0778 11.6361 21.0042 11.0264Z" fill="#FF7F2E"/>
<path d="M24.1639 16.7723C22.5514 16.7723 21.357 15.8084 20.6542 15.0292C18.0334 16.8876 15.0681 16.789 14.1528 16.7042L14.3473 14.6306C15.1542 14.707 17.9612 14.7973 20.1237 12.7806C20.3556 12.564 20.6723 12.4653 20.9889 12.5126C21.3028 12.5598 21.5778 12.7473 21.7376 13.0237C21.7459 13.0376 22.8653 14.9001 24.4834 14.6653L24.7987 16.7237C24.5792 16.757 24.3681 16.7723 24.1639 16.7723Z" fill="black"/>
<path d="M19.4443 22.2222C15.9985 22.2222 13.1943 19.418 13.1943 15.9722C13.1943 12.5263 15.9985 9.72217 19.4443 9.72217C22.8902 9.72217 25.6943 12.5263 25.6943 15.9722C25.6943 19.418 22.8902 22.2222 19.4443 22.2222ZM19.4443 11.8055C17.1471 11.8055 15.2777 13.6749 15.2777 15.9722C15.2777 18.2694 17.1471 20.1388 19.4443 20.1388C21.7416 20.1388 23.611 18.2694 23.611 15.9722C23.611 13.6749 21.7416 11.8055 19.4443 11.8055Z" fill="black"/>
<path d="M32.6391 41.6666C27.6613 41.6666 23.6113 37.6166 23.6113 32.6389C23.6113 27.6611 27.6613 23.6111 32.6391 23.6111C37.6169 23.6111 41.6669 27.6611 41.6669 32.6389C41.6669 37.6166 37.6169 41.6666 32.6391 41.6666ZM32.6391 25.6944C28.8099 25.6944 25.6947 28.8097 25.6947 32.6389C25.6947 36.468 28.8099 39.5833 32.6391 39.5833C36.4683 39.5833 39.5835 36.468 39.5835 32.6389C39.5835 28.8097 36.4683 25.6944 32.6391 25.6944Z" fill="black"/>
<path d="M31.2502 36.1112C30.9738 36.1112 30.7086 36.0015 30.5141 35.8057L27.7363 33.0279L29.2099 31.5543L31.2002 33.5445L35.328 28.8279L36.8961 30.1987L32.0349 35.7543C31.8447 35.9709 31.5738 36.1001 31.2849 36.1098C31.2738 36.1112 31.2613 36.1112 31.2502 36.1112Z" fill="black"/>
<path d="M20.8335 36.1111H9.37516C8.80016 36.1111 8.3335 35.6445 8.3335 35.0695V30.2083C8.3335 27.3361 10.6696 25 13.5418 25H22.2502V27.0833H13.5418C11.8182 27.0833 10.4168 28.4847 10.4168 30.2083V34.0278H20.8335V36.1111Z" fill="black"/>
</svg>
