<svg width="35" height="35" viewBox="0 0 35 35" fill="none" xmlns="http://www.w3.org/2000/svg">
<path d="M33.6185 8.03541C32.4875 8.53634 31.2713 8.8703 29.9879 9.02853C31.2924 8.25416 32.2965 7.01895 32.7675 5.55916C31.5469 6.27447 30.1943 6.8002 28.7556 7.07728C27.6065 5.85957 25.9673 5.10416 24.1517 5.10416C20.6641 5.10416 17.8364 7.90634 17.8364 11.3619C17.8364 11.8511 17.894 12.3273 18.0012 12.7896C12.7541 12.5263 8.0998 10.0319 4.98626 6.24603C4.43939 7.17134 4.13168 8.25416 4.13168 9.39749C4.13168 11.5697 5.24366 13.4823 6.9397 14.6088C5.90428 14.5775 4.93012 14.2895 4.07699 13.8272C4.07699 13.8461 4.07699 13.8738 4.07699 13.9008C4.07699 16.9363 6.25428 19.4644 9.14033 20.0397C8.61314 20.1841 8.05533 20.2643 7.48074 20.2643C7.07314 20.2643 6.67574 20.2183 6.29074 20.1491C7.09428 22.6297 9.42543 24.4431 12.1875 24.4971C10.0263 26.1727 7.30428 27.176 4.3446 27.176C3.83345 27.176 3.33324 27.1469 2.83887 27.0871C5.63668 28.8582 8.95658 29.8958 12.5207 29.8958C24.1342 29.8958 30.4881 20.3591 30.4881 12.0852C30.4881 11.8139 30.4794 11.5442 30.467 11.2773C31.7066 10.4016 32.7748 9.29759 33.6185 8.03541Z" fill="url(#paint0_linear_1175_2554)"/>
<defs>
<linearGradient id="paint0_linear_1175_2554" x1="7.54053" y1="6.06082" x2="29.7488" y2="28.2691" gradientUnits="userSpaceOnUse">
<stop stop-color="#2AA4F4"/>
<stop offset="1" stop-color="#007AD9"/>
</linearGradient>
</defs>
</svg>
