<svg width="29" height="29" viewBox="0 0 29 29" fill="none" xmlns="http://www.w3.org/2000/svg">
<g clip-path="url(#clip0_1175_2543)">
<path fill-rule="evenodd" clip-rule="evenodd" d="M10.0533 0H18.9467C27.0667 0 29 1.93333 29 10.0533V18.9467C29 27.0667 27.0667 29 18.9467 29H10.0533C1.93333 29 0 27.0667 0 18.9467V10.0533C0 1.93333 1.93333 0 10.0533 0Z" fill="#2787F5"/>
<path fill-rule="evenodd" clip-rule="evenodd" d="M23.7491 9.99082C23.8834 9.54277 23.7491 9.21353 23.1096 9.21353H20.995C20.4574 9.21353 20.2095 9.49794 20.0751 9.81157C20.0751 9.81157 18.9997 12.4327 17.4764 14.1353C16.9835 14.6281 16.7595 14.7849 16.4906 14.7849C16.3562 14.7849 16.1617 14.6281 16.1617 14.1801V9.99083C16.1617 9.45316 16.0056 9.21353 15.5575 9.21353H12.2346C11.8986 9.21353 11.6965 9.46308 11.6965 9.69958C11.6965 10.2093 12.4582 10.3268 12.5367 11.7606V14.8746C12.5367 15.5573 12.4134 15.6811 12.1446 15.6811C11.4277 15.6811 9.68396 13.0482 8.64975 10.0356C8.44707 9.45006 8.24379 9.21353 7.70336 9.21353H5.58878C4.98461 9.21353 4.86377 9.49794 4.86377 9.81157C4.86377 10.3716 5.58066 13.1496 8.20173 16.8236C9.9491 19.3326 12.411 20.6927 14.6513 20.6927C15.9954 20.6927 16.1617 20.3906 16.1617 19.8703V17.9739C16.1617 17.3698 16.289 17.2492 16.7147 17.2492C17.0283 17.2492 17.566 17.406 18.8205 18.6158C20.2543 20.0495 20.4906 20.6927 21.2971 20.6927H23.4117C24.0159 20.6927 24.3179 20.3906 24.1437 19.7945C23.953 19.2003 23.2684 18.3383 22.3601 17.3164C21.8672 16.734 21.128 16.1067 20.9039 15.793C20.5903 15.3898 20.6799 15.2106 20.9039 14.8521C20.9039 14.8521 23.4803 11.2229 23.7491 9.99082V9.99082Z" fill="white"/>
</g>
<defs>
<clipPath id="clip0_1175_2543">
<rect width="29" height="29" fill="white"/>
</clipPath>
</defs>
</svg>
