<svg width="70" height="70" viewBox="0 0 70 70" fill="none" xmlns="http://www.w3.org/2000/svg">
<path d="M8.10171 53.7115C8.10171 40.2618 1.13477 31.0257 1.13477 24.5448C1.13477 18.064 4.86032 4.45288 34.6745 4.45288C64.4887 4.45288 68.8637 22.7637 68.8637 29.892C68.8656 63.2723 8.10171 77.5309 8.10171 53.7115Z" fill="#EFEFEF"/>
<path d="M13.125 36.4583V52.986H18.4722L22.3611 38.6244C22.3611 38.6244 19.5261 36.4583 13.125 36.4583Z" fill="#FEB46D"/>
<path d="M52.0148 46.6668C49.4909 46.6668 46.5606 47.8879 43.7509 48.7493V47.9112C43.7509 46.064 42.4481 44.4695 40.6398 44.1001L21.9148 40.2695L19.0176 50.8084C22.7315 52.5584 32.2981 56.8751 36.9454 56.8751C42.7787 56.8751 56.8759 49.0973 56.8759 49.0973C56.8759 49.0973 55.9037 46.6668 52.0148 46.6668Z" fill="#F3F3F1"/>
<path d="M32.5703 23.8194V26.7361L52.987 32.7133V17.9861L32.5703 23.8194Z" fill="#FEB46D"/>
<path d="M13.125 36.4583V52.986H17.5V36.8471C16.2828 36.6196 14.8419 36.4583 13.125 36.4583Z" fill="#FF7F2E"/>
<path d="M48.1248 47.9112V48.7492C50.1042 48.1426 52.1401 47.3648 54.0534 46.9545C53.4798 46.7873 52.8226 46.6667 52.0137 46.6667C50.7789 46.6667 49.4451 46.9604 48.0762 47.3609C48.1014 47.5417 48.1248 47.7245 48.1248 47.9112Z" fill="#D5DBE1"/>
<path d="M23.3926 50.8084L26.0565 41.1173L21.9148 40.2695L19.0176 50.8084C22.7315 52.5584 32.2981 56.8751 36.9454 56.8751C37.5559 56.8751 38.2734 56.774 39.0395 56.6204C34.0404 55.6812 26.5737 52.3076 23.3926 50.8084Z" fill="#D5DBE1"/>
<path d="M36.9453 26.7361V23.8194L52.987 19.2364V17.9861L32.5703 23.8194V26.7361L52.987 32.7133V31.4319L36.9453 26.7361Z" fill="#FF7F2E"/>
<path d="M52.9863 34.1716C52.8502 34.1716 52.7102 34.1522 52.576 34.1133L32.1594 28.1361C31.5391 27.9533 31.1113 27.3836 31.1113 26.7361V23.8194C31.1113 23.168 31.543 22.5964 32.1691 22.4175L52.5858 16.5841C53.0233 16.4616 53.4997 16.5433 53.8633 16.8214C54.2308 17.0975 54.4447 17.5291 54.4447 17.9861V32.7133C54.4447 33.1722 54.2288 33.6058 53.8594 33.8819C53.6047 34.0705 53.2974 34.1716 52.9863 34.1716ZM34.028 25.6433L51.528 30.7669V19.9189L34.028 24.918V25.6433Z" fill="black"/>
<path d="M51.5273 15.5557H54.444V35.0001H51.5273V15.5557Z" fill="black"/>
<path d="M31.1113 21.3889H34.028V29.1667H31.1113V21.3889Z" fill="black"/>
<path d="M39.375 35.0972C36.9639 35.0972 35 33.1333 35 30.7222C35 29.19 35.8069 27.7667 37.1058 27.0122L38.5719 29.5342C38.1617 29.7733 37.9167 30.2167 37.9167 30.7222C37.9167 31.5253 38.5719 32.1805 39.375 32.1805C40.1781 32.1805 40.8333 31.5253 40.8333 30.7222C40.8333 30.5142 40.7925 30.3372 40.7108 30.1797L43.2892 28.8167C43.5944 29.3961 43.75 30.0378 43.75 30.7222C43.75 33.1333 41.7861 35.0972 39.375 35.0972Z" fill="black"/>
<path d="M18.4716 54.4444H13.1243C12.3193 54.4444 11.666 53.7911 11.666 52.9861V36.4583C11.666 35.6533 12.3193 35 13.1243 35C19.9416 35 23.1149 37.3664 23.2452 37.4675C23.7157 37.8272 23.9238 38.4358 23.7682 39.0075L19.8793 53.3692C19.7082 54.0031 19.1307 54.4444 18.4716 54.4444ZM14.5827 51.5278H17.3555L20.6571 39.3342C19.6402 38.8539 17.653 38.1383 14.5827 37.9594V51.5278Z" fill="black"/>
<path d="M36.9445 58.3333C32.2603 58.3333 23.312 54.4444 18.3965 52.1285L17.0762 51.5063L18.3206 48.8696L19.639 49.4899C27.6306 53.2583 33.9384 55.4185 36.9445 55.4185C40.8878 55.4185 49.8401 51.1602 54.532 48.7024C53.9915 48.3933 53.1865 48.1269 52.014 48.1269C50.3067 48.1269 48.1951 48.8288 46.1553 49.5113C43.8939 50.2658 41.5567 51.0435 39.3751 51.0435C35.2781 51.0435 29.8687 49.0933 29.6412 49.0116L28.2703 48.5119L29.2678 45.7722L30.6367 46.2699C30.6873 46.2894 35.7934 48.1269 39.3751 48.1269C41.0823 48.1269 43.194 47.4249 45.2337 46.7424C47.4951 45.988 49.8323 45.2102 52.014 45.2102C56.8342 45.2102 58.1739 48.4205 58.2284 48.5585C58.5026 49.243 58.2226 50.0208 57.5789 50.3766C56.9917 50.6994 43.0831 58.3333 36.9445 58.3333Z" fill="black"/>
<path d="M45.2091 48.7862H42.2925V47.9112C42.2925 46.762 41.4739 45.7606 40.348 45.5273L21.6211 41.6967L22.2064 38.8403L40.9333 42.6709C43.4105 43.1784 45.2091 45.3814 45.2091 47.9092V48.7862Z" fill="black"/>
<path d="M53.9922 6.31934H55.9366V10.2082H53.9922V6.31934Z" fill="#A4AFC1"/>
<path d="M58.3672 12.1526H62.2561V14.097H58.3672V12.1526Z" fill="#A4AFC1"/>
<path d="M11.1803 63.1944C9.57228 63.1944 8.26367 61.8858 8.26367 60.2778C8.26367 58.6697 9.57228 57.3611 11.1803 57.3611C12.7884 57.3611 14.097 58.6697 14.097 60.2778C14.097 61.8858 12.7884 63.1944 11.1803 63.1944ZM11.1803 59.3055C10.6456 59.3055 10.2081 59.743 10.2081 60.2778C10.2081 60.8125 10.6456 61.25 11.1803 61.25C11.7151 61.25 12.1526 60.8125 12.1526 60.2778C12.1526 59.743 11.7151 59.3055 11.1803 59.3055Z" fill="#A4AFC1"/>
</svg>
