<svg width="70" height="70" viewBox="0 0 70 70" fill="none" xmlns="http://www.w3.org/2000/svg">
<path d="M22.4243 67.6704C35.3451 63.9391 46.1524 68.071 52.3785 66.2724C58.6046 64.4738 70.6485 57.118 62.3768 28.4724C54.1051 -0.173156 35.3024 0.705734 28.4521 2.68323C-3.61763 11.9446 -0.459855 74.2796 22.4243 67.6704Z" fill="#EFEFEF"/>
<path d="M13.5527 23.6426L16.3026 20.8927L17.6775 22.2676L14.9277 25.0175L13.5527 23.6426Z" fill="#A4AFC1"/>
<path d="M5.64648 31.5459L8.39634 28.796L9.77127 30.171L7.02141 32.9208L5.64648 31.5459Z" fill="#A4AFC1"/>
<path d="M5.64844 21.9229L7.02337 20.5479L9.77323 23.2978L8.3983 24.6727L5.64844 21.9229Z" fill="#A4AFC1"/>
<path d="M53.6608 18.41C52.0528 18.41 50.7441 17.1014 50.7441 15.4933C50.7441 13.8853 52.0528 12.5767 53.6608 12.5767C55.2689 12.5767 56.5775 13.8853 56.5775 15.4933C56.5775 17.1014 55.2689 18.41 53.6608 18.41ZM53.6608 14.5211C53.1261 14.5211 52.6886 14.9586 52.6886 15.4933C52.6886 16.028 53.1261 16.4656 53.6608 16.4656C54.1955 16.4656 54.633 16.028 54.633 15.4933C54.633 14.9586 54.1955 14.5211 53.6608 14.5211Z" fill="#A4AFC1"/>
<path d="M22.8457 28.6805V39.3749L47.1513 49.0971V18.9583L22.8457 28.6805Z" fill="#F3F3F1"/>
<path d="M16.0417 39.3749H22.8472V28.6804H16.0417C14.4317 28.6804 13.125 29.9871 13.125 31.5971V36.9443C13.125 38.5543 14.4317 39.3749 16.0417 39.3749Z" fill="#FEB46D"/>
<path d="M25.3173 40.3278L18.959 39.375L20.9034 52.9861H26.7368L25.3173 40.3278Z" fill="#FEB46D"/>
<path d="M27.2207 39.3749V28.6805L47.1513 20.7083V18.9583L22.8457 28.6805V39.3749L47.1513 49.0971V47.3471L27.2207 39.3749Z" fill="#D5DBE1"/>
<path d="M17.5 36.9443V31.5971C17.5 29.9871 18.8067 28.6804 20.4167 28.6804H16.0417C14.4317 28.6804 13.125 29.9871 13.125 31.5971V36.9443C13.125 38.5543 14.4317 39.3749 16.0417 39.3749H20.4167C18.8067 39.3749 17.5 38.5543 17.5 36.9443Z" fill="#FF7F2E"/>
<path d="M18.959 39.375L20.9034 52.9861H25.2784L23.4293 40.0458L18.959 39.375Z" fill="#FF7F2E"/>
<path d="M47.1506 50.5556C46.9678 50.5556 46.7851 50.5206 46.6101 50.4506L22.3045 40.7284C21.7503 40.5067 21.3867 39.972 21.3867 39.3751V28.6806C21.3867 28.0837 21.7503 27.549 22.3045 27.3273L46.6101 17.6051C47.0573 17.4223 47.5687 17.4806 47.9692 17.7509C48.3698 18.0212 48.6089 18.4742 48.6089 18.9584V49.0973C48.6089 49.5815 48.3698 50.0326 47.9692 50.3048C47.7242 50.4701 47.4364 50.5556 47.1506 50.5556ZM24.3034 38.3873L45.6923 46.9429V21.1109L24.3034 29.6665V38.3873Z" fill="black"/>
<path d="M22.8466 40.8335H16.041C13.4646 40.8335 11.666 39.2352 11.666 36.9446V31.5974C11.666 29.1863 13.6299 27.2224 16.041 27.2224H22.8466C23.6516 27.2224 24.3049 27.8757 24.3049 28.6807V39.3752C24.3049 40.1802 23.6516 40.8335 22.8466 40.8335ZM16.041 30.1391C15.238 30.1391 14.5827 30.7944 14.5827 31.5974V36.9446C14.5827 37.7477 15.376 37.9169 16.041 37.9169H21.3882V30.1391H16.041Z" fill="black"/>
<path d="M26.7362 54.4445H20.9028C20.1776 54.4445 19.5631 53.9117 19.4601 53.1923L17.5156 39.5812L20.4012 39.167L22.1667 51.5278H25.1048L23.8662 40.4912L26.7634 40.1645L28.1828 52.8228C28.2295 53.237 28.0973 53.6492 27.8212 53.9584C27.547 54.2675 27.1523 54.4445 26.7362 54.4445Z" fill="black"/>
<path d="M51.1152 27.5308L55.9764 23.6406L57.8 25.9194L52.9388 29.8095L51.1152 27.5308Z" fill="black"/>
<path d="M51.123 42.4636L52.9466 40.1849L57.8078 44.075L55.9842 46.3538L51.123 42.4636Z" fill="black"/>
<path d="M52.0117 33.5417H56.8728V36.4584H52.0117V33.5417Z" fill="black"/>
</svg>
