<svg width="70" height="70" viewBox="0 0 70 70" fill="none" xmlns="http://www.w3.org/2000/svg">
<path d="M8.10171 16.2886C8.10171 29.7384 1.13477 38.9745 1.13477 45.4553C1.13477 51.9361 4.86032 65.5472 34.6745 65.5472C64.4887 65.5472 68.8637 47.2364 68.8637 40.1081C68.8656 6.7278 8.10171 -7.53081 8.10171 16.2886Z" fill="#EFEFEF"/>
<path d="M61.2507 9.72225C59.6426 9.72225 58.334 8.41364 58.334 6.80558C58.334 5.19753 59.6426 3.88892 61.2507 3.88892C62.8587 3.88892 64.1673 5.19753 64.1673 6.80558C64.1673 8.41364 62.8587 9.72225 61.2507 9.72225ZM61.2507 5.83336C60.714 5.83336 60.2784 6.26892 60.2784 6.80558C60.2784 7.34225 60.714 7.77781 61.2507 7.77781C61.7873 7.77781 62.2229 7.34225 62.2229 6.80558C62.2229 6.26892 61.7873 5.83336 61.2507 5.83336Z" fill="#A4AFC1"/>
<path d="M56.1322 29.3514C55.2572 29.9211 54.1917 30.2458 53.0697 30.2458C49.9119 30.2458 47.3628 27.6967 47.3628 24.5389C47.3628 24.4436 47.3822 24.3483 47.3822 24.2531C46.7736 24.4242 46.1261 24.5389 45.4611 24.5389C41.2572 24.5389 37.8525 21.1342 37.8525 16.9303C37.8525 15.6742 38.1578 14.4958 38.7081 13.4497C37.5103 13.2397 36.2736 13.125 35 13.125C22.9211 13.125 13.125 22.9211 13.125 35C13.125 47.0789 22.9211 56.875 35 56.875C47.0789 56.875 56.875 47.0789 56.875 35C56.875 33.04 56.6086 31.1383 56.1322 29.3514Z" fill="#F3F3F1"/>
<path d="M25.2782 27.7083C26.6206 27.7083 27.7088 26.6201 27.7088 25.2777C27.7088 23.9354 26.6206 22.8472 25.2782 22.8472C23.9359 22.8472 22.8477 23.9354 22.8477 25.2777C22.8477 26.6201 23.9359 27.7083 25.2782 27.7083Z" fill="#FEB46D"/>
<path d="M29.1669 49.0972C30.5092 49.0972 31.5974 48.009 31.5974 46.6666C31.5974 45.3243 30.5092 44.2361 29.1669 44.2361C27.8245 44.2361 26.7363 45.3243 26.7363 46.6666C26.7363 48.009 27.8245 49.0972 29.1669 49.0972Z" fill="#FEB46D"/>
<path d="M46.6669 39.375C48.0092 39.375 49.0974 38.2868 49.0974 36.9445C49.0974 35.6021 48.0092 34.5139 46.6669 34.5139C45.3245 34.5139 44.2363 35.6021 44.2363 36.9445C44.2363 38.2868 45.3245 39.375 46.6669 39.375Z" fill="#FEB46D"/>
<path d="M17.5 35C17.5 23.6814 26.1022 14.3675 37.1253 13.2397C36.4272 13.1697 35.7214 13.125 35 13.125C22.9211 13.125 13.125 22.9211 13.125 35C13.125 47.0789 22.9211 56.875 35 56.875C35.7389 56.875 36.4681 56.8361 37.1875 56.7642C26.1353 55.6656 17.5 46.34 17.5 35Z" fill="#D5DBE1"/>
<path d="M27.2227 25.2777C27.2227 24.9083 27.3179 24.568 27.4657 24.2549C27.0768 23.4286 26.2504 22.8472 25.2782 22.8472C23.9365 22.8472 22.8477 23.9361 22.8477 25.2777C22.8477 26.6194 23.9365 27.7083 25.2782 27.7083C26.2504 27.7083 27.0768 27.1269 27.4657 26.3005C27.3179 25.9874 27.2227 25.6472 27.2227 25.2777Z" fill="#FF7F2E"/>
<path d="M31.1113 46.6666C31.1113 46.2972 31.2066 45.9569 31.3544 45.6439C30.9655 44.8175 30.1391 44.2361 29.1669 44.2361C27.8252 44.2361 26.7363 45.325 26.7363 46.6666C26.7363 48.0083 27.8252 49.0972 29.1669 49.0972C30.1391 49.0972 30.9655 48.5158 31.3544 47.6894C31.2066 47.3764 31.1113 47.0361 31.1113 46.6666Z" fill="#FF7F2E"/>
<path d="M48.6113 36.9445C48.6113 36.575 48.7066 36.2348 48.8544 35.9217C48.4655 35.0953 47.6391 34.5139 46.6669 34.5139C45.3252 34.5139 44.2363 35.6028 44.2363 36.9445C44.2363 38.2861 45.3252 39.375 46.6669 39.375C47.6391 39.375 48.4655 38.7936 48.8544 37.9672C48.7066 37.6542 48.6113 37.3139 48.6113 36.9445Z" fill="#FF7F2E"/>
<path d="M25.2776 29.1667C23.1328 29.1667 21.3887 27.4225 21.3887 25.2778C21.3887 23.1331 23.1328 21.3889 25.2776 21.3889C27.4223 21.3889 29.1665 23.1331 29.1665 25.2778C29.1665 27.4225 27.4223 29.1667 25.2776 29.1667ZM25.2776 24.3056C24.7409 24.3056 24.3053 24.7411 24.3053 25.2778C24.3053 25.8145 24.7409 26.25 25.2776 26.25C25.8142 26.25 26.2498 25.8145 26.2498 25.2778C26.2498 24.7411 25.8142 24.3056 25.2776 24.3056Z" fill="black"/>
<path d="M29.1662 50.5556C27.0215 50.5556 25.2773 48.8114 25.2773 46.6667C25.2773 44.522 27.0215 42.7778 29.1662 42.7778C31.311 42.7778 33.0551 44.522 33.0551 46.6667C33.0551 48.8114 31.311 50.5556 29.1662 50.5556ZM29.1662 45.6945C28.6296 45.6945 28.194 46.1301 28.194 46.6667C28.194 47.2034 28.6296 47.6389 29.1662 47.6389C29.7029 47.6389 30.1385 47.2034 30.1385 46.6667C30.1385 46.1301 29.7029 45.6945 29.1662 45.6945Z" fill="black"/>
<path d="M46.6662 40.8334C44.5215 40.8334 42.7773 39.0893 42.7773 36.9446C42.7773 34.7998 44.5215 33.0557 46.6662 33.0557C48.811 33.0557 50.5551 34.7998 50.5551 36.9446C50.5551 39.0893 48.811 40.8334 46.6662 40.8334ZM46.6662 35.9723C46.1296 35.9723 45.694 36.4079 45.694 36.9446C45.694 37.4812 46.1296 37.9168 46.6662 37.9168C47.2029 37.9168 47.6385 37.4812 47.6385 36.9446C47.6385 36.4079 47.2029 35.9723 46.6662 35.9723Z" fill="black"/>
<path d="M34.9993 58.3334C22.133 58.3334 11.666 47.8665 11.666 35.0001C11.666 22.1337 22.133 11.6667 34.9993 11.6667C36.3177 11.6667 37.6516 11.7834 38.9602 12.0129C39.4191 12.0945 39.8118 12.3881 40.018 12.8062C40.2221 13.2242 40.2163 13.7162 39.9985 14.1284C39.5416 14.9937 39.3102 15.9367 39.3102 16.9284C39.3102 20.3195 42.0693 23.0787 45.4605 23.0787C45.931 23.0787 46.4424 23.0009 46.9869 22.8473C47.4224 22.7229 47.8969 22.8104 48.2624 23.0884C48.628 23.3645 48.8399 23.7942 48.8399 24.2512C48.8399 24.2998 48.8282 24.4923 48.8224 24.539C48.8205 26.8781 50.726 28.7837 53.0691 28.7837C53.8916 28.7837 54.6771 28.5562 55.3363 28.1265C55.7271 27.8698 56.2191 27.8212 56.6546 27.9865C57.0921 28.1537 57.4227 28.5212 57.5413 28.9723C58.0663 30.9479 58.3327 32.974 58.3327 35.0001C58.3327 47.8665 47.8657 58.3334 34.9993 58.3334ZM34.9993 14.5834C23.741 14.5834 14.5827 23.7417 14.5827 35.0001C14.5827 46.2584 23.741 55.4168 34.9993 55.4168C46.2577 55.4168 55.416 46.2584 55.416 35.0001C55.416 33.8004 55.3091 32.6006 55.0971 31.4145C54.4477 31.6051 53.7652 31.7023 53.0691 31.7023C49.6099 31.7023 46.7146 29.2367 46.0496 25.972C40.7257 26.3901 36.3935 22.122 36.3935 16.9284C36.3935 16.1487 36.4907 15.3884 36.6832 14.6554C36.1213 14.6067 35.5594 14.5834 34.9993 14.5834Z" fill="black"/>
<path d="M16.8906 34.5127L18.953 32.4503L21.9875 35.4848L19.9251 37.5472L16.8906 34.5127Z" fill="black"/>
<path d="M34.3887 38.4036L36.4511 36.3412L39.4855 39.3756L37.4231 41.438L34.3887 38.4036Z" fill="black"/>
<path d="M38.2754 47.1519L41.3099 44.1174L43.3723 46.1798L40.3378 49.2143L38.2754 47.1519Z" fill="black"/>
<path d="M34.3887 29.6519L37.4231 26.6174L39.4855 28.6798L36.4511 31.7143L34.3887 29.6519Z" fill="black"/>
<path d="M26.6113 35.4854L29.6458 32.4509L31.7082 34.5133L28.6737 37.5477L26.6113 35.4854Z" fill="black"/>
</svg>
