<svg width="70" height="70" viewBox="0 0 70 70" fill="none" xmlns="http://www.w3.org/2000/svg">
<path d="M16.2889 8.10244C29.7386 8.10244 38.9747 1.1355 45.4555 1.1355C51.9364 1.1355 65.5475 4.86105 65.5475 34.6752C65.5475 64.4894 47.2367 68.8644 40.1083 68.8644C6.72805 68.8663 -7.53057 8.10244 16.2889 8.10244Z" fill="#EFEFEF"/>
<path d="M9.71094 6.05469L11.0859 4.67976L13.8357 7.42962L12.4608 8.80455L9.71094 6.05469Z" fill="#A4AFC1"/>
<path d="M17.6152 13.9607L18.9902 12.5858L21.74 15.3356L20.3651 16.7106L17.6152 13.9607Z" fill="#A4AFC1"/>
<path d="M9.36523 15.335L12.1151 12.5851L13.49 13.96L10.7402 16.7099L9.36523 15.335Z" fill="#A4AFC1"/>
<path d="M17.2715 7.43018L20.0213 4.68032L21.3963 6.05525L18.6464 8.80511L17.2715 7.43018Z" fill="#A4AFC1"/>
<path d="M52.9861 56.8751C55.125 56.8751 56.875 55.1251 56.875 52.9862V32.5696C56.875 30.4307 55.125 28.6807 52.9861 28.6807H17.0139C14.875 28.6807 13.125 30.4307 13.125 32.5696V52.9862C13.125 55.1251 14.875 56.8751 17.0139 56.8751H52.9861Z" fill="#F3F3F1"/>
<path d="M35 47.1528C37.4162 47.1528 39.375 45.1941 39.375 42.7778C39.375 40.3616 37.4162 38.4028 35 38.4028C32.5838 38.4028 30.625 40.3616 30.625 42.7778C30.625 45.1941 32.5838 47.1528 35 47.1528Z" fill="#FEB46D"/>
<path d="M50.0703 13.125H54.9314V29.6528H50.0703V13.125Z" fill="#FEB46D"/>
<path d="M38.4043 20.9028H43.2654V29.6528H38.4043V20.9028Z" fill="#FEB46D"/>
<path d="M17.5 52.9862V32.5696C17.5 30.4307 19.25 28.6807 21.3889 28.6807H17.0139C14.875 28.6807 13.125 30.4307 13.125 32.5696V52.9862C13.125 55.1251 14.875 56.8751 17.0139 56.8751H21.3889C19.25 56.8751 17.5 55.1251 17.5 52.9862Z" fill="#D5DBE1"/>
<path d="M35 42.7778C35 41.162 35.8847 39.7678 37.1875 39.0095C36.5419 38.6342 35.8011 38.4028 35 38.4028C32.5831 38.4028 30.625 40.3609 30.625 42.7778C30.625 45.1948 32.5831 47.1528 35 47.1528C35.8011 47.1528 36.5419 46.9214 37.1875 46.5462C35.8847 45.7878 35 44.3937 35 42.7778Z" fill="#FF7F2E"/>
<path d="M50.0703 13.125H54.4453V29.6528H50.0703V13.125Z" fill="#FF7F2E"/>
<path d="M38.4043 20.9028H42.7793V29.6528H38.4043V20.9028Z" fill="#FF7F2E"/>
<path d="M35 28.1943H58.3333V31.111H35V28.1943Z" fill="black"/>
<path d="M52.9855 58.3333H17.0132C14.0635 58.3333 11.666 55.9358 11.666 52.9861V32.5694C11.666 29.6197 14.0635 27.2222 17.0132 27.2222H30.9743V30.1388H17.0132C15.6735 30.1388 14.5827 31.2297 14.5827 32.5694V52.9861C14.5827 54.3258 15.6735 55.4166 17.0132 55.4166H52.9855C54.3252 55.4166 55.416 54.3258 55.416 52.9861V34.9999H58.3327V52.9861C58.3327 55.9358 55.9352 58.3333 52.9855 58.3333Z" fill="black"/>
<path d="M34.9993 48.611C31.7832 48.611 29.166 45.9938 29.166 42.7777C29.166 39.5616 31.7832 36.9443 34.9993 36.9443C38.2155 36.9443 40.8327 39.5616 40.8327 42.7777C40.8327 45.9938 38.2155 48.611 34.9993 48.611ZM34.9993 39.861C33.3913 39.861 32.0827 41.1696 32.0827 42.7777C32.0827 44.3857 33.3913 45.6943 34.9993 45.6943C36.6074 45.6943 37.916 44.3857 37.916 42.7777C37.916 41.1696 36.6074 39.861 34.9993 39.861Z" fill="black"/>
<path d="M17.5 33.0557H23.3333V35.9723H17.5V33.0557Z" fill="black"/>
<path d="M46.666 49.5833H52.4993V52.4999H46.666V49.5833Z" fill="black"/>
<path d="M56.3891 29.6529H53.4724V14.5834H51.528V29.6529H48.6113V13.1251C48.6113 12.3201 49.2647 11.6667 50.0697 11.6667H54.9308C55.7358 11.6667 56.3891 12.3201 56.3891 13.1251V29.6529Z" fill="black"/>
<path d="M44.7231 29.6529H41.8064V22.3612H39.862V29.6529H36.9453V20.9029C36.9453 20.0979 37.5986 19.4446 38.4036 19.4446H43.2648C44.0698 19.4446 44.7231 20.0979 44.7231 20.9029V29.6529Z" fill="black"/>
<path d="M3.88867 55.4167H66.1109V58.3334H3.88867V55.4167Z" fill="black"/>
</svg>
