<svg width="70" height="70" viewBox="0 0 70 70" fill="none" xmlns="http://www.w3.org/2000/svg">
<path d="M16.7752 62.3835C30.2249 62.3835 39.461 69.3505 45.9419 69.3505C52.4227 69.3505 66.0338 65.6249 66.0338 35.8107C66.0338 5.99657 47.723 1.61963 40.5947 1.61963C7.21438 1.61963 -7.04424 62.3835 16.7752 62.3835Z" fill="#EFEFEF"/>
<path d="M56.875 40.8275V48.6052C56.875 53.1747 47.075 56.8691 35 56.8691C22.925 56.8691 13.125 53.1747 13.125 48.6052V40.8275C13.125 38.2219 16.2944 35.908 21.2722 34.3914H48.7278C53.7056 35.908 56.875 38.2219 56.875 40.8275Z" fill="#F3F3F1"/>
<path d="M17.5 48.6052V40.8275C17.5 38.2219 20.6694 35.908 25.6472 34.3914H21.2722C16.2944 35.908 13.125 38.2219 13.125 40.8275V48.6052C13.125 53.1747 22.925 56.8691 35 56.8691C35.7389 56.8691 36.4681 56.8536 37.1875 56.8283C26.1392 56.4122 17.5 52.8947 17.5 48.6052Z" fill="#D5DBE1"/>
<path d="M34.9991 43.2639C43.3218 43.2639 50.0686 36.5171 50.0686 28.1944C50.0686 19.8718 43.3218 13.125 34.9991 13.125C26.6765 13.125 19.9297 19.8718 19.9297 28.1944C19.9297 36.5171 26.6765 43.2639 34.9991 43.2639Z" fill="#FEB46D"/>
<path d="M24.3047 28.1944C24.3047 20.6169 29.9027 14.3636 37.1866 13.3019C36.4711 13.1969 35.7439 13.125 34.9991 13.125C26.6769 13.125 19.9297 19.8722 19.9297 28.1944C19.9297 36.5167 26.6769 43.2639 34.9991 43.2639C35.7439 43.2639 36.4711 43.1919 37.1866 43.0869C29.9027 42.0253 24.3047 35.7719 24.3047 28.1944Z" fill="#FF7F2E"/>
<path d="M60.0508 15.4517L61.4257 14.0767L64.1756 16.8266L62.8006 18.2015L60.0508 15.4517Z" fill="#A4AFC1"/>
<path d="M52.1445 7.54346L53.5195 6.16853L56.2693 8.91839L54.8944 10.2933L52.1445 7.54346Z" fill="#A4AFC1"/>
<path d="M60.3867 8.91211L63.1366 6.16225L64.5115 7.53718L61.7616 10.287L60.3867 8.91211Z" fill="#A4AFC1"/>
<path d="M52.4824 16.8169L55.2323 14.067L56.6072 15.442L53.8574 18.1918L52.4824 16.8169Z" fill="#A4AFC1"/>
<path d="M9.72135 16.0416C8.1133 16.0416 6.80469 14.733 6.80469 13.1249C6.80469 11.5169 8.1133 10.2083 9.72135 10.2083C11.3294 10.2083 12.638 11.5169 12.638 13.1249C12.638 14.733 11.3294 16.0416 9.72135 16.0416ZM9.72135 12.1527C9.18469 12.1527 8.74913 12.5902 8.74913 13.1249C8.74913 13.6596 9.18469 14.0971 9.72135 14.0971C10.258 14.0971 10.6936 13.6596 10.6936 13.1249C10.6936 12.5902 10.258 12.1527 9.72135 12.1527Z" fill="#A4AFC1"/>
<path d="M34.9993 50.5557C23.6885 50.5557 11.666 47.149 11.666 40.8334C11.666 37.5882 14.9268 34.8076 20.8457 33.0032L21.6974 35.7954C17.3088 37.1293 14.5827 39.0621 14.5827 40.8334C14.5827 44.0457 23.3132 47.639 34.9993 47.639C46.6855 47.639 55.416 44.0457 55.416 40.8334C55.416 39.0621 52.6899 37.1312 48.3013 35.7934L49.153 33.0012C55.0718 34.8076 58.3327 37.5882 58.3327 40.8334C58.3327 47.149 46.3102 50.5557 34.9993 50.5557Z" fill="black"/>
<path d="M34.9993 58.3333C23.6885 58.3333 11.666 54.9266 11.666 48.6111H14.5827C14.5827 51.8233 23.3132 55.4166 34.9993 55.4166C46.6855 55.4166 55.416 51.8233 55.416 48.6111H58.3327C58.3327 54.9266 46.3102 58.3333 34.9993 58.3333Z" fill="black"/>
<path d="M11.666 40.8335H14.5827V48.6113H11.666V40.8335Z" fill="black"/>
<path d="M55.416 40.8335H58.3327V48.6113H55.416V40.8335Z" fill="black"/>
<path d="M34.9985 44.7223C25.8849 44.7223 18.4707 37.3081 18.4707 28.1945C18.4707 19.0809 25.8849 11.6667 34.9985 11.6667C44.1121 11.6667 51.5263 19.0809 51.5263 28.1945C51.5263 37.3081 44.1121 44.7223 34.9985 44.7223ZM34.9985 14.5834C27.4929 14.5834 21.3874 20.6909 21.3874 28.1945C21.3874 35.6981 27.4929 41.8056 34.9985 41.8056C42.504 41.8056 48.6096 35.6981 48.6096 28.1945C48.6096 20.6909 42.504 14.5834 34.9985 14.5834Z" fill="black"/>
<path d="M35.7387 34.0279H31.597V31.1112H35.7387C36.4037 31.1112 36.9442 30.5706 36.9442 29.9056C36.9442 29.2212 36.4037 28.6806 35.7387 28.6806H34.2609C31.9878 28.6806 30.1387 26.8315 30.1387 24.5584C30.1387 22.2659 31.9878 20.4167 34.2609 20.4167H38.4026V23.3334H34.2609C33.5959 23.3334 33.0553 23.874 33.0553 24.539C33.0553 25.2234 33.5959 25.764 34.2609 25.764H35.7387C38.0117 25.764 39.8609 27.6131 39.8609 29.8862C39.8609 32.1787 38.0117 34.0279 35.7387 34.0279Z" fill="black"/>
<path d="M33.541 18.9585H36.4577V21.3891H33.541V18.9585Z" fill="black"/>
<path d="M33.541 33.0557H36.4577V35.4862H33.541V33.0557Z" fill="black"/>
</svg>
