<svg width="70" height="70" viewBox="0 0 70 70" fill="none" xmlns="http://www.w3.org/2000/svg">
<path d="M67.8692 39.5791C60.5154 28.3189 61.297 16.7766 57.7523 11.3497C54.2076 5.92275 43.6434 -3.43391 18.6826 12.8703C-6.27826 29.1744 0.0703488 46.898 3.9709 52.8655C22.2253 80.8111 80.8951 59.5214 67.8692 39.5791Z" fill="#EFEFEF"/>
<path d="M29.166 30.1389C33.9985 30.1389 37.916 26.2214 37.916 21.3889C37.916 16.5564 33.9985 12.6389 29.166 12.6389C24.3335 12.6389 20.416 16.5564 20.416 21.3889C20.416 26.2214 24.3335 30.1389 29.166 30.1389Z" fill="#FEB46D"/>
<path d="M45.5776 43.7499V51.5277H33.9109H24.3053H12.6387V43.7499C12.6387 41.6888 13.4553 39.8027 14.7581 38.4027C15.847 37.2555 17.2664 36.4583 18.8609 36.1277C19.1137 36.0694 19.3664 36.0305 19.6192 36.0111C19.8526 35.9916 20.0664 35.9722 20.2998 35.9722H37.7998C38.072 35.9722 38.3248 35.9916 38.597 36.0111C38.8498 36.0305 39.1026 36.0694 39.3553 36.1277C40.9498 36.4583 42.3692 37.2555 43.4581 38.4027C44.7609 39.8027 45.5776 41.6888 45.5776 43.7499Z" fill="#F3F3F1"/>
<path d="M14.6992 38.3638C15.7881 37.2166 17.2464 36.3999 18.8603 36.1277C17.2659 36.4582 15.8464 37.2555 14.7576 38.4027L14.6992 38.3638Z" fill="#FEB46D"/>
<path d="M45.6929 35.9722H47.6374C48.7107 35.9722 49.5818 36.8433 49.5818 37.9166V43.7499H55.4151C56.4885 43.7499 57.3596 44.6211 57.3596 45.6944V47.6388C57.3596 48.7122 56.4885 49.5833 55.4151 49.5833H49.5818V55.4166C49.5818 56.4899 48.7107 57.3611 47.6374 57.3611H45.6929C44.6196 57.3611 43.7485 56.4899 43.7485 55.4166V49.5833H37.9151C36.8418 49.5833 35.9707 48.7122 35.9707 47.6388V45.6944C35.9707 44.6211 36.8418 43.7499 37.9151 43.7499H43.7485V37.9166C43.7485 36.8433 44.6196 35.9722 45.6929 35.9722Z" fill="#FEB46D"/>
<path d="M31.1105 29.925C30.4882 30.0611 29.8271 30.1389 29.166 30.1389C24.3243 30.1389 20.416 26.2306 20.416 21.3889C20.416 16.5472 24.3243 12.6389 29.166 12.6389C29.8271 12.6389 30.4882 12.7167 31.1105 12.8528C27.2021 13.7278 24.3049 17.2084 24.3049 21.3889C24.3049 25.5695 27.2021 29.05 31.1105 29.925Z" fill="#FF7F2E"/>
<path d="M41.804 49.5833H37.9151C36.8457 49.5833 35.9707 48.7083 35.9707 47.6389V45.6944C35.9707 44.625 36.8457 43.75 37.9151 43.75H41.804C40.7346 43.75 39.8596 44.625 39.8596 45.6944V47.6389C39.8596 48.7083 40.7346 49.5833 41.804 49.5833Z" fill="#FF7F2E"/>
<path d="M24.1887 35.9722C23.9553 35.9722 23.7414 35.9916 23.5081 36.0111C23.2553 36.0305 23.0026 36.0694 22.7498 36.1277C21.1553 36.4583 19.7359 37.2555 18.647 38.4027C17.3442 39.8027 16.5276 41.6888 16.5276 43.7499V51.5277H12.6387V43.7499C12.6387 41.6888 13.4553 39.8027 14.7581 38.4027C15.847 37.2555 17.2664 36.4583 18.8609 36.1277C19.1137 36.0694 19.3664 36.0305 19.6192 36.0111C19.8526 35.9916 20.0664 35.9722 20.2998 35.9722H24.1887Z" fill="#D5DBE1"/>
<path d="M29.1673 31.5973C23.5382 31.5973 18.959 27.0182 18.959 21.389C18.959 15.7598 23.5382 11.1807 29.1673 11.1807C34.7965 11.1807 39.3757 15.7598 39.3757 21.389C39.3757 27.0182 34.7965 31.5973 29.1673 31.5973ZM29.1673 14.0973C25.1462 14.0973 21.8757 17.3698 21.8757 21.389C21.8757 25.4082 25.1462 28.6807 29.1673 28.6807C33.1884 28.6807 36.459 25.4082 36.459 21.389C36.459 17.3698 33.1884 14.0973 29.1673 14.0973Z" fill="black"/>
<path d="M30.138 52.9861H12.638C11.833 52.9861 11.1797 52.3328 11.1797 51.5278V43.75C11.1797 38.6575 15.3233 34.5139 20.4158 34.5139H37.9158V37.4306H20.4158C16.9314 37.4306 14.0964 40.2656 14.0964 43.75V50.0695H30.138V52.9861Z" fill="black"/>
<path d="M47.6387 58.8195H45.6942C43.8178 58.8195 42.2915 57.2931 42.2915 55.4167V51.0417H37.9164C36.0401 51.0417 34.5137 49.5153 34.5137 47.6389V45.6945C34.5137 43.8181 36.0401 42.2917 37.9164 42.2917H42.2915V37.9167C42.2915 36.0403 43.8178 34.5139 45.6942 34.5139H47.6387C49.5151 34.5139 51.0415 36.0403 51.0415 37.9167V42.2917H55.4165C57.2928 42.2917 58.8192 43.8181 58.8192 45.6945V47.6389C58.8192 49.5153 57.2928 51.0417 55.4165 51.0417H51.0415V55.4167C51.0415 57.2931 49.5151 58.8195 47.6387 58.8195ZM37.9164 45.2084C37.6481 45.2084 37.4303 45.4261 37.4303 45.6945V47.6389C37.4303 47.9073 37.6481 48.125 37.9164 48.125H43.7498C44.5548 48.125 45.2081 48.7784 45.2081 49.5834V55.4167C45.2081 55.685 45.4259 55.9028 45.6942 55.9028H47.6387C47.907 55.9028 48.1248 55.685 48.1248 55.4167V49.5834C48.1248 48.7784 48.7781 48.125 49.5831 48.125H55.4165C55.6848 48.125 55.9026 47.9073 55.9026 47.6389V45.6945C55.9026 45.4261 55.6848 45.2084 55.4165 45.2084H49.5831C48.7781 45.2084 48.1248 44.555 48.1248 43.75V37.9167C48.1248 37.6484 47.907 37.4306 47.6387 37.4306H45.6942C45.4259 37.4306 45.2081 37.6484 45.2081 37.9167V43.75C45.2081 44.555 44.5548 45.2084 43.7498 45.2084H37.9164Z" fill="black"/>
<path d="M12.6374 29.1666C11.0293 29.1666 9.7207 27.858 9.7207 26.2499C9.7207 24.6419 11.0293 23.3333 12.6374 23.3333C14.2454 23.3333 15.554 24.6419 15.554 26.2499C15.554 27.858 14.2454 29.1666 12.6374 29.1666ZM12.6374 25.2777C12.1007 25.2777 11.6651 25.7152 11.6651 26.2499C11.6651 26.7846 12.1007 27.2221 12.6374 27.2221C13.174 27.2221 13.6096 26.7846 13.6096 26.2499C13.6096 25.7152 13.174 25.2777 12.6374 25.2777Z" fill="#A4AFC1"/>
</svg>
