<svg width="70" height="70" viewBox="0 0 70 70" fill="none" xmlns="http://www.w3.org/2000/svg">
<path d="M16.2889 8.10244C29.7386 8.10244 38.9747 1.1355 45.4555 1.1355C51.9364 1.1355 65.5475 4.86105 65.5475 34.6752C65.5475 64.4894 47.2367 68.8644 40.1083 68.8644C6.72805 68.8663 -7.53057 8.10244 16.2889 8.10244Z" fill="#EFEFEF"/>
<path d="M55.4167 15.5555C53.8086 15.5555 52.5 14.2469 52.5 12.6388C52.5 11.0308 53.8086 9.72217 55.4167 9.72217C57.0247 9.72217 58.3333 11.0308 58.3333 12.6388C58.3333 14.2469 57.0247 15.5555 55.4167 15.5555ZM55.4167 11.6666C54.88 11.6666 54.4444 12.1022 54.4444 12.6388C54.4444 13.1755 54.88 13.6111 55.4167 13.6111C55.9533 13.6111 56.3889 13.1755 56.3889 12.6388C56.3889 12.1022 55.9533 11.6666 55.4167 11.6666Z" fill="#A4AFC1"/>
<path d="M41.3194 47.2889V17.0139C41.3194 14.8653 39.5792 13.125 37.4306 13.125H17.0139C14.8653 13.125 13.125 14.8653 13.125 17.0139V47.2889C13.125 49.4375 14.8653 51.1778 17.0139 51.1778H37.4306C39.5792 51.1778 41.3194 49.4375 41.3194 47.2889Z" fill="#F3F3F1"/>
<path d="M45.6942 56.875C51.8691 56.875 56.8748 51.8693 56.8748 45.6945C56.8748 39.5196 51.8691 34.5139 45.6942 34.5139C39.5194 34.5139 34.5137 39.5196 34.5137 45.6945C34.5137 51.8693 39.5194 56.875 45.6942 56.875Z" fill="#FEB46D"/>
<path d="M30.625 22.8472H35.4861V39.3749H30.625V22.8472Z" fill="#FEB46D"/>
<path d="M18.959 30.625H23.8201V39.375H18.959V30.625Z" fill="#FEB46D"/>
<path d="M17.5 47.2889V17.0139C17.5 14.8653 19.2403 13.125 21.3889 13.125H17.0139C14.8653 13.125 13.125 14.8653 13.125 17.0139V47.2889C13.125 49.4375 14.8653 51.1778 17.0139 51.1778H21.3889C19.2403 51.1778 17.5 49.4375 17.5 47.2889Z" fill="#D5DBE1"/>
<path d="M38.8887 45.6945C38.8887 40.2695 42.7542 35.7486 47.8817 34.7317C47.174 34.5917 46.4428 34.5139 45.6942 34.5139C39.5187 34.5139 34.5137 39.5189 34.5137 45.6945C34.5137 51.87 39.5187 56.875 45.6942 56.875C46.4428 56.875 47.174 56.7992 47.8817 56.6573C42.7542 55.6403 38.8887 51.1195 38.8887 45.6945Z" fill="#FF7F2E"/>
<path d="M30.625 22.8472H35V39.3749H30.625V22.8472Z" fill="#FF7F2E"/>
<path d="M18.959 30.625H23.334V39.375H18.959V30.625Z" fill="#FF7F2E"/>
<path d="M45.6936 58.3334C38.7247 58.3334 33.0547 52.6634 33.0547 45.6946C33.0547 38.7257 38.7247 33.0557 45.6936 33.0557C52.6625 33.0557 58.3325 38.7257 58.3325 45.6946C58.3325 52.6634 52.6625 58.3334 45.6936 58.3334ZM45.6936 35.9723C40.3327 35.9723 35.9714 40.3337 35.9714 45.6946C35.9714 51.0554 40.3327 55.4168 45.6936 55.4168C51.0544 55.4168 55.4158 51.0554 55.4158 45.6946C55.4158 40.3337 51.0544 35.9723 45.6936 35.9723Z" fill="black"/>
<path d="M44.2363 49.0972H47.153V53.4722H44.2363V49.0972Z" fill="black"/>
<path d="M44.2363 37.9167H47.153V42.2917H44.2363V37.9167Z" fill="black"/>
<path d="M45.9366 51.5278H41.8047V48.6111H45.9366C46.3391 48.6111 46.6658 48.2844 46.6658 47.8819C46.6658 47.4794 46.3391 47.1528 45.9366 47.1528H45.4505C43.44 47.1528 41.8047 45.5175 41.8047 43.5069C41.8047 41.4964 43.44 39.8611 45.4505 39.8611H49.5825V42.7778H45.4505C45.048 42.7778 44.7214 43.1044 44.7214 43.5069C44.7214 43.9094 45.048 44.2361 45.4505 44.2361H45.9366C47.9472 44.2361 49.5825 45.8714 49.5825 47.8819C49.5825 49.8925 47.9472 51.5278 45.9366 51.5278Z" fill="black"/>
<path d="M27.7077 52.5001H17.0132C14.0635 52.5001 11.666 50.1026 11.666 47.1529V17.014C11.666 14.0642 14.0635 11.6667 17.0132 11.6667H37.4299C40.3796 11.6667 42.7771 14.0642 42.7771 17.014V27.7084H39.8605V17.014C39.8605 15.6742 38.7696 14.5834 37.4299 14.5834H17.0132C15.6735 14.5834 14.5827 15.6742 14.5827 17.014V47.1529C14.5827 48.4926 15.6735 49.5834 17.0132 49.5834H27.7077V52.5001Z" fill="black"/>
<path d="M32.0827 35.4861H29.166V22.8472C29.166 22.0422 29.8193 21.3889 30.6243 21.3889H35.4855C36.2905 21.3889 36.9438 22.0422 36.9438 22.8472V31.5972H34.0271V24.3056H32.0827V35.4861Z" fill="black"/>
<path d="M23.8194 40.8334H18.9583C18.1533 40.8334 17.5 40.1801 17.5 39.3751V30.6251C17.5 29.8201 18.1533 29.1667 18.9583 29.1667H23.8194C24.6244 29.1667 25.2778 29.8201 25.2778 30.6251V39.3751C25.2778 40.1801 24.6244 40.8334 23.8194 40.8334ZM20.4167 37.9167H22.3611V32.0834H20.4167V37.9167Z" fill="black"/>
<path d="M15.5547 37.9167H29.1658V40.8334H15.5547V37.9167Z" fill="black"/>
</svg>
