<svg width="70" height="70" viewBox="0 0 70 70" fill="none" xmlns="http://www.w3.org/2000/svg">
<path d="M8.10171 53.7115C8.10171 40.2618 1.13477 31.0257 1.13477 24.5448C1.13477 18.064 4.86032 4.45288 34.6745 4.45288C64.4887 4.45288 68.8637 22.7637 68.8637 29.892C68.8656 63.2723 8.10171 77.5309 8.10171 53.7115Z" fill="#EFEFEF"/>
<path d="M12.6035 10.0322L15.3534 7.28237L16.7283 8.6573L13.9784 11.4072L12.6035 10.0322Z" fill="#A4AFC1"/>
<path d="M4.69727 17.9358L7.44713 15.1859L8.82206 16.5609L6.0722 19.3107L4.69727 17.9358Z" fill="#A4AFC1"/>
<path d="M4.69727 8.31641L6.0722 6.94148L8.82206 9.69134L7.44713 11.0663L4.69727 8.31641Z" fill="#A4AFC1"/>
<path d="M64.1589 47.5921C62.5508 47.5921 61.2422 46.2835 61.2422 44.6755C61.2422 43.0674 62.5508 41.7588 64.1589 41.7588C65.7669 41.7588 67.0755 43.0674 67.0755 44.6755C67.0755 46.2835 65.7669 47.5921 64.1589 47.5921ZM64.1589 43.7032C63.6241 43.7032 63.1866 44.1407 63.1866 44.6755C63.1866 45.2102 63.6241 45.6477 64.1589 45.6477C64.6936 45.6477 65.1311 45.2102 65.1311 44.6755C65.1311 44.1407 64.6936 43.7032 64.1589 43.7032Z" fill="#A4AFC1"/>
<path d="M38.4034 25.7639H49.864C50.632 25.7639 51.3826 25.9914 52.0204 26.4172L56.8737 29.6528V15.0694C56.8737 13.9961 56.0026 13.125 54.9293 13.125H38.4015C37.3281 13.125 36.457 13.9961 36.457 15.0694V23.8194C36.459 24.8928 37.3301 25.7639 38.4034 25.7639Z" fill="#F3F3F1"/>
<path d="M22.3613 45.2083C24.7776 45.2083 26.7363 43.2495 26.7363 40.8333C26.7363 38.417 24.7776 36.4583 22.3613 36.4583C19.9451 36.4583 17.9863 38.417 17.9863 40.8333C17.9863 43.2495 19.9451 45.2083 22.3613 45.2083Z" fill="#F3F3F1"/>
<path d="M13.125 56.8749V53.9582C13.125 51.8096 14.8653 50.0693 17.0139 50.0693H27.7083C29.8569 50.0693 31.5972 51.8096 31.5972 53.9582V56.8749H13.125Z" fill="#FEB46D"/>
<path d="M47.6387 45.2083C50.0549 45.2083 52.0137 43.2495 52.0137 40.8333C52.0137 38.417 50.0549 36.4583 47.6387 36.4583C45.2224 36.4583 43.2637 38.417 43.2637 40.8333C43.2637 43.2495 45.2224 45.2083 47.6387 45.2083Z" fill="#F3F3F1"/>
<path d="M38.4023 56.8749V53.9582C38.4023 51.8096 40.1426 50.0693 42.2912 50.0693H52.9857C55.1343 50.0693 56.8746 51.8096 56.8746 53.9582V56.8749H38.4023Z" fill="#FEB46D"/>
<path d="M35.4861 29.6528H20.1367C19.3686 29.6528 18.6181 29.8803 17.9803 30.3061L13.125 33.5417V18.9584C13.125 17.885 13.9961 17.0139 15.0694 17.0139H35.4861C36.5594 17.0139 37.4306 17.885 37.4306 18.9584V27.7084C37.4306 28.7817 36.5594 29.6528 35.4861 29.6528Z" fill="#FEB46D"/>
<path d="M17.0139 18.9584C17.0139 17.885 17.885 17.0139 18.9583 17.0139H15.0694C13.9961 17.0139 13.125 17.885 13.125 18.9584V33.5417L17.0139 30.9497V18.9584Z" fill="#FF7F2E"/>
<path d="M40.3479 23.8194V15.0694C40.3479 13.9961 41.219 13.125 42.2923 13.125H38.4034C37.3301 13.125 36.459 13.9961 36.459 15.0694V23.8194C36.459 24.8928 37.3301 25.7639 38.4034 25.7639H42.2923C41.219 25.7639 40.3479 24.8928 40.3479 23.8194Z" fill="#D5DBE1"/>
<path d="M55.9105 26.4173C55.2708 25.9914 54.5202 25.7639 53.7541 25.7639H49.8652C50.6333 25.7639 51.3838 25.9914 52.0216 26.4173L56.875 29.6528V27.0609L55.9105 26.4173Z" fill="#D5DBE1"/>
<path d="M21.8752 40.8333C21.8752 39.1183 22.8708 37.6502 24.3058 36.9327C23.7186 36.6391 23.0633 36.4583 22.3613 36.4583C19.9444 36.4583 17.9863 38.4163 17.9863 40.8333C17.9863 43.2502 19.9444 45.2083 22.3613 45.2083C23.0633 45.2083 23.7186 45.0274 24.3058 44.7338C22.8708 44.0163 21.8752 42.5463 21.8752 40.8333Z" fill="#D5DBE1"/>
<path d="M47.1526 40.8333C47.1526 39.1183 48.1481 37.6502 49.5831 36.9327C48.9959 36.6391 48.3406 36.4583 47.6387 36.4583C45.2217 36.4583 43.2637 38.4163 43.2637 40.8333C43.2637 43.2502 45.2217 45.2083 47.6387 45.2083C48.3406 45.2083 48.9959 45.0274 49.5831 44.7338C48.1481 44.0163 47.1526 42.5463 47.1526 40.8333Z" fill="#D5DBE1"/>
<path d="M20.9028 50.0693H17.0139C14.8653 50.0693 13.125 51.8096 13.125 53.9582V56.8749H17.0139V53.9582C17.0139 51.8096 18.7542 50.0693 20.9028 50.0693Z" fill="#FF7F2E"/>
<path d="M46.1801 50.0693H42.2912C40.1426 50.0693 38.4023 51.8096 38.4023 53.9582V56.8749H42.2912V53.9582C42.2912 51.8096 44.0315 50.0693 46.1801 50.0693Z" fill="#FF7F2E"/>
<path d="M56.875 31.1112C56.5911 31.1112 56.3111 31.0295 56.0661 30.8662L51.2128 27.6306C50.8122 27.3623 50.3456 27.2223 49.8653 27.2223H38.4028C36.5264 27.2223 35 25.6959 35 23.8195V15.0695C35 13.1931 36.5264 11.6667 38.4028 11.6667H54.9306C56.8069 11.6667 58.3333 13.1931 58.3333 15.0695V29.6529C58.3333 30.1895 58.0378 30.6834 57.5633 30.9381C57.3475 31.0548 57.1103 31.1112 56.875 31.1112ZM38.4028 14.5834C38.1344 14.5834 37.9167 14.8012 37.9167 15.0695V23.8195C37.9167 24.0879 38.1344 24.3056 38.4028 24.3056H49.8653C50.925 24.3056 51.9497 24.6167 52.8306 25.204L55.4167 26.9287V15.0695C55.4167 14.8012 55.1989 14.5834 54.9306 14.5834H38.4028Z" fill="black"/>
<path d="M13.1243 35.0001C12.8871 35.0001 12.6518 34.9437 12.436 34.8271C11.9616 34.5723 11.666 34.0784 11.666 33.5418V18.9584C11.666 17.0821 13.1924 15.5557 15.0688 15.5557H29.6521V18.4723H15.0688C14.8043 18.4723 14.5827 18.694 14.5827 18.9584V30.8234L17.1785 29.0987C18.0341 28.5115 19.0666 28.1946 20.1438 28.1946H35.4855V31.1112H20.1438C19.6635 31.1112 19.191 31.2551 18.808 31.5157L13.9293 34.7571C13.6882 34.9184 13.4063 35.0001 13.1243 35.0001Z" fill="black"/>
<path d="M22.3607 46.6667C19.1446 46.6667 16.5273 44.0494 16.5273 40.8333C16.5273 37.6172 19.1446 35 22.3607 35C25.5768 35 28.194 37.6172 28.194 40.8333C28.194 44.0494 25.5768 46.6667 22.3607 46.6667ZM22.3607 37.9167C20.7526 37.9167 19.444 39.2253 19.444 40.8333C19.444 42.4414 20.7526 43.75 22.3607 43.75C23.9687 43.75 25.2773 42.4414 25.2773 40.8333C25.2773 39.2253 23.9687 37.9167 22.3607 37.9167Z" fill="black"/>
<path d="M33.0549 56.875H30.1382V53.9583C30.1382 52.6186 29.0474 51.5278 27.7077 51.5278H17.0132C15.6735 51.5278 14.5827 52.6186 14.5827 53.9583V56.875H11.666V53.9583C11.666 51.0086 14.0635 48.6111 17.0132 48.6111H27.7077C30.6574 48.6111 33.0549 51.0086 33.0549 53.9583V56.875Z" fill="black"/>
<path d="M47.638 46.6667C44.4219 46.6667 41.8047 44.0494 41.8047 40.8333C41.8047 37.6172 44.4219 35 47.638 35C50.8541 35 53.4714 37.6172 53.4714 40.8333C53.4714 44.0494 50.8541 46.6667 47.638 46.6667ZM47.638 37.9167C46.03 37.9167 44.7214 39.2253 44.7214 40.8333C44.7214 42.4414 46.03 43.75 47.638 43.75C49.2461 43.75 50.5547 42.4414 50.5547 40.8333C50.5547 39.2253 49.2461 37.9167 47.638 37.9167Z" fill="black"/>
<path d="M58.3342 56.875H55.4175V53.9583C55.4175 52.6186 54.3267 51.5278 52.987 51.5278H42.2925C40.9528 51.5278 39.862 52.6186 39.862 53.9583V56.875H36.9453V53.9583C36.9453 51.0086 39.3428 48.6111 42.2925 48.6111H52.987C55.9367 48.6111 58.3342 51.0086 58.3342 53.9583V56.875Z" fill="black"/>
</svg>
