<svg width="64" height="70" viewBox="0 0 64 70" fill="none" xmlns="http://www.w3.org/2000/svg">
<g clip-path="url(#clip0_1501_6689)">
<path d="M9.8771 53.7115C9.8771 40.2618 2.91016 31.0257 2.91016 24.5448C2.91016 18.064 6.63571 4.45288 36.4499 4.45288C66.264 4.45288 70.639 22.7637 70.639 29.892C70.641 63.2723 9.8771 77.5309 9.8771 53.7115Z" fill="#EFEFEF"/>
<path d="M61.6484 7.14868L64.3983 4.39882L65.7732 5.77375L63.0234 8.52361L61.6484 7.14868Z" fill="#A4AFC1"/>
<path d="M54.0957 5.09351L55.4706 3.71858L58.2205 6.46844L56.8456 7.84337L54.0957 5.09351Z" fill="#A4AFC1"/>
<path d="M61.998 13.0037L63.373 11.6287L66.1228 14.3786L64.7479 15.7535L61.998 13.0037Z" fill="#A4AFC1"/>
<path d="M56.7059 20.9028C57.7793 20.9028 58.6504 21.7739 58.6504 22.8473V44.2362H14.9004V22.8473C14.9004 21.7739 15.7715 20.9028 16.8448 20.9028H56.7059Z" fill="#F3F3F1"/>
<path d="M14.9004 44.2361H58.6504V49.0972C58.6504 50.1705 57.7793 51.0416 56.7059 51.0416H16.8448C15.7715 51.0416 14.9004 50.1705 14.9004 49.0972V44.2361Z" fill="#FEB46D"/>
<path d="M40.1773 51.0417C40.1773 51.0417 40.6537 54.4737 43.0551 56.8751H43.094H30.4551C32.8856 54.4445 33.3329 51.0417 33.3329 51.0417H40.1773Z" fill="#FEB46D"/>
<path d="M28.9991 39.375C32.4893 39.375 35.3186 36.5457 35.3186 33.0555C35.3186 29.5654 32.4893 26.7361 28.9991 26.7361C25.509 26.7361 22.6797 29.5654 22.6797 33.0555C22.6797 36.5457 25.509 39.375 28.9991 39.375Z" fill="#FEB46D"/>
<path d="M19.2754 49.0972V44.2361H14.9004V49.0972C14.9004 50.1705 15.7715 51.0416 16.8448 51.0416H21.2198C20.1465 51.0416 19.2754 50.1705 19.2754 49.0972Z" fill="#FF7F2E"/>
<path d="M33.3329 51.0417C33.3329 51.0417 32.8856 54.4445 30.4551 56.8751H34.8301C37.2606 54.4445 37.7079 51.0417 37.7079 51.0417H33.3329Z" fill="#FF7F2E"/>
<path d="M27.0547 33.0555C27.0547 30.3372 28.7794 28.0408 31.1866 27.1483C30.5022 26.8955 29.7711 26.7361 28.9991 26.7361C25.5089 26.7361 22.6797 29.5653 22.6797 33.0555C22.6797 36.5458 25.5089 39.375 28.9991 39.375C29.7711 39.375 30.5022 39.2155 31.1866 38.9628C28.7794 38.0703 27.0547 35.7739 27.0547 33.0555Z" fill="#FF7F2E"/>
<path d="M21.2198 20.9028H16.8448C15.7715 20.9028 14.9004 21.7739 14.9004 22.8473V44.2362H19.2754V22.8473C19.2754 21.7739 20.1465 20.9028 21.2198 20.9028Z" fill="#D5DBE1"/>
<path d="M28.9985 40.8334C24.709 40.8334 21.2207 37.3451 21.2207 33.0556C21.2207 28.7662 24.709 25.2778 28.9985 25.2778C33.2879 25.2778 36.7763 28.7662 36.7763 33.0556C36.7763 37.3451 33.2879 40.8334 28.9985 40.8334ZM28.9985 28.1945C26.319 28.1945 24.1374 30.3742 24.1374 33.0556C24.1374 35.737 26.319 37.9167 28.9985 37.9167C31.6779 37.9167 33.8596 35.737 33.8596 33.0556C33.8596 30.3742 31.6779 28.1945 28.9985 28.1945Z" fill="black"/>
<path d="M25.7017 38.4124L23.6387 36.3494L27.5373 32.4508V27.2222H30.4539V33.0555C30.4539 33.4424 30.3003 33.8138 30.0262 34.0861L25.7017 38.4124Z" fill="black"/>
<path d="M40.6641 27.2222H52.3307V30.1388H40.6641V27.2222Z" fill="black"/>
<path d="M40.6641 35.9722H52.3307V38.8888H40.6641V35.9722Z" fill="black"/>
<path d="M56.7053 52.5001H16.8442C14.9678 52.5001 13.4414 50.9737 13.4414 49.0974V22.8474C13.4414 20.971 14.9678 19.4446 16.8442 19.4446H56.7053C58.5817 19.4446 60.1081 20.971 60.1081 22.8474V49.0974C60.1081 50.9737 58.5817 52.5001 56.7053 52.5001ZM16.8442 22.3612C16.5759 22.3612 16.3581 22.579 16.3581 22.8474V49.0974C16.3581 49.3657 16.5759 49.5835 16.8442 49.5835H56.7053C56.9736 49.5835 57.1914 49.3657 57.1914 49.0974V22.8474C57.1914 22.579 56.9736 22.3612 56.7053 22.3612H16.8442Z" fill="black"/>
<path d="M5.66406 55.4167H67.8863V58.3334H5.66406V55.4167Z" fill="black"/>
<path d="M14.9004 42.7778H58.6504V45.6945H14.9004V42.7778Z" fill="black"/>
<path d="M43.0935 58.3332H30.4546C29.8654 58.3332 29.3326 57.9774 29.1071 57.433C28.8815 56.8885 29.006 56.2605 29.424 55.8443C31.4482 53.8202 31.8837 50.8802 31.8876 50.853L34.779 51.2321C34.7635 51.3468 34.4932 53.3049 33.3324 55.4166H40.1826C39.0335 53.3166 38.7476 51.3566 38.7321 51.2418L41.6196 50.8374C41.6235 50.8666 42.0493 53.6724 43.9218 55.6752C44.3029 55.9396 44.5518 56.3771 44.5518 56.8749C44.5518 57.6799 43.8985 58.3332 43.0935 58.3332Z" fill="black"/>
</g>
<defs>
<clipPath id="clip0_1501_6689">
<rect width="63.1111" height="70" fill="white"/>
</clipPath>
</defs>
</svg>
