<svg width="70" height="70" viewBox="0 0 70 70" fill="none" xmlns="http://www.w3.org/2000/svg">
<path d="M26.0778 68.0536C38.3239 62.4944 49.6153 65.0222 55.5167 62.3447C61.4181 59.6652 72.272 50.6469 59.95 23.4986C47.6281 -3.64978 29.1481 -0.0681147 22.6556 2.87772C-7.73998 16.6736 4.38752 77.8983 26.0778 68.0536Z" fill="#EFEFEF"/>
<path d="M8.82031 10.9817L10.1952 9.60676L12.9451 12.3566L11.5702 13.7315L8.82031 10.9817Z" fill="#A4AFC1"/>
<path d="M8.47656 20.2585L11.2264 17.5087L12.6014 18.8836L9.85149 21.6335L8.47656 20.2585Z" fill="#A4AFC1"/>
<path d="M16.3809 12.3552L19.1307 9.60536L20.5056 10.9803L17.7558 13.7302L16.3809 12.3552Z" fill="#A4AFC1"/>
<path d="M54.9303 16.5919C53.3223 16.5919 52.0137 15.2833 52.0137 13.6752C52.0137 12.0672 53.3223 10.7585 54.9303 10.7585C56.5384 10.7585 57.847 12.0672 57.847 13.6752C57.847 15.2833 56.5384 16.5919 54.9303 16.5919ZM54.9303 12.703C54.3937 12.703 53.9581 13.1385 53.9581 13.6752C53.9581 14.2119 54.3937 14.6474 54.9303 14.6474C55.467 14.6474 55.9026 14.2119 55.9026 13.6752C55.9026 13.1385 55.467 12.703 54.9303 12.703Z" fill="#A4AFC1"/>
<path d="M35 56.875C22.9192 56.875 13.125 47.0808 13.125 35C13.125 22.9192 22.9192 13.125 35 13.125C47.0808 13.125 56.875 22.9192 56.875 35C56.875 47.0808 47.0808 56.875 35 56.875Z" fill="#F3F3F1"/>
<path d="M27.7088 45.2084H24.7921C23.7188 45.2084 22.8477 44.3373 22.8477 43.264V30.6251C22.8477 29.5518 23.7188 28.6807 24.7921 28.6807H27.7088C28.7821 28.6807 29.6532 29.5518 29.6532 30.6251V43.264C29.6532 44.3373 28.7821 45.2084 27.7088 45.2084Z" fill="#FEB46D"/>
<path d="M45.2468 29.6917H38.5968C38.5968 29.6917 39.6857 28.0389 39.6857 25.2973C39.6857 22.0112 38.0523 20.9028 36.944 20.9028C35.8357 20.9028 35.2912 21.4473 35.2912 24.2084C35.2912 28.0389 30.1385 30.8001 30.1385 30.8001L29.6523 31.0528V42.0778L30.1385 42.4667C30.1385 42.4667 33.6385 45.2084 41.8829 45.2084H43.8857C45.7718 45.2084 47.3857 43.8473 47.7162 42.0001L49.0773 34.2612C49.5051 31.8889 47.6773 29.6917 45.2468 29.6917Z" fill="#FEB46D"/>
<path d="M17.5 35C17.5 23.6581 26.1333 14.3325 37.1875 13.2358C36.4681 13.1639 35.7389 13.125 35 13.125C22.9192 13.125 13.125 22.9192 13.125 35C13.125 47.0808 22.9192 56.875 35 56.875C35.7389 56.875 36.4681 56.8361 37.1875 56.7642C26.1333 55.6675 17.5 46.3419 17.5 35Z" fill="#D5DBE1"/>
<path d="M27.2227 43.264V30.6251C27.2227 29.8104 27.7263 29.1162 28.4379 28.8284C28.2124 28.7371 27.9674 28.6807 27.7088 28.6807H24.7921C23.7188 28.6807 22.8477 29.5518 22.8477 30.6251V43.264C22.8477 44.3373 23.7188 45.2084 24.7921 45.2084H27.7088C27.9674 45.2084 28.2124 45.1521 28.4379 45.0607C27.7263 44.7729 27.2227 44.0787 27.2227 43.264Z" fill="#FF7F2E"/>
<path d="M34.5135 42.4667L34.0273 42.0778V31.0528L34.5135 30.8001C34.5135 30.8001 39.3435 28.2023 39.6371 24.5526C39.4037 21.8576 37.961 20.9028 36.944 20.9028C35.8357 20.9028 35.2912 21.4473 35.2912 24.2084C35.2912 28.0389 30.1385 30.8001 30.1385 30.8001L29.6523 31.0528V42.0778L30.1385 42.4667C30.1385 42.4667 33.6385 45.2084 41.8829 45.2084H43.8857C44.0782 45.2084 44.2648 45.1851 44.4515 45.1578C37.506 44.7981 34.5135 42.4667 34.5135 42.4667Z" fill="#FF7F2E"/>
<path d="M34.9993 58.3334C22.133 58.3334 11.666 47.8665 11.666 35.0001C11.666 22.1337 22.133 11.6667 34.9993 11.6667C47.8657 11.6667 58.3327 22.1337 58.3327 35.0001C58.3327 47.8665 47.8657 58.3334 34.9993 58.3334ZM34.9993 14.5834C23.741 14.5834 14.5827 23.7417 14.5827 35.0001C14.5827 46.2584 23.741 55.4168 34.9993 55.4168C46.2577 55.4168 55.416 46.2584 55.416 35.0001C55.416 23.7417 46.2577 14.5834 34.9993 14.5834Z" fill="black"/>
<path d="M27.7081 46.6669H24.7914C22.9151 46.6669 21.3887 45.1405 21.3887 43.2641V30.6252C21.3887 28.7488 22.9151 27.2224 24.7914 27.2224H27.7081C29.5845 27.2224 31.1109 28.7488 31.1109 30.6252V43.2641C31.1109 45.1405 29.5845 46.6669 27.7081 46.6669ZM24.7914 30.1391C24.5231 30.1391 24.3053 30.3569 24.3053 30.6252V43.2641C24.3053 43.5324 24.5231 43.7502 24.7914 43.7502H27.7081C27.9764 43.7502 28.1942 43.5324 28.1942 43.2641V30.6252C28.1942 30.3569 27.9764 30.1391 27.7081 30.1391H24.7914Z" fill="black"/>
<path d="M43.8855 46.6668H41.8827C33.2339 46.6668 29.3975 43.7385 29.24 43.614L28.7422 43.2174L30.5641 40.9385L31.0502 41.3274C31.06 41.3351 34.3519 43.7501 41.8847 43.7501H43.8875C45.0677 43.7501 46.075 42.9062 46.283 41.7435L47.6441 34.0085C47.7725 33.2968 47.58 32.5754 47.1172 32.0232C46.6544 31.469 45.9739 31.1501 45.2486 31.1501H38.5986C38.0619 31.1501 37.57 30.8565 37.3152 30.3821C37.0605 29.9096 37.0858 29.336 37.3814 28.8887C37.3814 28.8868 38.2311 27.5179 38.2311 25.2954C38.2311 23.0768 37.3658 22.3593 36.9477 22.3593C36.938 22.3593 36.9302 22.3593 36.9244 22.3574C36.8544 22.5596 36.7494 23.0612 36.7494 24.2085C36.7494 28.8576 31.0697 31.9551 30.8266 32.0854L30.3269 32.346L28.9794 29.7599L29.4655 29.5071C30.6691 28.8576 33.8347 26.6176 33.8347 24.2085C33.8347 22.6626 33.8347 19.4446 36.9458 19.4446C38.97 19.4446 41.1458 21.2762 41.1458 25.2974C41.1458 26.4504 40.9805 27.4382 40.7647 28.2335H45.2486C46.8391 28.2335 48.3364 28.9335 49.3552 30.1526C50.3722 31.3699 50.7961 32.9624 50.5161 34.5199L49.155 42.2529C48.6941 44.8118 46.4794 46.6668 43.8855 46.6668Z" fill="black"/>
</svg>
