<svg viewBox="0 0 130 130" fill="none" xmlns="http://www.w3.org/2000/svg">
<rect x="0.0678711" y="0.51123" width="129" height="129" rx="64.5" fill="white"/>
<path d="M64.0547 10.186C53.3128 10.186 42.8123 13.3714 33.8807 19.3393C24.9492 25.3072 17.9877 33.7896 13.877 43.7138C9.76624 53.638 8.69064 64.5582 10.7863 75.0937C12.8819 85.6292 18.0548 95.3066 25.6505 102.902C33.2461 110.498 42.9235 115.671 53.459 117.766C63.9945 119.862 74.9147 118.786 84.8389 114.676C94.7631 110.565 103.246 103.603 109.213 94.6719C115.181 85.7404 118.367 75.2399 118.367 64.498C118.367 50.0935 112.644 36.2792 102.459 26.0937C92.2735 15.9082 78.4591 10.186 64.0547 10.186V10.186ZM64.8306 66.0498L59.3994 85.4469H89.6588C90.0586 85.4819 90.4334 85.6566 90.7172 85.9404C91.001 86.2242 91.1757 86.5988 91.2107 86.9986V86.9986L88.8831 95.5334C88.8482 95.9332 88.6735 96.308 88.3897 96.5918C88.1059 96.8756 87.7311 97.0503 87.3313 97.0852H40.0022L47.7611 70.7049L39.2263 73.8087L40.7782 67.6015L49.313 65.2739L60.1753 28.8072C60.2102 28.4074 60.385 28.0328 60.6687 27.749C60.9525 27.4653 61.3273 27.2906 61.7272 27.2556H73.3654C74.9172 27.2556 75.693 27.2555 75.693 28.8072L66.3823 59.8426L74.917 57.5151L73.3654 63.722L64.8306 66.0498Z" fill="#4055DC"/>
</svg>
