<svg viewBox="0 0 130 130" fill="none" xmlns="http://www.w3.org/2000/svg">
<rect x="0.0678711" y="0.51123" width="129" height="129" rx="64.5" fill="white"/>
<path d="M64.5675 120.911C95.4402 120.911 120.467 95.8836 120.467 65.0108C120.467 34.1381 95.4402 9.11084 64.5675 9.11084C33.6948 9.11084 8.66748 34.1381 8.66748 65.0108C8.66748 95.8836 33.6948 120.911 64.5675 120.911Z" fill="#0AC18E"/>
<path d="M82.0042 46.2412C79.1951 39.8708 72.7396 38.5088 64.837 39.8283L62.2974 29.9819L56.3101 31.5284L58.8072 41.3464C57.2323 41.7436 55.6149 42.0841 54.0117 42.5382L51.5146 32.7769L45.5274 34.3234L48.067 44.1698C46.7759 44.5386 35.979 47.3053 35.979 47.3053L37.6248 53.7182C37.6248 53.7182 42.023 52.4838 41.9804 52.5831C44.4207 51.9447 45.57 53.1648 46.1091 54.314L53.0895 81.2993C53.1746 82.0796 53.0327 83.4133 51.3586 83.8673C51.4579 83.924 47.0029 84.9881 47.0029 84.9881L47.6556 92.4651C47.6556 92.4651 58.3532 89.7268 59.7578 89.3721L62.3258 99.332L68.313 97.7855L65.745 87.7547C67.3908 87.3717 68.994 86.9744 70.5547 86.563L73.1085 96.537L79.0957 94.9905L76.5277 85.0449C85.7498 82.8032 92.262 76.9862 90.9284 68.0904C90.0771 62.7274 84.2175 58.3292 79.3511 57.8326C82.3447 55.1795 83.8628 51.3062 82.0042 46.2412ZM79.1241 69.722C80.3159 78.5326 68.0718 79.6109 64.0283 80.675L60.5097 67.4945C64.5674 66.4304 77.1094 61.9613 79.1241 69.722ZM71.7465 51.7744C73.0092 59.6061 62.5386 60.5141 59.1619 61.3796L55.9554 49.4192C59.3463 48.5822 69.1785 44.5244 71.7465 51.7744Z" fill="white"/>
</svg>
