<svg viewBox="0 0 130 130" fill="none" xmlns="http://www.w3.org/2000/svg">
<rect x="0.0678711" y="0.51123" width="129" height="129" rx="64.5" fill="white"/>
<path d="M64.567 120.296C95.1004 120.296 119.853 95.5438 119.853 65.0103C119.853 34.4769 95.1004 9.72461 64.567 9.72461C34.0335 9.72461 9.28125 34.4769 9.28125 65.0103C9.28125 95.5438 34.0335 120.296 64.567 120.296Z" fill="#E9E9E9"/>
<path d="M64.569 23.5464L63.8779 25.2741V80.2142L64.569 80.9053L90.1386 65.7018L64.569 23.5464Z" fill="#343434"/>
<path d="M64.5687 23.5464L38.999 65.7017L64.5687 80.9053V54.2991V23.5464Z" fill="#8C8C8C"/>
<path d="M64.5682 85.7421L64.2227 86.0877V105.438L64.5682 106.474L90.1378 70.5386L64.5682 85.7421Z" fill="#3C3C3B"/>
<path d="M64.5687 106.474V85.7421L38.999 70.5386L64.5687 106.474Z" fill="#8C8C8C"/>
<path d="M64.5693 80.9051L90.139 65.7015L64.5693 54.2988V80.9051Z" fill="#141414"/>
<path d="M38.999 65.7015L64.5687 80.9051V54.2988L38.999 65.7015Z" fill="#393939"/>
</svg>
