<?xml version="1.0" encoding="utf-8"?>
<svg viewBox="0 0 130 130" xmlns="http://www.w3.org/2000/svg">
  <path d="M 123.206 79.462 C 115.223 111.644 82.715 131.2 50.533 123.216 C 18.353 115.229 -1.2 82.639 6.785 50.537 C 14.768 18.355 47.276 -1.201 79.375 6.785 C 111.393 14.608 131.109 46.871 123.287 78.892 C 123.287 79.054 123.206 79.299 123.206 79.462 Z" fill="#F7931A" style="stroke: rgb(255, 255, 255); stroke-width: 9px;"/>
  <path d="M 91.677 55.835 C 92.572 47.931 86.464 43.613 78.561 40.925 L 81.167 30.414 L 74.16 28.621 L 71.554 39.132 C 69.844 38.235 68.051 38.235 66.34 37.422 L 68.947 26.91 L 62.836 25.199 L 60.229 36.606 C 58.519 36.606 57.623 35.711 55.83 35.711 L 47.11 33.102 L 45.238 40.029 C 46.704 40.272 48.172 40.517 49.636 40.925 C 52.245 41.82 53.142 43.531 53.142 44.43 L 49.636 57.545 L 45.238 75.063 C 45.238 75.959 44.343 76.775 42.632 76.775 L 38.23 75.878 L 34.726 82.884 L 43.446 84.597 C 44.914 84.839 46.378 85.082 47.845 85.491 L 45.238 96.002 L 52.245 97.712 L 54.852 87.203 C 56.562 88.099 58.355 88.099 60.067 88.913 L 56.562 99.424 L 63.57 101.136 L 66.177 90.625 C 77.583 92.336 85.404 91.52 88.907 81.906 C 91.759 76.367 89.559 69.523 84.019 66.67 C 83.612 66.427 83.204 66.262 82.796 66.101 C 87.684 64.878 91.108 60.723 91.677 55.835 Z M 76.768 76.854 C 74.16 85.571 61.044 81.255 56.646 79.462 L 60.148 64.554 C 64.547 66.346 78.561 68.952 76.768 76.854 Z M 78.561 55.835 C 76.85 63.738 65.444 59.337 61.939 58.444 L 65.444 45.323 C 68.947 46.139 80.272 47.931 78.561 55.835 Z" fill="white" style="stroke-width: 10px;"/>
</svg>