<svg viewBox="0 0 130 130" fill="none" xmlns="http://www.w3.org/2000/svg">
<rect x="0.0678711" y="0.51123" width="129" height="129" rx="64.5" fill="white"/>
<path d="M118.202 78.3355C110.846 107.986 80.8948 126.002 51.2439 118.646C21.5931 111.289 3.57736 81.2631 10.9338 51.6873C18.2902 22.0364 48.2413 4.02072 77.8171 11.3771C107.318 18.5834 125.484 48.3093 118.277 77.8101C118.277 77.9602 118.202 78.1854 118.202 78.3355Z" fill="#ECECEC"/>
<path d="M86.4495 37.3687H95.7746L76.3638 57.2445C69.3357 64.4406 57.9418 64.4406 50.9289 57.2445L31.5181 37.3687H40.8432L55.5839 52.4671C60.041 57.0191 67.2517 57.0191 71.6936 52.4671L86.4495 37.3687Z" fill="black"/>
<path d="M40.7216 92.6538H31.3965L50.929 72.6427C57.9571 65.4466 69.3511 65.4466 76.3792 72.6427L95.8965 92.6538H86.5714L71.709 77.4352C67.2518 72.8831 60.0412 72.8831 55.5992 77.4352L40.7216 92.6538Z" fill="black"/>
</svg>
