<svg viewBox="0 0 130 130" fill="none" xmlns="http://www.w3.org/2000/svg">
<rect x="0.0678711" y="0.51123" width="129" height="129" rx="64.5" fill="white"/>
<path d="M119.854 65.0104C119.854 95.5471 95.1054 120.296 64.5687 120.296C52.0969 120.32 39.9879 116.101 30.2311 108.332C27.6461 106.279 25.2469 104.003 23.0612 101.529C14.1814 91.4362 9.2832 78.4536 9.2832 65.0104C9.2832 51.5672 14.1814 38.5846 23.0612 28.4916C25.2469 26.018 27.6461 23.7417 30.2311 21.6889C39.9879 13.9203 52.0969 9.70117 64.5687 9.72471C95.1054 9.72471 119.854 34.4737 119.854 65.0104Z" fill="#BBA025"/>
<path d="M109.725 65.011C109.725 27.3692 84.479 21.6895 75.6031 21.6895H30.2299C27.645 23.7422 25.2457 26.0186 23.0601 28.4922V42.9831H34.4195V87.0389H23.0601V101.53C25.2457 104.003 27.645 106.28 30.2299 108.333H75.6247C84.5006 108.333 109.725 102.653 109.725 65.011ZM59.6221 87.0389V42.9831H69.2107C71.6942 42.9831 82.341 47.9502 82.341 65.011C82.341 82.0718 71.6942 87.0389 69.2107 87.0389H59.6221Z" fill="#F0EFEB"/>
</svg>
