<svg viewBox="0 0 130 130" fill="none" xmlns="http://www.w3.org/2000/svg">
<rect x="0.0678711" y="0.51123" width="129" height="129" rx="64.5" fill="white"/>
<path d="M64.5684 120.297C95.1019 120.297 119.854 95.5443 119.854 65.0108C119.854 34.4774 95.1019 9.7251 64.5684 9.7251C34.035 9.7251 9.28271 34.4774 9.28271 65.0108C9.28271 95.5443 34.035 120.297 64.5684 120.297Z" fill="black"/>
<path d="M100.892 48.6423C97.7566 46.449 94.4032 44.1107 91.1223 41.7905C91.0498 41.7361 90.9773 41.6818 90.8866 41.6274C90.5241 41.3555 90.1072 41.0655 89.5997 40.9023L89.5634 40.8842C80.7902 38.7634 71.872 36.5882 63.2438 34.4856C55.4132 32.5823 47.6006 30.679 39.77 28.7757C39.5706 28.7213 39.3712 28.667 39.1537 28.6126C38.4468 28.4132 37.6311 28.1957 36.761 28.3044C36.5073 28.3407 36.2897 28.4313 36.0903 28.5582L35.8728 28.7395C35.5284 29.0657 35.3472 29.4827 35.2565 29.7183L35.2021 29.8633V30.6971L35.2384 30.824C40.1869 44.6908 45.2623 58.7569 50.1565 72.3699C53.9268 82.847 57.8421 93.7047 61.6668 104.363C61.9024 105.088 62.5731 105.559 63.4069 105.632H63.5882C64.3676 105.632 65.0564 105.251 65.4008 104.635L79.757 83.6989C83.2554 78.6054 86.7538 73.4937 90.2522 68.4002C91.6842 66.3156 93.1162 64.213 94.5482 62.1284C96.9046 58.6844 99.3336 55.1316 101.744 51.6694L101.871 51.4882V51.2707C101.926 50.6362 101.944 49.3311 100.892 48.6423ZM84.0711 56.2736C80.6996 58.0318 77.2555 59.8445 73.7934 61.639C75.8054 59.482 77.8356 57.3068 79.8476 55.1497C82.3672 52.4308 84.9955 49.6212 87.5695 46.8659L87.6239 46.8116C87.8414 46.5215 88.1133 46.2496 88.4033 45.9596C88.6027 45.7602 88.8202 45.5608 89.0196 45.3252C90.361 46.2496 91.7204 47.1922 93.0256 48.1167C93.9681 48.7873 94.9288 49.458 95.9077 50.1287C91.9198 52.1589 87.932 54.2434 84.0711 56.2736ZM75.4066 55.4035C72.8145 58.2131 70.1318 61.0952 67.4672 63.9411C62.3012 57.6693 57.0264 51.3069 51.9147 45.162C49.5946 42.3706 47.2562 39.561 44.9361 36.7695L44.9179 36.7514C44.3923 36.1532 43.8847 35.5006 43.3772 34.8843C43.0509 34.4674 42.7065 34.0686 42.3621 33.6517C44.4648 34.1955 46.5856 34.7031 48.6701 35.1925C50.5009 35.6275 52.4042 36.0807 54.2712 36.552C64.7845 39.1078 75.316 41.6636 85.8293 44.2195C82.3309 47.9535 78.8144 51.742 75.4066 55.4035ZM66.289 90.732C66.4884 88.8287 66.7059 86.871 66.8872 84.9496C67.0503 83.4089 67.2135 81.8319 67.3766 80.3274C67.6304 77.9166 67.9023 75.4151 68.1198 72.968L68.1742 72.533C68.3554 70.9741 68.5367 69.3609 68.6455 67.7476C68.8449 67.6389 69.0624 67.5301 69.298 67.4395C69.5699 67.3126 69.8418 67.2038 70.1137 67.0407C74.3009 64.8474 78.4881 62.6541 82.6935 60.4789C86.8807 58.3037 91.1767 56.0561 95.4364 53.8265C91.5573 59.4457 87.6601 65.1193 83.8898 70.6479C80.6452 75.3789 77.3099 80.2549 73.9928 85.0584C72.6877 86.9798 71.3282 88.9375 70.0412 90.8226C68.5911 92.9253 67.1047 95.0823 65.6546 97.2394C65.8359 95.0642 66.0534 92.8709 66.289 90.732ZM41.0207 37.9296C40.7851 37.277 40.5313 36.6064 40.3138 35.9719C45.208 41.8812 50.1383 47.8266 54.9419 53.5909C57.4252 56.5817 59.9085 59.5545 62.3918 62.5635C62.8813 63.1254 63.3707 63.7235 63.842 64.3036C64.4583 65.0468 65.0746 65.8262 65.7452 66.5694C65.5277 68.4364 65.3465 70.3216 65.1471 72.1342C65.0202 73.4031 64.8933 74.6719 64.7483 75.9589V75.977C64.6939 76.7927 64.5851 77.6084 64.4945 78.406C64.3676 79.5117 64.0776 82.0132 64.0776 82.0132L64.0595 82.14C63.7332 85.8016 63.3344 89.4994 62.9538 93.0884C62.7906 94.5748 62.6456 96.0974 62.4825 97.62C62.3918 97.3481 62.2831 97.0762 62.1924 96.8225C61.9205 96.0974 61.6487 95.3361 61.3949 94.5929L59.4553 89.2094C53.3105 72.1161 47.1656 55.041 41.0207 37.9296Z" fill="white"/>
</svg>
