<svg width="70" height="71" viewBox="0 0 70 71" fill="none" xmlns="http://www.w3.org/2000/svg">
<path d="M52.4651 7.96779C39.0173 8.22057 29.6529 1.42668 23.172 1.54724C16.6912 1.6678 3.15204 5.65002 3.7101 35.4583C4.26815 65.2667 22.6568 69.2995 29.7851 69.1672C63.1595 68.5431 76.2787 7.52252 52.4651 7.96779Z" fill="#EFEFEF"/>
<path d="M60.0347 58.113H63.9236V60.0575H60.0347V58.113Z" fill="#A4AFC1"/>
<path d="M48.854 58.113H52.7429V60.0575H48.854V58.113Z" fill="#A4AFC1"/>
<path d="M55.6597 51.3074H57.6041V55.1963H55.6597V51.3074Z" fill="#A4AFC1"/>
<path d="M55.6597 62.488H57.6041V66.3769H55.6597V62.488Z" fill="#A4AFC1"/>
<path d="M60.1686 15.8621C58.5606 15.8621 57.252 14.5535 57.252 12.9455C57.252 11.3374 58.5606 10.0288 60.1686 10.0288C61.7767 10.0288 63.0853 11.3374 63.0853 12.9455C63.0853 14.5535 61.7767 15.8621 60.1686 15.8621ZM60.1686 11.9733C59.6339 11.9733 59.1964 12.4088 59.1964 12.9455C59.1964 13.4821 59.6339 13.9177 60.1686 13.9177C60.7033 13.9177 61.1408 13.4821 61.1408 12.9455C61.1408 12.4088 60.7053 11.9733 60.1686 11.9733Z" fill="#A4AFC1"/>
<path d="M30.1388 45.8825C38.4614 45.8825 45.2082 39.1357 45.2082 30.8131C45.2082 22.4905 38.4614 15.7437 30.1388 15.7437C21.8162 15.7437 15.0693 22.4905 15.0693 30.8131C15.0693 39.1357 21.8162 45.8825 30.1388 45.8825Z" fill="#FEB46D"/>
<path d="M19.4443 30.8131C19.4443 23.2356 25.0424 16.9823 32.3263 15.9206C31.6107 15.8156 30.8835 15.7437 30.1388 15.7437C21.8166 15.7437 15.0693 22.4909 15.0693 30.8131C15.0693 39.1353 21.8166 45.8825 30.1388 45.8825C30.8835 45.8825 31.6107 45.8106 32.3263 45.7056C25.0424 44.6439 19.4443 38.3906 19.4443 30.8131Z" fill="#FF7F2E"/>
<path d="M13.8988 58.8616L12.3491 56.3922L33.2519 43.2672C33.8216 42.9055 34.5761 42.9891 35.0583 43.4694L41.8055 50.2166L55.8444 36.1777L57.9075 38.2408L42.838 53.3102C42.2916 53.8566 41.3233 53.8566 40.775 53.3102L33.8197 46.355L13.8988 58.8616Z" fill="black"/>
<path d="M58.3333 44.9881H55.4166V38.6667H49.0972V35.752H56.8749C57.6799 35.752 58.3333 36.4053 58.3333 37.2103V44.9881Z" fill="black"/>
<path d="M23.8483 46.1819C17.6281 43.623 13.6108 37.6205 13.6108 30.8908C13.6108 21.7772 21.025 14.363 30.1386 14.363C39.2522 14.363 46.6664 21.7772 46.6664 30.8908C46.6664 35.9678 44.3894 40.6869 40.4169 43.8369L38.6047 41.5503C41.8753 38.9583 43.7497 35.0714 43.7497 30.8908C43.7497 23.3853 37.6422 17.2797 30.1386 17.2797C22.635 17.2797 16.5275 23.3853 16.5275 30.8908C16.5275 36.4344 19.837 41.3772 24.9567 43.485L23.8483 46.1819Z" fill="black"/>
<path d="M30.8778 37.6963H26.7362V34.7797H30.8778C31.5428 34.7797 32.0834 34.2391 32.0834 33.5741C32.0834 32.8896 31.5428 32.3491 30.8778 32.3491H29.4001C27.127 32.3491 25.2778 30.4999 25.2778 28.2269C25.2778 25.9344 27.127 24.0852 29.4001 24.0852H33.5417V27.0019H29.4001C28.7351 27.0019 28.1945 27.5424 28.1945 28.2074C28.1945 28.8919 28.7351 29.4324 29.4001 29.4324H30.8778C33.1509 29.4324 35.0001 31.2816 35.0001 33.5547C35.0001 35.8472 33.1509 37.6963 30.8778 37.6963Z" fill="black"/>
<path d="M28.6807 22.627H31.5973V25.5436H28.6807V22.627Z" fill="black"/>
<path d="M28.6807 36.238H31.5973V39.1547H28.6807V36.238Z" fill="black"/>
</svg>
