<svg width="70" height="71" viewBox="0 0 70 71" fill="none" xmlns="http://www.w3.org/2000/svg">
<path d="M22.4748 60.4182C31.0681 69.0115 47.752 66.8885 57.3848 61.761C71.1519 54.4326 61.4129 21.4803 50.6714 12.0814C39.9299 2.6826 13.076 6.71067 7.70523 13.4241C2.33446 20.1375 9.04793 29.5364 21.1322 36.2499C33.2163 42.9633 11.7333 49.6767 22.4748 60.4182Z" fill="#EFEFEF"/>
<path fill-rule="evenodd" clip-rule="evenodd" d="M8.75016 37.3659C9.2871 37.3659 9.72239 36.9306 9.72239 36.3937C9.72239 35.8569 9.2871 35.4215 8.75016 35.4215C8.21322 35.4215 7.77794 35.8569 7.77794 36.3937C7.77794 36.9306 8.21322 37.3659 8.75016 37.3659ZM8.75016 39.3104C10.361 39.3104 11.6668 38.0045 11.6668 36.3937C11.6668 34.7829 10.361 33.4771 8.75016 33.4771C7.13933 33.4771 5.8335 34.7829 5.8335 36.3937C5.8335 38.0045 7.13933 39.3104 8.75016 39.3104Z" fill="#A4AFC1"/>
<path d="M35.8552 55.5445H53.391C55.2703 55.5445 56.7938 54.021 56.7938 52.1417V45.0021C56.7938 43.81 56.1358 42.7152 55.0831 42.1558C46.9584 37.8384 37.6179 36.7736 28.8936 38.9613L31.0546 39.4245C33.6011 39.9701 35.4078 41.8634 36.0408 44.1129L37.0678 43.5412C37.312 43.4053 37.5827 43.3236 37.8613 43.3017C40.478 43.0963 43.1049 44.0178 45.0332 45.9117L45.2535 46.1281C46.0509 46.9111 46.413 48.036 46.2219 49.1372C46.0309 50.2385 45.3113 51.1757 44.2969 51.6445L36.0443 55.4587C35.9814 55.4879 35.9184 55.5165 35.8552 55.5445Z" fill="#F3F3F1"/>
<path fill-rule="evenodd" clip-rule="evenodd" d="M20.483 39.6138C20.8134 39.387 21.2223 39.3062 21.6139 39.39L30.6468 41.3257C32.984 41.8266 34.447 43.9388 34.3383 46.1302C32.3324 47.0408 30.095 47.3412 27.9077 46.9824L26.1767 46.6986C25.9117 46.655 25.6618 46.8347 25.6183 47.0995C25.5749 47.3645 25.7544 47.6144 26.0194 47.6579L27.7504 47.9418C30.4561 48.3856 33.2325 47.9014 35.6283 46.5677L38.0133 45.24C40.0776 45.0781 42.1497 45.8053 43.6705 47.299L43.8908 47.5152C44.2324 47.8508 44.3876 48.3329 44.3057 48.805C44.2239 49.2769 43.9155 49.6786 43.4807 49.8795L35.2281 53.6937C32.5271 54.942 29.4819 55.2356 26.5921 54.5261L19.3022 52.736C18.5661 52.5554 18.0912 51.841 18.2094 51.0924L19.868 40.5885C19.9304 40.1928 20.1528 39.8403 20.483 39.6138Z" fill="#F3F3F1"/>
<path fill-rule="evenodd" clip-rule="evenodd" d="M21.6139 39.39C21.2223 39.3062 20.8134 39.387 20.483 39.6138C20.1528 39.8403 19.9304 40.1928 19.868 40.5885L18.2094 51.0924C18.0912 51.841 18.5661 52.5554 19.3022 52.736L26.5921 54.5261C28.2635 54.9364 29.9872 55.0112 31.6661 54.7598C31.269 54.7003 30.8735 54.6224 30.4809 54.5261L23.191 52.736C22.4551 52.5554 21.98 51.841 22.0982 51.0924L23.7569 40.5885C23.7961 40.3392 23.899 40.1071 24.0524 39.9126L21.6139 39.39ZM34.5785 47.0874C35.8358 46.9778 37.0701 46.6556 38.2272 46.1302C38.2424 45.8269 38.2272 45.5251 38.1839 45.2287C39.1856 45.1739 40.1855 45.3275 41.1196 45.6758L39.5172 46.5677C37.128 47.8977 34.3605 48.3828 31.6618 47.9455C32.6626 47.7834 33.6428 47.496 34.5785 47.0874ZM31.6593 46.9599L30.0656 46.6986C29.8006 46.655 29.5507 46.8347 29.5072 47.0995C29.5056 47.109 29.5044 47.1184 29.5035 47.1279C30.2274 47.1417 30.9494 47.0851 31.6593 46.9599Z" fill="#D6DBE1"/>
<path fill-rule="evenodd" clip-rule="evenodd" d="M14.6746 36.7268C13.8692 36.7268 13.2163 37.3798 13.2163 38.1851V51.4531C13.2163 52.2584 13.8692 52.9114 14.6746 52.9114H18.655C19.3293 52.9114 19.9157 52.449 20.073 51.7933L22.7266 40.7368C22.8693 40.1424 22.6261 39.5221 22.1176 39.183L21.5605 38.8116C19.5214 37.4521 17.1254 36.7268 14.6746 36.7268Z" fill="#FEB46D"/>
<path fill-rule="evenodd" clip-rule="evenodd" d="M13.2163 38.1851C13.2163 37.3798 13.8692 36.7268 14.6746 36.7268C15.6697 36.7268 16.6558 36.8464 17.6126 37.0793C17.3019 37.3469 17.1052 37.743 17.1052 38.1851V51.4531C17.1052 52.2584 17.7581 52.9114 18.5635 52.9114H14.6746C13.8692 52.9114 13.2163 52.2584 13.2163 51.4531V38.1851Z" fill="#FF7F2E"/>
<path fill-rule="evenodd" clip-rule="evenodd" d="M37.5218 14.7112C31.8839 14.7112 27.3135 19.2816 27.3135 24.9195C27.3135 30.5574 31.8839 35.1278 37.5218 35.1278C43.1597 35.1278 47.7301 30.5574 47.7301 24.9195C47.7301 19.2816 43.1597 14.7112 37.5218 14.7112Z" fill="#F3F3F1"/>
<path fill-rule="evenodd" clip-rule="evenodd" d="M27.3135 24.9195C27.3135 19.2816 31.8839 14.7112 37.5218 14.7112C38.3593 14.7112 39.1734 14.8121 39.9524 15.0023C35.4879 16.0927 32.1746 20.1193 32.1746 24.9195C32.1746 29.7198 35.4879 33.7463 39.9524 34.8368C39.1734 35.0269 38.3593 35.1278 37.5218 35.1278C31.8839 35.1278 27.3135 30.5574 27.3135 24.9195Z" fill="#D6DBE1"/>
<path fill-rule="evenodd" clip-rule="evenodd" d="M37.5218 17.6278C41.5488 17.6278 44.8135 20.8924 44.8135 24.9195C44.8135 28.9467 41.5488 32.2112 37.5218 32.2112C33.4947 32.2112 30.2301 28.9467 30.2301 24.9195C30.2301 20.8924 33.4947 17.6278 37.5218 17.6278ZM47.7301 24.9195C47.7301 19.2816 43.1597 14.7112 37.5218 14.7112C31.8839 14.7112 27.3135 19.2816 27.3135 24.9195C27.3135 30.5574 31.8839 35.1278 37.5218 35.1278C43.1597 35.1278 47.7301 30.5574 47.7301 24.9195Z" fill="black"/>
<path fill-rule="evenodd" clip-rule="evenodd" d="M36.8935 40.7869C42.6602 40.6282 48.4575 41.9428 53.7046 44.7312C53.8045 44.7843 53.8672 44.8885 53.8672 45.0018V52.1414C53.8672 52.41 53.6496 52.6276 53.3811 52.6276H45.1172V55.5442H53.3811C55.2604 55.5442 56.7838 54.0208 56.7838 52.1414V45.0018C56.7838 43.8097 56.1258 42.715 55.0733 42.1556C49.3739 39.1269 43.0763 37.6989 36.8132 37.8714L35.3555 37.9114L35.4356 40.8269L36.8935 40.7869Z" fill="black"/>
<path fill-rule="evenodd" clip-rule="evenodd" d="M13.2163 38.1873C13.2163 37.3819 13.8692 36.729 14.6746 36.729C17.1254 36.729 19.5214 37.4545 21.5605 38.8138L20.7515 40.0272L21.5605 38.8138L22.1176 39.1852C22.6261 39.5243 22.8693 40.1446 22.7266 40.739L20.073 51.7955C19.9157 52.4514 19.3293 52.9136 18.655 52.9136H14.6746C13.8692 52.9136 13.2163 52.2606 13.2163 51.4553V38.1873ZM16.133 39.7583V49.9969H17.5053L19.6515 41.0542C18.5734 40.3908 17.3766 39.9515 16.133 39.7583Z" fill="black"/>
<path fill-rule="evenodd" clip-rule="evenodd" d="M36.1401 45.6434C38.7607 44.7076 41.6855 45.3514 43.6708 47.3013L43.8911 47.5175C44.2329 47.8531 44.3879 48.3353 44.306 48.8073C44.2242 49.2792 43.9158 49.6809 43.481 49.8818L35.2286 53.696C32.5273 54.9445 29.4821 55.2379 26.5923 54.5284L17.8862 52.3907L18.5817 49.5582L27.2878 51.6957C29.5354 52.2478 31.904 52.0195 34.0049 51.0484L39.8772 48.3344C38.9932 48.0586 38.0268 48.0666 37.1211 48.3902C34.0695 49.48 30.8053 49.8419 27.5892 49.4472L25.0611 49.1366L25.4165 46.2418L27.9447 46.5521C30.7099 46.8916 33.5163 46.5805 36.1401 45.6434Z" fill="black"/>
<path fill-rule="evenodd" clip-rule="evenodd" d="M20.1888 39.0867L30.6476 41.3278C33.7128 41.9847 35.2747 45.4139 33.7585 48.1575L33.0532 49.434L30.5004 48.0231L31.2058 46.7468C31.7757 45.7155 31.1885 44.4267 30.0364 44.1798L19.5776 41.9386L20.1888 39.0867Z" fill="black"/>
</svg>
