<svg width="70" height="71" viewBox="0 0 70 71" fill="none" xmlns="http://www.w3.org/2000/svg">
<path d="M8.10269 16.4166C8.10269 29.8663 1.13574 39.1024 1.13574 45.5832C1.13574 52.0641 4.8613 65.6752 34.6755 65.6752C64.4896 65.6752 68.8646 47.3643 68.8646 40.236C68.8666 6.85573 8.10269 -7.40288 8.10269 16.4166Z" fill="#EFEFEF"/>
<path d="M15.9167 14.9613C14.3086 14.9613 13 13.6527 13 12.0446C13 10.4365 14.3086 9.12793 15.9167 9.12793C17.5247 9.12793 18.8333 10.4365 18.8333 12.0446C18.8333 13.6527 17.5247 14.9613 15.9167 14.9613ZM15.9167 11.0724C15.3819 11.0724 14.9444 11.5099 14.9444 12.0446C14.9444 12.5793 15.3819 13.0168 15.9167 13.0168C16.4514 13.0168 16.8889 12.5793 16.8889 12.0446C16.8889 11.5099 16.4514 11.0724 15.9167 11.0724Z" fill="#A4AFC1"/>
<path d="M52.014 46.7947C49.4901 46.7947 46.5598 48.0158 43.7501 48.8772V48.0391C43.7501 46.1919 42.4473 44.5975 40.639 44.228L21.914 40.3975L19.0557 50.9558C22.789 52.7058 32.3168 57.003 36.9446 57.003C42.7779 57.003 56.8751 49.2252 56.8751 49.2252C56.8751 49.2252 55.9029 46.7947 52.014 46.7947Z" fill="#F3F3F1"/>
<path d="M13.125 36.5862V53.114H18.4722L22.3611 38.7523C22.3611 38.7523 19.5261 36.5862 13.125 36.5862Z" fill="#FEB46D"/>
<path d="M23.4307 50.9558L26.0596 41.2452L21.914 40.3975L19.0557 50.9558C22.789 52.7058 32.3168 57.003 36.9445 57.003C37.5571 57.003 38.2745 56.9019 39.0407 56.7483C34.0609 55.8111 26.6273 52.455 23.4307 50.9558Z" fill="#D5DBE1"/>
<path d="M13.125 36.5862V53.114H17.5V36.9751C16.2828 36.7476 14.8419 36.5862 13.125 36.5862Z" fill="#FF7F2E"/>
<path d="M39.9001 16.3945C39.9001 15.8941 40.0292 15.4333 40.2293 15.0093C39.7026 13.8902 38.5835 13.1028 37.2668 13.1028C35.4498 13.1028 33.9751 14.5775 33.9751 16.3945C33.9751 18.2115 35.4498 19.6862 37.2668 19.6862C38.5835 19.6862 39.7026 18.8988 40.2293 17.7796C40.0292 17.3556 39.9001 16.8948 39.9001 16.3945Z" fill="#FF7F2E"/>
<path d="M55.6999 32.1948C55.6999 31.6944 55.829 31.2336 56.0291 30.8096C55.5024 29.6904 54.3833 28.9031 53.0666 28.9031C51.2496 28.9031 49.7749 30.3778 49.7749 32.1948C49.7749 34.0118 51.2496 35.4864 53.0666 35.4864C54.3833 35.4864 55.5024 34.6991 56.0291 33.5799C55.829 33.1559 55.6999 32.6951 55.6999 32.1948Z" fill="#FF7F2E"/>
<path d="M37.2667 21.6613C34.3621 21.6613 32 19.2992 32 16.3946C32 13.49 34.3621 11.1279 37.2667 11.1279C40.1713 11.1279 42.5334 13.49 42.5334 16.3946C42.5334 19.2992 40.1713 21.6613 37.2667 21.6613ZM37.2667 15.078C36.5425 15.078 35.95 15.6705 35.95 16.3946C35.95 17.1188 36.5425 17.7113 37.2667 17.7113C37.9909 17.7113 38.5834 17.1188 38.5834 16.3946C38.5834 15.6705 37.9909 15.078 37.2667 15.078Z" fill="black"/>
<path d="M53.067 37.4611C50.1624 37.4611 47.8003 35.099 47.8003 32.1944C47.8003 29.2898 50.1624 26.9277 53.067 26.9277C55.9716 26.9277 58.3337 29.2898 58.3337 32.1944C58.3337 35.099 55.9716 37.4611 53.067 37.4611ZM53.067 30.8778C52.3428 30.8778 51.7503 31.4703 51.7503 32.1944C51.7503 32.9186 52.3428 33.5111 53.067 33.5111C53.7912 33.5111 54.3837 32.9186 54.3837 32.1944C54.3837 31.4703 53.7912 30.8778 53.067 30.8778Z" fill="black"/>
<path d="M35.041 34.2852L52.1725 11.9128L55.3088 14.3144L38.1773 36.6868L35.041 34.2852Z" fill="black"/>
<path d="M18.4721 54.5724H13.1248C12.3198 54.5724 11.6665 53.919 11.6665 53.114V36.5863C11.6665 35.7813 12.3198 35.1279 13.1248 35.1279C19.9421 35.1279 23.1154 37.4943 23.2457 37.5954C23.7162 37.9552 23.9243 38.5638 23.7687 39.1354L19.8798 53.4971C19.7087 54.131 19.1312 54.5724 18.4721 54.5724ZM14.5832 51.6557H17.3559L20.6576 39.4621C19.6407 38.9818 17.6534 38.2663 14.5832 38.0874V51.6557Z" fill="black"/>
<path d="M36.9442 58.4612C32.5478 58.4612 24.4531 55.0973 18.4351 52.274L19.6737 49.6353C27.6828 53.392 33.9789 55.5445 36.9442 55.5445C40.8876 55.5445 49.8398 51.2862 54.5317 48.8284C53.9912 48.5192 53.1862 48.2528 52.0137 48.2528C50.3065 48.2528 48.1948 48.9548 46.1551 49.6373C43.8937 50.3917 41.5564 51.1695 39.3748 51.1695C35.2778 51.1695 29.8684 49.2192 29.6409 49.1376L30.6364 46.3959C30.687 46.4153 35.7931 48.2528 39.3748 48.2528C41.082 48.2528 43.1937 47.5509 45.2334 46.8684C47.4948 46.114 49.832 45.3362 52.0137 45.3362C56.834 45.3362 58.1737 48.5465 58.2281 48.6845C58.5023 49.369 58.2223 50.1467 57.5787 50.5026C56.9915 50.8273 43.0828 58.4612 36.9442 58.4612Z" fill="black"/>
<path d="M45.2082 48.9141H42.2915V48.0391C42.2915 46.8899 41.4729 45.8885 40.3471 45.6552L21.6201 41.8247L22.2054 38.9683L40.9323 42.7988C43.4096 43.3063 45.2082 45.5094 45.2082 48.0371V48.9141Z" fill="black"/>
</svg>
