<svg width="70" height="71" viewBox="0 0 70 71" fill="none" xmlns="http://www.w3.org/2000/svg">
<path d="M26.0768 68.4128C38.3229 62.8537 49.6143 65.3814 55.5157 62.7039C61.4171 60.0245 72.271 51.0062 59.9491 23.8578C47.6271 -3.29052 29.1471 0.289203 22.6546 3.23698C-7.74096 17.0309 4.38655 78.2556 26.0768 68.4128Z" fill="#EFEFEF"/>
<path d="M36.9441 30.4047C41.5081 30.4047 45.208 26.7049 45.208 22.1408C45.208 17.5768 41.5081 13.877 36.9441 13.877C32.38 13.877 28.6802 17.5768 28.6802 22.1408C28.6802 26.7049 32.38 30.4047 36.9441 30.4047Z" fill="#FEB46D"/>
<path d="M33.0552 22.1408C33.0552 18.3395 35.6374 15.17 39.1316 14.2075C38.4296 14.0131 37.7063 13.877 36.9441 13.877C32.3805 13.877 28.6802 17.5772 28.6802 22.1408C28.6802 26.7045 32.3805 30.4047 36.9441 30.4047C37.7063 30.4047 38.4296 30.2686 39.1316 30.0742C35.6374 29.1117 33.0552 25.9422 33.0552 22.1408Z" fill="#FF7F2E"/>
<path d="M46.6662 40.1271C51.2302 40.1271 54.9301 36.4273 54.9301 31.8633C54.9301 27.2992 51.2302 23.5994 46.6662 23.5994C42.1022 23.5994 38.4023 27.2992 38.4023 31.8633C38.4023 36.4273 42.1022 40.1271 46.6662 40.1271Z" fill="#F3F3F1"/>
<path d="M42.7773 31.8633C42.7773 28.0619 45.3596 24.8924 48.8537 23.9299C48.1518 23.7374 47.4285 23.5994 46.6662 23.5994C42.1026 23.5994 38.4023 27.2996 38.4023 31.8633C38.4023 36.4269 42.1026 40.1271 46.6662 40.1271C47.4285 40.1271 48.1518 39.991 48.8537 39.7966C45.3596 38.8341 42.7773 35.6646 42.7773 31.8633Z" fill="#D5DBE1"/>
<path d="M22.3611 39.3824L21.9139 41.0157L19.0556 51.574L18.4722 53.7324H13.125V37.2046C19.5417 37.2046 22.3611 39.3824 22.3611 39.3824Z" fill="#FEB46D"/>
<path d="M13.125 37.2046V53.7324H17.5V37.5935C16.2828 37.364 14.8419 37.2046 13.125 37.2046Z" fill="#FF7F2E"/>
<path d="M56.8746 49.8434C56.8746 49.8434 42.7774 57.6212 36.9441 57.6212C32.3163 57.6212 22.7885 53.324 19.0552 51.574L21.9135 41.0156L40.6385 44.8462C42.4468 45.2156 43.7496 46.8101 43.7496 48.6573V49.5128C46.5496 48.6378 49.4857 47.4128 52.0135 47.4128C55.9024 47.4128 56.8746 49.8434 56.8746 49.8434Z" fill="#F3F3F1"/>
<path d="M23.4302 52.5462L26.2885 41.9878L41.3482 45.0678C41.1207 44.9745 40.8855 44.8967 40.6385 44.8462L21.9135 41.0156L19.0552 51.5739C22.5338 53.2053 31.0407 57.0437 35.9291 57.5589C31.346 56.1745 26.0085 53.7537 23.4302 52.5462Z" fill="#D5DBE1"/>
<path d="M6.93555 24.4207L9.68541 21.6708L11.0603 23.0457L8.31048 25.7956L6.93555 24.4207Z" fill="#A4AFC1"/>
<path d="M14.8403 16.5173L17.5902 13.7675L18.9651 15.1424L16.2153 17.8923L14.8403 16.5173Z" fill="#A4AFC1"/>
<path d="M14.8403 23.3796L16.2153 22.0047L18.9651 24.7546L17.5902 26.1295L14.8403 23.3796Z" fill="#A4AFC1"/>
<path d="M6.93506 15.4839L8.30999 14.109L11.0598 16.8588L9.68492 18.2337L6.93506 15.4839Z" fill="#A4AFC1"/>
<path d="M58.3332 63.9464C56.7251 63.9464 55.4165 62.6378 55.4165 61.0297C55.4165 59.4216 56.7251 58.113 58.3332 58.113C59.9412 58.113 61.2498 59.4216 61.2498 61.0297C61.2498 62.6378 59.9412 63.9464 58.3332 63.9464ZM58.3332 60.0575C57.7984 60.0575 57.3609 60.495 57.3609 61.0297C57.3609 61.5644 57.7984 62.0019 58.3332 62.0019C58.8679 62.0019 59.3054 61.5644 59.3054 61.0297C59.3054 60.495 58.8679 60.0575 58.3332 60.0575Z" fill="#A4AFC1"/>
<path d="M46.6666 41.5853C41.3057 41.5853 36.9443 37.2239 36.9443 31.8631C36.9443 26.5023 41.3057 22.1409 46.6666 22.1409C52.0274 22.1409 56.3888 26.5023 56.3888 31.8631C56.3888 37.2239 52.0274 41.5853 46.6666 41.5853ZM46.6666 25.0575C42.9138 25.0575 39.861 28.1103 39.861 31.8631C39.861 35.6159 42.9138 38.6686 46.6666 38.6686C50.4193 38.6686 53.4721 35.6159 53.4721 31.8631C53.4721 28.1103 50.4193 25.0575 46.6666 25.0575Z" fill="black"/>
<path d="M32.618 30.854C29.2891 29.1915 27.2222 25.8509 27.2222 22.1409C27.2222 16.7801 31.5836 12.4187 36.9444 12.4187C40.6563 12.4187 43.9949 14.4856 45.6555 17.8145L43.0461 19.1173C41.8813 16.784 39.5441 15.3354 36.9444 15.3354C33.1916 15.3354 30.1388 18.3881 30.1388 22.1409C30.1388 24.7406 31.5874 27.0798 33.9208 28.2465L32.618 30.854Z" fill="black"/>
<path d="M18.4721 55.1964H13.1248C12.3198 55.1964 11.6665 54.5431 11.6665 53.7381V37.2103C11.6665 36.4053 12.3198 35.752 13.1248 35.752C19.9421 35.752 23.1154 38.1183 23.2457 38.2195C23.7162 38.5792 23.9243 39.1878 23.7687 39.7595L19.8798 54.1211C19.7087 54.755 19.1312 55.1964 18.4721 55.1964ZM14.5832 52.2797H17.3559L20.6576 40.0861C19.6407 39.6058 17.6534 38.8903 14.5832 38.7114V52.2797Z" fill="black"/>
<path d="M36.944 59.0855C32.2599 59.0855 23.3116 55.1966 18.396 52.8807L19.6385 50.2421C27.6302 54.0105 33.9379 56.1707 36.944 56.1707C40.8874 56.1707 49.8396 51.9124 54.5315 49.4546C53.991 49.1455 53.186 48.8791 52.0135 48.8791C50.3063 48.8791 48.1946 49.581 46.1549 50.2635C43.8935 51.018 41.5563 51.7957 39.3746 51.7957C35.2777 51.7957 29.8682 49.8455 29.6407 49.7638L30.6363 47.0221C30.6868 47.0416 35.7929 48.8791 39.3746 48.8791C41.0818 48.8791 43.1935 48.1771 45.2332 47.4946C47.4946 46.7402 49.8318 45.9624 52.0135 45.9624C56.8338 45.9624 58.1735 49.1727 58.2279 49.3107C58.5021 49.9952 58.2221 50.773 57.5785 51.1288C56.9913 51.4516 43.0827 59.0855 36.944 59.0855Z" fill="black"/>
<path d="M45.2082 49.5381H42.2915V48.6631C42.2915 47.512 41.4748 46.5106 40.349 46.2812L21.6201 42.4467L22.2054 39.5903L40.9323 43.4228C43.4096 43.9264 45.2082 46.1314 45.2082 48.6612V49.5381Z" fill="black"/>
</svg>
