<svg width="70" height="71" viewBox="0 0 70 71" fill="none" xmlns="http://www.w3.org/2000/svg">
<path d="M6.69278 47.1911C18.4781 53.672 23.2147 64.2264 28.8925 67.3492C34.5722 70.4719 48.2942 73.7639 62.6597 47.6383C77.0253 21.5128 63.0895 8.85641 56.8419 5.42057C27.5936 -10.66 -14.1789 35.715 6.69278 47.1911Z" fill="#EFEFEF"/>
<path d="M35.0001 50.3354C35.0001 50.3354 45.6946 45.8223 45.6946 36.7943C45.6946 33.1834 45.6946 28.6685 45.6946 28.6685L35.0001 25.0576L24.3057 28.6685V36.7943C24.3057 45.8223 35.0001 50.3354 35.0001 50.3354Z" fill="#FEB46D"/>
<path d="M36.9445 49.3243C35.7973 50.0048 35.0001 50.3354 35.0001 50.3354C35.0001 50.3354 24.3057 45.8243 24.3057 36.8021C24.3057 31.3771 24.3057 28.6743 24.3057 28.6743L35.0001 25.0576L36.9445 25.7187L28.1945 28.6743V36.8021C28.1945 43.3743 33.8723 47.5548 36.9445 49.3243Z" fill="#FF7F2E"/>
<path d="M53.4723 24.5713H46.1807V21.6546H52.014V15.8213H54.9307V23.113C54.9307 23.918 54.2773 24.5713 53.4723 24.5713Z" fill="black"/>
<path d="M35.0001 59.5715C21.8654 59.5715 11.1807 48.8868 11.1807 35.7521C11.1807 22.6173 21.8654 11.9326 35.0001 11.9326C42.5426 11.9326 49.7059 15.5648 54.1626 21.649L51.8098 23.3737C47.9015 18.0362 41.6171 14.8493 35.0001 14.8493C23.4734 14.8493 14.0973 24.2254 14.0973 35.7521C14.0973 47.2787 23.4734 56.6549 35.0001 56.6549C46.5268 56.6549 55.9029 47.2787 55.9029 35.7521C55.9029 34.7721 55.8446 33.8873 55.724 33.0415L58.6096 32.6273C58.7515 33.6093 58.8196 34.6321 58.8196 35.7501C58.8196 48.8868 48.1348 59.5715 35.0001 59.5715Z" fill="black"/>
<path d="M34.9999 51.7936C34.8074 51.7936 34.6149 51.7547 34.4322 51.6788C33.9577 51.4786 22.8472 46.6758 22.8472 36.7941V28.6683C22.8472 28.0422 23.2458 27.488 23.8388 27.2877L34.5333 23.6769C34.8347 23.5738 35.1633 23.5738 35.4647 23.6769L46.1591 27.2877C46.7522 27.488 47.1508 28.0441 47.1508 28.6683V36.7941C47.1508 46.6758 36.0383 51.4805 35.5658 51.6788C35.3849 51.7547 35.1924 51.7936 34.9999 51.7936ZM25.7638 29.7163V36.7941C25.7638 43.6308 32.9058 47.685 34.998 48.7252C37.0883 47.6791 44.2361 43.6055 44.2361 36.7941V29.7163L34.9999 26.5975L25.7638 29.7163Z" fill="black"/>
<path d="M34.0278 42.0713C34.0006 42.0713 33.9734 42.0713 33.9462 42.0694C33.532 42.046 33.147 41.8477 32.8884 41.5249L28.9995 36.6638L31.2765 34.8399L34.1484 38.4294L39.8028 32.7769L41.8659 34.8399L35.0603 41.6455C34.7842 41.9177 34.4128 42.0713 34.0278 42.0713Z" fill="black"/>
<path d="M15.0137 8.83887L17.7635 6.08901L19.1385 7.46394L16.3886 10.2138L15.0137 8.83887Z" fill="#A4AFC1"/>
<path d="M7.10742 16.7437L9.85728 13.9938L11.2322 15.3687L8.48235 18.1186L7.10742 16.7437Z" fill="#A4AFC1"/>
<path d="M7.10791 7.11914L8.48284 5.74421L11.2327 8.49407L9.85777 9.869L7.10791 7.11914Z" fill="#A4AFC1"/>
</svg>
