<svg width="70" height="71" viewBox="0 0 70 71" fill="none" xmlns="http://www.w3.org/2000/svg">
<path d="M61.8977 54.4635C61.8977 41.0137 68.8646 31.7776 68.8646 25.2968C68.8646 18.8159 65.1391 5.20483 35.3249 5.20483C5.51073 5.20483 1.13379 23.5157 1.13379 30.644C1.13379 64.0243 61.8977 78.2829 61.8977 54.4635Z" fill="#EFEFEF"/>
<path d="M67.0832 20.1964C65.4751 20.1964 64.1665 18.8878 64.1665 17.2797C64.1665 15.6716 65.4751 14.363 67.0832 14.363C68.6912 14.363 69.9998 15.6716 69.9998 17.2797C69.9998 18.8878 68.6912 20.1964 67.0832 20.1964ZM67.0832 16.3075C66.5484 16.3075 66.1109 16.745 66.1109 17.2797C66.1109 17.8144 66.5484 18.2519 67.0832 18.2519C67.6179 18.2519 68.0554 17.8144 68.0554 17.2797C68.0554 16.745 67.6179 16.3075 67.0832 16.3075Z" fill="#A4AFC1"/>
<path d="M52.9861 55.6825H17.0139C14.8653 55.6825 13.125 53.9422 13.125 51.7936V22.627H56.875V51.7936C56.875 53.9422 55.1347 55.6825 52.9861 55.6825Z" fill="#F3F3F1"/>
<path d="M13.125 22.6268H56.875V19.7102C56.875 17.5616 55.1347 15.8213 52.9861 15.8213H17.0139C14.8653 15.8213 13.125 17.5616 13.125 19.7102V22.6268Z" fill="#FEB46D"/>
<path d="M21.3889 15.8213H17.0139C14.8653 15.8213 13.125 17.5616 13.125 19.7102V22.6268H17.5V19.7102C17.5 17.5616 19.2403 15.8213 21.3889 15.8213Z" fill="#FF7F2E"/>
<path d="M17.5 51.7936V22.627H13.125V51.7936C13.125 53.9422 14.8653 55.6825 17.0139 55.6825H21.3889C19.2403 55.6825 17.5 53.9422 17.5 51.7936Z" fill="#D5DBE1"/>
<path d="M29.1665 45.4743H26.2498V37.6965C26.2498 37.1618 25.8123 36.7243 25.2776 36.7243C24.7428 36.7243 24.3053 37.1618 24.3053 37.6965V45.4743H21.3887V37.6965C21.3887 35.5518 23.1328 33.8076 25.2776 33.8076C27.4223 33.8076 29.1665 35.5518 29.1665 37.6965V45.4743Z" fill="black"/>
<path d="M22.8472 38.6687H27.7083V41.5854H22.8472V38.6687Z" fill="black"/>
<path d="M44.7222 33.8076H47.6388V45.4743H44.7222V33.8076Z" fill="black"/>
<path d="M35.9723 45.4743H33.0557V35.266C33.0557 34.461 33.709 33.8076 34.514 33.8076H36.9446C39.0893 33.8076 40.8334 35.5518 40.8334 37.6965C40.8334 39.8412 39.0893 41.5854 36.9446 41.5854H35.9723V45.4743ZM35.9723 38.6687H36.9446C37.4793 38.6687 37.9168 38.2312 37.9168 37.6965C37.9168 37.1618 37.4793 36.7243 36.9446 36.7243H35.9723V38.6687Z" fill="black"/>
<path d="M52.986 57.1408H17.0137C14.064 57.1408 11.6665 54.7433 11.6665 51.7936V19.7103C11.6665 16.7605 14.064 14.363 17.0137 14.363H52.986C55.9357 14.363 58.3332 16.7605 58.3332 19.7103V51.7936C58.3332 54.7433 55.9357 57.1408 52.986 57.1408ZM17.0137 17.2797C15.674 17.2797 14.5832 18.3705 14.5832 19.7103V51.7936C14.5832 53.1333 15.674 54.2241 17.0137 54.2241H52.986C54.3257 54.2241 55.4165 53.1333 55.4165 51.7936V19.7103C55.4165 18.3705 54.3257 17.2797 52.986 17.2797H17.0137Z" fill="black"/>
<path d="M13.125 21.1687H56.875V24.0854H13.125V21.1687Z" fill="black"/>
</svg>
