<svg width="20" height="20" viewBox="0 0 20 20" fill="none" xmlns="http://www.w3.org/2000/svg">
<g clip-path="url(#clip0_455_118)">
<rect y="-0.000244141" width="20" height="20" rx="10" fill="white"/>
<g clip-path="url(#clip1_455_118)">
<path d="M9.9999 18.5711C14.7338 18.5711 18.5713 14.7335 18.5713 9.99965C18.5713 5.26578 14.7338 1.42822 9.9999 1.42822C5.26603 1.42822 1.42847 5.26578 1.42847 9.99965C1.42847 14.7335 5.26603 18.5711 9.9999 18.5711Z" fill="#0AC18E"/>
<path d="M12.6737 7.12153C12.243 6.14473 11.2531 5.93589 10.0414 6.13821L9.65198 4.62842L8.73393 4.86555L9.11681 6.37098C8.87534 6.4319 8.62733 6.48411 8.3815 6.55373L7.99861 5.05699L7.08056 5.29412L7.46997 6.80391C7.272 6.86047 5.61646 7.28469 5.61646 7.28469L5.86881 8.26801C5.86881 8.26801 6.54321 8.07874 6.53669 8.09397C6.91087 7.99608 7.08708 8.18317 7.16975 8.35938L8.24009 12.4972C8.25315 12.6168 8.23139 12.8213 7.97468 12.8909C7.98991 12.8996 7.30681 13.0628 7.30681 13.0628L7.40688 14.2093C7.40688 14.2093 9.0472 13.7894 9.26257 13.735L9.65634 15.2622L10.5744 15.0251L10.1806 13.487C10.433 13.4283 10.6788 13.3674 10.9181 13.3043L11.3097 14.8336L12.2278 14.5965L11.834 13.0715C13.2481 12.7278 14.2466 11.8358 14.0421 10.4718C13.9116 9.64945 13.0131 8.97505 12.2669 8.8989C12.7259 8.49209 12.9587 7.89818 12.6737 7.12153ZM12.2321 10.722C12.4149 12.0729 10.5374 12.2383 9.91739 12.4014L9.37787 10.3804C10.0001 10.2173 11.9232 9.53197 12.2321 10.722ZM11.1009 7.96997C11.2945 9.17084 9.68897 9.31007 9.1712 9.44278L8.67954 7.60884C9.19948 7.48048 10.7071 6.85829 11.1009 7.96997Z" fill="white"/>
</g>
</g>
<defs>
<clipPath id="clip0_455_118">
<rect y="-0.000244141" width="20" height="20" rx="10" fill="white"/>
</clipPath>
<clipPath id="clip1_455_118">
<rect width="17.1429" height="17.1429" fill="white" transform="translate(1.42847 1.42822)"/>
</clipPath>
</defs>
</svg>
