<svg width="20" height="20" viewBox="0 0 20 20" fill="none" xmlns="http://www.w3.org/2000/svg">
<g clip-path="url(#clip0_455_88)">
<rect y="-0.000244141" width="20" height="20" rx="10" fill="white"/>
<path d="M18.3154 12.0655C17.1749 16.6625 12.5313 19.4557 7.93424 18.3151C3.33721 17.1746 0.544076 12.5194 1.68461 7.934C2.82514 3.33697 7.46872 0.543832 12.0541 1.68436C16.6279 2.80162 19.4443 7.41029 18.327 11.984C18.327 12.0073 18.3154 12.0422 18.3154 12.0655Z" fill="#F7931A"/>
<path d="M13.8115 8.69061C13.9395 7.56171 13.0667 6.9449 11.9378 6.56084L12.3102 5.05953L11.3093 4.8035L10.9369 6.3048C10.6925 6.17679 10.4365 6.17679 10.1921 6.06041L10.5645 4.5591L9.69164 4.3147L9.31923 5.94402C9.07483 5.94402 8.94681 5.81601 8.69077 5.81601L7.4455 5.44359L7.17782 6.43282C7.38731 6.46774 7.59679 6.50265 7.80628 6.56084C8.1787 6.68886 8.30671 6.93326 8.30671 7.06128L7.80628 8.935L7.17782 11.4372C7.17782 11.5652 7.0498 11.6816 6.80541 11.6816L6.17695 11.5536L5.67651 12.5544L6.92179 12.7988C7.13127 12.8338 7.34076 12.8687 7.55024 12.9269L7.17782 14.4282L8.1787 14.6726L8.55111 13.1713C8.79551 13.2993 9.05155 13.2993 9.29595 13.4157L8.79551 14.917L9.79639 15.1614L10.1688 13.6601C11.7981 13.9045 12.9154 13.7881 13.4158 12.4148C13.8232 11.6234 13.5089 10.6458 12.7175 10.2385C12.6593 10.2036 12.6012 10.1803 12.543 10.157C13.2412 9.98243 13.73 9.38889 13.8115 8.69061ZM11.6817 11.6932C11.3093 12.9385 9.43561 12.3217 8.80715 12.0656L9.30759 9.93588C9.93604 10.1919 11.9378 10.5643 11.6817 11.6932ZM11.9378 8.69061C11.6934 9.8195 10.0641 9.19104 9.56362 9.06302L10.0641 7.1893C10.5645 7.30568 12.1822 7.56171 11.9378 8.69061Z" fill="white"/>
</g>
<defs>
<clipPath id="clip0_455_88">
<rect y="-0.000244141" width="20" height="20" rx="10" fill="white"/>
</clipPath>
</defs>
</svg>
