<svg width="20" height="20" viewBox="0 0 20 20" fill="none" xmlns="http://www.w3.org/2000/svg">
<g clip-path="url(#clip0_455_99)">
<rect y="-0.000244141" width="20" height="20" rx="10" fill="white"/>
<g clip-path="url(#clip1_455_99)">
<path d="M9.9999 18.5711C14.7338 18.5711 18.5713 14.7335 18.5713 9.99965C18.5713 5.26578 14.7338 1.42822 9.9999 1.42822C5.26603 1.42822 1.42847 5.26578 1.42847 9.99965C1.42847 14.7335 5.26603 18.5711 9.9999 18.5711Z" fill="#E9E9E9"/>
<path d="M10.0002 3.5708L9.89307 3.83866V12.3565L10.0002 12.4637L13.9645 10.1065L10.0002 3.5708Z" fill="#343434"/>
<path d="M10.0002 3.5708L6.03589 10.1065L10.0002 12.4637V8.33866V3.5708Z" fill="#8C8C8C"/>
<path d="M10.0001 13.2136L9.94653 13.2672V16.2672L10.0001 16.4279L13.9644 10.8564L10.0001 13.2136Z" fill="#3C3C3B"/>
<path d="M10.0002 16.4279V13.2136L6.03589 10.8564L10.0002 16.4279Z" fill="#8C8C8C"/>
<path d="M10.0002 12.4636L13.9645 10.1065L10.0002 8.33862V12.4636Z" fill="#141414"/>
<path d="M6.03589 10.1065L10.0002 12.4636V8.33862L6.03589 10.1065Z" fill="#393939"/>
</g>
</g>
<defs>
<clipPath id="clip0_455_99">
<rect y="-0.000244141" width="20" height="20" rx="10" fill="white"/>
</clipPath>
<clipPath id="clip1_455_99">
<rect width="17.1429" height="17.1429" fill="white" transform="translate(1.42847 1.42822)"/>
</clipPath>
</defs>
</svg>
