<svg width="358" height="211" viewBox="0 0 358 211" fill="none" xmlns="http://www.w3.org/2000/svg">
<g id="&#208;&#161;&#208;&#187;&#208;&#190;&#208;&#185; 3" clip-path="url(#clip0_887_519)">
<g id="Layer 1">
<path id="Vector" d="M135.802 100.358C135.864 100.344 135.922 100.316 135.971 100.274C136.041 100.211 136.083 100.123 136.089 100.029C136.095 99.9354 136.065 99.8427 136.003 99.771L87.1984 44.0559C87.1327 43.9953 87.0471 43.9608 86.9577 43.9591C86.8684 43.9573 86.7815 43.9884 86.7135 44.0464C86.6455 44.1044 86.6012 44.1854 86.5889 44.2739C86.5766 44.3624 86.5973 44.4523 86.6469 44.5267L135.455 100.239C135.497 100.288 135.551 100.325 135.612 100.346C135.673 100.366 135.739 100.371 135.802 100.358Z" fill="#FEB46D"/>
<path id="Vector_2" d="M104.178 76.733C104.241 76.7206 104.3 76.6919 104.348 76.6496C104.397 76.6074 104.433 76.5531 104.454 76.4924C104.475 76.4316 104.479 76.3665 104.466 76.3035C104.454 76.2406 104.425 76.182 104.382 76.1338L94.8662 65.2733C94.8352 65.2354 94.7969 65.2041 94.7535 65.1813C94.7101 65.1585 94.6626 65.1447 94.6138 65.1407C94.565 65.1366 94.5159 65.1424 94.4693 65.1577C94.4228 65.1731 94.3799 65.1976 94.343 65.2299C94.3062 65.2622 94.2762 65.3015 94.2549 65.3456C94.2336 65.3897 94.2214 65.4376 94.2189 65.4865C94.2165 65.5354 94.224 65.5843 94.2409 65.6303C94.2578 65.6763 94.2837 65.7184 94.3172 65.7541L103.833 76.6146C103.876 76.6625 103.93 76.6985 103.99 76.7192C104.051 76.74 104.116 76.7447 104.178 76.733Z" fill="#FEB46D"/>
<path id="Vector_3" d="M249.728 72.8411C249.79 72.828 249.848 72.7994 249.896 72.7581C249.932 72.7264 249.962 72.6879 249.983 72.6448C250.004 72.6016 250.017 72.5548 250.02 72.5068C250.023 72.4589 250.016 72.4108 250.001 72.3653C249.985 72.3199 249.961 72.278 249.929 72.242L201.124 16.5395C201.059 16.4704 200.97 16.4292 200.875 16.4245C200.781 16.4199 200.688 16.4521 200.617 16.5145C200.546 16.5769 200.502 16.6646 200.494 16.759C200.486 16.8533 200.515 16.947 200.575 17.0203L249.38 72.7228C249.422 72.7715 249.477 72.808 249.538 72.8288C249.599 72.8496 249.664 72.8539 249.728 72.8411Z" fill="#6C92D9"/>
<path id="Vector_4" d="M218.096 49.2141C218.16 49.2036 218.218 49.1747 218.265 49.131C218.336 49.0685 218.379 48.9806 218.386 48.8865C218.392 48.7923 218.362 48.6993 218.3 48.6275L208.784 37.7669C208.754 37.7267 208.716 37.6931 208.672 37.6682C208.629 37.6433 208.58 37.6277 208.53 37.6224C208.48 37.6171 208.43 37.6221 208.382 37.6372C208.334 37.6524 208.29 37.6772 208.252 37.7102C208.214 37.7432 208.183 37.7837 208.162 37.8291C208.14 37.8745 208.128 37.9239 208.127 37.9741C208.125 38.0244 208.134 38.0744 208.153 38.121C208.171 38.1677 208.199 38.21 208.235 38.2453L217.751 49.1083C217.795 49.1543 217.849 49.1883 217.91 49.2068C217.97 49.2253 218.035 49.2278 218.096 49.2141Z" fill="#6C92D9"/>
<path id="Vector_5" d="M85.136 14.2636C85.136 -4.86947 100.714 -20.4529 119.859 -20.4529C139.005 -20.4529 154.585 -4.87955 154.585 14.2636C154.585 33.4068 139.01 48.9776 119.862 48.9776C100.714 48.9776 85.136 33.4043 85.136 14.2636ZM86.0476 14.2636C86.0476 32.8932 101.215 48.0663 119.859 48.0663C138.504 48.0663 153.674 32.9033 153.674 14.2636C153.674 -4.37605 138.507 -19.5415 119.862 -19.5415C101.217 -19.5415 86.0501 -4.37604 86.0501 14.2636L86.0476 14.2636Z" fill="#FEB46D"/>
<path id="Vector_6" d="M0.0485884 50.3547C7.07768 53.0235 14.7373 53.5635 22.0715 51.9074C29.4057 50.2512 36.0895 46.4722 41.2888 41.0421C46.488 35.612 49.9724 28.7712 51.307 21.3737C52.6416 13.9761 51.7673 6.34944 48.7932 -0.554448L66.9117 -0.554449C68.3104 4.36905 69.0197 9.46262 69.0194 14.5808C69.0194 45.1535 44.2303 69.9359 13.6519 69.9359C9.0669 69.9388 4.49928 69.3731 0.0536255 68.2517L0.0485884 50.3547Z" fill="#FEB46D"/>
<path id="Vector_7" d="M55.8466 97.1274C58.2856 100.083 61.5463 102.249 65.2166 103.352C68.8869 104.454 72.8019 104.444 76.4664 103.323C80.131 102.201 83.3806 100.018 85.8043 97.0502C88.2279 94.0823 89.7169 90.4625 90.0828 86.6486C90.4486 82.8346 89.6751 78.9979 87.8599 75.6235C86.0446 72.2491 83.2693 69.4886 79.8848 67.6911C76.5003 65.8935 72.6586 65.1397 68.8456 65.5249C65.0325 65.9101 61.4194 67.4171 58.463 69.8552C56.4999 71.4741 54.8751 73.4637 53.6812 75.7105C52.4873 77.9572 51.7477 80.417 51.5048 82.9495C51.2618 85.482 51.5202 88.0375 52.2652 90.4702C53.0102 92.9028 54.2271 95.165 55.8466 97.1274ZM60.4574 93.3184C58.7731 91.2754 57.7325 88.779 57.4671 86.1448C57.2017 83.5106 57.7236 80.8569 58.9666 78.5191C60.2096 76.1814 62.1181 74.2645 64.4506 73.011C66.7832 71.7574 69.4352 71.2234 72.0713 71.4764C74.7074 71.7294 77.2093 72.7581 79.2607 74.4325C81.3121 76.1068 82.8208 78.3516 83.5963 80.8831C84.3717 83.4146 84.3789 86.1191 83.6171 88.6547C82.8553 91.1903 81.3586 93.4432 79.3162 95.1285C77.9593 96.2482 76.395 97.0896 74.7127 97.6046C73.0303 98.1196 71.263 98.2982 69.5116 98.1301C67.7603 97.962 66.0592 97.4505 64.5056 96.6249C62.9521 95.7993 61.5765 94.6757 60.4574 93.3184Z" fill="#FEB46D"/>
<path id="Vector_8" d="M68.6719 112.651C71.1131 115.609 74.3772 117.776 78.051 118.879C81.7249 119.983 85.6435 119.971 89.311 118.848C92.9786 117.724 96.2302 115.537 98.6547 112.566C101.079 109.594 102.567 105.97 102.931 102.152C103.295 98.3344 102.518 94.4946 100.698 91.1186C98.8786 87.7426 96.0982 84.982 92.7089 83.186C89.3196 81.3901 85.4735 80.6396 81.6574 81.0294C77.8413 81.4192 74.2266 82.9318 71.2707 85.3759C69.3085 86.9961 67.6848 88.9868 66.4923 91.2344C65.2998 93.482 64.5618 95.9424 64.3205 98.4751C64.0792 101.008 64.3392 103.563 65.0858 105.996C65.8325 108.428 67.051 110.689 68.6719 112.651ZM73.2852 108.839C71.599 106.797 70.5562 104.302 70.2888 101.667C70.0213 99.0332 70.5411 96.3788 71.7825 94.0399C73.0239 91.7011 74.9311 89.7827 77.263 88.5274C79.5949 87.2721 82.2467 86.7362 84.8832 86.9875C87.5197 87.2389 90.0225 88.2661 92.075 89.9394C94.1276 91.6126 95.6378 93.8568 96.4147 96.388C97.1916 98.9193 97.2002 101.624 96.4396 104.16C95.679 106.696 94.1832 108.95 92.1414 110.637C90.7855 111.757 89.2221 112.599 87.5404 113.115C85.8588 113.631 84.0919 113.811 82.3408 113.644C80.5896 113.477 78.8886 112.967 77.3348 112.142C75.781 111.318 74.4049 110.195 73.2852 108.839Z" fill="#6C92D9"/>
<path id="Vector_9" d="M320.517 4.24627C322.455 6.5983 325.047 8.32281 327.966 9.20167C330.884 10.0805 333.998 10.0742 336.913 9.18356C339.828 8.2929 342.414 6.5579 344.342 4.19805C346.271 1.83819 347.456 -1.04049 347.748 -4.07383C348.039 -7.10717 347.425 -10.1589 345.981 -12.8429C344.538 -15.527 342.331 -17.7227 339.639 -19.1524C336.947 -20.5822 333.892 -21.1816 330.859 -20.8749C327.826 -20.5682 324.953 -19.3692 322.602 -17.4295C319.452 -14.8305 317.463 -11.0875 317.072 -7.02307C316.681 -2.95863 317.92 1.09473 320.517 4.24627ZM324.188 1.22525C322.848 -0.399252 322.02 -2.38458 321.808 -4.47967C321.597 -6.57476 322.011 -8.68551 323 -10.545C323.988 -12.4045 325.506 -13.9292 327.361 -14.9262C329.216 -15.9233 331.326 -16.348 333.422 -16.1466C335.519 -15.9452 337.509 -15.1267 339.14 -13.7947C340.771 -12.4627 341.971 -10.677 342.587 -8.66341C343.203 -6.64979 343.209 -4.49872 342.602 -2.48223C341.995 -0.465737 340.804 1.32561 339.179 2.66527C337 4.46154 334.196 5.31895 331.385 5.0489C328.574 4.77885 325.985 3.40345 324.188 1.22525Z" fill="#FEB46D"/>
<path id="Vector_10" d="M330.715 16.5946C332.655 18.9434 335.249 20.6641 338.168 21.5393C341.086 22.4145 344.199 22.4047 347.112 21.5113C350.025 20.6179 352.608 18.8809 354.533 16.52C356.459 14.1592 357.641 11.2805 357.93 8.24796C358.22 5.21543 357.603 2.16528 356.158 -0.516763C354.713 -3.19881 352.505 -5.39229 349.813 -6.81983C347.122 -8.24737 344.067 -8.84485 341.035 -8.53671C338.004 -8.22858 335.132 -7.02866 332.782 -5.0887C331.222 -3.80085 329.931 -2.21834 328.983 -0.431565C328.035 1.35521 327.448 3.31124 327.256 5.32481C327.064 7.33838 327.27 9.37004 327.864 11.3037C328.458 13.2374 329.426 15.0353 330.715 16.5946ZM334.384 13.5736C333.043 11.9501 332.213 9.96526 332 7.87027C331.787 5.77527 332.2 3.66417 333.187 1.80395C334.174 -0.0562655 335.691 -1.58204 337.546 -2.58041C339.4 -3.57879 341.509 -4.00491 343.606 -3.8049C345.703 -3.60488 347.694 -2.78772 349.326 -1.45674C350.958 -0.12576 352.159 1.65924 352.776 3.67252C353.394 5.6858 353.4 7.83693 352.795 9.85385C352.189 11.8708 350.999 13.6629 349.375 15.0036C348.296 15.8935 347.052 16.5621 345.715 16.9713C344.378 17.3804 342.973 17.5221 341.58 17.3881C340.188 17.2541 338.836 16.8472 337.601 16.1905C336.366 15.5338 335.273 14.6403 334.384 13.561L334.384 13.5736Z" fill="#6C92D9"/>
<path id="Vector_11" d="M134.996 75.0917C136.016 76.3269 137.38 77.2319 138.915 77.6921C140.45 78.1524 142.087 78.1473 143.619 77.6774C145.151 77.2076 146.509 76.2941 147.521 75.0525C148.534 73.8109 149.155 72.297 149.307 70.7022C149.459 69.1075 149.134 67.5035 148.374 66.0932C147.614 64.683 146.453 63.5297 145.037 62.7793C143.621 62.029 142.015 61.7152 140.421 61.8777C138.827 62.0402 137.317 62.6718 136.082 63.6924C135.261 64.3696 134.583 65.2016 134.085 66.141C133.586 67.0804 133.278 68.1087 133.177 69.1673C133.076 70.2258 133.185 71.2938 133.497 72.3103C133.809 73.3269 134.319 74.272 134.996 75.0917ZM136.925 73.5006C136.221 72.6468 135.785 71.6033 135.674 70.5021C135.563 69.4009 135.781 68.2915 136.3 67.3141C136.819 66.3366 137.617 65.5351 138.592 65.0109C139.567 64.4866 140.676 64.2632 141.778 64.3688C142.88 64.4744 143.926 64.9043 144.783 65.6041C145.641 66.304 146.272 67.2424 146.596 68.3006C146.92 69.3589 146.923 70.4895 146.605 71.5495C146.287 72.6095 145.661 73.5513 144.807 74.2558C144.24 74.7253 143.585 75.0783 142.881 75.2944C142.177 75.5106 141.437 75.5858 140.704 75.5156C139.971 75.4454 139.259 75.2313 138.609 74.8856C137.959 74.5398 137.383 74.0691 136.915 73.5006L136.925 73.5006Z" fill="#6C92D9"/>
<path id="Vector_12" d="M282.814 5.84511C283.835 7.07998 285.198 7.98458 286.733 8.44453C288.268 8.90447 289.905 8.89909 291.436 8.42907C292.968 7.95905 294.326 7.0455 295.338 5.80394C296.351 4.56239 296.972 3.04859 297.124 1.45399C297.276 -0.140616 296.951 -1.74441 296.191 -3.15458C295.431 -4.56475 294.27 -5.71796 292.855 -6.46838C291.439 -7.21879 289.833 -7.53271 288.239 -7.37044C286.645 -7.20816 285.135 -6.57698 283.899 -5.55671C283.079 -4.87949 282.4 -4.0473 281.902 -3.10769C281.403 -2.16808 281.094 -1.13946 280.994 -0.0806193C280.893 0.978226 281.002 2.04655 281.314 3.06331C281.626 4.08007 282.136 5.02534 282.814 5.84511ZM284.743 4.25152C284.039 3.39768 283.603 2.3542 283.492 1.25302C283.381 0.151834 283.599 -0.957602 284.118 -1.93502C284.637 -2.91244 285.435 -3.71394 286.41 -4.23819C287.385 -4.76244 288.494 -4.98589 289.596 -4.88029C290.698 -4.7747 291.744 -4.34479 292.601 -3.64493C293.459 -2.94508 294.09 -2.0067 294.414 -0.948443C294.738 0.109812 294.741 1.24042 294.423 2.30043C294.104 3.36044 293.479 4.30225 292.625 5.00677C291.479 5.95043 290.005 6.40046 288.528 6.25788C287.05 6.1153 285.69 5.39179 284.746 4.24648L284.743 4.25152Z" fill="#FEB46D"/>
<path id="Vector_13" d="M247.454 83.6564C248.474 84.8909 249.837 85.7954 251.371 86.2554C252.905 86.7154 254.541 86.7103 256.073 86.2407C257.604 85.7712 258.961 84.8582 259.974 83.6173C260.986 82.3764 261.607 80.8633 261.76 79.2693C261.912 77.6753 261.588 76.072 260.828 74.6622C260.069 73.2523 258.909 72.0992 257.494 71.3486C256.079 70.5981 254.473 70.2837 252.88 70.4454C251.286 70.6071 249.777 71.2376 248.542 72.2571C247.721 72.9341 247.043 73.766 246.544 74.7053C246.045 75.6446 245.737 76.6729 245.636 77.7314C245.535 78.79 245.643 79.8581 245.955 80.8747C246.267 81.8913 246.776 82.8365 247.454 83.6564ZM249.383 82.0653C248.678 81.2114 248.243 80.168 248.132 79.0668C248.02 77.9656 248.238 76.8562 248.758 75.8787C249.277 74.9013 250.075 74.0998 251.05 73.5756C252.025 73.0513 253.133 72.8279 254.235 72.9335C255.337 73.0391 256.383 73.469 257.241 74.1688C258.099 74.8687 258.729 75.8071 259.054 76.8653C259.378 77.9236 259.381 79.0542 259.063 80.1142C258.744 81.1742 258.118 82.116 257.265 82.8205C256.697 83.2885 256.044 83.6401 255.341 83.8554C254.638 84.0707 253.899 84.1454 253.167 84.0753C252.435 84.0051 251.724 83.7915 251.075 83.4467C250.425 83.1018 249.85 82.6324 249.383 82.0653Z" fill="#6C92D9"/>
<path id="Vector_14" d="M243.515 50.3621C243.887 50.8128 244.385 51.1431 244.945 51.3111C245.505 51.4791 246.102 51.4773 246.661 51.306C247.22 51.1346 247.716 50.8015 248.085 50.3485C248.455 49.8956 248.682 49.3433 248.738 48.7614C248.793 48.1796 248.675 47.5943 248.398 47.0796C248.121 46.5649 247.697 46.1438 247.181 45.8697C246.665 45.5957 246.078 45.4808 245.497 45.5397C244.915 45.5986 244.364 45.8286 243.913 46.2007C243.614 46.4478 243.366 46.7514 243.184 47.0943C243.001 47.4372 242.889 47.8126 242.852 48.199C242.815 48.5854 242.854 48.9754 242.968 49.3465C243.082 49.7177 243.268 50.0628 243.515 50.3621ZM244.22 49.7806C243.962 49.4689 243.803 49.0878 243.761 48.6854C243.72 48.283 243.799 47.8775 243.989 47.5201C244.178 47.1627 244.47 46.8695 244.826 46.6777C245.182 46.4859 245.587 46.404 245.99 46.4424C246.393 46.4809 246.775 46.6379 247.088 46.8936C247.402 47.1493 247.632 47.4923 247.751 47.8791C247.869 48.2658 247.87 48.679 247.754 49.0664C247.637 49.4537 247.408 49.7978 247.096 50.055C246.889 50.2258 246.651 50.3542 246.394 50.4329C246.138 50.5115 245.868 50.5389 245.601 50.5134C245.334 50.4879 245.075 50.4101 244.838 50.2843C244.601 50.1586 244.391 49.9874 244.22 49.7806Z" fill="#6C92D9"/>
<path id="Vector_15" d="M19.6628 25.2147C20.0351 25.6654 20.5327 25.9956 21.0927 26.1636C21.6527 26.3316 22.25 26.3298 22.809 26.1585C23.368 25.9872 23.8636 25.654 24.2332 25.2011C24.6028 24.7482 24.8298 24.1958 24.8854 23.614C24.941 23.0321 24.8228 22.4468 24.5457 21.9321C24.2687 21.4174 23.8451 20.9964 23.3287 20.7223C22.8123 20.4482 22.2262 20.3333 21.6445 20.3922C21.0628 20.4511 20.5117 20.6812 20.0607 21.0532C19.7612 21.3003 19.5134 21.604 19.3313 21.9468C19.1492 22.2897 19.0364 22.6651 18.9995 23.0515C18.9625 23.438 19.0021 23.8279 19.1159 24.1991C19.2298 24.5702 19.4156 24.9153 19.6628 25.2147ZM20.3679 24.6331C20.11 24.3215 19.9504 23.9404 19.9092 23.538C19.868 23.1356 19.9472 22.73 20.1366 22.3726C20.3261 22.0153 20.6174 21.7221 20.9736 21.5302C21.3297 21.3384 21.7349 21.2565 22.1376 21.295C22.5404 21.3334 22.9227 21.4904 23.2362 21.7462C23.5496 22.0019 23.7801 22.3448 23.8986 22.7316C24.017 23.1184 24.018 23.5316 23.9014 23.9189C23.7848 24.3062 23.5559 24.6503 23.2437 24.9075C22.8272 25.2499 22.2922 25.4138 21.7553 25.3633C21.2185 25.3129 20.7233 25.0522 20.378 24.6382L20.3679 24.6331Z" fill="#6C92D9"/>
<path id="Vector_16" d="M33.5281 80.4315C33.9007 80.882 34.3984 81.212 34.9586 81.3797C35.5187 81.5474 36.1159 81.5453 36.6749 81.3736C37.2338 81.202 37.7292 80.8685 38.0986 80.4153C38.4679 79.9622 38.6945 79.4097 38.7498 78.8278C38.8051 78.2459 38.6865 77.6606 38.4091 77.1461C38.1317 76.6315 37.7079 76.2108 37.1914 75.937C36.6748 75.6632 36.0886 75.5487 35.5069 75.608C34.9252 75.6673 34.3742 75.8977 33.9235 76.27C33.6242 76.5173 33.3765 76.8211 33.1947 77.1641C33.0128 77.507 32.9003 77.8824 32.8636 78.2689C32.8269 78.6553 32.8667 79.0452 32.9807 79.4163C33.0947 79.7873 33.2807 80.1323 33.5281 80.4315ZM34.2307 79.8499C33.9731 79.5382 33.8138 79.1571 33.7728 78.7549C33.7319 78.3526 33.8112 77.9473 34.0007 77.5901C34.1903 77.2329 34.4815 76.9399 34.8376 76.7482C35.1937 76.5565 35.5986 76.4746 36.0012 76.513C36.4038 76.5514 36.786 76.7083 37.0995 76.9638C37.4129 77.2194 37.6435 77.5621 37.762 77.9487C37.8806 78.3352 37.8819 78.7483 37.7656 79.1355C37.6494 79.5228 37.4209 79.8669 37.109 80.1243C36.6909 80.4695 36.1528 80.6344 35.613 80.583C35.0732 80.5315 34.576 80.2678 34.2307 79.8499Z" fill="#FEB46D"/>
<path id="Vector_17" d="M115.188 29.9527C115.56 30.4034 116.058 30.7336 116.618 30.9016C117.178 31.0696 117.775 31.0679 118.334 30.8965C118.893 30.7252 119.389 30.392 119.758 29.9391C120.128 29.4862 120.355 28.9339 120.411 28.352C120.466 27.7702 120.348 27.1849 120.071 26.6701C119.794 26.1554 119.37 25.7344 118.854 25.4603C118.337 25.1862 117.751 25.0714 117.17 25.1303C116.588 25.1892 116.037 25.4192 115.586 25.7912C115.286 26.0383 115.039 26.342 114.856 26.6849C114.674 27.0278 114.562 27.4031 114.525 27.7896C114.488 28.176 114.527 28.566 114.641 28.9371C114.755 29.3083 114.941 29.6534 115.188 29.9527ZM115.893 29.3711C115.635 29.0594 115.476 28.6783 115.435 28.2761C115.394 27.8738 115.474 27.4685 115.663 27.1113C115.853 26.7541 116.144 26.4611 116.5 26.2694C116.856 26.0777 117.261 25.9958 117.664 26.0342C118.066 26.0726 118.448 26.2295 118.762 26.485C119.075 26.7406 119.306 27.0833 119.424 27.4699C119.543 27.8564 119.544 28.2695 119.428 28.6567C119.312 29.044 119.083 29.3881 118.771 29.6456C118.353 29.9907 117.815 30.1556 117.275 30.1042C116.736 30.0527 116.238 29.7891 115.893 29.3711Z" fill="#6C92D9"/>
<path id="Vector_18" d="M154.016 43.8016C154.388 44.2521 154.886 44.5821 155.446 44.7498C156.006 44.9175 156.604 44.9154 157.163 44.7437C157.722 44.572 158.217 44.2386 158.586 43.7854C158.956 43.3323 159.182 42.7798 159.238 42.1979C159.293 41.616 159.174 41.0308 158.897 40.5162C158.62 40.0016 158.196 39.5809 157.679 39.3071C157.163 39.0333 156.576 38.9189 155.995 38.9781C155.413 39.0374 154.862 39.2678 154.411 39.6401C154.112 39.8874 153.864 40.1912 153.682 40.5342C153.501 40.8771 153.388 41.2526 153.351 41.639C153.315 42.0254 153.354 42.4153 153.468 42.7864C153.583 43.1574 153.769 43.5024 154.016 43.8016ZM154.718 43.22C154.461 42.9083 154.302 42.5272 154.261 42.125C154.22 41.7227 154.299 41.3174 154.489 40.9602C154.678 40.603 154.969 40.31 155.325 40.1183C155.681 39.9266 156.086 39.8447 156.489 39.8831C156.892 39.9215 157.274 40.0784 157.587 40.3339C157.901 40.5895 158.131 40.9322 158.25 41.3188C158.368 41.7053 158.37 42.1184 158.253 42.5056C158.137 42.8929 157.909 43.237 157.597 43.4944C157.39 43.6656 157.151 43.7944 156.895 43.8733C156.638 43.9521 156.368 43.9796 156.101 43.9541C155.833 43.9286 155.574 43.8507 155.336 43.7247C155.099 43.5987 154.889 43.4272 154.718 43.22Z" fill="#6C92D9"/>
<path id="Vector_19" d="M133.163 110.264C134.184 111.498 135.549 112.402 137.084 112.861C138.619 113.32 140.255 113.314 141.787 112.843C143.318 112.372 144.676 111.457 145.687 110.215C146.699 108.973 147.319 107.458 147.47 105.864C147.621 104.269 147.295 102.665 146.534 101.256C145.773 99.846 144.611 98.6935 143.195 97.9441C141.779 97.1946 140.173 96.8818 138.579 97.0452C136.985 97.2086 135.475 97.8408 134.241 98.862C133.421 99.5398 132.743 100.372 132.245 101.312C131.747 102.252 131.439 103.281 131.339 104.34C131.239 105.399 131.348 106.467 131.661 107.483C131.974 108.5 132.484 109.445 133.163 110.264ZM135.092 108.67C134.387 107.816 133.952 106.773 133.841 105.672C133.729 104.571 133.947 103.461 134.467 102.484C134.986 101.506 135.784 100.705 136.759 100.181C137.734 99.6563 138.842 99.4328 139.944 99.5384C141.046 99.644 142.092 100.074 142.95 100.774C143.808 101.474 144.439 102.412 144.763 103.47C145.087 104.529 145.09 105.659 144.772 106.719C144.453 107.779 143.828 108.721 142.974 109.426C142.407 109.893 141.753 110.245 141.05 110.46C140.347 110.676 139.608 110.75 138.876 110.68C138.144 110.61 137.433 110.397 136.784 110.052C136.135 109.707 135.56 109.237 135.092 108.67Z" fill="#FEB46D"/>
<path id="Vector_20" d="M286.035 44.5796C286.793 45.4968 287.806 46.1687 288.947 46.5103C290.087 46.8518 291.303 46.8477 292.441 46.4984C293.579 46.1491 294.587 45.4703 295.339 44.5479C296.091 43.6255 296.553 42.5009 296.666 41.3162C296.778 40.1316 296.537 38.9401 295.972 37.8925C295.408 36.8449 294.545 35.9882 293.493 35.4308C292.442 34.8733 291.248 34.6401 290.064 34.7607C288.88 34.8813 287.758 35.3502 286.841 36.1081C286.231 36.6112 285.727 37.2295 285.356 37.9277C284.986 38.6258 284.756 39.3901 284.682 40.1769C284.607 40.9636 284.688 41.7574 284.92 42.5129C285.152 43.2683 285.531 43.9706 286.035 44.5796ZM287.468 43.3963C286.943 42.7623 286.619 41.9871 286.535 41.1687C286.451 40.3503 286.612 39.5254 286.998 38.7985C287.383 38.0716 287.975 37.4753 288.7 37.0849C289.424 36.6946 290.248 36.5278 291.067 36.6056C291.886 36.6835 292.664 37.0025 293.302 37.5223C293.94 38.042 294.409 38.7393 294.65 39.5258C294.892 40.3122 294.895 41.1526 294.658 41.9406C294.422 42.7286 293.957 43.4288 293.322 43.9527C292.472 44.6541 291.378 44.9894 290.28 44.8851C289.182 44.7808 288.171 44.2454 287.468 43.3963Z" fill="#FEB46D"/>
<path id="Vector_21" d="M164.948 71.8491C167.82 75.3246 171.66 77.8704 175.979 79.1648C180.299 80.4592 184.906 80.444 189.218 79.1212C193.529 77.7984 197.351 75.2273 200.201 71.733C203.051 68.2388 204.8 63.9782 205.228 59.49C205.657 55.0018 204.744 50.4874 202.606 46.5177C200.468 42.548 197.201 39.3011 193.217 37.1876C189.233 35.0741 184.712 34.1888 180.226 34.6437C175.739 35.0986 171.488 36.8733 168.01 39.7433C165.7 41.6501 163.788 43.9932 162.384 46.6387C160.979 49.2843 160.11 52.1806 159.826 55.162C159.542 58.1435 159.847 61.1517 160.726 64.015C161.605 66.8782 163.04 69.5403 164.948 71.8491ZM170.379 67.3654C168.394 64.9623 167.165 62.0244 166.85 58.9233C166.534 55.8222 167.145 52.6972 168.606 49.9435C170.067 47.1897 172.312 44.931 175.057 43.4529C177.803 41.9748 180.924 41.3437 184.028 41.6395C187.132 41.9353 190.079 43.1447 192.495 45.1147C194.911 47.0846 196.689 49.7268 197.603 52.7069C198.518 55.6869 198.527 58.8712 197.631 61.8568C196.735 64.8425 194.974 67.4954 192.57 69.4802C190.974 70.798 189.134 71.7887 187.155 72.3957C185.176 73.0027 183.097 73.214 181.036 73.0176C178.976 72.8212 176.974 72.221 175.146 71.2512C173.317 70.2814 171.697 68.961 170.379 67.3654Z" fill="#FEB46D"/>
<path id="Vector_22" d="M222.68 13.3094C225.179 16.3343 228.52 18.5504 232.279 19.6773C236.038 20.8042 240.047 20.7914 243.799 19.6405C247.551 18.4895 250.878 16.2522 253.358 13.2113C255.838 10.1704 257.36 6.46262 257.732 2.55675C258.104 -1.34911 257.31 -5.27761 255.449 -8.73198C253.588 -12.1863 250.744 -15.0114 247.277 -16.85C243.81 -18.6885 239.875 -19.458 235.971 -19.061C232.066 -18.6641 228.367 -17.1186 225.341 -14.6199C223.332 -12.9608 221.67 -10.9223 220.448 -8.62082C219.227 -6.31932 218.472 -3.79989 218.224 -1.2064C217.977 1.38709 218.244 4.00385 219.008 6.49448C219.772 8.9851 221.02 11.3008 222.68 13.3094ZM227.414 9.40974C225.686 7.31867 224.617 4.76233 224.343 2.06403C224.068 -0.634276 224.601 -3.35336 225.872 -5.74935C227.143 -8.14535 229.097 -10.1106 231.485 -11.3967C233.874 -12.6827 236.59 -13.2318 239.291 -12.9744C241.992 -12.717 244.555 -11.6647 246.658 -9.95066C248.76 -8.23659 250.307 -5.9377 251.103 -3.34472C251.898 -0.751733 251.907 2.01887 251.127 4.61673C250.348 7.21458 248.815 9.523 246.723 11.25C245.335 12.397 243.734 13.2592 242.012 13.7874C240.29 14.3156 238.48 14.4995 236.687 14.3286C234.894 14.1578 233.152 13.6354 231.561 12.7914C229.97 11.9474 228.561 10.7983 227.414 9.40974Z" fill="#FEB46D"/>
<path id="Vector_23" d="M129.068 -10.8863C129.068 -30.027 144.646 -45.6003 163.792 -45.6003C182.938 -45.6003 198.518 -30.027 198.518 -10.8864C198.518 8.2543 182.94 23.8302 163.792 23.8302C144.643 23.8302 129.068 8.25683 129.068 -10.8863ZM129.98 -10.8863C129.98 7.74326 145.147 22.9188 163.792 22.9188C182.436 22.9188 197.606 7.75332 197.606 -10.8864C197.606 -29.526 182.436 -44.689 163.792 -44.689C145.147 -44.689 129.98 -29.5235 129.98 -10.8863Z" fill="#6C92D9"/>
<path id="Vector_24" d="M270.938 40.7502C270.937 36.7599 272.12 32.8589 274.337 29.5405C276.553 26.2222 279.704 23.6355 283.392 22.1075C287.079 20.5796 291.136 20.179 295.051 20.9565C298.966 21.734 302.562 23.6546 305.385 26.4755C308.209 29.2964 310.131 32.8908 310.911 36.8042C311.691 40.7177 311.292 44.7744 309.766 48.4613C308.239 52.1482 305.653 55.2999 302.335 57.5176C299.017 59.7353 295.115 60.9195 291.124 60.9205C285.774 60.9159 280.644 58.7896 276.859 55.0082C273.075 51.2269 270.946 46.0992 270.938 40.7502ZM271.467 40.7502C271.467 44.634 272.619 48.4305 274.777 51.6597C276.936 54.8889 280.003 57.4058 283.592 58.8921C287.181 60.3783 291.131 60.7672 294.941 60.0095C298.751 59.2518 302.251 57.3816 304.998 54.6354C307.745 51.8892 309.616 48.3903 310.373 44.5811C311.131 40.772 310.742 36.8237 309.256 33.2356C307.769 29.6475 305.252 26.5807 302.021 24.423C298.791 22.2653 294.994 21.1136 291.109 21.1136C285.902 21.1223 280.911 23.1939 277.23 26.8746C273.548 30.5553 271.476 35.5449 271.467 40.7502Z" fill="#6C92D9"/>
<path id="Vector_25" d="M35.7264 193.72C36.4838 194.638 37.4968 195.311 38.6371 195.654C39.7774 195.997 40.9938 195.994 42.1324 195.646C43.2709 195.297 44.2805 194.619 45.0334 193.696C45.7862 192.774 46.2484 191.649 46.3616 190.464C46.4748 189.279 46.2338 188.087 45.6692 187.039C45.1045 185.991 44.2416 185.134 43.1895 184.576C42.1375 184.019 40.9436 183.786 39.759 183.907C38.5744 184.028 37.4524 184.497 36.5348 185.256C35.9258 185.758 35.4218 186.376 35.0515 187.073C34.6813 187.771 34.4521 188.534 34.3771 189.32C34.302 190.106 34.3825 190.899 34.6141 191.654C34.8456 192.409 35.2236 193.111 35.7264 193.72ZM37.1593 192.536C36.6351 191.902 36.3109 191.127 36.2277 190.308C36.1444 189.49 36.3058 188.665 36.6914 187.938C37.077 187.212 37.6696 186.616 38.3941 186.226C39.1187 185.836 39.9426 185.669 40.7618 185.747C41.5809 185.826 42.3585 186.145 42.9961 186.665C43.6337 187.185 44.1028 187.882 44.3439 188.669C44.5849 189.455 44.5873 190.296 44.3506 191.084C44.1139 191.872 43.6488 192.572 43.0141 193.095C42.593 193.443 42.1075 193.704 41.5853 193.865C41.0632 194.025 40.5146 194.08 39.9708 194.029C39.4271 193.977 38.899 193.818 38.4165 193.562C37.9341 193.306 37.5069 192.958 37.1593 192.536Z" fill="#FEB46D"/>
<path id="Vector_26" d="M20.6299 189.89C20.6294 185.9 21.8124 181.999 24.0294 178.681C26.2464 175.363 29.3977 172.777 33.0849 171.249C36.7721 169.722 40.8296 169.322 44.7444 170.099C48.6591 170.877 52.2552 172.798 55.078 175.619C57.9008 178.44 59.8234 182.034 60.6029 185.948C61.3824 189.861 60.9836 193.918 59.457 197.604C57.9304 201.291 55.3446 204.443 52.0265 206.66C48.7083 208.878 44.807 210.062 40.8157 210.063C35.4648 210.058 30.3344 207.932 26.55 204.15C22.7657 200.368 20.6366 195.24 20.6299 189.89ZM21.1587 189.89C21.1587 193.774 22.3107 197.571 24.469 200.8C26.6272 204.029 29.6949 206.546 33.284 208.032C36.8731 209.518 40.8224 209.907 44.6326 209.15C48.4427 208.392 51.9426 206.522 54.6895 203.775C57.4365 201.029 59.3072 197.53 60.0651 193.721C60.823 189.912 60.434 185.964 58.9474 182.376C57.4607 178.788 54.9432 175.721 51.7131 173.563C48.483 171.405 44.6854 170.254 40.8006 170.254C35.5939 170.262 30.6029 172.334 26.9212 176.015C23.2395 179.695 21.1674 184.685 21.1587 189.89Z" fill="#6C92D9"/>
<path id="Vector_27" d="M-21.1318 119.775C-21.1318 100.634 -5.55429 85.0586 13.5915 85.0586C32.7374 85.0586 48.3174 100.632 48.3174 119.773C48.3174 138.913 32.7399 154.489 13.5915 154.489C-5.55681 154.489 -21.1318 138.918 -21.1318 119.775ZM-20.2202 119.775C-20.2202 138.405 -5.05317 153.58 13.5915 153.58C32.2362 153.58 47.4058 138.415 47.4058 119.775C47.4058 101.135 32.2362 85.9724 13.5915 85.9724C-5.05317 85.9725 -20.2202 101.135 -20.2202 119.775Z" fill="#6C92D9"/>
</g>
</g>
<defs>
<clipPath id="clip0_887_519">
<rect width="358" height="210" fill="white" transform="translate(0 0.375977)"/>
</clipPath>
</defs>
</svg>
