<svg width="358" height="211" viewBox="0 0 358 211" fill="none" xmlns="http://www.w3.org/2000/svg">
<g id="&#208;&#161;&#208;&#187;&#208;&#190;&#208;&#185; 2" clip-path="url(#clip0_887_490)">
<g id="Layer 1">
<path id="Vector" d="M222.198 100.358C222.136 100.344 222.078 100.316 222.029 100.274C221.959 100.211 221.917 100.123 221.911 100.029C221.905 99.9354 221.935 99.8427 221.997 99.771L270.802 44.0559C270.867 43.9953 270.953 43.9608 271.042 43.9591C271.132 43.9573 271.219 43.9884 271.287 44.0464C271.354 44.1044 271.399 44.1854 271.411 44.2739C271.423 44.3624 271.403 44.4523 271.353 44.5267L222.545 100.239C222.503 100.288 222.449 100.325 222.388 100.346C222.327 100.366 222.261 100.371 222.198 100.358Z" fill="#FEB46D"/>
<path id="Vector_2" d="M253.822 76.733C253.759 76.7206 253.7 76.6919 253.652 76.6496C253.603 76.6074 253.567 76.5531 253.546 76.4924C253.525 76.4316 253.521 76.3665 253.534 76.3035C253.546 76.2406 253.575 76.182 253.618 76.1338L263.134 65.2733C263.165 65.2354 263.203 65.2041 263.247 65.1813C263.29 65.1585 263.337 65.1447 263.386 65.1407C263.435 65.1366 263.484 65.1424 263.531 65.1577C263.577 65.1731 263.62 65.1976 263.657 65.2299C263.694 65.2622 263.724 65.3015 263.745 65.3456C263.766 65.3897 263.779 65.4376 263.781 65.4865C263.783 65.5354 263.776 65.5843 263.759 65.6303C263.742 65.6763 263.716 65.7184 263.683 65.7541L254.167 76.6146C254.124 76.6625 254.07 76.6985 254.01 76.7192C253.949 76.74 253.884 76.7447 253.822 76.733Z" fill="#FEB46D"/>
<path id="Vector_3" d="M108.272 72.8411C108.21 72.828 108.152 72.7994 108.104 72.7581C108.068 72.7264 108.038 72.6879 108.017 72.6448C107.996 72.6016 107.983 72.5548 107.98 72.5068C107.977 72.4589 107.984 72.4108 107.999 72.3653C108.015 72.3199 108.039 72.278 108.071 72.242L156.876 16.5395C156.941 16.4704 157.03 16.4292 157.125 16.4245C157.219 16.4199 157.312 16.4521 157.383 16.5145C157.454 16.5769 157.498 16.6646 157.506 16.759C157.514 16.8533 157.485 16.947 157.425 17.0203L108.62 72.7228C108.578 72.7715 108.523 72.808 108.462 72.8288C108.401 72.8496 108.336 72.8539 108.272 72.8411Z" fill="#6C92D9"/>
<path id="Vector_4" d="M139.904 49.2141C139.84 49.2036 139.782 49.1747 139.735 49.131C139.664 49.0685 139.621 48.9806 139.614 48.8865C139.608 48.7923 139.638 48.6993 139.7 48.6275L149.216 37.7669C149.246 37.7267 149.284 37.6931 149.328 37.6682C149.371 37.6433 149.42 37.6277 149.47 37.6224C149.52 37.6171 149.57 37.6221 149.618 37.6372C149.666 37.6524 149.71 37.6772 149.748 37.7102C149.786 37.7432 149.817 37.7837 149.838 37.8291C149.86 37.8745 149.872 37.9239 149.873 37.9741C149.875 38.0244 149.866 38.0744 149.847 38.121C149.829 38.1677 149.801 38.21 149.765 38.2453L140.249 49.1083C140.205 49.1543 140.151 49.1883 140.09 49.2068C140.03 49.2253 139.965 49.2278 139.904 49.2141Z" fill="#6C92D9"/>
<path id="Vector_5" d="M272.864 14.2636C272.864 -4.86947 257.286 -20.4529 238.141 -20.4529C218.995 -20.4529 203.415 -4.87955 203.415 14.2636C203.415 33.4068 218.99 48.9776 238.138 48.9776C257.286 48.9776 272.864 33.4043 272.864 14.2636ZM271.952 14.2636C271.952 32.8932 256.785 48.0663 238.141 48.0663C219.496 48.0663 204.326 32.9033 204.326 14.2636C204.326 -4.37605 219.493 -19.5415 238.138 -19.5415C256.783 -19.5415 271.95 -4.37604 271.95 14.2636L271.952 14.2636Z" fill="#FEB46D"/>
<path id="Vector_6" d="M357.951 50.3547C350.922 53.0235 343.263 53.5635 335.928 51.9074C328.594 50.2512 321.91 46.4722 316.711 41.0421C311.512 35.612 308.028 28.7712 306.693 21.3737C305.358 13.9761 306.233 6.34944 309.207 -0.554448L291.088 -0.554449C289.69 4.36905 288.98 9.46262 288.981 14.5808C288.981 45.1535 313.77 69.9359 344.348 69.9359C348.933 69.9388 353.501 69.3731 357.946 68.2517L357.951 50.3547Z" fill="#FEB46D"/>
<path id="Vector_7" d="M302.153 97.1274C299.714 100.083 296.454 102.249 292.783 103.352C289.113 104.454 285.198 104.444 281.534 103.323C277.869 102.201 274.619 100.018 272.196 97.0502C269.772 94.0823 268.283 90.4625 267.917 86.6486C267.551 82.8346 268.325 78.9979 270.14 75.6235C271.955 72.2491 274.731 69.4886 278.115 67.6911C281.5 65.8935 285.341 65.1397 289.154 65.5249C292.967 65.9101 296.581 67.4171 299.537 69.8552C301.5 71.4741 303.125 73.4637 304.319 75.7105C305.513 77.9572 306.252 80.417 306.495 82.9495C306.738 85.482 306.48 88.0375 305.735 90.4702C304.99 92.9028 303.773 95.165 302.153 97.1274ZM297.543 93.3184C299.227 91.2754 300.268 88.779 300.533 86.1448C300.798 83.5106 300.276 80.8569 299.033 78.5191C297.79 76.1814 295.882 74.2645 293.549 73.011C291.217 71.7574 288.565 71.2234 285.929 71.4764C283.293 71.7294 280.791 72.7581 278.739 74.4325C276.688 76.1068 275.179 78.3516 274.404 80.8831C273.628 83.4146 273.621 86.1191 274.383 88.6547C275.145 91.1903 276.641 93.4432 278.684 95.1285C280.041 96.2482 281.605 97.0896 283.287 97.6046C284.97 98.1196 286.737 98.2982 288.488 98.1301C290.24 97.962 291.941 97.4505 293.494 96.6249C295.048 95.7993 296.424 94.6757 297.543 93.3184Z" fill="#FEB46D"/>
<path id="Vector_8" d="M289.328 112.651C286.887 115.609 283.623 117.776 279.949 118.879C276.275 119.983 272.357 119.971 268.689 118.848C265.021 117.724 261.77 115.537 259.345 112.566C256.921 109.594 255.433 105.97 255.069 102.152C254.705 98.3344 255.482 94.4946 257.302 91.1186C259.121 87.7426 261.902 84.982 265.291 83.186C268.68 81.3901 272.526 80.6396 276.343 81.0294C280.159 81.4192 283.773 82.9318 286.729 85.3759C288.691 86.9961 290.315 88.9868 291.508 91.2344C292.7 93.482 293.438 95.9424 293.68 98.4751C293.921 101.008 293.661 103.563 292.914 105.996C292.168 108.428 290.949 110.689 289.328 112.651ZM284.715 108.839C286.401 106.797 287.444 104.302 287.711 101.667C287.979 99.0332 287.459 96.3788 286.218 94.0399C284.976 91.7011 283.069 89.7827 280.737 88.5274C278.405 87.2721 275.753 86.7362 273.117 86.9875C270.48 87.2389 267.978 88.2661 265.925 89.9394C263.872 91.6126 262.362 93.8568 261.585 96.388C260.808 98.9193 260.8 101.624 261.56 104.16C262.321 106.696 263.817 108.95 265.859 110.637C267.214 111.757 268.778 112.599 270.46 113.115C272.141 113.631 273.908 113.811 275.659 113.644C277.41 113.477 279.111 112.967 280.665 112.142C282.219 111.318 283.595 110.195 284.715 108.839Z" fill="#6C92D9"/>
<path id="Vector_9" d="M37.4834 4.24627C35.5453 6.5983 32.953 8.32281 30.0343 9.20167C27.1157 10.0805 24.0019 10.0742 21.0868 9.18356C18.1718 8.2929 15.5865 6.5579 13.6579 4.19805C11.7293 1.83819 10.5442 -1.04049 10.2524 -4.07383C9.96062 -7.10717 10.5753 -10.1589 12.0187 -12.8429C13.462 -15.527 15.6693 -17.7227 18.3611 -19.1524C21.053 -20.5822 24.1085 -21.1816 27.1412 -20.8749C30.1738 -20.5682 33.0474 -19.3692 35.3983 -17.4295C38.5484 -14.8305 40.5375 -11.0875 40.9285 -7.02307C41.3194 -2.95863 40.0803 1.09473 37.4834 4.24627ZM33.8119 1.22525C35.1521 -0.399252 35.9803 -2.38458 36.1918 -4.47967C36.4033 -6.57476 35.9887 -8.68551 35.0002 -10.545C34.0118 -12.4045 32.494 -13.9292 30.6388 -14.9262C28.7836 -15.9233 26.6743 -16.348 24.5777 -16.1466C22.481 -15.9452 20.4912 -15.1267 18.8599 -13.7947C17.2285 -12.4627 16.0289 -10.677 15.4127 -8.66341C14.7965 -6.64979 14.7915 -4.49872 15.3982 -2.48223C16.0049 -0.465737 17.1961 1.32561 18.8211 2.66527C21.0001 4.46154 23.8035 5.31895 26.6148 5.0489C29.4261 4.77885 32.0149 3.40345 33.8119 1.22525Z" fill="#FEB46D"/>
<path id="Vector_10" d="M27.285 16.5946C25.3446 18.9434 22.7511 20.6641 19.8324 21.5393C16.9138 22.4145 13.8011 22.4047 10.888 21.5113C7.97486 20.6179 5.39217 18.8809 3.46651 16.52C1.54085 14.1592 0.358702 11.2805 0.0695595 8.24796C-0.219583 5.21543 0.397267 2.16528 1.8421 -0.516763C3.28694 -3.19881 5.49487 -5.39229 8.18669 -6.81983C10.8785 -8.24737 13.9333 -8.84485 16.9648 -8.53671C19.9962 -8.22858 22.8682 -7.02866 25.2176 -5.0887C26.7777 -3.80085 28.0688 -2.21834 29.0171 -0.431565C29.9653 1.35521 30.5522 3.31124 30.7442 5.32481C30.9362 7.33838 30.7295 9.37004 30.136 11.3037C29.5425 13.2374 28.5737 15.0353 27.285 16.5946ZM23.616 13.5736C24.9574 11.9501 25.7871 9.96526 26.0001 7.87027C26.2131 5.77527 25.7999 3.66417 24.8128 1.80395C23.8256 -0.0562655 22.3088 -1.58204 20.4543 -2.58041C18.5997 -3.57879 16.4906 -4.00491 14.3937 -3.8049C12.2969 -3.60488 10.3065 -2.78772 8.67421 -1.45674C7.04195 -0.12576 5.84113 1.65924 5.22365 3.67252C4.60618 5.6858 4.59977 7.83693 5.20524 9.85385C5.81071 11.8708 7.00087 13.6629 8.62518 15.0036C9.70398 15.8935 10.9476 16.5621 12.285 16.9713C13.6224 17.3804 15.0274 17.5221 16.4196 17.3881C17.8118 17.2541 19.1639 16.8472 20.3987 16.1905C21.6335 15.5338 22.7268 14.6403 23.616 13.561L23.616 13.5736Z" fill="#6C92D9"/>
<path id="Vector_11" d="M223.004 75.0917C221.984 76.3269 220.62 77.2319 219.085 77.6921C217.55 78.1524 215.913 78.1473 214.381 77.6774C212.849 77.2076 211.491 76.2941 210.479 75.0525C209.466 73.8109 208.845 72.297 208.693 70.7022C208.541 69.1075 208.866 67.5035 209.626 66.0932C210.386 64.683 211.547 63.5297 212.963 62.7793C214.379 62.029 215.985 61.7152 217.579 61.8777C219.173 62.0402 220.683 62.6718 221.918 63.6924C222.739 64.3696 223.417 65.2016 223.915 66.141C224.414 67.0804 224.722 68.1087 224.823 69.1673C224.924 70.2258 224.815 71.2938 224.503 72.3103C224.191 73.3269 223.681 74.272 223.004 75.0917ZM221.075 73.5006C221.779 72.6468 222.215 71.6033 222.326 70.5021C222.437 69.4009 222.219 68.2915 221.7 67.3141C221.181 66.3366 220.383 65.5351 219.408 65.0109C218.433 64.4866 217.324 64.2632 216.222 64.3688C215.12 64.4744 214.074 64.9043 213.217 65.6041C212.359 66.304 211.728 67.2424 211.404 68.3006C211.08 69.3589 211.077 70.4895 211.395 71.5495C211.713 72.6095 212.339 73.5513 213.193 74.2558C213.76 74.7253 214.415 75.0783 215.119 75.2944C215.823 75.5106 216.563 75.5858 217.296 75.5156C218.029 75.4454 218.741 75.2313 219.391 74.8856C220.041 74.5398 220.617 74.0691 221.085 73.5006L221.075 73.5006Z" fill="#6C92D9"/>
<path id="Vector_12" d="M75.186 5.84511C74.1654 7.07998 72.8016 7.98458 71.2668 8.44453C69.732 8.90447 68.0953 8.89909 66.5636 8.42907C65.0319 7.95905 63.674 7.0455 62.6616 5.80394C61.6492 4.56239 61.0279 3.04859 60.8761 1.45399C60.7243 -0.140616 61.0489 -1.74441 61.8089 -3.15458C62.5688 -4.56475 63.73 -5.71796 65.1455 -6.46838C66.561 -7.21879 68.1674 -7.53271 69.7614 -7.37044C71.3554 -7.20816 72.8654 -6.57698 74.1006 -5.55671C74.921 -4.87949 75.5999 -4.0473 76.0985 -3.10769C76.597 -2.16808 76.9055 -1.13946 77.0063 -0.0806193C77.1071 0.978226 76.9982 2.04655 76.6859 3.06331C76.3735 4.08007 75.8638 5.02534 75.186 5.84511ZM73.257 4.25152C73.9614 3.39768 74.3968 2.3542 74.5081 1.25302C74.6193 0.151834 74.4015 -0.957602 73.8821 -1.93502C73.3627 -2.91244 72.565 -3.71394 71.59 -4.23819C70.615 -4.76244 69.5064 -4.98589 68.4044 -4.88029C67.3023 -4.7747 66.2564 -4.34479 65.3987 -3.64493C64.541 -2.94508 63.9102 -2.0067 63.586 -0.948443C63.2617 0.109812 63.2586 1.24042 63.5771 2.30043C63.8956 3.36044 64.5213 4.30225 65.3751 5.00677C66.5209 5.95043 67.9946 6.40046 69.4723 6.25788C70.9499 6.1153 72.3104 5.39179 73.2545 4.24648L73.257 4.25152Z" fill="#FEB46D"/>
<path id="Vector_13" d="M110.546 83.6564C109.526 84.8909 108.163 85.7954 106.629 86.2554C105.095 86.7154 103.459 86.7103 101.927 86.2407C100.396 85.7712 99.0386 84.8582 98.0263 83.6173C97.0141 82.3764 96.3926 80.8633 96.2405 79.2693C96.0883 77.6753 96.4124 76.072 97.1717 74.6622C97.931 73.2523 99.0914 72.0992 100.506 71.3486C101.921 70.5981 103.527 70.2837 105.12 70.4454C106.714 70.6071 108.223 71.2376 109.458 72.2571C110.279 72.9341 110.957 73.766 111.456 74.7053C111.955 75.6446 112.263 76.6729 112.364 77.7314C112.465 78.79 112.357 79.8581 112.045 80.8747C111.733 81.8913 111.224 82.8365 110.546 83.6564ZM108.617 82.0653C109.322 81.2114 109.757 80.168 109.868 79.0668C109.98 77.9656 109.762 76.8562 109.242 75.8787C108.723 74.9013 107.925 74.0998 106.95 73.5756C105.975 73.0513 104.867 72.8279 103.765 72.9335C102.663 73.0391 101.617 73.469 100.759 74.1688C99.9014 74.8687 99.2706 75.8071 98.9463 76.8653C98.6221 77.9236 98.619 79.0542 98.9375 80.1142C99.2559 81.1742 99.8816 82.116 100.735 82.8205C101.303 83.2885 101.956 83.6401 102.659 83.8554C103.362 84.0707 104.101 84.1454 104.833 84.0753C105.565 84.0051 106.276 83.7915 106.925 83.4467C107.575 83.1018 108.15 82.6324 108.617 82.0653Z" fill="#6C92D9"/>
<path id="Vector_14" d="M114.485 50.3621C114.113 50.8128 113.615 51.1431 113.055 51.3111C112.495 51.4791 111.898 51.4773 111.339 51.306C110.78 51.1346 110.284 50.8015 109.915 50.3485C109.545 49.8956 109.318 49.3433 109.262 48.7614C109.207 48.1796 109.325 47.5943 109.602 47.0796C109.879 46.5649 110.303 46.1438 110.819 45.8697C111.335 45.5957 111.922 45.4808 112.503 45.5397C113.085 45.5986 113.636 45.8286 114.087 46.2007C114.386 46.4478 114.634 46.7514 114.816 47.0943C114.999 47.4372 115.111 47.8126 115.148 48.199C115.185 48.5854 115.146 48.9754 115.032 49.3465C114.918 49.7177 114.732 50.0628 114.485 50.3621ZM113.78 49.7806C114.038 49.4689 114.197 49.0878 114.239 48.6854C114.28 48.283 114.201 47.8775 114.011 47.5201C113.822 47.1627 113.53 46.8695 113.174 46.6777C112.818 46.4859 112.413 46.404 112.01 46.4424C111.607 46.4809 111.225 46.6379 110.912 46.8936C110.598 47.1493 110.368 47.4923 110.249 47.8791C110.131 48.2658 110.13 48.679 110.246 49.0664C110.363 49.4537 110.592 49.7978 110.904 50.055C111.111 50.2258 111.349 50.3542 111.606 50.4329C111.862 50.5115 112.132 50.5389 112.399 50.5134C112.666 50.4879 112.925 50.4101 113.162 50.2843C113.399 50.1586 113.609 49.9874 113.78 49.7806Z" fill="#6C92D9"/>
<path id="Vector_15" d="M338.337 25.2147C337.965 25.6654 337.467 25.9956 336.907 26.1636C336.347 26.3316 335.75 26.3298 335.191 26.1585C334.632 25.9872 334.136 25.654 333.767 25.2011C333.397 24.7482 333.17 24.1958 333.115 23.614C333.059 23.0321 333.177 22.4468 333.454 21.9321C333.731 21.4174 334.155 20.9964 334.671 20.7223C335.188 20.4482 335.774 20.3333 336.355 20.3922C336.937 20.4511 337.488 20.6812 337.939 21.0532C338.239 21.3003 338.487 21.604 338.669 21.9468C338.851 22.2897 338.964 22.6651 339.001 23.0515C339.037 23.438 338.998 23.8279 338.884 24.1991C338.77 24.5702 338.584 24.9153 338.337 25.2147ZM337.632 24.6331C337.89 24.3215 338.05 23.9404 338.091 23.538C338.132 23.1356 338.053 22.73 337.863 22.3726C337.674 22.0153 337.383 21.7221 337.026 21.5302C336.67 21.3384 336.265 21.2565 335.862 21.295C335.46 21.3334 335.077 21.4904 334.764 21.7462C334.45 22.0019 334.22 22.3448 334.101 22.7316C333.983 23.1184 333.982 23.5316 334.099 23.9189C334.215 24.3062 334.444 24.6503 334.756 24.9075C335.173 25.2499 335.708 25.4138 336.245 25.3633C336.782 25.3129 337.277 25.0522 337.622 24.6382L337.632 24.6331Z" fill="#6C92D9"/>
<path id="Vector_16" d="M324.472 80.4315C324.099 80.882 323.602 81.212 323.041 81.3797C322.481 81.5474 321.884 81.5453 321.325 81.3736C320.766 81.202 320.271 80.8685 319.901 80.4153C319.532 79.9622 319.305 79.4097 319.25 78.8278C319.195 78.2459 319.313 77.6606 319.591 77.1461C319.868 76.6315 320.292 76.2108 320.809 75.937C321.325 75.6632 321.911 75.5487 322.493 75.608C323.075 75.6673 323.626 75.8977 324.077 76.27C324.376 76.5173 324.623 76.8211 324.805 77.1641C324.987 77.507 325.1 77.8824 325.136 78.2689C325.173 78.6553 325.133 79.0452 325.019 79.4163C324.905 79.7873 324.719 80.1323 324.472 80.4315ZM323.769 79.8499C324.027 79.5382 324.186 79.1571 324.227 78.7549C324.268 78.3526 324.189 77.9473 323.999 77.5901C323.81 77.2329 323.519 76.9399 323.162 76.7482C322.806 76.5565 322.401 76.4746 321.999 76.513C321.596 76.5514 321.214 76.7083 320.901 76.9638C320.587 77.2194 320.357 77.5621 320.238 77.9487C320.119 78.3352 320.118 78.7483 320.234 79.1355C320.351 79.5228 320.579 79.8669 320.891 80.1243C321.309 80.4695 321.847 80.6344 322.387 80.583C322.927 80.5315 323.424 80.2678 323.769 79.8499Z" fill="#FEB46D"/>
<path id="Vector_17" d="M242.812 29.9527C242.44 30.4034 241.942 30.7336 241.382 30.9016C240.822 31.0696 240.225 31.0679 239.666 30.8965C239.107 30.7252 238.611 30.392 238.242 29.9391C237.872 29.4862 237.645 28.9339 237.589 28.352C237.534 27.7702 237.652 27.1849 237.929 26.6701C238.206 26.1554 238.63 25.7344 239.146 25.4603C239.663 25.1862 240.249 25.0714 240.83 25.1303C241.412 25.1892 241.963 25.4192 242.414 25.7912C242.714 26.0383 242.961 26.342 243.144 26.6849C243.326 27.0278 243.438 27.4031 243.475 27.7896C243.512 28.176 243.473 28.566 243.359 28.9371C243.245 29.3083 243.059 29.6534 242.812 29.9527ZM242.107 29.3711C242.365 29.0594 242.524 28.6783 242.565 28.2761C242.606 27.8738 242.526 27.4685 242.337 27.1113C242.147 26.7541 241.856 26.4611 241.5 26.2694C241.144 26.0777 240.739 25.9958 240.336 26.0342C239.934 26.0726 239.552 26.2295 239.238 26.485C238.925 26.7406 238.694 27.0833 238.576 27.4699C238.457 27.8564 238.456 28.2695 238.572 28.6567C238.688 29.044 238.917 29.3881 239.229 29.6456C239.647 29.9907 240.185 30.1556 240.725 30.1042C241.264 30.0527 241.762 29.7891 242.107 29.3711Z" fill="#6C92D9"/>
<path id="Vector_18" d="M203.984 43.8016C203.612 44.2521 203.114 44.5821 202.554 44.7498C201.994 44.9175 201.396 44.9154 200.837 44.7437C200.278 44.572 199.783 44.2386 199.414 43.7854C199.044 43.3323 198.818 42.7798 198.762 42.1979C198.707 41.616 198.826 41.0308 199.103 40.5162C199.38 40.0016 199.804 39.5809 200.321 39.3071C200.837 39.0333 201.424 38.9189 202.005 38.9781C202.587 39.0374 203.138 39.2678 203.589 39.6401C203.888 39.8874 204.136 40.1912 204.318 40.5342C204.499 40.8771 204.612 41.2526 204.649 41.639C204.685 42.0254 204.646 42.4153 204.532 42.7864C204.417 43.1574 204.231 43.5024 203.984 43.8016ZM203.282 43.22C203.539 42.9083 203.698 42.5272 203.739 42.125C203.78 41.7227 203.701 41.3174 203.511 40.9602C203.322 40.603 203.031 40.31 202.675 40.1183C202.319 39.9266 201.914 39.8447 201.511 39.8831C201.108 39.9215 200.726 40.0784 200.413 40.3339C200.099 40.5895 199.869 40.9322 199.75 41.3188C199.632 41.7053 199.63 42.1184 199.747 42.5056C199.863 42.8929 200.091 43.237 200.403 43.4944C200.61 43.6656 200.849 43.7944 201.105 43.8733C201.362 43.9521 201.632 43.9796 201.899 43.9541C202.167 43.9286 202.426 43.8507 202.664 43.7247C202.901 43.5987 203.111 43.4272 203.282 43.22Z" fill="#6C92D9"/>
<path id="Vector_19" d="M224.837 110.264C223.816 111.498 222.451 112.402 220.916 112.861C219.381 113.32 217.745 113.314 216.213 112.843C214.682 112.372 213.324 111.457 212.313 110.215C211.301 108.973 210.681 107.458 210.53 105.864C210.379 104.269 210.705 102.665 211.466 101.256C212.227 99.846 213.389 98.6935 214.805 97.9441C216.221 97.1946 217.827 96.8818 219.421 97.0452C221.015 97.2086 222.525 97.8408 223.759 98.862C224.579 99.5398 225.257 100.372 225.755 101.312C226.253 102.252 226.561 103.281 226.661 104.34C226.761 105.399 226.652 106.467 226.339 107.483C226.026 108.5 225.516 109.445 224.837 110.264ZM222.908 108.67C223.613 107.816 224.048 106.773 224.159 105.672C224.271 104.571 224.053 103.461 223.533 102.484C223.014 101.506 222.216 100.705 221.241 100.181C220.266 99.6563 219.158 99.4328 218.056 99.5384C216.954 99.644 215.908 100.074 215.05 100.774C214.192 101.474 213.561 102.412 213.237 103.47C212.913 104.529 212.91 105.659 213.228 106.719C213.547 107.779 214.172 108.721 215.026 109.426C215.593 109.893 216.247 110.245 216.95 110.46C217.653 110.676 218.392 110.75 219.124 110.68C219.856 110.61 220.567 110.397 221.216 110.052C221.865 109.707 222.44 109.237 222.908 108.67Z" fill="#FEB46D"/>
<path id="Vector_20" d="M71.9652 44.5796C71.2069 45.4968 70.1936 46.1687 69.0534 46.5103C67.9131 46.8518 66.6972 46.8477 65.5594 46.4984C64.4215 46.1491 63.4127 45.4703 62.6607 44.5479C61.9087 43.6255 61.4472 42.5009 61.3345 41.3162C61.2218 40.1316 61.4631 38.9401 62.0277 37.8925C62.5923 36.8449 63.455 35.9882 64.5066 35.4308C65.5582 34.8733 66.7516 34.6401 67.9357 34.7607C69.1199 34.8813 70.2418 35.3502 71.1594 36.1081C71.769 36.6112 72.2735 37.2295 72.6439 37.9277C73.0144 38.6258 73.2436 39.3901 73.3184 40.1769C73.3933 40.9636 73.3123 41.7574 73.0801 42.5129C72.8479 43.2683 72.469 43.9706 71.9652 44.5796ZM70.5324 43.3963C71.0568 42.7623 71.3813 41.9871 71.465 41.1687C71.5486 40.3503 71.3876 39.5254 71.0023 38.7985C70.617 38.0716 70.0247 37.4753 69.3003 37.0849C68.576 36.6946 67.752 36.5278 66.9328 36.6056C66.1136 36.6835 65.3359 37.0025 64.6981 37.5223C64.0602 38.042 63.5909 38.7393 63.3495 39.5258C63.1081 40.3122 63.1054 41.1526 63.3418 41.9406C63.5782 42.7286 64.043 43.4288 64.6776 43.9527C65.5282 44.6541 66.6224 44.9894 67.72 44.8851C68.8177 44.7808 69.8292 44.2454 70.5324 43.3963Z" fill="#FEB46D"/>
<path id="Vector_21" d="M193.052 71.8491C190.18 75.3246 186.34 77.8704 182.021 79.1648C177.701 80.4592 173.094 80.444 168.782 79.1212C164.471 77.7984 160.649 75.2273 157.799 71.733C154.949 68.2388 153.2 63.9782 152.772 59.49C152.343 55.0018 153.256 50.4874 155.394 46.5177C157.532 42.548 160.799 39.3011 164.783 37.1876C168.767 35.0741 173.288 34.1888 177.774 34.6437C182.261 35.0986 186.512 36.8733 189.99 39.7433C192.3 41.6501 194.212 43.9932 195.616 46.6387C197.021 49.2843 197.89 52.1806 198.174 55.162C198.458 58.1435 198.153 61.1517 197.274 64.015C196.395 66.8782 194.96 69.5403 193.052 71.8491ZM187.621 67.3654C189.606 64.9623 190.835 62.0244 191.15 58.9233C191.466 55.8222 190.855 52.6972 189.394 49.9435C187.933 47.1897 185.688 44.931 182.943 43.4529C180.197 41.9748 177.076 41.3437 173.972 41.6395C170.868 41.9353 167.921 43.1447 165.505 45.1147C163.089 47.0846 161.311 49.7268 160.397 52.7069C159.482 55.6869 159.473 58.8712 160.369 61.8568C161.265 64.8425 163.026 67.4954 165.43 69.4802C167.026 70.798 168.866 71.7887 170.845 72.3957C172.824 73.0027 174.903 73.214 176.964 73.0176C179.024 72.8212 181.026 72.221 182.854 71.2512C184.683 70.2814 186.303 68.961 187.621 67.3654Z" fill="#FEB46D"/>
<path id="Vector_22" d="M135.32 13.3094C132.821 16.3343 129.48 18.5504 125.721 19.6773C121.962 20.8042 117.953 20.7914 114.201 19.6405C110.449 18.4895 107.122 16.2522 104.642 13.2113C102.162 10.1704 100.64 6.46262 100.268 2.55675C99.8955 -1.34911 100.69 -5.27761 102.551 -8.73198C104.412 -12.1863 107.256 -15.0114 110.723 -16.85C114.19 -18.6885 118.125 -19.458 122.029 -19.061C125.934 -18.6641 129.633 -17.1186 132.659 -14.6199C134.668 -12.9608 136.33 -10.9223 137.552 -8.62082C138.773 -6.31932 139.528 -3.79989 139.776 -1.2064C140.023 1.38709 139.756 4.00385 138.992 6.49448C138.228 8.9851 136.98 11.3008 135.32 13.3094ZM130.586 9.40974C132.314 7.31867 133.383 4.76233 133.657 2.06403C133.932 -0.634276 133.399 -3.35336 132.128 -5.74935C130.857 -8.14535 128.903 -10.1106 126.515 -11.3967C124.126 -12.6827 121.41 -13.2318 118.709 -12.9744C116.008 -12.717 113.445 -11.6647 111.342 -9.95066C109.24 -8.23659 107.693 -5.9377 106.897 -3.34472C106.102 -0.751733 106.093 2.01887 106.873 4.61673C107.652 7.21458 109.185 9.523 111.277 11.25C112.665 12.397 114.266 13.2592 115.988 13.7874C117.71 14.3156 119.52 14.4995 121.313 14.3286C123.106 14.1578 124.848 13.6354 126.439 12.7914C128.03 11.9474 129.439 10.7983 130.586 9.40974Z" fill="#FEB46D"/>
<path id="Vector_23" d="M228.932 -10.8863C228.932 -30.027 213.354 -45.6003 194.208 -45.6003C175.062 -45.6003 159.482 -30.027 159.482 -10.8864C159.482 8.2543 175.06 23.8302 194.208 23.8302C213.357 23.8302 228.932 8.25683 228.932 -10.8863ZM228.02 -10.8863C228.02 7.74326 212.853 22.9188 194.208 22.9188C175.564 22.9188 160.394 7.75332 160.394 -10.8864C160.394 -29.526 175.564 -44.689 194.208 -44.689C212.853 -44.689 228.02 -29.5235 228.02 -10.8863Z" fill="#6C92D9"/>
<path id="Vector_24" d="M87.0618 40.7502C87.0628 36.7599 85.8801 32.8589 83.6635 29.5405C81.4468 26.2222 78.2957 23.6355 74.6085 22.1075C70.9213 20.5796 66.8637 20.179 62.9488 20.9565C59.0339 21.734 55.4376 23.6546 52.6145 26.4755C49.7915 29.2964 47.8686 32.8908 47.0889 36.8042C46.3093 40.7177 46.7079 44.7744 48.2344 48.4613C49.7609 52.1482 52.3468 55.2999 55.6649 57.5176C58.9831 59.7353 62.8845 60.9195 66.8759 60.9205C72.2264 60.9159 77.3565 58.7896 81.1408 55.0082C84.925 51.2269 87.0544 46.0992 87.0618 40.7502ZM86.533 40.7502C86.533 44.634 85.381 48.4305 83.2227 51.6597C81.0644 54.8889 77.9967 57.4058 74.4077 58.8921C70.8186 60.3783 66.8692 60.7672 63.0591 60.0095C59.2489 59.2518 55.7491 57.3816 53.0021 54.6354C50.2551 51.8892 48.3844 48.3903 47.6265 44.5811C46.8686 40.772 47.2576 36.8237 48.7443 33.2356C50.2309 29.6475 52.7485 26.5807 55.9786 24.423C59.2087 22.2653 63.0062 21.1136 66.891 21.1136C72.0977 21.1223 77.0887 23.1939 80.7704 26.8746C84.4521 30.5553 86.5243 35.5449 86.533 40.7502Z" fill="#6C92D9"/>
<path id="Vector_25" d="M322.274 193.72C321.516 194.638 320.503 195.311 319.363 195.654C318.223 195.997 317.006 195.994 315.868 195.646C314.729 195.297 313.719 194.619 312.967 193.696C312.214 192.774 311.752 191.649 311.638 190.464C311.525 189.279 311.766 188.087 312.331 187.039C312.896 185.991 313.758 185.134 314.81 184.576C315.863 184.019 317.056 183.786 318.241 183.907C319.426 184.028 320.548 184.497 321.465 185.256C322.074 185.758 322.578 186.376 322.948 187.073C323.319 187.771 323.548 188.534 323.623 189.32C323.698 190.106 323.617 190.899 323.386 191.654C323.154 192.409 322.776 193.111 322.274 193.72ZM320.841 192.536C321.365 191.902 321.689 191.127 321.772 190.308C321.856 189.49 321.694 188.665 321.309 187.938C320.923 187.212 320.33 186.616 319.606 186.226C318.881 185.836 318.057 185.669 317.238 185.747C316.419 185.826 315.641 186.145 315.004 186.665C314.366 187.185 313.897 187.882 313.656 188.669C313.415 189.455 313.413 190.296 313.649 191.084C313.886 191.872 314.351 192.572 314.986 193.095C315.407 193.443 315.892 193.704 316.415 193.865C316.937 194.025 317.485 194.08 318.029 194.029C318.573 193.977 319.101 193.818 319.583 193.562C320.066 193.306 320.493 192.958 320.841 192.536Z" fill="#FEB46D"/>
<path id="Vector_26" d="M337.37 189.89C337.371 185.9 336.188 181.999 333.971 178.681C331.754 175.363 328.602 172.777 324.915 171.249C321.228 169.722 317.17 169.322 313.256 170.099C309.341 170.877 305.745 172.798 302.922 175.619C300.099 178.44 298.177 182.034 297.397 185.948C296.618 189.861 297.016 193.918 298.543 197.604C300.07 201.291 302.655 204.443 305.974 206.66C309.292 208.878 313.193 210.062 317.184 210.063C322.535 210.058 327.666 207.932 331.45 204.15C335.234 200.368 337.363 195.24 337.37 189.89ZM336.841 189.89C336.841 193.774 335.689 197.571 333.531 200.8C331.373 204.029 328.305 206.546 324.716 208.032C321.127 209.518 317.178 209.907 313.367 209.15C309.557 208.392 306.057 206.522 303.31 203.775C300.564 201.029 298.693 197.53 297.935 193.721C297.177 189.912 297.566 185.964 299.053 182.376C300.539 178.788 303.057 175.721 306.287 173.563C309.517 171.405 313.315 170.254 317.199 170.254C322.406 170.262 327.397 172.334 331.079 176.015C334.76 179.695 336.833 184.685 336.841 189.89Z" fill="#6C92D9"/>
<path id="Vector_27" d="M379.132 119.775C379.132 100.634 363.554 85.0586 344.408 85.0586C325.263 85.0586 309.683 100.632 309.683 119.773C309.683 138.913 325.26 154.489 344.408 154.489C363.557 154.489 379.132 138.918 379.132 119.775ZM378.22 119.775C378.22 138.405 363.053 153.58 344.408 153.58C325.764 153.58 310.594 138.415 310.594 119.775C310.594 101.135 325.764 85.9724 344.408 85.9724C363.053 85.9725 378.22 101.135 378.22 119.775Z" fill="#6C92D9"/>
</g>
</g>
<defs>
<clipPath id="clip0_887_490">
<rect width="358" height="210" fill="white" transform="matrix(-1 -8.74228e-08 -8.74228e-08 1 358 0.375977)"/>
</clipPath>
</defs>
</svg>
