<svg width="20" height="20" viewBox="0 0 20 20" fill="none" xmlns="http://www.w3.org/2000/svg">
<g clip-path="url(#clip0_455_112)">
<rect y="-0.000244141" width="20" height="20" rx="10" fill="white"/>
<g clip-path="url(#clip1_455_112)">
<path d="M9.9999 18.5711C14.7338 18.5711 18.5713 14.7335 18.5713 9.99965C18.5713 5.26578 14.7338 1.42822 9.9999 1.42822C5.26603 1.42822 1.42847 5.26578 1.42847 9.99965C1.42847 14.7335 5.26603 18.5711 9.9999 18.5711Z" fill="#26A17B"/>
<path fill-rule="evenodd" clip-rule="evenodd" d="M11.0295 10.7405V10.7394C10.9706 10.7437 10.6669 10.7619 9.98918 10.7619C9.44811 10.7619 9.06722 10.7459 8.93329 10.7394V10.7411C6.85043 10.6494 5.29579 10.2868 5.29579 9.85284C5.29579 9.41944 6.85043 9.05677 8.93329 8.96355V10.38C9.06936 10.3896 9.45936 10.4127 9.99829 10.4127C10.6449 10.4127 10.969 10.3859 11.0295 10.3805V8.96462C13.1081 9.0573 14.659 9.41998 14.659 9.85284C14.659 10.2868 13.1081 10.6484 11.0295 10.7405ZM11.0295 8.8173V7.5498H13.9299V5.61694H6.03293V7.5498H8.93329V8.81677C6.57615 8.92498 4.80347 9.39212 4.80347 9.95141C4.80347 10.5107 6.57615 10.9773 8.93329 11.0861V15.1478H11.0295V11.085C13.3829 10.9768 15.1513 10.5102 15.1513 9.95141C15.1513 9.39266 13.3829 8.92605 11.0295 8.8173Z" fill="white"/>
</g>
</g>
<defs>
<clipPath id="clip0_455_112">
<rect y="-0.000244141" width="20" height="20" rx="10" fill="white"/>
</clipPath>
<clipPath id="clip1_455_112">
<rect width="17.1429" height="17.1429" fill="white" transform="translate(1.42871 1.42847)"/>
</clipPath>
</defs>
</svg>
