<svg width="84" height="84" viewBox="0 0 84 84" fill="none" xmlns="http://www.w3.org/2000/svg">
<path d="M74.1104 38.9255C71.2521 37.4965 65.893 37.48 65.6663 37.48C64.9867 37.48 64.4358 38.0309 64.4358 38.7104C64.4358 39.39 64.9867 39.9409 65.6663 39.9409C67.0491 39.9411 71.0642 40.154 73.0099 41.1268C73.1866 41.2152 73.3742 41.2569 73.5591 41.2569C74.0105 41.2569 74.4451 41.0075 74.6607 40.5765C74.9647 39.9686 74.7182 39.2295 74.1104 38.9255Z" fill="#F5F8FB"/>
<path d="M80.2449 56.4441L75.1631 54.9922C74.9437 54.9295 74.7905 54.7264 74.7905 54.4982V52.8019C75.2039 52.5155 75.5984 52.1949 75.967 51.8371C77.7536 50.1033 78.7375 47.7777 78.7375 45.2885V42.9479L79.2289 41.9653C79.7682 40.8866 80.0531 39.6789 80.0531 38.4731V32.132C80.0531 31.4525 79.5022 30.9016 78.8227 30.9016H66.9818C62.6761 30.9016 59.1731 34.4046 59.1731 38.7103V38.7836C59.1731 39.7864 59.4101 40.7906 59.8585 41.6874L60.4887 42.9477V44.9575C60.4887 48.1426 62.0583 51.0004 64.4357 52.7201L64.436 54.4979C64.436 54.772 64.436 54.8855 63.42 55.1759L60.9404 55.8844L53.7674 53.2761C53.7931 52.9376 53.679 52.5934 53.432 52.334L51.1399 49.9259V45.8834C51.3822 45.6838 51.6211 45.4787 51.8526 45.2618C54.7442 42.5515 56.4026 38.7249 56.4026 34.7633V31.5349C57.2757 29.6348 57.7182 27.6243 57.7182 25.5536V12.3975C57.7182 11.7179 57.1673 11.167 56.4877 11.167H38.0686C31.5865 11.167 26.313 16.4406 26.313 22.9226V25.554C26.313 27.6246 26.7555 29.6352 27.6286 31.5352V34.3129C27.6286 38.9126 29.6738 43.0565 32.8913 45.7884V49.9261L30.5991 52.3342C30.3522 52.5936 30.238 52.9378 30.2638 53.2763L22.6931 56.0291C22.1445 56.2286 21.6348 56.4988 21.1719 56.8261L19.9831 56.2317C23.522 54.6913 24.643 52.5248 24.6968 52.4172C24.8701 52.0709 24.8701 51.663 24.6968 51.3167C23.8097 49.5425 23.7023 46.2906 23.616 43.6778C23.5873 42.8079 23.56 41.9861 23.508 41.2544C23.0885 35.3524 18.6017 30.9016 13.0712 30.9016C7.54064 30.9016 3.0537 35.3523 2.63435 41.2544C2.58234 41.9863 2.55511 42.8081 2.5264 43.6781C2.4401 46.2908 2.33248 49.5424 1.44555 51.3165C1.2723 51.6629 1.2723 52.0707 1.44555 52.4171C1.49937 52.5247 2.61811 54.6867 6.16399 56.2289L2.86191 57.8798C1.09659 58.7632 0 60.5375 0 62.511V71.6015C0 72.2811 0.550922 72.832 1.23047 72.832C1.91002 72.832 2.46094 72.2811 2.46094 71.6015V62.511C2.46094 61.4754 3.0363 60.5444 3.96244 60.0812L8.07434 58.0254L9.50463 59.3846C10.5048 60.335 11.7877 60.81 13.0712 60.81C14.3543 60.81 15.6379 60.3347 16.6377 59.3846L18.0679 58.0255L19.4086 58.6959C18.7773 59.706 18.419 60.8906 18.419 62.1314V71.6019C18.419 72.2814 18.9699 72.8323 19.6494 72.8323C20.329 72.8323 20.8799 72.2814 20.8799 71.6019V62.1314C20.8799 60.4422 21.9465 58.9193 23.5341 58.342L31.5161 55.4396L34.8388 60.424C35.2636 61.0612 35.9443 61.4699 36.7064 61.5453C36.7913 61.5537 36.8758 61.5578 36.9602 61.5578C37.6325 61.5578 38.2764 61.2932 38.7578 60.812L40.785 58.7848V71.602C40.785 72.2816 41.3359 72.8325 42.0154 72.8325C42.695 72.8325 43.2459 72.2816 43.2459 71.602V58.7848L45.273 60.812C45.7542 61.2933 46.3982 61.558 47.0707 61.558C47.1548 61.558 47.2395 61.5539 47.3243 61.5455C48.0866 61.47 48.7673 61.0613 49.192 60.4241L52.5149 55.4399L60.4967 58.3423C62.0842 58.9197 63.1509 60.4425 63.1509 62.1317V71.6022C63.1509 72.2817 63.7019 72.8327 64.3814 72.8327C65.061 72.8327 65.6119 72.2817 65.6119 71.6022V62.1317C65.6119 60.4208 64.9322 58.8163 63.7919 57.6297L64.0959 57.5429C64.4026 57.4553 64.8209 57.3353 65.2409 57.1294L68.3826 60.2711V71.6022C68.3826 72.2817 68.9335 72.8327 69.613 72.8327C70.2926 72.8327 70.8435 72.2817 70.8435 71.6022V60.2711L73.9633 57.1512C74.1292 57.2356 74.3034 57.3068 74.4868 57.3591L79.5688 58.8111C80.7288 59.1425 81.5391 60.2166 81.5391 61.4231V71.6022C81.5391 72.2817 82.09 72.8327 82.7695 72.8327C83.4491 72.8327 84 72.2817 84 71.6022V61.4231C84 59.1233 82.4558 57.0759 80.2449 56.4441ZM7.89387 54.2708C5.59223 53.4426 4.43773 52.3385 3.94488 51.7355C4.28088 50.8572 4.49876 49.8511 4.64625 48.7891C5.32481 50.4161 6.46127 51.8051 7.89387 52.796V54.2708ZM14.9428 57.6009C13.8933 58.5981 12.2492 58.5979 11.2001 57.6008L10.0557 56.5134C10.2488 56.1516 10.355 55.7415 10.355 55.3118V54.0003C11.2133 54.2685 12.1259 54.4132 13.0715 54.4132C14.016 54.4132 14.928 54.2678 15.7879 54.0011L15.7877 55.3116C15.7877 55.7415 15.8937 56.1518 16.087 56.5137L14.9428 57.6009ZM13.0718 51.9523C9.3975 51.9523 6.40845 48.9631 6.40845 45.2889C6.40845 44.6093 5.85752 44.0584 5.17798 44.0584C5.10907 44.0584 5.0418 44.0655 4.97602 44.0765C4.97963 43.9706 4.98307 43.8646 4.98668 43.7598C5.01408 42.9137 5.04049 42.1146 5.08922 41.4291C5.24639 39.2182 6.12987 37.1809 7.5769 35.6922C9.03689 34.19 10.9883 33.3628 13.0715 33.3628C15.1548 33.3628 17.106 34.19 18.5661 35.6922C20.0132 37.1809 20.8966 39.2182 21.0538 41.4291C21.1024 42.1144 21.129 42.9134 21.1568 43.7593C21.1593 43.832 21.1618 43.9057 21.1642 43.9788C19.8255 41.9162 17.758 40.3962 15.0865 39.5378C12.6185 38.7449 10.4959 38.794 10.4063 38.7963C10.0841 38.8053 9.77829 38.9401 9.55467 39.1721L7.33458 41.4746C6.8629 41.9638 6.87701 42.7428 7.36624 43.2145C7.85548 43.6861 8.63445 43.6719 9.10612 43.1828L10.9535 41.267C12.5444 41.3448 17.6626 41.94 19.6532 46.3233C19.1523 49.5533 16.3761 51.9523 13.0718 51.9523ZM18.2485 54.2749L18.2487 52.8074C19.6801 51.8218 20.8182 50.4355 21.4973 48.7962C21.6448 49.8557 21.8625 50.8594 22.1978 51.7359C21.7078 52.3331 20.5478 53.447 18.2485 54.2749ZM30.0896 34.3128V31.2599C30.0896 31.0747 30.0477 30.8917 29.9672 30.7249C29.1754 29.0852 28.7739 27.3455 28.7739 25.554V22.9227C28.7739 17.7976 32.9436 13.6281 38.0686 13.6281H55.2572V25.5541C55.2572 27.3457 54.8558 29.0854 54.064 30.725C53.9835 30.8919 53.9416 31.0748 53.9416 31.2601V34.7636C53.9416 38.0959 52.602 41.1867 50.1697 43.4666C49.866 43.7511 49.5508 44.0179 49.225 44.2664C49.2178 44.2714 49.2109 44.2768 49.2038 44.2819C46.9252 46.0119 44.1341 46.8527 41.2194 46.6639C34.9783 46.2598 30.0896 40.8346 30.0896 34.3128ZM37.0177 59.0716C37.0092 59.0801 36.9894 59.1003 36.9492 59.096C36.9091 59.0921 36.8934 59.0686 36.8867 59.0585L33.0599 53.3183L34.2914 52.0243L40.0967 55.9925L37.0177 59.0716ZM42.0156 54.3231L35.3522 49.7684V47.4716C37.0763 48.4036 39.0068 48.9865 41.0601 49.1194C41.3844 49.1404 41.7068 49.1507 42.0282 49.1507C44.381 49.1507 46.6454 48.5883 48.679 47.5208V49.7684L42.0156 54.3231ZM47.1445 59.0588C47.1378 59.069 47.122 59.0924 47.082 59.0964C47.0418 59.1015 47.0221 59.0803 47.0134 59.0719L43.9345 55.993L49.7398 52.0246L50.9714 53.3186L47.1445 59.0588ZM69.613 58.0206L66.8207 55.2284C66.8694 55.0071 66.897 54.7648 66.8968 54.4975L66.8967 53.9783C67.6715 54.2326 68.4882 54.3835 69.3333 54.4088C69.4281 54.4117 69.5221 54.413 69.6166 54.413C70.5505 54.413 71.462 54.2719 72.3296 54.0027V54.4982C72.3296 54.7436 72.3604 54.9841 72.4185 55.2153L69.613 58.0206ZM74.2532 50.0711C72.9491 51.3367 71.2263 52.0051 69.4073 51.949C65.8465 51.8422 62.9496 48.7058 62.9496 44.9578V42.6575C62.9496 42.4663 62.9052 42.278 62.8197 42.1072L62.0596 40.587C61.7812 40.03 61.634 39.4066 61.634 38.7838V38.7105C61.634 35.7616 64.0331 33.3627 66.9818 33.3627H77.5922V38.4732C77.5922 39.2991 77.397 40.1262 77.0277 40.8649L76.4065 42.1072C76.3211 42.2782 76.2766 42.4663 76.2766 42.6575V45.2887C76.2766 47.1065 75.558 48.8049 74.2532 50.0711Z" fill="#F5F8FB"/>
<path d="M77.5068 62.4771C76.8273 62.4771 76.2764 63.028 76.2764 63.7075V71.6014C76.2764 72.2809 76.8273 72.8319 77.5068 72.8319C78.1864 72.8319 78.7373 72.2809 78.7373 71.6014V63.7075C78.7373 63.0281 78.1864 62.4771 77.5068 62.4771Z" fill="#F5F8FB"/>
<path d="M6.49316 64.104C5.81362 64.104 5.2627 64.6549 5.2627 65.3345V71.6018C5.2627 72.2814 5.81362 72.8323 6.49316 72.8323C7.17271 72.8323 7.72363 72.2814 7.72363 71.6018V65.3345C7.72363 64.6551 7.17271 64.104 6.49316 64.104Z" fill="#F5F8FB"/>
<path d="M52.0951 25.9998C47.4413 21.346 37.7043 22.2357 33.7337 22.8342C32.483 23.0227 31.5754 24.0811 31.5754 25.3507V28.1854C31.5754 28.865 32.1264 29.4159 32.8059 29.4159C33.4855 29.4159 34.0364 28.865 34.0364 28.1854V25.3506C34.0364 25.3087 34.0639 25.273 34.1007 25.2674C35.6867 25.0284 38.8339 24.6595 42.0946 24.8769C45.9317 25.1324 48.7109 26.0956 50.355 27.7398C50.8356 28.2204 51.6147 28.2204 52.0951 27.7398C52.5756 27.2593 52.5756 26.4801 52.0951 25.9998Z" fill="#F5F8FB"/>
<path d="M27.5435 65.1089C26.8639 65.1089 26.313 65.6598 26.313 66.3394V71.602C26.313 72.2815 26.8639 72.8325 27.5435 72.8325C28.223 72.8325 28.7739 72.2815 28.7739 71.602V66.3394C28.7739 65.66 28.223 65.1089 27.5435 65.1089Z" fill="#F5F8FB"/>
<path d="M56.4878 65.1089C55.8082 65.1089 55.2573 65.6598 55.2573 66.3394V71.602C55.2573 72.2815 55.8082 72.8325 56.4878 72.8325C57.1673 72.8325 57.7183 72.2815 57.7183 71.602V66.3394C57.7183 65.66 57.1673 65.1089 56.4878 65.1089Z" fill="#F5F8FB"/>
</svg>
