<svg width="421" height="248" viewBox="0 0 421 248" fill="none" xmlns="http://www.w3.org/2000/svg">
<g clip-path="url(#clip0_592_102)">
<path d="M159.526 129.253C159.599 129.269 159.667 129.302 159.724 129.351C159.806 129.425 159.856 129.529 159.863 129.639C159.87 129.75 159.834 129.859 159.763 129.943L102.423 195.517C102.346 195.588 102.245 195.629 102.14 195.631C102.035 195.633 101.933 195.596 101.853 195.528C101.773 195.46 101.721 195.364 101.707 195.26C101.692 195.156 101.717 195.05 101.775 194.963L159.118 129.392C159.167 129.335 159.231 129.292 159.303 129.267C159.375 129.243 159.452 129.238 159.526 129.253Z" fill="#6C92D9"/>
<path d="M122.372 157.058C122.446 157.072 122.515 157.106 122.572 157.156C122.629 157.206 122.671 157.269 122.696 157.341C122.72 157.412 122.725 157.489 122.71 157.563C122.696 157.637 122.662 157.706 122.612 157.763L111.431 170.545C111.395 170.59 111.35 170.627 111.299 170.653C111.248 170.68 111.192 170.696 111.135 170.701C111.077 170.706 111.02 170.699 110.965 170.681C110.91 170.663 110.86 170.634 110.817 170.596C110.773 170.558 110.738 170.512 110.713 170.46C110.688 170.408 110.674 170.352 110.671 170.294C110.668 170.237 110.677 170.179 110.697 170.125C110.717 170.071 110.747 170.021 110.786 169.979L121.967 157.197C122.017 157.141 122.08 157.098 122.151 157.074C122.222 157.049 122.298 157.044 122.372 157.058Z" fill="#6C92D9"/>
<path d="M293.374 161.639C293.447 161.654 293.515 161.688 293.572 161.736C293.615 161.774 293.649 161.819 293.674 161.87C293.699 161.92 293.714 161.976 293.717 162.032C293.721 162.088 293.713 162.145 293.695 162.199C293.677 162.252 293.648 162.301 293.611 162.344L236.271 227.902C236.195 227.984 236.09 228.032 235.979 228.038C235.868 228.043 235.759 228.005 235.675 227.932C235.591 227.858 235.539 227.755 235.53 227.644C235.521 227.533 235.555 227.423 235.626 227.336L292.966 161.778C293.015 161.721 293.079 161.678 293.151 161.653C293.223 161.629 293.3 161.624 293.374 161.639Z" fill="#FEB46D"/>
<path d="M256.212 189.446C256.286 189.458 256.355 189.492 256.41 189.543C256.493 189.617 256.544 189.72 256.552 189.831C256.559 189.942 256.523 190.052 256.451 190.136L245.271 202.918C245.235 202.966 245.191 203.005 245.139 203.035C245.088 203.064 245.031 203.082 244.973 203.088C244.914 203.095 244.854 203.089 244.798 203.071C244.742 203.053 244.69 203.024 244.645 202.985C244.601 202.946 244.565 202.899 244.539 202.845C244.514 202.792 244.5 202.734 244.498 202.674C244.496 202.615 244.507 202.556 244.529 202.502C244.551 202.447 244.584 202.397 244.626 202.355L255.806 189.57C255.857 189.516 255.921 189.476 255.992 189.454C256.064 189.432 256.139 189.43 256.212 189.446Z" fill="#FEB46D"/>
<path d="M99.9995 230.581C99.9995 253.1 118.301 271.44 140.795 271.44C163.289 271.44 181.594 253.112 181.594 230.581C181.594 208.051 163.295 189.725 140.798 189.725C118.301 189.725 99.9995 208.054 99.9995 230.581ZM101.071 230.581C101.071 208.655 118.89 190.797 140.795 190.797C162.7 190.797 180.523 208.643 180.523 230.581C180.523 252.519 162.703 270.368 140.798 270.368C118.893 270.368 101.073 252.519 101.073 230.581H101.071Z" fill="#6C92D9"/>
<path d="M0.0324707 188.104C8.29078 184.963 17.2899 184.327 25.9067 186.277C34.5234 188.226 42.3761 192.673 48.4846 199.064C54.593 205.455 58.6868 213.506 60.2547 222.213C61.8227 230.919 60.7955 239.896 57.3014 248.021H78.5882C80.2316 242.226 81.0649 236.232 81.0646 230.208C81.0646 194.225 51.9405 165.058 16.0146 165.058C10.6279 165.055 5.26147 165.72 0.0383868 167.04L0.0324707 188.104Z" fill="#6C92D9"/>
<path d="M65.5884 133.055C68.4539 129.577 72.2849 127.027 76.597 125.729C80.9091 124.432 85.5087 124.443 89.8141 125.764C94.1195 127.084 97.9374 129.653 100.785 133.146C103.632 136.639 105.382 140.899 105.812 145.388C106.241 149.877 105.333 154.392 103.2 158.364C101.067 162.335 97.8066 165.584 93.8303 167.7C89.8539 169.815 85.3404 170.703 80.8606 170.249C76.3807 169.796 72.1357 168.022 68.6623 165.153C66.356 163.247 64.447 160.906 63.0443 158.261C61.6416 155.617 60.7727 152.722 60.4873 149.741C60.2019 146.761 60.5054 143.753 61.3807 140.89C62.2559 138.027 63.6857 135.365 65.5884 133.055ZM71.0055 137.538C69.0266 139.942 67.804 142.881 67.4923 145.981C67.1805 149.081 67.7936 152.204 69.254 154.956C70.7144 157.707 72.9566 159.963 75.697 161.439C78.4375 162.914 81.5532 163.542 84.6504 163.245C87.7475 162.947 90.6869 161.736 93.097 159.766C95.5071 157.795 97.2798 155.153 98.1908 152.174C99.1018 149.194 99.1103 146.011 98.2153 143.027C97.3202 140.043 95.5617 137.391 93.1622 135.408C91.568 134.09 89.7301 133.099 87.7536 132.493C85.7771 131.887 83.7007 131.677 81.6431 131.875C79.5854 132.073 77.5869 132.675 75.7617 133.646C73.9364 134.618 72.3203 135.94 71.0055 137.538Z" fill="#6C92D9"/>
<path d="M80.6566 114.786C83.5248 111.304 87.3596 108.753 91.676 107.455C95.9923 106.156 100.596 106.169 104.905 107.492C109.214 108.815 113.034 111.388 115.883 114.886C118.731 118.383 120.48 122.649 120.907 127.142C121.334 131.635 120.421 136.154 118.284 140.128C116.146 144.101 112.879 147.35 108.897 149.464C104.915 151.577 100.396 152.461 95.913 152.002C91.4296 151.543 87.1828 149.763 83.7098 146.886C81.4046 144.979 79.4969 142.636 78.0959 139.991C76.6948 137.346 75.8278 134.45 75.5442 131.469C75.2607 128.488 75.5663 125.481 76.4435 122.618C77.3206 119.756 78.7523 117.094 80.6566 114.786ZM86.0767 119.272C84.0956 121.675 82.8705 124.612 82.5562 127.712C82.242 130.813 82.8527 133.937 84.3112 136.689C85.7697 139.442 88.0104 141.7 90.7501 143.177C93.4898 144.655 96.6053 145.285 99.7029 144.99C102.8 144.694 105.741 143.485 108.152 141.515C110.564 139.546 112.338 136.905 113.251 133.926C114.164 130.947 114.174 127.763 113.28 124.778C112.387 121.793 110.629 119.141 108.23 117.156C106.637 115.837 104.801 114.846 102.825 114.239C100.849 113.631 98.7732 113.42 96.7159 113.616C94.6585 113.813 92.6599 114.413 90.8344 115.384C89.0089 116.354 87.3922 117.675 86.0767 119.272Z" fill="#FEB46D"/>
<path d="M376.542 242.371C378.819 239.602 381.865 237.573 385.294 236.538C388.723 235.504 392.381 235.511 395.806 236.56C399.231 237.608 402.269 239.65 404.534 242.427C406.8 245.205 408.193 248.593 408.535 252.163C408.878 255.733 408.156 259.325 406.46 262.484C404.764 265.643 402.171 268.227 399.009 269.91C395.846 271.592 392.256 272.298 388.693 271.937C385.13 271.576 381.754 270.165 378.992 267.882C375.291 264.823 372.954 260.418 372.495 255.634C372.035 250.85 373.491 246.08 376.542 242.371ZM380.856 245.926C379.281 247.838 378.308 250.175 378.06 252.641C377.811 255.106 378.298 257.591 379.46 259.779C380.621 261.968 382.404 263.762 384.584 264.936C386.763 266.109 389.242 266.609 391.705 266.372C394.168 266.135 396.506 265.172 398.423 263.604C400.339 262.036 401.749 259.934 402.473 257.565C403.197 255.195 403.203 252.663 402.49 250.29C401.777 247.916 400.377 245.808 398.468 244.231C395.908 242.117 392.614 241.108 389.312 241.426C386.009 241.744 382.967 243.363 380.856 245.926Z" fill="#6C92D9"/>
<path d="M388.525 227.837C390.804 225.072 393.852 223.047 397.281 222.017C400.71 220.987 404.367 220.999 407.789 222.05C411.212 223.102 414.246 225.146 416.508 227.925C418.771 230.703 420.16 234.091 420.499 237.66C420.839 241.229 420.114 244.819 418.417 247.976C416.719 251.132 414.125 253.714 410.963 255.394C407.8 257.074 404.211 257.777 400.65 257.415C397.088 257.052 393.714 255.64 390.954 253.357C389.121 251.841 387.604 249.978 386.49 247.876C385.376 245.773 384.686 243.47 384.461 241.101C384.235 238.731 384.478 236.34 385.175 234.064C385.872 231.788 387.011 229.672 388.525 227.837ZM392.835 231.392C391.259 233.303 390.285 235.639 390.034 238.105C389.784 240.57 390.269 243.055 391.429 245.244C392.589 247.434 394.371 249.23 396.55 250.405C398.729 251.58 401.207 252.081 403.67 251.846C406.134 251.61 408.472 250.649 410.39 249.082C412.308 247.516 413.719 245.415 414.444 243.045C415.17 240.676 415.177 238.144 414.466 235.77C413.754 233.396 412.356 231.287 410.448 229.709C409.18 228.662 407.719 227.875 406.148 227.393C404.577 226.912 402.926 226.745 401.29 226.903C399.655 227.061 398.066 227.539 396.615 228.312C395.164 229.085 393.88 230.137 392.835 231.407V231.392Z" fill="#FEB46D"/>
<path d="M158.579 158.99C159.778 157.536 161.38 156.471 163.183 155.929C164.986 155.388 166.91 155.394 168.709 155.947C170.509 156.5 172.105 157.575 173.295 159.036C174.484 160.498 175.214 162.279 175.393 164.156C175.571 166.033 175.19 167.921 174.297 169.581C173.404 171.241 172.039 172.598 170.376 173.481C168.713 174.364 166.825 174.733 164.952 174.542C163.079 174.351 161.305 173.608 159.854 172.406C158.891 171.609 158.093 170.63 157.508 169.525C156.922 168.419 156.56 167.209 156.442 165.963C156.323 164.717 156.451 163.46 156.818 162.264C157.185 161.067 157.783 159.955 158.579 158.99ZM160.845 160.863C160.018 161.868 159.506 163.096 159.375 164.392C159.245 165.688 159.501 166.994 160.111 168.144C160.721 169.294 161.658 170.238 162.804 170.855C163.949 171.472 165.252 171.735 166.546 171.61C167.841 171.486 169.07 170.98 170.078 170.156C171.085 169.333 171.827 168.228 172.208 166.983C172.588 165.737 172.592 164.407 172.218 163.159C171.844 161.911 171.109 160.803 170.106 159.974C169.439 159.421 168.67 159.006 167.843 158.751C167.016 158.497 166.147 158.409 165.285 158.491C164.424 158.574 163.587 158.826 162.823 159.233C162.059 159.64 161.383 160.194 160.833 160.863H160.845Z" fill="#FEB46D"/>
<path d="M332.247 240.489C333.446 239.035 335.048 237.971 336.851 237.429C338.654 236.888 340.577 236.894 342.377 237.448C344.176 238.001 345.772 239.076 346.961 240.537C348.151 241.999 348.881 243.78 349.059 245.657C349.237 247.534 348.856 249.421 347.963 251.081C347.07 252.741 345.706 254.098 344.043 254.981C342.38 255.864 340.493 256.234 338.62 256.043C336.747 255.852 334.973 255.109 333.522 253.908C332.558 253.111 331.76 252.132 331.175 251.026C330.589 249.92 330.226 248.709 330.108 247.463C329.99 246.217 330.117 244.96 330.484 243.763C330.851 242.566 331.45 241.454 332.247 240.489ZM334.513 242.364C333.685 243.369 333.174 244.597 333.043 245.893C332.912 247.189 333.168 248.495 333.779 249.646C334.389 250.796 335.326 251.739 336.471 252.356C337.617 252.973 338.919 253.236 340.214 253.112C341.509 252.988 342.738 252.482 343.745 251.658C344.753 250.834 345.494 249.73 345.875 248.484C346.256 247.239 346.26 245.908 345.886 244.661C345.512 243.413 344.776 242.305 343.773 241.476C342.427 240.365 340.696 239.835 338.96 240.003C337.223 240.171 335.625 241.022 334.516 242.37L334.513 242.364Z" fill="#6C92D9"/>
<path d="M290.703 148.91C291.901 147.457 293.503 146.392 295.305 145.851C297.107 145.309 299.03 145.315 300.829 145.868C302.628 146.421 304.223 147.495 305.412 148.956C306.601 150.416 307.331 152.197 307.51 154.073C307.689 155.949 307.308 157.836 306.416 159.495C305.524 161.155 304.161 162.512 302.498 163.395C300.836 164.279 298.95 164.648 297.078 164.458C295.205 164.268 293.432 163.526 291.981 162.326C291.017 161.529 290.22 160.55 289.634 159.445C289.048 158.339 288.685 157.129 288.567 155.883C288.448 154.637 288.576 153.38 288.942 152.184C289.309 150.987 289.907 149.875 290.703 148.91ZM292.969 150.782C292.141 151.787 291.63 153.015 291.499 154.311C291.368 155.607 291.624 156.913 292.234 158.063C292.845 159.214 293.782 160.157 294.927 160.774C296.073 161.391 297.375 161.654 298.67 161.53C299.965 161.406 301.194 160.9 302.201 160.076C303.209 159.252 303.95 158.148 304.331 156.902C304.712 155.657 304.716 154.326 304.341 153.079C303.967 151.831 303.232 150.723 302.229 149.893C301.563 149.343 300.795 148.929 299.969 148.675C299.143 148.422 298.275 148.334 297.415 148.417C296.555 148.499 295.72 148.751 294.957 149.156C294.194 149.562 293.518 150.115 292.969 150.782Z" fill="#FEB46D"/>
<path d="M286.075 188.095C286.513 187.564 287.097 187.176 287.755 186.978C288.413 186.78 289.115 186.782 289.772 186.984C290.428 187.185 291.011 187.578 291.445 188.111C291.879 188.644 292.146 189.294 292.211 189.979C292.277 190.663 292.138 191.352 291.812 191.958C291.487 192.564 290.989 193.059 290.382 193.382C289.776 193.705 289.087 193.84 288.404 193.77C287.72 193.701 287.073 193.43 286.543 192.992C286.191 192.702 285.9 192.344 285.686 191.941C285.472 191.537 285.339 191.095 285.296 190.641C285.253 190.186 285.299 189.727 285.433 189.29C285.567 188.853 285.785 188.447 286.075 188.095ZM286.904 188.779C286.601 189.146 286.413 189.594 286.365 190.068C286.316 190.542 286.409 191.019 286.632 191.44C286.855 191.86 287.197 192.205 287.615 192.431C288.034 192.657 288.51 192.753 288.983 192.708C289.456 192.663 289.905 192.478 290.274 192.177C290.642 191.876 290.913 191.472 291.052 191.017C291.191 190.562 291.192 190.076 291.055 189.62C290.918 189.164 290.649 188.759 290.282 188.456C290.039 188.255 289.759 188.104 289.458 188.011C289.157 187.919 288.84 187.887 288.526 187.917C288.212 187.947 287.908 188.038 287.629 188.186C287.351 188.334 287.104 188.536 286.904 188.779Z" fill="#FEB46D"/>
<path d="M23.0768 217.692C23.5142 217.161 24.0988 216.773 24.7568 216.575C25.4147 216.377 26.1164 216.379 26.7732 216.581C27.4299 216.783 28.0122 217.175 28.4464 217.708C28.8807 218.241 29.1473 218.891 29.2127 219.576C29.278 220.261 29.1392 220.949 28.8136 221.555C28.4881 222.161 27.9905 222.657 27.3838 222.979C26.7771 223.302 26.0885 223.437 25.4051 223.368C24.7217 223.298 24.0741 223.027 23.5443 222.59C23.1924 222.299 22.9012 221.941 22.6873 221.538C22.4734 221.134 22.3409 220.693 22.2975 220.238C22.2541 219.783 22.3006 219.324 22.4343 218.887C22.568 218.45 22.7864 218.044 23.0768 217.692ZM23.9052 218.376C23.6022 218.743 23.4146 219.192 23.3663 219.665C23.3179 220.139 23.4109 220.616 23.6335 221.037C23.8561 221.457 24.1983 221.802 24.6168 222.028C25.0352 222.254 25.5112 222.35 25.9844 222.305C26.4576 222.26 26.9068 222.075 27.275 221.774C27.6433 221.473 27.9142 221.069 28.0533 220.614C28.1924 220.159 28.1936 219.673 28.0566 219.217C27.9197 218.761 27.6508 218.356 27.2839 218.053C26.7946 217.65 26.166 217.457 25.5352 217.517C24.9045 217.576 24.3228 217.883 23.9171 218.37L23.9052 218.376Z" fill="#FEB46D"/>
<path d="M39.3666 152.705C39.8043 152.175 40.3891 151.786 41.0472 151.589C41.7053 151.392 42.407 151.394 43.0636 151.596C43.7203 151.798 44.3024 152.191 44.7363 152.724C45.1702 153.257 45.4365 153.908 45.5015 154.592C45.5664 155.277 45.4271 155.966 45.1012 156.572C44.7753 157.177 44.2774 157.673 43.6705 157.995C43.0635 158.317 42.3748 158.452 41.6914 158.382C41.008 158.312 40.3606 158.041 39.8311 157.603C39.4795 157.312 39.1885 156.954 38.9748 156.551C38.7612 156.147 38.629 155.705 38.5859 155.25C38.5427 154.795 38.5895 154.337 38.7235 153.9C38.8574 153.463 39.076 153.057 39.3666 152.705ZM40.1921 153.389C39.8894 153.756 39.7022 154.205 39.6541 154.678C39.606 155.152 39.6992 155.629 39.9219 156.049C40.1446 156.47 40.4867 156.814 40.9051 157.04C41.3234 157.266 41.7992 157.362 42.2722 157.317C42.7452 157.272 43.1943 157.087 43.5625 156.786C43.9307 156.486 44.2016 156.082 44.3409 155.627C44.4802 155.172 44.4817 154.686 44.3451 154.23C44.2086 153.774 43.9401 153.37 43.5737 153.067C43.0825 152.66 42.4502 152.466 41.8161 152.527C41.1819 152.587 40.5978 152.898 40.1921 153.389Z" fill="#6C92D9"/>
<path d="M135.307 212.116C135.744 211.585 136.329 211.197 136.987 210.999C137.645 210.801 138.347 210.803 139.003 211.005C139.66 211.206 140.242 211.599 140.677 212.132C141.111 212.665 141.378 213.315 141.443 214C141.508 214.684 141.369 215.373 141.044 215.979C140.718 216.585 140.221 217.08 139.614 217.403C139.007 217.726 138.319 217.861 137.635 217.791C136.952 217.722 136.304 217.451 135.775 217.013C135.423 216.723 135.131 216.365 134.918 215.962C134.704 215.558 134.571 215.116 134.528 214.662C134.484 214.207 134.531 213.748 134.665 213.311C134.798 212.874 135.017 212.468 135.307 212.116ZM136.135 212.8C135.833 213.167 135.646 213.616 135.598 214.089C135.549 214.562 135.643 215.039 135.865 215.46C136.088 215.88 136.43 216.225 136.848 216.451C137.267 216.676 137.743 216.773 138.216 216.727C138.689 216.682 139.138 216.498 139.506 216.197C139.874 215.896 140.145 215.493 140.284 215.038C140.424 214.583 140.425 214.097 140.289 213.641C140.152 213.185 139.884 212.78 139.517 212.477C139.026 212.071 138.394 211.877 137.759 211.937C137.125 211.998 136.541 212.308 136.135 212.8Z" fill="#FEB46D"/>
<path d="M180.925 195.816C181.363 195.286 181.948 194.897 182.606 194.7C183.264 194.503 183.966 194.505 184.622 194.707C185.279 194.909 185.861 195.302 186.295 195.835C186.729 196.368 186.995 197.018 187.06 197.703C187.125 198.388 186.986 199.077 186.66 199.683C186.334 200.288 185.836 200.783 185.229 201.106C184.622 201.428 183.933 201.563 183.25 201.493C182.567 201.423 181.919 201.152 181.39 200.714C181.038 200.423 180.747 200.065 180.533 199.661C180.32 199.258 180.188 198.816 180.144 198.361C180.101 197.906 180.148 197.447 180.282 197.011C180.416 196.574 180.635 196.168 180.925 195.816ZM181.751 196.5C181.448 196.867 181.261 197.316 181.213 197.789C181.165 198.263 181.258 198.74 181.481 199.16C181.703 199.58 182.045 199.925 182.464 200.151C182.882 200.377 183.358 200.473 183.831 200.428C184.304 200.383 184.753 200.198 185.121 199.897C185.489 199.596 185.76 199.193 185.9 198.738C186.039 198.283 186.04 197.797 185.904 197.341C185.767 196.885 185.499 196.48 185.132 196.177C184.889 195.976 184.609 195.824 184.307 195.732C184.006 195.639 183.689 195.606 183.375 195.636C183.06 195.666 182.755 195.758 182.477 195.906C182.198 196.055 181.951 196.256 181.751 196.5Z" fill="#FEB46D"/>
<path d="M156.425 117.594C157.625 116.141 159.228 115.077 161.032 114.537C162.835 113.997 164.758 114.005 166.558 114.559C168.357 115.113 169.952 116.189 171.14 117.651C172.329 119.113 173.057 120.896 173.235 122.773C173.412 124.649 173.029 126.537 172.135 128.196C171.241 129.855 169.876 131.211 168.212 132.094C166.548 132.976 164.661 133.344 162.788 133.151C160.916 132.959 159.142 132.215 157.692 131.013C156.728 130.215 155.932 129.236 155.347 128.129C154.762 127.023 154.4 125.812 154.282 124.566C154.165 123.32 154.294 122.063 154.661 120.867C155.029 119.67 155.628 118.558 156.425 117.594ZM158.692 119.469C157.864 120.474 157.352 121.702 157.222 122.998C157.091 124.295 157.347 125.6 157.957 126.751C158.567 127.901 159.505 128.844 160.65 129.461C161.796 130.078 163.098 130.341 164.393 130.217C165.688 130.093 166.916 129.587 167.924 128.763C168.932 127.939 169.673 126.835 170.054 125.589C170.435 124.344 170.438 123.013 170.064 121.766C169.69 120.518 168.955 119.41 167.952 118.581C167.286 118.03 166.518 117.616 165.692 117.363C164.866 117.109 163.998 117.021 163.138 117.104C162.278 117.186 161.443 117.438 160.68 117.844C159.917 118.25 159.241 118.802 158.692 119.469Z" fill="#6C92D9"/>
<path d="M336.031 194.901C336.922 193.821 338.112 193.031 339.452 192.629C340.791 192.227 342.22 192.232 343.557 192.643C344.894 193.054 346.079 193.853 346.962 194.938C347.846 196.024 348.388 197.348 348.521 198.742C348.653 200.136 348.369 201.538 347.706 202.771C347.043 204.004 346.029 205.012 344.794 205.669C343.558 206.325 342.156 206.599 340.765 206.457C339.374 206.315 338.056 205.763 336.978 204.871C336.261 204.279 335.669 203.552 335.233 202.73C334.798 201.908 334.529 201.009 334.441 200.083C334.353 199.157 334.448 198.222 334.721 197.333C334.994 196.444 335.439 195.618 336.031 194.901ZM337.714 196.294C337.098 197.04 336.717 197.952 336.618 198.915C336.52 199.879 336.709 200.849 337.162 201.705C337.615 202.56 338.311 203.262 339.162 203.722C340.013 204.181 340.981 204.377 341.943 204.286C342.906 204.194 343.819 203.819 344.569 203.207C345.318 202.595 345.869 201.775 346.153 200.849C346.437 199.923 346.44 198.934 346.162 198.007C345.884 197.079 345.338 196.255 344.593 195.639C343.593 194.813 342.308 194.419 341.018 194.541C339.729 194.664 338.54 195.294 337.714 196.294Z" fill="#6C92D9"/>
<path d="M193.768 162.806C197.143 158.716 201.654 155.719 206.729 154.196C211.804 152.672 217.217 152.69 222.282 154.247C227.347 155.804 231.838 158.83 235.186 162.943C238.535 167.055 240.59 172.07 241.093 177.352C241.596 182.634 240.524 187.947 238.012 192.619C235.5 197.292 231.661 201.113 226.981 203.6C222.301 206.088 216.989 207.13 211.718 206.594C206.446 206.059 201.452 203.97 197.366 200.593C194.651 198.348 192.405 195.591 190.756 192.477C189.106 189.363 188.085 185.955 187.751 182.446C187.417 178.937 187.776 175.396 188.808 172.026C189.841 168.656 191.526 165.523 193.768 162.806ZM200.15 168.083C197.817 170.911 196.373 174.369 196.003 178.019C195.632 181.669 196.35 185.347 198.066 188.588C199.783 191.829 202.421 194.487 205.646 196.227C208.871 197.966 212.539 198.709 216.186 198.361C219.832 198.013 223.294 196.589 226.133 194.271C228.972 191.952 231.06 188.843 232.135 185.335C233.209 181.828 233.22 178.08 232.167 174.566C231.115 171.052 229.045 167.93 226.221 165.594C224.346 164.043 222.184 162.877 219.859 162.163C217.534 161.448 215.091 161.2 212.67 161.431C210.249 161.662 207.898 162.368 205.749 163.51C203.601 164.651 201.698 166.205 200.15 168.083Z" fill="#6C92D9"/>
<path d="M261.596 231.704C264.533 228.144 268.457 225.536 272.874 224.209C277.291 222.883 282.001 222.898 286.409 224.253C290.817 225.607 294.725 228.241 297.639 231.819C300.552 235.398 302.341 239.762 302.778 244.359C303.216 248.956 302.282 253.58 300.096 257.645C297.909 261.711 294.568 265.036 290.495 267.2C286.421 269.364 281.799 270.269 277.211 269.802C272.624 269.335 268.278 267.516 264.723 264.575C262.363 262.622 260.409 260.223 258.975 257.515C257.54 254.806 256.652 251.841 256.362 248.788C256.071 245.736 256.384 242.656 257.282 239.725C258.18 236.793 259.646 234.068 261.596 231.704ZM267.158 236.294C265.128 238.755 263.873 241.763 263.55 244.939C263.228 248.115 263.853 251.315 265.346 254.135C266.84 256.955 269.135 259.268 271.941 260.782C274.748 262.295 277.939 262.941 281.112 262.638C284.285 262.336 287.297 261.097 289.767 259.08C292.237 257.062 294.055 254.357 294.99 251.305C295.924 248.253 295.934 244.992 295.018 241.935C294.103 238.877 292.302 236.16 289.844 234.128C288.213 232.778 286.332 231.763 284.309 231.141C282.286 230.52 280.16 230.303 278.053 230.504C275.947 230.706 273.9 231.32 272.031 232.314C270.161 233.307 268.506 234.659 267.158 236.294Z" fill="#6C92D9"/>
<path d="M151.615 260.181C151.615 282.708 169.916 301.037 192.41 301.037C214.904 301.037 233.209 282.708 233.209 260.181C233.209 237.653 214.907 219.322 192.41 219.322C169.913 219.322 151.615 237.65 151.615 260.181ZM152.686 260.181C152.686 238.255 170.505 220.394 192.41 220.394C214.316 220.394 232.138 238.243 232.138 260.181C232.138 282.119 214.316 299.965 192.41 299.965C170.505 299.965 152.686 282.116 152.686 260.181Z" fill="#FEB46D"/>
<path d="M318.294 199.408C318.293 204.104 319.682 208.695 322.287 212.601C324.891 216.506 328.593 219.551 332.925 221.349C337.257 223.147 342.024 223.619 346.624 222.704C351.223 221.789 355.449 219.528 358.765 216.208C362.082 212.888 364.341 208.658 365.257 204.052C366.173 199.446 365.705 194.671 363.911 190.332C362.118 185.993 359.08 182.284 355.182 179.673C351.283 177.063 346.699 175.669 342.01 175.668C335.724 175.674 329.697 178.176 325.251 182.627C320.805 187.077 318.303 193.112 318.294 199.408ZM318.915 199.408C318.915 194.837 320.269 190.368 322.805 186.568C325.34 182.767 328.944 179.805 333.161 178.056C337.378 176.306 342.018 175.849 346.494 176.741C350.971 177.632 355.083 179.833 358.31 183.066C361.537 186.298 363.735 190.416 364.626 194.899C365.516 199.382 365.059 204.029 363.312 208.252C361.566 212.475 358.608 216.084 354.813 218.624C351.018 221.163 346.556 222.519 341.992 222.519C335.875 222.508 330.011 220.07 325.686 215.738C321.36 211.406 318.926 205.534 318.915 199.408Z" fill="#FEB46D"/>
<path d="M41.9496 19.3721C42.8394 18.291 44.0295 17.4985 45.3692 17.095C46.7089 16.6915 48.1381 16.6951 49.4757 17.1053C50.8134 17.5155 51.9996 18.3138 52.8841 19.3993C53.7685 20.4848 54.3116 21.8087 54.4446 23.2034C54.5776 24.5982 54.2944 26.001 53.631 27.2346C52.9676 28.4681 51.9538 29.4768 50.7178 30.1331C49.4818 30.7894 48.0791 31.0637 46.6874 30.9214C45.2956 30.7791 43.9773 30.2265 42.8993 29.3336C42.1838 28.742 41.5916 28.015 41.1567 27.1942C40.7217 26.3734 40.4524 25.4748 40.3643 24.5498C40.2761 23.6248 40.3707 22.6914 40.6427 21.803C40.9147 20.9146 41.3588 20.0886 41.9496 19.3721ZM43.633 20.7647C43.0172 21.5111 42.6363 22.4236 42.5385 23.3869C42.4406 24.3502 42.6302 25.3209 43.0833 26.1762C43.5364 27.0315 44.2325 27.7331 45.0838 28.1921C45.935 28.6511 46.9031 28.847 47.8655 28.755C48.8279 28.6629 49.7414 28.2871 50.4906 27.6751C51.2397 27.063 51.7907 26.2422 52.074 25.3164C52.3572 24.3907 52.36 23.4016 52.0819 22.4743C51.8038 21.547 51.2573 20.7231 50.5116 20.1069C50.0169 19.6976 49.4465 19.3899 48.8331 19.2014C48.2196 19.0129 47.575 18.9473 46.9362 19.0084C46.2974 19.0695 45.6769 19.2561 45.1101 19.5574C44.5433 19.8587 44.0414 20.269 43.633 20.7647Z" fill="#6C92D9"/>
<path d="M24.2129 23.8788C24.2123 28.575 25.6022 33.166 28.2069 37.0711C30.8115 40.9762 34.514 44.0202 38.846 45.818C43.178 47.6159 47.9451 48.0869 52.5444 47.1715C57.1437 46.2561 61.3687 43.9954 64.6851 40.6753C68.0015 37.3552 70.2605 33.1247 71.1762 28.5189C72.092 23.9131 71.6235 19.1388 69.8299 14.7997C68.0363 10.4605 64.9983 6.75145 61.0999 4.14145C57.2016 1.53145 52.618 0.137756 47.9287 0.136581C41.6421 0.142071 35.6144 2.64495 31.1683 7.09604C26.7221 11.5471 24.2207 17.5828 24.2129 23.8788ZM24.8342 23.8788C24.8342 19.3079 26.1876 14.8395 28.7233 11.0389C31.259 7.23834 34.8631 4.27614 39.0799 2.52692C43.2966 0.777695 47.9366 0.320015 52.413 1.21176C56.8895 2.10351 61.0014 4.30463 64.2287 7.53677C67.4561 10.7689 69.6539 14.8869 70.5443 19.37C71.4348 23.8531 70.9778 28.5 69.2311 32.723C67.4845 36.946 64.5267 40.5555 60.7318 43.095C56.9368 45.6345 52.4751 46.9899 47.911 46.9899C41.7938 46.9797 35.93 44.5415 31.6045 40.2096C27.2789 35.8776 24.8444 30.0051 24.8342 23.8788Z" fill="#FEB46D"/>
<path d="M-24.8518 106.4C-24.8518 128.927 -6.55014 147.259 15.9438 147.259C38.4378 147.259 56.7424 128.93 56.7424 106.403C56.7424 83.8756 38.4407 65.5437 15.9438 65.5437C-6.5531 65.5437 -24.8518 83.8696 -24.8518 106.4ZM-23.7808 106.4C-23.7808 84.4741 -5.96138 66.6134 15.9438 66.6134C37.849 66.6134 55.6714 84.4622 55.6714 106.4C55.6714 128.338 37.849 146.184 15.9438 146.184C-5.96138 146.184 -23.7808 128.338 -23.7808 106.4Z" fill="#FEB46D"/>
</g>
<defs>
<clipPath id="clip0_592_102">
<rect width="420.708" height="248" fill="white" transform="matrix(1 0 0 -1 0 248)"/>
</clipPath>
</defs>
</svg>
