<svg width="145" height="43" viewBox="0 0 145 43" fill="none" xmlns="http://www.w3.org/2000/svg">
<g clip-path="url(#clip0_3595_6627)">
<path d="M139.863 42.7789H5.67863C2.89052 42.7789 0.621094 40.5031 0.621094 37.7171V5.05433C0.621094 2.26728 2.89052 0 5.67863 0H139.863C142.65 0 145 2.26728 145 5.05433V37.7171C145 40.5031 142.65 42.7789 139.863 42.7789Z" fill="#A6A6A6"/>
<path d="M143.965 37.7185C143.965 39.9815 142.132 41.8146 139.865 41.8146H5.67895C3.41274 41.8146 1.57324 39.9815 1.57324 37.7185V5.05358C1.57324 2.79164 3.41274 0.952148 5.67895 0.952148H139.864C142.132 0.952148 143.964 2.79164 143.964 5.05358L143.965 37.7185Z" fill="black"/>
<path d="M32.8423 21.1581C32.8112 17.7112 35.6646 16.0343 35.7951 15.9562C34.1791 13.6001 31.6744 13.2782 30.7942 13.2526C28.6906 13.0312 26.65 14.5113 25.5784 14.5113C24.4854 14.5113 22.8352 13.2739 21.0567 13.3103C18.768 13.3456 16.6269 14.6707 15.4526 16.7283C13.0292 20.9239 14.8366 27.0894 17.1584 30.4807C18.3199 32.1416 19.677 33.9961 21.4534 33.9308C23.1913 33.8592 23.8405 32.8228 25.9377 32.8228C28.0157 32.8228 28.6253 33.9308 30.437 33.8891C32.3022 33.8592 33.4765 32.2207 34.5973 30.5449C35.9395 28.6412 36.4785 26.7664 36.4999 26.6702C36.456 26.6552 32.8776 25.2895 32.8423 21.1581Z" fill="white"/>
<path d="M29.4201 11.0215C30.3548 9.85258 30.9944 8.26227 30.8168 6.64844C29.464 6.70833 27.772 7.58423 26.7978 8.72749C25.9358 9.73494 25.1657 11.3862 25.3647 12.9391C26.8844 13.0524 28.4447 12.1723 29.4201 11.0215Z" fill="white"/>
<path d="M57.9931 33.693H55.5643L54.2339 29.5124H49.6095L48.3421 33.693H45.9775L50.5592 19.4604H53.389L57.9931 33.693ZM53.8328 27.7585L52.6297 24.0421C52.5024 23.6624 52.2639 22.7683 51.912 21.3609H51.8693C51.7292 21.9662 51.5035 22.8603 51.1934 24.0421L50.0116 27.7585H53.8328Z" fill="white"/>
<path d="M69.7751 28.4355C69.7751 30.1809 69.3035 31.5606 68.3602 32.5733C67.5153 33.4749 66.4661 33.9252 65.2138 33.9252C63.862 33.9252 62.8909 33.4396 62.2995 32.4685H62.2567V37.8747H59.9766V26.8089C59.9766 25.7116 59.9477 24.5854 59.8921 23.4304H61.8974L62.0246 25.0571H62.0674C62.8278 23.8315 63.9818 23.2197 65.5304 23.2197C66.741 23.2197 67.7517 23.6978 68.5602 24.655C69.3708 25.6132 69.7751 26.873 69.7751 28.4355ZM67.4522 28.519C67.4522 27.5201 67.2276 26.6966 66.7763 26.0485C66.2833 25.3726 65.6213 25.0346 64.7913 25.0346C64.2288 25.0346 63.7176 25.2228 63.2609 25.594C62.8032 25.9683 62.5037 26.457 62.3636 27.0623C62.2931 27.3447 62.2578 27.5757 62.2578 27.7575V29.4687C62.2578 30.2152 62.4866 30.8451 62.9444 31.3595C63.4021 31.8739 63.9967 32.1306 64.7282 32.1306C65.587 32.1306 66.2555 31.799 66.7335 31.1381C67.2126 30.4761 67.4522 29.6034 67.4522 28.519Z" fill="white"/>
<path d="M81.5787 28.4355C81.5787 30.1809 81.1071 31.5606 80.1627 32.5733C79.3189 33.4749 78.2698 33.9252 77.0174 33.9252C75.6656 33.9252 74.6945 33.4396 74.1042 32.4685H74.0614V37.8747H71.7813V26.8089C71.7813 25.7116 71.7524 24.5854 71.6968 23.4304H73.702L73.8293 25.0571H73.8721C74.6314 23.8315 75.7854 23.2197 77.335 23.2197C78.5446 23.2197 79.5553 23.6978 80.3659 24.655C81.1734 25.6132 81.5787 26.873 81.5787 28.4355ZM79.2558 28.519C79.2558 27.5201 79.0302 26.6966 78.5788 26.0485C78.0858 25.3726 77.4259 25.0346 76.595 25.0346C76.0314 25.0346 75.5212 25.2228 75.0635 25.594C74.6057 25.9683 74.3074 26.457 74.1673 27.0623C74.0977 27.3447 74.0614 27.5757 74.0614 27.7575V29.4687C74.0614 30.2152 74.2902 30.8451 74.7458 31.3595C75.2036 31.8728 75.7982 32.1306 76.5319 32.1306C77.3907 32.1306 78.0591 31.799 78.5371 31.1381C79.0163 30.4761 79.2558 29.6034 79.2558 28.519Z" fill="white"/>
<path d="M94.7768 29.7018C94.7768 30.9124 94.3565 31.8974 93.5127 32.6578C92.5855 33.4888 91.2946 33.9037 89.6359 33.9037C88.1044 33.9037 86.8766 33.6086 85.9473 33.0171L86.4756 31.1167C87.4766 31.722 88.575 32.0257 89.7717 32.0257C90.6305 32.0257 91.2989 31.8311 91.7791 31.444C92.2572 31.0568 92.4957 30.537 92.4957 29.8889C92.4957 29.3114 92.2989 28.8248 91.9042 28.4302C91.5117 28.0355 90.8562 27.6687 89.9407 27.3297C87.4488 26.4003 86.2039 25.0389 86.2039 23.2486C86.2039 22.0786 86.6403 21.1193 87.514 20.3728C88.3846 19.6252 89.546 19.252 90.9984 19.252C92.2935 19.252 93.3694 19.4776 94.2282 19.9279L93.6582 21.7866C92.8561 21.3503 91.9492 21.1321 90.9342 21.1321C90.1321 21.1321 89.5054 21.3299 89.0562 21.7235C88.6766 22.0754 88.4862 22.5042 88.4862 23.0122C88.4862 23.5748 88.7033 24.04 89.1396 24.4057C89.5193 24.7437 90.2091 25.1095 91.2102 25.5041C92.4347 25.9971 93.3341 26.5736 93.9127 27.2345C94.4892 27.8933 94.7768 28.7179 94.7768 29.7018Z" fill="white"/>
<path d="M102.315 25.1413H99.8017V30.124C99.8017 31.3913 100.244 32.0244 101.132 32.0244C101.54 32.0244 101.878 31.9892 102.145 31.9186L102.208 33.65C101.759 33.818 101.167 33.9024 100.435 33.9024C99.5343 33.9024 98.8306 33.6276 98.3226 33.0789C97.8167 32.5292 97.5622 31.6074 97.5622 30.3122V25.1392H96.0649V23.428H97.5622V21.549L99.8017 20.873V23.428H102.315V25.1413Z" fill="white"/>
<path d="M113.655 28.4772C113.655 30.0546 113.203 31.3498 112.303 32.3626C111.358 33.4053 110.105 33.9251 108.542 33.9251C107.037 33.9251 105.838 33.4256 104.944 32.4267C104.05 31.4278 103.603 30.1669 103.603 28.6472C103.603 27.0569 104.062 25.7543 104.985 24.7415C105.906 23.7276 107.149 23.2207 108.711 23.2207C110.217 23.2207 111.429 23.7201 112.343 24.7201C113.218 25.6901 113.655 26.9425 113.655 28.4772ZM111.289 28.551C111.289 27.6045 111.087 26.7927 110.677 26.1158C110.199 25.2966 109.516 24.888 108.63 24.888C107.714 24.888 107.017 25.2976 106.539 26.1158C106.13 26.7938 105.928 27.6184 105.928 28.5937C105.928 29.5402 106.13 30.352 106.539 31.0279C107.032 31.8471 107.721 32.2556 108.61 32.2556C109.48 32.2556 110.164 31.8385 110.657 31.0065C111.077 30.3167 111.289 29.4964 111.289 28.551Z" fill="white"/>
<path d="M121.066 25.4357C120.84 25.394 120.6 25.3726 120.347 25.3726C119.545 25.3726 118.925 25.6752 118.488 26.2816C118.109 26.8164 117.918 27.4923 117.918 28.3083V33.6931H115.639L115.661 26.6624C115.661 25.4795 115.632 24.4026 115.575 23.4315H117.561L117.645 25.395H117.708C117.948 24.7202 118.328 24.1769 118.848 23.7694C119.356 23.4026 119.904 23.2197 120.496 23.2197C120.707 23.2197 120.897 23.2347 121.066 23.2614V25.4357Z" fill="white"/>
<path d="M131.264 28.0759C131.264 28.4845 131.237 28.8288 131.18 29.1101H124.34C124.367 30.124 124.697 30.8993 125.332 31.4341C125.909 31.9121 126.654 32.1517 127.57 32.1517C128.582 32.1517 129.506 31.9902 130.337 31.6661L130.695 33.249C129.723 33.6725 128.577 33.8832 127.254 33.8832C125.663 33.8832 124.414 33.4147 123.505 32.4789C122.598 31.5432 122.143 30.2865 122.143 28.7101C122.143 27.1626 122.566 25.8739 123.411 24.8461C124.297 23.7488 125.494 23.2002 127 23.2002C128.479 23.2002 129.598 23.7488 130.359 24.8461C130.961 25.7177 131.264 26.7958 131.264 28.0759ZM129.089 27.4845C129.104 26.8086 128.956 26.2247 128.647 25.7316C128.252 25.0974 127.646 24.7809 126.83 24.7809C126.084 24.7809 125.478 25.09 125.015 25.7103C124.635 26.2033 124.409 26.7947 124.34 27.4834H129.089V27.4845Z" fill="white"/>
<path d="M48.96 14.1402C47.8333 14.1402 46.9733 13.8268 46.38 13.2002C45.7933 12.5735 45.5 11.6835 45.5 10.5302C45.5 9.95682 45.59 9.44682 45.77 9.00016C45.95 8.54682 46.1967 8.16682 46.51 7.86016C46.8233 7.54682 47.1967 7.31016 47.63 7.15016C48.0633 6.99016 48.5333 6.91016 49.04 6.91016C49.3333 6.91016 49.6 6.93349 49.84 6.98016C50.08 7.02016 50.29 7.07016 50.47 7.13016C50.65 7.18349 50.8 7.24016 50.92 7.30016C51.04 7.36016 51.1267 7.40682 51.18 7.44016L50.73 8.70016C50.5167 8.58682 50.2667 8.49016 49.98 8.41016C49.7 8.33016 49.38 8.29016 49.02 8.29016C48.78 8.29016 48.5433 8.33016 48.31 8.41016C48.0833 8.49016 47.88 8.62016 47.7 8.80016C47.5267 8.97349 47.3867 9.20016 47.28 9.48016C47.1733 9.76016 47.12 10.1002 47.12 10.5002C47.12 10.8202 47.1533 11.1202 47.22 11.4002C47.2933 11.6735 47.4067 11.9102 47.56 12.1102C47.72 12.3102 47.9267 12.4702 48.18 12.5902C48.4333 12.7035 48.74 12.7602 49.1 12.7602C49.3267 12.7602 49.53 12.7468 49.71 12.7202C49.89 12.6935 50.05 12.6635 50.19 12.6302C50.33 12.5902 50.4533 12.5468 50.56 12.5002C50.6667 12.4535 50.7633 12.4102 50.85 12.3702L51.28 13.6202C51.06 13.7535 50.75 13.8735 50.35 13.9802C49.95 14.0868 49.4867 14.1402 48.96 14.1402Z" fill="white"/>
<path d="M53.3405 10.5302C53.3405 10.8702 53.3805 11.1768 53.4605 11.4502C53.5471 11.7235 53.6671 11.9602 53.8205 12.1602C53.9805 12.3535 54.1738 12.5035 54.4005 12.6102C54.6271 12.7168 54.8871 12.7702 55.1805 12.7702C55.4671 12.7702 55.7238 12.7168 55.9505 12.6102C56.1838 12.5035 56.3771 12.3535 56.5305 12.1602C56.6905 11.9602 56.8105 11.7235 56.8905 11.4502C56.9771 11.1768 57.0205 10.8702 57.0205 10.5302C57.0205 10.1902 56.9771 9.88349 56.8905 9.61016C56.8105 9.33016 56.6905 9.09349 56.5305 8.90016C56.3771 8.70016 56.1838 8.54682 55.9505 8.44016C55.7238 8.33349 55.4671 8.28016 55.1805 8.28016C54.8871 8.28016 54.6271 8.33682 54.4005 8.45016C54.1738 8.55682 53.9805 8.71016 53.8205 8.91016C53.6671 9.10349 53.5471 9.34016 53.4605 9.62016C53.3805 9.89349 53.3405 10.1968 53.3405 10.5302ZM58.6305 10.5302C58.6305 11.1235 58.5405 11.6468 58.3605 12.1002C58.1871 12.5468 57.9471 12.9235 57.6405 13.2302C57.3338 13.5302 56.9671 13.7568 56.5405 13.9102C56.1205 14.0635 55.6671 14.1402 55.1805 14.1402C54.7071 14.1402 54.2605 14.0635 53.8405 13.9102C53.4205 13.7568 53.0538 13.5302 52.7405 13.2302C52.4271 12.9235 52.1805 12.5468 52.0005 12.1002C51.8205 11.6468 51.7305 11.1235 51.7305 10.5302C51.7305 9.93682 51.8238 9.41682 52.0105 8.97016C52.1971 8.51682 52.4471 8.13682 52.7605 7.83016C53.0805 7.52349 53.4471 7.29349 53.8605 7.14016C54.2805 6.98682 54.7205 6.91016 55.1805 6.91016C55.6538 6.91016 56.1005 6.98682 56.5205 7.14016C56.9405 7.29349 57.3071 7.52349 57.6205 7.83016C57.9338 8.13682 58.1805 8.51682 58.3605 8.97016C58.5405 9.41682 58.6305 9.93682 58.6305 10.5302Z" fill="white"/>
<path d="M61.7709 7.07016C61.8909 7.29016 62.0275 7.56349 62.1809 7.89016C62.3409 8.21016 62.5042 8.56016 62.6709 8.94016C62.8442 9.31349 63.0142 9.69682 63.1809 10.0902C63.3475 10.4835 63.5042 10.8535 63.6509 11.2002C63.7975 10.8535 63.9542 10.4835 64.1209 10.0902C64.2875 9.69682 64.4542 9.31349 64.6209 8.94016C64.7942 8.56016 64.9575 8.21016 65.1109 7.89016C65.2709 7.56349 65.4109 7.29016 65.5309 7.07016H66.9509C67.0175 7.53016 67.0775 8.04682 67.1309 8.62016C67.1909 9.18682 67.2409 9.78016 67.2809 10.4002C67.3275 11.0135 67.3675 11.6302 67.4009 12.2502C67.4409 12.8702 67.4742 13.4535 67.5009 14.0002H65.9809C65.9609 13.3268 65.9342 12.5935 65.9009 11.8002C65.8675 11.0068 65.8175 10.2068 65.7509 9.40016C65.6309 9.68016 65.4975 9.99016 65.3509 10.3302C65.2042 10.6702 65.0575 11.0102 64.9109 11.3502C64.7709 11.6902 64.6342 12.0168 64.5009 12.3302C64.3675 12.6368 64.2542 12.9002 64.1609 13.1202H63.0709C62.9775 12.9002 62.8642 12.6368 62.7309 12.3302C62.5975 12.0168 62.4575 11.6902 62.3109 11.3502C62.1709 11.0102 62.0275 10.6702 61.8809 10.3302C61.7342 9.99016 61.6009 9.68016 61.4809 9.40016C61.4142 10.2068 61.3642 11.0068 61.3309 11.8002C61.2975 12.5935 61.2709 13.3268 61.2509 14.0002H59.7309C59.7575 13.4535 59.7875 12.8702 59.8209 12.2502C59.8609 11.6302 59.9009 11.0135 59.9409 10.4002C59.9875 9.78016 60.0375 9.18682 60.0909 8.62016C60.1509 8.04682 60.2142 7.53016 60.2809 7.07016H61.7709Z" fill="white"/>
<path d="M68.9055 7.07016H70.4655V14.0002H68.9055V7.07016Z" fill="white"/>
<path d="M76.7195 14.0002C76.2729 13.2068 75.7895 12.4235 75.2695 11.6502C74.7495 10.8768 74.1962 10.1468 73.6095 9.46016V14.0002H72.0695V7.07016H73.3395C73.5595 7.29016 73.8029 7.56016 74.0695 7.88016C74.3362 8.20016 74.6062 8.54349 74.8795 8.91016C75.1595 9.27016 75.4362 9.64682 75.7095 10.0402C75.9829 10.4268 76.2395 10.8002 76.4795 11.1602V7.07016H78.0295V14.0002H76.7195Z" fill="white"/>
<path d="M83.0081 8.27016C82.2815 8.27016 81.7548 8.47349 81.4281 8.88016C81.1081 9.28016 80.9481 9.83016 80.9481 10.5302C80.9481 10.8702 80.9881 11.1802 81.0681 11.4602C81.1481 11.7335 81.2681 11.9702 81.4281 12.1702C81.5881 12.3702 81.7881 12.5268 82.0281 12.6402C82.2681 12.7468 82.5481 12.8002 82.8681 12.8002C83.0415 12.8002 83.1881 12.7968 83.3081 12.7902C83.4348 12.7835 83.5448 12.7702 83.6381 12.7502V10.3402H85.1981V13.7702C85.0115 13.8435 84.7115 13.9202 84.2981 14.0002C83.8848 14.0868 83.3748 14.1302 82.7681 14.1302C82.2481 14.1302 81.7748 14.0502 81.3481 13.8902C80.9281 13.7302 80.5681 13.4968 80.2681 13.1902C79.9681 12.8835 79.7348 12.5068 79.5681 12.0602C79.4081 11.6135 79.3281 11.1035 79.3281 10.5302C79.3281 9.95016 79.4181 9.43682 79.5981 8.99016C79.7781 8.54349 80.0248 8.16682 80.3381 7.86016C80.6515 7.54682 81.0181 7.31016 81.4381 7.15016C81.8648 6.99016 82.3181 6.91016 82.7981 6.91016C83.1248 6.91016 83.4181 6.93349 83.6781 6.98016C83.9448 7.02016 84.1715 7.07016 84.3581 7.13016C84.5515 7.18349 84.7081 7.24016 84.8281 7.30016C84.9548 7.36016 85.0448 7.40682 85.0981 7.44016L84.6481 8.69016C84.4348 8.57682 84.1881 8.48016 83.9081 8.40016C83.6348 8.31349 83.3348 8.27016 83.0081 8.27016Z" fill="white"/>
<path d="M90.942 12.8102C91.162 12.8102 91.342 12.7935 91.482 12.7602C91.6286 12.7202 91.7453 12.6702 91.832 12.6102C91.9186 12.5435 91.9786 12.4668 92.012 12.3802C92.0453 12.2935 92.062 12.1968 92.062 12.0902C92.062 11.8635 91.9553 11.6768 91.742 11.5302C91.5286 11.3768 91.162 11.2135 90.642 11.0402C90.4153 10.9602 90.1886 10.8702 89.962 10.7702C89.7353 10.6635 89.532 10.5335 89.352 10.3802C89.172 10.2202 89.0253 10.0302 88.912 9.81016C88.7986 9.58349 88.742 9.31016 88.742 8.99016C88.742 8.67016 88.802 8.38349 88.922 8.13016C89.042 7.87016 89.212 7.65016 89.432 7.47016C89.652 7.29016 89.9186 7.15349 90.232 7.06016C90.5453 6.96016 90.8986 6.91016 91.292 6.91016C91.7586 6.91016 92.162 6.96016 92.502 7.06016C92.842 7.16016 93.122 7.27016 93.342 7.39016L92.892 8.62016C92.6986 8.52016 92.482 8.43349 92.242 8.36016C92.0086 8.28016 91.7253 8.24016 91.392 8.24016C91.0186 8.24016 90.7486 8.29349 90.582 8.40016C90.422 8.50016 90.342 8.65682 90.342 8.87016C90.342 8.99682 90.372 9.10349 90.432 9.19016C90.492 9.27682 90.5753 9.35682 90.682 9.43016C90.7953 9.49682 90.922 9.56016 91.062 9.62016C91.2086 9.67349 91.3686 9.73016 91.542 9.79016C91.902 9.92349 92.2153 10.0568 92.482 10.1902C92.7486 10.3168 92.9686 10.4668 93.142 10.6402C93.322 10.8135 93.4553 11.0168 93.542 11.2502C93.6286 11.4835 93.672 11.7668 93.672 12.1002C93.672 12.7468 93.4453 13.2502 92.992 13.6102C92.5386 13.9635 91.8553 14.1402 90.942 14.1402C90.6353 14.1402 90.3586 14.1202 90.112 14.0802C89.8653 14.0468 89.6453 14.0035 89.452 13.9502C89.2653 13.8968 89.102 13.8402 88.962 13.7802C88.8286 13.7202 88.7153 13.6635 88.622 13.6102L89.062 12.3702C89.2686 12.4835 89.522 12.5868 89.822 12.6802C90.1286 12.7668 90.502 12.8102 90.942 12.8102Z" fill="white"/>
<path d="M96.1823 10.5302C96.1823 10.8702 96.2223 11.1768 96.3023 11.4502C96.3889 11.7235 96.5089 11.9602 96.6623 12.1602C96.8223 12.3535 97.0156 12.5035 97.2423 12.6102C97.4689 12.7168 97.7289 12.7702 98.0223 12.7702C98.3089 12.7702 98.5656 12.7168 98.7923 12.6102C99.0256 12.5035 99.2189 12.3535 99.3723 12.1602C99.5323 11.9602 99.6523 11.7235 99.7323 11.4502C99.8189 11.1768 99.8623 10.8702 99.8623 10.5302C99.8623 10.1902 99.8189 9.88349 99.7323 9.61016C99.6523 9.33016 99.5323 9.09349 99.3723 8.90016C99.2189 8.70016 99.0256 8.54682 98.7923 8.44016C98.5656 8.33349 98.3089 8.28016 98.0223 8.28016C97.7289 8.28016 97.4689 8.33682 97.2423 8.45016C97.0156 8.55682 96.8223 8.71016 96.6623 8.91016C96.5089 9.10349 96.3889 9.34016 96.3023 9.62016C96.2223 9.89349 96.1823 10.1968 96.1823 10.5302ZM101.472 10.5302C101.472 11.1235 101.382 11.6468 101.202 12.1002C101.029 12.5468 100.789 12.9235 100.482 13.2302C100.176 13.5302 99.8089 13.7568 99.3823 13.9102C98.9623 14.0635 98.5089 14.1402 98.0223 14.1402C97.5489 14.1402 97.1023 14.0635 96.6823 13.9102C96.2623 13.7568 95.8956 13.5302 95.5823 13.2302C95.2689 12.9235 95.0223 12.5468 94.8423 12.1002C94.6623 11.6468 94.5723 11.1235 94.5723 10.5302C94.5723 9.93682 94.6656 9.41682 94.8523 8.97016C95.0389 8.51682 95.2889 8.13682 95.6023 7.83016C95.9223 7.52349 96.2889 7.29349 96.7023 7.14016C97.1223 6.98682 97.5623 6.91016 98.0223 6.91016C98.4956 6.91016 98.9423 6.98682 99.3623 7.14016C99.7823 7.29349 100.149 7.52349 100.462 7.83016C100.776 8.13682 101.022 8.51682 101.202 8.97016C101.382 9.41682 101.472 9.93682 101.472 10.5302Z" fill="white"/>
<path d="M104.083 10.5302C104.083 10.8702 104.123 11.1768 104.203 11.4502C104.289 11.7235 104.409 11.9602 104.563 12.1602C104.723 12.3535 104.916 12.5035 105.143 12.6102C105.369 12.7168 105.629 12.7702 105.923 12.7702C106.209 12.7702 106.466 12.7168 106.693 12.6102C106.926 12.5035 107.119 12.3535 107.273 12.1602C107.433 11.9602 107.553 11.7235 107.633 11.4502C107.719 11.1768 107.763 10.8702 107.763 10.5302C107.763 10.1902 107.719 9.88349 107.633 9.61016C107.553 9.33016 107.433 9.09349 107.273 8.90016C107.119 8.70016 106.926 8.54682 106.693 8.44016C106.466 8.33349 106.209 8.28016 105.923 8.28016C105.629 8.28016 105.369 8.33682 105.143 8.45016C104.916 8.55682 104.723 8.71016 104.563 8.91016C104.409 9.10349 104.289 9.34016 104.203 9.62016C104.123 9.89349 104.083 10.1968 104.083 10.5302ZM109.373 10.5302C109.373 11.1235 109.283 11.6468 109.103 12.1002C108.929 12.5468 108.689 12.9235 108.383 13.2302C108.076 13.5302 107.709 13.7568 107.283 13.9102C106.863 14.0635 106.409 14.1402 105.923 14.1402C105.449 14.1402 105.003 14.0635 104.583 13.9102C104.163 13.7568 103.796 13.5302 103.483 13.2302C103.169 12.9235 102.923 12.5468 102.743 12.1002C102.563 11.6468 102.473 11.1235 102.473 10.5302C102.473 9.93682 102.566 9.41682 102.753 8.97016C102.939 8.51682 103.189 8.13682 103.503 7.83016C103.823 7.52349 104.189 7.29349 104.603 7.14016C105.023 6.98682 105.463 6.91016 105.923 6.91016C106.396 6.91016 106.843 6.98682 107.263 7.14016C107.683 7.29349 108.049 7.52349 108.363 7.83016C108.676 8.13682 108.923 8.51682 109.103 8.97016C109.283 9.41682 109.373 9.93682 109.373 10.5302Z" fill="white"/>
<path d="M115.323 14.0002C114.876 13.2068 114.393 12.4235 113.873 11.6502C113.353 10.8768 112.8 10.1468 112.213 9.46016V14.0002H110.673V7.07016H111.943C112.163 7.29016 112.406 7.56016 112.673 7.88016C112.94 8.20016 113.21 8.54349 113.483 8.91016C113.763 9.27016 114.04 9.64682 114.313 10.0402C114.586 10.4268 114.843 10.8002 115.083 11.1602V7.07016H116.633V14.0002H115.323Z" fill="white"/>
</g>
<defs>
<clipPath id="clip0_3595_6627">
<rect width="144.379" height="42.7789" fill="white" transform="translate(0.621094)"/>
</clipPath>
</defs>
</svg>
