<svg width="123" height="37" viewBox="0 0 123 37" fill="none" xmlns="http://www.w3.org/2000/svg">
<g clip-path="url(#clip0_598_189)">
<path d="M118.107 36.2857H4.28988C1.92496 36.2857 0 34.3553 0 31.9922V4.28716C0 1.92314 1.92496 0 4.28988 0H118.107C120.471 0 122.464 1.92314 122.464 4.28716V31.9922C122.464 34.3553 120.471 36.2857 118.107 36.2857Z" fill="#A6A6A6"/>
<path d="M121.586 31.9934C121.586 33.9129 120.031 35.4677 118.108 35.4677H4.28989C2.36766 35.4677 0.807373 33.9129 0.807373 31.9934V4.28651C0.807373 2.3679 2.36766 0.807617 4.28989 0.807617H118.107C120.031 0.807617 121.585 2.3679 121.585 4.28651L121.586 31.9934Z" fill="black"/>
<path d="M27.3306 17.9469C27.3043 15.0232 29.7245 13.6008 29.8352 13.5346C28.4645 11.5361 26.34 11.2631 25.5934 11.2413C23.809 11.0535 22.0782 12.309 21.1692 12.309C20.2421 12.309 18.8424 11.2595 17.3338 11.2903C15.3926 11.3202 13.5765 12.4442 12.5804 14.1895C10.5248 17.7482 12.0579 22.9779 14.0273 25.8545C15.0125 27.2633 16.1636 28.8363 17.6704 28.7809C19.1445 28.7201 19.6951 27.8411 21.474 27.8411C23.2366 27.8411 23.7537 28.7809 25.2904 28.7455C26.8725 28.7201 27.8685 27.3304 28.8192 25.9089C29.9576 24.2942 30.4149 22.704 30.433 22.6223C30.3958 22.6096 27.3605 21.4512 27.3306 17.9469Z" fill="white"/>
<path d="M24.4277 9.34896C25.2205 8.35745 25.763 7.00853 25.6124 5.63965C24.4649 5.69045 23.0298 6.4334 22.2034 7.40313C21.4722 8.25766 20.8191 9.65829 20.9878 10.9755C22.2768 11.0716 23.6004 10.325 24.4277 9.34896Z" fill="white"/>
<path d="M48.6639 28.5786H46.6038L45.4753 25.0326H41.5528L40.4779 28.5786H38.4722L42.3584 16.5063H44.7587L48.6639 28.5786ZM45.1351 23.5449L44.1146 20.3925C44.0066 20.0705 43.8044 19.3121 43.5059 18.1183H43.4696C43.3508 18.6318 43.1594 19.3902 42.8963 20.3925L41.8939 23.5449H45.1351Z" fill="white"/>
<path d="M58.6576 24.1194C58.6576 25.5999 58.2575 26.7701 57.4574 27.6292C56.7408 28.3939 55.8509 28.7758 54.7886 28.7758C53.642 28.7758 52.8183 28.364 52.3166 27.5403H52.2803V32.1259H50.3463V22.7397C50.3463 21.809 50.3218 20.8537 50.2747 19.874H51.9756L52.0835 21.2538H52.1198C52.7648 20.2142 53.7436 19.6953 55.0571 19.6953C56.084 19.6953 56.9413 20.1008 57.6271 20.9127C58.3147 21.7255 58.6576 22.7941 58.6576 24.1194ZM56.6873 24.1902C56.6873 23.3429 56.4968 22.6444 56.1139 22.0947C55.6957 21.5214 55.1342 21.2347 54.4303 21.2347C53.9531 21.2347 53.5195 21.3944 53.1322 21.7092C52.7439 22.0267 52.4899 22.4412 52.3711 22.9547C52.3112 23.1942 52.2813 23.3901 52.2813 23.5443V24.9957C52.2813 25.6289 52.4754 26.1632 52.8636 26.5996C53.2519 27.0359 53.7563 27.2536 54.3768 27.2536C55.1052 27.2536 55.6722 26.9724 56.0777 26.4118C56.4841 25.8503 56.6873 25.11 56.6873 24.1902Z" fill="white"/>
<path d="M68.6696 24.1194C68.6696 25.5999 68.2695 26.7701 67.4685 27.6292C66.7528 28.3939 65.8629 28.7758 64.8006 28.7758C63.654 28.7758 62.8303 28.364 62.3296 27.5403H62.2933V32.1259H60.3593V22.7397C60.3593 21.809 60.3348 20.8537 60.2876 19.874H61.9885L62.0964 21.2538H62.1327C62.7768 20.2142 63.7556 19.6953 65.0701 19.6953C66.096 19.6953 66.9533 20.1008 67.6409 20.9127C68.3258 21.7255 68.6696 22.7941 68.6696 24.1194ZM66.6993 24.1902C66.6993 23.3429 66.5079 22.6444 66.1251 22.0947C65.7069 21.5214 65.1472 21.2347 64.4423 21.2347C63.9642 21.2347 63.5315 21.3944 63.1433 21.7092C62.755 22.0267 62.5019 22.4412 62.3831 22.9547C62.3241 23.1942 62.2933 23.3901 62.2933 23.5443V24.9957C62.2933 25.6289 62.4874 26.1632 62.8739 26.5996C63.2621 27.035 63.7665 27.2536 64.3888 27.2536C65.1172 27.2536 65.6842 26.9724 66.0897 26.4118C66.4961 25.8503 66.6993 25.11 66.6993 24.1902Z" fill="white"/>
<path d="M79.8641 25.1933C79.8641 26.2202 79.5076 27.0556 78.7919 27.7006C78.0054 28.4055 76.9105 28.7574 75.5035 28.7574C74.2045 28.7574 73.1631 28.5071 72.3748 28.0054L72.8229 26.3934C73.672 26.9069 74.6036 27.1645 75.6187 27.1645C76.3471 27.1645 76.9141 26.9994 77.3214 26.671C77.7269 26.3426 77.9292 25.9018 77.9292 25.352C77.9292 24.8622 77.7623 24.4494 77.4275 24.1147C77.0946 23.78 76.5385 23.4688 75.762 23.1812C73.6484 22.3929 72.5925 21.2381 72.5925 19.7196C72.5925 18.7272 72.9626 17.9135 73.7037 17.2803C74.4421 16.6462 75.4273 16.3296 76.6592 16.3296C77.7577 16.3296 78.6703 16.521 79.3988 16.9029L78.9153 18.4795C78.2349 18.1094 77.4656 17.9243 76.6048 17.9243C75.9244 17.9243 75.3928 18.0922 75.0118 18.426C74.6898 18.7244 74.5283 19.0882 74.5283 19.5191C74.5283 19.9963 74.7125 20.3909 75.0826 20.7011C75.4046 20.9878 75.9897 21.298 76.8388 21.6327C77.8775 22.0509 78.6404 22.5399 79.1312 23.1005C79.6201 23.6593 79.8641 24.3587 79.8641 25.1933Z" fill="white"/>
<path d="M86.2584 21.325H84.1266V25.5514C84.1266 26.6263 84.5021 27.1634 85.2551 27.1634C85.6007 27.1634 85.8874 27.1334 86.1141 27.0736L86.1677 28.5422C85.7867 28.6846 85.285 28.7563 84.6636 28.7563C83.8998 28.7563 83.3029 28.5232 82.872 28.0578C82.4429 27.5915 82.227 26.8096 82.227 25.711V21.3232H80.957V19.8718H82.227V18.2779L84.1266 17.7046V19.8718H86.2584V21.325Z" fill="white"/>
<path d="M95.8766 24.1544C95.8766 25.4924 95.4938 26.591 94.73 27.4501C93.9289 28.3345 92.8658 28.7754 91.5404 28.7754C90.2632 28.7754 89.2463 28.3518 88.4879 27.5045C87.7295 26.6572 87.3503 25.5877 87.3503 24.2986C87.3503 22.9497 87.7404 21.8448 88.5233 20.9858C89.3043 20.1258 90.3584 19.6958 91.6838 19.6958C92.961 19.6958 93.9888 20.1194 94.7644 20.9676C95.5065 21.7904 95.8766 22.8527 95.8766 24.1544ZM93.87 24.217C93.87 23.4142 93.6985 22.7257 93.3511 22.1514C92.9456 21.4566 92.3659 21.11 91.6148 21.11C90.8374 21.11 90.2469 21.4575 89.8414 22.1514C89.4939 22.7266 89.3225 23.426 89.3225 24.2533C89.3225 25.0561 89.4939 25.7446 89.8414 26.3179C90.2596 27.0128 90.8437 27.3593 91.5976 27.3593C92.336 27.3593 92.9157 27.0056 93.3339 26.2998C93.6904 25.7147 93.87 25.0189 93.87 24.217Z" fill="white"/>
<path d="M102.163 21.5749C101.972 21.5395 101.768 21.5214 101.554 21.5214C100.873 21.5214 100.347 21.7781 99.9772 22.2925C99.6551 22.746 99.4937 23.3193 99.4937 24.0115V28.579H97.5605L97.5787 22.6154C97.5787 21.6121 97.5542 20.6986 97.5061 19.8749H99.1907L99.2614 21.5404H99.3149C99.5191 20.968 99.8411 20.5072 100.282 20.1616C100.713 19.8504 101.178 19.6953 101.68 19.6953C101.859 19.6953 102.02 19.708 102.163 19.7307V21.5749Z" fill="white"/>
<path d="M110.813 23.8144C110.813 24.1609 110.79 24.453 110.742 24.6916H104.94C104.963 25.5516 105.243 26.2092 105.782 26.6628C106.271 27.0683 106.903 27.2715 107.68 27.2715C108.539 27.2715 109.323 27.1345 110.027 26.8597L110.33 28.2022C109.507 28.5615 108.534 28.7402 107.412 28.7402C106.062 28.7402 105.003 28.3428 104.232 27.5491C103.462 26.7553 103.077 25.6894 103.077 24.3523C103.077 23.0397 103.435 21.9466 104.153 21.0748C104.904 20.1441 105.919 19.6787 107.196 19.6787C108.451 19.6787 109.401 20.1441 110.046 21.0748C110.556 21.8141 110.813 22.7285 110.813 23.8144ZM108.969 23.3127C108.981 22.7394 108.855 22.2441 108.593 21.8259C108.259 21.288 107.744 21.0195 107.052 21.0195C106.42 21.0195 105.905 21.2816 105.513 21.8078C105.191 22.226 104.999 22.7276 104.94 23.3118H108.969V23.3127Z" fill="white"/>
<path d="M41.9737 10.1992C41.7946 10.5643 41.6063 10.8658 41.4087 11.1037C41.2111 11.3361 41.0073 11.5187 40.7973 11.6515C40.5874 11.7842 40.3743 11.8755 40.1582 11.9253C39.9421 11.9751 39.7229 12 39.5006 12C39.2906 12 39.0714 11.9806 38.8429 11.9419C38.6206 11.9087 38.4106 11.8589 38.213 11.7925L38.4724 10.7552C38.775 10.8548 39.0745 10.9046 39.3709 10.9046C39.5623 10.9046 39.7445 10.8658 39.9174 10.7884C40.0965 10.7109 40.2663 10.545 40.4268 10.2905C40.1737 9.93638 39.9297 9.574 39.6951 9.20332C39.4666 8.82711 39.2474 8.4592 39.0374 8.09959C38.8336 7.73444 38.6422 7.38589 38.4631 7.05394C38.2902 6.71646 38.1359 6.40941 38 6.13278H39.6025C39.7013 6.34855 39.8093 6.58091 39.9266 6.82988C40.0502 7.07331 40.1798 7.3278 40.3157 7.59336C40.4515 7.85339 40.5874 8.11618 40.7232 8.38174C40.8653 8.64177 41.0011 8.89627 41.1308 9.14523C41.3284 8.65837 41.5168 8.16044 41.6958 7.65145C41.8749 7.14246 42.0478 6.63624 42.2145 6.13278H43.7614C43.6009 6.55878 43.4434 6.95712 43.289 7.3278C43.1346 7.69848 42.9833 8.04979 42.8351 8.38174C42.6869 8.71369 42.5387 9.02905 42.3905 9.3278C42.2485 9.62656 42.1096 9.91701 41.9737 10.1992Z" fill="white"/>
<path d="M44.176 11.8838C44.3551 11.6017 44.5465 11.3195 44.7503 11.0373C44.9541 10.7552 45.1609 10.4841 45.3709 10.2241C45.587 9.95851 45.8062 9.71231 46.0285 9.48548C46.257 9.25311 46.4855 9.04564 46.714 8.86307C46.4546 8.62517 46.2138 8.39281 45.9915 8.16598C45.7692 7.93914 45.5561 7.71508 45.3524 7.49378C45.1548 7.27248 44.9602 7.05118 44.7688 6.82988C44.5774 6.60304 44.3829 6.37068 44.1853 6.13278H45.9267C46.1119 6.36515 46.2848 6.57815 46.4454 6.77178C46.6121 6.96542 46.7727 7.15353 46.927 7.3361C47.0876 7.51867 47.2481 7.69848 47.4087 7.87552C47.5692 8.05256 47.7422 8.24066 47.9274 8.43983V6.13278H49.3353V8.43983C49.5206 8.23513 49.6966 8.04149 49.8633 7.85892C50.0362 7.67082 50.2029 7.48548 50.3635 7.3029C50.5241 7.12033 50.6846 6.93499 50.8452 6.74689C51.0057 6.55325 51.1694 6.34855 51.3361 6.13278H53.0682C52.8459 6.39281 52.636 6.63624 52.4384 6.86307C52.2469 7.0899 52.0524 7.3112 51.8548 7.52697C51.6572 7.74274 51.4534 7.95851 51.2435 8.17427C51.0397 8.39004 50.8143 8.61687 50.5673 8.85477C51.0675 9.26971 51.5244 9.73721 51.9382 10.2573C52.3519 10.7718 52.7379 11.314 53.096 11.8838H51.4843C51.2929 11.6238 51.1138 11.3831 50.9471 11.1618C50.7803 10.9405 50.6136 10.7275 50.4469 10.5228C50.2801 10.3181 50.1072 10.1189 49.9282 9.92531C49.7491 9.72614 49.5515 9.52144 49.3353 9.3112V11.8838H47.9274V9.3112C47.7051 9.54357 47.5044 9.75934 47.3253 9.95851C47.1462 10.1577 46.9733 10.3568 46.8066 10.556C46.6461 10.7552 46.4824 10.9627 46.3157 11.1784C46.149 11.3887 45.9699 11.6238 45.7785 11.8838H44.176Z" fill="white"/>
<path d="M53.9333 11.8838V6.13278H58.2683V7.21992H55.3783V8.34855H57.9441V9.41079H55.3783V10.7967H58.4813V11.8838H53.9333Z" fill="white"/>
<path d="M64.7029 12C63.6593 12 62.8627 11.74 62.3132 11.2199C61.7697 10.6999 61.498 9.96127 61.498 9.00415C61.498 8.52835 61.5814 8.10512 61.7481 7.73444C61.9149 7.35823 62.1433 7.04288 62.4336 6.78838C62.7238 6.52835 63.0696 6.33195 63.471 6.19917C63.8724 6.06639 64.3077 6 64.777 6C65.0487 6 65.2957 6.01936 65.5181 6.05809C65.7404 6.09129 65.9349 6.13278 66.1016 6.18257C66.2683 6.22683 66.4073 6.27386 66.5184 6.32365C66.6296 6.37344 66.7099 6.41217 66.7593 6.43983L66.3424 7.48548C66.1448 7.39142 65.9133 7.3112 65.6477 7.24481C65.3884 7.17842 65.092 7.14523 64.7585 7.14523C64.5362 7.14523 64.317 7.17842 64.1009 7.24481C63.8909 7.3112 63.7026 7.41909 63.5358 7.56846C63.3753 7.71231 63.2456 7.90042 63.1468 8.13278C63.048 8.36515 62.9986 8.6473 62.9986 8.97925C62.9986 9.24481 63.0295 9.49378 63.0912 9.72614C63.1591 9.95297 63.2641 10.1494 63.4062 10.3154C63.5544 10.4813 63.7458 10.6141 63.9804 10.7137C64.2151 10.8077 64.4992 10.8548 64.8326 10.8548C65.0426 10.8548 65.2309 10.8437 65.3976 10.8216C65.5644 10.7994 65.7126 10.7746 65.8422 10.7469C65.9719 10.7137 66.0862 10.6777 66.185 10.639C66.2838 10.6003 66.3733 10.5643 66.4536 10.5311L66.8519 11.5685C66.6481 11.6791 66.361 11.7787 65.9905 11.8672C65.6199 11.9557 65.1908 12 64.7029 12Z" fill="white"/>
<path d="M71.5707 11.8838C71.441 11.6957 71.2866 11.4938 71.1075 11.278C70.9346 11.0567 70.7432 10.8382 70.5332 10.6224C70.3295 10.4011 70.1164 10.1909 69.8941 9.9917C69.6718 9.787 69.4495 9.60719 69.2272 9.45228V11.8838H67.7822V6.13278H69.2272V8.30705C69.6039 7.95297 69.9806 7.58506 70.3573 7.20332C70.7401 6.81604 71.0952 6.4592 71.4225 6.13278H73.1361C72.6976 6.59751 72.2561 7.04564 71.8115 7.47718C71.3731 7.90871 70.9099 8.34302 70.4221 8.78008C70.9346 9.16183 71.4286 9.61549 71.9041 10.1411C72.3858 10.6667 72.8458 11.2476 73.2843 11.8838H71.5707Z" fill="white"/>
<path d="M74.821 9.00415C74.821 9.28631 74.8581 9.5408 74.9322 9.76763C75.0125 9.99447 75.1236 10.1909 75.2656 10.3568C75.4138 10.5173 75.5929 10.6418 75.8029 10.7303C76.0128 10.8188 76.2537 10.8631 76.5254 10.8631C76.7909 10.8631 77.0286 10.8188 77.2386 10.7303C77.4547 10.6418 77.6338 10.5173 77.7758 10.3568C77.924 10.1909 78.0352 9.99447 78.1093 9.76763C78.1896 9.5408 78.2297 9.28631 78.2297 9.00415C78.2297 8.72199 78.1896 8.4675 78.1093 8.24066C78.0352 8.0083 77.924 7.81189 77.7758 7.65145C77.6338 7.48548 77.4547 7.35823 77.2386 7.26971C77.0286 7.18119 76.7909 7.13693 76.5254 7.13693C76.2537 7.13693 76.0128 7.18396 75.8029 7.27801C75.5929 7.36653 75.4138 7.49378 75.2656 7.65975C75.1236 7.82019 75.0125 8.0166 74.9322 8.24896C74.8581 8.4758 74.821 8.72752 74.821 9.00415ZM79.721 9.00415C79.721 9.49654 79.6376 9.93084 79.4709 10.3071C79.3104 10.6777 79.0881 10.9903 78.804 11.2448C78.5199 11.4938 78.1803 11.6819 77.7851 11.8091C77.3961 11.9364 76.9762 12 76.5254 12C76.0869 12 75.6732 11.9364 75.2842 11.8091C74.8951 11.6819 74.5555 11.4938 74.2653 11.2448C73.975 10.9903 73.7465 10.6777 73.5798 10.3071C73.4131 9.93084 73.3297 9.49654 73.3297 9.00415C73.3297 8.51176 73.4162 8.08022 73.5891 7.70954C73.762 7.33333 73.9935 7.01798 74.2838 6.76349C74.5802 6.50899 74.9198 6.31812 75.3027 6.19087C75.6917 6.06362 76.0993 6 76.5254 6C76.9638 6 77.3775 6.06362 77.7666 6.19087C78.1556 6.31812 78.4952 6.50899 78.7855 6.76349C79.0757 7.01798 79.3042 7.33333 79.4709 7.70954C79.6376 8.08022 79.721 8.51176 79.721 9.00415Z" fill="white"/>
<path d="M82.8522 6.06639C83.8093 6.06639 84.5442 6.21853 85.0567 6.52282C85.5692 6.82158 85.8255 7.31397 85.8255 8C85.8255 8.69156 85.5662 9.19225 85.0474 9.50207C84.5287 9.80636 83.7877 9.95851 82.8244 9.95851H82.3705V11.8838H80.9255V6.21577C81.2405 6.16044 81.5739 6.12172 81.9259 6.09959C82.2779 6.07746 82.5866 6.06639 82.8522 6.06639ZM82.9448 7.17012C82.8398 7.17012 82.7348 7.17289 82.6299 7.17842C82.5311 7.18396 82.4446 7.18949 82.3705 7.19502V8.85477H82.8244C83.3246 8.85477 83.7013 8.79391 83.9544 8.6722C84.2076 8.55048 84.3342 8.32365 84.3342 7.9917C84.3342 7.83126 84.3002 7.69848 84.2323 7.59336C84.1706 7.48824 84.0779 7.40526 83.9544 7.3444C83.8371 7.27801 83.692 7.23375 83.5191 7.21162C83.3462 7.18396 83.1548 7.17012 82.9448 7.17012Z" fill="white"/>
<path d="M88.1 9.00415C88.1 9.28631 88.1371 9.5408 88.2112 9.76763C88.2914 9.99447 88.4026 10.1909 88.5446 10.3568C88.6928 10.5173 88.8719 10.6418 89.0819 10.7303C89.2918 10.8188 89.5326 10.8631 89.8044 10.8631C90.0699 10.8631 90.3076 10.8188 90.5176 10.7303C90.7337 10.6418 90.9128 10.5173 91.0548 10.3568C91.203 10.1909 91.3142 9.99447 91.3883 9.76763C91.4686 9.5408 91.5087 9.28631 91.5087 9.00415C91.5087 8.72199 91.4686 8.4675 91.3883 8.24066C91.3142 8.0083 91.203 7.81189 91.0548 7.65145C90.9128 7.48548 90.7337 7.35823 90.5176 7.26971C90.3076 7.18119 90.0699 7.13693 89.8044 7.13693C89.5326 7.13693 89.2918 7.18396 89.0819 7.27801C88.8719 7.36653 88.6928 7.49378 88.5446 7.65975C88.4026 7.82019 88.2914 8.0166 88.2112 8.24896C88.1371 8.4758 88.1 8.72752 88.1 9.00415ZM93 9.00415C93 9.49654 92.9166 9.93084 92.7499 10.3071C92.5894 10.6777 92.3671 10.9903 92.083 11.2448C91.7989 11.4938 91.4593 11.6819 91.0641 11.8091C90.6751 11.9364 90.2551 12 89.8044 12C89.3659 12 88.9522 11.9364 88.5631 11.8091C88.1741 11.6819 87.8345 11.4938 87.5443 11.2448C87.254 10.9903 87.0255 10.6777 86.8588 10.3071C86.6921 9.93084 86.6087 9.49654 86.6087 9.00415C86.6087 8.51176 86.6952 8.08022 86.8681 7.70954C87.041 7.33333 87.2725 7.01798 87.5628 6.76349C87.8592 6.50899 88.1988 6.31812 88.5817 6.19087C88.9707 6.06362 89.3783 6 89.8044 6C90.2428 6 90.6565 6.06362 91.0456 6.19087C91.4346 6.31812 91.7742 6.50899 92.0645 6.76349C92.3547 7.01798 92.5832 7.33333 92.7499 7.70954C92.9166 8.08022 93 8.51176 93 9.00415Z" fill="white"/>
</g>
<defs>
<clipPath id="clip0_598_189">
<rect width="122.464" height="36.2857" fill="white"/>
</clipPath>
</defs>
</svg>
