<svg width="121" height="37" viewBox="0 0 121 37" fill="none" xmlns="http://www.w3.org/2000/svg">
<g clip-path="url(#clip0_598_176)">
<path fill-rule="evenodd" clip-rule="evenodd" d="M116.18 36.2857H4.47016C2.00647 36.2857 0 34.2407 0 31.75V4.53571C0 2.03598 2.00647 0 4.47016 0H116.18C118.641 0 120.65 2.03598 120.65 4.53571V31.75C120.65 34.2407 118.641 36.2857 116.18 36.2857Z" fill="black"/>
<path fill-rule="evenodd" clip-rule="evenodd" d="M116.18 0.726167C118.246 0.726167 119.938 2.43865 119.938 4.53571V31.75C119.938 33.8471 118.257 35.5595 116.18 35.5595H4.47016C2.40377 35.5595 0.712474 33.8471 0.712474 31.75V4.53571C0.712474 2.43865 2.39267 0.726167 4.47016 0.726167H116.18ZM116.18 0H4.47016C2.00647 0 0 2.04503 0 4.53571V31.75C0 34.2497 2.00647 36.2857 4.47016 36.2857H116.18C118.641 36.2857 120.65 34.2497 120.65 31.75V4.53571C120.65 2.04503 118.641 0 116.18 0Z" fill="#A6A6A6"/>
<path fill-rule="evenodd" clip-rule="evenodd" d="M60.6403 19.7353C58.5428 19.7353 56.8426 21.3573 56.8426 23.5946C56.8426 25.8116 58.5539 27.4539 60.6403 27.4539C62.7377 27.4539 64.4379 25.8206 64.4379 23.5946C64.4379 21.3573 62.7377 19.7353 60.6403 19.7353ZM60.6403 25.9247C59.4928 25.9247 58.5051 24.9565 58.5051 23.5856C58.5051 22.1943 59.495 21.2464 60.6403 21.2464C61.7878 21.2464 62.7755 22.1943 62.7755 23.5856C62.7777 24.9655 61.7878 25.9247 60.6403 25.9247ZM52.3547 19.7353C50.2572 19.7353 48.5571 21.3573 48.5571 23.5946C48.5571 25.8116 50.2683 27.4539 52.3547 27.4539C54.4522 27.4539 56.1523 25.8206 56.1523 23.5946C56.1523 21.3573 54.45 19.7353 52.3547 19.7353ZM52.3547 25.9247C51.2072 25.9247 50.2195 24.9565 50.2195 23.5856C50.2195 22.1943 51.2094 21.2464 52.3547 21.2464C53.5022 21.2464 54.4899 22.1943 54.4899 23.5856C54.4899 24.9655 53.5022 25.9247 52.3547 25.9247ZM42.4955 20.9139V22.5472H46.3419C46.2243 23.4634 45.9269 24.1398 45.4719 24.6035C44.9081 25.1781 44.0381 25.8025 42.5044 25.8025C40.1405 25.8025 38.2917 23.857 38.2917 21.4478C38.2917 19.0385 40.1405 17.093 42.5044 17.093C43.7806 17.093 44.7106 17.6066 45.4009 18.2626L46.5373 17.1044C45.5784 16.1678 44.3022 15.4507 42.5132 15.4507C39.2705 15.4507 36.5493 18.1427 36.5493 21.4387C36.5493 24.7438 39.2683 27.4268 42.5132 27.4268C44.2645 27.4268 45.5784 26.8431 46.6172 25.7437C47.6759 24.6646 48.0111 23.1422 48.0111 21.9138C48.0111 21.5315 47.9822 21.1876 47.9223 20.8958H42.4933C42.4955 20.8935 42.4955 20.9139 42.4955 20.9139ZM82.8224 22.1853C82.505 21.3188 81.5462 19.7262 79.5796 19.7262C77.6309 19.7262 76.0106 21.2894 76.0106 23.5856C76.0106 25.7527 77.6131 27.4449 79.7683 27.4449C81.4995 27.4449 82.5072 26.3658 82.9223 25.7324L81.6372 24.8547C81.211 25.4994 80.6184 25.9224 79.7772 25.9224C78.9271 25.9224 78.3323 25.5288 77.9372 24.7529L83 22.6151C83 22.6173 82.8224 22.1853 82.8224 22.1853ZM77.6597 23.4747C77.6198 21.9839 78.7961 21.2261 79.6373 21.2261C80.301 21.2261 80.8537 21.5586 81.0423 22.0427L77.6597 23.4747ZM73.5469 27.2141H75.2094V15.876H73.5469V27.2141ZM70.8169 20.5927H70.7569C70.3818 20.138 69.6694 19.7262 68.7594 19.7262C66.8705 19.7262 65.1304 21.4206 65.1304 23.5969C65.1304 25.7641 66.8616 27.4381 68.7594 27.4381C69.6583 27.4381 70.3818 27.0241 70.7569 26.5604H70.8169V27.1146C70.8169 28.5873 70.0445 29.3813 68.7993 29.3813C67.7805 29.3813 67.148 28.6348 66.8905 28.0104L65.4456 28.6257C65.8606 29.6437 66.9682 30.9038 68.7971 30.9038C70.7459 30.9038 72.3972 29.7342 72.3972 26.8816V19.957H70.8258V20.5927C70.828 20.5927 70.8169 20.5927 70.8169 20.5927ZM68.9081 25.9247C67.7606 25.9247 66.8017 24.9474 66.8017 23.5969C66.8017 22.235 67.7606 21.2487 68.9081 21.2487C70.0445 21.2487 70.9256 22.2463 70.9256 23.5969C70.9367 24.9474 70.0467 25.9247 68.9081 25.9247ZM90.6063 15.876H86.6311V27.2141H88.2936V22.9205H90.6086C92.4486 22.9205 94.2575 21.5609 94.2575 19.4027C94.2575 17.2446 92.4552 15.876 90.6063 15.876ZM90.6552 21.3369H88.2914V17.4459H90.6552C91.9003 17.4459 92.6039 18.4933 92.6039 19.3914C92.6039 20.2805 91.8915 21.3369 90.6552 21.3369ZM100.921 19.7149C99.7131 19.7149 98.468 20.2601 97.953 21.4478L99.4268 22.0721C99.7442 21.4478 100.326 21.2351 100.941 21.2351C101.802 21.2351 102.672 21.76 102.692 22.6965V22.8164C102.394 22.6445 101.742 22.3821 100.961 22.3821C99.3691 22.3821 97.7555 23.2689 97.7555 24.9316C97.7555 26.454 99.0606 27.4313 100.514 27.4313C101.631 27.4313 102.246 26.9178 102.63 26.3228H102.69V27.2006H104.292V22.8571C104.292 20.8347 102.818 19.7149 100.921 19.7149ZM100.712 25.9247C100.168 25.9247 99.4068 25.6532 99.4068 24.9565C99.4068 24.0787 100.357 23.7462 101.167 23.7462C101.899 23.7462 102.246 23.9068 102.681 24.1285C102.561 25.1465 101.717 25.9156 100.712 25.9247ZM110.138 19.957L108.23 24.875H108.17L106.192 19.957H104.403L107.371 26.8318L105.679 30.6527H107.411L111.976 19.957H110.138ZM95.1742 27.2141H96.8366V15.876H95.1742V27.2141Z" fill="white"/>
<path fill-rule="evenodd" clip-rule="evenodd" d="M9.2863 6.83403C9.02884 7.1168 8.88013 7.54888 8.88013 8.11443V28.1734C8.88013 28.7389 9.02884 29.171 9.29518 29.4425L9.36399 29.5035L20.3907 18.2649V18.0138L9.35511 6.77295L9.2863 6.83403Z" fill="url(#paint0_linear_598_176)"/>
<path fill-rule="evenodd" clip-rule="evenodd" d="M24.0601 22.0225L20.3823 18.2741V18.0117L24.0601 14.2632L24.14 14.313L28.4903 16.833C29.7355 17.5479 29.7355 18.7288 28.4903 19.4527L24.14 21.9728L24.0601 22.0225Z" fill="url(#paint1_linear_598_176)"/>
<path fill-rule="evenodd" clip-rule="evenodd" d="M24.1396 21.973L20.3819 18.1431L9.28638 29.4518C9.69255 29.8952 10.374 29.945 11.1353 29.5129L24.1396 21.973Z" fill="url(#paint2_linear_598_176)"/>
<path fill-rule="evenodd" clip-rule="evenodd" d="M24.1396 14.3131L11.1353 6.78453C10.374 6.34114 9.69033 6.40222 9.28638 6.84561L20.3819 18.143L24.1396 14.3131Z" fill="url(#paint3_linear_598_176)"/>
<path opacity="0.2" fill-rule="evenodd" clip-rule="evenodd" d="M24.0598 21.8911L11.1443 29.37C10.4229 29.793 9.77927 29.7636 9.36422 29.379L9.29541 29.4492L9.36422 29.5102C9.77927 29.8925 10.4229 29.9242 11.1443 29.5012L24.1486 21.9726L24.0598 21.8911Z" fill="black"/>
<path opacity="0.12" fill-rule="evenodd" clip-rule="evenodd" d="M28.4901 19.3217L24.0488 21.8915L24.1287 21.973L28.479 19.4529C29.1027 19.0909 29.409 18.6159 29.409 18.1431C29.3713 18.5774 29.0539 18.9891 28.4901 19.3217Z" fill="black"/>
<path opacity="0.25" fill-rule="evenodd" clip-rule="evenodd" d="M11.1352 6.91579L28.4898 16.9645C29.0536 17.288 29.371 17.711 29.4198 18.1431C29.4198 17.6703 29.1135 17.1952 28.4898 16.8333L11.1352 6.78458C9.89002 6.05841 8.88013 6.66468 8.88013 8.11475V8.24596C8.88013 6.79363 9.89002 6.19867 11.1352 6.91579Z" fill="white"/>
<path d="M41.9737 10.1992C41.7946 10.5643 41.6063 10.8658 41.4087 11.1037C41.2111 11.3361 41.0073 11.5187 40.7973 11.6515C40.5874 11.7842 40.3743 11.8755 40.1582 11.9253C39.9421 11.9751 39.7229 12 39.5006 12C39.2906 12 39.0714 11.9806 38.8429 11.9419C38.6206 11.9087 38.4106 11.8589 38.213 11.7925L38.4724 10.7552C38.775 10.8548 39.0745 10.9046 39.3709 10.9046C39.5623 10.9046 39.7445 10.8658 39.9174 10.7884C40.0965 10.7109 40.2663 10.545 40.4268 10.2905C40.1737 9.93638 39.9297 9.574 39.6951 9.20332C39.4666 8.82711 39.2474 8.4592 39.0374 8.09959C38.8336 7.73444 38.6422 7.38589 38.4631 7.05394C38.2902 6.71646 38.1359 6.40941 38 6.13278H39.6025C39.7013 6.34855 39.8093 6.58091 39.9266 6.82988C40.0502 7.07331 40.1798 7.3278 40.3157 7.59336C40.4515 7.85339 40.5874 8.11618 40.7232 8.38174C40.8653 8.64177 41.0011 8.89627 41.1308 9.14523C41.3284 8.65837 41.5168 8.16044 41.6958 7.65145C41.8749 7.14246 42.0478 6.63624 42.2145 6.13278H43.7614C43.6009 6.55878 43.4434 6.95712 43.289 7.3278C43.1346 7.69848 42.9833 8.04979 42.8351 8.38174C42.6869 8.71369 42.5387 9.02905 42.3905 9.3278C42.2485 9.62656 42.1096 9.91701 41.9737 10.1992Z" fill="white"/>
<path d="M44.176 11.8838C44.3551 11.6017 44.5465 11.3195 44.7503 11.0373C44.9541 10.7552 45.1609 10.4841 45.3709 10.2241C45.587 9.95851 45.8062 9.71231 46.0285 9.48548C46.257 9.25311 46.4855 9.04564 46.714 8.86307C46.4546 8.62517 46.2138 8.39281 45.9915 8.16598C45.7692 7.93914 45.5561 7.71508 45.3524 7.49378C45.1548 7.27248 44.9602 7.05118 44.7688 6.82988C44.5774 6.60304 44.3829 6.37068 44.1853 6.13278H45.9267C46.1119 6.36515 46.2848 6.57815 46.4454 6.77178C46.6121 6.96542 46.7727 7.15353 46.927 7.3361C47.0876 7.51867 47.2481 7.69848 47.4087 7.87552C47.5692 8.05256 47.7422 8.24066 47.9274 8.43983V6.13278H49.3353V8.43983C49.5206 8.23513 49.6966 8.04149 49.8633 7.85892C50.0362 7.67082 50.2029 7.48548 50.3635 7.3029C50.5241 7.12033 50.6846 6.93499 50.8452 6.74689C51.0057 6.55325 51.1694 6.34855 51.3361 6.13278H53.0682C52.8459 6.39281 52.636 6.63624 52.4384 6.86307C52.2469 7.0899 52.0524 7.3112 51.8548 7.52697C51.6572 7.74274 51.4534 7.95851 51.2435 8.17427C51.0397 8.39004 50.8143 8.61687 50.5673 8.85477C51.0675 9.26971 51.5244 9.73721 51.9382 10.2573C52.3519 10.7718 52.7379 11.314 53.096 11.8838H51.4843C51.2929 11.6238 51.1138 11.3831 50.9471 11.1618C50.7803 10.9405 50.6136 10.7275 50.4469 10.5228C50.2801 10.3181 50.1072 10.1189 49.9282 9.92531C49.7491 9.72614 49.5515 9.52144 49.3353 9.3112V11.8838H47.9274V9.3112C47.7051 9.54357 47.5044 9.75934 47.3253 9.95851C47.1462 10.1577 46.9733 10.3568 46.8066 10.556C46.6461 10.7552 46.4824 10.9627 46.3157 11.1784C46.149 11.3887 45.9699 11.6238 45.7785 11.8838H44.176Z" fill="white"/>
<path d="M53.9333 11.8838V6.13278H58.2683V7.21992H55.3783V8.34855H57.9441V9.41079H55.3783V10.7967H58.4813V11.8838H53.9333Z" fill="white"/>
<path d="M64.7029 12C63.6593 12 62.8627 11.74 62.3132 11.2199C61.7697 10.6999 61.498 9.96127 61.498 9.00415C61.498 8.52835 61.5814 8.10512 61.7481 7.73444C61.9149 7.35823 62.1433 7.04288 62.4336 6.78838C62.7238 6.52835 63.0696 6.33195 63.471 6.19917C63.8724 6.06639 64.3077 6 64.777 6C65.0487 6 65.2957 6.01936 65.5181 6.05809C65.7404 6.09129 65.9349 6.13278 66.1016 6.18257C66.2683 6.22683 66.4073 6.27386 66.5184 6.32365C66.6296 6.37344 66.7099 6.41217 66.7593 6.43983L66.3424 7.48548C66.1448 7.39142 65.9133 7.3112 65.6477 7.24481C65.3884 7.17842 65.092 7.14523 64.7585 7.14523C64.5362 7.14523 64.317 7.17842 64.1009 7.24481C63.8909 7.3112 63.7026 7.41909 63.5358 7.56846C63.3753 7.71231 63.2456 7.90042 63.1468 8.13278C63.048 8.36515 62.9986 8.6473 62.9986 8.97925C62.9986 9.24481 63.0295 9.49378 63.0912 9.72614C63.1591 9.95297 63.2641 10.1494 63.4062 10.3154C63.5544 10.4813 63.7458 10.6141 63.9804 10.7137C64.2151 10.8077 64.4992 10.8548 64.8326 10.8548C65.0426 10.8548 65.2309 10.8437 65.3976 10.8216C65.5644 10.7994 65.7126 10.7746 65.8422 10.7469C65.9719 10.7137 66.0862 10.6777 66.185 10.639C66.2838 10.6003 66.3733 10.5643 66.4536 10.5311L66.8519 11.5685C66.6481 11.6791 66.361 11.7787 65.9905 11.8672C65.6199 11.9557 65.1908 12 64.7029 12Z" fill="white"/>
<path d="M71.5707 11.8838C71.441 11.6957 71.2866 11.4938 71.1075 11.278C70.9346 11.0567 70.7432 10.8382 70.5332 10.6224C70.3295 10.4011 70.1164 10.1909 69.8941 9.9917C69.6718 9.787 69.4495 9.60719 69.2272 9.45228V11.8838H67.7822V6.13278H69.2272V8.30705C69.6039 7.95297 69.9806 7.58506 70.3573 7.20332C70.7401 6.81604 71.0952 6.4592 71.4225 6.13278H73.1361C72.6976 6.59751 72.2561 7.04564 71.8115 7.47718C71.3731 7.90871 70.9099 8.34302 70.4221 8.78008C70.9346 9.16183 71.4286 9.61549 71.9041 10.1411C72.3858 10.6667 72.8458 11.2476 73.2843 11.8838H71.5707Z" fill="white"/>
<path d="M74.821 9.00415C74.821 9.28631 74.8581 9.5408 74.9322 9.76763C75.0125 9.99447 75.1236 10.1909 75.2656 10.3568C75.4138 10.5173 75.5929 10.6418 75.8029 10.7303C76.0128 10.8188 76.2537 10.8631 76.5254 10.8631C76.7909 10.8631 77.0286 10.8188 77.2386 10.7303C77.4547 10.6418 77.6338 10.5173 77.7758 10.3568C77.924 10.1909 78.0352 9.99447 78.1093 9.76763C78.1896 9.5408 78.2297 9.28631 78.2297 9.00415C78.2297 8.72199 78.1896 8.4675 78.1093 8.24066C78.0352 8.0083 77.924 7.81189 77.7758 7.65145C77.6338 7.48548 77.4547 7.35823 77.2386 7.26971C77.0286 7.18119 76.7909 7.13693 76.5254 7.13693C76.2537 7.13693 76.0128 7.18396 75.8029 7.27801C75.5929 7.36653 75.4138 7.49378 75.2656 7.65975C75.1236 7.82019 75.0125 8.0166 74.9322 8.24896C74.8581 8.4758 74.821 8.72752 74.821 9.00415ZM79.721 9.00415C79.721 9.49654 79.6376 9.93084 79.4709 10.3071C79.3104 10.6777 79.0881 10.9903 78.804 11.2448C78.5199 11.4938 78.1803 11.6819 77.7851 11.8091C77.3961 11.9364 76.9762 12 76.5254 12C76.0869 12 75.6732 11.9364 75.2842 11.8091C74.8951 11.6819 74.5555 11.4938 74.2653 11.2448C73.975 10.9903 73.7465 10.6777 73.5798 10.3071C73.4131 9.93084 73.3297 9.49654 73.3297 9.00415C73.3297 8.51176 73.4162 8.08022 73.5891 7.70954C73.762 7.33333 73.9935 7.01798 74.2838 6.76349C74.5802 6.50899 74.9198 6.31812 75.3027 6.19087C75.6917 6.06362 76.0993 6 76.5254 6C76.9638 6 77.3775 6.06362 77.7666 6.19087C78.1556 6.31812 78.4952 6.50899 78.7855 6.76349C79.0757 7.01798 79.3042 7.33333 79.4709 7.70954C79.6376 8.08022 79.721 8.51176 79.721 9.00415Z" fill="white"/>
<path d="M82.8522 6.06639C83.8093 6.06639 84.5442 6.21853 85.0567 6.52282C85.5692 6.82158 85.8255 7.31397 85.8255 8C85.8255 8.69156 85.5662 9.19225 85.0474 9.50207C84.5287 9.80636 83.7877 9.95851 82.8244 9.95851H82.3705V11.8838H80.9255V6.21577C81.2405 6.16044 81.5739 6.12172 81.9259 6.09959C82.2779 6.07746 82.5866 6.06639 82.8522 6.06639ZM82.9448 7.17012C82.8398 7.17012 82.7348 7.17289 82.6299 7.17842C82.5311 7.18396 82.4446 7.18949 82.3705 7.19502V8.85477H82.8244C83.3246 8.85477 83.7013 8.79391 83.9544 8.6722C84.2076 8.55048 84.3342 8.32365 84.3342 7.9917C84.3342 7.83126 84.3002 7.69848 84.2323 7.59336C84.1706 7.48824 84.0779 7.40526 83.9544 7.3444C83.8371 7.27801 83.692 7.23375 83.5191 7.21162C83.3462 7.18396 83.1548 7.17012 82.9448 7.17012Z" fill="white"/>
<path d="M88.1 9.00415C88.1 9.28631 88.1371 9.5408 88.2112 9.76763C88.2914 9.99447 88.4026 10.1909 88.5446 10.3568C88.6928 10.5173 88.8719 10.6418 89.0819 10.7303C89.2918 10.8188 89.5326 10.8631 89.8044 10.8631C90.0699 10.8631 90.3076 10.8188 90.5176 10.7303C90.7337 10.6418 90.9128 10.5173 91.0548 10.3568C91.203 10.1909 91.3142 9.99447 91.3883 9.76763C91.4686 9.5408 91.5087 9.28631 91.5087 9.00415C91.5087 8.72199 91.4686 8.4675 91.3883 8.24066C91.3142 8.0083 91.203 7.81189 91.0548 7.65145C90.9128 7.48548 90.7337 7.35823 90.5176 7.26971C90.3076 7.18119 90.0699 7.13693 89.8044 7.13693C89.5326 7.13693 89.2918 7.18396 89.0819 7.27801C88.8719 7.36653 88.6928 7.49378 88.5446 7.65975C88.4026 7.82019 88.2914 8.0166 88.2112 8.24896C88.1371 8.4758 88.1 8.72752 88.1 9.00415ZM93 9.00415C93 9.49654 92.9166 9.93084 92.7499 10.3071C92.5894 10.6777 92.3671 10.9903 92.083 11.2448C91.7989 11.4938 91.4593 11.6819 91.0641 11.8091C90.6751 11.9364 90.2551 12 89.8044 12C89.3659 12 88.9522 11.9364 88.5631 11.8091C88.1741 11.6819 87.8345 11.4938 87.5443 11.2448C87.254 10.9903 87.0255 10.6777 86.8588 10.3071C86.6921 9.93084 86.6087 9.49654 86.6087 9.00415C86.6087 8.51176 86.6952 8.08022 86.8681 7.70954C87.041 7.33333 87.2725 7.01798 87.5628 6.76349C87.8592 6.50899 88.1988 6.31812 88.5817 6.19087C88.9707 6.06362 89.3783 6 89.8044 6C90.2428 6 90.6565 6.06362 91.0456 6.19087C91.4346 6.31812 91.7742 6.50899 92.0645 6.76349C92.3547 7.01798 92.5832 7.33333 92.7499 7.70954C92.9166 8.08022 93 8.51176 93 9.00415Z" fill="white"/>
</g>
<defs>
<linearGradient id="paint0_linear_598_176" x1="19.4016" y1="7.89802" x2="1.69489" y2="12.527" gradientUnits="userSpaceOnUse">
<stop stop-color="#00A0FF"/>
<stop offset="0.00657" stop-color="#00A1FF"/>
<stop offset="0.2601" stop-color="#00BEFF"/>
<stop offset="0.5122" stop-color="#00D2FF"/>
<stop offset="0.7604" stop-color="#00DFFF"/>
<stop offset="1" stop-color="#00E3FF"/>
</linearGradient>
<linearGradient id="paint1_linear_598_176" x1="30.1141" y1="18.1429" x2="8.57803" y2="18.1429" gradientUnits="userSpaceOnUse">
<stop stop-color="#FFE000"/>
<stop offset="0.4087" stop-color="#FFBD00"/>
<stop offset="0.7754" stop-color="#FFA500"/>
<stop offset="1" stop-color="#FF9C00"/>
</linearGradient>
<linearGradient id="paint2_linear_598_176" x1="22.0963" y1="20.2271" x2="7.51401" y2="44.3075" gradientUnits="userSpaceOnUse">
<stop stop-color="#FF3A44"/>
<stop offset="1" stop-color="#C31162"/>
</linearGradient>
<linearGradient id="paint3_linear_598_176" x1="6.49241" y1="0.162381" x2="12.9982" y2="10.9172" gradientUnits="userSpaceOnUse">
<stop stop-color="#32A071"/>
<stop offset="0.0685" stop-color="#2DA771"/>
<stop offset="0.4762" stop-color="#15CF74"/>
<stop offset="0.8009" stop-color="#06E775"/>
<stop offset="1" stop-color="#00F076"/>
</linearGradient>
<clipPath id="clip0_598_176">
<rect width="120.65" height="36.2857" fill="white"/>
</clipPath>
</defs>
</svg>
