<svg width="143" height="43" viewBox="0 0 143 43" fill="none" xmlns="http://www.w3.org/2000/svg">
<g clip-path="url(#clip0_3595_6614)">
<path fill-rule="evenodd" clip-rule="evenodd" d="M136.97 42.7789H5.27009C2.36552 42.7789 0 40.368 0 37.4316V5.34737C0 2.40031 2.36552 0 5.27009 0H136.97C139.872 0 142.24 2.40031 142.24 5.34737V37.4316C142.24 40.368 139.872 42.7789 136.97 42.7789Z" fill="black"/>
<path fill-rule="evenodd" clip-rule="evenodd" d="M136.97 0.856112C139.406 0.856112 141.4 2.87504 141.4 5.34737V37.4316C141.4 39.9039 139.419 41.9228 136.97 41.9228H5.27009C2.83391 41.9228 0.839969 39.9039 0.839969 37.4316V5.34737C0.839969 2.87504 2.82083 0.856112 5.27009 0.856112H136.97ZM136.97 0H5.27009C2.36552 0 0 2.41098 0 5.34737V37.4316C0 40.3786 2.36552 42.7789 5.27009 42.7789H136.97C139.872 42.7789 142.24 40.3786 142.24 37.4316V5.34737C142.24 2.41098 139.872 0 136.97 0Z" fill="#A6A6A6"/>
<path fill-rule="evenodd" clip-rule="evenodd" d="M71.4918 23.2667C69.019 23.2667 67.0146 25.1789 67.0146 27.8166C67.0146 30.4303 69.0321 32.3665 71.4918 32.3665C73.9646 32.3665 75.969 30.4409 75.969 27.8166C75.969 25.1789 73.9646 23.2667 71.4918 23.2667ZM71.4918 30.5636C70.139 30.5636 68.9745 29.4221 68.9745 27.8059C68.9745 26.1657 70.1416 25.0482 71.4918 25.0482C72.8447 25.0482 74.0091 26.1657 74.0091 27.8059C74.0117 29.4328 72.8447 30.5636 71.4918 30.5636ZM61.7236 23.2667C59.2508 23.2667 57.2463 25.1789 57.2463 27.8166C57.2463 30.4303 59.2638 32.3665 61.7236 32.3665C64.1964 32.3665 66.2008 30.4409 66.2008 27.8166C66.2008 25.1789 64.1938 23.2667 61.7236 23.2667ZM61.7236 30.5636C60.3707 30.5636 59.2063 29.4221 59.2063 27.8059C59.2063 26.1657 60.3733 25.0482 61.7236 25.0482C63.0764 25.0482 64.2409 26.1657 64.2409 27.8059C64.2409 29.4328 63.0764 30.5636 61.7236 30.5636ZM50.1001 24.6562V26.5818H54.6348C54.4962 27.6619 54.1455 28.4593 53.6091 29.0061C52.9444 29.6835 51.9187 30.4196 50.1105 30.4196C47.3237 30.4196 45.144 28.126 45.144 25.2856C45.144 22.4452 47.3237 20.1516 50.1105 20.1516C51.6151 20.1516 52.7116 20.757 53.5254 21.5304L54.8651 20.1649C53.7347 19.0608 52.2301 18.2153 50.121 18.2153C46.298 18.2153 43.0898 21.3891 43.0898 25.2749C43.0898 29.1714 46.2953 32.3345 50.121 32.3345C52.1856 32.3345 53.7347 31.6464 54.9593 30.3503C56.2075 29.0781 56.6026 27.2832 56.6026 25.835C56.6026 25.3843 56.5686 24.9789 56.498 24.6348H50.0974C50.1001 24.6322 50.1001 24.6562 50.1001 24.6562ZM97.6434 26.155C97.2692 25.1336 96.1388 23.256 93.8203 23.256C91.5228 23.256 89.6126 25.0989 89.6126 27.8059C89.6126 30.3609 91.5019 32.3559 94.0428 32.3559C96.0838 32.3559 97.2718 31.0837 97.7611 30.3369L96.246 29.3021C95.7436 30.0622 95.045 30.561 94.0532 30.561C93.051 30.561 92.3497 30.0969 91.884 29.1821L97.8527 26.6618C97.8527 26.6644 97.6434 26.155 97.6434 26.155ZM91.5569 27.6752C91.5098 25.9177 92.8966 25.0242 93.8884 25.0242C94.6708 25.0242 95.3223 25.4163 95.5448 25.987L91.5569 27.6752ZM86.7081 32.0838H88.668V18.7167H86.7081V32.0838ZM83.4895 24.2775H83.4188C82.9766 23.7414 82.1366 23.256 81.0638 23.256C78.837 23.256 76.7854 25.2536 76.7854 27.8193C76.7854 30.3743 78.8265 32.3479 81.0638 32.3479C82.1236 32.3479 82.9766 31.8598 83.4188 31.313H83.4895V31.9665C83.4895 33.7027 82.5789 34.6388 81.1109 34.6388C79.9098 34.6388 79.164 33.7587 78.8605 33.0226L77.157 33.748C77.6463 34.9482 78.9521 36.4337 81.1083 36.4337C83.4058 36.4337 85.3526 35.0549 85.3526 31.6918V23.528H83.5V24.2775C83.5026 24.2775 83.4895 24.2775 83.4895 24.2775ZM81.2391 30.5636C79.8863 30.5636 78.7558 29.4115 78.7558 27.8193C78.7558 26.2137 79.8863 25.0509 81.2391 25.0509C82.5789 25.0509 83.6177 26.227 83.6177 27.8193C83.6308 29.4115 82.5815 30.5636 81.2391 30.5636ZM106.82 18.7167H102.134V32.0838H104.094V27.0218H106.823C108.992 27.0218 111.125 25.4189 111.125 22.8746C111.125 20.3303 109 18.7167 106.82 18.7167ZM106.878 25.1549H104.091V20.5676H106.878C108.346 20.5676 109.175 21.8025 109.175 22.8613C109.175 23.9094 108.335 25.1549 106.878 25.1549ZM118.98 23.2427C117.557 23.2427 116.089 23.8854 115.482 25.2856L117.219 26.0217C117.593 25.2856 118.279 25.0349 119.004 25.0349C120.019 25.0349 121.045 25.6536 121.068 26.7578V26.8991C120.718 26.6964 119.948 26.3871 119.027 26.3871C117.151 26.3871 115.249 27.4325 115.249 29.3928C115.249 31.1877 116.787 32.3399 118.501 32.3399C119.818 32.3399 120.542 31.7344 120.995 31.033H121.066V32.0678H122.955V26.9471C122.955 24.5628 121.217 23.2427 118.98 23.2427ZM118.734 30.5636C118.093 30.5636 117.196 30.2436 117.196 29.4221C117.196 28.3873 118.316 27.9953 119.271 27.9953C120.134 27.9953 120.542 28.1846 121.055 28.446C120.914 29.6462 119.92 30.5529 118.734 30.5636ZM129.847 23.528L127.597 29.3261H127.526L125.195 23.528H123.086L126.584 31.6331L124.59 36.1377H126.631L132.014 23.528H129.847ZM112.205 32.0838H114.165V18.7167H112.205V32.0838Z" fill="white"/>
<path fill-rule="evenodd" clip-rule="evenodd" d="M10.9481 8.05687C10.6446 8.39025 10.4692 8.89965 10.4692 9.5664V33.2148C10.4692 33.8816 10.6446 34.391 10.9586 34.711L11.0397 34.783L24.0396 21.5333V21.2373L11.0292 7.98486L10.9481 8.05687Z" fill="url(#paint0_linear_3595_6614)"/>
<path fill-rule="evenodd" clip-rule="evenodd" d="M28.3657 25.9633L24.0298 21.5441V21.2347L28.3657 16.8154L28.4599 16.8741L33.5887 19.8452C35.0567 20.6879 35.0567 22.0801 33.5887 22.9336L28.4599 25.9046L28.3657 25.9633Z" fill="url(#paint1_linear_3595_6614)"/>
<path fill-rule="evenodd" clip-rule="evenodd" d="M28.4594 25.9049L24.0293 21.3896L10.9482 34.7221C11.4271 35.2448 12.2304 35.3035 13.128 34.7941L28.4594 25.9049Z" fill="url(#paint2_linear_3595_6614)"/>
<path fill-rule="evenodd" clip-rule="evenodd" d="M28.4594 16.8744L13.128 7.99853C12.2304 7.47579 11.4245 7.5478 10.9482 8.07054L24.0293 21.3896L28.4594 16.8744Z" fill="url(#paint3_linear_3595_6614)"/>
<path opacity="0.2" fill-rule="evenodd" clip-rule="evenodd" d="M28.3654 25.8086L13.1387 34.6258C12.2883 35.1245 11.5294 35.0898 11.0401 34.6364L10.959 34.7191L11.0401 34.7911C11.5294 35.2419 12.2883 35.2792 13.1387 34.7805L28.4701 25.9046L28.3654 25.8086Z" fill="black"/>
<path opacity="0.12" fill-rule="evenodd" clip-rule="evenodd" d="M33.5886 22.7792L28.3525 25.8089L28.4467 25.9049L33.5755 22.9339C34.3108 22.5071 34.6719 21.9471 34.6719 21.3896C34.6274 21.9017 34.2533 22.3871 33.5886 22.7792Z" fill="black"/>
<path opacity="0.25" fill-rule="evenodd" clip-rule="evenodd" d="M13.1278 8.15348L33.588 20.0004C34.2527 20.3818 34.6269 20.8805 34.6844 21.3899C34.6844 20.8325 34.3233 20.2724 33.588 19.8457L13.1278 7.99879C11.6598 7.14268 10.4692 7.85744 10.4692 9.567V9.72168C10.4692 8.00946 11.6598 7.30803 13.1278 8.15348Z" fill="white"/>
<path d="M47.96 14.1402C46.8333 14.1402 45.9733 13.8268 45.38 13.2002C44.7933 12.5735 44.5 11.6835 44.5 10.5302C44.5 9.95682 44.59 9.44682 44.77 9.00016C44.95 8.54682 45.1967 8.16682 45.51 7.86016C45.8233 7.54682 46.1967 7.31016 46.63 7.15016C47.0633 6.99016 47.5333 6.91016 48.04 6.91016C48.3333 6.91016 48.6 6.93349 48.84 6.98016C49.08 7.02016 49.29 7.07016 49.47 7.13016C49.65 7.18349 49.8 7.24016 49.92 7.30016C50.04 7.36016 50.1267 7.40682 50.18 7.44016L49.73 8.70016C49.5167 8.58682 49.2667 8.49016 48.98 8.41016C48.7 8.33016 48.38 8.29016 48.02 8.29016C47.78 8.29016 47.5433 8.33016 47.31 8.41016C47.0833 8.49016 46.88 8.62016 46.7 8.80016C46.5267 8.97349 46.3867 9.20016 46.28 9.48016C46.1733 9.76016 46.12 10.1002 46.12 10.5002C46.12 10.8202 46.1533 11.1202 46.22 11.4002C46.2933 11.6735 46.4067 11.9102 46.56 12.1102C46.72 12.3102 46.9267 12.4702 47.18 12.5902C47.4333 12.7035 47.74 12.7602 48.1 12.7602C48.3267 12.7602 48.53 12.7468 48.71 12.7202C48.89 12.6935 49.05 12.6635 49.19 12.6302C49.33 12.5902 49.4533 12.5468 49.56 12.5002C49.6667 12.4535 49.7633 12.4102 49.85 12.3702L50.28 13.6202C50.06 13.7535 49.75 13.8735 49.35 13.9802C48.95 14.0868 48.4867 14.1402 47.96 14.1402Z" fill="white"/>
<path d="M52.3405 10.5302C52.3405 10.8702 52.3805 11.1768 52.4605 11.4502C52.5471 11.7235 52.6671 11.9602 52.8205 12.1602C52.9805 12.3535 53.1738 12.5035 53.4005 12.6102C53.6271 12.7168 53.8871 12.7702 54.1805 12.7702C54.4671 12.7702 54.7238 12.7168 54.9505 12.6102C55.1838 12.5035 55.3771 12.3535 55.5305 12.1602C55.6905 11.9602 55.8105 11.7235 55.8905 11.4502C55.9771 11.1768 56.0205 10.8702 56.0205 10.5302C56.0205 10.1902 55.9771 9.88349 55.8905 9.61016C55.8105 9.33016 55.6905 9.09349 55.5305 8.90016C55.3771 8.70016 55.1838 8.54682 54.9505 8.44016C54.7238 8.33349 54.4671 8.28016 54.1805 8.28016C53.8871 8.28016 53.6271 8.33682 53.4005 8.45016C53.1738 8.55682 52.9805 8.71016 52.8205 8.91016C52.6671 9.10349 52.5471 9.34016 52.4605 9.62016C52.3805 9.89349 52.3405 10.1968 52.3405 10.5302ZM57.6305 10.5302C57.6305 11.1235 57.5405 11.6468 57.3605 12.1002C57.1871 12.5468 56.9471 12.9235 56.6405 13.2302C56.3338 13.5302 55.9671 13.7568 55.5405 13.9102C55.1205 14.0635 54.6671 14.1402 54.1805 14.1402C53.7071 14.1402 53.2605 14.0635 52.8405 13.9102C52.4205 13.7568 52.0538 13.5302 51.7405 13.2302C51.4271 12.9235 51.1805 12.5468 51.0005 12.1002C50.8205 11.6468 50.7305 11.1235 50.7305 10.5302C50.7305 9.93682 50.8238 9.41682 51.0105 8.97016C51.1971 8.51682 51.4471 8.13682 51.7605 7.83016C52.0805 7.52349 52.4471 7.29349 52.8605 7.14016C53.2805 6.98682 53.7205 6.91016 54.1805 6.91016C54.6538 6.91016 55.1005 6.98682 55.5205 7.14016C55.9405 7.29349 56.3071 7.52349 56.6205 7.83016C56.9338 8.13682 57.1805 8.51682 57.3605 8.97016C57.5405 9.41682 57.6305 9.93682 57.6305 10.5302Z" fill="white"/>
<path d="M60.7709 7.07016C60.8909 7.29016 61.0275 7.56349 61.1809 7.89016C61.3409 8.21016 61.5042 8.56016 61.6709 8.94016C61.8442 9.31349 62.0142 9.69682 62.1809 10.0902C62.3475 10.4835 62.5042 10.8535 62.6509 11.2002C62.7975 10.8535 62.9542 10.4835 63.1209 10.0902C63.2875 9.69682 63.4542 9.31349 63.6209 8.94016C63.7942 8.56016 63.9575 8.21016 64.1109 7.89016C64.2709 7.56349 64.4109 7.29016 64.5309 7.07016H65.9509C66.0175 7.53016 66.0775 8.04682 66.1309 8.62016C66.1909 9.18682 66.2409 9.78016 66.2809 10.4002C66.3275 11.0135 66.3675 11.6302 66.4009 12.2502C66.4409 12.8702 66.4742 13.4535 66.5009 14.0002H64.9809C64.9609 13.3268 64.9342 12.5935 64.9009 11.8002C64.8675 11.0068 64.8175 10.2068 64.7509 9.40016C64.6309 9.68016 64.4975 9.99016 64.3509 10.3302C64.2042 10.6702 64.0575 11.0102 63.9109 11.3502C63.7709 11.6902 63.6342 12.0168 63.5009 12.3302C63.3675 12.6368 63.2542 12.9002 63.1609 13.1202H62.0709C61.9775 12.9002 61.8642 12.6368 61.7309 12.3302C61.5975 12.0168 61.4575 11.6902 61.3109 11.3502C61.1709 11.0102 61.0275 10.6702 60.8809 10.3302C60.7342 9.99016 60.6009 9.68016 60.4809 9.40016C60.4142 10.2068 60.3642 11.0068 60.3309 11.8002C60.2975 12.5935 60.2709 13.3268 60.2509 14.0002H58.7309C58.7575 13.4535 58.7875 12.8702 58.8209 12.2502C58.8609 11.6302 58.9009 11.0135 58.9409 10.4002C58.9875 9.78016 59.0375 9.18682 59.0909 8.62016C59.1509 8.04682 59.2142 7.53016 59.2809 7.07016H60.7709Z" fill="white"/>
<path d="M67.9055 7.07016H69.4655V14.0002H67.9055V7.07016Z" fill="white"/>
<path d="M75.7195 14.0002C75.2729 13.2068 74.7895 12.4235 74.2695 11.6502C73.7495 10.8768 73.1962 10.1468 72.6095 9.46016V14.0002H71.0695V7.07016H72.3395C72.5595 7.29016 72.8029 7.56016 73.0695 7.88016C73.3362 8.20016 73.6062 8.54349 73.8795 8.91016C74.1595 9.27016 74.4362 9.64682 74.7095 10.0402C74.9829 10.4268 75.2395 10.8002 75.4795 11.1602V7.07016H77.0295V14.0002H75.7195Z" fill="white"/>
<path d="M82.0081 8.27016C81.2815 8.27016 80.7548 8.47349 80.4281 8.88016C80.1081 9.28016 79.9481 9.83016 79.9481 10.5302C79.9481 10.8702 79.9881 11.1802 80.0681 11.4602C80.1481 11.7335 80.2681 11.9702 80.4281 12.1702C80.5881 12.3702 80.7881 12.5268 81.0281 12.6402C81.2681 12.7468 81.5481 12.8002 81.8681 12.8002C82.0415 12.8002 82.1881 12.7968 82.3081 12.7902C82.4348 12.7835 82.5448 12.7702 82.6381 12.7502V10.3402H84.1981V13.7702C84.0115 13.8435 83.7115 13.9202 83.2981 14.0002C82.8848 14.0868 82.3748 14.1302 81.7681 14.1302C81.2481 14.1302 80.7748 14.0502 80.3481 13.8902C79.9281 13.7302 79.5681 13.4968 79.2681 13.1902C78.9681 12.8835 78.7348 12.5068 78.5681 12.0602C78.4081 11.6135 78.3281 11.1035 78.3281 10.5302C78.3281 9.95016 78.4181 9.43682 78.5981 8.99016C78.7781 8.54349 79.0248 8.16682 79.3381 7.86016C79.6515 7.54682 80.0181 7.31016 80.4381 7.15016C80.8648 6.99016 81.3181 6.91016 81.7981 6.91016C82.1248 6.91016 82.4181 6.93349 82.6781 6.98016C82.9448 7.02016 83.1715 7.07016 83.3581 7.13016C83.5515 7.18349 83.7081 7.24016 83.8281 7.30016C83.9548 7.36016 84.0448 7.40682 84.0981 7.44016L83.6481 8.69016C83.4348 8.57682 83.1881 8.48016 82.9081 8.40016C82.6348 8.31349 82.3348 8.27016 82.0081 8.27016Z" fill="white"/>
<path d="M89.942 12.8102C90.162 12.8102 90.342 12.7935 90.482 12.7602C90.6286 12.7202 90.7453 12.6702 90.832 12.6102C90.9186 12.5435 90.9786 12.4668 91.012 12.3802C91.0453 12.2935 91.062 12.1968 91.062 12.0902C91.062 11.8635 90.9553 11.6768 90.742 11.5302C90.5286 11.3768 90.162 11.2135 89.642 11.0402C89.4153 10.9602 89.1886 10.8702 88.962 10.7702C88.7353 10.6635 88.532 10.5335 88.352 10.3802C88.172 10.2202 88.0253 10.0302 87.912 9.81016C87.7986 9.58349 87.742 9.31016 87.742 8.99016C87.742 8.67016 87.802 8.38349 87.922 8.13016C88.042 7.87016 88.212 7.65016 88.432 7.47016C88.652 7.29016 88.9186 7.15349 89.232 7.06016C89.5453 6.96016 89.8986 6.91016 90.292 6.91016C90.7586 6.91016 91.162 6.96016 91.502 7.06016C91.842 7.16016 92.122 7.27016 92.342 7.39016L91.892 8.62016C91.6986 8.52016 91.482 8.43349 91.242 8.36016C91.0086 8.28016 90.7253 8.24016 90.392 8.24016C90.0186 8.24016 89.7486 8.29349 89.582 8.40016C89.422 8.50016 89.342 8.65682 89.342 8.87016C89.342 8.99682 89.372 9.10349 89.432 9.19016C89.492 9.27682 89.5753 9.35682 89.682 9.43016C89.7953 9.49682 89.922 9.56016 90.062 9.62016C90.2086 9.67349 90.3686 9.73016 90.542 9.79016C90.902 9.92349 91.2153 10.0568 91.482 10.1902C91.7486 10.3168 91.9686 10.4668 92.142 10.6402C92.322 10.8135 92.4553 11.0168 92.542 11.2502C92.6286 11.4835 92.672 11.7668 92.672 12.1002C92.672 12.7468 92.4453 13.2502 91.992 13.6102C91.5386 13.9635 90.8553 14.1402 89.942 14.1402C89.6353 14.1402 89.3586 14.1202 89.112 14.0802C88.8653 14.0468 88.6453 14.0035 88.452 13.9502C88.2653 13.8968 88.102 13.8402 87.962 13.7802C87.8286 13.7202 87.7153 13.6635 87.622 13.6102L88.062 12.3702C88.2686 12.4835 88.522 12.5868 88.822 12.6802C89.1286 12.7668 89.502 12.8102 89.942 12.8102Z" fill="white"/>
<path d="M95.1823 10.5302C95.1823 10.8702 95.2223 11.1768 95.3023 11.4502C95.3889 11.7235 95.5089 11.9602 95.6623 12.1602C95.8223 12.3535 96.0156 12.5035 96.2423 12.6102C96.4689 12.7168 96.7289 12.7702 97.0223 12.7702C97.3089 12.7702 97.5656 12.7168 97.7923 12.6102C98.0256 12.5035 98.2189 12.3535 98.3723 12.1602C98.5323 11.9602 98.6523 11.7235 98.7323 11.4502C98.8189 11.1768 98.8623 10.8702 98.8623 10.5302C98.8623 10.1902 98.8189 9.88349 98.7323 9.61016C98.6523 9.33016 98.5323 9.09349 98.3723 8.90016C98.2189 8.70016 98.0256 8.54682 97.7923 8.44016C97.5656 8.33349 97.3089 8.28016 97.0223 8.28016C96.7289 8.28016 96.4689 8.33682 96.2423 8.45016C96.0156 8.55682 95.8223 8.71016 95.6623 8.91016C95.5089 9.10349 95.3889 9.34016 95.3023 9.62016C95.2223 9.89349 95.1823 10.1968 95.1823 10.5302ZM100.472 10.5302C100.472 11.1235 100.382 11.6468 100.202 12.1002C100.029 12.5468 99.7889 12.9235 99.4823 13.2302C99.1756 13.5302 98.8089 13.7568 98.3823 13.9102C97.9623 14.0635 97.5089 14.1402 97.0223 14.1402C96.5489 14.1402 96.1023 14.0635 95.6823 13.9102C95.2623 13.7568 94.8956 13.5302 94.5823 13.2302C94.2689 12.9235 94.0223 12.5468 93.8423 12.1002C93.6623 11.6468 93.5723 11.1235 93.5723 10.5302C93.5723 9.93682 93.6656 9.41682 93.8523 8.97016C94.0389 8.51682 94.2889 8.13682 94.6023 7.83016C94.9223 7.52349 95.2889 7.29349 95.7023 7.14016C96.1223 6.98682 96.5623 6.91016 97.0223 6.91016C97.4956 6.91016 97.9423 6.98682 98.3623 7.14016C98.7823 7.29349 99.1489 7.52349 99.4623 7.83016C99.7756 8.13682 100.022 8.51682 100.202 8.97016C100.382 9.41682 100.472 9.93682 100.472 10.5302Z" fill="white"/>
<path d="M103.083 10.5302C103.083 10.8702 103.123 11.1768 103.203 11.4502C103.289 11.7235 103.409 11.9602 103.563 12.1602C103.723 12.3535 103.916 12.5035 104.143 12.6102C104.369 12.7168 104.629 12.7702 104.923 12.7702C105.209 12.7702 105.466 12.7168 105.693 12.6102C105.926 12.5035 106.119 12.3535 106.273 12.1602C106.433 11.9602 106.553 11.7235 106.633 11.4502C106.719 11.1768 106.763 10.8702 106.763 10.5302C106.763 10.1902 106.719 9.88349 106.633 9.61016C106.553 9.33016 106.433 9.09349 106.273 8.90016C106.119 8.70016 105.926 8.54682 105.693 8.44016C105.466 8.33349 105.209 8.28016 104.923 8.28016C104.629 8.28016 104.369 8.33682 104.143 8.45016C103.916 8.55682 103.723 8.71016 103.563 8.91016C103.409 9.10349 103.289 9.34016 103.203 9.62016C103.123 9.89349 103.083 10.1968 103.083 10.5302ZM108.373 10.5302C108.373 11.1235 108.283 11.6468 108.103 12.1002C107.929 12.5468 107.689 12.9235 107.383 13.2302C107.076 13.5302 106.709 13.7568 106.283 13.9102C105.863 14.0635 105.409 14.1402 104.923 14.1402C104.449 14.1402 104.003 14.0635 103.583 13.9102C103.163 13.7568 102.796 13.5302 102.483 13.2302C102.169 12.9235 101.923 12.5468 101.743 12.1002C101.563 11.6468 101.473 11.1235 101.473 10.5302C101.473 9.93682 101.566 9.41682 101.753 8.97016C101.939 8.51682 102.189 8.13682 102.503 7.83016C102.823 7.52349 103.189 7.29349 103.603 7.14016C104.023 6.98682 104.463 6.91016 104.923 6.91016C105.396 6.91016 105.843 6.98682 106.263 7.14016C106.683 7.29349 107.049 7.52349 107.363 7.83016C107.676 8.13682 107.923 8.51682 108.103 8.97016C108.283 9.41682 108.373 9.93682 108.373 10.5302Z" fill="white"/>
<path d="M114.323 14.0002C113.876 13.2068 113.393 12.4235 112.873 11.6502C112.353 10.8768 111.8 10.1468 111.213 9.46016V14.0002H109.673V7.07016H110.943C111.163 7.29016 111.406 7.56016 111.673 7.88016C111.94 8.20016 112.21 8.54349 112.483 8.91016C112.763 9.27016 113.04 9.64682 113.313 10.0402C113.586 10.4268 113.843 10.8002 114.083 11.1602V7.07016H115.633V14.0002H114.323Z" fill="white"/>
</g>
<defs>
<linearGradient id="paint0_linear_3595_6614" x1="22.8735" y1="9.31126" x2="1.99822" y2="14.7686" gradientUnits="userSpaceOnUse">
<stop stop-color="#00A0FF"/>
<stop offset="0.00657" stop-color="#00A1FF"/>
<stop offset="0.2601" stop-color="#00BEFF"/>
<stop offset="0.5122" stop-color="#00D2FF"/>
<stop offset="0.7604" stop-color="#00DFFF"/>
<stop offset="1" stop-color="#00E3FF"/>
</linearGradient>
<linearGradient id="paint1_linear_3595_6614" x1="35.5031" y1="21.3894" x2="10.1131" y2="21.3894" gradientUnits="userSpaceOnUse">
<stop stop-color="#FFE000"/>
<stop offset="0.4087" stop-color="#FFBD00"/>
<stop offset="0.7754" stop-color="#FFA500"/>
<stop offset="1" stop-color="#FF9C00"/>
</linearGradient>
<linearGradient id="paint2_linear_3595_6614" x1="26.0505" y1="23.8466" x2="8.85871" y2="52.2361" gradientUnits="userSpaceOnUse">
<stop stop-color="#FF3A44"/>
<stop offset="1" stop-color="#C31162"/>
</linearGradient>
<linearGradient id="paint3_linear_3595_6614" x1="7.6543" y1="0.191356" x2="15.3243" y2="12.8708" gradientUnits="userSpaceOnUse">
<stop stop-color="#32A071"/>
<stop offset="0.0685" stop-color="#2DA771"/>
<stop offset="0.4762" stop-color="#15CF74"/>
<stop offset="0.8009" stop-color="#06E775"/>
<stop offset="1" stop-color="#00F076"/>
</linearGradient>
<clipPath id="clip0_3595_6614">
<rect width="142.24" height="42.7789" fill="white"/>
</clipPath>
</defs>
</svg>
