<svg width="1693" height="628" viewBox="0 0 1693 628" fill="none" xmlns="http://www.w3.org/2000/svg">
<g filter="url(#filter0_d_139_593)">
<rect x="247" y="40" width="70" height="70" rx="35" fill="white"/>
<path d="M311.104 82.23C307.112 98.3196 290.859 108.096 274.77 104.104C258.68 100.112 248.904 83.8186 252.896 67.7697C256.888 51.6801 273.14 41.9041 289.189 45.896C305.197 49.8064 315.055 65.9367 311.144 81.9449C311.144 82.0263 311.104 82.1485 311.104 82.23Z" fill="#F7931A"/>
<path d="M295.34 70.4175C295.788 66.4664 292.733 64.3075 288.782 62.9633L290.085 57.7087L286.582 56.8126L285.279 62.0672C284.423 61.6191 283.527 61.6191 282.672 61.2118L283.975 55.9572L280.92 55.1018L279.617 60.8045C278.762 60.8045 278.313 60.3564 277.417 60.3564L273.059 59.0529L272.122 62.5152C272.855 62.6374 273.588 62.7596 274.322 62.9633C275.625 63.4114 276.073 64.2668 276.073 64.7148L274.322 71.2729L272.122 80.0305C272.122 80.4786 271.674 80.8859 270.819 80.8859L268.619 80.4378L266.867 83.9409L271.226 84.7963C271.959 84.9185 272.692 85.0407 273.425 85.2444L272.122 90.4989L275.625 91.3543L276.929 86.0998C277.784 86.5478 278.68 86.5478 279.535 86.9552L277.784 92.2097L281.287 93.0651L282.59 87.8106C288.293 88.666 292.203 88.2586 293.955 83.4521C295.381 80.6822 294.281 77.2607 291.511 75.835C291.307 75.7128 291.104 75.6313 290.9 75.5499C293.344 74.9389 295.055 72.8615 295.34 70.4175ZM287.886 80.9266C286.582 85.2851 280.024 83.1262 277.825 82.2301L279.576 74.7759C281.776 75.6721 288.782 76.9755 287.886 80.9266ZM288.782 70.4175C287.926 74.3686 282.224 72.169 280.472 71.7209L282.224 65.1629C283.975 65.5702 289.637 66.4664 288.782 70.4175Z" fill="white"/>
</g>
<g filter="url(#filter1_d_139_593)">
<rect x="70" y="156" width="70" height="70" rx="35" fill="white"/>
<path d="M105 221C121.569 221 135 207.569 135 191C135 174.431 121.569 161 105 161C88.4315 161 75 174.431 75 191C75 207.569 88.4315 221 105 221Z" fill="#0AC18E"/>
<path d="M114.358 180.926C112.85 177.508 109.386 176.777 105.145 177.485L103.782 172.201L100.569 173.031L101.909 178.3C101.064 178.513 100.196 178.695 99.3351 178.939L97.995 173.701L94.7818 174.531L96.1448 179.815C95.4519 180.013 89.6575 181.498 89.6575 181.498L90.5407 184.939C90.5407 184.939 92.9011 184.277 92.8783 184.33C94.1879 183.987 94.8047 184.642 95.094 185.259L98.8402 199.741C98.8859 200.16 98.8097 200.876 97.9113 201.119C97.9646 201.15 95.5737 201.721 95.5737 201.721L95.924 205.734C95.924 205.734 101.665 204.264 102.419 204.074L103.797 209.419L107.01 208.589L105.632 203.206C106.515 203 107.376 202.787 108.213 202.566L109.584 207.919L112.797 207.089L111.419 201.751C116.368 200.548 119.863 197.426 119.147 192.652C118.69 189.774 115.546 187.414 112.934 187.147C114.541 185.723 115.355 183.645 114.358 180.926ZM112.812 193.528C113.452 198.256 106.881 198.835 104.711 199.406L102.822 192.333C105 191.761 111.731 189.363 112.812 193.528ZM108.853 183.896C109.531 188.099 103.911 188.586 102.099 189.051L100.378 182.632C102.198 182.183 107.475 180.005 108.853 183.896Z" fill="white"/>
</g>
<g filter="url(#filter2_d_139_593)">
<rect x="247" y="252" width="70" height="70" rx="35" fill="white"/>
<path d="M282 317C298.569 317 312 303.569 312 287C312 270.431 298.569 257 282 257C265.431 257 252 270.431 252 287C252 303.569 265.431 317 282 317Z" fill="#E9E9E9"/>
<path d="M282 264.5L281.625 265.438V295.25L282 295.625L295.875 287.375L282 264.5Z" fill="#343434"/>
<path d="M282 264.5L268.125 287.375L282 295.625V281.188V264.5Z" fill="#8C8C8C"/>
<path d="M282 298.25L281.812 298.438V308.938L282 309.5L295.875 290L282 298.25Z" fill="#3C3C3B"/>
<path d="M282 309.5V298.25L268.125 290L282 309.5Z" fill="#8C8C8C"/>
<path d="M282 295.625L295.875 287.375L282 281.188V295.625Z" fill="#141414"/>
<path d="M268.125 287.375L282 295.625V281.188L268.125 287.375Z" fill="#393939"/>
</g>
<g filter="url(#filter3_d_139_593)">
<rect x="100" y="429" width="70" height="70" rx="35" fill="white"/>
<g clip-path="url(#clip0_139_593)">
<path d="M135 434C129.067 434 123.266 435.759 118.333 439.056C113.4 442.352 109.554 447.038 107.284 452.52C105.013 458.001 104.419 464.033 105.576 469.853C106.734 475.672 109.591 481.018 113.787 485.213C117.982 489.409 123.328 492.266 129.147 493.424C134.967 494.581 140.999 493.987 146.481 491.716C151.962 489.446 156.648 485.601 159.944 480.667C163.241 475.734 165 469.933 165 464C165 456.044 161.839 448.413 156.213 442.787C150.587 437.161 142.957 434 135 434ZM135.429 464.857L132.429 475.571H149.143C149.364 475.591 149.571 475.687 149.727 475.844C149.884 476.001 149.981 476.208 150 476.429L148.714 481.143C148.695 481.364 148.599 481.571 148.442 481.727C148.285 481.884 148.078 481.981 147.857 482H121.714L126 467.429L121.286 469.143L122.143 465.714L126.857 464.429L132.857 444.286C132.877 444.065 132.973 443.858 133.13 443.701C133.287 443.544 133.494 443.448 133.714 443.429H140.143C141 443.429 141.429 443.429 141.429 444.286L136.286 461.429L141 460.143L140.143 463.571L135.429 464.857Z" fill="#4055DC"/>
</g>
</g>
<g filter="url(#filter4_d_139_593)">
<rect x="1506" y="272" width="70" height="70" rx="35" fill="white"/>
<path d="M1541 337C1557.57 337 1571 323.569 1571 307C1571 290.431 1557.57 277 1541 277C1524.43 277 1511 290.431 1511 307C1511 323.569 1524.43 337 1541 337Z" fill="#161616"/>
<path d="M1560.71 298.118C1559.01 296.928 1557.19 295.659 1555.41 294.4C1555.37 294.37 1555.33 294.341 1555.28 294.311C1555.09 294.164 1554.86 294.007 1554.58 293.918L1554.56 293.908C1549.8 292.757 1544.96 291.577 1540.28 290.436C1536.03 289.403 1531.79 288.37 1527.54 287.338C1527.44 287.308 1527.33 287.279 1527.21 287.249C1526.83 287.141 1526.38 287.023 1525.91 287.082C1525.77 287.102 1525.66 287.151 1525.55 287.22L1525.43 287.318C1525.24 287.495 1525.14 287.721 1525.1 287.849L1525.07 287.928V288.38L1525.09 288.449C1527.77 295.974 1530.52 303.607 1533.18 310.993C1535.23 316.679 1537.35 322.57 1539.43 328.354C1539.55 328.747 1539.92 329.003 1540.37 329.043H1540.47C1540.89 329.043 1541.27 328.836 1541.45 328.502L1549.24 317.141C1551.14 314.377 1553.04 311.603 1554.94 308.839C1555.71 307.708 1556.49 306.567 1557.27 305.436C1558.55 303.567 1559.87 301.639 1561.17 299.761L1561.24 299.662V299.544C1561.27 299.2 1561.28 298.492 1560.71 298.118ZM1551.58 302.259C1549.75 303.213 1547.89 304.197 1546.01 305.17C1547.1 304 1548.2 302.82 1549.29 301.649C1550.66 300.174 1552.09 298.649 1553.48 297.154L1553.51 297.125C1553.63 296.967 1553.78 296.82 1553.93 296.662C1554.04 296.554 1554.16 296.446 1554.27 296.318C1555 296.82 1555.73 297.331 1556.44 297.833C1556.95 298.197 1557.48 298.561 1558.01 298.925C1555.84 300.026 1553.68 301.157 1551.58 302.259ZM1546.88 301.787C1545.48 303.311 1544.02 304.875 1542.57 306.42C1539.77 303.016 1536.91 299.564 1534.13 296.229C1532.88 294.715 1531.61 293.19 1530.35 291.675L1530.34 291.666C1530.05 291.341 1529.78 290.987 1529.5 290.652C1529.32 290.426 1529.14 290.21 1528.95 289.984C1530.09 290.279 1531.24 290.554 1532.37 290.82C1533.37 291.056 1534.4 291.302 1535.41 291.557C1541.12 292.944 1546.83 294.331 1552.54 295.718C1550.64 297.744 1548.73 299.8 1546.88 301.787ZM1541.93 320.957C1542.04 319.925 1542.16 318.862 1542.26 317.82C1542.35 316.984 1542.44 316.128 1542.52 315.311C1542.66 314.003 1542.81 312.646 1542.93 311.318L1542.96 311.082C1543.06 310.236 1543.15 309.361 1543.21 308.485C1543.32 308.426 1543.44 308.367 1543.57 308.318C1543.71 308.249 1543.86 308.19 1544.01 308.102C1546.28 306.911 1548.55 305.721 1550.84 304.541C1553.11 303.361 1555.44 302.141 1557.75 300.931C1555.65 303.98 1553.53 307.059 1551.49 310.059C1549.72 312.626 1547.91 315.272 1546.11 317.879C1545.41 318.921 1544.67 319.984 1543.97 321.007C1543.18 322.147 1542.38 323.318 1541.59 324.488C1541.69 323.308 1541.81 322.118 1541.93 320.957ZM1528.22 292.305C1528.1 291.951 1527.96 291.587 1527.84 291.243C1530.5 294.449 1533.17 297.675 1535.78 300.803C1537.12 302.426 1538.47 304.039 1539.82 305.672C1540.09 305.977 1540.35 306.302 1540.61 306.616C1540.94 307.02 1541.28 307.443 1541.64 307.846C1541.52 308.859 1541.42 309.882 1541.31 310.866C1541.25 311.554 1541.18 312.243 1541.1 312.941V312.951C1541.07 313.393 1541.01 313.836 1540.96 314.269C1540.89 314.869 1540.73 316.226 1540.73 316.226L1540.72 316.295C1540.55 318.282 1540.33 320.288 1540.12 322.236C1540.04 323.043 1539.96 323.869 1539.87 324.695C1539.82 324.547 1539.76 324.4 1539.71 324.262C1539.56 323.869 1539.42 323.456 1539.28 323.052L1538.23 320.131C1534.89 310.856 1531.56 301.59 1528.22 292.305Z" fill="white"/>
</g>
<g filter="url(#filter5_d_139_593)">
<rect x="1462" y="458" width="70" height="70" rx="35" fill="white"/>
<path d="M1497 523C1513.57 523 1527 509.569 1527 493C1527 476.431 1513.57 463 1497 463C1480.43 463 1467 476.431 1467 493C1467 509.569 1480.43 523 1497 523Z" fill="#26A17B"/>
<path fill-rule="evenodd" clip-rule="evenodd" d="M1500.6 495.593V495.589C1500.4 495.604 1499.33 495.668 1496.96 495.668C1495.07 495.668 1493.74 495.612 1493.27 495.589V495.595C1485.98 495.274 1480.54 494.005 1480.54 492.486C1480.54 490.969 1485.98 489.7 1493.27 489.374V494.331C1493.74 494.365 1495.11 494.446 1496.99 494.446C1499.26 494.446 1500.39 494.352 1500.6 494.333V489.378C1507.88 489.702 1513.31 490.971 1513.31 492.486C1513.31 494.005 1507.88 495.271 1500.6 495.593ZM1500.6 488.862V484.426H1510.75V477.661H1483.12V484.426H1493.27V488.86C1485.02 489.239 1478.81 490.874 1478.81 492.831C1478.81 494.789 1485.02 496.422 1493.27 496.803V511.019H1500.6V496.799C1508.84 496.42 1515.03 494.787 1515.03 492.831C1515.03 490.876 1508.84 489.243 1500.6 488.862Z" fill="white"/>
</g>
<g filter="url(#filter6_d_139_593)">
<rect x="1251" y="322" width="70" height="70" rx="35" fill="white"/>
<path fill-rule="evenodd" clip-rule="evenodd" d="M1286 327C1302.57 327 1316 340.43 1316 357C1316 373.57 1302.57 387 1286 387C1269.43 387 1256 373.57 1256 357C1256 340.43 1269.43 327 1286 327Z" fill="#F0B90B"/>
<path d="M1272.49 357L1272.51 364.933L1279.25 368.899V373.543L1268.56 367.276V354.68L1272.49 357ZM1272.49 349.067V353.69L1268.56 351.368V346.745L1272.49 344.423L1276.43 346.745L1272.49 349.067ZM1282.06 346.745L1285.99 344.423L1289.94 346.745L1285.99 349.067L1282.06 346.745Z" fill="white"/>
<path d="M1275.32 363.288V358.644L1279.25 360.966V365.589L1275.32 363.288ZM1282.06 370.563L1285.99 372.885L1289.94 370.563V375.185L1285.99 377.507L1282.06 375.185V370.563ZM1295.56 346.745L1299.49 344.423L1303.44 346.745V351.368L1299.49 353.69V349.067L1295.56 346.745ZM1299.49 364.933L1299.51 357L1303.44 354.678V367.274L1292.75 373.541V368.897L1299.49 364.933Z" fill="white"/>
<path d="M1296.68 363.289L1292.75 365.589V360.966L1296.68 358.644V363.289Z" fill="white"/>
<path d="M1296.68 350.712L1296.7 355.356L1289.94 359.322V367.274L1286.01 369.575L1282.09 367.274V359.322L1275.33 355.356V350.712L1279.27 348.389L1285.99 352.375L1292.75 348.389L1296.69 350.712H1296.68ZM1275.32 342.781L1285.99 336.493L1296.68 342.781L1292.75 345.103L1285.99 341.118L1279.25 345.103L1275.32 342.781Z" fill="white"/>
</g>
<g filter="url(#filter7_d_139_593)">
<rect x="1309" y="63" width="70" height="70" rx="35" fill="white"/>
<g clip-path="url(#clip1_139_593)">
<path d="M1374 97.9999C1374 114.57 1360.57 128 1344 128C1337.23 128.013 1330.66 125.723 1325.37 121.508C1323.96 120.394 1322.66 119.159 1321.48 117.816C1316.66 112.34 1314 105.295 1314 97.9999C1314 90.7052 1316.66 83.6603 1321.48 78.1835C1322.66 76.8413 1323.96 75.606 1325.37 74.4921C1330.66 70.2766 1337.23 67.9872 1344 67.9999C1360.57 67.9999 1374 81.4296 1374 97.9999Z" fill="#BBA025"/>
<path d="M1368.5 98C1368.5 77.5742 1354.8 74.4922 1349.99 74.4922H1325.37C1323.96 75.6061 1322.66 76.8413 1321.48 78.1836V86.0469H1327.64V109.953H1321.48V117.816C1322.66 119.159 1323.96 120.394 1325.37 121.508H1350C1354.82 121.508 1368.5 118.426 1368.5 98ZM1341.32 109.953V86.0469H1346.52C1347.87 86.0469 1353.64 88.7422 1353.64 98C1353.64 107.258 1347.87 109.953 1346.52 109.953H1341.32Z" fill="#F0EFEB"/>
</g>
</g>
<g filter="url(#filter8_d_139_593)">
<rect x="1553" y="138" width="70" height="70" rx="35" fill="white"/>
<path d="M1617.1 180.23C1613.11 196.32 1596.86 206.096 1580.77 202.104C1564.68 198.112 1554.9 181.819 1558.9 165.77C1562.89 149.68 1579.14 139.904 1595.19 143.896C1611.2 147.806 1621.05 163.937 1617.14 179.945C1617.14 180.026 1617.1 180.149 1617.1 180.23Z" fill="#ECECEC"/>
<path d="M1599.87 158H1604.93L1594.4 168.785C1590.59 172.69 1584.4 172.69 1580.6 168.785L1570.07 158H1575.13L1583.12 166.193C1585.54 168.663 1589.46 168.663 1591.87 166.193L1599.87 158Z" fill="#161616"/>
<path d="M1575.06 188H1570L1580.6 177.141C1584.41 173.236 1590.6 173.236 1594.41 177.141L1605 188H1599.94L1591.88 179.742C1589.46 177.272 1585.54 177.272 1583.13 179.742L1575.06 188Z" fill="#161616"/>
</g>
<defs>
<filter id="filter0_d_139_593" x="177" y="0" width="210" height="210" filterUnits="userSpaceOnUse" color-interpolation-filters="sRGB">
<feFlood flood-opacity="0" result="BackgroundImageFix"/>
<feColorMatrix in="SourceAlpha" type="matrix" values="0 0 0 0 0 0 0 0 0 0 0 0 0 0 0 0 0 0 127 0" result="hardAlpha"/>
<feOffset dy="30"/>
<feGaussianBlur stdDeviation="35"/>
<feComposite in2="hardAlpha" operator="out"/>
<feColorMatrix type="matrix" values="0 0 0 0 1 0 0 0 0 0.847285 0 0 0 0 0.6625 0 0 0 1 0"/>
<feBlend mode="normal" in2="BackgroundImageFix" result="effect1_dropShadow_139_593"/>
<feBlend mode="normal" in="SourceGraphic" in2="effect1_dropShadow_139_593" result="shape"/>
</filter>
<filter id="filter1_d_139_593" x="0" y="116" width="210" height="210" filterUnits="userSpaceOnUse" color-interpolation-filters="sRGB">
<feFlood flood-opacity="0" result="BackgroundImageFix"/>
<feColorMatrix in="SourceAlpha" type="matrix" values="0 0 0 0 0 0 0 0 0 0 0 0 0 0 0 0 0 0 127 0" result="hardAlpha"/>
<feOffset dy="30"/>
<feGaussianBlur stdDeviation="35"/>
<feComposite in2="hardAlpha" operator="out"/>
<feColorMatrix type="matrix" values="0 0 0 0 0.505556 0 0 0 0 0.866667 0 0 0 0 0.766029 0 0 0 1 0"/>
<feBlend mode="normal" in2="BackgroundImageFix" result="effect1_dropShadow_139_593"/>
<feBlend mode="normal" in="SourceGraphic" in2="effect1_dropShadow_139_593" result="shape"/>
</filter>
<filter id="filter2_d_139_593" x="177" y="212" width="210" height="210" filterUnits="userSpaceOnUse" color-interpolation-filters="sRGB">
<feFlood flood-opacity="0" result="BackgroundImageFix"/>
<feColorMatrix in="SourceAlpha" type="matrix" values="0 0 0 0 0 0 0 0 0 0 0 0 0 0 0 0 0 0 127 0" result="hardAlpha"/>
<feOffset dy="30"/>
<feGaussianBlur stdDeviation="35"/>
<feComposite in2="hardAlpha" operator="out"/>
<feColorMatrix type="matrix" values="0 0 0 0 0.666667 0 0 0 0 0.666667 0 0 0 0 0.666667 0 0 0 1 0"/>
<feBlend mode="normal" in2="BackgroundImageFix" result="effect1_dropShadow_139_593"/>
<feBlend mode="normal" in="SourceGraphic" in2="effect1_dropShadow_139_593" result="shape"/>
</filter>
<filter id="filter3_d_139_593" x="30" y="389" width="210" height="210" filterUnits="userSpaceOnUse" color-interpolation-filters="sRGB">
<feFlood flood-opacity="0" result="BackgroundImageFix"/>
<feColorMatrix in="SourceAlpha" type="matrix" values="0 0 0 0 0 0 0 0 0 0 0 0 0 0 0 0 0 0 127 0" result="hardAlpha"/>
<feOffset dy="30"/>
<feGaussianBlur stdDeviation="35"/>
<feComposite in2="hardAlpha" operator="out"/>
<feColorMatrix type="matrix" values="0 0 0 0 0.598958 0 0 0 0 0.647336 0 0 0 0 0.958333 0 0 0 1 0"/>
<feBlend mode="normal" in2="BackgroundImageFix" result="effect1_dropShadow_139_593"/>
<feBlend mode="normal" in="SourceGraphic" in2="effect1_dropShadow_139_593" result="shape"/>
</filter>
<filter id="filter4_d_139_593" x="1436" y="232" width="210" height="210" filterUnits="userSpaceOnUse" color-interpolation-filters="sRGB">
<feFlood flood-opacity="0" result="BackgroundImageFix"/>
<feColorMatrix in="SourceAlpha" type="matrix" values="0 0 0 0 0 0 0 0 0 0 0 0 0 0 0 0 0 0 127 0" result="hardAlpha"/>
<feOffset dy="30"/>
<feGaussianBlur stdDeviation="35"/>
<feComposite in2="hardAlpha" operator="out"/>
<feColorMatrix type="matrix" values="0 0 0 0 0.479167 0 0 0 0 0.479167 0 0 0 0 0.479167 0 0 0 1 0"/>
<feBlend mode="normal" in2="BackgroundImageFix" result="effect1_dropShadow_139_593"/>
<feBlend mode="normal" in="SourceGraphic" in2="effect1_dropShadow_139_593" result="shape"/>
</filter>
<filter id="filter5_d_139_593" x="1392" y="418" width="210" height="210" filterUnits="userSpaceOnUse" color-interpolation-filters="sRGB">
<feFlood flood-opacity="0" result="BackgroundImageFix"/>
<feColorMatrix in="SourceAlpha" type="matrix" values="0 0 0 0 0 0 0 0 0 0 0 0 0 0 0 0 0 0 127 0" result="hardAlpha"/>
<feOffset dy="30"/>
<feGaussianBlur stdDeviation="35"/>
<feComposite in2="hardAlpha" operator="out"/>
<feColorMatrix type="matrix" values="0 0 0 0 0.538889 0 0 0 0 0.808333 0 0 0 0 0.723474 0 0 0 1 0"/>
<feBlend mode="normal" in2="BackgroundImageFix" result="effect1_dropShadow_139_593"/>
<feBlend mode="normal" in="SourceGraphic" in2="effect1_dropShadow_139_593" result="shape"/>
</filter>
<filter id="filter6_d_139_593" x="1181" y="282" width="210" height="210" filterUnits="userSpaceOnUse" color-interpolation-filters="sRGB">
<feFlood flood-opacity="0" result="BackgroundImageFix"/>
<feColorMatrix in="SourceAlpha" type="matrix" values="0 0 0 0 0 0 0 0 0 0 0 0 0 0 0 0 0 0 127 0" result="hardAlpha"/>
<feOffset dy="30"/>
<feGaussianBlur stdDeviation="35"/>
<feComposite in2="hardAlpha" operator="out"/>
<feColorMatrix type="matrix" values="0 0 0 0 1 0 0 0 0 0.870344 0 0 0 0 0.554167 0 0 0 1 0"/>
<feBlend mode="normal" in2="BackgroundImageFix" result="effect1_dropShadow_139_593"/>
<feBlend mode="normal" in="SourceGraphic" in2="effect1_dropShadow_139_593" result="shape"/>
</filter>
<filter id="filter7_d_139_593" x="1239" y="23" width="210" height="210" filterUnits="userSpaceOnUse" color-interpolation-filters="sRGB">
<feFlood flood-opacity="0" result="BackgroundImageFix"/>
<feColorMatrix in="SourceAlpha" type="matrix" values="0 0 0 0 0 0 0 0 0 0 0 0 0 0 0 0 0 0 127 0" result="hardAlpha"/>
<feOffset dy="30"/>
<feGaussianBlur stdDeviation="35"/>
<feComposite in2="hardAlpha" operator="out"/>
<feColorMatrix type="matrix" values="0 0 0 0 0.883333 0 0 0 0 0.800521 0 0 0 0 0.423264 0 0 0 1 0"/>
<feBlend mode="normal" in2="BackgroundImageFix" result="effect1_dropShadow_139_593"/>
<feBlend mode="normal" in="SourceGraphic" in2="effect1_dropShadow_139_593" result="shape"/>
</filter>
<filter id="filter8_d_139_593" x="1483" y="98" width="210" height="210" filterUnits="userSpaceOnUse" color-interpolation-filters="sRGB">
<feFlood flood-opacity="0" result="BackgroundImageFix"/>
<feColorMatrix in="SourceAlpha" type="matrix" values="0 0 0 0 0 0 0 0 0 0 0 0 0 0 0 0 0 0 127 0" result="hardAlpha"/>
<feOffset dy="30"/>
<feGaussianBlur stdDeviation="35"/>
<feComposite in2="hardAlpha" operator="out"/>
<feColorMatrix type="matrix" values="0 0 0 0 0.8 0 0 0 0 0.8 0 0 0 0 0.8 0 0 0 1 0"/>
<feBlend mode="normal" in2="BackgroundImageFix" result="effect1_dropShadow_139_593"/>
<feBlend mode="normal" in="SourceGraphic" in2="effect1_dropShadow_139_593" result="shape"/>
</filter>
<clipPath id="clip0_139_593">
<rect width="60" height="60" fill="white" transform="translate(105 434)"/>
</clipPath>
<clipPath id="clip1_139_593">
<rect width="60" height="60" fill="white" transform="translate(1314 68)"/>
</clipPath>
</defs>
</svg>
