<svg width="70" height="71" viewBox="0 0 70 71" fill="none" xmlns="http://www.w3.org/2000/svg">
<path d="M54.2073 7.94282C40.7614 8.19416 31.395 1.38671 24.9162 1.50945C18.4373 1.6322 4.89422 5.61847 5.45228 35.4883C6.01033 65.358 24.3989 69.3969 31.5273 69.2644C64.9017 68.639 78.0209 7.49666 54.2073 7.94282Z" fill="#F3EFEF"/>
<path d="M14.4517 4.33594L17.2011 1.581L18.5758 2.95847L15.8264 5.71341L14.4517 4.33594Z" fill="#A4AFC1"/>
<path d="M6.54541 12.2563L9.29486 9.50141L10.6696 10.8789L7.92013 13.6338L6.54541 12.2563Z" fill="#A4AFC1"/>
<path d="M6.5459 2.6123L7.92069 1.23491L10.6703 3.9897L9.29548 5.3671L6.5459 2.6123Z" fill="#A4AFC1"/>
<path d="M35 57.7929C47.0812 57.7929 56.875 47.9796 56.875 35.8742C56.875 23.7689 47.0812 13.9556 35 13.9556C22.9188 13.9556 13.125 23.7689 13.125 35.8742C13.125 47.9796 22.9188 57.7929 35 57.7929Z" fill="#F3F3F1"/>
<path d="M35 28.5669C37.4162 28.5669 39.375 26.6044 39.375 24.1836C39.375 21.7628 37.4162 19.8003 35 19.8003C32.5838 19.8003 30.625 21.7628 30.625 24.1836C30.625 26.6044 32.5838 28.5669 35 28.5669Z" fill="#FEB46D"/>
<path d="M35 51.9468C37.4162 51.9468 39.375 49.9843 39.375 47.5635C39.375 45.1426 37.4162 43.1802 35 43.1802C32.5838 43.1802 30.625 45.1426 30.625 47.5635C30.625 49.9843 32.5838 51.9468 35 51.9468Z" fill="#FEB46D"/>
<path d="M37.1389 57.676C36.4389 57.7539 35.7194 57.7929 35 57.7929C22.925 57.7929 13.125 47.9733 13.125 35.8742C13.125 23.7751 22.925 13.9556 35 13.9556C35.7194 13.9556 36.4389 13.9945 37.1389 14.0725C26.1139 15.183 17.5 24.535 17.5 35.8742C17.5 47.2135 26.1139 56.5654 37.1389 57.676Z" fill="#D5DBE1"/>
<path d="M34.9998 59.254C22.1334 59.254 11.6665 48.7661 11.6665 35.874C11.6665 22.982 22.1334 12.4941 34.9998 12.4941C47.8662 12.4941 58.3332 22.982 58.3332 35.874C58.3332 48.7661 47.8662 59.254 34.9998 59.254ZM34.9998 15.4166C23.7415 15.4166 14.5832 24.5932 14.5832 35.874C14.5832 47.1549 23.7415 56.3315 34.9998 56.3315C46.2582 56.3315 55.4165 47.1549 55.4165 35.874C55.4165 24.5932 46.2582 15.4166 34.9998 15.4166Z" fill="black"/>
<path d="M34.9998 30.0293C31.7837 30.0293 29.1665 27.4069 29.1665 24.1843C29.1665 20.9618 31.7837 18.3394 34.9998 18.3394C38.2159 18.3394 40.8332 20.9618 40.8332 24.1843C40.8332 27.4069 38.2159 30.0293 34.9998 30.0293ZM34.9998 21.2618C33.3918 21.2618 32.0832 22.5731 32.0832 24.1843C32.0832 25.7956 33.3918 27.1068 34.9998 27.1068C36.6079 27.1068 37.9165 25.7956 37.9165 24.1843C37.9165 22.5731 36.6079 21.2618 34.9998 21.2618Z" fill="black"/>
<path d="M34.9998 53.4092C31.7837 53.4092 29.1665 50.7867 29.1665 47.5642C29.1665 44.3417 31.7837 41.7192 34.9998 41.7192C38.2159 41.7192 40.8332 44.3417 40.8332 47.5642C40.8332 50.7867 38.2159 53.4092 34.9998 53.4092ZM34.9998 44.6417C33.3918 44.6417 32.0832 45.9529 32.0832 47.5642C32.0832 49.1755 33.3918 50.4867 34.9998 50.4867C36.6079 50.4867 37.9165 49.1755 37.9165 47.5642C37.9165 45.9529 36.6079 44.6417 34.9998 44.6417Z" fill="black"/>
<path d="M35.4649 59.254C28.776 59.254 23.3335 53.6817 23.3335 46.8334C23.3335 40.1526 28.4299 34.6973 34.936 34.4128C39.8788 34.1985 43.7502 30.0252 43.7502 24.9147C43.7502 19.6776 39.6163 15.4166 34.5354 15.4166V12.4941C41.2243 12.4941 46.6668 18.0664 46.6668 24.9147C46.6668 31.5955 41.5704 37.0508 35.0643 37.3353C30.1216 37.5496 26.2502 41.7229 26.2502 46.8334C26.2502 52.0705 30.3841 56.3315 35.4649 56.3315V59.254Z" fill="black"/>
</svg>
