<svg width="70" height="71" viewBox="0 0 70 71" fill="none" xmlns="http://www.w3.org/2000/svg">
<path d="M53.7113 8.19374C40.2615 8.19374 31.0254 1.21289 24.5446 1.21289C18.0638 1.21289 4.45264 4.94588 4.45264 34.8196C4.45264 64.6932 22.7635 69.077 29.8918 69.077C63.2721 69.0789 77.5307 8.19374 53.7113 8.19374Z" fill="#EFEFEF"/>
<path d="M45.9375 12.2524H47.8819V16.1491H45.9375V12.2524Z" fill="#A4AFC1"/>
<path d="M50.3125 18.0972H54.2014V20.0449H50.3125V18.0972Z" fill="#A4AFC1"/>
<path d="M36.4585 53.1673L38.0374 38.1477C38.2454 36.1643 39.9138 34.6582 41.9049 34.6582H51.4307C53.4218 34.6582 55.0902 36.1643 55.2982 38.1477L56.8771 53.1673H36.4585Z" fill="#F3F3F1"/>
<path d="M30.1389 20.045H16.5278C14.6494 20.045 13.125 18.5177 13.125 16.6358C13.125 14.7539 14.6494 13.2266 16.5278 13.2266H30.1389C32.0172 13.2266 33.5417 14.7539 33.5417 16.6358C33.5417 18.5177 32.0172 20.045 30.1389 20.045Z" fill="#F3F3F1"/>
<path d="M30.1389 33.6832H16.5278C14.6494 33.6832 13.125 32.1559 13.125 30.274C13.125 28.3921 14.6494 26.8647 16.5278 26.8647H30.1389C32.0172 26.8647 33.5417 28.3921 33.5417 30.274C33.5417 32.1559 32.0172 33.6832 30.1389 33.6832Z" fill="#F3F3F1"/>
<path d="M53.4724 57.0631H39.8613C37.9829 57.0631 36.4585 55.5358 36.4585 53.6539C36.4585 51.772 37.9829 50.2446 39.8613 50.2446H53.4724C55.3507 50.2446 56.8752 51.772 56.8752 53.6539C56.8752 55.5358 55.3507 57.0631 53.4724 57.0631Z" fill="#FEB46D"/>
<path d="M30.1389 26.8639H16.5278C14.6494 26.8639 13.125 25.3365 13.125 23.4546C13.125 21.5727 14.6494 20.0454 16.5278 20.0454H30.1389C32.0172 20.0454 33.5417 21.5727 33.5417 23.4546C33.5417 25.3365 32.0172 26.8639 30.1389 26.8639Z" fill="#FEB46D"/>
<path d="M40.8335 53.6539C40.8335 51.772 42.3579 50.2446 44.2363 50.2446H39.8613C37.9829 50.2446 36.4585 51.772 36.4585 53.6539C36.4585 55.5358 37.9829 57.0631 39.8613 57.0631H44.2363C42.3579 57.0631 40.8335 55.5358 40.8335 53.6539Z" fill="#FF7F2E"/>
<path d="M17.5 23.4546C17.5 21.5727 19.0244 20.0454 20.9028 20.0454H16.5278C14.6494 20.0454 13.125 21.5727 13.125 23.4546C13.125 25.3365 14.6494 26.8639 16.5278 26.8639H20.9028C19.0244 26.8639 17.5 25.3365 17.5 23.4546Z" fill="#FF7F2E"/>
<path d="M17.5 16.6358C17.5 14.7539 19.0244 13.2266 20.9028 13.2266H16.5278C14.6494 13.2266 13.125 14.7539 13.125 16.6358C13.125 18.5177 14.6494 20.045 16.5278 20.045H20.9028C19.0244 20.045 17.5 18.5177 17.5 16.6358Z" fill="#D5DBE1"/>
<path d="M17.5 30.274C17.5 28.3921 19.0244 26.8647 20.9028 26.8647H16.5278C14.6494 26.8647 13.125 28.3921 13.125 30.274C13.125 32.1559 14.6494 33.6832 16.5278 33.6832H20.9028C19.0244 33.6832 17.5 32.1559 17.5 30.274Z" fill="#D5DBE1"/>
<path d="M39.8613 50.2448H41.1407L42.4124 38.1477C42.6204 36.1643 44.2888 34.6582 46.2799 34.6582H41.9049C39.9138 34.6582 38.2454 36.1643 38.0374 38.1477L36.4585 53.1673H36.5071C36.7443 51.5171 38.1482 50.2448 39.8613 50.2448Z" fill="#D5DBE1"/>
<path d="M53.4722 58.5239H39.8611C37.1797 58.5239 35 56.3381 35 53.6535C35 50.969 37.1797 48.7832 39.8611 48.7832H53.4722C56.1536 48.7832 58.3333 50.969 58.3333 53.6535C58.3333 56.3381 56.1536 58.5239 53.4722 58.5239ZM39.8611 51.7054C38.7878 51.7054 37.9167 52.5801 37.9167 53.6535C37.9167 54.727 38.7878 55.6017 39.8611 55.6017H53.4722C54.5455 55.6017 55.4167 54.727 55.4167 53.6535C55.4167 52.5801 54.5455 51.7054 53.4722 51.7054H39.8611Z" fill="black"/>
<path d="M55.4245 53.321L53.8456 38.3014C53.7153 37.0584 52.675 36.1212 51.4286 36.1212H41.9048C40.6564 36.1212 39.6181 37.0584 39.4878 38.3014L37.9089 53.321L35.0078 53.0151L36.5867 37.9955C36.8745 35.2581 39.1611 33.1968 41.9048 33.1968H51.4286C54.1722 33.1968 56.4589 35.2581 56.7467 37.9936L58.3256 53.0132L55.4245 53.321Z" fill="black"/>
<path d="M41.8057 50.2446H44.7223V57.0631H41.8057V50.2446Z" fill="black"/>
<path d="M30.1387 28.3251H16.5276C13.8462 28.3251 11.6665 26.1393 11.6665 23.4548C11.6665 20.7703 13.8462 18.5845 16.5276 18.5845H30.1387C32.8201 18.5845 34.9998 20.7703 34.9998 23.4548C34.9998 26.1393 32.8201 28.3251 30.1387 28.3251ZM16.5276 21.5067C15.4543 21.5067 14.5832 22.3814 14.5832 23.4548C14.5832 24.5282 15.4543 25.4029 16.5276 25.4029H30.1387C31.2121 25.4029 32.0832 24.5282 32.0832 23.4548C32.0832 22.3814 31.2121 21.5067 30.1387 21.5067H16.5276Z" fill="black"/>
<path d="M30.1387 21.5058H16.5276C13.8462 21.5058 11.6665 19.32 11.6665 16.6355C11.6665 13.9509 13.8462 11.7651 16.5276 11.7651H30.1387C32.8201 11.7651 34.9998 13.9509 34.9998 16.6355C34.9998 19.32 32.8201 21.5058 30.1387 21.5058ZM16.5276 14.6873C15.4543 14.6873 14.5832 15.562 14.5832 16.6355C14.5832 17.7089 15.4543 18.5836 16.5276 18.5836H30.1387C31.2121 18.5836 32.0832 17.7089 32.0832 16.6355C32.0832 15.562 31.2121 14.6873 30.1387 14.6873H16.5276Z" fill="black"/>
<path d="M30.1387 35.144H16.5276C13.8462 35.144 11.6665 32.9582 11.6665 30.2736C11.6665 27.5891 13.8462 25.4033 16.5276 25.4033H30.1387C32.8201 25.4033 34.9998 27.5891 34.9998 30.2736C34.9998 32.9582 32.8201 35.144 30.1387 35.144ZM16.5276 28.3255C15.4543 28.3255 14.5832 29.2002 14.5832 30.2736C14.5832 31.3471 15.4543 32.2218 16.5276 32.2218H30.1387C31.2121 32.2218 32.0832 31.3471 32.0832 30.2736C32.0832 29.2002 31.2121 28.3255 30.1387 28.3255H16.5276Z" fill="black"/>
<path d="M18.4722 13.2266H21.3888V33.684H18.4722V13.2266Z" fill="black"/>
<path d="M26.7362 46.9535L24.3056 44.5183L21.8751 46.9535L19.812 44.8865L23.2731 41.4188C23.8428 40.848 24.7665 40.848 25.3362 41.4188L28.7973 44.8865L26.7362 46.9535Z" fill="black"/>
<path d="M31.1111 50.7309H27.2222C24.8111 50.7309 22.8472 48.7653 22.8472 46.3476V41.9624H25.7638V46.3476C25.7638 47.1542 26.4191 47.8087 27.2222 47.8087H31.1111V50.7309Z" fill="black"/>
</svg>
