<svg width="70" height="71" viewBox="0 0 70 71" fill="none" xmlns="http://www.w3.org/2000/svg">
<path d="M53.3108 8.23469C39.865 8.48553 30.4986 1.69164 24.0197 1.81414C17.5408 1.93664 3.99969 5.91497 4.55775 35.7252C5.11581 65.5355 23.5044 69.5664 30.6327 69.4341C64.0052 68.81 77.1264 7.78941 53.3108 8.23469Z" fill="#EFEFEF"/>
<path d="M13.0659 18.9307L15.8158 16.1808L17.1907 17.5557L14.4408 20.3056L13.0659 18.9307Z" fill="#A4AFC1"/>
<path d="M5.16113 26.834L7.91099 24.0841L9.28592 25.4591L6.53606 28.2089L5.16113 26.834Z" fill="#A4AFC1"/>
<path d="M5.16553 17.2036L6.54046 15.8287L9.29032 18.5785L7.91539 19.9535L5.16553 17.2036Z" fill="#A4AFC1"/>
<path d="M51.1857 63.2992C49.5777 63.2992 48.269 61.9905 48.269 60.3825C48.269 58.7744 49.5777 57.4658 51.1857 57.4658C52.7938 57.4658 54.1024 58.7744 54.1024 60.3825C54.1024 61.9905 52.7938 63.2992 51.1857 63.2992ZM51.1857 59.4103C50.649 59.4103 50.2135 59.8478 50.2135 60.3825C50.2135 60.9172 50.649 61.3547 51.1857 61.3547C51.7224 61.3547 52.1579 60.9172 52.1579 60.3825C52.1579 59.8478 51.7224 59.4103 51.1857 59.4103Z" fill="#A4AFC1"/>
<path d="M41.3974 36.1488L35.8363 30.5877L32.0213 26.7766L30.9577 25.713C29.9135 24.6689 28.3269 24.3325 26.9463 24.8925L17.9863 28.6063V40.308H18.9586C21.4085 40.308 23.7691 41.22 25.5833 42.865L29.8902 46.7733C30.9033 47.7572 32.5191 47.7455 33.5185 46.748L33.5438 46.7227C34.5491 45.7175 34.551 44.088 33.5497 43.0788L34.0066 43.5358C35.0158 44.545 36.651 44.545 37.6602 43.5358C38.6694 42.5266 38.6694 40.8913 37.6602 39.8822L35.7585 37.9805H35.7605L37.666 39.8861C38.6772 40.8972 40.3105 40.8972 41.3216 39.8861L41.3994 39.8083C42.3891 38.7933 42.3891 37.16 41.3974 36.1488Z" fill="#FEB46D"/>
<path d="M52.0138 27.9668L41.4671 23.6541C40.4774 23.2418 39.3574 23.2807 38.4008 23.761L31.9724 26.9791C30.4596 27.7374 30.133 29.7538 31.3288 30.9496C32.0852 31.706 33.2421 31.8927 34.1988 31.4104L39.9096 28.5327L36.9249 31.6768L41.3971 36.1491V39.8046L45.706 40.9382L48.5196 40.3063L52.0138 37.9729V27.9668Z" fill="#F3F3F1"/>
<path d="M52.0137 25.4155H56.8748V41.9433H52.0137V25.4155Z" fill="#F3F3F1"/>
<path d="M13.125 25.4155H17.9861V41.9433H13.125V25.4155Z" fill="#FEB46D"/>
<path d="M37.4385 43.0771C37.5551 43.1938 37.6115 43.3416 37.701 43.4738C37.7243 43.4485 37.7321 43.4174 37.7554 43.3921L37.4385 43.0771Z" fill="#FF7F2E"/>
<path d="M29.4722 42.8651C27.658 41.2182 25.2974 40.3082 22.8474 40.3082H21.8752V28.6065L30.2033 25.1551C29.2272 24.5834 28.0274 24.4551 26.9463 24.8926L17.9863 28.6065V40.3082H18.9586C21.4086 40.3082 23.7691 41.2201 25.5833 42.8651L29.8902 46.7735C30.9033 47.7573 32.5191 47.7457 33.5186 46.7482L33.5438 46.7229C33.573 46.6937 33.5827 46.6529 33.6119 46.6218L29.4722 42.8651Z" fill="#FF7F2E"/>
<path d="M39.6475 37.9766H39.6455L41.4266 39.7577H41.4286L39.6475 37.9766Z" fill="#FF7F2E"/>
<path d="M41.4671 23.6541C40.4774 23.2418 39.3574 23.2807 38.4007 23.761L38.1479 23.8874L48.1249 27.9688V37.9749L44.6307 40.3082L43.9171 40.4677L45.708 40.9382L48.5216 40.3063L52.0157 37.9729V27.9668L41.4671 23.6541Z" fill="#D5DBE1"/>
<path d="M39.4588 42.0832C38.4283 42.0832 37.4094 41.6905 36.6316 40.9127L34.7261 39.0071L36.7891 36.9441L38.6947 38.8496C39.1341 39.2871 39.8497 39.2871 40.2872 38.8496C40.7908 38.3363 40.7908 37.611 40.3552 37.1657L34.8058 31.6182L36.8689 29.5552L42.43 35.1143C43.9797 36.6952 43.9797 39.2521 42.4397 40.8232C41.5958 41.6671 40.5205 42.0832 39.4588 42.0832Z" fill="black"/>
<path d="M17.4312 27.2671L21.1727 25.7162L22.2888 28.4088L18.5472 29.9597L17.4312 27.2671Z" fill="black"/>
<path d="M30.9907 27.8073L29.927 26.7437C29.2834 26.0981 28.3287 25.9017 27.4926 26.242L25.2001 27.1909L24.084 24.4979L26.3882 23.5431C28.319 22.7595 30.5181 23.2067 31.9901 24.6806L33.0518 25.7442L30.9907 27.8073Z" fill="black"/>
<path d="M33.0807 33.1371C32.0618 33.1371 31.0546 32.7385 30.2963 31.9801C29.3902 31.074 28.9896 29.8315 29.1938 28.5657C29.398 27.3018 30.1718 26.2479 31.3171 25.6743L37.7455 22.4562C39.0871 21.7873 40.6485 21.7329 42.0271 22.3085L52.5641 26.6193L51.4596 29.3201L40.913 25.0054C40.3063 24.7507 39.6277 24.7779 39.0502 25.0657L32.6238 28.2837C32.3263 28.4315 32.126 28.7057 32.0716 29.0343C32.0191 29.361 32.1221 29.6837 32.3574 29.919C32.6705 30.2321 33.1468 30.306 33.5396 30.1096L39.2524 27.2337L40.5649 29.8393L34.8541 32.7151C34.2902 32.9971 33.6835 33.1371 33.0807 33.1371Z" fill="black"/>
<path d="M35.8321 45.7488C34.753 45.7488 33.738 45.3268 32.9738 44.5646L30.6016 42.1924L32.6646 40.1293L35.0368 42.5016C35.4627 42.9274 36.2035 42.9274 36.6274 42.5016C36.8413 42.2896 36.958 42.0057 36.958 41.7063C36.958 41.4068 36.8413 41.1229 36.6274 40.911L34.7238 39.0074L36.7868 36.9443L38.6924 38.8479C39.4566 39.6141 39.8766 40.6271 39.8766 41.7063C39.8766 42.7874 39.4566 43.8004 38.6924 44.5646C37.9282 45.3268 36.9132 45.7488 35.8321 45.7488C35.8341 45.7488 35.8341 45.7488 35.8321 45.7488Z" fill="black"/>
<path d="M31.6811 48.9515C30.6641 48.9515 29.6511 48.5743 28.8733 47.8159L24.6052 43.9445C23.0555 42.5387 21.0488 41.7648 18.9605 41.7648H17.9883V38.8481H18.9605C21.7761 38.8481 24.4769 39.8904 26.5652 41.7843L30.8702 45.6926C31.3466 46.1554 32.0563 46.1515 32.488 45.7179C32.7272 45.4787 32.8438 45.1948 32.8438 44.8954C32.8438 44.5959 32.7272 44.312 32.5152 44.1001L30.6097 42.1945L32.6727 40.1315L34.5783 42.037C35.3424 42.8012 35.7624 43.8143 35.7624 44.8954C35.7624 45.9765 35.3424 46.9895 34.5783 47.7537C33.7733 48.5529 32.7252 48.9515 31.6811 48.9515Z" fill="black"/>
<path d="M46.4313 42.3928C45.879 42.3928 45.3249 42.3014 44.7902 42.1186L41.3154 40.9305L42.2585 38.1694L45.7332 39.3575C46.4857 39.618 47.3238 39.4508 47.9207 38.9278L50.9599 35.7642L53.0599 37.7883L49.9293 41.0375C48.9163 41.9339 47.6757 42.3928 46.4313 42.3928Z" fill="black"/>
<path d="M56.8751 43.402H52.014C51.209 43.402 50.5557 42.7486 50.5557 41.9436V25.4159C50.5557 24.6109 51.209 23.9575 52.014 23.9575H56.8751C57.6801 23.9575 58.3334 24.6109 58.3334 25.4159V41.9436C58.3334 42.7486 57.6801 43.402 56.8751 43.402ZM53.4723 40.4853H55.4168V26.8742H53.4723V40.4853Z" fill="black"/>
<path d="M17.9859 43.402H13.1248C12.3198 43.402 11.6665 42.7486 11.6665 41.9436V25.4159C11.6665 24.6109 12.3198 23.9575 13.1248 23.9575H17.9859C18.7909 23.9575 19.4443 24.6109 19.4443 25.4159V41.9436C19.4443 42.7486 18.7909 43.402 17.9859 43.402ZM14.5832 40.4853H16.5276V26.8742H14.5832V40.4853Z" fill="black"/>
</svg>
