<svg width="70" height="70" viewBox="0 0 70 70" fill="none" xmlns="http://www.w3.org/2000/svg">
<g clip-path="url(#clip0_1524_4980)">
<path d="M53.3108 7.61055C39.865 7.86138 30.4986 1.06749 24.0197 1.18999C17.5408 1.31249 3.99969 5.29082 4.55775 35.1011C5.11581 64.9114 23.5044 68.9422 30.6327 68.81C64.0052 68.1858 77.1264 7.16527 53.3108 7.61055V7.61055Z" fill="#EFEFEF"/>
<path d="M59.7819 16.0416C58.1738 16.0416 56.8652 14.733 56.8652 13.125C56.8652 11.5169 58.1738 10.2083 59.7819 10.2083C61.39 10.2083 62.6986 11.5169 62.6986 13.125C62.6986 14.733 61.39 16.0416 59.7819 16.0416V16.0416ZM59.7819 12.1528C59.2452 12.1528 58.8097 12.5883 58.8097 13.125C58.8097 13.6616 59.2452 14.0972 59.7819 14.0972C60.3186 14.0972 60.7541 13.6616 60.7541 13.125C60.7541 12.5883 60.3186 12.1528 59.7819 12.1528Z" fill="#A4AFC1"/>
<path d="M6.80566 35.8944H8.75011V39.7833H6.80566V35.8944Z" fill="#A4AFC1"/>
<path d="M6.80566 47.075H8.75011V50.9639H6.80566V47.075Z" fill="#A4AFC1"/>
<path d="M0 42.2139H3.88889V44.1583H0V42.2139Z" fill="#A4AFC1"/>
<path d="M11.1807 42.2139H15.0696V44.1583H11.1807V42.2139Z" fill="#A4AFC1"/>
<path d="M30.8971 50.9639C25.5693 45.4806 21.5443 30.1972 20.8443 17.1306L20.7471 15.1278C20.7082 14.6028 20.9026 14.0972 21.2721 13.7083C21.6221 13.3389 22.1276 13.125 22.6332 13.125H47.3665C47.8721 13.125 48.3776 13.3389 48.7276 13.7083C49.0971 14.0972 49.2915 14.6028 49.2526 15.1278L49.1554 17.1306C48.4554 30.1972 44.4304 45.4806 39.1026 50.9639H30.8971Z" fill="#FEB46D"/>
<path d="M38.2764 41.3389C41.1619 36.6722 43.1375 27.265 43.1375 18.9778L38.2764 41.3389Z" fill="#FEB46D"/>
<path d="M26.7354 56.875C26.7354 53.1163 30.4356 50.0694 34.9992 50.0694C39.5629 50.0694 43.2631 53.1163 43.2631 56.875H26.7354Z" fill="#F3F3F1"/>
<path d="M24.636 15.1278C24.5971 14.6028 24.7915 14.0972 25.161 13.7083C25.511 13.3389 26.0165 13.125 26.5221 13.125H22.6332C22.1276 13.125 21.6221 13.3389 21.2721 13.7083C20.9026 14.0972 20.7082 14.6028 20.7471 15.1278L20.8443 17.1306C21.5443 30.1972 25.5693 45.4806 30.8971 50.9639H34.786C29.4582 45.4806 25.4332 30.1972 24.7332 17.1306L24.636 15.1278Z" fill="#FF7F2E"/>
<path d="M36.9437 50.2794C36.3176 50.155 35.672 50.0694 34.9992 50.0694C30.4356 50.0694 26.7354 53.1163 26.7354 56.875H30.6242C30.6242 53.6705 33.3231 51.0027 36.9437 50.2794Z" fill="#D5DBE1"/>
<path d="M29.8513 51.9789C23.9382 45.8947 20.0474 29.5245 19.3882 17.2084L19.291 15.1978C19.223 14.3014 19.5516 13.4031 20.2146 12.7031C20.8388 12.0439 21.7216 11.6667 22.6335 11.6667H25.698V14.5834H22.6335C22.5246 14.5834 22.4021 14.6339 22.3302 14.7117C22.266 14.7797 22.1921 14.8867 22.2019 15.0189L22.301 17.0586C23.0302 30.6853 27.2671 45.1345 31.9435 49.947L29.8513 51.9789Z" fill="black"/>
<path d="M40.1489 51.9789L38.0566 49.947C41.3564 46.55 44.5316 38.29 46.3439 28.3889L47.2986 21.8984C47.4775 20.2845 47.6155 18.6375 47.6991 17.0528L47.7964 15.0559C47.808 14.8867 47.7341 14.7778 47.67 14.7117C47.5961 14.6339 47.4755 14.5834 47.3666 14.5834H32.3672V11.6667H47.3666C48.2786 11.6667 49.1614 12.0439 49.7855 12.705C50.4486 13.4031 50.7772 14.3034 50.7072 15.2367L50.6119 17.2025C50.5244 18.8514 50.3825 20.5547 50.1919 22.2736L49.2216 28.8653C47.2733 39.5111 43.8841 48.1347 40.1489 51.9789Z" fill="black"/>
<path d="M39.5153 42.105L37.0361 40.5708C39.7253 36.2231 41.6795 27.1406 41.6795 18.9778H44.5961C44.5961 27.7608 42.5059 37.2711 39.5153 42.105V42.105Z" fill="black"/>
<path d="M43.2635 58.3333H26.7357C25.9307 58.3333 25.2773 57.68 25.2773 56.875C25.2773 52.3191 29.6387 48.6111 34.9996 48.6111C40.3604 48.6111 44.7218 52.3191 44.7218 56.875C44.7218 57.68 44.0685 58.3333 43.2635 58.3333ZM28.4507 55.4166H41.5465C40.7357 53.1747 38.1068 51.5278 34.9976 51.5278C31.8885 51.5278 29.2615 53.1747 28.4507 55.4166V55.4166Z" fill="black"/>
<path d="M46.1257 39.6336L44.7607 37.0572C50.3471 34.0958 54.1096 29.2658 55.3541 23.4558C55.5232 22.6683 55.3444 21.875 54.8582 21.2742C54.413 20.72 53.7771 20.4167 53.0713 20.4167H49.0385V17.5H53.0713C54.6521 17.5 56.1319 18.2078 57.1294 19.4425C58.1696 20.7317 58.5624 22.4175 58.2066 24.0683C56.7774 30.7339 52.488 36.2619 46.1257 39.6336Z" fill="black"/>
<path d="M23.8741 40.1197C17.5119 36.748 13.2205 31.22 11.7933 24.5544C11.4374 22.9055 11.8302 21.2197 12.8705 19.9305C13.868 18.6939 15.3477 17.9861 16.9305 17.9861H20.9633V20.9028H16.9305C16.2247 20.9028 15.5888 21.208 15.1436 21.7603C14.6574 22.3611 14.4786 23.1544 14.6477 23.94C15.8941 29.7519 19.6566 34.5819 25.243 37.5433L23.8741 40.1197Z" fill="black"/>
<path d="M3.88965 56.2139H66.1119V58.3333H3.88965V56.2139Z" fill="black"/>
</g>
<defs>
<clipPath id="clip0_1524_4980">
<rect width="70" height="70" fill="white"/>
</clipPath>
</defs>
</svg>
