<svg width="70" height="70" viewBox="0 0 70 70" fill="none" xmlns="http://www.w3.org/2000/svg">
<path d="M53.7117 61.8975C40.262 61.8975 31.0259 68.8644 24.5451 68.8644C18.0642 68.8644 4.45312 65.1389 4.45312 35.3247C4.45312 5.51055 22.764 1.13361 29.8923 1.13361C63.2726 1.13361 77.5312 61.8975 53.7117 61.8975Z" fill="#EFEFEF"/>
<path d="M55.4167 11.6666C53.8086 11.6666 52.5 10.358 52.5 8.74998C52.5 7.14192 53.8086 5.83331 55.4167 5.83331C57.0247 5.83331 58.3333 7.14192 58.3333 8.74998C58.3333 10.358 57.0247 11.6666 55.4167 11.6666ZM55.4167 7.77776C54.88 7.77776 54.4444 8.21331 54.4444 8.74998C54.4444 9.28665 54.88 9.7222 55.4167 9.7222C55.9533 9.7222 56.3889 9.28665 56.3889 8.74998C56.3889 8.21331 55.9533 7.77776 55.4167 7.77776Z" fill="#A4AFC1"/>
<path d="M41.3194 49.0972H13.125V42.2916C13.125 39.0697 15.7364 36.4583 18.9583 36.4583H35.4861C38.7081 36.4583 41.3194 39.0697 41.3194 42.2916V49.0972Z" fill="#F3F3F1"/>
<path d="M27.2223 29.6528C31.2494 29.6528 34.514 26.3882 34.514 22.3611C34.514 18.334 31.2494 15.0695 27.2223 15.0695C23.1953 15.0695 19.9307 18.334 19.9307 22.3611C19.9307 26.3882 23.1953 29.6528 27.2223 29.6528Z" fill="#F3F3F1"/>
<path d="M34.4946 21.9722C31.1891 22.4778 29.1669 18.9583 29.1669 18.9583C25.7446 22.1472 21.4085 22.0695 19.9502 21.9333C20.1641 18.1028 23.3335 15.0695 27.2224 15.0695C31.1113 15.0695 34.3002 18.1222 34.4946 21.9722Z" fill="#FEB46D"/>
<path d="M51.0415 36.4583C48.6498 36.4583 46.5887 37.8914 45.6942 39.9447C44.7998 37.8914 42.7387 36.4583 40.347 36.4583C37.1289 36.4583 34.5137 39.0639 34.5137 42.2683C34.5137 48.5625 45.6942 56.875 45.6942 56.875C45.6942 56.875 56.8748 48.5625 56.8748 42.2683C56.8748 39.0639 54.2595 36.4583 51.0415 36.4583Z" fill="#FEB46D"/>
<path d="M38.8887 42.2683C38.8887 39.8378 40.3956 37.7591 42.5267 36.8919C41.852 36.6197 41.1209 36.4583 40.347 36.4583C37.1289 36.4583 34.5137 39.0639 34.5137 42.2683C34.5137 48.5625 45.6942 56.875 45.6942 56.875C45.6942 56.875 46.6003 56.1964 47.8817 55.1016C44.6287 52.323 38.8887 46.7853 38.8887 42.2683Z" fill="#FF7F2E"/>
<path d="M23.3333 36.4583H18.9583C15.7364 36.4583 13.125 39.0697 13.125 42.2916V49.0972H17.5V42.2916C17.5 39.0697 20.1114 36.4583 23.3333 36.4583Z" fill="#D5DBE1"/>
<path d="M24.3057 22.3611C24.3057 19.1022 26.4582 16.3742 29.4098 15.4408C28.7157 15.2211 27.9904 15.0695 27.2223 15.0695C23.1954 15.0695 19.9307 18.3342 19.9307 22.3611C19.9307 26.3881 23.1954 29.6528 27.2223 29.6528C27.9904 29.6528 28.7157 29.5011 29.4098 29.2814C26.4582 28.3481 24.3057 25.62 24.3057 22.3611Z" fill="#D5DBE1"/>
<path d="M29.406 15.437C28.7138 15.2172 27.9885 15.0695 27.2224 15.0695C23.3335 15.0695 20.1641 18.1028 19.9502 21.9333C20.7571 22.0092 22.4566 22.0442 24.3855 21.5386C24.7083 18.6453 26.7091 16.2906 29.406 15.437Z" fill="#FF7F2E"/>
<path d="M31.1114 50.5556H13.1253C12.3203 50.5556 11.667 49.9022 11.667 49.0972V42.2917C11.667 38.2706 14.9375 35 18.9587 35H31.1114V37.9167H18.9587C16.5456 37.9167 14.5837 39.8786 14.5837 42.2917V47.6389H31.1114V50.5556Z" fill="black"/>
<path d="M33.829 23.4811C31.5715 23.4811 29.8993 22.1317 28.9154 21.0408C25.2463 23.6425 21.0949 23.5045 19.8135 23.3858L20.0857 20.4828C21.2174 20.5897 25.1451 20.7161 28.1726 17.8928C28.4974 17.5895 28.9368 17.4514 29.384 17.5175C29.8235 17.5836 30.2085 17.8461 30.4321 18.2331C30.4438 18.2525 32.011 20.86 34.2763 20.5314L34.7176 23.4131C34.4104 23.4597 34.1149 23.4811 33.829 23.4811Z" fill="black"/>
<path d="M27.2227 31.1111C22.3985 31.1111 18.4727 27.1853 18.4727 22.3611C18.4727 17.5369 22.3985 13.6111 27.2227 13.6111C32.0468 13.6111 35.9727 17.5369 35.9727 22.3611C35.9727 27.1853 32.0468 31.1111 27.2227 31.1111ZM27.2227 16.5278C24.0065 16.5278 21.3893 19.145 21.3893 22.3611C21.3893 25.5772 24.0065 28.1944 27.2227 28.1944C30.4388 28.1944 33.056 25.5772 33.056 22.3611C33.056 19.145 30.4388 16.5278 27.2227 16.5278Z" fill="black"/>
<path d="M45.6946 58.3333C45.3893 58.3333 45.084 58.2381 44.8254 58.0456C43.6198 57.1492 33.0557 49.0972 33.0557 42.2683C33.0557 38.2608 36.3262 35 40.3473 35C42.4143 35 44.3412 35.8672 45.6946 37.3217C47.0479 35.8672 48.9748 35 51.0418 35C55.0629 35 58.3334 38.2608 58.3334 42.2683C58.3334 49.0972 47.7693 57.1492 46.5637 58.0456C46.3051 58.2381 45.9998 58.3333 45.6946 58.3333ZM40.3473 37.9167C37.9343 37.9167 35.9723 39.8689 35.9723 42.2683C35.9723 46.4256 42.3423 52.36 45.6946 55.0317C49.0468 52.36 55.4168 46.4256 55.4168 42.2683C55.4168 39.8689 53.4548 37.9167 51.0418 37.9167C49.2976 37.9167 47.7226 38.9414 47.0323 40.5261C46.5696 41.5917 44.8215 41.5917 44.3587 40.5261C43.6665 38.9414 42.0915 37.9167 40.3473 37.9167Z" fill="black"/>
</svg>
