<svg width="66" height="66" viewBox="0 0 66 66" fill="none" xmlns="http://www.w3.org/2000/svg">
<path d="M15.3577 58.3605C28.0388 58.3605 36.7472 64.9293 42.8577 64.9293C48.9682 64.9293 61.8015 61.4167 61.8015 33.3062C61.8015 5.19568 44.537 1.06885 37.816 1.06885C6.34317 1.06885 -7.10067 58.3605 15.3577 58.3605Z" fill="#EFEFEF"/>
<path d="M29.7188 7.41461L32.3115 4.82189L33.6078 6.11825L31.0151 8.71097L29.7188 7.41461Z" fill="#A4AFC1"/>
<path d="M22.2646 14.8664L24.8574 12.2737L26.1537 13.57L23.561 16.1628L22.2646 14.8664Z" fill="#A4AFC1"/>
<path d="M22.2646 5.79492L23.561 4.49856L26.1537 7.09128L24.8574 8.38765L22.2646 5.79492Z" fill="#A4AFC1"/>
<path d="M6.03125 35.1505C4.51508 35.1505 3.28125 33.9167 3.28125 32.4005C3.28125 30.8843 4.51508 29.6505 6.03125 29.6505C7.54742 29.6505 8.78125 30.8843 8.78125 32.4005C8.78125 33.9167 7.54742 35.1505 6.03125 35.1505ZM6.03125 31.4838C5.52525 31.4838 5.11458 31.8963 5.11458 32.4005C5.11458 32.9047 5.52525 33.3172 6.03125 33.3172C6.53725 33.3172 6.94792 32.9047 6.94792 32.4005C6.94792 31.8963 6.53725 31.4838 6.03125 31.4838Z" fill="#A4AFC1"/>
<path d="M42.1667 44.4583C43.4323 44.4583 44.4583 43.4323 44.4583 42.1667C44.4583 40.901 43.4323 39.875 42.1667 39.875C40.901 39.875 39.875 40.901 39.875 42.1667C39.875 43.4323 40.901 44.4583 42.1667 44.4583Z" fill="#FEB46D"/>
<path d="M36.208 53.625V52.7083C36.208 50.6825 37.8488 49.0416 39.8747 49.0416H44.458C46.4838 49.0416 48.1247 50.6825 48.1247 52.7083V53.625H36.208Z" fill="#F3F3F1"/>
<path d="M21.083 41.7083C23.3612 41.7083 25.208 39.8615 25.208 37.5833C25.208 35.3051 23.3612 33.4583 21.083 33.4583C18.8048 33.4583 16.958 35.3051 16.958 37.5833C16.958 39.8615 18.8048 41.7083 21.083 41.7083Z" fill="#FEB46D"/>
<path d="M12.375 53.625V50.875C12.375 48.8491 14.0158 47.2083 16.0417 47.2083H26.125C28.1508 47.2083 29.7917 48.8491 29.7917 50.875V53.625H12.375Z" fill="#FEB46D"/>
<path d="M30.708 12.375H53.6247V27.9583H30.708L36.6663 20.1667L30.708 12.375Z" fill="#FEB46D"/>
<path d="M19.7083 47.2083H16.0417C14.0158 47.2083 12.375 48.8491 12.375 50.875V53.625H16.0417V50.875C16.0417 48.8491 17.6825 47.2083 19.7083 47.2083Z" fill="#FF7F2E"/>
<path d="M20.6247 37.5833C20.6247 35.9663 21.5633 34.5821 22.9163 33.9056C22.3627 33.6288 21.7448 33.4583 21.083 33.4583C18.8042 33.4583 16.958 35.3045 16.958 37.5833C16.958 39.8621 18.8042 41.7083 21.083 41.7083C21.7448 41.7083 22.3627 41.5378 22.9163 41.261C21.5633 40.5845 20.6247 39.1985 20.6247 37.5833Z" fill="#FF7F2E"/>
<path d="M43.5413 49.0416H39.8747C37.8488 49.0416 36.208 50.6825 36.208 52.7083V53.625H39.8747V52.7083C39.8747 50.6825 41.5155 49.0416 43.5413 49.0416Z" fill="#D5DBE1"/>
<path d="M34.3747 12.375H30.708L36.6663 20.1667L30.708 27.9583H34.3747L40.333 20.1667L34.3747 12.375Z" fill="#FF7F2E"/>
<path d="M42.1667 44.4583C43.4323 44.4583 44.4583 43.4323 44.4583 42.1667C44.4583 40.901 43.4323 39.875 42.1667 39.875C40.901 39.875 39.875 40.901 39.875 42.1667C39.875 43.4323 40.901 44.4583 42.1667 44.4583Z" fill="#F3F3F1"/>
<path d="M42.1667 45.8333C40.1445 45.8333 38.5 44.1888 38.5 42.1667C38.5 40.1445 40.1445 38.5 42.1667 38.5C44.1888 38.5 45.8333 40.1445 45.8333 42.1667C45.8333 44.1888 44.1888 45.8333 42.1667 45.8333ZM42.1667 41.25C41.6607 41.25 41.25 41.6625 41.25 42.1667C41.25 42.6708 41.6607 43.0833 42.1667 43.0833C42.6727 43.0833 43.0833 42.6708 43.0833 42.1667C43.0833 41.6625 42.6727 41.25 42.1667 41.25Z" fill="black"/>
<path d="M49.4997 53.625H46.7497V52.7084C46.7497 51.4452 45.7212 50.4167 44.458 50.4167H39.8747C38.6115 50.4167 37.583 51.4452 37.583 52.7084V53.625H34.833V52.7084C34.833 49.9272 37.0935 47.6667 39.8747 47.6667H44.458C47.2392 47.6667 49.4997 49.9272 49.4997 52.7084V53.625Z" fill="black"/>
<path d="M21.083 43.0833C18.0507 43.0833 15.583 40.6156 15.583 37.5833C15.583 34.551 18.0507 32.0833 21.083 32.0833C24.1153 32.0833 26.583 34.551 26.583 37.5833C26.583 40.6156 24.1153 43.0833 21.083 43.0833ZM21.083 34.8333C19.5668 34.8333 18.333 36.0671 18.333 37.5833C18.333 39.0995 19.5668 40.3333 21.083 40.3333C22.5992 40.3333 23.833 39.0995 23.833 37.5833C23.833 36.0671 22.5992 34.8333 21.083 34.8333Z" fill="black"/>
<path d="M31.1667 53.625H28.4167V50.875C28.4167 49.6118 27.3882 48.5833 26.125 48.5833H16.0417C14.7785 48.5833 13.75 49.6118 13.75 50.875V53.625H11V50.875C11 48.0938 13.2605 45.8333 16.0417 45.8333H26.125C28.9062 45.8333 31.1667 48.0938 31.1667 50.875V53.625Z" fill="black"/>
<path d="M52.25 12.375H55V53.625H52.25V12.375Z" fill="black"/>
<path d="M53.6247 29.3333H30.7081C30.1856 29.3333 29.7071 29.0363 29.4761 28.567C29.2451 28.0977 29.2982 27.5385 29.6172 27.1223L34.9357 20.1667L29.6172 13.211C29.3001 12.793 29.2451 12.2357 29.4761 11.7663C29.7071 11.297 30.1856 11 30.7081 11H43.7779V13.75H33.4892L37.7572 19.3307C38.1349 19.8257 38.1349 20.5095 37.7572 21.0027L33.4911 26.5833H52.2497V13.75H48.0257V11H53.6247C54.3837 11 54.9997 11.616 54.9997 12.375V27.9583C54.9997 28.7173 54.3837 29.3333 53.6247 29.3333Z" fill="black"/>
</svg>
