<svg width="180" height="208" viewBox="0 0 180 208" fill="none" xmlns="http://www.w3.org/2000/svg">
<g id="Frame 90">
<rect id="Rectangle 10" width="180" height="208" rx="20" fill="white"/>
<text id="&#208;&#148;&#208;&#190;&#209;&#133;&#208;&#190;&#208;&#180;" fill="#000099" xml:space="preserve" style="white-space: pre" font-family="Ubuntu" font-size="12" font-weight="500" letter-spacing="0em"><tspan x="34" y="32.458">&#x414;&#x43e;&#x445;&#x43e;&#x434;</tspan></text>
<text id="&#208;&#160;&#208;&#176;&#209;&#129;&#209;&#133;&#208;&#190;&#208;&#180;" fill="#969696" xml:space="preserve" style="white-space: pre" font-family="Ubuntu" font-size="12" font-weight="500" letter-spacing="0em"><tspan x="99" y="32.458">&#x420;&#x430;&#x441;&#x445;&#x43e;&#x434;</tspan></text>
<g id="card">
<rect y="41" width="180" height="167" rx="20" fill="white"/>
<g id="card-body">
<g id="chart-graphic">
<g id="Group 89">
<g id="Bottom Value">
<text id="May" fill="#161616" xml:space="preserve" style="white-space: pre" font-family="Ubuntu" font-size="5.4" letter-spacing="0px"><tspan x="126.629" y="154.371">May</tspan></text>
<text id="Apr" fill="#161616" xml:space="preserve" style="white-space: pre" font-family="Ubuntu" font-size="5.4" letter-spacing="0px"><tspan x="103.361" y="154.371">Apr</tspan></text>
<text id="Mar" fill="#161616" xml:space="preserve" style="white-space: pre" font-family="Ubuntu" font-size="5.4" letter-spacing="0px"><tspan x="80.2093" y="154.371">Mar</tspan></text>
<text id="Feb" fill="#161616" xml:space="preserve" style="white-space: pre" font-family="Ubuntu" font-size="5.4" letter-spacing="0px"><tspan x="57.8281" y="154.371">Feb</tspan></text>
<text id="Jun" fill="#161616" xml:space="preserve" style="white-space: pre" font-family="Ubuntu" font-size="5.4" letter-spacing="0px"><tspan x="150.299" y="154.371">Jun</tspan></text>
<text id="Jan" fill="#161616" xml:space="preserve" style="white-space: pre" font-family="Ubuntu" font-size="5.4" letter-spacing="0px"><tspan x="34.4984" y="154.371">Jan</tspan></text>
<text id="Jan_2" fill="#161616" xml:space="preserve" style="white-space: pre" font-family="Ubuntu" font-size="4.95" letter-spacing="0px"><tspan x="20.5518" y="57.8389">10k</tspan></text>
<text id="Jan_3" fill="#161616" xml:space="preserve" style="white-space: pre" font-family="Ubuntu" font-size="4.95" letter-spacing="0px"><tspan x="20.8698" y="76.4356">8k</tspan></text>
<text id="Jan_4" fill="#161616" xml:space="preserve" style="white-space: pre" font-family="Ubuntu" font-size="4.95" letter-spacing="0px"><tspan x="21.3458" y="98.4136">6k</tspan></text>
<text id="Jan_5" fill="#161616" xml:space="preserve" style="white-space: pre" font-family="Ubuntu" font-size="4.95" letter-spacing="0px"><tspan x="21.3458" y="119.828">4k</tspan></text>
<text id="Jan_6" fill="#161616" xml:space="preserve" style="white-space: pre" font-family="Ubuntu" font-size="4.95" letter-spacing="0px"><tspan x="21.3458" y="140.679">2k</tspan></text>
</g>
</g>
<g id="Group 88">
<g id="Graph lines">
<path id="Line" d="M35.009 138.753H159.75" stroke="#EDEDED" stroke-width="0.563538" stroke-linecap="square"/>
<path id="Line_2" d="M35.009 117.902H159.75" stroke="#EDEDED" stroke-width="0.563538" stroke-linecap="square"/>
<path id="Line_3" d="M35.009 97.0513H159.75" stroke="#EDEDED" stroke-width="0.563538" stroke-linecap="square"/>
<path id="Line_4" d="M35.009 76.2007H159.75" stroke="#EDEDED" stroke-width="0.563538" stroke-linecap="square"/>
<path id="Line_5" d="M35.0095 55.3497H159.75" stroke="#EDEDED" stroke-width="0.563538" stroke-linecap="square"/>
</g>
<g id="Graph lines_2">
<path id="Graph line" d="M153.968 106.225C156.969 107.294 156.826 101.865 160 106.253V138H35V115.852C41.4565 117.222 44.285 100.816 50.4004 101.341C56.5158 101.865 58.1483 106.222 64.3891 107.487C71.9517 109.021 72.1763 97.383 75.5389 99.3723C78.9016 101.362 81.0947 125.158 84.7947 114.481C88.4946 103.804 110.628 123.99 122.138 115.326C129.486 109.794 124.139 95.5848 133.434 95.0201C139.235 94.6676 141.5 99.0403 146.525 101.865C149.463 103.517 151.605 105.384 153.968 106.225Z" fill="url(#paint0_linear_108_1568)"/>
<path id="Graph line_2" d="M37.0322 105.247C37.5996 104.391 40.0078 106.304 42.9539 105.219C45.2737 104.365 47.2916 101.62 50.2615 100.791C55.8983 99.2172 60.4988 97.5997 63.1128 93.8405C65.7268 90.0813 69.6504 77.335 74.3261 77.335C79.0019 77.335 81.3817 83.9649 83.1456 88.3322C84.8351 92.5153 88.0893 102.562 93.3511 103.67C99.1587 104.893 103.934 112.349 110.864 113.602C114.557 114.27 117.516 112.97 120.818 110.95C124.119 108.93 123.473 108.058 130.897 106.5C137.024 105.215 138.626 100.791 144.63 100.259C150.634 99.7264 153.411 116.385 159.749 114.995" stroke="#000099" stroke-width="1.12708" stroke-linecap="round" stroke-linejoin="round"/>
<path id="Graph line_3" d="M159.54 106.804C159.72 107.057 160.072 107.117 160.326 106.937C160.58 106.757 160.64 106.405 160.46 106.152L159.54 106.804ZM153.968 106.449L154.161 105.92H154.161L153.968 106.449ZM146.525 102.002L146.805 101.513L146.525 102.002ZM133.434 95.0205L133.469 95.5829L133.434 95.0205ZM122.138 115.731L121.795 115.284L122.138 115.731ZM64.3891 107.736L64.5033 107.184L64.3891 107.736ZM35.1191 115.717C34.815 115.652 34.515 115.845 34.4492 116.149C34.3834 116.453 34.5766 116.753 34.8808 116.819L35.1191 115.717ZM160.46 106.152C159.663 105.028 158.976 104.377 158.285 104.194C157.502 103.986 156.926 104.415 156.534 104.782C156.347 104.958 156.126 105.194 155.961 105.357C155.777 105.541 155.604 105.695 155.425 105.811C155.101 106.02 154.73 106.127 154.161 105.92L153.776 106.979C154.707 107.317 155.444 107.14 156.036 106.758C156.315 106.578 156.552 106.359 156.756 106.157C156.979 105.935 157.124 105.774 157.304 105.605C157.648 105.284 157.819 105.236 157.996 105.283C158.265 105.354 158.75 105.69 159.54 106.804L160.46 106.152ZM154.161 105.92C153.047 105.515 151.969 104.858 150.773 104.066C149.592 103.283 148.295 102.367 146.805 101.513L146.244 102.491C147.692 103.321 148.936 104.2 150.151 105.005C151.352 105.801 152.526 106.525 153.776 106.979L154.161 105.92ZM146.805 101.513C145.587 100.815 144.53 100.017 143.53 99.2071C142.543 98.4081 141.578 97.5674 140.607 96.8441C138.628 95.3696 136.482 94.267 133.399 94.458L133.469 95.5829C136.187 95.4145 138.074 96.3621 139.934 97.7479C140.883 98.4547 141.788 99.2468 142.821 100.083C143.84 100.908 144.95 101.749 146.244 102.491L146.805 101.513ZM133.399 94.458C130.888 94.6136 129.314 95.7308 128.299 97.4153C127.315 99.0469 126.871 101.191 126.5 103.382C126.124 105.612 125.821 107.914 125.158 110.027C124.5 112.127 123.506 113.97 121.795 115.284L122.481 116.178C124.444 114.671 125.537 112.587 126.234 110.364C126.926 108.156 127.245 105.74 127.612 103.57C127.985 101.361 128.406 99.4211 129.264 97.997C130.09 96.6257 131.333 95.7153 133.469 95.5829L133.399 94.458ZM84.2611 114.688C83.7993 116.047 83.3978 116.729 83.0978 116.996C82.9668 117.113 82.9078 117.104 82.9029 117.104C82.8828 117.102 82.8017 117.085 82.6582 116.942C82.3583 116.643 82.0169 116.028 81.6504 115.106C81.2924 114.206 80.938 113.088 80.5817 111.853C79.8794 109.419 79.1562 106.473 78.422 104.089C78.0515 102.886 77.6666 101.785 77.2613 100.913C77.0585 100.477 76.8447 100.086 76.6172 99.7623C76.393 99.4437 76.134 99.1604 75.8301 98.977L75.2478 99.942C75.3642 100.012 75.5164 100.156 75.6955 100.411C75.8713 100.661 76.0531 100.988 76.2393 101.388C76.612 102.19 76.9791 103.233 77.3449 104.421C78.0832 106.818 78.7701 109.64 79.4988 112.165C79.8581 113.411 80.2245 114.571 80.6031 115.523C80.9731 116.453 81.384 117.264 81.8626 117.74C82.1083 117.985 82.423 118.194 82.8065 118.227C83.2052 118.261 83.5577 118.096 83.8474 117.838C84.3886 117.356 84.865 116.414 85.3282 115.051L84.2611 114.688ZM75.8301 98.977C75.2909 98.6517 74.7405 98.5708 74.2083 98.7685C73.716 98.9514 73.322 99.3442 72.9934 99.7752C72.6593 100.214 72.3441 100.758 72.0326 101.329C71.7123 101.917 71.4026 102.519 71.0482 103.147C70.3441 104.394 69.5485 105.581 68.5086 106.368C67.4972 107.134 66.23 107.542 64.5033 107.184L64.275 108.288C66.3295 108.713 67.9263 108.223 69.1891 107.267C70.4233 106.332 71.312 104.972 72.0297 103.701C72.3863 103.069 72.7218 102.42 73.0221 101.869C73.3312 101.302 73.6118 100.823 73.8898 100.458C74.1734 100.086 74.4077 99.8968 74.6008 99.8251C74.7541 99.7681 74.9463 99.7601 75.2478 99.942L75.8301 98.977ZM64.5033 107.184C61.5091 106.565 59.6282 105.199 57.6664 103.853C55.6993 102.504 53.6604 101.186 50.4495 100.906L50.3513 102.028C53.2558 102.282 55.0908 103.454 57.029 104.783C58.9725 106.116 61.0283 107.617 64.275 108.288L64.5033 107.184ZM50.4495 100.906C48.6321 100.747 47.1445 101.883 45.8891 103.39C44.6249 104.907 43.4692 106.956 42.3402 108.909C41.194 110.892 40.075 112.777 38.8576 114.086C37.6435 115.391 36.4459 116.004 35.1191 115.717L34.8808 116.819C36.7824 117.23 38.3595 116.276 39.6828 114.853C41.0028 113.434 42.1837 111.432 43.316 109.473C44.4657 107.484 45.5673 105.537 46.7551 104.111C47.9518 102.675 49.111 101.92 50.3513 102.028L50.4495 100.906ZM121.795 115.284C119.085 117.364 115.72 117.742 112.044 117.235C108.362 116.727 104.456 115.344 100.729 114C97.0415 112.67 93.4882 111.36 90.6245 111.091C89.1828 110.956 87.8493 111.076 86.7351 111.639C85.6016 112.213 84.7632 113.21 84.2611 114.688L85.3282 115.051C85.7511 113.806 86.4137 113.065 87.2438 112.645C88.0932 112.216 89.1858 112.088 90.5191 112.214C93.2057 112.466 96.5989 113.709 100.346 115.06C104.053 116.397 108.07 117.825 111.89 118.351C115.717 118.879 119.435 118.516 122.481 116.178L121.795 115.284Z" fill="#FF7F2E"/>
</g>
</g>
<g id="Group 90">
<line id="Line 26" x1="82.5" y1="139" x2="82.5" y2="52" stroke="#E6C6A1"/>
<circle id="Ellipse 5" cx="82.5" cy="116.5" r="3" fill="white" stroke="url(#paint1_linear_108_1568)"/>
</g>
</g>
<g id="Group 91">
<text id="$4,242.00" fill="#000099" xml:space="preserve" style="white-space: pre" font-family="Ubuntu" font-size="11" font-weight="bold" letter-spacing="0px"><tspan x="90.8223" y="66.0865">$4,242.00</tspan></text>
<text id="earned" fill="#969696" xml:space="preserve" style="white-space: pre" font-family="Ubuntu" font-size="8" letter-spacing="0px"><tspan x="114.492" y="74.972">earned</tspan></text>
</g>
</g>
<g id="card-footer">
<rect y="168" width="180" height="40" rx="20" fill="#FAFAFA"/>
<text id="&#208;&#146;&#209;&#139;&#208;&#177;&#208;&#181;&#209;&#128;&#208;&#184;&#209;&#130;&#208;&#181; &#208;&#190;&#208;&#177;&#208;&#187;&#208;&#176;&#209;&#129;&#209;&#130;&#209;&#140;, &#208;&#191;&#208;&#181;&#209;&#128;&#208;&#181;&#209;&#130;&#208;&#176;&#209;&#137;&#208;&#184;&#208;&#178; &#208;&#181;&#208;&#181; &#208;&#191;&#208;&#190; &#208;&#189;&#208;&#184;&#208;&#182;&#208;&#189;&#208;&#181;&#208;&#185; &#208;&#180;&#208;&#184;&#208;&#176;&#208;&#179;&#209;&#128;&#208;&#176;&#208;&#188;&#208;&#188;&#208;&#181;" fill="black" xml:space="preserve" style="white-space: pre" font-family="Ubuntu" font-size="7.2" letter-spacing="0.225px"><tspan x="19" y="187.1">&#x412;&#x44b;&#x431;&#x435;&#x440;&#x438;&#x442;&#x435; &#x43e;&#x431;&#x43b;&#x430;&#x441;&#x442;&#x44c;, &#x43f;&#x435;&#x440;&#x435;&#x442;&#x430;&#x449;&#x438;&#x432; &#x435;&#x435; &#x43f;&#x43e; </tspan><tspan x="19" y="197.45">&#x43d;&#x438;&#x436;&#x43d;&#x435;&#x439; &#x434;&#x438;&#x430;&#x433;&#x440;&#x430;&#x43c;&#x43c;&#x435;</tspan></text>
</g>
</g>
</g>
<defs>
<linearGradient id="paint0_linear_108_1568" x1="97.5" y1="33.6141" x2="97.5" y2="147.355" gradientUnits="userSpaceOnUse">
<stop stop-color="#FEB46D"/>
<stop offset="1" stop-color="white" stop-opacity="0"/>
</linearGradient>
<linearGradient id="paint1_linear_108_1568" x1="82.5" y1="113" x2="82.5" y2="120" gradientUnits="userSpaceOnUse">
<stop stop-color="#FF9F2E"/>
<stop offset="1" stop-color="#FF7F2E"/>
</linearGradient>
</defs>
</svg>
