<svg width="236" height="236" viewBox="0 0 236 236" fill="none" xmlns="http://www.w3.org/2000/svg">
<g filter="url(#filter0_d_3597_7293)">
<rect x="82" y="12" width="140" height="140" rx="7.77778" fill="white"/>
<g clip-path="url(#clip0_3597_7293)">
<g clip-path="url(#clip1_3597_7293)">
<path d="M151.755 75.9698C156.235 69.821 158.354 62.2659 157.725 54.6842C157.096 47.1025 153.76 40.0001 148.328 34.674C142.895 29.3479 135.728 26.1536 128.136 25.6743C120.543 25.195 113.031 27.4628 106.972 32.0635C100.913 36.6642 96.7112 43.2909 95.1335 50.7333C93.5559 58.1757 94.7079 65.9373 98.3792 72.6006C102.051 79.2639 107.996 84.3844 115.13 87.0269C122.264 89.6694 130.111 89.6576 137.237 86.9937L133.908 78.0873C128.919 79.952 123.427 79.9603 118.433 78.1106C113.439 76.2608 109.277 72.6765 106.707 68.0121C104.137 63.3478 103.331 57.9147 104.435 52.705C105.54 47.4953 108.481 42.8567 112.722 39.6362C116.964 36.4157 122.222 34.8282 127.537 35.1637C132.852 35.4992 137.868 37.7353 141.671 41.4635C145.474 45.1918 147.809 50.1635 148.249 55.4707C148.69 60.7779 147.206 66.0665 144.07 70.3706L151.755 75.9698Z" fill="#F5F5F5"/>
<path d="M153.079 57.3058C155.705 57.3058 157.87 59.446 157.478 62.0422C157.034 64.9777 156.179 67.8443 154.931 70.5556C153.019 74.711 150.23 78.4032 146.755 81.3787C143.281 84.3541 139.204 86.5423 134.804 87.7928C130.404 89.0434 125.785 89.3267 121.265 88.6233C116.745 87.9199 112.431 86.2464 108.619 83.7179C104.807 81.1894 101.588 77.8657 99.1822 73.9752C96.7764 70.0847 95.2413 65.7195 94.6822 61.1795C94.3174 58.2172 94.3738 55.2264 94.8432 52.2948C95.2583 49.7022 97.9713 48.3211 100.473 49.119C102.974 49.9169 104.3 52.5988 104.052 55.2127C103.901 56.8074 103.922 58.4183 104.119 60.0174C104.511 63.1954 105.585 66.251 107.269 68.9744C108.953 71.6977 111.207 74.0243 113.875 75.7943C116.544 77.5642 119.563 78.7356 122.727 79.228C125.891 79.7204 129.124 79.5221 132.204 78.6467C135.284 77.7713 138.138 76.2396 140.57 74.1568C143.002 72.074 144.955 69.4894 146.293 66.5806C146.967 65.117 147.477 63.5888 147.818 62.0237C148.376 59.4581 150.454 57.3058 153.079 57.3058Z" fill="#56A4FF"/>
<path d="M112.861 80.7468C111.567 83.0314 108.638 83.8604 106.572 82.2394C102.108 78.7363 98.6425 74.0789 96.5759 68.732C94.5093 63.3852 93.942 57.6074 94.8896 52.0128C95.3281 49.424 98.0535 48.0674 100.548 48.8878C103.042 49.7082 104.343 52.402 104.072 55.0136C103.711 58.4821 104.172 62.01 105.445 65.3042C106.718 68.5983 108.75 71.5187 111.349 73.8433C113.307 75.5937 114.155 78.4622 112.861 80.7468Z" fill="#46C480"/>
<path d="M130.212 83.9364C130.609 86.5319 128.821 88.9956 126.195 89.0002C120.475 89.0103 114.826 87.4712 109.867 84.504C104.907 81.5368 100.88 77.2871 98.1845 72.2419C96.9472 69.926 98.2726 67.1853 100.747 66.3079C103.222 65.4306 105.899 66.765 107.283 68.9965C109.137 71.9874 111.689 74.5145 114.748 76.3445C117.807 78.1746 121.241 79.2286 124.753 79.4486C127.373 79.6127 129.815 81.3409 130.212 83.9364Z" fill="#363636"/>
<path d="M147.495 73.7285C149.576 75.3291 149.988 78.3456 148.094 80.1644C144.21 83.8947 139.419 86.5929 134.159 87.9687C128.899 89.3446 123.4 89.3376 118.187 87.9866C115.646 87.3279 114.528 84.4962 115.559 82.0815C116.59 79.6668 119.385 78.6015 121.964 79.0956C125.191 79.7138 128.536 79.6113 131.753 78.7698C134.97 77.9284 137.937 76.3803 140.448 74.2611C142.454 72.5677 145.413 72.128 147.495 73.7285Z" fill="#FF9417"/>
<path d="M117.38 61.8887C117.423 61.3587 117.514 60.807 117.652 60.2336C117.79 59.6601 117.957 59.0975 118.153 58.5458C118.356 57.9941 118.581 57.475 118.828 56.9887C119.075 56.495 119.325 56.0704 119.579 55.7147H116.302V54.3318H121.583V55.5078C121.351 55.7619 121.093 56.1139 120.81 56.564C120.534 57.0141 120.269 57.5259 120.015 58.0993C119.768 58.6656 119.55 59.2753 119.361 59.9287C119.18 60.582 119.067 61.2353 119.024 61.8887H117.38ZM123.569 61.8887C123.612 61.3587 123.703 60.807 123.841 60.2336C123.979 59.6601 124.146 59.0975 124.342 58.5458C124.545 57.9941 124.77 57.475 125.017 56.9887C125.264 56.495 125.514 56.0704 125.768 55.7147H122.491V54.3318H127.772V55.5078C127.539 55.7619 127.282 56.1139 126.999 56.564C126.723 57.0141 126.458 57.5259 126.204 58.0993C125.957 58.6656 125.739 59.2753 125.55 59.9287C125.369 60.582 125.256 61.2353 125.213 61.8887H123.569ZM132.447 56.2809C132.447 56.9633 132.273 57.4859 131.924 57.8489C131.576 58.2119 131.108 58.3933 130.52 58.3933C129.932 58.3933 129.463 58.2119 129.115 57.8489C128.766 57.4859 128.592 56.9633 128.592 56.2809C128.592 55.5985 128.766 55.0759 129.115 54.7129C129.463 54.3499 129.932 54.1684 130.52 54.1684C131.108 54.1684 131.576 54.3499 131.924 54.7129C132.273 55.0759 132.447 55.5985 132.447 56.2809ZM131.216 56.2809C131.216 55.9107 131.151 55.6421 131.02 55.4751C130.89 55.3082 130.723 55.2247 130.52 55.2247C130.309 55.2247 130.138 55.3082 130.008 55.4751C129.884 55.6421 129.823 55.9107 129.823 56.2809C129.823 56.6511 129.884 56.9233 130.008 57.0976C130.138 57.2645 130.309 57.348 130.52 57.348C130.723 57.348 130.89 57.2645 131.02 57.0976C131.151 56.9233 131.216 56.6511 131.216 56.2809ZM134.57 54.3427H136.084L131.826 61.8887H130.313L134.57 54.3427ZM137.826 59.9504C137.826 60.6328 137.652 61.1555 137.303 61.5184C136.955 61.8814 136.487 62.0629 135.899 62.0629C135.311 62.0629 134.842 61.8814 134.494 61.5184C134.146 61.1555 133.971 60.6328 133.971 59.9504C133.971 59.2681 134.146 58.7454 134.494 58.3824C134.842 58.0195 135.311 57.838 135.899 57.838C136.487 57.838 136.955 58.0195 137.303 58.3824C137.652 58.7454 137.826 59.2681 137.826 59.9504ZM136.596 59.9504C136.596 59.5802 136.53 59.3116 136.4 59.1447C136.269 58.9777 136.102 58.8942 135.899 58.8942C135.688 58.8942 135.518 58.9777 135.387 59.1447C135.263 59.3116 135.202 59.5802 135.202 59.9504C135.202 60.3207 135.263 60.5929 135.387 60.7671C135.518 60.9341 135.688 61.0176 135.899 61.0176C136.102 61.0176 136.269 60.9341 136.4 60.7671C136.53 60.5929 136.596 60.3207 136.596 59.9504Z" fill="#9FAFC6"/>
</g>
<g clip-path="url(#clip2_3597_7293)">
<g clip-path="url(#clip3_3597_7293)">
<rect x="174.389" y="40.9727" width="4.27778" height="4.27778" rx="0.777778" fill="#FF9417"/>
<path d="M184.583 45.6473C184.499 45.6473 184.407 45.6453 184.307 45.6413C184.211 45.6373 184.113 45.6313 184.013 45.6233C183.917 45.6153 183.821 45.6053 183.725 45.5933C183.629 45.5813 183.541 45.5653 183.461 45.5453V41.5133C183.541 41.4933 183.629 41.4773 183.725 41.4653C183.821 41.4533 183.917 41.4433 184.013 41.4353C184.113 41.4273 184.211 41.4213 184.307 41.4173C184.403 41.4133 184.493 41.4113 184.577 41.4113C184.817 41.4113 185.041 41.4293 185.249 41.4653C185.461 41.5013 185.643 41.5633 185.795 41.6513C185.951 41.7353 186.073 41.8473 186.161 41.9873C186.249 42.1273 186.293 42.2993 186.293 42.5033C186.293 42.7313 186.239 42.9193 186.131 43.0673C186.023 43.2113 185.879 43.3193 185.699 43.3913C185.943 43.4633 186.137 43.5773 186.281 43.7333C186.425 43.8893 186.497 44.1093 186.497 44.3933C186.497 44.8093 186.343 45.1233 186.035 45.3353C185.731 45.5433 185.247 45.6473 184.583 45.6473ZM184.037 43.6733V45.1373C184.081 45.1413 184.133 45.1453 184.193 45.1493C184.245 45.1533 184.305 45.1573 184.373 45.1613C184.445 45.1613 184.527 45.1613 184.619 45.1613C184.791 45.1613 184.953 45.1513 185.105 45.1313C185.261 45.1073 185.397 45.0673 185.513 45.0113C185.629 44.9553 185.721 44.8773 185.789 44.7773C185.861 44.6773 185.897 44.5513 185.897 44.3993C185.897 44.2633 185.871 44.1493 185.819 44.0573C185.767 43.9613 185.691 43.8853 185.591 43.8293C185.495 43.7733 185.379 43.7333 185.243 43.7093C185.107 43.6853 184.955 43.6733 184.787 43.6733H184.037ZM184.037 43.2053H184.649C184.793 43.2053 184.929 43.1953 185.057 43.1753C185.185 43.1553 185.295 43.1193 185.387 43.0673C185.483 43.0153 185.557 42.9473 185.609 42.8633C185.665 42.7793 185.693 42.6733 185.693 42.5453C185.693 42.4253 185.665 42.3253 185.609 42.2453C185.553 42.1613 185.475 42.0953 185.375 42.0473C185.279 41.9953 185.165 41.9573 185.033 41.9333C184.901 41.9093 184.761 41.8973 184.613 41.8973C184.465 41.8973 184.349 41.8993 184.265 41.9033C184.181 41.9073 184.105 41.9133 184.037 41.9213V43.2053ZM187.838 45.6113H187.28V42.4913H187.838V45.6113ZM187.556 41.9273C187.456 41.9273 187.37 41.8953 187.298 41.8313C187.23 41.7633 187.196 41.6733 187.196 41.5613C187.196 41.4493 187.23 41.3613 187.298 41.2973C187.37 41.2293 187.456 41.1953 187.556 41.1953C187.656 41.1953 187.74 41.2293 187.808 41.2973C187.88 41.3613 187.916 41.4493 187.916 41.5613C187.916 41.6733 187.88 41.7633 187.808 41.8313C187.74 41.8953 187.656 41.9273 187.556 41.9273ZM189.32 42.4913H190.502V42.9593H189.32V44.3993C189.32 44.5553 189.332 44.6853 189.356 44.7893C189.38 44.8893 189.416 44.9693 189.464 45.0293C189.512 45.0853 189.572 45.1253 189.644 45.1493C189.716 45.1733 189.8 45.1853 189.896 45.1853C190.064 45.1853 190.198 45.1673 190.298 45.1313C190.402 45.0913 190.474 45.0633 190.514 45.0473L190.622 45.5093C190.566 45.5373 190.468 45.5713 190.328 45.6113C190.188 45.6553 190.028 45.6773 189.848 45.6773C189.636 45.6773 189.46 45.6513 189.32 45.5993C189.184 45.5433 189.074 45.4613 188.99 45.3533C188.906 45.2453 188.846 45.1133 188.81 44.9573C188.778 44.7973 188.762 44.6133 188.762 44.4053V41.6213L189.32 41.5253V42.4913ZM192.492 45.6833C192.24 45.6833 192.018 45.6433 191.826 45.5633C191.638 45.4833 191.478 45.3713 191.346 45.2273C191.218 45.0833 191.122 44.9133 191.058 44.7173C190.994 44.5173 190.962 44.2973 190.962 44.0573C190.962 43.8173 190.996 43.5973 191.064 43.3973C191.136 43.1973 191.236 43.0253 191.364 42.8813C191.492 42.7333 191.648 42.6193 191.832 42.5393C192.02 42.4553 192.228 42.4133 192.456 42.4133C192.596 42.4133 192.736 42.4253 192.876 42.4493C193.016 42.4733 193.15 42.5113 193.278 42.5633L193.152 43.0373C193.068 42.9973 192.97 42.9653 192.858 42.9413C192.75 42.9173 192.634 42.9053 192.51 42.9053C192.198 42.9053 191.958 43.0033 191.79 43.1993C191.626 43.3953 191.544 43.6813 191.544 44.0573C191.544 44.2253 191.562 44.3793 191.598 44.5193C191.638 44.6593 191.698 44.7793 191.778 44.8793C191.862 44.9793 191.968 45.0573 192.096 45.1133C192.224 45.1653 192.38 45.1913 192.564 45.1913C192.712 45.1913 192.846 45.1773 192.966 45.1493C193.086 45.1213 193.18 45.0913 193.248 45.0593L193.326 45.5273C193.294 45.5473 193.248 45.5673 193.188 45.5873C193.128 45.6033 193.06 45.6173 192.984 45.6293C192.908 45.6453 192.826 45.6573 192.738 45.6653C192.654 45.6773 192.572 45.6833 192.492 45.6833ZM196.602 44.0513C196.602 44.2993 196.566 44.5233 196.494 44.7233C196.422 44.9233 196.32 45.0953 196.188 45.2393C196.06 45.3833 195.906 45.4953 195.726 45.5753C195.546 45.6513 195.35 45.6893 195.138 45.6893C194.926 45.6893 194.73 45.6513 194.55 45.5753C194.37 45.4953 194.214 45.3833 194.082 45.2393C193.954 45.0953 193.854 44.9233 193.782 44.7233C193.71 44.5233 193.674 44.2993 193.674 44.0513C193.674 43.8073 193.71 43.5853 193.782 43.3853C193.854 43.1813 193.954 43.0073 194.082 42.8633C194.214 42.7193 194.37 42.6093 194.55 42.5333C194.73 42.4533 194.926 42.4133 195.138 42.4133C195.35 42.4133 195.546 42.4533 195.726 42.5333C195.906 42.6093 196.06 42.7193 196.188 42.8633C196.32 43.0073 196.422 43.1813 196.494 43.3853C196.566 43.5853 196.602 43.8073 196.602 44.0513ZM196.02 44.0513C196.02 43.6993 195.94 43.4213 195.78 43.2173C195.624 43.0093 195.41 42.9053 195.138 42.9053C194.866 42.9053 194.65 43.0093 194.49 43.2173C194.334 43.4213 194.256 43.6993 194.256 44.0513C194.256 44.4033 194.334 44.6833 194.49 44.8913C194.65 45.0953 194.866 45.1973 195.138 45.1973C195.41 45.1973 195.624 45.0953 195.78 44.8913C195.94 44.6833 196.02 44.4033 196.02 44.0513ZM197.945 45.6113H197.387V42.4913H197.945V45.6113ZM197.663 41.9273C197.563 41.9273 197.477 41.8953 197.405 41.8313C197.337 41.7633 197.303 41.6733 197.303 41.5613C197.303 41.4493 197.337 41.3613 197.405 41.2973C197.477 41.2293 197.563 41.1953 197.663 41.1953C197.763 41.1953 197.847 41.2293 197.915 41.2973C197.987 41.3613 198.023 41.4493 198.023 41.5613C198.023 41.6733 197.987 41.7633 197.915 41.8313C197.847 41.8953 197.763 41.9273 197.663 41.9273ZM198.905 42.5813C199.033 42.5493 199.203 42.5153 199.415 42.4793C199.627 42.4433 199.871 42.4253 200.147 42.4253C200.395 42.4253 200.601 42.4613 200.765 42.5333C200.929 42.6013 201.059 42.6993 201.155 42.8273C201.255 42.9513 201.325 43.1013 201.365 43.2773C201.405 43.4533 201.425 43.6473 201.425 43.8593V45.6113H200.867V43.9793C200.867 43.7873 200.853 43.6233 200.825 43.4873C200.801 43.3513 200.759 43.2413 200.699 43.1573C200.639 43.0733 200.559 43.0133 200.459 42.9773C200.359 42.9373 200.235 42.9173 200.087 42.9173C200.027 42.9173 199.965 42.9193 199.901 42.9233C199.837 42.9273 199.775 42.9333 199.715 42.9413C199.659 42.9453 199.607 42.9513 199.559 42.9593C199.515 42.9673 199.483 42.9733 199.463 42.9773V45.6113H198.905V42.5813Z" fill="black"/>
</g>
<g clip-path="url(#clip4_3597_7293)">
<rect x="174.389" y="50.3057" width="4.27778" height="4.27778" rx="0.777778" fill="#363636"/>
<path d="M183.461 54.9443V50.7863H185.999V51.2843H184.043V52.5203H185.783V53.0063H184.043V54.4463H186.149V54.9443H183.461ZM187.292 51.8243H188.474V52.2923H187.292V53.7323C187.292 53.8883 187.304 54.0183 187.328 54.1223C187.352 54.2223 187.388 54.3023 187.436 54.3623C187.484 54.4183 187.544 54.4583 187.616 54.4823C187.688 54.5063 187.772 54.5183 187.868 54.5183C188.036 54.5183 188.17 54.5003 188.27 54.4643C188.374 54.4243 188.446 54.3963 188.486 54.3803L188.594 54.8423C188.538 54.8703 188.44 54.9043 188.3 54.9443C188.16 54.9883 188 55.0103 187.82 55.0103C187.608 55.0103 187.432 54.9843 187.292 54.9323C187.156 54.8763 187.046 54.7943 186.962 54.6863C186.878 54.5783 186.818 54.4463 186.782 54.2903C186.75 54.1303 186.734 53.9463 186.734 53.7383V50.9543L187.292 50.8583V51.8243ZM189.184 54.9443V50.3843L189.742 50.2883V51.8843C189.846 51.8443 189.956 51.8143 190.072 51.7943C190.192 51.7703 190.31 51.7583 190.426 51.7583C190.674 51.7583 190.88 51.7943 191.044 51.8663C191.208 51.9343 191.338 52.0323 191.434 52.1603C191.534 52.2843 191.604 52.4343 191.644 52.6103C191.684 52.7863 191.704 52.9803 191.704 53.1923V54.9443H191.146V53.3123C191.146 53.1203 191.132 52.9563 191.104 52.8203C191.08 52.6843 191.038 52.5743 190.978 52.4903C190.918 52.4063 190.838 52.3463 190.738 52.3103C190.638 52.2703 190.514 52.2503 190.366 52.2503C190.306 52.2503 190.244 52.2543 190.18 52.2623C190.116 52.2703 190.054 52.2803 189.994 52.2923C189.938 52.3003 189.886 52.3103 189.838 52.3223C189.794 52.3343 189.762 52.3443 189.742 52.3523V54.9443H189.184ZM192.438 53.3903C192.438 53.1143 192.478 52.8743 192.558 52.6703C192.638 52.4623 192.744 52.2903 192.876 52.1543C193.008 52.0183 193.16 51.9163 193.332 51.8483C193.504 51.7803 193.68 51.7463 193.86 51.7463C194.28 51.7463 194.602 51.8783 194.826 52.1423C195.05 52.4023 195.162 52.8003 195.162 53.3363C195.162 53.3603 195.162 53.3923 195.162 53.4323C195.162 53.4683 195.16 53.5023 195.156 53.5343H193.02C193.044 53.8583 193.138 54.1043 193.302 54.2723C193.466 54.4403 193.722 54.5243 194.07 54.5243C194.266 54.5243 194.43 54.5083 194.562 54.4763C194.698 54.4403 194.8 54.4063 194.868 54.3743L194.946 54.8423C194.878 54.8783 194.758 54.9163 194.586 54.9563C194.418 54.9963 194.226 55.0163 194.01 55.0163C193.738 55.0163 193.502 54.9763 193.302 54.8963C193.106 54.8123 192.944 54.6983 192.816 54.5543C192.688 54.4103 192.592 54.2403 192.528 54.0443C192.468 53.8443 192.438 53.6263 192.438 53.3903ZM194.58 53.0843C194.584 52.8323 194.52 52.6263 194.388 52.4663C194.26 52.3023 194.082 52.2203 193.854 52.2203C193.726 52.2203 193.612 52.2463 193.512 52.2983C193.416 52.3463 193.334 52.4103 193.266 52.4903C193.198 52.5703 193.144 52.6623 193.104 52.7663C193.068 52.8703 193.044 52.9763 193.032 53.0843H194.58ZM197.116 51.7583C197.164 51.7583 197.218 51.7623 197.278 51.7703C197.342 51.7743 197.404 51.7823 197.464 51.7943C197.524 51.8023 197.578 51.8123 197.626 51.8243C197.678 51.8323 197.716 51.8403 197.74 51.8483L197.644 52.3343C197.6 52.3183 197.526 52.3003 197.422 52.2803C197.322 52.2563 197.192 52.2443 197.032 52.2443C196.928 52.2443 196.824 52.2563 196.72 52.2803C196.62 52.3003 196.554 52.3143 196.522 52.3223V54.9443H195.964V51.9563C196.096 51.9083 196.26 51.8643 196.456 51.8243C196.652 51.7803 196.872 51.7583 197.116 51.7583ZM198.104 53.3903C198.104 53.1143 198.144 52.8743 198.224 52.6703C198.304 52.4623 198.41 52.2903 198.542 52.1543C198.674 52.0183 198.826 51.9163 198.998 51.8483C199.17 51.7803 199.346 51.7463 199.526 51.7463C199.946 51.7463 200.268 51.8783 200.492 52.1423C200.716 52.4023 200.828 52.8003 200.828 53.3363C200.828 53.3603 200.828 53.3923 200.828 53.4323C200.828 53.4683 200.826 53.5023 200.822 53.5343H198.686C198.71 53.8583 198.804 54.1043 198.968 54.2723C199.132 54.4403 199.388 54.5243 199.736 54.5243C199.932 54.5243 200.096 54.5083 200.228 54.4763C200.364 54.4403 200.466 54.4063 200.534 54.3743L200.612 54.8423C200.544 54.8783 200.424 54.9163 200.252 54.9563C200.084 54.9963 199.892 55.0163 199.676 55.0163C199.404 55.0163 199.168 54.9763 198.968 54.8963C198.772 54.8123 198.61 54.6983 198.482 54.5543C198.354 54.4103 198.258 54.2403 198.194 54.0443C198.134 53.8443 198.104 53.6263 198.104 53.3903ZM200.246 53.0843C200.25 52.8323 200.186 52.6263 200.054 52.4663C199.926 52.3023 199.748 52.2203 199.52 52.2203C199.392 52.2203 199.278 52.2463 199.178 52.2983C199.082 52.3463 199 52.4103 198.932 52.4903C198.864 52.5703 198.81 52.6623 198.77 52.7663C198.734 52.8703 198.71 52.9763 198.698 53.0843H200.246ZM204.114 54.8543C203.986 54.8863 203.816 54.9203 203.604 54.9563C203.396 54.9923 203.154 55.0103 202.878 55.0103C202.638 55.0103 202.436 54.9763 202.272 54.9083C202.108 54.8363 201.976 54.7363 201.876 54.6083C201.776 54.4803 201.704 54.3303 201.66 54.1583C201.616 53.9823 201.594 53.7883 201.594 53.5763V51.8243H202.152V53.4563C202.152 53.8363 202.212 54.1083 202.332 54.2723C202.452 54.4363 202.654 54.5183 202.938 54.5183C202.998 54.5183 203.06 54.5163 203.124 54.5123C203.188 54.5083 203.248 54.5043 203.304 54.5003C203.36 54.4923 203.41 54.4863 203.454 54.4823C203.502 54.4743 203.536 54.4663 203.556 54.4583V51.8243H204.114V54.8543ZM205.075 51.9143C205.203 51.8823 205.371 51.8483 205.579 51.8123C205.791 51.7763 206.035 51.7583 206.311 51.7583C206.511 51.7583 206.679 51.7863 206.815 51.8423C206.951 51.8943 207.065 51.9723 207.157 52.0763C207.185 52.0563 207.229 52.0283 207.289 51.9923C207.349 51.9563 207.423 51.9223 207.511 51.8903C207.599 51.8543 207.697 51.8243 207.805 51.8003C207.913 51.7723 208.029 51.7583 208.153 51.7583C208.393 51.7583 208.589 51.7943 208.741 51.8663C208.893 51.9343 209.011 52.0323 209.095 52.1603C209.183 52.2883 209.241 52.4403 209.269 52.6163C209.301 52.7923 209.317 52.9843 209.317 53.1923V54.9443H208.759V53.3123C208.759 53.1283 208.749 52.9703 208.729 52.8383C208.713 52.7063 208.679 52.5963 208.627 52.5083C208.579 52.4203 208.511 52.3563 208.423 52.3163C208.339 52.2723 208.229 52.2503 208.093 52.2503C207.905 52.2503 207.749 52.2763 207.625 52.3283C207.505 52.3763 207.423 52.4203 207.379 52.4603C207.411 52.5643 207.435 52.6783 207.451 52.8023C207.467 52.9263 207.475 53.0563 207.475 53.1923V54.9443H206.917V53.3123C206.917 53.1283 206.907 52.9703 206.887 52.8383C206.867 52.7063 206.831 52.5963 206.779 52.5083C206.731 52.4203 206.663 52.3563 206.575 52.3163C206.491 52.2723 206.383 52.2503 206.251 52.2503C206.195 52.2503 206.135 52.2523 206.071 52.2563C206.007 52.2603 205.945 52.2663 205.885 52.2743C205.829 52.2783 205.777 52.2843 205.729 52.2923C205.681 52.3003 205.649 52.3063 205.633 52.3103V54.9443H205.075V51.9143Z" fill="black"/>
</g>
<g clip-path="url(#clip5_3597_7293)">
<rect x="174.389" y="59.6396" width="4.27778" height="4.27778" rx="0.777778" fill="#46C580"/>
<path d="M186.239 60.1203V60.6243H184.931V64.2783H184.349V60.6243H183.041V60.1203H186.239ZM186.315 62.7243C186.315 62.4483 186.355 62.2083 186.435 62.0043C186.515 61.7963 186.621 61.6243 186.753 61.4883C186.885 61.3523 187.037 61.2503 187.209 61.1823C187.381 61.1143 187.557 61.0803 187.737 61.0803C188.157 61.0803 188.479 61.2123 188.703 61.4763C188.927 61.7363 189.039 62.1343 189.039 62.6703C189.039 62.6943 189.039 62.7263 189.039 62.7663C189.039 62.8023 189.037 62.8363 189.033 62.8683H186.897C186.921 63.1923 187.015 63.4383 187.179 63.6063C187.343 63.7743 187.599 63.8583 187.947 63.8583C188.143 63.8583 188.307 63.8423 188.439 63.8103C188.575 63.7743 188.677 63.7403 188.745 63.7083L188.823 64.1763C188.755 64.2123 188.635 64.2503 188.463 64.2903C188.295 64.3303 188.103 64.3503 187.887 64.3503C187.615 64.3503 187.379 64.3103 187.179 64.2303C186.983 64.1463 186.821 64.0323 186.693 63.8883C186.565 63.7443 186.469 63.5743 186.405 63.3783C186.345 63.1783 186.315 62.9603 186.315 62.7243ZM188.457 62.4183C188.461 62.1663 188.397 61.9603 188.265 61.8003C188.137 61.6363 187.959 61.5543 187.731 61.5543C187.603 61.5543 187.489 61.5803 187.389 61.6323C187.293 61.6803 187.211 61.7443 187.143 61.8243C187.075 61.9043 187.021 61.9963 186.981 62.1003C186.945 62.2043 186.921 62.3103 186.909 62.4183H188.457ZM190.363 61.1583H191.545V61.6263H190.363V63.0663C190.363 63.2223 190.375 63.3523 190.399 63.4563C190.423 63.5563 190.459 63.6363 190.507 63.6963C190.555 63.7523 190.615 63.7923 190.687 63.8163C190.759 63.8403 190.843 63.8523 190.939 63.8523C191.107 63.8523 191.241 63.8343 191.341 63.7983C191.445 63.7583 191.517 63.7303 191.557 63.7143L191.665 64.1763C191.609 64.2043 191.511 64.2383 191.371 64.2783C191.231 64.3223 191.071 64.3443 190.891 64.3443C190.679 64.3443 190.503 64.3183 190.363 64.2663C190.227 64.2103 190.117 64.1283 190.033 64.0203C189.949 63.9123 189.889 63.7803 189.853 63.6243C189.821 63.4643 189.805 63.2803 189.805 63.0723V60.2883L190.363 60.1923V61.1583ZM192.255 64.2783V59.7183L192.813 59.6223V61.2183C192.917 61.1783 193.027 61.1483 193.143 61.1283C193.263 61.1043 193.381 61.0923 193.497 61.0923C193.745 61.0923 193.951 61.1283 194.115 61.2003C194.279 61.2683 194.409 61.3663 194.505 61.4943C194.605 61.6183 194.675 61.7683 194.715 61.9443C194.755 62.1203 194.775 62.3143 194.775 62.5263V64.2783H194.217V62.6463C194.217 62.4543 194.203 62.2903 194.175 62.1543C194.151 62.0183 194.109 61.9083 194.049 61.8243C193.989 61.7403 193.909 61.6803 193.809 61.6443C193.709 61.6043 193.585 61.5843 193.437 61.5843C193.377 61.5843 193.315 61.5883 193.251 61.5963C193.187 61.6043 193.125 61.6143 193.065 61.6263C193.009 61.6343 192.957 61.6443 192.909 61.6563C192.865 61.6683 192.833 61.6783 192.813 61.6863V64.2783H192.255ZM195.508 62.7243C195.508 62.4483 195.548 62.2083 195.628 62.0043C195.708 61.7963 195.814 61.6243 195.946 61.4883C196.078 61.3523 196.23 61.2503 196.402 61.1823C196.574 61.1143 196.75 61.0803 196.93 61.0803C197.35 61.0803 197.672 61.2123 197.896 61.4763C198.12 61.7363 198.232 62.1343 198.232 62.6703C198.232 62.6943 198.232 62.7263 198.232 62.7663C198.232 62.8023 198.23 62.8363 198.226 62.8683H196.09C196.114 63.1923 196.208 63.4383 196.372 63.6063C196.536 63.7743 196.792 63.8583 197.14 63.8583C197.336 63.8583 197.5 63.8423 197.632 63.8103C197.768 63.7743 197.87 63.7403 197.938 63.7083L198.016 64.1763C197.948 64.2123 197.828 64.2503 197.656 64.2903C197.488 64.3303 197.296 64.3503 197.08 64.3503C196.808 64.3503 196.572 64.3103 196.372 64.2303C196.176 64.1463 196.014 64.0323 195.886 63.8883C195.758 63.7443 195.662 63.5743 195.598 63.3783C195.538 63.1783 195.508 62.9603 195.508 62.7243ZM197.65 62.4183C197.654 62.1663 197.59 61.9603 197.458 61.8003C197.33 61.6363 197.152 61.5543 196.924 61.5543C196.796 61.5543 196.682 61.5803 196.582 61.6323C196.486 61.6803 196.404 61.7443 196.336 61.8243C196.268 61.9043 196.214 61.9963 196.174 62.1003C196.138 62.2043 196.114 62.3103 196.102 62.4183H197.65ZM200.186 61.0923C200.234 61.0923 200.288 61.0963 200.348 61.1043C200.412 61.1083 200.474 61.1163 200.534 61.1283C200.594 61.1363 200.648 61.1463 200.696 61.1583C200.748 61.1663 200.786 61.1743 200.81 61.1823L200.714 61.6683C200.67 61.6523 200.596 61.6343 200.492 61.6143C200.392 61.5903 200.262 61.5783 200.102 61.5783C199.998 61.5783 199.894 61.5903 199.79 61.6143C199.69 61.6343 199.624 61.6483 199.592 61.6563V64.2783H199.034V61.2903C199.166 61.2423 199.33 61.1983 199.526 61.1583C199.722 61.1143 199.942 61.0923 200.186 61.0923Z" fill="black"/>
</g>
<g clip-path="url(#clip6_3597_7293)">
<rect x="174.389" y="68.9727" width="4.27778" height="4.27778" rx="0.777778" fill="#56A4FF"/>
<path d="M185.963 73.1073V73.6113H183.461V69.4533H184.043V73.1073H185.963ZM187.094 73.6113H186.536V70.4913H187.094V73.6113ZM186.812 69.9273C186.712 69.9273 186.626 69.8953 186.554 69.8313C186.486 69.7633 186.452 69.6733 186.452 69.5613C186.452 69.4493 186.486 69.3613 186.554 69.2973C186.626 69.2293 186.712 69.1953 186.812 69.1953C186.912 69.1953 186.996 69.2293 187.064 69.2973C187.136 69.3613 187.172 69.4493 187.172 69.5613C187.172 69.6733 187.136 69.7633 187.064 69.8313C186.996 69.8953 186.912 69.9273 186.812 69.9273ZM188.575 70.4913H189.757V70.9593H188.575V72.3993C188.575 72.5553 188.587 72.6853 188.611 72.7893C188.635 72.8893 188.671 72.9693 188.719 73.0293C188.767 73.0853 188.827 73.1253 188.899 73.1493C188.971 73.1733 189.055 73.1853 189.151 73.1853C189.319 73.1853 189.453 73.1673 189.553 73.1313C189.657 73.0913 189.729 73.0633 189.769 73.0473L189.877 73.5093C189.821 73.5373 189.723 73.5713 189.583 73.6113C189.443 73.6553 189.283 73.6773 189.103 73.6773C188.891 73.6773 188.715 73.6513 188.575 73.5993C188.439 73.5433 188.329 73.4613 188.245 73.3533C188.161 73.2453 188.101 73.1133 188.065 72.9573C188.033 72.7973 188.017 72.6133 188.017 72.4053V69.6213L188.575 69.5253V70.4913ZM190.235 72.0573C190.235 71.7813 190.275 71.5413 190.355 71.3373C190.435 71.1293 190.541 70.9573 190.673 70.8213C190.805 70.6853 190.957 70.5833 191.129 70.5153C191.301 70.4473 191.477 70.4133 191.657 70.4133C192.077 70.4133 192.399 70.5453 192.623 70.8093C192.847 71.0693 192.959 71.4673 192.959 72.0033C192.959 72.0273 192.959 72.0593 192.959 72.0993C192.959 72.1353 192.957 72.1693 192.953 72.2013H190.817C190.841 72.5253 190.935 72.7713 191.099 72.9393C191.263 73.1073 191.519 73.1913 191.867 73.1913C192.063 73.1913 192.227 73.1753 192.359 73.1433C192.495 73.1073 192.597 73.0733 192.665 73.0413L192.743 73.5093C192.675 73.5453 192.555 73.5833 192.383 73.6233C192.215 73.6633 192.023 73.6833 191.807 73.6833C191.535 73.6833 191.299 73.6433 191.099 73.5633C190.903 73.4793 190.741 73.3653 190.613 73.2213C190.485 73.0773 190.389 72.9073 190.325 72.7113C190.265 72.5113 190.235 72.2933 190.235 72.0573ZM192.377 71.7513C192.381 71.4993 192.317 71.2933 192.185 71.1333C192.057 70.9693 191.879 70.8873 191.651 70.8873C191.523 70.8873 191.409 70.9133 191.309 70.9653C191.213 71.0133 191.131 71.0773 191.063 71.1573C190.995 71.2373 190.941 71.3293 190.901 71.4333C190.865 71.5373 190.841 71.6433 190.829 71.7513H192.377ZM195.117 73.6833C194.865 73.6833 194.643 73.6433 194.451 73.5633C194.263 73.4833 194.103 73.3713 193.971 73.2273C193.843 73.0833 193.747 72.9133 193.683 72.7173C193.619 72.5173 193.587 72.2973 193.587 72.0573C193.587 71.8173 193.621 71.5973 193.689 71.3973C193.761 71.1973 193.861 71.0253 193.989 70.8813C194.117 70.7333 194.273 70.6193 194.457 70.5393C194.645 70.4553 194.853 70.4133 195.081 70.4133C195.221 70.4133 195.361 70.4253 195.501 70.4493C195.641 70.4733 195.775 70.5113 195.903 70.5633L195.777 71.0373C195.693 70.9973 195.595 70.9653 195.483 70.9413C195.375 70.9173 195.259 70.9053 195.135 70.9053C194.823 70.9053 194.583 71.0033 194.415 71.1993C194.251 71.3953 194.169 71.6813 194.169 72.0573C194.169 72.2253 194.187 72.3793 194.223 72.5193C194.263 72.6593 194.323 72.7793 194.403 72.8793C194.487 72.9793 194.593 73.0573 194.721 73.1133C194.849 73.1653 195.005 73.1913 195.189 73.1913C195.337 73.1913 195.471 73.1773 195.591 73.1493C195.711 73.1213 195.805 73.0913 195.873 73.0593L195.951 73.5273C195.919 73.5473 195.873 73.5673 195.813 73.5873C195.753 73.6033 195.685 73.6173 195.609 73.6293C195.533 73.6453 195.451 73.6573 195.363 73.6653C195.279 73.6773 195.197 73.6833 195.117 73.6833ZM199.227 72.0513C199.227 72.2993 199.191 72.5233 199.119 72.7233C199.047 72.9233 198.945 73.0953 198.813 73.2393C198.685 73.3833 198.531 73.4953 198.351 73.5753C198.171 73.6513 197.975 73.6893 197.763 73.6893C197.551 73.6893 197.355 73.6513 197.175 73.5753C196.995 73.4953 196.839 73.3833 196.707 73.2393C196.579 73.0953 196.479 72.9233 196.407 72.7233C196.335 72.5233 196.299 72.2993 196.299 72.0513C196.299 71.8073 196.335 71.5853 196.407 71.3853C196.479 71.1813 196.579 71.0073 196.707 70.8633C196.839 70.7193 196.995 70.6093 197.175 70.5333C197.355 70.4533 197.551 70.4133 197.763 70.4133C197.975 70.4133 198.171 70.4533 198.351 70.5333C198.531 70.6093 198.685 70.7193 198.813 70.8633C198.945 71.0073 199.047 71.1813 199.119 71.3853C199.191 71.5853 199.227 71.8073 199.227 72.0513ZM198.645 72.0513C198.645 71.6993 198.565 71.4213 198.405 71.2173C198.249 71.0093 198.035 70.9053 197.763 70.9053C197.491 70.9053 197.275 71.0093 197.115 71.2173C196.959 71.4213 196.881 71.6993 196.881 72.0513C196.881 72.4033 196.959 72.6833 197.115 72.8913C197.275 73.0953 197.491 73.1973 197.763 73.1973C198.035 73.1973 198.249 73.0953 198.405 72.8913C198.565 72.6833 198.645 72.4033 198.645 72.0513ZM200.57 73.6113H200.012V70.4913H200.57V73.6113ZM200.288 69.9273C200.188 69.9273 200.102 69.8953 200.03 69.8313C199.962 69.7633 199.928 69.6733 199.928 69.5613C199.928 69.4493 199.962 69.3613 200.03 69.2973C200.102 69.2293 200.188 69.1953 200.288 69.1953C200.388 69.1953 200.472 69.2293 200.54 69.2973C200.612 69.3613 200.648 69.4493 200.648 69.5613C200.648 69.6733 200.612 69.7633 200.54 69.8313C200.472 69.8953 200.388 69.9273 200.288 69.9273ZM201.53 70.5813C201.658 70.5493 201.828 70.5153 202.04 70.4793C202.252 70.4433 202.496 70.4253 202.772 70.4253C203.02 70.4253 203.226 70.4613 203.39 70.5333C203.554 70.6013 203.684 70.6993 203.78 70.8273C203.88 70.9513 203.95 71.1013 203.99 71.2773C204.03 71.4533 204.05 71.6473 204.05 71.8593V73.6113H203.492V71.9793C203.492 71.7873 203.478 71.6233 203.45 71.4873C203.426 71.3513 203.384 71.2413 203.324 71.1573C203.264 71.0733 203.184 71.0133 203.084 70.9773C202.984 70.9373 202.86 70.9173 202.712 70.9173C202.652 70.9173 202.59 70.9193 202.526 70.9233C202.462 70.9273 202.4 70.9333 202.34 70.9413C202.284 70.9453 202.232 70.9513 202.184 70.9593C202.14 70.9673 202.108 70.9733 202.088 70.9773V73.6113H201.53V70.5813Z" fill="black"/>
</g>
</g>
</g>
<g clip-path="url(#clip7_3597_7293)">
<path d="M99.3687 100.524V101.714H97.4993V106.723H96.1039V101.714H94.2346V100.524H99.3687ZM103.904 104.361C103.904 104.731 103.85 105.071 103.743 105.381C103.636 105.685 103.481 105.947 103.278 106.168C103.075 106.383 102.831 106.55 102.545 106.669C102.264 106.788 101.948 106.848 101.596 106.848C101.251 106.848 100.935 106.788 100.648 106.669C100.368 106.55 100.127 106.383 99.9238 106.168C99.721 105.947 99.563 105.685 99.4497 105.381C99.3364 105.071 99.2798 104.731 99.2798 104.361C99.2798 103.992 99.3364 103.655 99.4497 103.351C99.569 103.046 99.73 102.787 99.9327 102.572C100.141 102.358 100.386 102.191 100.666 102.072C100.952 101.952 101.262 101.893 101.596 101.893C101.936 101.893 102.246 101.952 102.527 102.072C102.813 102.191 103.057 102.358 103.26 102.572C103.463 102.787 103.621 103.046 103.734 103.351C103.847 103.655 103.904 103.992 103.904 104.361ZM102.545 104.361C102.545 103.95 102.461 103.628 102.294 103.395C102.133 103.157 101.901 103.038 101.596 103.038C101.292 103.038 101.057 103.157 100.89 103.395C100.723 103.628 100.639 103.95 100.639 104.361C100.639 104.773 100.723 105.101 100.89 105.345C101.057 105.584 101.292 105.703 101.596 105.703C101.901 105.703 102.133 105.584 102.294 105.345C102.461 105.101 102.545 104.773 102.545 104.361ZM104.892 100.846L106.224 100.631V102.018H107.825V103.127H106.224V104.782C106.224 105.062 106.272 105.286 106.368 105.453C106.469 105.62 106.669 105.703 106.967 105.703C107.11 105.703 107.256 105.691 107.405 105.667C107.56 105.637 107.7 105.599 107.825 105.551L108.013 106.588C107.852 106.654 107.673 106.711 107.477 106.758C107.28 106.806 107.038 106.83 106.752 106.83C106.388 106.83 106.087 106.782 105.849 106.687C105.61 106.586 105.419 106.448 105.276 106.275C105.133 106.097 105.032 105.882 104.972 105.631C104.919 105.381 104.892 105.104 104.892 104.8V100.846ZM110.534 105.792C110.665 105.792 110.79 105.789 110.91 105.783C111.029 105.778 111.124 105.769 111.196 105.757V104.746C111.142 104.734 111.062 104.722 110.954 104.71C110.847 104.698 110.749 104.692 110.659 104.692C110.534 104.692 110.415 104.701 110.301 104.719C110.194 104.731 110.099 104.758 110.015 104.8C109.932 104.841 109.866 104.898 109.818 104.97C109.771 105.041 109.747 105.131 109.747 105.238C109.747 105.447 109.815 105.593 109.953 105.676C110.096 105.754 110.289 105.792 110.534 105.792ZM110.427 101.893C110.82 101.893 111.148 101.937 111.41 102.027C111.673 102.116 111.882 102.244 112.037 102.411C112.198 102.578 112.311 102.781 112.376 103.02C112.442 103.258 112.475 103.524 112.475 103.816V106.588C112.284 106.63 112.019 106.678 111.679 106.732C111.339 106.791 110.927 106.821 110.444 106.821C110.14 106.821 109.863 106.794 109.613 106.741C109.368 106.687 109.156 106.6 108.978 106.481C108.799 106.356 108.662 106.195 108.566 105.998C108.471 105.801 108.423 105.56 108.423 105.274C108.423 104.999 108.477 104.767 108.584 104.576C108.697 104.385 108.846 104.233 109.031 104.12C109.216 104.007 109.428 103.926 109.666 103.878C109.905 103.825 110.152 103.798 110.409 103.798C110.582 103.798 110.734 103.807 110.865 103.825C111.002 103.837 111.112 103.854 111.196 103.878V103.753C111.196 103.527 111.127 103.345 110.99 103.207C110.853 103.07 110.614 103.002 110.275 103.002C110.048 103.002 109.824 103.02 109.604 103.055C109.383 103.085 109.192 103.13 109.031 103.19L108.861 102.116C108.939 102.092 109.034 102.069 109.148 102.045C109.267 102.015 109.395 101.991 109.532 101.973C109.669 101.949 109.812 101.931 109.961 101.919C110.117 101.902 110.272 101.893 110.427 101.893ZM115.558 106.812C115.171 106.806 114.855 106.764 114.61 106.687C114.372 106.609 114.181 106.502 114.038 106.365C113.901 106.222 113.805 106.052 113.752 105.855C113.704 105.652 113.68 105.426 113.68 105.175V99.9964L115.013 99.7818V104.907C115.013 105.026 115.022 105.134 115.04 105.229C115.057 105.324 115.09 105.405 115.138 105.47C115.192 105.536 115.266 105.59 115.362 105.631C115.457 105.673 115.585 105.7 115.746 105.712L115.558 106.812ZM118.435 104.406C118.435 103.989 118.498 103.625 118.623 103.315C118.754 102.999 118.924 102.736 119.133 102.528C119.342 102.319 119.58 102.161 119.848 102.054C120.123 101.946 120.403 101.893 120.689 101.893C121.357 101.893 121.885 102.098 122.272 102.51C122.66 102.915 122.854 103.515 122.854 104.308C122.854 104.385 122.851 104.472 122.845 104.567C122.839 104.656 122.833 104.737 122.827 104.809H119.804C119.834 105.083 119.962 105.3 120.188 105.461C120.415 105.622 120.719 105.703 121.101 105.703C121.345 105.703 121.584 105.682 121.816 105.64C122.055 105.593 122.249 105.536 122.398 105.47L122.576 106.553C122.505 106.588 122.41 106.624 122.29 106.66C122.171 106.696 122.037 106.726 121.888 106.749C121.745 106.779 121.59 106.803 121.423 106.821C121.256 106.839 121.089 106.848 120.922 106.848C120.498 106.848 120.129 106.785 119.813 106.66C119.503 106.535 119.243 106.365 119.034 106.15C118.832 105.93 118.68 105.67 118.578 105.372C118.483 105.074 118.435 104.752 118.435 104.406ZM121.566 103.896C121.56 103.783 121.539 103.673 121.503 103.565C121.473 103.458 121.423 103.363 121.351 103.279C121.286 103.196 121.199 103.127 121.092 103.073C120.99 103.02 120.862 102.993 120.707 102.993C120.558 102.993 120.43 103.02 120.322 103.073C120.215 103.121 120.126 103.187 120.054 103.27C119.983 103.354 119.926 103.452 119.884 103.565C119.848 103.673 119.822 103.783 119.804 103.896H121.566ZM125.752 103.449L126.682 102.018H128.059L126.449 104.281C126.807 104.728 127.132 105.163 127.424 105.587C127.716 106.01 127.949 106.389 128.122 106.723H126.691C126.643 106.633 126.583 106.523 126.512 106.392C126.44 106.255 126.36 106.114 126.27 105.971C126.181 105.822 126.086 105.676 125.984 105.533C125.889 105.384 125.793 105.25 125.698 105.131C125.609 105.244 125.516 105.369 125.421 105.506C125.331 105.643 125.245 105.783 125.161 105.927C125.078 106.064 124.994 106.201 124.911 106.338C124.833 106.475 124.765 106.603 124.705 106.723H123.346C123.417 106.574 123.516 106.398 123.641 106.195C123.766 105.992 123.9 105.783 124.043 105.569C124.192 105.348 124.347 105.131 124.508 104.916C124.669 104.695 124.827 104.49 124.982 104.299C124.714 103.923 124.446 103.544 124.177 103.163C123.909 102.775 123.644 102.394 123.381 102.018H124.821L125.752 103.449ZM131.849 104.406C131.849 103.995 131.757 103.667 131.572 103.422C131.387 103.172 131.113 103.046 130.749 103.046C130.63 103.046 130.519 103.052 130.418 103.064C130.317 103.07 130.233 103.079 130.168 103.091V105.497C130.251 105.551 130.358 105.596 130.49 105.631C130.627 105.667 130.764 105.685 130.901 105.685C131.533 105.685 131.849 105.259 131.849 104.406ZM133.209 104.37C133.209 104.734 133.164 105.065 133.075 105.363C132.985 105.661 132.854 105.918 132.681 106.132C132.508 106.347 132.293 106.514 132.037 106.633C131.781 106.752 131.485 106.812 131.151 106.812C130.967 106.812 130.794 106.794 130.633 106.758C130.472 106.723 130.317 106.672 130.168 106.606V108.377H128.835V102.179C128.954 102.143 129.091 102.11 129.246 102.08C129.401 102.045 129.562 102.015 129.729 101.991C129.902 101.967 130.075 101.949 130.248 101.937C130.427 101.919 130.597 101.911 130.758 101.911C131.146 101.911 131.491 101.97 131.795 102.089C132.1 102.203 132.356 102.367 132.565 102.581C132.773 102.79 132.931 103.046 133.039 103.351C133.152 103.655 133.209 103.995 133.209 104.37ZM134.009 104.406C134.009 103.989 134.072 103.625 134.197 103.315C134.328 102.999 134.498 102.736 134.707 102.528C134.916 102.319 135.154 102.161 135.423 102.054C135.697 101.946 135.977 101.893 136.263 101.893C136.931 101.893 137.459 102.098 137.847 102.51C138.234 102.915 138.428 103.515 138.428 104.308C138.428 104.385 138.425 104.472 138.419 104.567C138.413 104.656 138.407 104.737 138.401 104.809H135.378C135.408 105.083 135.536 105.3 135.762 105.461C135.989 105.622 136.293 105.703 136.675 105.703C136.919 105.703 137.158 105.682 137.39 105.64C137.629 105.593 137.823 105.536 137.972 105.47L138.151 106.553C138.079 106.588 137.984 106.624 137.864 106.66C137.745 106.696 137.611 106.726 137.462 106.749C137.319 106.779 137.164 106.803 136.997 106.821C136.83 106.839 136.663 106.848 136.496 106.848C136.073 106.848 135.703 106.785 135.387 106.66C135.077 106.535 134.817 106.365 134.609 106.15C134.406 105.93 134.254 105.67 134.152 105.372C134.057 105.074 134.009 104.752 134.009 104.406ZM137.14 103.896C137.134 103.783 137.113 103.673 137.077 103.565C137.048 103.458 136.997 103.363 136.925 103.279C136.86 103.196 136.773 103.127 136.666 103.073C136.565 103.02 136.436 102.993 136.281 102.993C136.132 102.993 136.004 103.02 135.897 103.073C135.789 103.121 135.7 103.187 135.628 103.27C135.557 103.354 135.5 103.452 135.458 103.565C135.423 103.673 135.396 103.783 135.378 103.896H137.14ZM139.456 102.179C139.683 102.113 139.975 102.054 140.333 102C140.691 101.94 141.066 101.911 141.46 101.911C141.859 101.911 142.19 101.964 142.453 102.072C142.721 102.173 142.933 102.319 143.088 102.51C143.243 102.701 143.353 102.927 143.419 103.19C143.484 103.452 143.517 103.744 143.517 104.066V106.723H142.184V104.227C142.184 103.798 142.128 103.494 142.015 103.315C141.901 103.136 141.69 103.046 141.379 103.046C141.284 103.046 141.183 103.052 141.075 103.064C140.968 103.07 140.873 103.079 140.789 103.091V106.723H139.456V102.179ZM146.074 105.766C146.319 105.766 146.492 105.742 146.593 105.694C146.694 105.646 146.745 105.554 146.745 105.417C146.745 105.309 146.679 105.217 146.548 105.139C146.417 105.056 146.217 104.964 145.949 104.862C145.74 104.785 145.549 104.704 145.376 104.621C145.209 104.537 145.066 104.439 144.947 104.326C144.828 104.206 144.735 104.066 144.67 103.905C144.604 103.744 144.571 103.55 144.571 103.324C144.571 102.883 144.735 102.534 145.063 102.277C145.391 102.021 145.842 101.893 146.414 101.893C146.7 101.893 146.975 101.919 147.237 101.973C147.499 102.021 147.708 102.075 147.863 102.134L147.63 103.172C147.475 103.118 147.305 103.07 147.121 103.029C146.942 102.987 146.739 102.966 146.512 102.966C146.095 102.966 145.886 103.082 145.886 103.315C145.886 103.368 145.895 103.416 145.913 103.458C145.931 103.5 145.967 103.541 146.02 103.583C146.074 103.619 146.146 103.661 146.235 103.708C146.331 103.75 146.45 103.798 146.593 103.851C146.885 103.959 147.127 104.066 147.317 104.173C147.508 104.275 147.657 104.388 147.765 104.513C147.878 104.633 147.955 104.767 147.997 104.916C148.045 105.065 148.069 105.238 148.069 105.435C148.069 105.9 147.893 106.252 147.541 106.49C147.195 106.729 146.703 106.848 146.065 106.848C145.648 106.848 145.299 106.812 145.019 106.741C144.744 106.669 144.554 106.609 144.446 106.562L144.67 105.479C144.896 105.569 145.129 105.64 145.367 105.694C145.606 105.742 145.842 105.766 146.074 105.766ZM148.841 104.406C148.841 103.989 148.904 103.625 149.029 103.315C149.16 102.999 149.33 102.736 149.539 102.528C149.747 102.319 149.986 102.161 150.254 102.054C150.529 101.946 150.809 101.893 151.095 101.893C151.763 101.893 152.291 102.098 152.678 102.51C153.066 102.915 153.26 103.515 153.26 104.308C153.26 104.385 153.257 104.472 153.251 104.567C153.245 104.656 153.239 104.737 153.233 104.809H150.21C150.239 105.083 150.368 105.3 150.594 105.461C150.821 105.622 151.125 105.703 151.507 105.703C151.751 105.703 151.99 105.682 152.222 105.64C152.461 105.593 152.654 105.536 152.803 105.47L152.982 106.553C152.911 106.588 152.815 106.624 152.696 106.66C152.577 106.696 152.443 106.726 152.294 106.749C152.151 106.779 151.995 106.803 151.829 106.821C151.662 106.839 151.495 106.848 151.328 106.848C150.904 106.848 150.535 106.785 150.219 106.66C149.908 106.535 149.649 106.365 149.44 106.15C149.238 105.93 149.086 105.67 148.984 105.372C148.889 105.074 148.841 104.752 148.841 104.406ZM151.972 103.896C151.966 103.783 151.945 103.673 151.909 103.565C151.879 103.458 151.829 103.363 151.757 103.279C151.691 103.196 151.605 103.127 151.498 103.073C151.396 103.02 151.268 102.993 151.113 102.993C150.964 102.993 150.836 103.02 150.728 103.073C150.621 103.121 150.532 103.187 150.46 103.27C150.388 103.354 150.332 103.452 150.29 103.565C150.254 103.673 150.227 103.783 150.21 103.896H151.972Z" fill="black"/>
</g>
<g clip-path="url(#clip8_3597_7293)">
<circle cx="98.5279" cy="133.917" r="4.47222" fill="#FF9417"/>
<circle cx="102.806" cy="133.917" r="4.47222" fill="#363636"/>
<circle cx="107.084" cy="133.917" r="4.47222" fill="#46C480"/>
<circle cx="111.361" cy="133.917" r="4.47222" fill="#56A4FF"/>
<path d="M96.0623 125.032C95.7979 125.032 95.5684 124.991 95.374 124.909C95.1796 124.828 95.0201 124.717 94.8957 124.577C94.7712 124.433 94.6779 124.264 94.6157 124.069C94.5573 123.875 94.5282 123.665 94.5282 123.439V120.902H95.094V123.375C95.094 123.78 95.1834 124.073 95.3623 124.256C95.5412 124.439 95.7746 124.53 96.0623 124.53C96.2062 124.53 96.3365 124.509 96.4532 124.466C96.5737 124.419 96.6768 124.349 96.7623 124.256C96.8479 124.163 96.914 124.044 96.9607 123.9C97.0073 123.752 97.0307 123.577 97.0307 123.375V120.902H97.5965V123.439C97.5965 123.665 97.5654 123.875 97.5032 124.069C97.4448 124.264 97.3515 124.433 97.2232 124.577C97.0987 124.717 96.9393 124.828 96.7448 124.909C96.5543 124.991 96.3268 125.032 96.0623 125.032ZM99.5126 124.542C100.104 124.542 100.399 124.34 100.399 123.935C100.399 123.811 100.372 123.706 100.318 123.62C100.267 123.531 100.197 123.455 100.108 123.393C100.018 123.327 99.9151 123.27 99.7984 123.224C99.6857 123.177 99.5651 123.13 99.4368 123.084C99.289 123.033 99.149 122.977 99.0168 122.914C98.8846 122.848 98.7698 122.772 98.6726 122.687C98.5754 122.597 98.4976 122.492 98.4393 122.372C98.3848 122.251 98.3576 122.105 98.3576 121.934C98.3576 121.58 98.4782 121.304 98.7193 121.106C98.9604 120.908 99.2929 120.809 99.7168 120.809C99.9618 120.809 100.183 120.836 100.382 120.89C100.584 120.941 100.732 120.997 100.825 121.059L100.644 121.52C100.563 121.47 100.44 121.421 100.277 121.374C100.117 121.324 99.9307 121.299 99.7168 121.299C99.6079 121.299 99.5068 121.31 99.4134 121.334C99.3201 121.357 99.2384 121.392 99.1684 121.439C99.0984 121.485 99.0421 121.545 98.9993 121.619C98.9604 121.689 98.9409 121.773 98.9409 121.87C98.9409 121.979 98.9623 122.07 99.0051 122.144C99.0479 122.218 99.1082 122.284 99.1859 122.343C99.2637 122.397 99.3532 122.448 99.4543 122.494C99.5593 122.541 99.674 122.588 99.7984 122.634C99.9734 122.704 100.133 122.774 100.277 122.844C100.425 122.914 100.551 122.998 100.656 123.095C100.765 123.192 100.848 123.309 100.907 123.445C100.965 123.577 100.994 123.739 100.994 123.929C100.994 124.283 100.864 124.555 100.603 124.746C100.347 124.937 99.9832 125.032 99.5126 125.032C99.3532 125.032 99.2054 125.02 99.0693 124.997C98.9371 124.977 98.8184 124.954 98.7134 124.927C98.6084 124.896 98.5171 124.865 98.4393 124.834C98.3654 124.799 98.3071 124.769 98.2643 124.746L98.4334 124.279C98.5229 124.33 98.659 124.386 98.8418 124.449C99.0246 124.511 99.2482 124.542 99.5126 124.542ZM104.997 122.92C104.997 123.27 104.943 123.575 104.834 123.836C104.725 124.093 104.571 124.307 104.373 124.478C104.175 124.645 103.938 124.771 103.661 124.857C103.385 124.939 103.082 124.979 102.751 124.979C102.588 124.979 102.407 124.972 102.209 124.956C102.014 124.944 101.838 124.919 101.678 124.88V120.96C101.838 120.921 102.014 120.896 102.209 120.884C102.407 120.869 102.588 120.861 102.751 120.861C103.082 120.861 103.385 120.904 103.661 120.989C103.938 121.071 104.175 121.197 104.373 121.369C104.571 121.536 104.725 121.75 104.834 122.01C104.943 122.267 104.997 122.57 104.997 122.92ZM102.798 124.484C103.335 124.484 103.735 124.347 104 124.075C104.264 123.799 104.396 123.414 104.396 122.92C104.396 122.426 104.264 122.043 104 121.771C103.735 121.495 103.335 121.357 102.798 121.357C102.639 121.357 102.514 121.359 102.425 121.363C102.339 121.367 102.279 121.37 102.244 121.374V124.466C102.279 124.47 102.339 124.474 102.425 124.478C102.514 124.482 102.639 124.484 102.798 124.484ZM110.453 120.902C110.306 121.33 110.164 121.726 110.028 122.092C109.895 122.454 109.765 122.798 109.637 123.124C109.508 123.451 109.38 123.764 109.252 124.064C109.127 124.359 108.999 124.653 108.867 124.944H108.336C108.204 124.653 108.073 124.359 107.945 124.064C107.821 123.764 107.692 123.451 107.56 123.124C107.432 122.798 107.3 122.454 107.163 122.092C107.027 121.726 106.887 121.33 106.743 120.902H107.368C107.578 121.516 107.784 122.107 107.986 122.675C108.188 123.243 108.396 123.776 108.61 124.274C108.824 123.78 109.032 123.249 109.234 122.681C109.436 122.109 109.641 121.516 109.847 120.902H110.453ZM111.858 124.554C111.987 124.554 112.1 124.552 112.197 124.548C112.298 124.54 112.381 124.528 112.448 124.513V123.609C112.409 123.589 112.345 123.574 112.255 123.562C112.17 123.546 112.065 123.539 111.94 123.539C111.858 123.539 111.771 123.544 111.678 123.556C111.588 123.568 111.505 123.593 111.427 123.632C111.353 123.667 111.291 123.717 111.24 123.784C111.19 123.846 111.164 123.929 111.164 124.034C111.164 124.229 111.226 124.365 111.351 124.443C111.475 124.517 111.645 124.554 111.858 124.554ZM111.812 121.835C112.03 121.835 112.212 121.864 112.36 121.923C112.512 121.977 112.632 122.057 112.722 122.162C112.815 122.263 112.881 122.385 112.92 122.529C112.959 122.669 112.978 122.825 112.978 122.996V124.892C112.932 124.9 112.866 124.911 112.78 124.927C112.698 124.939 112.605 124.95 112.5 124.962C112.395 124.974 112.28 124.983 112.156 124.991C112.035 125.003 111.915 125.009 111.794 125.009C111.623 125.009 111.466 124.991 111.322 124.956C111.178 124.921 111.053 124.867 110.948 124.793C110.843 124.715 110.762 124.614 110.703 124.489C110.645 124.365 110.616 124.215 110.616 124.04C110.616 123.873 110.649 123.729 110.715 123.609C110.785 123.488 110.878 123.391 110.995 123.317C111.112 123.243 111.248 123.189 111.403 123.154C111.559 123.119 111.722 123.101 111.893 123.101C111.948 123.101 112.004 123.105 112.063 123.113C112.121 123.117 112.175 123.124 112.226 123.136C112.28 123.144 112.327 123.152 112.366 123.159C112.405 123.167 112.432 123.173 112.448 123.177V123.025C112.448 122.936 112.438 122.848 112.418 122.763C112.399 122.673 112.364 122.595 112.313 122.529C112.263 122.459 112.193 122.405 112.103 122.366C112.018 122.323 111.905 122.302 111.765 122.302C111.586 122.302 111.429 122.315 111.293 122.343C111.16 122.366 111.061 122.391 110.995 122.419L110.931 121.969C111.001 121.938 111.118 121.909 111.281 121.882C111.444 121.851 111.621 121.835 111.812 121.835ZM114.789 125.003C114.455 124.995 114.218 124.923 114.078 124.787C113.938 124.651 113.868 124.439 113.868 124.151V120.511L114.41 120.418V124.064C114.41 124.153 114.418 124.227 114.434 124.285C114.449 124.344 114.474 124.39 114.509 124.425C114.544 124.46 114.591 124.487 114.649 124.507C114.708 124.522 114.78 124.536 114.865 124.548L114.789 125.003ZM117.889 124.857C117.765 124.888 117.6 124.921 117.394 124.956C117.191 124.991 116.956 125.009 116.688 125.009C116.454 125.009 116.258 124.975 116.099 124.909C115.939 124.839 115.811 124.742 115.714 124.618C115.616 124.493 115.546 124.347 115.504 124.18C115.461 124.009 115.439 123.82 115.439 123.614V121.911H115.982V123.498C115.982 123.867 116.04 124.132 116.157 124.291C116.274 124.45 116.47 124.53 116.746 124.53C116.804 124.53 116.865 124.528 116.927 124.524C116.989 124.52 117.048 124.517 117.102 124.513C117.156 124.505 117.205 124.499 117.248 124.495C117.294 124.487 117.328 124.48 117.347 124.472V121.911H117.889V124.857ZM118.655 123.434C118.655 123.165 118.694 122.932 118.772 122.734C118.849 122.531 118.952 122.364 119.081 122.232C119.209 122.1 119.357 122 119.524 121.934C119.691 121.868 119.862 121.835 120.037 121.835C120.446 121.835 120.759 121.964 120.977 122.22C121.194 122.473 121.303 122.86 121.303 123.381C121.303 123.404 121.303 123.435 121.303 123.474C121.303 123.509 121.301 123.542 121.297 123.574H119.221C119.244 123.889 119.335 124.128 119.495 124.291C119.654 124.454 119.903 124.536 120.242 124.536C120.432 124.536 120.592 124.52 120.72 124.489C120.852 124.454 120.951 124.421 121.017 124.39L121.093 124.845C121.027 124.88 120.91 124.917 120.743 124.956C120.58 124.995 120.393 125.014 120.183 125.014C119.919 125.014 119.689 124.975 119.495 124.898C119.304 124.816 119.147 124.705 119.022 124.565C118.898 124.425 118.805 124.26 118.742 124.069C118.684 123.875 118.655 123.663 118.655 123.434ZM120.737 123.136C120.741 122.891 120.679 122.691 120.551 122.535C120.426 122.376 120.253 122.296 120.032 122.296C119.907 122.296 119.796 122.321 119.699 122.372C119.606 122.419 119.526 122.481 119.46 122.559C119.394 122.636 119.341 122.726 119.302 122.827C119.267 122.928 119.244 123.031 119.232 123.136H120.737Z" fill="black"/>
<path d="M121.932 136.4C121.446 136.36 121.049 136.287 120.742 136.18C120.442 136.067 120.219 135.973 120.072 135.9L120.502 134.75C120.736 134.863 121.012 134.967 121.332 135.06C121.659 135.153 122.002 135.2 122.362 135.2C122.769 135.2 123.046 135.147 123.192 135.04C123.346 134.927 123.422 134.77 123.422 134.57C123.422 134.443 123.392 134.337 123.332 134.25C123.272 134.157 123.186 134.073 123.072 134C122.959 133.927 122.816 133.857 122.642 133.79C122.469 133.717 122.269 133.64 122.042 133.56C121.822 133.48 121.606 133.393 121.392 133.3C121.186 133.2 120.996 133.08 120.822 132.94C120.656 132.8 120.519 132.63 120.412 132.43C120.312 132.223 120.262 131.977 120.262 131.69C120.262 131.47 120.292 131.26 120.352 131.06C120.419 130.853 120.519 130.667 120.652 130.5C120.786 130.333 120.959 130.193 121.172 130.08C121.386 129.96 121.639 129.873 121.932 129.82V128.74H123.192V129.78C123.539 129.813 123.836 129.863 124.082 129.93C124.336 129.997 124.536 130.063 124.682 130.13L124.372 131.33C124.152 131.237 123.896 131.157 123.602 131.09C123.316 131.023 123.012 130.99 122.692 130.99C122.372 130.99 122.142 131.043 122.002 131.15C121.862 131.257 121.792 131.397 121.792 131.57C121.792 131.677 121.812 131.77 121.852 131.85C121.899 131.923 121.969 131.99 122.062 132.05C122.156 132.11 122.269 132.17 122.402 132.23C122.542 132.283 122.709 132.343 122.902 132.41C123.196 132.517 123.466 132.633 123.712 132.76C123.966 132.887 124.182 133.033 124.362 133.2C124.549 133.36 124.692 133.55 124.792 133.77C124.899 133.99 124.952 134.247 124.952 134.54C124.952 134.74 124.922 134.94 124.862 135.14C124.802 135.333 124.702 135.513 124.562 135.68C124.422 135.847 124.239 135.99 124.012 136.11C123.792 136.23 123.519 136.317 123.192 136.37V137.59H121.932V136.4ZM130.366 131.39C130.366 131.643 130.316 131.887 130.216 132.12C130.116 132.353 129.986 132.58 129.826 132.8C129.666 133.013 129.486 133.22 129.286 133.42C129.086 133.62 128.889 133.81 128.696 133.99C128.596 134.083 128.486 134.19 128.366 134.31C128.253 134.423 128.143 134.54 128.036 134.66C127.929 134.78 127.833 134.893 127.746 135C127.666 135.1 127.616 135.183 127.596 135.25H130.576V136.5H125.956C125.943 136.427 125.936 136.333 125.936 136.22C125.936 136.107 125.936 136.027 125.936 135.98C125.936 135.66 125.986 135.367 126.086 135.1C126.193 134.833 126.329 134.587 126.496 134.36C126.663 134.127 126.849 133.91 127.056 133.71C127.269 133.51 127.479 133.31 127.686 133.11C127.846 132.957 127.996 132.813 128.136 132.68C128.276 132.54 128.399 132.407 128.506 132.28C128.613 132.147 128.696 132.017 128.756 131.89C128.816 131.757 128.846 131.623 128.846 131.49C128.846 131.197 128.763 130.99 128.596 130.87C128.429 130.75 128.223 130.69 127.976 130.69C127.796 130.69 127.626 130.72 127.466 130.78C127.313 130.833 127.169 130.9 127.036 130.98C126.909 131.053 126.799 131.13 126.706 131.21C126.613 131.283 126.543 131.343 126.496 131.39L125.756 130.35C126.049 130.077 126.389 129.853 126.776 129.68C127.169 129.5 127.589 129.41 128.036 129.41C128.443 129.41 128.793 129.457 129.086 129.55C129.379 129.643 129.619 129.777 129.806 129.95C129.999 130.117 130.139 130.323 130.226 130.57C130.319 130.81 130.366 131.083 130.366 131.39ZM133.2 134.98C133.213 135.14 133.22 135.253 133.22 135.32C133.226 135.387 133.23 135.443 133.23 135.49C133.23 135.69 133.21 135.903 133.17 136.13C133.136 136.35 133.086 136.573 133.02 136.8C132.953 137.027 132.87 137.253 132.77 137.48C132.67 137.707 132.556 137.923 132.43 138.13L131.26 137.84C131.413 137.4 131.52 136.987 131.58 136.6C131.64 136.213 131.67 135.893 131.67 135.64C131.67 135.6 131.666 135.55 131.66 135.49C131.66 135.423 131.656 135.357 131.65 135.29C131.65 135.223 131.646 135.16 131.64 135.1C131.64 135.04 131.64 135 131.64 134.98H133.2ZM137.151 134.46C137.151 134.267 137.107 134.097 137.021 133.95C136.934 133.797 136.784 133.67 136.571 133.57C136.357 133.47 136.071 133.393 135.711 133.34C135.351 133.287 134.897 133.26 134.351 133.26C134.424 132.64 134.484 132.01 134.531 131.37C134.577 130.73 134.614 130.13 134.641 129.57H138.391V130.82H135.891C135.877 131.06 135.861 131.293 135.841 131.52C135.827 131.74 135.811 131.933 135.791 132.1C136.764 132.167 137.481 132.397 137.941 132.79C138.407 133.177 138.641 133.717 138.641 134.41C138.641 134.73 138.584 135.027 138.471 135.3C138.357 135.573 138.187 135.81 137.961 136.01C137.734 136.21 137.447 136.367 137.101 136.48C136.761 136.593 136.361 136.65 135.901 136.65C135.721 136.65 135.531 136.637 135.331 136.61C135.137 136.59 134.947 136.56 134.761 136.52C134.581 136.487 134.417 136.45 134.271 136.41C134.124 136.37 134.011 136.33 133.931 136.29L134.201 135.06C134.367 135.133 134.587 135.207 134.861 135.28C135.134 135.347 135.461 135.38 135.841 135.38C136.301 135.38 136.634 135.29 136.841 135.11C137.047 134.923 137.151 134.707 137.151 134.46ZM141.974 133.24C141.827 133.24 141.671 133.253 141.504 133.28C141.337 133.307 141.207 133.343 141.114 133.39C141.114 133.417 141.111 133.457 141.104 133.51C141.104 133.563 141.104 133.61 141.104 133.65C141.104 133.89 141.121 134.117 141.154 134.33C141.187 134.543 141.244 134.73 141.324 134.89C141.404 135.05 141.511 135.177 141.644 135.27C141.777 135.357 141.944 135.4 142.144 135.4C142.311 135.4 142.451 135.367 142.564 135.3C142.684 135.227 142.781 135.137 142.854 135.03C142.934 134.923 142.991 134.807 143.024 134.68C143.064 134.547 143.084 134.42 143.084 134.3C143.084 133.96 142.997 133.7 142.824 133.52C142.657 133.333 142.374 133.24 141.974 133.24ZM142.164 132.08C142.597 132.08 142.964 132.14 143.264 132.26C143.571 132.373 143.821 132.53 144.014 132.73C144.207 132.93 144.347 133.163 144.434 133.43C144.521 133.697 144.564 133.98 144.564 134.28C144.564 134.547 144.514 134.82 144.414 135.1C144.321 135.38 144.174 135.633 143.974 135.86C143.781 136.087 143.531 136.273 143.224 136.42C142.924 136.567 142.567 136.64 142.154 136.64C141.321 136.64 140.687 136.377 140.254 135.85C139.821 135.323 139.604 134.597 139.604 133.67C139.604 133.003 139.707 132.413 139.914 131.9C140.121 131.387 140.414 130.957 140.794 130.61C141.181 130.257 141.644 129.99 142.184 129.81C142.731 129.623 143.344 129.527 144.024 129.52C144.037 129.727 144.051 129.93 144.064 130.13C144.077 130.323 144.091 130.527 144.104 130.74C143.764 130.747 143.444 130.78 143.144 130.84C142.851 130.893 142.581 130.98 142.334 131.1C142.094 131.22 141.884 131.377 141.704 131.57C141.524 131.757 141.384 131.987 141.284 132.26C141.431 132.193 141.581 132.147 141.734 132.12C141.887 132.093 142.031 132.08 142.164 132.08ZM148.108 131.39C147.848 131.73 147.571 132.1 147.278 132.5C146.984 132.9 146.738 133.31 146.538 133.73H148.108V131.39ZM149.568 129.57V133.73H150.308V134.95H149.568V136.5H148.108V134.95H145.118V133.86C145.264 133.567 145.448 133.237 145.668 132.87C145.888 132.497 146.131 132.117 146.398 131.73C146.671 131.337 146.958 130.953 147.258 130.58C147.558 130.207 147.858 129.87 148.158 129.57H149.568ZM152.761 135.71C152.761 136.01 152.665 136.24 152.471 136.4C152.285 136.553 152.071 136.63 151.831 136.63C151.591 136.63 151.375 136.553 151.181 136.4C150.995 136.24 150.901 136.01 150.901 135.71C150.901 135.41 150.995 135.183 151.181 135.03C151.375 134.87 151.591 134.79 151.831 134.79C152.071 134.79 152.285 134.87 152.471 135.03C152.665 135.183 152.761 135.41 152.761 135.71ZM156.662 134.46C156.662 134.267 156.619 134.097 156.532 133.95C156.446 133.797 156.296 133.67 156.082 133.57C155.869 133.47 155.582 133.393 155.222 133.34C154.862 133.287 154.409 133.26 153.862 133.26C153.936 132.64 153.996 132.01 154.042 131.37C154.089 130.73 154.126 130.13 154.152 129.57H157.902V130.82H155.402C155.389 131.06 155.372 131.293 155.352 131.52C155.339 131.74 155.322 131.933 155.302 132.1C156.276 132.167 156.992 132.397 157.452 132.79C157.919 133.177 158.152 133.717 158.152 134.41C158.152 134.73 158.096 135.027 157.982 135.3C157.869 135.573 157.699 135.81 157.472 136.01C157.246 136.21 156.959 136.367 156.612 136.48C156.272 136.593 155.872 136.65 155.412 136.65C155.232 136.65 155.042 136.637 154.842 136.61C154.649 136.59 154.459 136.56 154.272 136.52C154.092 136.487 153.929 136.45 153.782 136.41C153.636 136.37 153.522 136.33 153.442 136.29L153.712 135.06C153.879 135.133 154.099 135.207 154.372 135.28C154.646 135.347 154.972 135.38 155.352 135.38C155.812 135.38 156.146 135.29 156.352 135.11C156.559 134.923 156.662 134.707 156.662 134.46ZM161.636 132.78C161.789 132.78 161.949 132.767 162.116 132.74C162.283 132.707 162.406 132.663 162.486 132.61V132.52C162.486 132.493 162.486 132.467 162.486 132.44C162.493 132.413 162.496 132.39 162.496 132.37C162.489 132.13 162.469 131.907 162.436 131.7C162.403 131.487 162.346 131.303 162.266 131.15C162.186 130.99 162.076 130.867 161.936 130.78C161.803 130.687 161.636 130.64 161.436 130.64C161.276 130.64 161.136 130.673 161.016 130.74C160.896 130.807 160.799 130.893 160.726 131C160.653 131.107 160.596 131.223 160.556 131.35C160.523 131.477 160.506 131.6 160.506 131.72C160.506 132.08 160.593 132.347 160.766 132.52C160.946 132.693 161.236 132.78 161.636 132.78ZM162.366 133.75C162.226 133.817 162.069 133.867 161.896 133.9C161.729 133.927 161.586 133.94 161.466 133.94C161.033 133.94 160.663 133.89 160.356 133.79C160.049 133.683 159.796 133.537 159.596 133.35C159.403 133.157 159.259 132.927 159.166 132.66C159.073 132.393 159.026 132.1 159.026 131.78C159.026 131.513 159.069 131.24 159.156 130.96C159.249 130.68 159.393 130.427 159.586 130.2C159.779 129.967 160.023 129.777 160.316 129.63C160.616 129.477 160.976 129.4 161.396 129.4C162.256 129.4 162.903 129.667 163.336 130.2C163.776 130.727 163.996 131.487 163.996 132.48C163.996 133.133 163.909 133.71 163.736 134.21C163.569 134.71 163.306 135.13 162.946 135.47C162.593 135.81 162.139 136.07 161.586 136.25C161.033 136.423 160.376 136.513 159.616 136.52C159.609 136.307 159.599 136.1 159.586 135.9C159.573 135.7 159.559 135.493 159.546 135.28C159.926 135.273 160.269 135.247 160.576 135.2C160.883 135.147 161.153 135.063 161.386 134.95C161.619 134.83 161.816 134.673 161.976 134.48C162.143 134.287 162.273 134.043 162.366 133.75Z" fill="black"/>
<rect x="191.441" y="119.389" width="18.5036" height="18.6667" rx="9.25179" fill="#F5F5F5"/>
<path d="M196.937 129.994L197.715 131.34C197.767 131.429 197.852 131.494 197.951 131.52C198.051 131.547 198.157 131.533 198.246 131.481L198.789 131.168C199.015 131.346 199.264 131.492 199.526 131.6V132.222C199.526 132.325 199.567 132.424 199.64 132.497C199.713 132.57 199.812 132.611 199.915 132.611H201.471C201.574 132.611 201.673 132.57 201.746 132.497C201.818 132.424 201.859 132.325 201.859 132.222V131.6C202.124 131.49 202.372 131.345 202.596 131.168L203.139 131.481C203.325 131.588 203.564 131.524 203.671 131.34L204.448 129.994C204.499 129.905 204.513 129.799 204.487 129.699C204.46 129.6 204.395 129.515 204.306 129.463L203.773 129.154C203.814 128.868 203.814 128.576 203.772 128.289L204.306 127.981C204.491 127.874 204.555 127.635 204.448 127.45L203.67 126.104C203.618 126.015 203.533 125.95 203.434 125.923C203.334 125.897 203.228 125.911 203.139 125.962L202.596 126.276C202.371 126.099 202.123 125.953 201.859 125.843V125.222C201.859 125.119 201.818 125.02 201.745 124.947C201.672 124.874 201.573 124.833 201.47 124.833H199.915C199.811 124.833 199.713 124.874 199.64 124.947C199.567 125.02 199.526 125.119 199.526 125.222V125.843C199.262 125.953 199.014 126.099 198.789 126.276L198.246 125.962C198.202 125.937 198.153 125.92 198.103 125.913C198.052 125.907 198.001 125.91 197.951 125.923C197.902 125.936 197.856 125.959 197.815 125.99C197.775 126.021 197.741 126.06 197.715 126.104L196.937 127.45C196.886 127.539 196.872 127.645 196.899 127.745C196.925 127.844 196.99 127.929 197.079 127.981L197.613 128.289C197.571 128.576 197.571 128.868 197.613 129.154L197.079 129.463C196.894 129.57 196.83 129.809 196.937 129.994ZM200.692 127.166C201.55 127.166 202.248 127.864 202.248 128.722C202.248 129.58 201.55 130.277 200.692 130.277C199.835 130.277 199.137 129.58 199.137 128.722C199.137 127.864 199.835 127.166 200.692 127.166Z" fill="black"/>
</g>
</g>
<defs>
<filter id="filter0_d_3597_7293" x="0" y="0" width="236" height="236" filterUnits="userSpaceOnUse" color-interpolation-filters="sRGB">
<feFlood flood-opacity="0" result="BackgroundImageFix"/>
<feColorMatrix in="SourceAlpha" type="matrix" values="0 0 0 0 0 0 0 0 0 0 0 0 0 0 0 0 0 0 127 0" result="hardAlpha"/>
<feMorphology radius="20" operator="erode" in="SourceAlpha" result="effect1_dropShadow_3597_7293"/>
<feOffset dx="-34" dy="36"/>
<feGaussianBlur stdDeviation="34"/>
<feComposite in2="hardAlpha" operator="out"/>
<feColorMatrix type="matrix" values="0 0 0 0 0.808333 0 0 0 0 0.808333 0 0 0 0 0.808333 0 0 0 1 0"/>
<feBlend mode="normal" in2="BackgroundImageFix" result="effect1_dropShadow_3597_7293"/>
<feBlend mode="normal" in="SourceGraphic" in2="effect1_dropShadow_3597_7293" result="shape"/>
</filter>
<clipPath id="clip0_3597_7293">
<rect width="115.889" height="63.7778" fill="white" transform="translate(94.0557 25.2227)"/>
</clipPath>
<clipPath id="clip1_3597_7293">
<rect width="63.7778" height="63.7778" fill="white" transform="translate(94.0557 25.2227)"/>
</clipPath>
<clipPath id="clip2_3597_7293">
<rect width="35.5556" height="35" fill="white" transform="translate(174.389 39.6113)"/>
</clipPath>
<clipPath id="clip3_3597_7293">
<rect width="27.5556" height="7" fill="white" transform="translate(174.389 39.6113)"/>
</clipPath>
<clipPath id="clip4_3597_7293">
<rect width="35.5556" height="7" fill="white" transform="translate(174.389 48.9443)"/>
</clipPath>
<clipPath id="clip5_3597_7293">
<rect width="26.5556" height="7" fill="white" transform="translate(174.389 58.2783)"/>
</clipPath>
<clipPath id="clip6_3597_7293">
<rect width="30.5556" height="7" fill="white" transform="translate(174.389 67.6113)"/>
</clipPath>
<clipPath id="clip7_3597_7293">
<rect width="115.889" height="10.5" fill="white" transform="translate(94.0557 98.7227)"/>
</clipPath>
<clipPath id="clip8_3597_7293">
<rect width="115.889" height="19.5557" fill="white" transform="translate(94.0557 118.944)"/>
</clipPath>
</defs>
</svg>
