<svg width="236" height="236" viewBox="0 0 236 236" fill="none" xmlns="http://www.w3.org/2000/svg">
<g filter="url(#filter0_d_110_1809)">
<rect x="82" y="12" width="140" height="140" rx="7.77778" fill="white"/>
<g clip-path="url(#clip0_110_1809)">
<g clip-path="url(#clip1_110_1809)">
<path d="M151.755 75.9694C156.235 69.8206 158.354 62.2654 157.725 54.6837C157.096 47.102 153.76 39.9996 148.328 34.6735C142.895 29.3474 135.728 26.1531 128.136 25.6738C120.543 25.1945 113.031 27.4623 106.972 32.063C100.913 36.6637 96.7112 43.2904 95.1335 50.7328C93.5559 58.1752 94.7079 65.9368 98.3792 72.6001C102.051 79.2634 107.996 84.3839 115.13 87.0264C122.264 89.6689 130.111 89.6571 137.237 86.9932L133.908 78.0868C128.919 79.9516 123.427 79.9598 118.433 78.1101C113.439 76.2603 109.277 72.676 106.707 68.0117C104.137 63.3473 103.331 57.9142 104.435 52.7045C105.54 47.4948 108.481 42.8562 112.722 39.6357C116.964 36.4152 122.222 34.8278 127.537 35.1632C132.852 35.4987 137.868 37.7348 141.671 41.463C145.474 45.1913 147.809 50.163 148.249 55.4702C148.69 60.7774 147.206 66.066 144.07 70.3701L151.755 75.9694Z" fill="#F5F5F5"/>
<path d="M153.079 57.3053C155.705 57.3053 157.87 59.4455 157.478 62.0417C157.034 64.9772 156.179 67.8438 154.931 70.5551C153.019 74.7105 150.23 78.4027 146.755 81.3782C143.281 84.3536 139.204 86.5418 134.804 87.7923C130.404 89.0429 125.785 89.3262 121.265 88.6228C116.745 87.9194 112.431 86.2459 108.619 83.7174C104.807 81.1889 101.588 77.8652 99.1822 73.9747C96.7764 70.0842 95.2413 65.719 94.6822 61.179C94.3174 58.2167 94.3738 55.2259 94.8432 52.2943C95.2583 49.7017 97.9713 48.3206 100.473 49.1185V49.1185C102.974 49.9164 104.3 52.5983 104.052 55.2122C103.901 56.8069 103.922 58.4178 104.119 60.0169C104.511 63.1949 105.585 66.2505 107.269 68.9739C108.953 71.6972 111.207 74.0238 113.875 75.7938C116.544 77.5637 119.563 78.7351 122.727 79.2275C125.891 79.7199 129.124 79.5216 132.204 78.6462C135.284 77.7708 138.138 76.2391 140.57 74.1563C143.002 72.0735 144.955 69.4889 146.293 66.5801C146.967 65.1166 147.477 63.5883 147.818 62.0232C148.376 59.4576 150.454 57.3053 153.079 57.3053V57.3053Z" fill="#56A4FF"/>
<path d="M112.861 80.7463C111.567 83.0309 108.638 83.8599 106.572 82.2389C102.108 78.7358 98.6425 74.0784 96.5759 68.7315C94.5093 63.3847 93.942 57.6069 94.8896 52.0123C95.3281 49.4235 98.0535 48.0669 100.548 48.8873V48.8873C103.042 49.7077 104.343 52.4015 104.072 55.0131C103.711 58.4816 104.172 62.0095 105.445 65.3037C106.718 68.5979 108.75 71.5182 111.349 73.8428C113.307 75.5932 114.155 78.4617 112.861 80.7463V80.7463Z" fill="#46C480"/>
<path d="M130.212 83.9359C130.609 86.5314 128.821 88.9951 126.195 88.9997C120.475 89.0098 114.826 87.4707 109.867 84.5035C104.907 81.5363 100.88 77.2867 98.1845 72.2414C96.9472 69.9255 98.2726 67.1848 100.747 66.3074V66.3074C103.222 65.4301 105.899 66.7645 107.283 68.996C109.137 71.9869 111.689 74.514 114.748 76.344C117.807 78.1741 121.241 79.2281 124.753 79.4481C127.373 79.6122 129.815 81.3404 130.212 83.9359V83.9359Z" fill="#363636"/>
<path d="M147.495 73.7281C149.576 75.3287 149.988 78.3451 148.094 80.1639C144.21 83.8942 139.419 86.5924 134.159 87.9682C128.899 89.3441 123.4 89.3371 118.187 87.9861C115.646 87.3274 114.528 84.4957 115.559 82.081V82.081C116.59 79.6664 119.385 78.601 121.964 79.0951C125.191 79.7134 128.536 79.6108 131.753 78.7694C134.97 77.9279 137.937 76.3798 140.448 74.2606C142.454 72.5672 145.413 72.1275 147.495 73.7281V73.7281Z" fill="#FF9417"/>
<path d="M117.38 61.8887C117.423 61.3587 117.514 60.807 117.652 60.2336C117.79 59.6601 117.957 59.0975 118.153 58.5458C118.356 57.9941 118.581 57.475 118.828 56.9887C119.075 56.495 119.325 56.0704 119.579 55.7147H116.302V54.3318H121.583V55.5078C121.351 55.7619 121.093 56.1139 120.81 56.564C120.534 57.0141 120.269 57.5259 120.015 58.0993C119.768 58.6656 119.55 59.2753 119.361 59.9287C119.18 60.582 119.067 61.2353 119.024 61.8887H117.38ZM123.569 61.8887C123.612 61.3587 123.703 60.807 123.841 60.2336C123.979 59.6601 124.146 59.0975 124.342 58.5458C124.545 57.9941 124.77 57.475 125.017 56.9887C125.264 56.495 125.514 56.0704 125.768 55.7147H122.491V54.3318H127.772V55.5078C127.539 55.7619 127.282 56.1139 126.999 56.564C126.723 57.0141 126.458 57.5259 126.204 58.0993C125.957 58.6656 125.739 59.2753 125.55 59.9287C125.369 60.582 125.256 61.2353 125.213 61.8887H123.569ZM132.447 56.2809C132.447 56.9633 132.273 57.4859 131.924 57.8489C131.576 58.2119 131.108 58.3933 130.52 58.3933C129.932 58.3933 129.463 58.2119 129.115 57.8489C128.766 57.4859 128.592 56.9633 128.592 56.2809C128.592 55.5985 128.766 55.0759 129.115 54.7129C129.463 54.3499 129.932 54.1684 130.52 54.1684C131.108 54.1684 131.576 54.3499 131.924 54.7129C132.273 55.0759 132.447 55.5985 132.447 56.2809ZM131.216 56.2809C131.216 55.9107 131.151 55.6421 131.02 55.4751C130.89 55.3082 130.723 55.2247 130.52 55.2247C130.309 55.2247 130.138 55.3082 130.008 55.4751C129.884 55.6421 129.823 55.9107 129.823 56.2809C129.823 56.6511 129.884 56.9233 130.008 57.0976C130.138 57.2645 130.309 57.348 130.52 57.348C130.723 57.348 130.89 57.2645 131.02 57.0976C131.151 56.9233 131.216 56.6511 131.216 56.2809ZM134.57 54.3427H136.084L131.826 61.8887H130.313L134.57 54.3427ZM137.826 59.9504C137.826 60.6328 137.652 61.1555 137.303 61.5184C136.955 61.8814 136.487 62.0629 135.899 62.0629C135.311 62.0629 134.842 61.8814 134.494 61.5184C134.146 61.1555 133.971 60.6328 133.971 59.9504C133.971 59.2681 134.146 58.7454 134.494 58.3824C134.842 58.0195 135.311 57.838 135.899 57.838C136.487 57.838 136.955 58.0195 137.303 58.3824C137.652 58.7454 137.826 59.2681 137.826 59.9504ZM136.596 59.9504C136.596 59.5802 136.53 59.3116 136.4 59.1447C136.269 58.9777 136.102 58.8942 135.899 58.8942C135.688 58.8942 135.518 58.9777 135.387 59.1447C135.263 59.3116 135.202 59.5802 135.202 59.9504C135.202 60.3207 135.263 60.5929 135.387 60.7671C135.518 60.9341 135.688 61.0176 135.899 61.0176C136.102 61.0176 136.269 60.9341 136.4 60.7671C136.53 60.5929 136.596 60.3207 136.596 59.9504Z" fill="#9FAFC6"/>
</g>
<g clip-path="url(#clip2_110_1809)">
<g clip-path="url(#clip3_110_1809)">
<rect x="174.389" y="40.9722" width="4.27778" height="4.27778" rx="0.777778" fill="#FF9417"/>
<path d="M184.583 45.6468C184.499 45.6468 184.407 45.6448 184.307 45.6408C184.211 45.6368 184.113 45.6308 184.013 45.6228C183.917 45.6148 183.821 45.6048 183.725 45.5928C183.629 45.5808 183.541 45.5648 183.461 45.5448V41.5128C183.541 41.4928 183.629 41.4768 183.725 41.4648C183.821 41.4528 183.917 41.4428 184.013 41.4348C184.113 41.4268 184.211 41.4208 184.307 41.4168C184.403 41.4128 184.493 41.4108 184.577 41.4108C184.817 41.4108 185.041 41.4288 185.249 41.4648C185.461 41.5008 185.643 41.5628 185.795 41.6508C185.951 41.7348 186.073 41.8468 186.161 41.9868C186.249 42.1268 186.293 42.2988 186.293 42.5028C186.293 42.7308 186.239 42.9188 186.131 43.0668C186.023 43.2108 185.879 43.3188 185.699 43.3908C185.943 43.4628 186.137 43.5768 186.281 43.7328C186.425 43.8888 186.497 44.1088 186.497 44.3928C186.497 44.8088 186.343 45.1228 186.035 45.3348C185.731 45.5428 185.247 45.6468 184.583 45.6468ZM184.037 43.6728V45.1368C184.081 45.1408 184.133 45.1448 184.193 45.1488C184.245 45.1528 184.305 45.1568 184.373 45.1608C184.445 45.1608 184.527 45.1608 184.619 45.1608C184.791 45.1608 184.953 45.1508 185.105 45.1308C185.261 45.1068 185.397 45.0668 185.513 45.0108C185.629 44.9548 185.721 44.8768 185.789 44.7768C185.861 44.6768 185.897 44.5508 185.897 44.3988C185.897 44.2628 185.871 44.1488 185.819 44.0568C185.767 43.9608 185.691 43.8848 185.591 43.8288C185.495 43.7728 185.379 43.7328 185.243 43.7088C185.107 43.6848 184.955 43.6728 184.787 43.6728H184.037ZM184.037 43.2048H184.649C184.793 43.2048 184.929 43.1948 185.057 43.1748C185.185 43.1548 185.295 43.1188 185.387 43.0668C185.483 43.0148 185.557 42.9468 185.609 42.8628C185.665 42.7788 185.693 42.6728 185.693 42.5448C185.693 42.4248 185.665 42.3248 185.609 42.2448C185.553 42.1608 185.475 42.0948 185.375 42.0468C185.279 41.9948 185.165 41.9568 185.033 41.9328C184.901 41.9088 184.761 41.8968 184.613 41.8968C184.465 41.8968 184.349 41.8988 184.265 41.9028C184.181 41.9068 184.105 41.9128 184.037 41.9208V43.2048ZM187.838 45.6108H187.28V42.4908H187.838V45.6108ZM187.556 41.9268C187.456 41.9268 187.37 41.8948 187.298 41.8308C187.23 41.7628 187.196 41.6728 187.196 41.5608C187.196 41.4488 187.23 41.3608 187.298 41.2968C187.37 41.2288 187.456 41.1948 187.556 41.1948C187.656 41.1948 187.74 41.2288 187.808 41.2968C187.88 41.3608 187.916 41.4488 187.916 41.5608C187.916 41.6728 187.88 41.7628 187.808 41.8308C187.74 41.8948 187.656 41.9268 187.556 41.9268ZM189.32 42.4908H190.502V42.9588H189.32V44.3988C189.32 44.5548 189.332 44.6848 189.356 44.7888C189.38 44.8888 189.416 44.9688 189.464 45.0288C189.512 45.0848 189.572 45.1248 189.644 45.1488C189.716 45.1728 189.8 45.1848 189.896 45.1848C190.064 45.1848 190.198 45.1668 190.298 45.1308C190.402 45.0908 190.474 45.0628 190.514 45.0468L190.622 45.5088C190.566 45.5368 190.468 45.5708 190.328 45.6108C190.188 45.6548 190.028 45.6768 189.848 45.6768C189.636 45.6768 189.46 45.6508 189.32 45.5988C189.184 45.5428 189.074 45.4608 188.99 45.3528C188.906 45.2448 188.846 45.1128 188.81 44.9568C188.778 44.7968 188.762 44.6128 188.762 44.4048V41.6208L189.32 41.5248V42.4908ZM192.492 45.6828C192.24 45.6828 192.018 45.6428 191.826 45.5628C191.638 45.4828 191.478 45.3708 191.346 45.2268C191.218 45.0828 191.122 44.9128 191.058 44.7168C190.994 44.5168 190.962 44.2968 190.962 44.0568C190.962 43.8168 190.996 43.5968 191.064 43.3968C191.136 43.1968 191.236 43.0248 191.364 42.8808C191.492 42.7328 191.648 42.6188 191.832 42.5388C192.02 42.4548 192.228 42.4128 192.456 42.4128C192.596 42.4128 192.736 42.4248 192.876 42.4488C193.016 42.4728 193.15 42.5108 193.278 42.5628L193.152 43.0368C193.068 42.9968 192.97 42.9648 192.858 42.9408C192.75 42.9168 192.634 42.9048 192.51 42.9048C192.198 42.9048 191.958 43.0028 191.79 43.1988C191.626 43.3948 191.544 43.6808 191.544 44.0568C191.544 44.2248 191.562 44.3788 191.598 44.5188C191.638 44.6588 191.698 44.7788 191.778 44.8788C191.862 44.9788 191.968 45.0568 192.096 45.1128C192.224 45.1648 192.38 45.1908 192.564 45.1908C192.712 45.1908 192.846 45.1768 192.966 45.1488C193.086 45.1208 193.18 45.0908 193.248 45.0588L193.326 45.5268C193.294 45.5468 193.248 45.5668 193.188 45.5868C193.128 45.6028 193.06 45.6168 192.984 45.6288C192.908 45.6448 192.826 45.6568 192.738 45.6648C192.654 45.6768 192.572 45.6828 192.492 45.6828ZM196.602 44.0508C196.602 44.2988 196.566 44.5228 196.494 44.7228C196.422 44.9228 196.32 45.0948 196.188 45.2388C196.06 45.3828 195.906 45.4948 195.726 45.5748C195.546 45.6508 195.35 45.6888 195.138 45.6888C194.926 45.6888 194.73 45.6508 194.55 45.5748C194.37 45.4948 194.214 45.3828 194.082 45.2388C193.954 45.0948 193.854 44.9228 193.782 44.7228C193.71 44.5228 193.674 44.2988 193.674 44.0508C193.674 43.8068 193.71 43.5848 193.782 43.3848C193.854 43.1808 193.954 43.0068 194.082 42.8628C194.214 42.7188 194.37 42.6088 194.55 42.5328C194.73 42.4528 194.926 42.4128 195.138 42.4128C195.35 42.4128 195.546 42.4528 195.726 42.5328C195.906 42.6088 196.06 42.7188 196.188 42.8628C196.32 43.0068 196.422 43.1808 196.494 43.3848C196.566 43.5848 196.602 43.8068 196.602 44.0508ZM196.02 44.0508C196.02 43.6988 195.94 43.4208 195.78 43.2168C195.624 43.0088 195.41 42.9048 195.138 42.9048C194.866 42.9048 194.65 43.0088 194.49 43.2168C194.334 43.4208 194.256 43.6988 194.256 44.0508C194.256 44.4028 194.334 44.6828 194.49 44.8908C194.65 45.0948 194.866 45.1968 195.138 45.1968C195.41 45.1968 195.624 45.0948 195.78 44.8908C195.94 44.6828 196.02 44.4028 196.02 44.0508ZM197.945 45.6108H197.387V42.4908H197.945V45.6108ZM197.663 41.9268C197.563 41.9268 197.477 41.8948 197.405 41.8308C197.337 41.7628 197.303 41.6728 197.303 41.5608C197.303 41.4488 197.337 41.3608 197.405 41.2968C197.477 41.2288 197.563 41.1948 197.663 41.1948C197.763 41.1948 197.847 41.2288 197.915 41.2968C197.987 41.3608 198.023 41.4488 198.023 41.5608C198.023 41.6728 197.987 41.7628 197.915 41.8308C197.847 41.8948 197.763 41.9268 197.663 41.9268ZM198.905 42.5808C199.033 42.5488 199.203 42.5148 199.415 42.4788C199.627 42.4428 199.871 42.4248 200.147 42.4248C200.395 42.4248 200.601 42.4608 200.765 42.5328C200.929 42.6008 201.059 42.6988 201.155 42.8268C201.255 42.9508 201.325 43.1008 201.365 43.2768C201.405 43.4528 201.425 43.6468 201.425 43.8588V45.6108H200.867V43.9788C200.867 43.7868 200.853 43.6228 200.825 43.4868C200.801 43.3508 200.759 43.2408 200.699 43.1568C200.639 43.0728 200.559 43.0128 200.459 42.9768C200.359 42.9368 200.235 42.9168 200.087 42.9168C200.027 42.9168 199.965 42.9188 199.901 42.9228C199.837 42.9268 199.775 42.9328 199.715 42.9408C199.659 42.9448 199.607 42.9508 199.559 42.9588C199.515 42.9668 199.483 42.9728 199.463 42.9768V45.6108H198.905V42.5808Z" fill="black"/>
</g>
<g clip-path="url(#clip4_110_1809)">
<rect x="174.389" y="50.3057" width="4.27778" height="4.27778" rx="0.777778" fill="#363636"/>
<path d="M183.461 54.9443V50.7863H185.999V51.2843H184.043V52.5203H185.783V53.0063H184.043V54.4463H186.149V54.9443H183.461ZM187.292 51.8243H188.474V52.2923H187.292V53.7323C187.292 53.8883 187.304 54.0183 187.328 54.1223C187.352 54.2223 187.388 54.3023 187.436 54.3623C187.484 54.4183 187.544 54.4583 187.616 54.4823C187.688 54.5063 187.772 54.5183 187.868 54.5183C188.036 54.5183 188.17 54.5003 188.27 54.4643C188.374 54.4243 188.446 54.3963 188.486 54.3803L188.594 54.8423C188.538 54.8703 188.44 54.9043 188.3 54.9443C188.16 54.9883 188 55.0103 187.82 55.0103C187.608 55.0103 187.432 54.9843 187.292 54.9323C187.156 54.8763 187.046 54.7943 186.962 54.6863C186.878 54.5783 186.818 54.4463 186.782 54.2903C186.75 54.1303 186.734 53.9463 186.734 53.7383V50.9543L187.292 50.8583V51.8243ZM189.184 54.9443V50.3843L189.742 50.2883V51.8843C189.846 51.8443 189.956 51.8143 190.072 51.7943C190.192 51.7703 190.31 51.7583 190.426 51.7583C190.674 51.7583 190.88 51.7943 191.044 51.8663C191.208 51.9343 191.338 52.0323 191.434 52.1603C191.534 52.2843 191.604 52.4343 191.644 52.6103C191.684 52.7863 191.704 52.9803 191.704 53.1923V54.9443H191.146V53.3123C191.146 53.1203 191.132 52.9563 191.104 52.8203C191.08 52.6843 191.038 52.5743 190.978 52.4903C190.918 52.4063 190.838 52.3463 190.738 52.3103C190.638 52.2703 190.514 52.2503 190.366 52.2503C190.306 52.2503 190.244 52.2543 190.18 52.2623C190.116 52.2703 190.054 52.2803 189.994 52.2923C189.938 52.3003 189.886 52.3103 189.838 52.3223C189.794 52.3343 189.762 52.3443 189.742 52.3523V54.9443H189.184ZM192.438 53.3903C192.438 53.1143 192.478 52.8743 192.558 52.6703C192.638 52.4623 192.744 52.2903 192.876 52.1543C193.008 52.0183 193.16 51.9163 193.332 51.8483C193.504 51.7803 193.68 51.7463 193.86 51.7463C194.28 51.7463 194.602 51.8783 194.826 52.1423C195.05 52.4023 195.162 52.8003 195.162 53.3363C195.162 53.3603 195.162 53.3923 195.162 53.4323C195.162 53.4683 195.16 53.5023 195.156 53.5343H193.02C193.044 53.8583 193.138 54.1043 193.302 54.2723C193.466 54.4403 193.722 54.5243 194.07 54.5243C194.266 54.5243 194.43 54.5083 194.562 54.4763C194.698 54.4403 194.8 54.4063 194.868 54.3743L194.946 54.8423C194.878 54.8783 194.758 54.9163 194.586 54.9563C194.418 54.9963 194.226 55.0163 194.01 55.0163C193.738 55.0163 193.502 54.9763 193.302 54.8963C193.106 54.8123 192.944 54.6983 192.816 54.5543C192.688 54.4103 192.592 54.2403 192.528 54.0443C192.468 53.8443 192.438 53.6263 192.438 53.3903ZM194.58 53.0843C194.584 52.8323 194.52 52.6263 194.388 52.4663C194.26 52.3023 194.082 52.2203 193.854 52.2203C193.726 52.2203 193.612 52.2463 193.512 52.2983C193.416 52.3463 193.334 52.4103 193.266 52.4903C193.198 52.5703 193.144 52.6623 193.104 52.7663C193.068 52.8703 193.044 52.9763 193.032 53.0843H194.58ZM197.116 51.7583C197.164 51.7583 197.218 51.7623 197.278 51.7703C197.342 51.7743 197.404 51.7823 197.464 51.7943C197.524 51.8023 197.578 51.8123 197.626 51.8243C197.678 51.8323 197.716 51.8403 197.74 51.8483L197.644 52.3343C197.6 52.3183 197.526 52.3003 197.422 52.2803C197.322 52.2563 197.192 52.2443 197.032 52.2443C196.928 52.2443 196.824 52.2563 196.72 52.2803C196.62 52.3003 196.554 52.3143 196.522 52.3223V54.9443H195.964V51.9563C196.096 51.9083 196.26 51.8643 196.456 51.8243C196.652 51.7803 196.872 51.7583 197.116 51.7583ZM198.104 53.3903C198.104 53.1143 198.144 52.8743 198.224 52.6703C198.304 52.4623 198.41 52.2903 198.542 52.1543C198.674 52.0183 198.826 51.9163 198.998 51.8483C199.17 51.7803 199.346 51.7463 199.526 51.7463C199.946 51.7463 200.268 51.8783 200.492 52.1423C200.716 52.4023 200.828 52.8003 200.828 53.3363C200.828 53.3603 200.828 53.3923 200.828 53.4323C200.828 53.4683 200.826 53.5023 200.822 53.5343H198.686C198.71 53.8583 198.804 54.1043 198.968 54.2723C199.132 54.4403 199.388 54.5243 199.736 54.5243C199.932 54.5243 200.096 54.5083 200.228 54.4763C200.364 54.4403 200.466 54.4063 200.534 54.3743L200.612 54.8423C200.544 54.8783 200.424 54.9163 200.252 54.9563C200.084 54.9963 199.892 55.0163 199.676 55.0163C199.404 55.0163 199.168 54.9763 198.968 54.8963C198.772 54.8123 198.61 54.6983 198.482 54.5543C198.354 54.4103 198.258 54.2403 198.194 54.0443C198.134 53.8443 198.104 53.6263 198.104 53.3903ZM200.246 53.0843C200.25 52.8323 200.186 52.6263 200.054 52.4663C199.926 52.3023 199.748 52.2203 199.52 52.2203C199.392 52.2203 199.278 52.2463 199.178 52.2983C199.082 52.3463 199 52.4103 198.932 52.4903C198.864 52.5703 198.81 52.6623 198.77 52.7663C198.734 52.8703 198.71 52.9763 198.698 53.0843H200.246ZM204.114 54.8543C203.986 54.8863 203.816 54.9203 203.604 54.9563C203.396 54.9923 203.154 55.0103 202.878 55.0103C202.638 55.0103 202.436 54.9763 202.272 54.9083C202.108 54.8363 201.976 54.7363 201.876 54.6083C201.776 54.4803 201.704 54.3303 201.66 54.1583C201.616 53.9823 201.594 53.7883 201.594 53.5763V51.8243H202.152V53.4563C202.152 53.8363 202.212 54.1083 202.332 54.2723C202.452 54.4363 202.654 54.5183 202.938 54.5183C202.998 54.5183 203.06 54.5163 203.124 54.5123C203.188 54.5083 203.248 54.5043 203.304 54.5003C203.36 54.4923 203.41 54.4863 203.454 54.4823C203.502 54.4743 203.536 54.4663 203.556 54.4583V51.8243H204.114V54.8543ZM205.075 51.9143C205.203 51.8823 205.371 51.8483 205.579 51.8123C205.791 51.7763 206.035 51.7583 206.311 51.7583C206.511 51.7583 206.679 51.7863 206.815 51.8423C206.951 51.8943 207.065 51.9723 207.157 52.0763C207.185 52.0563 207.229 52.0283 207.289 51.9923C207.349 51.9563 207.423 51.9223 207.511 51.8903C207.599 51.8543 207.697 51.8243 207.805 51.8003C207.913 51.7723 208.029 51.7583 208.153 51.7583C208.393 51.7583 208.589 51.7943 208.741 51.8663C208.893 51.9343 209.011 52.0323 209.095 52.1603C209.183 52.2883 209.241 52.4403 209.269 52.6163C209.301 52.7923 209.317 52.9843 209.317 53.1923V54.9443H208.759V53.3123C208.759 53.1283 208.749 52.9703 208.729 52.8383C208.713 52.7063 208.679 52.5963 208.627 52.5083C208.579 52.4203 208.511 52.3563 208.423 52.3163C208.339 52.2723 208.229 52.2503 208.093 52.2503C207.905 52.2503 207.749 52.2763 207.625 52.3283C207.505 52.3763 207.423 52.4203 207.379 52.4603C207.411 52.5643 207.435 52.6783 207.451 52.8023C207.467 52.9263 207.475 53.0563 207.475 53.1923V54.9443H206.917V53.3123C206.917 53.1283 206.907 52.9703 206.887 52.8383C206.867 52.7063 206.831 52.5963 206.779 52.5083C206.731 52.4203 206.663 52.3563 206.575 52.3163C206.491 52.2723 206.383 52.2503 206.251 52.2503C206.195 52.2503 206.135 52.2523 206.071 52.2563C206.007 52.2603 205.945 52.2663 205.885 52.2743C205.829 52.2783 205.777 52.2843 205.729 52.2923C205.681 52.3003 205.649 52.3063 205.633 52.3103V54.9443H205.075V51.9143Z" fill="black"/>
</g>
<g clip-path="url(#clip5_110_1809)">
<rect x="174.389" y="59.6387" width="4.27778" height="4.27778" rx="0.777778" fill="#46C580"/>
<path d="M186.239 60.1193V60.6233H184.931V64.2773H184.349V60.6233H183.041V60.1193H186.239ZM186.315 62.7233C186.315 62.4473 186.355 62.2073 186.435 62.0033C186.515 61.7953 186.621 61.6233 186.753 61.4873C186.885 61.3513 187.037 61.2493 187.209 61.1813C187.381 61.1133 187.557 61.0793 187.737 61.0793C188.157 61.0793 188.479 61.2113 188.703 61.4753C188.927 61.7353 189.039 62.1333 189.039 62.6693C189.039 62.6933 189.039 62.7253 189.039 62.7653C189.039 62.8013 189.037 62.8353 189.033 62.8673H186.897C186.921 63.1913 187.015 63.4373 187.179 63.6053C187.343 63.7733 187.599 63.8573 187.947 63.8573C188.143 63.8573 188.307 63.8413 188.439 63.8093C188.575 63.7733 188.677 63.7393 188.745 63.7073L188.823 64.1753C188.755 64.2113 188.635 64.2493 188.463 64.2893C188.295 64.3293 188.103 64.3493 187.887 64.3493C187.615 64.3493 187.379 64.3093 187.179 64.2293C186.983 64.1453 186.821 64.0313 186.693 63.8873C186.565 63.7433 186.469 63.5733 186.405 63.3773C186.345 63.1773 186.315 62.9593 186.315 62.7233ZM188.457 62.4173C188.461 62.1653 188.397 61.9593 188.265 61.7993C188.137 61.6353 187.959 61.5533 187.731 61.5533C187.603 61.5533 187.489 61.5793 187.389 61.6313C187.293 61.6793 187.211 61.7433 187.143 61.8233C187.075 61.9033 187.021 61.9953 186.981 62.0993C186.945 62.2033 186.921 62.3093 186.909 62.4173H188.457ZM190.363 61.1573H191.545V61.6253H190.363V63.0653C190.363 63.2213 190.375 63.3513 190.399 63.4553C190.423 63.5553 190.459 63.6353 190.507 63.6953C190.555 63.7513 190.615 63.7913 190.687 63.8153C190.759 63.8393 190.843 63.8513 190.939 63.8513C191.107 63.8513 191.241 63.8333 191.341 63.7973C191.445 63.7573 191.517 63.7293 191.557 63.7133L191.665 64.1753C191.609 64.2033 191.511 64.2373 191.371 64.2773C191.231 64.3213 191.071 64.3433 190.891 64.3433C190.679 64.3433 190.503 64.3173 190.363 64.2653C190.227 64.2093 190.117 64.1273 190.033 64.0193C189.949 63.9113 189.889 63.7793 189.853 63.6233C189.821 63.4633 189.805 63.2793 189.805 63.0713V60.2873L190.363 60.1913V61.1573ZM192.255 64.2773V59.7173L192.813 59.6213V61.2173C192.917 61.1773 193.027 61.1473 193.143 61.1273C193.263 61.1033 193.381 61.0913 193.497 61.0913C193.745 61.0913 193.951 61.1273 194.115 61.1993C194.279 61.2673 194.409 61.3653 194.505 61.4933C194.605 61.6173 194.675 61.7673 194.715 61.9433C194.755 62.1193 194.775 62.3133 194.775 62.5253V64.2773H194.217V62.6453C194.217 62.4533 194.203 62.2893 194.175 62.1533C194.151 62.0173 194.109 61.9073 194.049 61.8233C193.989 61.7393 193.909 61.6793 193.809 61.6433C193.709 61.6033 193.585 61.5833 193.437 61.5833C193.377 61.5833 193.315 61.5873 193.251 61.5953C193.187 61.6033 193.125 61.6133 193.065 61.6253C193.009 61.6333 192.957 61.6433 192.909 61.6553C192.865 61.6673 192.833 61.6773 192.813 61.6853V64.2773H192.255ZM195.508 62.7233C195.508 62.4473 195.548 62.2073 195.628 62.0033C195.708 61.7953 195.814 61.6233 195.946 61.4873C196.078 61.3513 196.23 61.2493 196.402 61.1813C196.574 61.1133 196.75 61.0793 196.93 61.0793C197.35 61.0793 197.672 61.2113 197.896 61.4753C198.12 61.7353 198.232 62.1333 198.232 62.6693C198.232 62.6933 198.232 62.7253 198.232 62.7653C198.232 62.8013 198.23 62.8353 198.226 62.8673H196.09C196.114 63.1913 196.208 63.4373 196.372 63.6053C196.536 63.7733 196.792 63.8573 197.14 63.8573C197.336 63.8573 197.5 63.8413 197.632 63.8093C197.768 63.7733 197.87 63.7393 197.938 63.7073L198.016 64.1753C197.948 64.2113 197.828 64.2493 197.656 64.2893C197.488 64.3293 197.296 64.3493 197.08 64.3493C196.808 64.3493 196.572 64.3093 196.372 64.2293C196.176 64.1453 196.014 64.0313 195.886 63.8873C195.758 63.7433 195.662 63.5733 195.598 63.3773C195.538 63.1773 195.508 62.9593 195.508 62.7233ZM197.65 62.4173C197.654 62.1653 197.59 61.9593 197.458 61.7993C197.33 61.6353 197.152 61.5533 196.924 61.5533C196.796 61.5533 196.682 61.5793 196.582 61.6313C196.486 61.6793 196.404 61.7433 196.336 61.8233C196.268 61.9033 196.214 61.9953 196.174 62.0993C196.138 62.2033 196.114 62.3093 196.102 62.4173H197.65ZM200.186 61.0913C200.234 61.0913 200.288 61.0953 200.348 61.1033C200.412 61.1073 200.474 61.1153 200.534 61.1273C200.594 61.1353 200.648 61.1453 200.696 61.1573C200.748 61.1653 200.786 61.1733 200.81 61.1813L200.714 61.6673C200.67 61.6513 200.596 61.6333 200.492 61.6133C200.392 61.5893 200.262 61.5773 200.102 61.5773C199.998 61.5773 199.894 61.5893 199.79 61.6133C199.69 61.6333 199.624 61.6473 199.592 61.6553V64.2773H199.034V61.2893C199.166 61.2413 199.33 61.1973 199.526 61.1573C199.722 61.1133 199.942 61.0913 200.186 61.0913Z" fill="black"/>
</g>
<g clip-path="url(#clip6_110_1809)">
<rect x="174.389" y="68.9722" width="4.27778" height="4.27778" rx="0.777778" fill="#56A4FF"/>
<path d="M185.963 73.1068V73.6108H183.461V69.4528H184.043V73.1068H185.963ZM187.094 73.6108H186.536V70.4908H187.094V73.6108ZM186.812 69.9268C186.712 69.9268 186.626 69.8948 186.554 69.8308C186.486 69.7628 186.452 69.6728 186.452 69.5608C186.452 69.4488 186.486 69.3608 186.554 69.2968C186.626 69.2288 186.712 69.1948 186.812 69.1948C186.912 69.1948 186.996 69.2288 187.064 69.2968C187.136 69.3608 187.172 69.4488 187.172 69.5608C187.172 69.6728 187.136 69.7628 187.064 69.8308C186.996 69.8948 186.912 69.9268 186.812 69.9268ZM188.575 70.4908H189.757V70.9588H188.575V72.3988C188.575 72.5548 188.587 72.6848 188.611 72.7888C188.635 72.8888 188.671 72.9688 188.719 73.0288C188.767 73.0848 188.827 73.1248 188.899 73.1488C188.971 73.1728 189.055 73.1848 189.151 73.1848C189.319 73.1848 189.453 73.1668 189.553 73.1308C189.657 73.0908 189.729 73.0628 189.769 73.0468L189.877 73.5088C189.821 73.5368 189.723 73.5708 189.583 73.6108C189.443 73.6548 189.283 73.6768 189.103 73.6768C188.891 73.6768 188.715 73.6508 188.575 73.5988C188.439 73.5428 188.329 73.4608 188.245 73.3528C188.161 73.2448 188.101 73.1128 188.065 72.9568C188.033 72.7968 188.017 72.6128 188.017 72.4048V69.6208L188.575 69.5248V70.4908ZM190.235 72.0568C190.235 71.7808 190.275 71.5408 190.355 71.3368C190.435 71.1288 190.541 70.9568 190.673 70.8208C190.805 70.6848 190.957 70.5828 191.129 70.5148C191.301 70.4468 191.477 70.4128 191.657 70.4128C192.077 70.4128 192.399 70.5448 192.623 70.8088C192.847 71.0688 192.959 71.4668 192.959 72.0028C192.959 72.0268 192.959 72.0588 192.959 72.0988C192.959 72.1348 192.957 72.1688 192.953 72.2008H190.817C190.841 72.5248 190.935 72.7708 191.099 72.9388C191.263 73.1068 191.519 73.1908 191.867 73.1908C192.063 73.1908 192.227 73.1748 192.359 73.1428C192.495 73.1068 192.597 73.0728 192.665 73.0408L192.743 73.5088C192.675 73.5448 192.555 73.5828 192.383 73.6228C192.215 73.6628 192.023 73.6828 191.807 73.6828C191.535 73.6828 191.299 73.6428 191.099 73.5628C190.903 73.4788 190.741 73.3648 190.613 73.2208C190.485 73.0768 190.389 72.9068 190.325 72.7108C190.265 72.5108 190.235 72.2928 190.235 72.0568ZM192.377 71.7508C192.381 71.4988 192.317 71.2928 192.185 71.1328C192.057 70.9688 191.879 70.8868 191.651 70.8868C191.523 70.8868 191.409 70.9128 191.309 70.9648C191.213 71.0128 191.131 71.0768 191.063 71.1568C190.995 71.2368 190.941 71.3288 190.901 71.4328C190.865 71.5368 190.841 71.6428 190.829 71.7508H192.377ZM195.117 73.6828C194.865 73.6828 194.643 73.6428 194.451 73.5628C194.263 73.4828 194.103 73.3708 193.971 73.2268C193.843 73.0828 193.747 72.9128 193.683 72.7168C193.619 72.5168 193.587 72.2968 193.587 72.0568C193.587 71.8168 193.621 71.5968 193.689 71.3968C193.761 71.1968 193.861 71.0248 193.989 70.8808C194.117 70.7328 194.273 70.6188 194.457 70.5388C194.645 70.4548 194.853 70.4128 195.081 70.4128C195.221 70.4128 195.361 70.4248 195.501 70.4488C195.641 70.4728 195.775 70.5108 195.903 70.5628L195.777 71.0368C195.693 70.9968 195.595 70.9648 195.483 70.9408C195.375 70.9168 195.259 70.9048 195.135 70.9048C194.823 70.9048 194.583 71.0028 194.415 71.1988C194.251 71.3948 194.169 71.6808 194.169 72.0568C194.169 72.2248 194.187 72.3788 194.223 72.5188C194.263 72.6588 194.323 72.7788 194.403 72.8788C194.487 72.9788 194.593 73.0568 194.721 73.1128C194.849 73.1648 195.005 73.1908 195.189 73.1908C195.337 73.1908 195.471 73.1768 195.591 73.1488C195.711 73.1208 195.805 73.0908 195.873 73.0588L195.951 73.5268C195.919 73.5468 195.873 73.5668 195.813 73.5868C195.753 73.6028 195.685 73.6168 195.609 73.6288C195.533 73.6448 195.451 73.6568 195.363 73.6648C195.279 73.6768 195.197 73.6828 195.117 73.6828ZM199.227 72.0508C199.227 72.2988 199.191 72.5228 199.119 72.7228C199.047 72.9228 198.945 73.0948 198.813 73.2388C198.685 73.3828 198.531 73.4948 198.351 73.5748C198.171 73.6508 197.975 73.6888 197.763 73.6888C197.551 73.6888 197.355 73.6508 197.175 73.5748C196.995 73.4948 196.839 73.3828 196.707 73.2388C196.579 73.0948 196.479 72.9228 196.407 72.7228C196.335 72.5228 196.299 72.2988 196.299 72.0508C196.299 71.8068 196.335 71.5848 196.407 71.3848C196.479 71.1808 196.579 71.0068 196.707 70.8628C196.839 70.7188 196.995 70.6088 197.175 70.5328C197.355 70.4528 197.551 70.4128 197.763 70.4128C197.975 70.4128 198.171 70.4528 198.351 70.5328C198.531 70.6088 198.685 70.7188 198.813 70.8628C198.945 71.0068 199.047 71.1808 199.119 71.3848C199.191 71.5848 199.227 71.8068 199.227 72.0508ZM198.645 72.0508C198.645 71.6988 198.565 71.4208 198.405 71.2168C198.249 71.0088 198.035 70.9048 197.763 70.9048C197.491 70.9048 197.275 71.0088 197.115 71.2168C196.959 71.4208 196.881 71.6988 196.881 72.0508C196.881 72.4028 196.959 72.6828 197.115 72.8908C197.275 73.0948 197.491 73.1968 197.763 73.1968C198.035 73.1968 198.249 73.0948 198.405 72.8908C198.565 72.6828 198.645 72.4028 198.645 72.0508ZM200.57 73.6108H200.012V70.4908H200.57V73.6108ZM200.288 69.9268C200.188 69.9268 200.102 69.8948 200.03 69.8308C199.962 69.7628 199.928 69.6728 199.928 69.5608C199.928 69.4488 199.962 69.3608 200.03 69.2968C200.102 69.2288 200.188 69.1948 200.288 69.1948C200.388 69.1948 200.472 69.2288 200.54 69.2968C200.612 69.3608 200.648 69.4488 200.648 69.5608C200.648 69.6728 200.612 69.7628 200.54 69.8308C200.472 69.8948 200.388 69.9268 200.288 69.9268ZM201.53 70.5808C201.658 70.5488 201.828 70.5148 202.04 70.4788C202.252 70.4428 202.496 70.4248 202.772 70.4248C203.02 70.4248 203.226 70.4608 203.39 70.5328C203.554 70.6008 203.684 70.6988 203.78 70.8268C203.88 70.9508 203.95 71.1008 203.99 71.2768C204.03 71.4528 204.05 71.6468 204.05 71.8588V73.6108H203.492V71.9788C203.492 71.7868 203.478 71.6228 203.45 71.4868C203.426 71.3508 203.384 71.2408 203.324 71.1568C203.264 71.0728 203.184 71.0128 203.084 70.9768C202.984 70.9368 202.86 70.9168 202.712 70.9168C202.652 70.9168 202.59 70.9188 202.526 70.9228C202.462 70.9268 202.4 70.9328 202.34 70.9408C202.284 70.9448 202.232 70.9508 202.184 70.9588C202.14 70.9668 202.108 70.9728 202.088 70.9768V73.6108H201.53V70.5808Z" fill="black"/>
</g>
</g>
</g>
<g clip-path="url(#clip7_110_1809)">
<path d="M96.8374 106.803C96.4975 106.803 96.1576 106.791 95.8177 106.767C95.4838 106.749 95.135 106.701 94.7712 106.624V100.613C95.0574 100.559 95.3705 100.521 95.7104 100.497C96.0503 100.467 96.3663 100.452 96.6585 100.452C97.0521 100.452 97.4128 100.482 97.7408 100.542C98.0747 100.595 98.3609 100.691 98.5994 100.828C98.838 100.965 99.0228 101.147 99.154 101.373C99.2911 101.594 99.3597 101.868 99.3597 102.196C99.3597 102.691 99.1212 103.082 98.6442 103.368C99.0377 103.517 99.3061 103.72 99.4492 103.976C99.5923 104.233 99.6638 104.522 99.6638 104.844C99.6638 105.494 99.4253 105.983 98.9483 106.311C98.4772 106.639 97.7736 106.803 96.8374 106.803ZM96.1308 104.021V105.622C96.2321 105.634 96.3425 105.643 96.4617 105.649C96.581 105.655 96.7122 105.658 96.8553 105.658C97.2727 105.658 97.6096 105.598 97.866 105.479C98.1224 105.36 98.2506 105.139 98.2506 104.817C98.2506 104.531 98.1433 104.328 97.9286 104.209C97.7139 104.084 97.4068 104.021 97.0073 104.021H96.1308ZM96.1308 102.957H96.8106C97.2399 102.957 97.547 102.903 97.7318 102.796C97.9167 102.682 98.0091 102.503 98.0091 102.259C98.0091 102.008 97.9137 101.833 97.7229 101.731C97.5321 101.63 97.2518 101.579 96.8821 101.579C96.7628 101.579 96.6346 101.582 96.4975 101.588C96.3603 101.588 96.2381 101.594 96.1308 101.606V102.957ZM100.468 104.37C100.468 104.03 100.521 103.711 100.629 103.413C100.742 103.109 100.903 102.846 101.112 102.626C101.32 102.399 101.574 102.22 101.872 102.089C102.17 101.958 102.51 101.892 102.892 101.892C103.142 101.892 103.372 101.916 103.58 101.964C103.789 102.005 103.992 102.068 104.189 102.152L103.911 103.216C103.786 103.168 103.649 103.127 103.5 103.091C103.351 103.055 103.184 103.037 102.999 103.037C102.605 103.037 102.31 103.159 102.113 103.404C101.923 103.648 101.827 103.97 101.827 104.37C101.827 104.793 101.917 105.121 102.096 105.354C102.28 105.586 102.599 105.703 103.053 105.703C103.214 105.703 103.387 105.688 103.571 105.658C103.756 105.628 103.926 105.58 104.081 105.515L104.269 106.606C104.114 106.671 103.92 106.728 103.688 106.776C103.455 106.824 103.199 106.847 102.918 106.847C102.489 106.847 102.119 106.785 101.809 106.66C101.499 106.528 101.243 106.352 101.04 106.132C100.843 105.911 100.697 105.652 100.602 105.354C100.512 105.05 100.468 104.722 100.468 104.37ZM104.94 104.406C104.94 103.988 105.003 103.624 105.128 103.314C105.259 102.998 105.429 102.736 105.638 102.527C105.846 102.319 106.085 102.161 106.353 102.053C106.627 101.946 106.908 101.892 107.194 101.892C107.862 101.892 108.39 102.098 108.777 102.509C109.165 102.915 109.358 103.514 109.358 104.307C109.358 104.385 109.356 104.471 109.35 104.567C109.344 104.656 109.338 104.737 109.332 104.808H106.308C106.338 105.082 106.466 105.3 106.693 105.461C106.92 105.622 107.224 105.703 107.605 105.703C107.85 105.703 108.088 105.682 108.321 105.64C108.559 105.592 108.753 105.536 108.902 105.47L109.081 106.552C109.01 106.588 108.914 106.624 108.795 106.66C108.676 106.695 108.542 106.725 108.392 106.749C108.249 106.779 108.094 106.803 107.927 106.821C107.76 106.838 107.593 106.847 107.426 106.847C107.003 106.847 106.633 106.785 106.317 106.66C106.007 106.534 105.748 106.364 105.539 106.15C105.336 105.929 105.184 105.67 105.083 105.372C104.988 105.073 104.94 104.751 104.94 104.406ZM108.07 103.896C108.065 103.782 108.044 103.672 108.008 103.565C107.978 103.457 107.927 103.362 107.856 103.279C107.79 103.195 107.704 103.127 107.596 103.073C107.495 103.019 107.367 102.992 107.212 102.992C107.063 102.992 106.935 103.019 106.827 103.073C106.72 103.121 106.63 103.186 106.559 103.27C106.487 103.353 106.431 103.451 106.389 103.565C106.353 103.672 106.326 103.782 106.308 103.896H108.07ZM113.723 103.109H111.72V106.722H110.387V102.017H113.723V103.109ZM118.841 104.361C118.841 104.731 118.787 105.07 118.68 105.381C118.572 105.685 118.417 105.947 118.214 106.168C118.012 106.382 117.767 106.549 117.481 106.669C117.201 106.788 116.885 106.847 116.533 106.847C116.187 106.847 115.871 106.788 115.585 106.669C115.305 106.549 115.063 106.382 114.86 106.168C114.658 105.947 114.5 105.685 114.386 105.381C114.273 105.07 114.216 104.731 114.216 104.361C114.216 103.991 114.273 103.654 114.386 103.35C114.506 103.046 114.667 102.787 114.869 102.572C115.078 102.357 115.322 102.19 115.603 102.071C115.889 101.952 116.199 101.892 116.533 101.892C116.873 101.892 117.183 101.952 117.463 102.071C117.749 102.19 117.994 102.357 118.197 102.572C118.399 102.787 118.557 103.046 118.671 103.35C118.784 103.654 118.841 103.991 118.841 104.361ZM117.481 104.361C117.481 103.949 117.398 103.627 117.231 103.395C117.07 103.156 116.837 103.037 116.533 103.037C116.229 103.037 115.993 103.156 115.826 103.395C115.659 103.627 115.576 103.949 115.576 104.361C115.576 104.772 115.659 105.1 115.826 105.345C115.993 105.583 116.229 105.703 116.533 105.703C116.837 105.703 117.07 105.583 117.231 105.345C117.398 105.1 117.481 104.772 117.481 104.361ZM126.074 102.017V106.722H124.741V103.127H123.354V106.722H122.022V102.017H126.074ZM131.724 104.361C131.724 104.731 131.671 105.07 131.563 105.381C131.456 105.685 131.301 105.947 131.098 106.168C130.896 106.382 130.651 106.549 130.365 106.669C130.085 106.788 129.769 106.847 129.417 106.847C129.071 106.847 128.755 106.788 128.469 106.669C128.188 106.549 127.947 106.382 127.744 106.168C127.541 105.947 127.383 105.685 127.27 105.381C127.157 105.07 127.1 104.731 127.1 104.361C127.1 103.991 127.157 103.654 127.27 103.35C127.389 103.046 127.55 102.787 127.753 102.572C127.962 102.357 128.206 102.19 128.487 102.071C128.773 101.952 129.083 101.892 129.417 101.892C129.757 101.892 130.067 101.952 130.347 102.071C130.633 102.19 130.878 102.357 131.08 102.572C131.283 102.787 131.441 103.046 131.554 103.35C131.668 103.654 131.724 103.991 131.724 104.361ZM130.365 104.361C130.365 103.949 130.281 103.627 130.114 103.395C129.953 103.156 129.721 103.037 129.417 103.037C129.113 103.037 128.877 103.156 128.71 103.395C128.543 103.627 128.46 103.949 128.46 104.361C128.46 104.772 128.543 105.1 128.71 105.345C128.877 105.583 129.113 105.703 129.417 105.703C129.721 105.703 129.953 105.583 130.114 105.345C130.281 105.1 130.365 104.772 130.365 104.361ZM136.648 103.109H135.145V106.722H133.812V103.109H132.31V102.017H136.648V103.109ZM140.47 104.406C140.47 103.994 140.378 103.666 140.193 103.422C140.008 103.171 139.734 103.046 139.37 103.046C139.251 103.046 139.141 103.052 139.039 103.064C138.938 103.07 138.854 103.079 138.789 103.091V105.497C138.872 105.55 138.98 105.595 139.111 105.631C139.248 105.667 139.385 105.685 139.522 105.685C140.154 105.685 140.47 105.258 140.47 104.406ZM141.83 104.37C141.83 104.734 141.785 105.064 141.696 105.363C141.606 105.661 141.475 105.917 141.302 106.132C141.129 106.347 140.915 106.513 140.658 106.633C140.402 106.752 140.107 106.812 139.773 106.812C139.588 106.812 139.415 106.794 139.254 106.758C139.093 106.722 138.938 106.671 138.789 106.606V108.377H137.456V102.178C137.575 102.143 137.713 102.11 137.868 102.08C138.023 102.044 138.184 102.014 138.351 101.991C138.524 101.967 138.696 101.949 138.869 101.937C139.048 101.919 139.218 101.91 139.379 101.91C139.767 101.91 140.113 101.97 140.417 102.089C140.721 102.202 140.977 102.366 141.186 102.581C141.395 102.79 141.553 103.046 141.66 103.35C141.773 103.654 141.83 103.994 141.83 104.37ZM144.652 105.792C144.783 105.792 144.908 105.789 145.028 105.783C145.147 105.777 145.242 105.768 145.314 105.756V104.745C145.26 104.734 145.18 104.722 145.072 104.71C144.965 104.698 144.867 104.692 144.777 104.692C144.652 104.692 144.533 104.701 144.42 104.719C144.312 104.731 144.217 104.757 144.133 104.799C144.05 104.841 143.984 104.898 143.937 104.969C143.889 105.041 143.865 105.13 143.865 105.237C143.865 105.446 143.934 105.592 144.071 105.676C144.214 105.753 144.408 105.792 144.652 105.792ZM144.545 101.892C144.938 101.892 145.266 101.937 145.529 102.026C145.791 102.116 146 102.244 146.155 102.411C146.316 102.578 146.429 102.781 146.495 103.019C146.56 103.258 146.593 103.523 146.593 103.815V106.588C146.402 106.63 146.137 106.677 145.797 106.731C145.457 106.791 145.046 106.821 144.563 106.821C144.259 106.821 143.981 106.794 143.731 106.74C143.486 106.686 143.275 106.6 143.096 106.481C142.917 106.355 142.78 106.194 142.684 105.998C142.589 105.801 142.541 105.559 142.541 105.273C142.541 104.999 142.595 104.766 142.702 104.576C142.815 104.385 142.965 104.233 143.149 104.119C143.334 104.006 143.546 103.926 143.784 103.878C144.023 103.824 144.27 103.797 144.527 103.797C144.7 103.797 144.852 103.806 144.983 103.824C145.12 103.836 145.23 103.854 145.314 103.878V103.753C145.314 103.526 145.245 103.344 145.108 103.207C144.971 103.07 144.733 103.001 144.393 103.001C144.166 103.001 143.942 103.019 143.722 103.055C143.501 103.085 143.31 103.129 143.149 103.189L142.979 102.116C143.057 102.092 143.152 102.068 143.266 102.044C143.385 102.014 143.513 101.991 143.65 101.973C143.787 101.949 143.931 101.931 144.08 101.919C144.235 101.901 144.39 101.892 144.545 101.892ZM148.907 102.017V103.538C148.907 103.765 148.979 103.923 149.122 104.012C149.271 104.101 149.477 104.146 149.739 104.146C149.793 104.146 149.876 104.143 149.99 104.137C150.103 104.125 150.204 104.113 150.294 104.101V102.017H151.626V106.722H150.294V105.175C150.174 105.193 150.043 105.208 149.9 105.22C149.763 105.231 149.659 105.237 149.587 105.237C149.283 105.237 149.006 105.211 148.755 105.157C148.511 105.097 148.299 105.005 148.12 104.88C147.947 104.748 147.813 104.576 147.718 104.361C147.622 104.14 147.575 103.869 147.575 103.547V102.017H148.907ZM152.658 104.406C152.658 103.988 152.721 103.624 152.846 103.314C152.977 102.998 153.147 102.736 153.356 102.527C153.565 102.319 153.803 102.161 154.071 102.053C154.346 101.946 154.626 101.892 154.912 101.892C155.58 101.892 156.108 102.098 156.495 102.509C156.883 102.915 157.077 103.514 157.077 104.307C157.077 104.385 157.074 104.471 157.068 104.567C157.062 104.656 157.056 104.737 157.05 104.808H154.027C154.057 105.082 154.185 105.3 154.411 105.461C154.638 105.622 154.942 105.703 155.324 105.703C155.568 105.703 155.807 105.682 156.039 105.64C156.278 105.592 156.472 105.536 156.621 105.47L156.799 106.552C156.728 106.588 156.633 106.624 156.513 106.66C156.394 106.695 156.26 106.725 156.111 106.749C155.968 106.779 155.813 106.803 155.646 106.821C155.479 106.838 155.312 106.847 155.145 106.847C154.721 106.847 154.352 106.785 154.036 106.66C153.726 106.534 153.466 106.364 153.257 106.15C153.055 105.929 152.903 105.67 152.801 105.372C152.706 105.073 152.658 104.751 152.658 104.406ZM155.789 103.896C155.783 103.782 155.762 103.672 155.726 103.565C155.696 103.457 155.646 103.362 155.574 103.279C155.508 103.195 155.422 103.127 155.315 103.073C155.213 103.019 155.085 102.992 154.93 102.992C154.781 102.992 154.653 103.019 154.545 103.073C154.438 103.121 154.349 103.186 154.277 103.27C154.206 103.353 154.149 103.451 154.107 103.565C154.071 103.672 154.045 103.782 154.027 103.896H155.789ZM162.157 106.722H160.824V104.862H159.438V106.722H158.105V102.017H159.438V103.771H160.824V102.017H162.157V106.722ZM167.808 104.361C167.808 104.731 167.754 105.07 167.647 105.381C167.54 105.685 167.385 105.947 167.182 106.168C166.979 106.382 166.735 106.549 166.448 106.669C166.168 106.788 165.852 106.847 165.5 106.847C165.154 106.847 164.838 106.788 164.552 106.669C164.272 106.549 164.03 106.382 163.828 106.168C163.625 105.947 163.467 105.685 163.354 105.381C163.24 105.07 163.184 104.731 163.184 104.361C163.184 103.991 163.24 103.654 163.354 103.35C163.473 103.046 163.634 102.787 163.837 102.572C164.045 102.357 164.29 102.19 164.57 102.071C164.856 101.952 165.166 101.892 165.5 101.892C165.84 101.892 166.15 101.952 166.43 102.071C166.717 102.19 166.961 102.357 167.164 102.572C167.367 102.787 167.525 103.046 167.638 103.35C167.751 103.654 167.808 103.991 167.808 104.361ZM166.448 104.361C166.448 103.949 166.365 103.627 166.198 103.395C166.037 103.156 165.804 103.037 165.5 103.037C165.196 103.037 164.961 103.156 164.794 103.395C164.627 103.627 164.543 103.949 164.543 104.361C164.543 104.772 164.627 105.1 164.794 105.345C164.961 105.583 165.196 105.703 165.5 105.703C165.804 105.703 166.037 105.583 166.198 105.345C166.365 105.1 166.448 104.772 166.448 104.361Z" fill="black"/>
</g>
<g clip-path="url(#clip8_110_1809)">
<circle cx="98.5279" cy="133.917" r="4.47222" fill="#FF9417"/>
<circle cx="102.806" cy="133.917" r="4.47222" fill="#363636"/>
<circle cx="107.084" cy="133.917" r="4.47222" fill="#46C480"/>
<circle cx="111.361" cy="133.917" r="4.47222" fill="#56A4FF"/>
<path d="M94.5573 124.944V120.902H95.1115V123.894C95.2359 123.688 95.3876 123.453 95.5665 123.189C95.7493 122.924 95.9418 122.656 96.144 122.384C96.3501 122.107 96.5562 121.841 96.7623 121.584C96.9723 121.324 97.1687 121.096 97.3515 120.902H97.8007V124.944H97.2465V121.789C97.1376 121.913 97.019 122.057 96.8907 122.22C96.7623 122.384 96.6301 122.559 96.494 122.745C96.3579 122.928 96.2198 123.119 96.0798 123.317C95.9437 123.515 95.8115 123.712 95.6832 123.906C95.5548 124.097 95.4343 124.281 95.3215 124.46C95.2126 124.639 95.1154 124.8 95.0298 124.944H94.5573ZM100.085 125.014C99.8396 125.014 99.6238 124.975 99.4371 124.898C99.2544 124.82 99.0988 124.711 98.9705 124.571C98.846 124.431 98.7527 124.266 98.6905 124.075C98.6283 123.881 98.5971 123.667 98.5971 123.434C98.5971 123.2 98.6302 122.986 98.6963 122.792C98.7663 122.597 98.8635 122.43 98.988 122.29C99.1124 122.146 99.2641 122.035 99.443 121.958C99.6258 121.876 99.828 121.835 100.05 121.835C100.186 121.835 100.322 121.847 100.458 121.87C100.594 121.894 100.724 121.93 100.849 121.981L100.726 122.442C100.645 122.403 100.549 122.372 100.44 122.349C100.335 122.325 100.223 122.314 100.102 122.314C99.7988 122.314 99.5655 122.409 99.4021 122.599C99.2427 122.79 99.163 123.068 99.163 123.434C99.163 123.597 99.1805 123.747 99.2155 123.883C99.2544 124.019 99.3127 124.135 99.3905 124.233C99.4721 124.33 99.5752 124.406 99.6996 124.46C99.8241 124.511 99.9758 124.536 100.155 124.536C100.299 124.536 100.429 124.522 100.545 124.495C100.662 124.468 100.754 124.439 100.82 124.408L100.895 124.863C100.864 124.882 100.82 124.902 100.761 124.921C100.703 124.937 100.637 124.95 100.563 124.962C100.489 124.977 100.409 124.989 100.324 124.997C100.242 125.009 100.162 125.014 100.085 125.014ZM103.916 124.944H103.374V122.366H102.02V124.944H101.478V121.911H103.916V124.944ZM107.528 123.428C107.528 123.669 107.493 123.887 107.423 124.081C107.353 124.275 107.254 124.443 107.125 124.583C107.001 124.723 106.851 124.832 106.676 124.909C106.501 124.983 106.311 125.02 106.104 125.02C105.898 125.02 105.708 124.983 105.533 124.909C105.358 124.832 105.206 124.723 105.078 124.583C104.953 124.443 104.856 124.275 104.786 124.081C104.716 123.887 104.681 123.669 104.681 123.428C104.681 123.19 104.716 122.975 104.786 122.78C104.856 122.582 104.953 122.413 105.078 122.273C105.206 122.133 105.358 122.026 105.533 121.952C105.708 121.874 105.898 121.835 106.104 121.835C106.311 121.835 106.501 121.874 106.676 121.952C106.851 122.026 107.001 122.133 107.125 122.273C107.254 122.413 107.353 122.582 107.423 122.78C107.493 122.975 107.528 123.19 107.528 123.428ZM106.962 123.428C106.962 123.085 106.884 122.815 106.729 122.617C106.577 122.415 106.369 122.314 106.104 122.314C105.84 122.314 105.63 122.415 105.474 122.617C105.323 122.815 105.247 123.085 105.247 123.428C105.247 123.77 105.323 124.042 105.474 124.244C105.63 124.443 105.84 124.542 106.104 124.542C106.369 124.542 106.577 124.443 106.729 124.244C106.884 124.042 106.962 123.77 106.962 123.428ZM109.347 122.366C109.347 122.494 109.343 122.632 109.335 122.78C109.331 122.924 109.322 123.07 109.306 123.218C109.29 123.362 109.269 123.505 109.242 123.649C109.215 123.789 109.18 123.922 109.137 124.046C109.094 124.17 109.04 124.287 108.974 124.396C108.911 124.505 108.834 124.602 108.74 124.688C108.647 124.769 108.538 124.839 108.414 124.898C108.289 124.952 108.143 124.987 107.976 125.003L107.9 124.548C108.091 124.509 108.24 124.437 108.349 124.332C108.462 124.227 108.552 124.099 108.618 123.947C108.676 123.815 108.719 123.665 108.746 123.498C108.773 123.33 108.793 123.157 108.804 122.979C108.816 122.796 108.822 122.613 108.822 122.43C108.826 122.247 108.828 122.074 108.828 121.911H110.846V124.944H110.304V122.366H109.347ZM112.927 124.565C113.156 124.565 113.337 124.52 113.469 124.431C113.601 124.342 113.667 124.198 113.667 123.999C113.667 123.902 113.648 123.819 113.609 123.749C113.57 123.679 113.516 123.622 113.446 123.579C113.38 123.533 113.302 123.5 113.212 123.48C113.123 123.457 113.028 123.445 112.927 123.445C112.822 123.445 112.713 123.449 112.6 123.457C112.491 123.461 112.398 123.472 112.32 123.492V124.536C112.343 124.54 112.378 124.544 112.425 124.548C112.472 124.552 112.522 124.555 112.577 124.559C112.635 124.559 112.693 124.561 112.752 124.565C112.814 124.565 112.872 124.565 112.927 124.565ZM111.777 124.88V121.911H112.32V123.072C112.351 123.064 112.392 123.056 112.442 123.049C112.497 123.041 112.553 123.033 112.612 123.025C112.674 123.017 112.738 123.012 112.804 123.008C112.87 123.004 112.932 123.002 112.991 123.002C113.158 123.002 113.315 123.021 113.463 123.06C113.611 123.095 113.739 123.154 113.848 123.235C113.961 123.313 114.05 123.416 114.117 123.544C114.183 123.669 114.216 123.819 114.216 123.994C114.216 124.176 114.185 124.332 114.122 124.46C114.06 124.589 113.971 124.694 113.854 124.775C113.737 124.857 113.597 124.915 113.434 124.95C113.275 124.989 113.096 125.009 112.897 125.009C112.703 125.009 112.512 124.997 112.326 124.974C112.139 124.954 111.956 124.923 111.777 124.88ZM115.629 121.835C115.804 121.835 115.968 121.853 116.119 121.888C116.271 121.923 116.401 121.975 116.51 122.045C116.619 122.115 116.705 122.203 116.767 122.308C116.829 122.413 116.86 122.535 116.86 122.675C116.86 122.765 116.845 122.846 116.813 122.92C116.782 122.994 116.743 123.06 116.697 123.119C116.65 123.177 116.598 123.227 116.539 123.27C116.485 123.309 116.432 123.336 116.382 123.352C116.561 123.406 116.701 123.504 116.802 123.644C116.907 123.78 116.959 123.953 116.959 124.163C116.959 124.45 116.843 124.664 116.609 124.804C116.376 124.944 116.059 125.014 115.658 125.014C115.413 125.014 115.201 124.995 115.023 124.956C114.848 124.917 114.723 124.88 114.649 124.845L114.743 124.384C114.805 124.408 114.916 124.441 115.075 124.484C115.238 124.522 115.433 124.542 115.658 124.542C115.903 124.542 116.09 124.505 116.218 124.431C116.347 124.353 116.411 124.239 116.411 124.087C116.411 123.978 116.386 123.89 116.335 123.824C116.288 123.754 116.228 123.702 116.154 123.667C116.08 123.632 116.001 123.609 115.915 123.597C115.83 123.585 115.75 123.579 115.676 123.579H115.168V123.148H115.658C115.728 123.148 115.8 123.144 115.874 123.136C115.952 123.124 116.022 123.103 116.084 123.072C116.15 123.041 116.205 122.998 116.248 122.944C116.29 122.885 116.312 122.809 116.312 122.716C116.312 122.642 116.292 122.58 116.253 122.529C116.218 122.475 116.17 122.43 116.108 122.395C116.045 122.36 115.971 122.335 115.886 122.319C115.804 122.3 115.719 122.29 115.629 122.29C115.559 122.29 115.483 122.296 115.402 122.308C115.32 122.319 115.24 122.335 115.163 122.354C115.085 122.37 115.015 122.387 114.953 122.407C114.89 122.426 114.846 122.444 114.818 122.459L114.719 121.993C114.75 121.981 114.799 121.965 114.865 121.946C114.931 121.927 115.005 121.909 115.087 121.894C115.172 121.878 115.262 121.864 115.355 121.853C115.448 121.841 115.54 121.835 115.629 121.835ZM120.391 123.428C120.391 123.669 120.356 123.887 120.286 124.081C120.216 124.275 120.117 124.443 119.988 124.583C119.864 124.723 119.714 124.832 119.539 124.909C119.364 124.983 119.174 125.02 118.967 125.02C118.761 125.02 118.571 124.983 118.396 124.909C118.221 124.832 118.069 124.723 117.941 124.583C117.816 124.443 117.719 124.275 117.649 124.081C117.579 123.887 117.544 123.669 117.544 123.428C117.544 123.19 117.579 122.975 117.649 122.78C117.719 122.582 117.816 122.413 117.941 122.273C118.069 122.133 118.221 122.026 118.396 121.952C118.571 121.874 118.761 121.835 118.967 121.835C119.174 121.835 119.364 121.874 119.539 121.952C119.714 122.026 119.864 122.133 119.988 122.273C120.117 122.413 120.216 122.582 120.286 122.78C120.356 122.975 120.391 123.19 120.391 123.428ZM119.825 123.428C119.825 123.085 119.747 122.815 119.592 122.617C119.44 122.415 119.232 122.314 118.967 122.314C118.703 122.314 118.493 122.415 118.337 122.617C118.186 122.815 118.11 123.085 118.11 123.428C118.11 123.77 118.186 124.042 118.337 124.244C118.493 124.443 118.703 124.542 118.967 124.542C119.232 124.542 119.44 124.443 119.592 124.244C119.747 124.042 119.825 123.77 119.825 123.428ZM121.685 124.536C121.708 124.54 121.741 124.544 121.784 124.548C121.827 124.552 121.875 124.555 121.93 124.559C121.984 124.559 122.041 124.561 122.099 124.565C122.161 124.565 122.22 124.565 122.274 124.565C122.387 124.565 122.494 124.557 122.595 124.542C122.7 124.526 122.789 124.499 122.863 124.46C122.941 124.421 123.001 124.371 123.044 124.309C123.091 124.242 123.114 124.159 123.114 124.058C123.114 123.96 123.093 123.881 123.05 123.819C123.011 123.752 122.957 123.7 122.887 123.661C122.817 123.622 122.733 123.595 122.636 123.579C122.542 123.564 122.441 123.556 122.332 123.556H121.685V124.536ZM122.262 123.154C122.367 123.154 122.463 123.148 122.548 123.136C122.638 123.12 122.713 123.095 122.776 123.06C122.842 123.025 122.892 122.979 122.927 122.92C122.966 122.862 122.986 122.788 122.986 122.699C122.986 122.605 122.962 122.531 122.916 122.477C122.869 122.422 122.807 122.382 122.729 122.354C122.655 122.323 122.57 122.304 122.472 122.296C122.379 122.284 122.284 122.279 122.187 122.279C122.097 122.279 122.006 122.28 121.912 122.284C121.823 122.288 121.747 122.292 121.685 122.296V123.154H122.262ZM122.251 124.997C122.021 124.997 121.809 124.985 121.615 124.962C121.42 124.942 121.267 124.919 121.154 124.892V121.94C121.267 121.913 121.42 121.89 121.615 121.87C121.809 121.847 122.021 121.835 122.251 121.835C122.41 121.835 122.566 121.849 122.717 121.876C122.869 121.903 123.003 121.95 123.12 122.016C123.237 122.078 123.33 122.166 123.4 122.279C123.474 122.387 123.511 122.524 123.511 122.687C123.511 122.835 123.474 122.961 123.4 123.066C123.326 123.171 123.227 123.253 123.102 123.311C123.27 123.369 123.402 123.457 123.499 123.574C123.6 123.686 123.651 123.846 123.651 124.052C123.651 124.235 123.614 124.386 123.54 124.507C123.47 124.627 123.371 124.725 123.242 124.799C123.118 124.872 122.97 124.923 122.799 124.95C122.628 124.981 122.445 124.997 122.251 124.997ZM125.376 124.554C125.505 124.554 125.618 124.552 125.715 124.548C125.816 124.54 125.9 124.528 125.966 124.513V123.609C125.927 123.589 125.863 123.574 125.773 123.562C125.688 123.546 125.583 123.539 125.458 123.539C125.376 123.539 125.289 123.544 125.196 123.556C125.106 123.568 125.023 123.593 124.945 123.632C124.871 123.667 124.809 123.717 124.758 123.784C124.708 123.846 124.682 123.929 124.682 124.034C124.682 124.229 124.745 124.365 124.869 124.443C124.993 124.517 125.163 124.554 125.376 124.554ZM125.33 121.835C125.548 121.835 125.73 121.864 125.878 121.923C126.03 121.977 126.15 122.057 126.24 122.162C126.333 122.263 126.399 122.385 126.438 122.529C126.477 122.669 126.496 122.825 126.496 122.996V124.892C126.45 124.9 126.384 124.911 126.298 124.927C126.216 124.939 126.123 124.95 126.018 124.962C125.913 124.974 125.798 124.983 125.674 124.991C125.553 125.003 125.433 125.009 125.312 125.009C125.141 125.009 124.984 124.991 124.84 124.956C124.696 124.921 124.571 124.867 124.466 124.793C124.361 124.715 124.28 124.614 124.221 124.489C124.163 124.365 124.134 124.215 124.134 124.04C124.134 123.873 124.167 123.729 124.233 123.609C124.303 123.488 124.396 123.391 124.513 123.317C124.63 123.243 124.766 123.189 124.921 123.154C125.077 123.119 125.24 123.101 125.411 123.101C125.466 123.101 125.522 123.105 125.581 123.113C125.639 123.117 125.693 123.124 125.744 123.136C125.798 123.144 125.845 123.152 125.884 123.159C125.923 123.167 125.95 123.173 125.966 123.177V123.025C125.966 122.936 125.956 122.848 125.936 122.763C125.917 122.673 125.882 122.595 125.831 122.529C125.781 122.459 125.711 122.405 125.621 122.366C125.536 122.323 125.423 122.302 125.283 122.302C125.104 122.302 124.947 122.315 124.811 122.343C124.678 122.366 124.579 122.391 124.513 122.419L124.449 121.969C124.519 121.938 124.636 121.909 124.799 121.882C124.962 121.851 125.139 121.835 125.33 121.835ZM129.882 124.944H129.34V123.603H127.94V124.944H127.397V121.911H127.94V123.148H129.34V121.911H129.882V124.944ZM133.3 124.944H132.758V123.603H131.358V124.944H130.815V121.911H131.358V123.148H132.758V121.911H133.3V124.944ZM135.348 123.445C135.243 123.445 135.14 123.449 135.038 123.457C134.941 123.461 134.854 123.472 134.776 123.492V124.536C134.799 124.54 134.832 124.544 134.875 124.548C134.922 124.552 134.97 124.555 135.021 124.559C135.075 124.559 135.13 124.561 135.184 124.565C135.239 124.565 135.287 124.565 135.33 124.565C135.567 124.565 135.75 124.52 135.878 124.431C136.007 124.342 136.071 124.198 136.071 123.999C136.071 123.902 136.05 123.819 136.007 123.749C135.968 123.679 135.913 123.622 135.843 123.579C135.777 123.533 135.701 123.5 135.616 123.48C135.53 123.457 135.441 123.445 135.348 123.445ZM134.233 121.911H134.776V123.072C134.842 123.056 134.937 123.041 135.062 123.025C135.19 123.01 135.313 123.002 135.429 123.002C135.589 123.002 135.74 123.021 135.884 123.06C136.028 123.095 136.155 123.154 136.263 123.235C136.372 123.313 136.458 123.416 136.52 123.544C136.586 123.669 136.619 123.819 136.619 123.994C136.619 124.176 136.588 124.332 136.526 124.46C136.464 124.589 136.376 124.694 136.263 124.775C136.151 124.857 136.015 124.915 135.855 124.95C135.696 124.989 135.521 125.009 135.33 125.009C135.147 125.009 134.963 124.997 134.776 124.974C134.589 124.954 134.408 124.923 134.233 124.88V121.911ZM137.722 124.944H137.179V121.911H137.722V124.944ZM138.485 123.434C138.485 123.165 138.524 122.932 138.602 122.734C138.679 122.531 138.782 122.364 138.911 122.232C139.039 122.1 139.187 122 139.354 121.934C139.521 121.868 139.692 121.835 139.867 121.835C140.276 121.835 140.589 121.964 140.807 122.22C141.024 122.473 141.133 122.86 141.133 123.381C141.133 123.404 141.133 123.435 141.133 123.474C141.133 123.509 141.131 123.542 141.127 123.574H139.051C139.074 123.889 139.165 124.128 139.325 124.291C139.484 124.454 139.733 124.536 140.072 124.536C140.262 124.536 140.422 124.52 140.55 124.489C140.682 124.454 140.781 124.421 140.847 124.39L140.923 124.845C140.857 124.88 140.74 124.917 140.573 124.956C140.41 124.995 140.223 125.014 140.013 125.014C139.749 125.014 139.519 124.975 139.325 124.898C139.134 124.816 138.977 124.705 138.852 124.565C138.728 124.425 138.635 124.26 138.572 124.069C138.514 123.875 138.485 123.663 138.485 123.434ZM140.567 123.136C140.571 122.891 140.509 122.691 140.381 122.535C140.256 122.376 140.083 122.296 139.862 122.296C139.737 122.296 139.626 122.321 139.529 122.372C139.436 122.419 139.356 122.481 139.29 122.559C139.224 122.636 139.171 122.726 139.132 122.827C139.097 122.928 139.074 123.031 139.062 123.136H140.567ZM143.84 122.71C143.801 123.095 143.772 123.48 143.753 123.865C143.733 124.246 143.718 124.606 143.706 124.944H143.187C143.195 124.707 143.206 124.46 143.222 124.204C143.237 123.943 143.255 123.682 143.274 123.422C143.294 123.157 143.315 122.899 143.338 122.646C143.362 122.389 143.387 122.144 143.414 121.911H143.91C144.035 122.113 144.18 122.391 144.348 122.745C144.515 123.095 144.707 123.5 144.925 123.959C145.143 123.5 145.335 123.095 145.503 122.745C145.67 122.391 145.816 122.113 145.94 121.911H146.442C146.469 122.144 146.494 122.389 146.518 122.646C146.541 122.899 146.562 123.157 146.582 123.422C146.601 123.682 146.619 123.943 146.634 124.204C146.65 124.46 146.661 124.707 146.669 124.944H146.133C146.121 124.606 146.105 124.246 146.086 123.865C146.066 123.48 146.037 123.095 145.998 122.71C145.936 122.831 145.864 122.977 145.783 123.148C145.701 123.315 145.619 123.486 145.538 123.661C145.46 123.836 145.386 124.003 145.316 124.163C145.246 124.322 145.191 124.449 145.153 124.542H144.698C144.655 124.445 144.596 124.316 144.523 124.157C144.453 123.997 144.377 123.83 144.295 123.655C144.217 123.476 144.138 123.303 144.056 123.136C143.974 122.965 143.902 122.823 143.84 122.71ZM150.207 123.428C150.207 123.669 150.172 123.887 150.102 124.081C150.032 124.275 149.933 124.443 149.804 124.583C149.68 124.723 149.53 124.832 149.355 124.909C149.18 124.983 148.99 125.02 148.783 125.02C148.577 125.02 148.387 124.983 148.212 124.909C148.037 124.832 147.885 124.723 147.757 124.583C147.632 124.443 147.535 124.275 147.465 124.081C147.395 123.887 147.36 123.669 147.36 123.428C147.36 123.19 147.395 122.975 147.465 122.78C147.535 122.582 147.632 122.413 147.757 122.273C147.885 122.133 148.037 122.026 148.212 121.952C148.387 121.874 148.577 121.835 148.783 121.835C148.99 121.835 149.18 121.874 149.355 121.952C149.53 122.026 149.68 122.133 149.804 122.273C149.933 122.413 150.032 122.582 150.102 122.78C150.172 122.975 150.207 123.19 150.207 123.428ZM149.641 123.428C149.641 123.085 149.563 122.815 149.408 122.617C149.256 122.415 149.048 122.314 148.783 122.314C148.519 122.314 148.309 122.415 148.153 122.617C148.002 122.815 147.926 123.085 147.926 123.428C147.926 123.77 148.002 124.042 148.153 124.244C148.309 124.443 148.519 124.542 148.783 124.542C149.048 124.542 149.256 124.443 149.408 124.244C149.563 124.042 149.641 123.77 149.641 123.428ZM153.455 124.944H152.913V123.603H151.513V124.944H150.97V121.911H151.513V123.148H152.913V121.911H153.455V124.944ZM154.219 123.434C154.219 123.165 154.258 122.932 154.336 122.734C154.413 122.531 154.516 122.364 154.645 122.232C154.773 122.1 154.921 122 155.088 121.934C155.255 121.868 155.426 121.835 155.601 121.835C156.01 121.835 156.323 121.964 156.541 122.22C156.758 122.473 156.867 122.86 156.867 123.381C156.867 123.404 156.867 123.435 156.867 123.474C156.867 123.509 156.865 123.542 156.861 123.574H154.785C154.808 123.889 154.899 124.128 155.059 124.291C155.218 124.454 155.467 124.536 155.806 124.536C155.996 124.536 156.156 124.52 156.284 124.489C156.416 124.454 156.515 124.421 156.581 124.39L156.657 124.845C156.591 124.88 156.474 124.917 156.307 124.956C156.144 124.995 155.957 125.014 155.747 125.014C155.483 125.014 155.253 124.975 155.059 124.898C154.868 124.816 154.711 124.705 154.586 124.565C154.462 124.425 154.369 124.26 154.306 124.069C154.248 123.875 154.219 123.663 154.219 123.434ZM156.301 123.136C156.305 122.891 156.243 122.691 156.115 122.535C155.99 122.376 155.817 122.296 155.596 122.296C155.471 122.296 155.36 122.321 155.263 122.372C155.17 122.419 155.09 122.481 155.024 122.559C154.958 122.636 154.905 122.726 154.866 122.827C154.831 122.928 154.808 123.031 154.796 123.136H156.301ZM159.787 121.911V122.366H158.802V124.944H158.259V122.366H157.273V121.911H159.787ZM161.461 123.445C161.356 123.445 161.253 123.449 161.152 123.457C161.054 123.461 160.967 123.472 160.889 123.492V124.536C160.913 124.54 160.946 124.544 160.988 124.548C161.035 124.552 161.084 124.555 161.134 124.559C161.189 124.559 161.243 124.561 161.298 124.565C161.352 124.565 161.401 124.565 161.443 124.565C161.681 124.565 161.863 124.52 161.992 124.431C162.12 124.342 162.184 124.198 162.184 123.999C162.184 123.902 162.163 123.819 162.12 123.749C162.081 123.679 162.027 123.622 161.957 123.579C161.891 123.533 161.815 123.5 161.729 123.48C161.644 123.457 161.554 123.445 161.461 123.445ZM160.347 121.911H160.889V123.072C160.955 123.056 161.051 123.041 161.175 123.025C161.303 123.01 161.426 123.002 161.543 123.002C161.702 123.002 161.854 123.021 161.998 123.06C162.141 123.095 162.268 123.154 162.377 123.235C162.486 123.313 162.571 123.416 162.633 123.544C162.699 123.669 162.733 123.819 162.733 123.994C162.733 124.176 162.701 124.332 162.639 124.46C162.577 124.589 162.489 124.694 162.377 124.775C162.264 124.857 162.128 124.915 161.968 124.95C161.809 124.989 161.634 125.009 161.443 125.009C161.261 125.009 161.076 124.997 160.889 124.974C160.703 124.954 160.522 124.923 160.347 124.88V121.911ZM163.835 124.944H163.293V121.911H163.835V124.944Z" fill="black"/>
<path d="M121.932 136.4C121.446 136.36 121.049 136.287 120.742 136.18C120.442 136.067 120.219 135.973 120.072 135.9L120.502 134.75C120.736 134.863 121.012 134.967 121.332 135.06C121.659 135.153 122.002 135.2 122.362 135.2C122.769 135.2 123.046 135.147 123.192 135.04C123.346 134.927 123.422 134.77 123.422 134.57C123.422 134.443 123.392 134.337 123.332 134.25C123.272 134.157 123.186 134.073 123.072 134C122.959 133.927 122.816 133.857 122.642 133.79C122.469 133.717 122.269 133.64 122.042 133.56C121.822 133.48 121.606 133.393 121.392 133.3C121.186 133.2 120.996 133.08 120.822 132.94C120.656 132.8 120.519 132.63 120.412 132.43C120.312 132.223 120.262 131.977 120.262 131.69C120.262 131.47 120.292 131.26 120.352 131.06C120.419 130.853 120.519 130.667 120.652 130.5C120.786 130.333 120.959 130.193 121.172 130.08C121.386 129.96 121.639 129.873 121.932 129.82V128.74H123.192V129.78C123.539 129.813 123.836 129.863 124.082 129.93C124.336 129.997 124.536 130.063 124.682 130.13L124.372 131.33C124.152 131.237 123.896 131.157 123.602 131.09C123.316 131.023 123.012 130.99 122.692 130.99C122.372 130.99 122.142 131.043 122.002 131.15C121.862 131.257 121.792 131.397 121.792 131.57C121.792 131.677 121.812 131.77 121.852 131.85C121.899 131.923 121.969 131.99 122.062 132.05C122.156 132.11 122.269 132.17 122.402 132.23C122.542 132.283 122.709 132.343 122.902 132.41C123.196 132.517 123.466 132.633 123.712 132.76C123.966 132.887 124.182 133.033 124.362 133.2C124.549 133.36 124.692 133.55 124.792 133.77C124.899 133.99 124.952 134.247 124.952 134.54C124.952 134.74 124.922 134.94 124.862 135.14C124.802 135.333 124.702 135.513 124.562 135.68C124.422 135.847 124.239 135.99 124.012 136.11C123.792 136.23 123.519 136.317 123.192 136.37V137.59H121.932V136.4ZM130.366 131.39C130.366 131.643 130.316 131.887 130.216 132.12C130.116 132.353 129.986 132.58 129.826 132.8C129.666 133.013 129.486 133.22 129.286 133.42C129.086 133.62 128.889 133.81 128.696 133.99C128.596 134.083 128.486 134.19 128.366 134.31C128.253 134.423 128.143 134.54 128.036 134.66C127.929 134.78 127.833 134.893 127.746 135C127.666 135.1 127.616 135.183 127.596 135.25H130.576V136.5H125.956C125.943 136.427 125.936 136.333 125.936 136.22C125.936 136.107 125.936 136.027 125.936 135.98C125.936 135.66 125.986 135.367 126.086 135.1C126.193 134.833 126.329 134.587 126.496 134.36C126.663 134.127 126.849 133.91 127.056 133.71C127.269 133.51 127.479 133.31 127.686 133.11C127.846 132.957 127.996 132.813 128.136 132.68C128.276 132.54 128.399 132.407 128.506 132.28C128.613 132.147 128.696 132.017 128.756 131.89C128.816 131.757 128.846 131.623 128.846 131.49C128.846 131.197 128.763 130.99 128.596 130.87C128.429 130.75 128.223 130.69 127.976 130.69C127.796 130.69 127.626 130.72 127.466 130.78C127.313 130.833 127.169 130.9 127.036 130.98C126.909 131.053 126.799 131.13 126.706 131.21C126.613 131.283 126.543 131.343 126.496 131.39L125.756 130.35C126.049 130.077 126.389 129.853 126.776 129.68C127.169 129.5 127.589 129.41 128.036 129.41C128.443 129.41 128.793 129.457 129.086 129.55C129.379 129.643 129.619 129.777 129.806 129.95C129.999 130.117 130.139 130.323 130.226 130.57C130.319 130.81 130.366 131.083 130.366 131.39ZM133.2 134.98C133.213 135.14 133.22 135.253 133.22 135.32C133.226 135.387 133.23 135.443 133.23 135.49C133.23 135.69 133.21 135.903 133.17 136.13C133.136 136.35 133.086 136.573 133.02 136.8C132.953 137.027 132.87 137.253 132.77 137.48C132.67 137.707 132.556 137.923 132.43 138.13L131.26 137.84C131.413 137.4 131.52 136.987 131.58 136.6C131.64 136.213 131.67 135.893 131.67 135.64C131.67 135.6 131.666 135.55 131.66 135.49C131.66 135.423 131.656 135.357 131.65 135.29C131.65 135.223 131.646 135.16 131.64 135.1C131.64 135.04 131.64 135 131.64 134.98H133.2ZM137.151 134.46C137.151 134.267 137.107 134.097 137.021 133.95C136.934 133.797 136.784 133.67 136.571 133.57C136.357 133.47 136.071 133.393 135.711 133.34C135.351 133.287 134.897 133.26 134.351 133.26C134.424 132.64 134.484 132.01 134.531 131.37C134.577 130.73 134.614 130.13 134.641 129.57H138.391V130.82H135.891C135.877 131.06 135.861 131.293 135.841 131.52C135.827 131.74 135.811 131.933 135.791 132.1C136.764 132.167 137.481 132.397 137.941 132.79C138.407 133.177 138.641 133.717 138.641 134.41C138.641 134.73 138.584 135.027 138.471 135.3C138.357 135.573 138.187 135.81 137.961 136.01C137.734 136.21 137.447 136.367 137.101 136.48C136.761 136.593 136.361 136.65 135.901 136.65C135.721 136.65 135.531 136.637 135.331 136.61C135.137 136.59 134.947 136.56 134.761 136.52C134.581 136.487 134.417 136.45 134.271 136.41C134.124 136.37 134.011 136.33 133.931 136.29L134.201 135.06C134.367 135.133 134.587 135.207 134.861 135.28C135.134 135.347 135.461 135.38 135.841 135.38C136.301 135.38 136.634 135.29 136.841 135.11C137.047 134.923 137.151 134.707 137.151 134.46ZM141.974 133.24C141.827 133.24 141.671 133.253 141.504 133.28C141.337 133.307 141.207 133.343 141.114 133.39C141.114 133.417 141.111 133.457 141.104 133.51C141.104 133.563 141.104 133.61 141.104 133.65C141.104 133.89 141.121 134.117 141.154 134.33C141.187 134.543 141.244 134.73 141.324 134.89C141.404 135.05 141.511 135.177 141.644 135.27C141.777 135.357 141.944 135.4 142.144 135.4C142.311 135.4 142.451 135.367 142.564 135.3C142.684 135.227 142.781 135.137 142.854 135.03C142.934 134.923 142.991 134.807 143.024 134.68C143.064 134.547 143.084 134.42 143.084 134.3C143.084 133.96 142.997 133.7 142.824 133.52C142.657 133.333 142.374 133.24 141.974 133.24ZM142.164 132.08C142.597 132.08 142.964 132.14 143.264 132.26C143.571 132.373 143.821 132.53 144.014 132.73C144.207 132.93 144.347 133.163 144.434 133.43C144.521 133.697 144.564 133.98 144.564 134.28C144.564 134.547 144.514 134.82 144.414 135.1C144.321 135.38 144.174 135.633 143.974 135.86C143.781 136.087 143.531 136.273 143.224 136.42C142.924 136.567 142.567 136.64 142.154 136.64C141.321 136.64 140.687 136.377 140.254 135.85C139.821 135.323 139.604 134.597 139.604 133.67C139.604 133.003 139.707 132.413 139.914 131.9C140.121 131.387 140.414 130.957 140.794 130.61C141.181 130.257 141.644 129.99 142.184 129.81C142.731 129.623 143.344 129.527 144.024 129.52C144.037 129.727 144.051 129.93 144.064 130.13C144.077 130.323 144.091 130.527 144.104 130.74C143.764 130.747 143.444 130.78 143.144 130.84C142.851 130.893 142.581 130.98 142.334 131.1C142.094 131.22 141.884 131.377 141.704 131.57C141.524 131.757 141.384 131.987 141.284 132.26C141.431 132.193 141.581 132.147 141.734 132.12C141.887 132.093 142.031 132.08 142.164 132.08ZM148.108 131.39C147.848 131.73 147.571 132.1 147.278 132.5C146.984 132.9 146.738 133.31 146.538 133.73H148.108V131.39ZM149.568 129.57V133.73H150.308V134.95H149.568V136.5H148.108V134.95H145.118V133.86C145.264 133.567 145.448 133.237 145.668 132.87C145.888 132.497 146.131 132.117 146.398 131.73C146.671 131.337 146.958 130.953 147.258 130.58C147.558 130.207 147.858 129.87 148.158 129.57H149.568ZM152.761 135.71C152.761 136.01 152.665 136.24 152.471 136.4C152.285 136.553 152.071 136.63 151.831 136.63C151.591 136.63 151.375 136.553 151.181 136.4C150.995 136.24 150.901 136.01 150.901 135.71C150.901 135.41 150.995 135.183 151.181 135.03C151.375 134.87 151.591 134.79 151.831 134.79C152.071 134.79 152.285 134.87 152.471 135.03C152.665 135.183 152.761 135.41 152.761 135.71ZM156.662 134.46C156.662 134.267 156.619 134.097 156.532 133.95C156.446 133.797 156.296 133.67 156.082 133.57C155.869 133.47 155.582 133.393 155.222 133.34C154.862 133.287 154.409 133.26 153.862 133.26C153.936 132.64 153.996 132.01 154.042 131.37C154.089 130.73 154.126 130.13 154.152 129.57H157.902V130.82H155.402C155.389 131.06 155.372 131.293 155.352 131.52C155.339 131.74 155.322 131.933 155.302 132.1C156.276 132.167 156.992 132.397 157.452 132.79C157.919 133.177 158.152 133.717 158.152 134.41C158.152 134.73 158.096 135.027 157.982 135.3C157.869 135.573 157.699 135.81 157.472 136.01C157.246 136.21 156.959 136.367 156.612 136.48C156.272 136.593 155.872 136.65 155.412 136.65C155.232 136.65 155.042 136.637 154.842 136.61C154.649 136.59 154.459 136.56 154.272 136.52C154.092 136.487 153.929 136.45 153.782 136.41C153.636 136.37 153.522 136.33 153.442 136.29L153.712 135.06C153.879 135.133 154.099 135.207 154.372 135.28C154.646 135.347 154.972 135.38 155.352 135.38C155.812 135.38 156.146 135.29 156.352 135.11C156.559 134.923 156.662 134.707 156.662 134.46ZM161.636 132.78C161.789 132.78 161.949 132.767 162.116 132.74C162.283 132.707 162.406 132.663 162.486 132.61V132.52C162.486 132.493 162.486 132.467 162.486 132.44C162.493 132.413 162.496 132.39 162.496 132.37C162.489 132.13 162.469 131.907 162.436 131.7C162.403 131.487 162.346 131.303 162.266 131.15C162.186 130.99 162.076 130.867 161.936 130.78C161.803 130.687 161.636 130.64 161.436 130.64C161.276 130.64 161.136 130.673 161.016 130.74C160.896 130.807 160.799 130.893 160.726 131C160.653 131.107 160.596 131.223 160.556 131.35C160.523 131.477 160.506 131.6 160.506 131.72C160.506 132.08 160.593 132.347 160.766 132.52C160.946 132.693 161.236 132.78 161.636 132.78ZM162.366 133.75C162.226 133.817 162.069 133.867 161.896 133.9C161.729 133.927 161.586 133.94 161.466 133.94C161.033 133.94 160.663 133.89 160.356 133.79C160.049 133.683 159.796 133.537 159.596 133.35C159.403 133.157 159.259 132.927 159.166 132.66C159.073 132.393 159.026 132.1 159.026 131.78C159.026 131.513 159.069 131.24 159.156 130.96C159.249 130.68 159.393 130.427 159.586 130.2C159.779 129.967 160.023 129.777 160.316 129.63C160.616 129.477 160.976 129.4 161.396 129.4C162.256 129.4 162.903 129.667 163.336 130.2C163.776 130.727 163.996 131.487 163.996 132.48C163.996 133.133 163.909 133.71 163.736 134.21C163.569 134.71 163.306 135.13 162.946 135.47C162.593 135.81 162.139 136.07 161.586 136.25C161.033 136.423 160.376 136.513 159.616 136.52C159.609 136.307 159.599 136.1 159.586 135.9C159.573 135.7 159.559 135.493 159.546 135.28C159.926 135.273 160.269 135.247 160.576 135.2C160.883 135.147 161.153 135.063 161.386 134.95C161.619 134.83 161.816 134.673 161.976 134.48C162.143 134.287 162.273 134.043 162.366 133.75Z" fill="black"/>
<rect x="191.441" y="119.389" width="18.5036" height="18.6667" rx="9.25179" fill="#F5F5F5"/>
<path d="M196.937 129.994L197.715 131.34C197.767 131.429 197.852 131.494 197.951 131.52C198.051 131.547 198.157 131.533 198.246 131.481L198.789 131.168C199.015 131.346 199.264 131.492 199.526 131.6V132.222C199.526 132.325 199.567 132.424 199.64 132.497C199.713 132.57 199.812 132.611 199.915 132.611H201.471C201.574 132.611 201.673 132.57 201.746 132.497C201.818 132.424 201.859 132.325 201.859 132.222V131.6C202.124 131.49 202.372 131.345 202.596 131.168L203.139 131.481C203.325 131.588 203.564 131.524 203.671 131.34L204.448 129.994C204.499 129.905 204.513 129.799 204.487 129.699C204.46 129.6 204.395 129.515 204.306 129.463L203.773 129.154C203.814 128.868 203.814 128.576 203.772 128.289L204.306 127.981C204.491 127.874 204.555 127.635 204.448 127.45L203.67 126.104C203.618 126.015 203.533 125.95 203.434 125.923C203.334 125.897 203.228 125.911 203.139 125.962L202.596 126.276C202.371 126.099 202.123 125.953 201.859 125.843V125.222C201.859 125.119 201.818 125.02 201.745 124.947C201.672 124.874 201.573 124.833 201.47 124.833H199.915C199.811 124.833 199.713 124.874 199.64 124.947C199.567 125.02 199.526 125.119 199.526 125.222V125.843C199.262 125.953 199.014 126.099 198.789 126.276L198.246 125.962C198.202 125.937 198.153 125.92 198.103 125.913C198.052 125.907 198.001 125.91 197.951 125.923C197.902 125.936 197.856 125.959 197.815 125.99C197.775 126.021 197.741 126.06 197.715 126.104L196.937 127.45C196.886 127.539 196.872 127.645 196.899 127.745C196.925 127.844 196.99 127.929 197.079 127.981L197.613 128.289C197.571 128.576 197.571 128.868 197.613 129.154L197.079 129.463C196.894 129.57 196.83 129.809 196.937 129.994V129.994ZM200.692 127.166C201.55 127.166 202.248 127.864 202.248 128.722C202.248 129.58 201.55 130.277 200.692 130.277C199.835 130.277 199.137 129.58 199.137 128.722C199.137 127.864 199.835 127.166 200.692 127.166Z" fill="black"/>
</g>
</g>
<defs>
<filter id="filter0_d_110_1809" x="0" y="0" width="236" height="236" filterUnits="userSpaceOnUse" color-interpolation-filters="sRGB">
<feFlood flood-opacity="0" result="BackgroundImageFix"/>
<feColorMatrix in="SourceAlpha" type="matrix" values="0 0 0 0 0 0 0 0 0 0 0 0 0 0 0 0 0 0 127 0" result="hardAlpha"/>
<feMorphology radius="20" operator="erode" in="SourceAlpha" result="effect1_dropShadow_110_1809"/>
<feOffset dx="-34" dy="36"/>
<feGaussianBlur stdDeviation="34"/>
<feComposite in2="hardAlpha" operator="out"/>
<feColorMatrix type="matrix" values="0 0 0 0 0.808333 0 0 0 0 0.808333 0 0 0 0 0.808333 0 0 0 1 0"/>
<feBlend mode="normal" in2="BackgroundImageFix" result="effect1_dropShadow_110_1809"/>
<feBlend mode="normal" in="SourceGraphic" in2="effect1_dropShadow_110_1809" result="shape"/>
</filter>
<clipPath id="clip0_110_1809">
<rect width="115.889" height="63.7778" fill="white" transform="translate(94.0557 25.2222)"/>
</clipPath>
<clipPath id="clip1_110_1809">
<rect width="63.7778" height="63.7778" fill="white" transform="translate(94.0557 25.2222)"/>
</clipPath>
<clipPath id="clip2_110_1809">
<rect width="35.5556" height="35" fill="white" transform="translate(174.389 39.6108)"/>
</clipPath>
<clipPath id="clip3_110_1809">
<rect width="27.5556" height="7" fill="white" transform="translate(174.389 39.6108)"/>
</clipPath>
<clipPath id="clip4_110_1809">
<rect width="35.5556" height="7" fill="white" transform="translate(174.389 48.9443)"/>
</clipPath>
<clipPath id="clip5_110_1809">
<rect width="26.5556" height="7" fill="white" transform="translate(174.389 58.2773)"/>
</clipPath>
<clipPath id="clip6_110_1809">
<rect width="30.5556" height="7" fill="white" transform="translate(174.389 67.6108)"/>
</clipPath>
<clipPath id="clip7_110_1809">
<rect width="115.889" height="10.5" fill="white" transform="translate(94.0557 98.7222)"/>
</clipPath>
<clipPath id="clip8_110_1809">
<rect width="115.889" height="19.5557" fill="white" transform="translate(94.0557 118.944)"/>
</clipPath>
</defs>
</svg>
