<svg width="313" height="402" viewBox="0 0 313 402" fill="none" xmlns="http://www.w3.org/2000/svg">
<path d="M179.227 372.107C187.665 370.218 196.333 368.263 205.437 370.689L202.85 371.414C194.974 369.904 187.378 371.615 179.517 373.388C167.553 376.073 155.174 378.853 141.654 369.165C138.519 366.925 136.051 364.521 134.093 362.007L122.482 365.269C120.272 365.888 117.979 364.594 117.365 362.402L110.162 336.753C109.548 334.562 110.826 332.268 113.036 331.649L124.888 328.32C123.563 318.302 120.881 308.968 110.114 301.245C97.0828 291.893 85.5249 294.499 73.3165 297.241C71.1584 297.722 68.9794 298.208 66.7857 298.642L66.4292 297.369C68.6078 296.961 70.8182 296.466 73.0287 295.971C84.9979 293.262 97.3768 290.483 110.886 300.173C121.95 308.106 124.812 317.964 126.162 327.952L131.671 326.409C133.87 325.794 136.174 327.085 136.785 329.266L143.988 354.915C144.605 357.117 143.306 359.417 141.118 360.029L135.42 361.624C137.273 363.886 139.561 366.048 142.427 368.093C155.46 377.455 166.997 374.856 179.227 372.107Z" fill="url(#paint0_linear_110_1579)"/>
<path d="M266.557 349.548C266.685 350.852 266.817 352.132 266.973 353.416L265.696 353.774C265.529 352.413 265.394 351.044 265.262 349.685C263.988 337.267 262.793 325.536 249.755 316.198C236.724 306.846 225.176 309.449 212.957 312.194C200.993 314.88 188.617 317.669 175.097 307.982C161.577 298.294 160.293 285.721 159.054 273.552C157.78 261.134 156.595 249.4 143.567 240.059C130.539 230.718 118.978 233.313 106.77 236.055C94.8055 238.741 82.4324 241.541 68.9094 231.843C55.3998 222.153 54.1054 209.583 52.8696 197.424C51.5952 185.006 50.4106 173.272 37.3827 163.93C34.0194 161.518 30.7676 159.907 27.5689 158.889L27.154 157.407C30.7409 158.44 34.3996 160.173 38.1526 162.848C51.6622 172.539 52.9357 185.114 54.1953 197.278C55.4488 209.702 56.6543 221.43 69.6822 230.771C82.7131 240.123 94.2605 237.52 106.479 234.775C118.444 232.089 130.82 229.3 144.34 238.987C157.85 248.677 159.141 261.237 160.38 273.406C161.633 285.83 162.842 297.569 175.873 306.921C188.903 316.272 200.451 313.67 212.67 310.924C224.634 308.238 237.007 305.438 250.53 315.136C264.037 324.816 265.321 337.389 266.557 349.548Z" fill="url(#paint1_linear_110_1579)"/>
<path d="M55.4418 129.565L55.1026 129.604L53.2061 122.83C52.9909 121.9 53.0662 121.08 53.9805 120.554L60.6764 117.081C57.3544 119.575 55.2438 123.937 55.4418 129.565Z" fill="url(#paint2_linear_110_1579)"/>
<path d="M61.6742 116.61L63.2108 115.685L51.0374 114.478L49.7429 109.854L67.7126 112.241L69.0042 116.854L56.695 124.521C57.7207 121.206 59.9106 118.015 61.6742 116.61Z" fill="url(#paint3_linear_110_1579)"/>
<path d="M52.5116 100.503C49.3849 101.355 46.3324 98.9235 45.1256 94.6129C44.6522 92.922 44.6255 91.4551 44.7105 90.5083L48.354 90.1298L48.287 90.5763C48.1903 91.4813 48.1758 92.5996 48.5866 94.0266C49.0629 95.7278 50.0106 96.3292 50.6808 96.1415C51.4273 95.9438 51.6641 94.8533 51.981 93.1213C52.4288 90.2834 53.4839 88.7274 55.3358 88.2426C58.6824 87.3282 61.6755 89.7093 62.9583 94.2912C63.4867 96.2593 63.6148 98.2494 63.4613 99.3954L59.6863 99.7882L59.7828 99.1647C59.9794 97.5677 59.9677 96.5579 59.4797 94.8149C59.1291 93.5624 58.2599 92.3538 57.1754 92.635C56.4603 92.8239 56.1213 93.5491 55.8092 95.4599C55.5093 97.3334 54.8214 99.8784 52.5116 100.503Z" fill="url(#paint4_linear_110_1579)"/>
<path d="M60.6585 87.0452L44.0908 84.7053C42.9255 84.5364 42.4101 83.8252 42.1179 82.7815L41.1741 79.4103L56.2561 71.3609L57.3928 75.421C57.3928 75.421 55.6606 76.3337 55.1436 76.6248L56.7098 82.2191C57.1755 82.2689 59.3652 82.4662 59.3652 82.4662L60.6585 87.0452Z" fill="url(#paint5_linear_110_1579)"/>
<path d="M10.8582 60.8399C13.3091 58.4204 16.4091 56.5845 19.9593 55.5906L43.2132 49.0576C46.3077 48.574 49.3572 47.889 52.3753 47.2129C64.6046 44.4644 76.1416 41.8647 89.1724 51.2164C102.203 60.5682 103.398 72.2994 104.659 84.7099C105.895 96.8687 107.179 109.442 120.699 119.129C134.212 128.83 146.588 126.04 158.56 123.341C170.768 120.599 182.326 117.993 195.357 127.345C208.388 136.697 209.583 148.428 210.844 160.838C212.082 173.008 213.366 185.581 226.887 195.268C240.396 204.958 252.775 202.179 264.747 199.48C266.958 198.985 269.155 198.483 271.347 198.083L290.597 266.641C289.917 266.066 289.181 265.496 288.406 264.947C274.894 255.246 262.518 258.036 250.546 260.735C238.316 263.483 226.779 266.083 213.749 256.731C200.718 247.38 199.509 235.641 198.256 223.217C197.017 211.048 195.736 198.485 182.216 188.798C168.706 179.107 156.328 181.887 144.355 184.586C132.126 187.334 120.589 189.934 107.558 180.582C94.5275 171.23 93.322 159.502 92.0714 147.089C90.8223 134.922 89.5488 122.346 76.0287 112.659C71.4952 109.415 67.092 107.564 62.7829 106.654L66.0528 106.312L64.8313 101.95L47.9902 103.716L48.7383 106.388C45.1689 106.869 41.6527 107.662 38.1709 108.457C29.993 110.308 22.1159 112.063 13.8982 110.222L14.2898 111.62C22.6505 113.286 30.6398 111.488 38.4588 109.727C42.0511 108.924 45.5777 108.128 49.0919 107.651L49.2117 108.079L57.3954 107.217C63.1657 107.537 69.0378 109.27 75.253 113.72C88.2838 123.072 89.4789 134.803 90.7399 147.214C91.9756 159.372 93.2596 171.945 106.78 181.633C120.292 191.334 132.668 188.544 144.64 185.845C156.849 183.103 168.407 180.497 181.437 189.849C194.468 199.2 195.663 210.932 196.924 223.342C198.163 235.511 199.447 248.084 212.967 257.772C226.487 267.459 238.885 264.709 250.847 262.012C263.076 259.264 274.613 256.664 287.644 266.016C288.96 266.964 290.165 267.921 291.24 268.937L305.834 320.903C307.914 328.29 305.78 335.877 300.883 341.097C306.157 335.85 308.513 328.01 306.363 320.372L222.153 20.4353C218.989 9.17642 207.261 2.6227 195.975 5.79385L20.4674 55.0656C16.6553 56.1329 13.3839 58.1631 10.8582 60.8399ZM195.443 6.31419C206.74 3.1401 218.46 9.70719 221.621 20.9556L260.106 158.054C260.026 158.009 259.953 157.951 259.867 157.885C246.836 148.533 245.627 136.794 244.374 124.371C243.135 112.201 241.854 99.6388 228.334 89.9514C214.824 80.261 202.446 83.0401 190.473 85.7391C178.244 88.4876 166.707 91.0873 153.676 81.7356C140.645 72.3838 139.44 60.6556 138.189 48.2421C137.341 40.0493 136.491 31.6882 131.907 24.1475L195.443 6.31419ZM130.632 24.5156C135.188 31.7941 136.011 39.9377 136.888 48.3927C138.123 60.5515 139.407 73.1244 152.927 82.8119C166.44 92.5127 178.816 89.7232 190.788 87.0242C202.996 84.2815 214.554 81.676 227.585 91.0277C240.616 100.379 241.811 112.111 243.072 124.521C244.311 136.69 245.595 149.263 259.115 158.951C259.626 159.325 260.156 159.684 260.676 160.011L271.008 196.793C268.812 197.217 266.643 197.7 264.477 198.194C252.248 200.942 240.711 203.542 227.68 194.19C214.649 184.839 213.444 173.11 212.187 160.676C210.949 148.507 209.668 135.944 196.148 126.257C182.638 116.566 170.259 119.346 158.287 122.045C146.058 124.793 134.521 127.393 121.49 118.041C108.459 108.689 107.254 96.9611 106.003 84.5476C104.754 72.3813 103.48 59.8054 89.9603 50.1179C79.6311 42.7111 69.9674 42.6028 60.6548 44.152L130.632 24.5156Z" fill="url(#paint6_linear_110_1579)"/>
<path d="M66.796 298.639C68.9926 298.215 71.1612 297.732 73.3268 297.238C85.5352 294.496 97.0931 291.89 110.124 301.242C120.881 308.968 123.573 318.299 124.898 328.317L113.046 331.646C110.836 332.265 109.558 334.558 110.172 336.75L117.376 362.399C117.992 364.602 120.286 365.895 122.492 365.266L134.104 362.004C136.071 364.515 138.53 366.922 141.664 369.162C155.174 378.852 167.553 376.073 179.517 373.388C187.378 371.615 194.974 369.904 202.85 371.413L116.123 395.762C104.847 398.93 93.1053 392.369 89.9553 381.118L66.796 298.639Z" fill="url(#paint7_linear_110_1579)"/>
<path d="M27.5526 158.871C30.7542 159.9 34.0031 161.5 37.3664 163.912C50.3972 173.264 51.5923 184.995 52.8533 197.406C54.089 209.565 55.373 222.138 68.8931 231.825C82.4056 241.526 94.7816 238.736 106.754 236.037C118.962 233.295 130.52 230.689 143.551 240.041C156.582 249.393 157.777 261.124 159.038 273.534C160.276 285.704 161.56 298.277 175.08 307.964C188.601 317.652 200.969 314.875 212.941 312.176C225.171 309.428 236.707 306.828 249.738 316.18C262.769 325.532 263.975 337.26 265.246 349.668C265.381 351.037 265.526 352.403 265.679 353.756L205.421 370.671C196.314 368.235 187.656 370.186 179.21 372.089C166.981 374.838 155.444 377.437 142.413 368.086C139.558 366.037 137.26 363.878 135.407 361.617L141.104 360.022C143.303 359.406 144.592 357.109 143.975 354.907L136.772 329.258C136.158 327.066 133.857 325.786 131.658 326.402L126.149 327.944C124.801 317.966 121.937 308.098 110.873 300.165C97.3768 290.482 84.9979 293.262 73.0362 295.958C70.8258 296.453 68.6287 296.955 66.4368 297.355L27.5526 158.871Z" fill="url(#paint8_linear_110_1579)"/>
<path d="M27.1376 157.389C30.7245 158.422 34.3832 160.156 38.1362 162.83C51.6458 172.521 52.9193 185.097 54.1789 197.26C55.4323 209.684 56.6379 221.412 69.6658 230.754C82.6966 240.105 94.244 237.503 106.463 234.757C118.428 232.071 130.803 229.282 144.324 238.969C157.833 248.66 159.125 261.219 160.363 273.388C161.617 285.812 162.825 297.551 175.856 306.903C188.887 316.255 200.434 313.652 212.653 310.906C224.618 308.221 236.991 305.421 250.514 315.119C264.024 324.809 265.318 337.379 266.554 349.538C266.681 350.841 266.814 352.121 266.97 353.406L291.627 346.48C295.136 345.498 298.197 343.684 300.646 341.299C300.736 341.217 300.811 341.162 300.864 341.069C305.761 335.849 307.887 328.275 305.815 320.875L291.221 268.909C290.149 267.904 288.944 266.947 287.625 265.988C274.594 256.636 263.047 259.239 250.828 261.984C238.863 264.67 226.487 267.459 212.967 257.772C199.447 248.084 198.163 235.511 196.924 223.342C195.65 210.924 194.465 199.19 181.437 189.849C168.409 180.507 156.849 183.103 144.64 185.845C132.676 188.531 120.303 191.331 106.78 181.633C93.27 171.943 91.9756 159.373 90.7398 147.214C89.4654 134.796 88.2808 123.062 75.2529 113.72C69.0348 109.259 63.1628 107.527 57.3953 107.217L49.2116 108.079L49.0918 107.651C45.5747 108.118 42.0481 108.914 38.4587 109.727C30.6398 111.489 22.6475 113.276 14.2897 111.62L27.1376 157.389ZM55.1026 129.604L53.2061 122.83C52.9909 121.9 53.0662 121.08 53.9805 120.554L60.6765 117.081C57.3678 119.583 55.2543 123.934 55.4523 129.563L55.1026 129.604ZM67.702 112.244L68.9936 116.857L56.6844 124.524C57.7101 121.209 59.9105 118.016 61.6636 116.613L63.2002 115.688L51.0267 114.481L49.7323 109.858L67.702 112.244Z" fill="url(#paint9_linear_110_1579)"/>
<path d="M55.4418 129.565L55.1026 129.604L53.2061 122.83C52.9909 121.9 53.0662 121.08 53.9805 120.554L60.6764 117.081C57.3544 119.575 55.2438 123.937 55.4418 129.565Z" fill="url(#paint10_linear_110_1579)"/>
<path d="M61.6742 116.61L63.2108 115.685L51.0374 114.478L49.7429 109.854L67.7126 112.241L69.0042 116.854L56.695 124.521C57.7207 121.206 59.9106 118.015 61.6742 116.61Z" fill="url(#paint11_linear_110_1579)"/>
<path d="M10.8582 60.8401C8.5463 63.2319 6.86302 66.1343 5.89186 69.3214C4.7351 73.0556 4.61705 77.1519 5.74499 81.1806L13.8982 110.222C22.1159 112.063 29.9901 110.297 38.1709 108.457C41.6556 107.673 45.1688 106.87 48.7383 106.388L47.9902 103.716L64.8313 101.95L66.0527 106.313L62.7829 106.654C67.089 107.553 71.4952 109.415 76.0286 112.659C89.5383 122.35 90.8117 134.925 92.0713 147.089C93.3248 159.513 94.5304 171.241 107.558 180.582C120.589 189.934 132.137 187.331 144.355 184.586C156.32 181.9 168.696 179.111 182.216 188.798C195.726 198.488 197.017 211.048 198.256 223.217C199.509 235.641 200.718 247.38 213.749 256.732C226.779 266.083 238.327 263.481 250.546 260.735C262.51 258.049 274.883 255.249 288.406 264.947C289.181 265.496 289.906 266.069 290.597 266.641L271.347 198.083C269.168 198.49 266.958 198.985 264.747 199.48C252.783 202.166 240.407 204.956 226.886 195.268C213.377 185.578 212.082 173.008 210.844 160.839C209.569 148.421 208.385 136.686 195.357 127.345C182.329 118.004 170.768 120.599 158.56 123.342C146.595 126.027 134.222 128.827 120.699 119.129C107.189 109.439 105.895 96.8689 104.659 84.7101C103.385 72.2921 102.2 60.5579 89.1723 51.2166C76.1415 41.8649 64.5941 44.4675 52.3752 47.2131C49.3496 47.9026 46.2972 48.5771 43.2131 49.0579L19.9592 55.5908C16.409 56.5847 13.3091 58.4206 10.8582 60.8401ZM62.9524 94.2708C63.4808 96.2388 63.6089 98.229 63.4554 99.375L59.6804 99.7678L59.7768 99.1442C59.9735 97.5472 59.9618 96.5375 59.4738 94.7944C59.1232 93.542 58.254 92.3334 57.1695 92.6145C56.4544 92.8034 56.1154 93.5287 55.8033 95.4394C55.5063 97.3234 54.8318 99.8759 52.5191 100.49C49.3924 101.342 46.3399 98.9105 45.133 94.5999C44.6597 92.9091 44.6329 91.4421 44.718 90.4953L48.3614 90.1168L48.2945 90.5633C48.1977 91.4683 48.1833 92.5866 48.5941 94.0136C49.0704 95.7149 50.018 96.3162 50.6883 96.1286C51.4348 95.9309 51.6715 94.8403 51.9885 93.1083C52.4362 90.2704 53.4913 88.7144 55.3433 88.2297C58.666 87.3106 61.6591 89.6917 62.9524 94.2708ZM57.3899 75.4108C57.3899 75.4108 55.6577 76.3235 55.1407 76.6146L56.7069 82.209C57.1726 82.2587 59.3623 82.456 59.3623 82.456L60.648 87.0484L44.0804 84.7085C42.915 84.5395 42.3997 83.8284 42.1075 82.7847L41.1636 79.4134L56.2456 71.3641L57.3899 75.4108Z" fill="url(#paint12_linear_110_1579)"/>
<path d="M52.5116 100.503C49.3849 101.355 46.3324 98.9235 45.1256 94.6129C44.6522 92.922 44.6255 91.4551 44.7105 90.5083L48.354 90.1298L48.287 90.5763C48.1903 91.4813 48.1758 92.5996 48.5866 94.0266C49.0629 95.7278 50.0106 96.3292 50.6808 96.1415C51.4273 95.9438 51.6641 94.8533 51.981 93.1213C52.4288 90.2834 53.4839 88.7274 55.3358 88.2426C58.6824 87.3282 61.6755 89.7093 62.9583 94.2912C63.4867 96.2593 63.6148 98.2494 63.4613 99.3954L59.6863 99.7882L59.7828 99.1647C59.9794 97.5677 59.9677 96.5579 59.4797 94.8149C59.1291 93.5624 58.2599 92.3538 57.1754 92.635C56.4603 92.8239 56.1213 93.5491 55.8092 95.4599C55.5093 97.3334 54.8214 99.8784 52.5116 100.503Z" fill="url(#paint13_linear_110_1579)"/>
<path d="M60.6585 87.0452L44.0908 84.7053C42.9255 84.5364 42.4101 83.8252 42.1179 82.7815L41.1741 79.4103L56.2561 71.3609L57.3928 75.421C57.3928 75.421 55.6606 76.3337 55.1436 76.6248L56.7098 82.2191C57.1755 82.2689 59.3652 82.4662 59.3652 82.4662L60.6585 87.0452Z" fill="url(#paint14_linear_110_1579)"/>
<path d="M60.6366 44.1681L130.632 24.5154C135.188 31.7938 136.011 39.9374 136.887 48.3925C138.123 60.5512 139.407 73.1242 152.927 82.8117C166.44 92.5125 178.816 89.723 190.788 87.0239C202.996 84.2813 214.554 81.6757 227.585 91.0275C240.616 100.379 241.811 112.11 243.072 124.521C244.31 136.69 245.594 149.263 259.115 158.951C259.626 159.325 260.155 159.683 260.676 160.01L271.008 196.793C268.811 197.217 266.643 197.7 264.477 198.194C252.248 200.942 240.711 203.542 227.68 194.19C214.649 184.838 213.444 173.11 212.187 160.676C210.949 148.507 209.668 135.944 196.148 126.257C182.638 116.566 170.259 119.345 158.287 122.044C146.058 124.793 134.521 127.393 121.49 118.041C108.459 108.689 107.253 96.9608 106.003 84.5474C104.754 72.3811 103.48 59.8052 89.9602 50.1177C79.6129 42.7272 69.9492 42.6189 60.6366 44.1681Z" fill="url(#paint15_linear_110_1579)"/>
<path d="M10.8582 60.8399C13.3091 58.4204 16.4091 56.5845 19.9593 55.5906L43.2132 49.0576C46.3077 48.574 49.3572 47.889 52.3753 47.2129C64.6046 44.4644 76.1416 41.8647 89.1724 51.2164C102.203 60.5682 103.398 72.2994 104.659 84.7099C105.895 96.8687 107.179 109.442 120.699 119.129C134.212 128.83 146.588 126.04 158.56 123.341C170.768 120.599 182.326 117.993 195.357 127.345C208.388 136.697 209.583 148.428 210.844 160.838C212.082 173.008 213.366 185.581 226.887 195.268C240.396 204.958 252.775 202.179 264.747 199.48C266.958 198.985 269.155 198.483 271.347 198.083L290.597 266.641C289.917 266.066 289.181 265.496 288.406 264.947C274.894 255.246 262.518 258.036 250.546 260.735C238.316 263.483 226.779 266.083 213.749 256.731C200.718 247.38 199.509 235.641 198.256 223.217C197.017 211.048 195.736 198.485 182.216 188.798C168.706 179.107 156.328 181.887 144.355 184.586C132.126 187.334 120.589 189.934 107.558 180.582C94.5275 171.23 93.322 159.502 92.0714 147.089C90.8223 134.922 89.5488 122.346 76.0287 112.659C71.4952 109.415 67.092 107.564 62.7829 106.654L66.0528 106.312L64.8313 101.95L47.9902 103.716L48.7383 106.388C45.1689 106.869 41.6527 107.662 38.1709 108.457C29.993 110.308 22.1159 112.063 13.8982 110.222L14.2898 111.62C22.6505 113.286 30.6398 111.488 38.4588 109.727C42.0511 108.924 45.5777 108.128 49.0919 107.651L49.2117 108.079L57.3954 107.217C63.1657 107.537 69.0378 109.27 75.253 113.72C88.2838 123.072 89.4789 134.803 90.7399 147.214C91.9756 159.372 93.2596 171.945 106.78 181.633C120.292 191.334 132.668 188.544 144.64 185.845C156.849 183.103 168.407 180.497 181.437 189.849C194.468 199.2 195.663 210.932 196.924 223.342C198.163 235.511 199.447 248.084 212.967 257.772C226.487 267.459 238.885 264.709 250.847 262.012C263.076 259.264 274.613 256.664 287.644 266.016C288.96 266.964 290.165 267.921 291.24 268.937L305.834 320.903C307.914 328.29 305.78 335.877 300.883 341.097C306.157 335.85 308.513 328.01 306.363 320.372L222.153 20.4353C218.989 9.17642 207.261 2.6227 195.975 5.79385L20.4674 55.0656C16.6553 56.1329 13.3839 58.1631 10.8582 60.8399ZM195.443 6.31419C206.74 3.1401 218.46 9.70719 221.621 20.9556L260.106 158.054C260.026 158.009 259.953 157.951 259.867 157.885C246.836 148.533 245.627 136.794 244.374 124.371C243.135 112.201 241.854 99.6388 228.334 89.9514C214.824 80.261 202.446 83.0401 190.473 85.7391C178.244 88.4876 166.707 91.0873 153.676 81.7356C140.645 72.3838 139.44 60.6556 138.189 48.2421C137.341 40.0493 136.491 31.6882 131.907 24.1475L195.443 6.31419ZM130.632 24.5156C135.188 31.7941 136.011 39.9377 136.888 48.3927C138.123 60.5515 139.407 73.1244 152.927 82.8119C166.44 92.5127 178.816 89.7232 190.788 87.0242C202.996 84.2815 214.554 81.676 227.585 91.0277C240.616 100.379 241.811 112.111 243.072 124.521C244.311 136.69 245.595 149.263 259.115 158.951C259.626 159.325 260.156 159.684 260.676 160.011L271.008 196.793C268.812 197.217 266.643 197.7 264.477 198.194C252.248 200.942 240.711 203.542 227.68 194.19C214.649 184.839 213.444 173.11 212.187 160.676C210.949 148.507 209.668 135.944 196.148 126.257C182.638 116.566 170.259 119.346 158.287 122.045C146.058 124.793 134.521 127.393 121.49 118.041C108.459 108.689 107.254 96.9611 106.003 84.5476C104.754 72.3813 103.48 59.8054 89.9603 50.1179C79.6311 42.7111 69.9674 42.6028 60.6548 44.152L130.632 24.5156Z" fill="url(#paint16_linear_110_1579)"/>
<path d="M131.91 24.1577L195.446 6.32447C206.743 3.15038 218.463 9.71746 221.624 20.9659L260.109 158.064C260.029 158.019 259.956 157.961 259.87 157.895C246.839 148.543 245.63 136.805 244.377 124.381C243.138 112.212 241.857 99.6491 228.337 89.9616C214.827 80.2712 202.448 83.0503 190.476 85.7493C178.247 88.4978 166.71 91.0975 153.679 81.7458C140.648 72.3941 139.443 60.6658 138.192 48.2523C137.347 40.07 136.504 31.6955 131.91 24.1577Z" fill="url(#paint17_linear_110_1579)"/>
<path d="M177.813 341.078L179.541 340.594L180.12 343.066L181.688 341.085L183.039 342.361L181.169 344.191L183.717 344.783L183.217 346.544L180.856 345.696L181.649 348.085L179.921 348.569L179.379 346.11L177.771 348.068L176.428 346.823L178.299 344.994L175.75 344.402L176.242 342.61L178.64 343.469L177.813 341.078Z" fill="white"/>
<path d="M174.272 328.473L176 327.989L176.579 330.461L178.148 328.479L179.499 329.756L177.628 331.585L180.177 332.177L179.676 333.938L177.316 333.091L178.109 335.48L176.381 335.964L175.839 333.504L174.23 335.463L172.888 334.218L174.759 332.388L172.21 331.796L172.702 330.004L175.1 330.864L174.272 328.473Z" fill="white"/>
<path d="M170.732 315.868L172.46 315.384L173.039 317.856L174.607 315.874L175.959 317.151L174.088 318.98L176.636 319.572L176.136 321.333L173.775 320.486L174.568 322.875L172.84 323.359L172.299 320.899L170.69 322.858L169.348 321.613L171.218 319.783L168.67 319.191L169.162 317.399L171.559 318.259L170.732 315.868Z" fill="white"/>
<path d="M167.191 303.262L168.919 302.778L169.498 305.25L171.067 303.269L172.418 304.545L170.547 306.375L173.096 306.967L172.595 308.728L170.235 307.88L171.028 310.27L169.3 310.753L168.758 308.294L167.149 310.252L165.807 309.007L167.678 307.178L165.129 306.586L165.621 304.794L168.019 305.653L167.191 303.262Z" fill="white"/>
<path d="M161.195 281.924L162.923 281.44L163.502 283.912L165.07 281.931L166.421 283.207L164.551 285.036L167.099 285.628L166.599 287.389L164.238 286.542L165.031 288.931L163.303 289.415L162.762 286.955L161.153 288.914L159.81 287.669L161.681 285.84L159.132 285.248L159.625 283.455L162.022 284.315L161.195 281.924Z" fill="white"/>
<path d="M157.665 269.315L159.393 268.832L159.972 271.303L161.54 269.322L162.891 270.598L161.021 272.428L163.569 273.02L163.069 274.781L160.708 273.934L161.501 276.323L159.773 276.807L159.231 274.347L157.623 276.306L156.28 275.061L158.151 273.231L155.602 272.639L156.095 270.847L158.492 271.706L157.665 269.315Z" fill="white"/>
<path d="M154.124 256.71L155.852 256.227L156.424 258.712L157.992 256.73L159.344 258.007L157.473 259.836L160.022 260.428L159.521 262.189L157.16 261.342L157.953 263.731L156.225 264.215L155.684 261.755L154.075 263.714L152.733 262.469L154.603 260.639L152.055 260.047L152.547 258.255L154.944 259.115L154.124 256.71Z" fill="white"/>
<path d="M150.584 244.105L152.312 243.621L152.894 246.103L154.462 244.122L155.814 245.398L153.943 247.228L156.491 247.82L155.991 249.581L153.63 248.733L154.423 251.123L152.695 251.606L152.154 249.147L150.545 251.105L149.203 249.86L151.073 248.031L148.525 247.439L149.006 245.65L151.404 246.509L150.584 244.105Z" fill="white"/>
<path d="M144.587 222.767L146.315 222.283L146.894 224.754L148.463 222.773L149.814 224.05L147.943 225.879L150.492 226.471L149.991 228.232L147.631 227.385L148.424 229.774L146.696 230.258L146.154 227.798L144.545 229.757L143.203 228.512L145.074 226.682L142.525 226.09L143.017 224.298L145.415 225.157L144.587 222.767Z" fill="white"/>
<path d="M141.06 210.169L142.788 209.685L143.367 212.157L144.936 210.176L146.287 211.452L144.416 213.281L146.965 213.873L146.464 215.634L144.104 214.787L144.897 217.176L143.169 217.66L142.627 215.2L141.018 217.159L139.676 215.914L141.547 214.085L138.998 213.493L139.48 211.703L141.877 212.563L141.06 210.169Z" fill="white"/>
<path d="M137.52 197.564L139.248 197.08L139.827 199.551L141.396 197.57L142.747 198.847L140.876 200.676L143.425 201.268L142.924 203.029L140.563 202.182L141.356 204.571L139.628 205.055L139.087 202.595L137.478 204.554L136.136 203.309L138.006 201.479L135.458 200.887L135.95 199.095L138.347 199.954L137.52 197.564Z" fill="white"/>
<path d="M133.979 184.958L135.707 184.474L136.286 186.946L137.855 184.965L139.206 186.241L137.335 188.07L139.884 188.662L139.383 190.423L137.023 189.576L137.816 191.965L136.088 192.449L135.546 189.99L133.937 191.948L132.595 190.703L134.466 188.874L131.917 188.282L132.409 186.489L134.807 187.349L133.979 184.958Z" fill="white"/>
<path d="M146.707 167.089L144.655 167.664L135.989 162.932C133.712 161.656 131.935 161.197 130.657 161.554C129.599 161.851 128.862 162.406 128.447 163.22C128.031 164.034 127.957 164.899 128.22 165.838C128.717 167.613 129.927 168.669 131.838 169.001L131.19 171.445C129.801 171.204 128.649 170.637 127.728 169.769C126.807 168.901 126.166 167.82 125.802 166.56C125.361 164.984 125.502 163.47 126.211 162.011C126.931 160.549 128.16 159.575 129.93 159.079C131.836 158.545 134.233 159.079 137.11 160.682L143.25 164.14L140.858 155.637L143.288 154.957L146.707 167.089Z" fill="white"/>
<path d="M128.987 146.794C128.856 145.277 129.146 143.935 129.863 142.744C130.58 141.553 131.677 140.75 133.174 140.331C135.007 139.818 136.627 140.04 138.046 140.993C139.465 141.946 140.415 143.324 140.918 145.119C141.318 146.549 141.35 147.913 141.003 149.215C140.653 150.506 139.933 151.563 138.818 152.381L136.984 150.632C138.578 149.59 139.065 147.979 138.457 145.808C138.13 144.639 137.56 143.774 136.738 143.217C135.926 142.656 134.962 142.521 133.865 142.839C132.765 143.147 132.009 143.753 131.598 144.667C131.185 145.57 131.137 146.608 131.464 147.777L131.645 148.424L130.383 149.847L123.258 147.148L125.609 155.505L123.264 156.162L120.091 144.872L122.294 144.267L128.987 146.794Z" fill="white"/>
<path d="M127.609 121.866L129.955 121.209L130.595 123.495L134.187 122.489L134.885 124.984L131.293 125.989L133.989 135.578L131.643 136.235L116.801 133.119L116.047 130.427L130.889 133.542L128.955 126.633L123.614 128.128L122.916 125.633L128.257 124.138L127.609 121.866Z" fill="white"/>
<path d="M119.264 113.6C118.767 111.825 118.87 110.176 119.573 108.651C120.275 107.126 121.558 106.103 123.412 105.584C125.245 105.071 126.865 105.292 128.284 106.246C129.703 107.199 130.653 108.576 131.156 110.371C131.556 111.801 131.57 113.182 131.194 114.503C130.819 115.823 130.035 116.898 128.852 117.713L127.044 115.935C127.895 115.426 128.449 114.742 128.732 113.898C129.012 113.043 128.997 112.101 128.708 111.068C128.378 109.889 127.805 109.013 126.98 108.445C126.168 107.885 125.207 107.76 124.107 108.068C123.008 108.376 122.251 108.981 121.841 109.895C121.43 110.809 121.379 111.837 121.701 112.985L123.191 118.308L113.212 120.381L110.312 110.062L112.657 109.405L114.918 117.439L120.025 116.358L119.264 113.6Z" fill="white"/>
<path d="M247.488 327.89C247.794 328.986 247.682 329.997 247.161 330.919C246.64 331.842 245.839 332.449 244.781 332.745C243.723 333.041 242.723 332.938 241.799 332.42C240.867 331.916 240.257 331.107 239.947 330.001C239.76 329.333 239.748 328.684 239.918 328.04C240.077 327.399 240.384 326.84 240.841 326.374L241.567 327.072C241.227 327.392 240.99 327.796 240.863 328.27C240.736 328.745 240.75 329.236 240.89 329.737C241.124 330.572 241.589 331.185 242.279 331.554C242.973 331.934 243.716 332.007 244.533 331.779C245.34 331.553 245.937 331.104 246.332 330.42C246.728 329.735 246.8 328.983 246.566 328.148C246.426 327.647 246.185 327.231 245.827 326.88C245.472 326.541 245.071 326.316 244.614 326.218L244.859 325.238C245.488 325.388 246.041 325.706 246.52 326.169C246.974 326.661 247.301 327.222 247.488 327.89Z" fill="white"/>
<path d="M239.797 320.994L239.546 320.096L244.751 318.639L245.002 319.537L244.112 319.786C244.929 320.041 245.448 320.605 245.698 321.458C245.903 322.189 245.813 322.878 245.422 323.539C245.031 324.2 244.466 324.639 243.701 324.853C242.937 325.067 242.217 324.999 241.55 324.634C240.873 324.272 240.439 323.73 240.234 322.999C239.995 322.143 240.156 321.389 240.711 320.749L239.8 321.004L239.797 320.994ZM244.773 321.582C244.627 321.06 244.326 320.672 243.871 320.416C243.415 320.161 242.926 320.107 242.392 320.256C241.868 320.403 241.478 320.704 241.211 321.161C240.954 321.616 240.899 322.104 241.045 322.626C241.191 323.148 241.489 323.526 241.944 323.781C242.399 324.036 242.889 324.09 243.423 323.941C243.947 323.794 244.337 323.494 244.604 323.036C244.864 322.592 244.919 322.104 244.773 321.582Z" fill="white"/>
<path d="M239.778 317.577C239.047 317.467 238.581 317.012 238.362 316.229L239.304 315.965C239.406 316.41 239.629 316.764 239.979 317.003C240.328 317.243 240.783 317.296 241.349 317.137L244.103 316.366L244.355 317.264L239.15 318.721L238.898 317.824L239.778 317.577Z" fill="white"/>
<path d="M235.001 311.892L234.747 310.984L242.036 308.943L242.287 309.841L241.397 310.09C242.214 310.345 242.733 310.909 242.973 311.765C243.177 312.495 243.088 313.184 242.697 313.845C242.306 314.506 241.74 314.946 240.976 315.16C240.211 315.374 239.492 315.305 238.825 314.941C238.148 314.579 237.714 314.036 237.509 313.306C237.27 312.45 237.431 311.695 237.986 311.056L235.001 311.892ZM242.061 311.896C241.915 311.374 241.614 310.986 241.159 310.731C240.703 310.475 240.214 310.421 239.68 310.571C239.156 310.717 238.755 311.021 238.499 311.475C238.242 311.93 238.187 312.418 238.333 312.94C238.479 313.462 238.777 313.84 239.232 314.095C239.688 314.35 240.177 314.405 240.711 314.255C241.235 314.108 241.625 313.808 241.892 313.35C242.152 312.906 242.207 312.418 242.061 311.896Z" fill="white"/>
<path d="M232.347 302.448L232.081 301.499L239.37 299.458L239.635 300.408L236.358 301.326L237.345 304.853L240.623 303.936L240.892 304.896L233.603 306.937L233.334 305.976L236.424 305.111L235.436 301.584L232.347 302.448Z" fill="white"/>
<path d="M237.063 293.801C237.735 294.186 238.189 294.757 238.402 295.519C238.616 296.281 238.535 297.002 238.157 297.67C237.78 298.339 237.207 298.792 236.432 299.009C235.657 299.226 234.945 299.144 234.262 298.761C233.589 298.375 233.138 297.815 232.925 297.053C232.712 296.291 232.792 295.57 233.167 294.891C233.542 294.213 234.115 293.759 234.89 293.542C235.665 293.325 236.39 293.415 237.063 293.801ZM237.52 295.755C237.374 295.233 237.076 294.855 236.62 294.6C236.165 294.345 235.675 294.291 235.152 294.437C234.628 294.584 234.238 294.884 233.981 295.339C233.724 295.793 233.669 296.282 233.823 296.79C233.966 297.302 234.264 297.68 234.719 297.935C235.175 298.19 235.664 298.244 236.188 298.098C236.711 297.951 237.102 297.651 237.358 297.196C237.608 296.755 237.663 296.267 237.52 295.755Z" fill="white"/>
<path d="M237.2 291.748L229.607 293.874L229.356 292.976L236.945 290.84L237.2 291.748Z" fill="white"/>
<path d="M228.07 287.213L227.818 286.316L235.107 284.275L235.359 285.173L234.469 285.422C235.285 285.677 235.805 286.241 236.055 287.094C236.259 287.824 236.17 288.513 235.779 289.174C235.388 289.835 234.822 290.275 234.058 290.489C233.293 290.703 232.574 290.635 231.907 290.27C231.24 289.905 230.795 289.365 230.591 288.635C230.351 287.779 230.513 287.025 231.068 286.385L228.07 287.213ZM235.132 287.228C234.986 286.706 234.685 286.318 234.23 286.063C233.775 285.807 233.285 285.753 232.751 285.903C232.227 286.049 231.827 286.353 231.57 286.807C231.313 287.262 231.258 287.75 231.404 288.272C231.55 288.794 231.848 289.172 232.303 289.427C232.759 289.682 233.248 289.737 233.783 289.587C234.306 289.44 234.696 289.14 234.964 288.682C235.22 288.228 235.276 287.74 235.132 287.228Z" fill="white"/>
<path d="M232.347 282.886C232.782 282.664 233.09 282.352 233.247 281.948C233.405 281.543 233.425 281.088 233.287 280.597C233.094 279.908 232.706 279.488 232.105 279.319L232.328 278.423C233.254 278.704 233.855 279.358 234.141 280.381C234.372 281.205 234.297 281.946 233.927 282.602C233.557 283.257 232.971 283.702 232.185 283.922C231.4 284.142 230.68 284.073 230.016 283.719C229.353 283.365 228.907 282.78 228.682 281.977C228.468 281.215 228.568 280.523 228.968 279.893C229.368 279.263 229.95 278.842 230.704 278.631C230.84 278.592 230.968 278.568 231.121 278.547L232.347 282.886ZM229.551 281.733C229.685 282.213 229.935 282.582 230.295 282.819C230.655 283.056 231.077 283.152 231.562 283.106L230.591 279.641C230.12 279.852 229.798 280.156 229.634 280.539C229.46 280.926 229.434 281.316 229.551 281.733Z" fill="white"/>
<path d="M228.432 277.173C227.701 277.063 227.235 276.608 227.016 275.825L227.958 275.561C228.06 276.005 228.283 276.359 228.633 276.599C228.982 276.839 229.438 276.892 230.003 276.733L232.757 275.962L233.009 276.86L227.804 278.317L227.55 277.409L228.429 277.163L228.432 277.173Z" fill="white"/>
<path d="M225.279 269.783C225.11 269.178 225.161 268.634 225.446 268.161C225.731 267.687 226.202 267.352 226.862 267.168L230.056 266.273L230.311 267.181L227.169 268.061C226.75 268.178 226.447 268.387 226.281 268.681C226.115 268.975 226.087 269.321 226.198 269.717C226.324 270.166 226.573 270.49 226.921 270.685C227.283 270.888 227.75 270.904 228.336 270.739L231.091 269.968L231.345 270.876L226.14 272.333L225.889 271.436L226.643 271.225C225.938 271.006 225.49 270.535 225.279 269.783Z" fill="white"/>
<path d="M223.286 262.181L223.035 261.283L228.24 259.826L228.494 260.734L227.604 260.983C228.421 261.239 228.94 261.802 229.18 262.658C229.384 263.389 229.295 264.078 228.904 264.739C228.513 265.4 227.947 265.84 227.183 266.054C226.418 266.268 225.699 266.199 225.032 265.834C224.355 265.472 223.92 264.93 223.716 264.199C223.476 263.343 223.638 262.589 224.193 261.95L223.286 262.181ZM228.265 262.779C228.119 262.257 227.818 261.869 227.363 261.614C226.907 261.358 226.418 261.304 225.883 261.454C225.36 261.6 224.959 261.904 224.702 262.358C224.446 262.813 224.39 263.301 224.537 263.823C224.683 264.345 224.98 264.723 225.436 264.978C225.891 265.233 226.381 265.288 226.915 265.138C227.439 264.991 227.829 264.691 228.096 264.233C228.353 263.779 228.411 263.301 228.265 262.779Z" fill="white"/>
<path d="M220.936 254.352C220.773 253.768 220.83 253.245 221.107 252.785C221.385 252.325 221.846 251.993 222.495 251.811L225.731 250.905L225.982 251.803L222.778 252.7C222.38 252.812 222.095 253.004 221.933 253.274C221.772 253.544 221.733 253.848 221.829 254.193C221.937 254.579 222.161 254.854 222.477 255.013C222.803 255.169 223.233 255.173 223.767 255.023L226.657 254.214L226.912 255.122L223.707 256.019C223.309 256.131 223.021 256.312 222.857 256.572C222.692 256.832 222.653 257.136 222.747 257.47C222.852 257.846 223.079 258.131 223.41 258.308C223.742 258.485 224.175 258.499 224.699 258.353L227.59 257.543L227.844 258.451L222.639 259.909L222.388 259.011L223.089 258.815C222.435 258.615 222.009 258.183 221.819 257.504C221.623 256.805 221.773 256.212 222.272 255.734C221.597 255.541 221.151 255.08 220.936 254.352Z" fill="white"/>
<path d="M223.016 249.639C223.451 249.416 223.759 249.105 223.917 248.701C224.085 248.293 224.094 247.841 223.956 247.35C223.764 246.661 223.375 246.241 222.774 246.072L222.998 245.176C223.923 245.457 224.524 246.111 224.811 247.134C225.041 247.958 224.967 248.699 224.597 249.355C224.227 250.01 223.64 250.455 222.854 250.675C222.069 250.895 221.35 250.826 220.686 250.472C220.022 250.118 219.576 249.533 219.351 248.73C219.138 247.968 219.237 247.276 219.637 246.646C220.037 246.016 220.619 245.595 221.373 245.383C221.509 245.345 221.638 245.321 221.79 245.3L223.016 249.639ZM220.21 248.489C220.344 248.969 220.594 249.338 220.954 249.575C221.314 249.812 221.736 249.908 222.22 249.862L221.25 246.397C220.778 246.608 220.457 246.912 220.293 247.295C220.127 247.668 220.093 248.072 220.21 248.489Z" fill="white"/>
<path d="M256.896 321.722L256.282 319.53L267.422 316.4L267.89 318.07L262.415 324.735L269.222 322.829L269.836 325.021L258.696 328.151L258.231 326.491L263.682 319.822L256.896 321.722Z" fill="white"/>
<path d="M263.977 307.966C265.022 308.551 265.708 309.428 266.038 310.608C266.365 311.777 266.237 312.893 265.656 313.922C265.075 314.952 264.194 315.637 263.01 315.969C261.837 316.297 260.729 316.169 259.687 315.594C258.642 315.008 257.969 314.139 257.629 312.962C257.298 311.783 257.429 310.677 258.008 309.637C258.597 308.594 259.478 307.909 260.65 307.58C261.834 307.249 262.943 307.377 263.977 307.966ZM263.839 312.878C264.133 312.357 264.2 311.786 264.027 311.171C263.855 310.555 263.502 310.102 262.98 309.809C262.444 309.509 261.865 309.457 261.237 309.633C260.598 309.812 260.133 310.168 259.838 310.689C259.544 311.21 259.48 311.791 259.65 312.396C259.822 313.012 260.175 313.465 260.694 313.747C261.217 314.04 261.809 314.099 262.435 313.913C263.076 313.744 263.545 313.399 263.839 312.878Z" fill="white"/>
<path d="M253.593 298.548C253.339 297.64 253.428 296.827 253.873 296.118C254.317 295.408 255.037 294.914 256.032 294.635L260.934 293.263L261.506 295.309L256.752 296.64C256.27 296.775 255.936 296.992 255.741 297.305C255.543 297.608 255.501 297.98 255.618 298.398C255.749 298.868 256.006 299.178 256.382 299.354C256.759 299.53 257.245 299.529 257.831 299.365L262.303 298.113L262.876 300.159L258.121 301.49C257.639 301.625 257.305 301.842 257.11 302.156C256.913 302.459 256.87 302.831 256.987 303.248C257.116 303.707 257.372 304.018 257.752 304.205C258.131 304.391 258.62 304.401 259.206 304.236L263.678 302.985L264.251 305.03L256.294 307.269L255.722 305.223L256.559 304.989C255.713 304.708 255.152 304.077 254.875 303.086C254.603 302.115 254.778 301.289 255.411 300.605C254.484 300.28 253.885 299.592 253.593 298.548Z" fill="white"/>
<path d="M250.787 287.718L250.214 285.673L258.171 283.434L258.743 285.48L257.801 285.743C258.748 286.142 259.375 286.89 259.688 288.006C259.983 289.061 259.829 290.083 259.236 291.071C258.64 292.048 257.753 292.713 256.57 293.044C255.397 293.372 254.297 293.275 253.269 292.752C252.253 292.227 251.59 291.433 251.292 290.368C250.982 289.262 251.127 288.287 251.73 287.454L250.787 287.718ZM257.445 289.918C257.747 289.383 257.81 288.802 257.632 288.166C257.454 287.529 257.098 287.066 256.562 286.766C256.027 286.465 255.434 286.406 254.774 286.591C254.114 286.776 253.639 287.134 253.337 287.669C253.035 288.203 252.971 288.784 253.15 289.421C253.328 290.057 253.683 290.52 254.216 290.81C254.749 291.1 255.352 291.156 256.002 290.974C256.657 290.814 257.143 290.452 257.445 289.918Z" fill="white"/>
<path d="M248.23 279.475C247.988 278.609 248.08 277.806 248.498 277.081C248.926 276.354 249.654 275.846 250.677 275.548L255.568 274.179L256.141 276.225L251.512 277.521C250.978 277.67 250.621 277.928 250.417 278.289C250.213 278.65 250.185 279.074 250.316 279.544C250.465 280.076 250.75 280.447 251.165 280.679C251.577 280.901 252.127 280.928 252.773 280.735L257.067 279.533L257.64 281.579L249.684 283.818L249.111 281.772L250.001 281.523C249.128 281.227 248.531 280.55 248.23 279.475Z" fill="white"/>
<path d="M239.748 260.634L250.888 257.504L251.496 259.674L244.27 261.698L250.32 263.38L250.403 263.638L246.125 268.202L253.319 266.187L253.933 268.379L242.793 271.509L242.162 269.255L246.528 264.6L240.375 262.912L239.748 260.634Z" fill="white"/>
<path d="M240.694 251.747L240.121 249.701L248.077 247.463L248.65 249.508L247.707 249.772C248.655 250.171 249.282 250.918 249.594 252.035C249.89 253.089 249.735 254.112 249.142 255.099C248.546 256.077 247.66 256.741 246.476 257.073C245.303 257.401 244.203 257.304 243.176 256.781C242.149 256.258 241.496 255.462 241.198 254.397C240.889 253.291 241.034 252.316 241.636 251.483L240.694 251.747ZM247.341 253.949C247.643 253.415 247.706 252.834 247.528 252.197C247.35 251.561 246.994 251.097 246.458 250.797C245.923 250.497 245.32 250.441 244.67 250.623C244.011 250.807 243.535 251.166 243.233 251.7C242.931 252.235 242.867 252.816 243.046 253.452C243.224 254.089 243.58 254.552 244.112 254.842C244.645 255.132 245.238 255.191 245.898 255.006C246.563 254.842 247.039 254.484 247.341 253.949Z" fill="white"/>
<path d="M238.137 243.504C237.894 242.637 237.986 241.835 238.404 241.11C238.833 240.382 239.56 239.875 240.584 239.577L245.475 238.208L246.047 240.254L241.418 241.549C240.884 241.699 240.527 241.957 240.323 242.318C240.119 242.679 240.091 243.103 240.223 243.572C240.372 244.105 240.656 244.475 241.072 244.708C241.484 244.93 242.033 244.956 242.68 244.764L246.974 243.562L247.546 245.608L239.59 247.847L239.017 245.801L239.907 245.552C239.027 245.269 238.438 244.579 238.137 243.504Z" fill="white"/>
<path d="M242.388 234.603L241.403 231.086L243.33 230.547L245.08 236.799L243.719 237.18L238.113 235.147L239.004 238.331L237.077 238.87L235.415 232.931L236.776 232.55L242.388 234.603Z" fill="white"/>
<path d="M240.145 223.042C241.189 223.627 241.875 224.504 242.206 225.684C242.533 226.853 242.405 227.969 241.824 228.999C241.242 230.028 240.361 230.714 239.178 231.045C238.005 231.373 236.896 231.245 235.854 230.67C234.809 230.084 234.137 229.215 233.796 228.038C233.466 226.859 233.597 225.753 234.175 224.713C234.764 223.67 235.635 222.988 236.818 222.656C237.991 222.328 239.1 222.456 240.145 223.042ZM240.004 227.944C240.298 227.422 240.364 226.852 240.192 226.236C240.019 225.621 239.667 225.168 239.144 224.875C238.609 224.575 238.029 224.523 237.401 224.699C236.762 224.878 236.297 225.233 236.003 225.755C235.708 226.276 235.645 226.857 235.814 227.462C235.987 228.078 236.339 228.531 236.859 228.813C237.381 229.106 237.974 229.165 238.599 228.978C239.233 228.823 239.699 228.468 240.004 227.944Z" fill="white"/>
<path d="M237.495 213.62C238.54 214.205 239.216 215.086 239.556 216.262C239.884 217.431 239.756 218.547 239.174 219.577C238.593 220.606 237.712 221.292 236.529 221.623C235.356 221.951 234.236 221.826 233.205 221.248C232.16 220.663 231.488 219.793 231.157 218.613C230.827 217.434 230.958 216.328 231.536 215.288C232.115 214.248 232.996 213.563 234.179 213.232C235.342 212.906 236.451 213.035 237.495 213.62ZM237.354 218.522C237.659 217.997 237.715 217.43 237.543 216.815C237.37 216.199 237.018 215.746 236.495 215.453C235.959 215.153 235.38 215.101 234.742 215.28C234.103 215.459 233.637 215.814 233.343 216.336C233.038 216.86 232.985 217.438 233.155 218.043C233.327 218.659 233.68 219.112 234.199 219.394C234.722 219.687 235.314 219.746 235.94 219.559C236.584 219.401 237.049 219.046 237.354 218.522Z" fill="white"/>
<path d="M230.575 210.482C230.009 210.437 229.544 210.23 229.17 209.862C228.796 209.494 228.523 209.041 228.371 208.499L230.664 207.857C230.766 208.503 231.047 209.021 231.519 209.418C231.981 209.818 232.596 209.916 233.371 209.699L237.172 208.634L237.745 210.68L229.789 212.919L229.216 210.873L230.578 210.492L230.575 210.482Z" fill="white"/>
<path d="M184.589 107.865L183.645 104.494L184.556 104.239L185.768 108.57L178.479 110.611L177.281 106.332L178.203 106.074L179.132 109.393L181.373 108.765L180.517 105.707L181.418 105.455L182.274 108.513L184.589 107.865Z" fill="white"/>
<path d="M182.988 98.6787L183.283 99.7329L181.723 101.745L184.098 102.645L184.393 103.699L181.157 102.467L179.156 105.041L178.858 103.977L180.286 102.137L178.1 101.308L177.805 100.254L180.852 101.415L182.988 98.6787Z" fill="white"/>
<path d="M176.62 96.4659C176.415 95.7353 176.505 95.0462 176.896 94.3852C177.287 93.7242 177.863 93.2815 178.617 93.0704C179.381 92.8564 180.101 92.9251 180.768 93.2899C181.445 93.6518 181.879 94.1943 182.084 94.9249C182.323 95.7808 182.162 96.5351 181.607 97.1745L184.581 96.3418L184.832 97.2394L177.546 99.2905L177.292 98.3825L178.182 98.1332C177.379 97.8855 176.86 97.3217 176.62 96.4659ZM181.25 95.2935C181.104 94.7716 180.806 94.3936 180.35 94.1384C179.895 93.8832 179.405 93.8289 178.871 93.9785C178.348 94.1251 177.947 94.4286 177.69 94.8831C177.433 95.3377 177.378 95.8259 177.521 96.3373C177.667 96.8592 177.968 97.2477 178.424 97.5029C178.879 97.7581 179.369 97.8124 179.903 97.6628C180.426 97.5162 180.817 97.2156 181.084 96.7582C181.34 96.3036 181.396 95.8154 181.25 95.2935Z" fill="white"/>
<path d="M174.64 92.5402C174.69 92.7176 174.665 92.8709 174.585 93.0284C174.502 93.1755 174.373 93.2791 174.205 93.326C174.038 93.3729 173.873 93.3514 173.726 93.2688C173.568 93.1892 173.475 93.0577 173.425 92.8803C173.378 92.7133 173.403 92.56 173.483 92.4025C173.577 92.2525 173.696 92.1518 173.863 92.1049C174.031 92.058 174.184 92.0825 174.342 92.1621C174.49 92.2447 174.593 92.3732 174.64 92.5402ZM180.913 91.2679L175.708 92.7251L175.454 91.8171L180.659 90.3598L180.913 91.2679Z" fill="white"/>
<path d="M175.689 89.3092C174.958 89.1988 174.492 88.744 174.273 87.9612L175.215 87.6973C175.317 88.1415 175.54 88.4955 175.89 88.7353C176.239 88.9751 176.695 89.0277 177.26 88.8694L180.014 88.0983L180.266 88.9959L175.061 90.4531L174.807 89.5451L175.686 89.2988L175.689 89.3092Z" fill="white"/>
<path d="M173.072 83.3108L172.804 82.3506L178.923 82.9108C179.571 82.9658 180.109 83.1528 180.534 83.4615C180.949 83.7731 181.224 84.1913 181.329 84.7249L180.491 84.9594C180.365 84.3081 179.88 83.9485 179.034 83.8703L178.809 83.8321L174.259 87.5483L173.99 86.5881L177.495 83.7384L173.072 83.3108Z" fill="white"/>
<path d="M168.953 76.664C168.675 75.6724 168.804 74.7586 169.321 73.9046C169.839 73.0507 170.607 72.4867 171.633 72.1993C172.649 71.9149 173.609 71.9951 174.495 72.4562C175.38 72.9173 175.964 73.6318 176.242 74.6233L177.034 77.4518L169.748 79.5029L168.953 76.664ZM175.32 74.8813C175.113 74.1403 174.682 73.6082 174.026 73.2851C173.371 72.9621 172.658 72.9142 171.883 73.1312C171.108 73.3482 170.526 73.77 170.134 74.3863C169.741 75.0026 169.66 75.6783 169.867 76.4193L170.39 78.2876L175.846 76.76L175.32 74.8813Z" fill="white"/>
<path d="M168.557 67.2643L168.306 66.3667L173.511 64.9095L173.765 65.8175L172.875 66.0668C173.692 66.3221 174.211 66.8858 174.461 67.7387C174.666 68.4693 174.576 69.1584 174.185 69.8194C173.794 70.4803 173.229 70.9201 172.464 71.1342C171.7 71.3482 170.98 71.2795 170.313 70.9147C169.636 70.5528 169.202 70.0103 168.997 69.2797C168.758 68.4238 168.919 67.6695 169.474 67.0301L168.557 67.2643ZM173.546 67.8598C173.4 67.3379 173.099 66.9494 172.644 66.6942C172.189 66.439 171.699 66.3847 171.165 66.5343C170.641 66.6809 170.241 66.9844 169.984 67.4389C169.727 67.8935 169.672 68.3817 169.818 68.9036C169.964 69.4254 170.262 69.8035 170.717 70.0587C171.173 70.3139 171.662 70.3681 172.196 70.2186C172.72 70.072 173.11 69.7714 173.377 69.3139C173.634 68.8594 173.692 68.3816 173.546 67.8598Z" fill="white"/>
<path d="M168.014 61.935L168.4 63.3127L171.217 62.524C171.479 62.4507 171.642 62.3487 171.72 62.2254C171.796 62.0917 171.818 61.928 171.759 61.7193C171.701 61.5105 171.631 61.26 171.522 60.9527L172.339 60.724C172.666 61.488 172.764 62.0796 172.636 62.5094C172.507 62.9392 172.12 63.2503 171.471 63.432L168.654 64.2207L168.94 65.2436L168.071 65.487L167.785 64.4641L166.601 64.7954L166.078 63.9741L167.533 63.5665L167.148 62.1888L168.014 61.935Z" fill="white"/>
<path d="M169.744 59.886C170.179 59.663 170.487 59.3517 170.645 58.9473C170.813 58.54 170.822 58.0873 170.684 57.5968C170.492 56.9079 170.103 56.4877 169.502 56.3183L169.726 55.4228C170.651 55.7039 171.252 56.3573 171.539 57.3802C171.769 58.2047 171.695 58.946 171.325 59.6011C170.955 60.2562 170.368 60.7019 169.582 60.9218C168.797 61.1417 168.078 61.0729 167.414 60.7186C166.75 60.3642 166.304 59.7799 166.079 58.9762C165.866 58.2143 165.965 57.5223 166.362 56.8822C166.762 56.2525 167.344 55.8307 168.098 55.6196C168.234 55.5815 168.363 55.5567 168.515 55.5366L169.744 59.886ZM166.941 58.7463C167.075 59.2264 167.325 59.5953 167.685 59.8322C168.045 60.0691 168.467 60.1648 168.951 60.1193L167.981 56.6541C167.509 56.8649 167.188 57.1688 167.024 57.5523C166.858 57.9253 166.824 58.3288 166.941 58.7463Z" fill="white"/>
<path d="M203.933 95.4837C205.191 95.942 206.009 96.8496 206.397 98.1931C206.777 99.5499 206.548 100.751 205.711 101.795C204.874 102.84 203.576 103.609 201.827 104.098C200.078 104.588 198.57 104.605 197.312 104.147C196.055 103.689 195.225 102.784 194.848 101.438C194.468 100.081 194.7 98.8903 195.537 97.8457C196.374 96.801 197.672 96.0323 199.421 95.5427C201.167 95.0426 202.675 95.0255 203.933 95.4837ZM204.405 101.002C205.022 100.3 205.206 99.5057 204.954 98.6081C204.703 97.7105 204.13 97.1168 203.239 96.8373C202.348 96.5579 201.209 96.6064 199.83 97.0039C198.45 97.4014 197.449 97.9405 196.833 98.6422C196.216 99.3438 196.024 100.152 196.276 101.049C196.527 101.947 197.1 102.541 197.988 102.81C198.879 103.089 200.015 103.03 201.408 102.64C202.787 102.243 203.785 101.693 204.405 101.002Z" fill="white"/>
<path d="M204.688 92.8975L203.473 93.2376L198.367 90.4466C197.027 89.6961 195.98 89.4264 195.226 89.6375C194.598 89.8134 194.169 90.1361 193.921 90.622C193.681 91.0945 193.634 91.614 193.789 92.1672C194.081 93.2109 194.797 93.8321 195.926 94.0337L195.541 95.481C194.722 95.3388 194.04 95.0007 193.491 94.4905C192.941 93.9803 192.57 93.3412 192.36 92.5898C192.1 91.6608 192.176 90.7617 192.601 89.8998C193.026 89.038 193.757 88.4619 194.793 88.1717C195.924 87.855 197.334 88.1695 199.025 89.1256L202.655 91.1595L201.249 86.1392L202.684 85.7375L204.688 92.8975Z" fill="white"/>
<path d="M203.666 83.2343L203.917 84.053L187.838 81.7227L187.586 80.904L203.666 83.2343Z" fill="white"/>
<path d="M192.164 73.578C192.085 72.6886 192.256 71.8867 192.683 71.1931C193.107 70.4891 193.753 70.0155 194.633 69.7692C195.712 69.4672 196.673 69.5921 197.508 70.1572C198.344 70.7223 198.91 71.532 199.205 72.5861C199.442 73.4315 199.463 74.2358 199.26 75.0018C199.057 75.7679 198.63 76.3825 197.976 76.8696L196.898 75.8432C197.834 75.2323 198.122 74.285 197.763 73.0012C197.57 72.3123 197.234 71.7985 196.748 71.4732C196.261 71.1479 195.697 71.0695 195.058 71.2483C194.409 71.4301 193.968 71.79 193.721 72.3206C193.477 72.8616 193.454 73.4646 193.647 74.1535L193.752 74.5292L193.005 75.3688L188.798 73.7776L190.18 78.7144L188.798 79.1014L186.934 72.4424L188.235 72.0893L192.164 73.578Z" fill="white"/>
<path d="M194.111 60.4832C195.369 60.9415 196.198 61.8462 196.575 63.1926C196.955 64.5494 196.726 65.7502 195.889 66.7949C195.053 67.8396 193.754 68.6082 192.006 69.0978C190.257 69.5875 188.748 69.6046 187.49 69.1463C186.233 68.6881 185.414 67.7805 185.027 66.437C184.647 65.0802 184.878 63.8898 185.715 62.8451C186.552 61.8005 187.85 61.0318 189.599 60.5422C191.348 60.0526 192.843 60.0279 194.111 60.4832ZM194.57 65.9938C195.186 65.2921 195.371 64.4977 195.119 63.6001C194.868 62.7025 194.295 62.1088 193.404 61.8293C192.512 61.5499 191.374 61.5984 190.002 61.9825C188.62 62.3696 187.622 62.9191 187.005 63.6208C186.388 64.3224 186.197 65.1302 186.458 66.0249C186.71 66.9225 187.282 67.5162 188.171 67.7852C189.062 68.0647 190.198 68.0057 191.591 67.6157C192.962 67.2316 193.953 66.6954 194.57 65.9938Z" fill="white"/>
<path d="M41.4885 79.2257L42.4324 82.597C42.7275 83.6511 43.2428 84.3622 44.4053 84.5208L60.973 86.8607L59.6872 82.2683C59.6872 82.2683 57.4946 82.0605 57.0318 82.0212L55.4656 76.4268C55.9826 76.1358 57.7148 75.2231 57.7148 75.2231L56.5781 71.163L41.4885 79.2257ZM53.3823 81.6923C52.3614 81.5955 48.3894 81.2443 48.3894 81.2443C48.3894 81.2443 47.3416 81.1325 46.7043 81.0745L48.0048 80.3953C48.0048 80.3953 51.6011 78.4767 52.3712 78.081L53.3823 81.6923Z" fill="white"/>
<path d="M50.9894 95.9364C51.7359 95.7387 51.9727 94.6482 52.2896 92.9162C52.7374 90.0783 53.7925 88.5223 55.6444 88.0375C58.9911 87.1231 61.9841 89.5041 63.267 94.0861C63.7954 96.0542 63.9234 98.0443 63.7699 99.1903L59.9949 99.5832L60.0914 98.9596C60.288 97.3626 60.2763 96.3528 59.7884 94.6098C59.4377 93.3573 58.5685 92.1487 57.484 92.4298C56.7689 92.6188 56.4299 93.344 56.1178 95.2548C55.8209 97.1388 55.1464 99.6912 52.8336 100.305C49.7069 101.158 46.6544 98.7259 45.4476 94.4153C44.9742 92.7244 44.9475 91.2575 45.0325 90.3107L48.676 89.9322L48.609 90.3787C48.5123 91.2837 48.4978 92.402 48.9086 93.829C49.3745 95.5332 50.3192 96.1241 50.9894 95.9364Z" fill="white"/>
<path d="M48.3076 103.542L65.1458 101.765L66.3673 106.128L63.0974 106.469L57.7233 107.04L49.5425 107.912L48.3076 103.542Z" fill="white"/>
<path d="M60.9804 116.899C57.6717 119.401 55.5583 123.752 55.7563 129.381L55.417 129.419L53.5206 122.646C53.3053 121.715 53.3806 120.895 54.2949 120.369L60.9804 116.899Z" fill="white"/>
<path d="M50.0468 109.673L68.0166 112.059L69.3082 116.672L56.999 124.339C58.0247 121.024 60.225 117.831 61.9781 116.428L63.5147 115.503L51.3413 114.296L50.0468 109.673Z" fill="white"/>
<path d="M113.347 331.452L131.985 326.222C134.184 325.606 136.488 326.897 137.099 329.079L144.302 354.728C144.919 356.93 143.62 359.229 141.431 359.842L122.796 365.082C120.586 365.701 118.293 364.407 117.679 362.215L110.473 336.556C109.859 334.364 111.137 332.07 113.347 331.452Z" fill="#F6C859"/>
<path d="M138.235 346.769C138.275 346.916 138.24 347.072 138.121 347.172C137.959 347.319 137.698 347.314 137.551 347.152C137.1 346.671 136.342 346.061 135.284 345.873C133.933 345.644 132.675 346.154 132.627 346.426C132.613 346.497 132.803 346.692 132.917 346.817C133.208 347.13 133.613 347.568 133.567 348.211C133.529 348.841 133.095 349.266 132.881 349.472C131.507 350.814 127.373 352.264 125.018 351.922C124.239 351.802 123.703 351.502 123.432 351.015C123.157 350.518 123.254 350.018 123.346 349.621C123.414 349.298 123.436 349.134 123.357 349.055C123.035 348.751 121.697 349.137 120.783 349.945C119.966 350.657 119.635 351.572 119.51 352.214C119.468 352.429 119.25 352.58 119.033 352.528C118.818 352.487 118.667 352.27 118.719 352.053C118.878 351.288 119.27 350.188 120.262 349.336C121.234 348.49 123.101 347.697 123.927 348.468C124.341 348.858 124.236 349.372 124.158 349.776C124.097 350.086 124.034 350.385 124.167 350.618C124.348 350.939 124.799 351.06 125.154 351.118C127.215 351.419 131.127 350.065 132.335 348.894C132.538 348.691 132.756 348.461 132.775 348.163C132.796 347.876 132.61 347.657 132.336 347.363C132.062 347.068 131.768 346.745 131.842 346.285C132.026 345.288 133.918 344.826 135.434 345.077C136.728 345.3 137.631 346.027 138.164 346.598C138.192 346.658 138.22 346.717 138.235 346.769Z" fill="#7D662D"/>
<path d="M125.673 351.558L127.633 358.561C127.695 358.781 127.563 358.997 127.354 359.056C127.145 359.115 126.92 358.998 126.861 358.789L124.901 351.785C124.839 351.566 124.971 351.349 125.18 351.291C125.387 351.222 125.611 351.339 125.673 351.558Z" fill="#7D662D"/>
<path d="M132.711 349.588L134.671 356.591C134.733 356.81 134.601 357.027 134.392 357.086C134.172 357.147 133.955 357.017 133.896 356.808L131.936 349.805C131.874 349.586 132.005 349.369 132.215 349.31C132.421 349.241 132.649 349.369 132.711 349.588Z" fill="#7D662D"/>
<path d="M135.936 338.6C135.953 338.662 135.961 338.728 135.944 338.789C135.785 339.554 135.393 340.654 134.4 341.506C133.238 342.518 131.378 343.095 130.706 342.349C130.393 341.997 130.484 341.556 130.558 341.175C130.637 340.77 130.682 340.487 130.518 340.263C130.331 340 129.981 339.918 129.763 339.867C128.122 339.493 124.068 340.38 122.474 341.705C122.2 341.939 121.867 342.28 121.89 342.645C121.896 342.868 121.725 343.063 121.5 343.069C121.276 343.075 121.092 342.902 121.076 342.681C121.055 342.124 121.347 341.593 121.95 341.086C123.782 339.56 128.078 338.65 129.94 339.086C130.229 339.151 130.821 339.289 131.181 339.807C131.554 340.333 131.435 340.918 131.349 341.336C131.316 341.503 131.266 341.765 131.304 341.821C131.484 342.019 132.826 341.812 133.859 340.903C134.676 340.191 135.007 339.276 135.132 338.633C135.174 338.419 135.391 338.268 135.609 338.32C135.784 338.339 135.895 338.454 135.936 338.6Z" fill="#7D662D"/>
<path d="M121.922 344.212C121.969 344.379 121.905 344.554 121.762 344.65C119.483 346.189 116.999 344.78 116.509 344.241C116.352 344.083 116.368 343.819 116.531 343.673C116.693 343.526 116.954 343.532 117.101 343.693C117.327 343.934 119.369 345.298 121.306 343.99C121.495 343.858 121.747 343.912 121.869 344.103C121.898 344.128 121.91 344.17 121.922 344.212Z" fill="#7D662D"/>
<path d="M120.756 334.037L122.717 341.04C122.778 341.26 122.647 341.476 122.438 341.535C122.228 341.594 122 341.466 121.942 341.257L119.981 334.254C119.92 334.035 120.051 333.818 120.261 333.759C120.47 333.701 120.698 333.828 120.756 334.037Z" fill="#7D662D"/>
<path d="M127.783 332.069L129.744 339.073C129.805 339.292 129.674 339.509 129.465 339.567C129.245 339.629 129.027 339.498 128.969 339.29L127.008 332.286C126.947 332.067 127.078 331.85 127.288 331.792C127.508 331.73 127.722 331.85 127.783 332.069Z" fill="#7D662D"/>
<defs>
<linearGradient id="paint0_linear_110_1579" x1="214.731" y1="343.216" x2="108.84" y2="332.742" gradientUnits="userSpaceOnUse">
<stop stop-color="#885DF5"/>
<stop offset="0.9944" stop-color="#6B7CFE"/>
</linearGradient>
<linearGradient id="paint1_linear_110_1579" x1="286.966" y1="269.159" x2="99.281" y2="250.593" gradientUnits="userSpaceOnUse">
<stop stop-color="#885DF5"/>
<stop offset="0.9944" stop-color="#6B7CFE"/>
</linearGradient>
<linearGradient id="paint2_linear_110_1579" x1="60.3419" y1="123.582" x2="55.2085" y2="123.074" gradientUnits="userSpaceOnUse">
<stop stop-color="#885DF5"/>
<stop offset="0.9944" stop-color="#6B7CFE"/>
</linearGradient>
<linearGradient id="paint3_linear_110_1579" x1="69.7087" y1="118.784" x2="55.2562" y2="117.354" gradientUnits="userSpaceOnUse">
<stop stop-color="#885DF5"/>
<stop offset="0.9944" stop-color="#6B7CFE"/>
</linearGradient>
<linearGradient id="paint4_linear_110_1579" x1="64.7343" y1="95.3863" x2="50.5253" y2="93.9807" gradientUnits="userSpaceOnUse">
<stop stop-color="#885DF5"/>
<stop offset="0.9944" stop-color="#6B7CFE"/>
</linearGradient>
<linearGradient id="paint5_linear_110_1579" x1="62.3112" y1="79.5736" x2="47.6512" y2="78.1235" gradientUnits="userSpaceOnUse">
<stop stop-color="#885DF5"/>
<stop offset="0.9944" stop-color="#6B7CFE"/>
</linearGradient>
<linearGradient id="paint6_linear_110_1579" x1="336.101" y1="181.178" x2="102.502" y2="158.071" gradientUnits="userSpaceOnUse">
<stop stop-color="#885DF5"/>
<stop offset="0.9944" stop-color="#6B7CFE"/>
</linearGradient>
<linearGradient id="paint7_linear_110_1579" x1="149.261" y1="386.459" x2="120.381" y2="283.591" gradientUnits="userSpaceOnUse">
<stop stop-color="#4D338A"/>
<stop offset="0.9888" stop-color="#252857"/>
</linearGradient>
<linearGradient id="paint8_linear_110_1579" x1="181.851" y1="377.309" x2="113.733" y2="134.672" gradientUnits="userSpaceOnUse">
<stop stop-color="#6947BD"/>
<stop offset="0.9888" stop-color="#252857"/>
</linearGradient>
<linearGradient id="paint9_linear_110_1579" x1="203.564" y1="371.214" x2="122.184" y2="81.3383" gradientUnits="userSpaceOnUse">
<stop stop-color="#885DF5"/>
<stop offset="0.9888" stop-color="#2E3670"/>
</linearGradient>
<linearGradient id="paint10_linear_110_1579" x1="60.3419" y1="123.582" x2="55.2085" y2="123.074" gradientUnits="userSpaceOnUse">
<stop stop-color="#885DF5"/>
<stop offset="0.9944" stop-color="#6B7CFE"/>
</linearGradient>
<linearGradient id="paint11_linear_110_1579" x1="69.7087" y1="118.784" x2="55.2562" y2="117.354" gradientUnits="userSpaceOnUse">
<stop stop-color="#885DF5"/>
<stop offset="0.9944" stop-color="#6B7CFE"/>
</linearGradient>
<linearGradient id="paint12_linear_110_1579" x1="182.709" y1="296.932" x2="108.013" y2="30.865" gradientUnits="userSpaceOnUse">
<stop stop-color="#885DF5"/>
<stop offset="0.9944" stop-color="#4551A6"/>
</linearGradient>
<linearGradient id="paint13_linear_110_1579" x1="64.7343" y1="95.3863" x2="50.5253" y2="93.9807" gradientUnits="userSpaceOnUse">
<stop stop-color="#885DF5"/>
<stop offset="0.9944" stop-color="#6B7CFE"/>
</linearGradient>
<linearGradient id="paint14_linear_110_1579" x1="62.3112" y1="79.5736" x2="47.6512" y2="78.1235" gradientUnits="userSpaceOnUse">
<stop stop-color="#885DF5"/>
<stop offset="0.9944" stop-color="#6B7CFE"/>
</linearGradient>
<linearGradient id="paint15_linear_110_1579" x1="193.358" y1="218.604" x2="138.268" y2="22.3708" gradientUnits="userSpaceOnUse">
<stop stop-color="#885DF5"/>
<stop offset="0.9944" stop-color="#5C6BDB"/>
</linearGradient>
<linearGradient id="paint16_linear_110_1579" x1="336.101" y1="181.178" x2="102.502" y2="158.071" gradientUnits="userSpaceOnUse">
<stop stop-color="#885DF5"/>
<stop offset="0.9944" stop-color="#6B7CFE"/>
</linearGradient>
<linearGradient id="paint17_linear_110_1579" x1="217.052" y1="170.152" x2="172.839" y2="12.6653" gradientUnits="userSpaceOnUse">
<stop stop-color="#885DF5"/>
<stop offset="0.9944" stop-color="#6B7CFE"/>
</linearGradient>
</defs>
</svg>
