<svg width="1012" height="284" viewBox="0 0 1012 284" fill="none" xmlns="http://www.w3.org/2000/svg">
<line x1="62" y1="10.5" x2="1006" y2="10.5" stroke="#CCD7E2" stroke-dasharray="3 3"/>
<line x1="62" y1="64.5" x2="1008" y2="64.5" stroke="#CCD7E2" stroke-dasharray="3 3"/>
<line x1="62" y1="118.5" x2="1008" y2="118.5" stroke="#CCD7E2" stroke-dasharray="3 3"/>
<line x1="62" y1="172.5" x2="1008" y2="172.5" stroke="#CCD7E2" stroke-dasharray="3 3"/>
<line x1="62" y1="226.5" x2="1008" y2="226.5" stroke="#CCD7E2" stroke-dasharray="3 3"/>
<line x1="62" y1="280.5" x2="1012" y2="280.5" stroke="#CCD7E2" stroke-dasharray="3 3"/>
<line x1="61.5" y1="278" x2="61.5" y2="10" stroke="#CCD7E2" stroke-dasharray="3 3"/>
<line x1="167.5" y1="278" x2="167.5" y2="10" stroke="#CCD7E2" stroke-dasharray="3 3"/>
<line x1="273.5" y1="278" x2="273.5" y2="10" stroke="#CCD7E2" stroke-dasharray="3 3"/>
<line x1="379.5" y1="278" x2="379.5" y2="10" stroke="#CCD7E2" stroke-dasharray="3 3"/>
<line x1="485.5" y1="278" x2="485.5" y2="10" stroke="#CCD7E2" stroke-dasharray="3 3"/>
<line x1="591.5" y1="278" x2="591.5" y2="10" stroke="#CCD7E2" stroke-dasharray="3 3"/>
<line x1="697.5" y1="278" x2="697.5" y2="10" stroke="#CCD7E2" stroke-dasharray="3 3"/>
<line x1="803.5" y1="278" x2="803.5" y2="10" stroke="#CCD7E2" stroke-dasharray="3 3"/>
<line x1="909.5" y1="278" x2="909.5" y2="10" stroke="#CCD7E2" stroke-dasharray="3 3"/>
<rect x="62" y="211" width="70.9167" height="70" fill="url(#paint0_linear_4019_27672)"/>
<rect x="141.917" y="141" width="70.9167" height="140" fill="url(#paint1_linear_4019_27672)"/>
<rect x="221.833" y="120" width="70.9167" height="161" fill="url(#paint2_linear_4019_27672)"/>
<rect x="301.75" y="176" width="70.9167" height="105" fill="url(#paint3_linear_4019_27672)"/>
<rect x="381.667" y="154" width="70.9167" height="127" fill="url(#paint4_linear_4019_27672)"/>
<rect x="461.583" y="207" width="70.9167" height="74" fill="url(#paint5_linear_4019_27672)"/>
<rect x="541.5" y="77" width="70.9167" height="204" fill="url(#paint6_linear_4019_27672)"/>
<rect x="621.417" y="112" width="70.9167" height="169" fill="url(#paint7_linear_4019_27672)"/>
<rect x="701.333" y="62" width="70.9167" height="219" fill="#1843BF"/>
<rect x="781.25" y="107" width="70.9167" height="174" fill="url(#paint8_linear_4019_27672)"/>
<rect x="861.167" y="225" width="70.9167" height="56" fill="url(#paint9_linear_4019_27672)"/>
<rect x="941.083" y="129" width="70.9167" height="152" fill="url(#paint10_linear_4019_27672)"/>
<path d="M99 212.571L177.677 143.003L257.269 119.648L335.031 181.265L416.453 155.923L496.045 212.074L575.637 77.9074L655.228 113.188L730.246 63L815.327 109.213L891.26 224L980 128.096" stroke="#1843BF"/>
<path d="M21.6926 5.3C22.2246 5.09467 22.7426 4.83333 23.2466 4.516C23.7506 4.18933 24.2126 3.78333 24.6326 3.298H25.5566V13H24.2546V5.104C24.1426 5.20667 24.0026 5.314 23.8346 5.426C23.676 5.538 23.4986 5.64533 23.3026 5.748C23.116 5.85067 22.9153 5.94867 22.7006 6.042C22.4953 6.13533 22.2946 6.21467 22.0986 6.28L21.6926 5.3ZM28.993 8.142C28.993 6.518 29.2776 5.26733 29.847 4.39C30.4256 3.51267 31.2236 3.074 32.241 3.074C33.2583 3.074 34.0516 3.51267 34.621 4.39C35.1996 5.26733 35.489 6.518 35.489 8.142C35.489 9.766 35.1996 11.0167 34.621 11.894C34.0516 12.7713 33.2583 13.21 32.241 13.21C31.2236 13.21 30.4256 12.7713 29.847 11.894C29.2776 11.0167 28.993 9.766 28.993 8.142ZM34.117 8.142C34.117 7.61 34.0843 7.106 34.019 6.63C33.963 6.154 33.8603 5.73867 33.711 5.384C33.571 5.02933 33.3796 4.74933 33.137 4.544C32.8943 4.32933 32.5956 4.222 32.241 4.222C31.8863 4.222 31.5876 4.32933 31.345 4.544C31.1023 4.74933 30.9063 5.02933 30.757 5.384C30.617 5.73867 30.5143 6.154 30.449 6.63C30.393 7.106 30.365 7.61 30.365 8.142C30.365 8.674 30.393 9.178 30.449 9.654C30.5143 10.13 30.617 10.5453 30.757 10.9C30.9063 11.2547 31.1023 11.5393 31.345 11.754C31.5876 11.9593 31.8863 12.062 32.241 12.062C32.5956 12.062 32.8943 11.9593 33.137 11.754C33.3796 11.5393 33.571 11.2547 33.711 10.9C33.8603 10.5453 33.963 10.13 34.019 9.654C34.0843 9.178 34.117 8.674 34.117 8.142ZM36.8953 8.142C36.8953 6.518 37.18 5.26733 37.7493 4.39C38.328 3.51267 39.126 3.074 40.1433 3.074C41.1606 3.074 41.954 3.51267 42.5233 4.39C43.102 5.26733 43.3913 6.518 43.3913 8.142C43.3913 9.766 43.102 11.0167 42.5233 11.894C41.954 12.7713 41.1606 13.21 40.1433 13.21C39.126 13.21 38.328 12.7713 37.7493 11.894C37.18 11.0167 36.8953 9.766 36.8953 8.142ZM42.0193 8.142C42.0193 7.61 41.9866 7.106 41.9213 6.63C41.8653 6.154 41.7626 5.73867 41.6133 5.384C41.4733 5.02933 41.282 4.74933 41.0393 4.544C40.7966 4.32933 40.498 4.222 40.1433 4.222C39.7886 4.222 39.49 4.32933 39.2473 4.544C39.0046 4.74933 38.8086 5.02933 38.6593 5.384C38.5193 5.73867 38.4166 6.154 38.3513 6.63C38.2953 7.106 38.2673 7.61 38.2673 8.142C38.2673 8.674 38.2953 9.178 38.3513 9.654C38.4166 10.13 38.5193 10.5453 38.6593 10.9C38.8086 11.2547 39.0046 11.5393 39.2473 11.754C39.49 11.9593 39.7886 12.062 40.1433 12.062C40.498 12.062 40.7966 11.9593 41.0393 11.754C41.282 11.5393 41.4733 11.2547 41.6133 10.9C41.7626 10.5453 41.8653 10.13 41.9213 9.654C41.9866 9.178 42.0193 8.674 42.0193 8.142ZM44.7977 8.142C44.7977 6.518 45.0823 5.26733 45.6517 4.39C46.2303 3.51267 47.0283 3.074 48.0457 3.074C49.063 3.074 49.8563 3.51267 50.4257 4.39C51.0043 5.26733 51.2937 6.518 51.2937 8.142C51.2937 9.766 51.0043 11.0167 50.4257 11.894C49.8563 12.7713 49.063 13.21 48.0457 13.21C47.0283 13.21 46.2303 12.7713 45.6517 11.894C45.0823 11.0167 44.7977 9.766 44.7977 8.142ZM49.9217 8.142C49.9217 7.61 49.889 7.106 49.8237 6.63C49.7677 6.154 49.665 5.73867 49.5157 5.384C49.3757 5.02933 49.1843 4.74933 48.9417 4.544C48.699 4.32933 48.4003 4.222 48.0457 4.222C47.691 4.222 47.3923 4.32933 47.1497 4.544C46.907 4.74933 46.711 5.02933 46.5617 5.384C46.4217 5.73867 46.319 6.154 46.2537 6.63C46.1977 7.106 46.1697 7.61 46.1697 8.142C46.1697 8.674 46.1977 9.178 46.2537 9.654C46.319 10.13 46.4217 10.5453 46.5617 10.9C46.711 11.2547 46.907 11.5393 47.1497 11.754C47.3923 11.9593 47.691 12.062 48.0457 12.062C48.4003 12.062 48.699 11.9593 48.9417 11.754C49.1843 11.5393 49.3757 11.2547 49.5157 10.9C49.665 10.5453 49.7677 10.13 49.8237 9.654C49.889 9.178 49.9217 8.674 49.9217 8.142Z" fill="#9FA8B1"/>
<path d="M42.3997 271.55C42.9317 271.345 43.4497 271.083 43.9537 270.766C44.4577 270.439 44.9197 270.033 45.3397 269.548H46.2637V279.25H44.9617V271.354C44.8497 271.457 44.7097 271.564 44.5417 271.676C44.383 271.788 44.2057 271.895 44.0097 271.998C43.823 272.101 43.6223 272.199 43.4077 272.292C43.2023 272.385 43.0017 272.465 42.8057 272.53L42.3997 271.55Z" fill="#9FA8B1"/>
<path d="M35.4973 218.3C36.0293 218.095 36.5473 217.833 37.0513 217.516C37.5553 217.189 38.0173 216.783 38.4373 216.298H39.3613V226H38.0593V218.104C37.9473 218.207 37.8073 218.314 37.6393 218.426C37.4806 218.538 37.3033 218.645 37.1073 218.748C36.9206 218.851 36.72 218.949 36.5053 219.042C36.3 219.135 36.0993 219.215 35.9033 219.28L35.4973 218.3ZM42.7977 221.142C42.7977 219.518 43.0823 218.267 43.6517 217.39C44.2303 216.513 45.0283 216.074 46.0457 216.074C47.063 216.074 47.8563 216.513 48.4257 217.39C49.0043 218.267 49.2937 219.518 49.2937 221.142C49.2937 222.766 49.0043 224.017 48.4257 224.894C47.8563 225.771 47.063 226.21 46.0457 226.21C45.0283 226.21 44.2303 225.771 43.6517 224.894C43.0823 224.017 42.7977 222.766 42.7977 221.142ZM47.9217 221.142C47.9217 220.61 47.889 220.106 47.8237 219.63C47.7677 219.154 47.665 218.739 47.5157 218.384C47.3757 218.029 47.1843 217.749 46.9417 217.544C46.699 217.329 46.4003 217.222 46.0457 217.222C45.691 217.222 45.3923 217.329 45.1497 217.544C44.907 217.749 44.711 218.029 44.5617 218.384C44.4217 218.739 44.319 219.154 44.2537 219.63C44.1977 220.106 44.1697 220.61 44.1697 221.142C44.1697 221.674 44.1977 222.178 44.2537 222.654C44.319 223.13 44.4217 223.545 44.5617 223.9C44.711 224.255 44.907 224.539 45.1497 224.754C45.3923 224.959 45.691 225.062 46.0457 225.062C46.4003 225.062 46.699 224.959 46.9417 224.754C47.1843 224.539 47.3757 224.255 47.5157 223.9C47.665 223.545 47.7677 223.13 47.8237 222.654C47.889 222.178 47.9217 221.674 47.9217 221.142Z" fill="#9FA8B1"/>
<path d="M36.9813 167.72C38.3906 167.776 39.422 168.084 40.0753 168.644C40.738 169.204 41.0693 169.965 41.0693 170.926C41.0693 171.355 40.9946 171.752 40.8453 172.116C40.7053 172.48 40.486 172.793 40.1873 173.054C39.898 173.315 39.5293 173.521 39.0813 173.67C38.6333 173.819 38.1013 173.894 37.4853 173.894C37.2426 173.894 36.9953 173.875 36.7433 173.838C36.4913 173.801 36.258 173.754 36.0433 173.698C35.8286 173.642 35.6373 173.586 35.4693 173.53C35.3013 173.474 35.18 173.427 35.1053 173.39L35.3573 172.256C35.516 172.331 35.7726 172.429 36.1273 172.55C36.4913 172.671 36.9346 172.732 37.4573 172.732C37.8773 172.732 38.2273 172.685 38.5073 172.592C38.7966 172.499 39.03 172.373 39.2073 172.214C39.3846 172.055 39.5106 171.873 39.5853 171.668C39.6693 171.453 39.7113 171.229 39.7113 170.996C39.7113 170.641 39.6506 170.329 39.5293 170.058C39.408 169.778 39.1933 169.545 38.8853 169.358C38.5773 169.171 38.1666 169.031 37.6533 168.938C37.14 168.835 36.4913 168.784 35.7073 168.784C35.7633 168.327 35.8053 167.897 35.8333 167.496C35.8706 167.095 35.9033 166.703 35.9313 166.32C35.9593 165.937 35.9826 165.559 36.0013 165.186C36.02 164.803 36.0386 164.402 36.0573 163.982H40.7333V165.088H37.1913C37.182 165.228 37.168 165.419 37.1493 165.662C37.1306 165.895 37.112 166.143 37.0933 166.404C37.0746 166.656 37.056 166.903 37.0373 167.146C37.0186 167.389 37 167.58 36.9813 167.72ZM42.7977 168.826C42.7977 167.202 43.0823 165.951 43.6517 165.074C44.2303 164.197 45.0283 163.758 46.0457 163.758C47.063 163.758 47.8563 164.197 48.4257 165.074C49.0043 165.951 49.2937 167.202 49.2937 168.826C49.2937 170.45 49.0043 171.701 48.4257 172.578C47.8563 173.455 47.063 173.894 46.0457 173.894C45.0283 173.894 44.2303 173.455 43.6517 172.578C43.0823 171.701 42.7977 170.45 42.7977 168.826ZM47.9217 168.826C47.9217 168.294 47.889 167.79 47.8237 167.314C47.7677 166.838 47.665 166.423 47.5157 166.068C47.3757 165.713 47.1843 165.433 46.9417 165.228C46.699 165.013 46.4003 164.906 46.0457 164.906C45.691 164.906 45.3923 165.013 45.1497 165.228C44.907 165.433 44.711 165.713 44.5617 166.068C44.4217 166.423 44.319 166.838 44.2537 167.314C44.1977 167.79 44.1697 168.294 44.1697 168.826C44.1697 169.358 44.1977 169.862 44.2537 170.338C44.319 170.814 44.4217 171.229 44.5617 171.584C44.711 171.939 44.907 172.223 45.1497 172.438C45.3923 172.643 45.691 172.746 46.0457 172.746C46.4003 172.746 46.699 172.643 46.9417 172.438C47.1843 172.223 47.3757 171.939 47.5157 171.584C47.665 171.229 47.7677 170.814 47.8237 170.338C47.889 169.862 47.9217 169.358 47.9217 168.826Z" fill="#9FA8B1"/>
<path d="M26.595 111.8C27.127 111.595 27.645 111.333 28.149 111.016C28.653 110.689 29.115 110.283 29.535 109.798H30.459V119.5H29.157V111.604C29.045 111.707 28.905 111.814 28.737 111.926C28.5783 112.038 28.401 112.145 28.205 112.248C28.0183 112.351 27.8176 112.449 27.603 112.542C27.3976 112.635 27.197 112.715 27.001 112.78L26.595 111.8ZM33.8953 114.642C33.8953 113.018 34.18 111.767 34.7493 110.89C35.328 110.013 36.126 109.574 37.1433 109.574C38.1606 109.574 38.954 110.013 39.5233 110.89C40.102 111.767 40.3913 113.018 40.3913 114.642C40.3913 116.266 40.102 117.517 39.5233 118.394C38.954 119.271 38.1606 119.71 37.1433 119.71C36.126 119.71 35.328 119.271 34.7493 118.394C34.18 117.517 33.8953 116.266 33.8953 114.642ZM39.0193 114.642C39.0193 114.11 38.9866 113.606 38.9213 113.13C38.8653 112.654 38.7626 112.239 38.6133 111.884C38.4733 111.529 38.282 111.249 38.0393 111.044C37.7966 110.829 37.498 110.722 37.1433 110.722C36.7886 110.722 36.49 110.829 36.2473 111.044C36.0046 111.249 35.8086 111.529 35.6593 111.884C35.5193 112.239 35.4166 112.654 35.3513 113.13C35.2953 113.606 35.2673 114.11 35.2673 114.642C35.2673 115.174 35.2953 115.678 35.3513 116.154C35.4166 116.63 35.5193 117.045 35.6593 117.4C35.8086 117.755 36.0046 118.039 36.2473 118.254C36.49 118.459 36.7886 118.562 37.1433 118.562C37.498 118.562 37.7966 118.459 38.0393 118.254C38.282 118.039 38.4733 117.755 38.6133 117.4C38.7626 117.045 38.8653 116.63 38.9213 116.154C38.9866 115.678 39.0193 115.174 39.0193 114.642ZM41.7977 114.642C41.7977 113.018 42.0823 111.767 42.6517 110.89C43.2303 110.013 44.0283 109.574 45.0457 109.574C46.063 109.574 46.8563 110.013 47.4257 110.89C48.0043 111.767 48.2937 113.018 48.2937 114.642C48.2937 116.266 48.0043 117.517 47.4257 118.394C46.8563 119.271 46.063 119.71 45.0457 119.71C44.0283 119.71 43.2303 119.271 42.6517 118.394C42.0823 117.517 41.7977 116.266 41.7977 114.642ZM46.9217 114.642C46.9217 114.11 46.889 113.606 46.8237 113.13C46.7677 112.654 46.665 112.239 46.5157 111.884C46.3757 111.529 46.1843 111.249 45.9417 111.044C45.699 110.829 45.4003 110.722 45.0457 110.722C44.691 110.722 44.3923 110.829 44.1497 111.044C43.907 111.249 43.711 111.529 43.5617 111.884C43.4217 112.239 43.319 112.654 43.2537 113.13C43.1977 113.606 43.1697 114.11 43.1697 114.642C43.1697 115.174 43.1977 115.678 43.2537 116.154C43.319 116.63 43.4217 117.045 43.5617 117.4C43.711 117.755 43.907 118.039 44.1497 118.254C44.3923 118.459 44.691 118.562 45.0457 118.562C45.4003 118.562 45.699 118.459 45.9417 118.254C46.1843 118.039 46.3757 117.755 46.5157 117.4C46.665 117.045 46.7677 116.63 46.8237 116.154C46.889 115.678 46.9217 115.174 46.9217 114.642Z" fill="#9FA8B1"/>
<path d="M28.079 60.286C29.4883 60.342 30.5196 60.65 31.173 61.21C31.8356 61.77 32.167 62.5307 32.167 63.492C32.167 63.9213 32.0923 64.318 31.943 64.682C31.803 65.046 31.5836 65.3587 31.285 65.62C30.9956 65.8813 30.627 66.0867 30.179 66.236C29.731 66.3853 29.199 66.46 28.583 66.46C28.3403 66.46 28.093 66.4413 27.841 66.404C27.589 66.3667 27.3556 66.32 27.141 66.264C26.9263 66.208 26.735 66.152 26.567 66.096C26.399 66.04 26.2776 65.9933 26.203 65.956L26.455 64.822C26.6136 64.8967 26.8703 64.9947 27.225 65.116C27.589 65.2373 28.0323 65.298 28.555 65.298C28.975 65.298 29.325 65.2513 29.605 65.158C29.8943 65.0647 30.1276 64.9387 30.305 64.78C30.4823 64.6213 30.6083 64.4393 30.683 64.234C30.767 64.0193 30.809 63.7953 30.809 63.562C30.809 63.2073 30.7483 62.8947 30.627 62.624C30.5056 62.344 30.291 62.1107 29.983 61.924C29.675 61.7373 29.2643 61.5973 28.751 61.504C28.2376 61.4013 27.589 61.35 26.805 61.35C26.861 60.8927 26.903 60.4633 26.931 60.062C26.9683 59.6607 27.001 59.2687 27.029 58.886C27.057 58.5033 27.0803 58.1253 27.099 57.752C27.1176 57.3693 27.1363 56.968 27.155 56.548H31.831V57.654H28.289C28.2796 57.794 28.2656 57.9853 28.247 58.228C28.2283 58.4613 28.2096 58.7087 28.191 58.97C28.1723 59.222 28.1536 59.4693 28.135 59.712C28.1163 59.9547 28.0976 60.146 28.079 60.286ZM33.8953 61.392C33.8953 59.768 34.18 58.5173 34.7493 57.64C35.328 56.7627 36.126 56.324 37.1433 56.324C38.1606 56.324 38.954 56.7627 39.5233 57.64C40.102 58.5173 40.3913 59.768 40.3913 61.392C40.3913 63.016 40.102 64.2667 39.5233 65.144C38.954 66.0213 38.1606 66.46 37.1433 66.46C36.126 66.46 35.328 66.0213 34.7493 65.144C34.18 64.2667 33.8953 63.016 33.8953 61.392ZM39.0193 61.392C39.0193 60.86 38.9866 60.356 38.9213 59.88C38.8653 59.404 38.7626 58.9887 38.6133 58.634C38.4733 58.2793 38.282 57.9993 38.0393 57.794C37.7966 57.5793 37.498 57.472 37.1433 57.472C36.7886 57.472 36.49 57.5793 36.2473 57.794C36.0046 57.9993 35.8086 58.2793 35.6593 58.634C35.5193 58.9887 35.4166 59.404 35.3513 59.88C35.2953 60.356 35.2673 60.86 35.2673 61.392C35.2673 61.924 35.2953 62.428 35.3513 62.904C35.4166 63.38 35.5193 63.7953 35.6593 64.15C35.8086 64.5047 36.0046 64.7893 36.2473 65.004C36.49 65.2093 36.7886 65.312 37.1433 65.312C37.498 65.312 37.7966 65.2093 38.0393 65.004C38.282 64.7893 38.4733 64.5047 38.6133 64.15C38.7626 63.7953 38.8653 63.38 38.9213 62.904C38.9866 62.428 39.0193 61.924 39.0193 61.392ZM41.7977 61.392C41.7977 59.768 42.0823 58.5173 42.6517 57.64C43.2303 56.7627 44.0283 56.324 45.0457 56.324C46.063 56.324 46.8563 56.7627 47.4257 57.64C48.0043 58.5173 48.2937 59.768 48.2937 61.392C48.2937 63.016 48.0043 64.2667 47.4257 65.144C46.8563 66.0213 46.063 66.46 45.0457 66.46C44.0283 66.46 43.2303 66.0213 42.6517 65.144C42.0823 64.2667 41.7977 63.016 41.7977 61.392ZM46.9217 61.392C46.9217 60.86 46.889 60.356 46.8237 59.88C46.7677 59.404 46.665 58.9887 46.5157 58.634C46.3757 58.2793 46.1843 57.9993 45.9417 57.794C45.699 57.5793 45.4003 57.472 45.0457 57.472C44.691 57.472 44.3923 57.5793 44.1497 57.794C43.907 57.9993 43.711 58.2793 43.5617 58.634C43.4217 58.9887 43.319 59.404 43.2537 59.88C43.1977 60.356 43.1697 60.86 43.1697 61.392C43.1697 61.924 43.1977 62.428 43.2537 62.904C43.319 63.38 43.4217 63.7953 43.5617 64.15C43.711 64.5047 43.907 64.7893 44.1497 65.004C44.3923 65.2093 44.691 65.312 45.0457 65.312C45.4003 65.312 45.699 65.2093 45.9417 65.004C46.1843 64.7893 46.3757 64.5047 46.5157 64.15C46.665 63.7953 46.7677 63.38 46.8237 62.904C46.889 62.428 46.9217 61.924 46.9217 61.392Z" fill="#9FA8B1"/>
<circle cx="99.2438" cy="211.691" r="7.24378" fill="white" stroke="#3399FF" stroke-width="6"/>
<circle cx="179.244" cy="142.244" r="7.24378" fill="white" stroke="#3399FF" stroke-width="6"/>
<circle cx="179.244" cy="142.244" r="7.24378" fill="white" stroke="#3399FF" stroke-width="6"/>
<line x1="1011.5" y1="281" x2="1011.5" y2="10" stroke="#CCD7E2" stroke-dasharray="3 3"/>
<circle cx="257.244" cy="120.244" r="7.24378" fill="white" stroke="#3399FF" stroke-width="6"/>
<circle cx="335.244" cy="180.244" r="7.24378" fill="white" stroke="#3399FF" stroke-width="6"/>
<circle cx="417.244" cy="154.244" r="7.24378" fill="white" stroke="#3399FF" stroke-width="6"/>
<circle cx="496.244" cy="207.244" r="7.24378" fill="white" stroke="#3399FF" stroke-width="6"/>
<circle cx="577.244" cy="77.2438" r="7.24378" fill="white" stroke="#3399FF" stroke-width="6"/>
<circle cx="657.244" cy="112.244" r="7.24378" fill="white" stroke="#3399FF" stroke-width="6"/>
<circle cx="737.244" cy="62.2438" r="7.24378" fill="white" stroke="#3399FF" stroke-width="6"/>
<circle cx="816.244" cy="108.244" r="7.24378" fill="white" stroke="#3399FF" stroke-width="6"/>
<circle cx="896.244" cy="224.244" r="7.24378" fill="white" stroke="#3399FF" stroke-width="6"/>
<circle cx="977.244" cy="129.244" r="7.24378" fill="white" stroke="#3399FF" stroke-width="6"/>
<g filter="url(#filter0_d_4019_27672)">
<rect x="689" y="81" width="95" height="52" rx="5" fill="white" shape-rendering="crispEdges"/>
<path d="M733.964 102C734.028 101.189 734.172 100.336 734.396 99.44C734.62 98.544 734.892 97.6747 735.212 96.832C735.543 95.9787 735.9 95.184 736.284 94.448C736.679 93.7013 737.068 93.0773 737.452 92.576H732.348V90.912H739.756V92.384C739.404 92.7787 739.02 93.3173 738.604 94C738.188 94.6827 737.793 95.456 737.42 96.32C737.047 97.1733 736.721 98.0907 736.444 99.072C736.177 100.053 736.012 101.029 735.948 102H733.964Z" fill="#343434"/>
<line x1="704" y1="108.5" x2="769" y2="108.5" stroke="#DFE5EC"/>
<path d="M704.852 118.132C704.852 118.46 704.892 118.728 704.972 118.936C705.052 119.136 705.164 119.296 705.308 119.416C705.46 119.536 705.64 119.62 705.848 119.668C706.056 119.708 706.284 119.728 706.532 119.728C706.724 119.728 706.928 119.72 707.144 119.704C707.368 119.688 707.596 119.664 707.828 119.632V115.684H709.7V124H707.828V121.216C707.556 121.248 707.292 121.272 707.036 121.288C706.78 121.304 706.536 121.312 706.304 121.312C705.8 121.312 705.34 121.268 704.924 121.18C704.516 121.084 704.168 120.92 703.88 120.688C703.592 120.448 703.368 120.132 703.208 119.74C703.056 119.34 702.98 118.836 702.98 118.228V115.684H704.852V118.132ZM716.716 119.152H714.7V124H712.912V119.152H710.896V117.688H716.716V119.152ZM725.796 117.868C725.796 118.172 725.736 118.464 725.616 118.744C725.496 119.024 725.34 119.296 725.148 119.56C724.956 119.816 724.74 120.064 724.5 120.304C724.26 120.544 724.024 120.772 723.792 120.988C723.672 121.1 723.54 121.228 723.396 121.372C723.26 121.508 723.128 121.648 723 121.792C722.872 121.936 722.756 122.072 722.652 122.2C722.556 122.32 722.496 122.42 722.472 122.5H726.048V124H720.504C720.488 123.912 720.48 123.8 720.48 123.664C720.48 123.528 720.48 123.432 720.48 123.376C720.48 122.992 720.54 122.64 720.66 122.32C720.788 122 720.952 121.704 721.152 121.432C721.352 121.152 721.576 120.892 721.824 120.652C722.08 120.412 722.332 120.172 722.58 119.932C722.772 119.748 722.952 119.576 723.12 119.416C723.288 119.248 723.436 119.088 723.564 118.936C723.692 118.776 723.792 118.62 723.864 118.468C723.936 118.308 723.972 118.148 723.972 117.988C723.972 117.636 723.872 117.388 723.672 117.244C723.472 117.1 723.224 117.028 722.928 117.028C722.712 117.028 722.508 117.064 722.316 117.136C722.132 117.2 721.96 117.28 721.8 117.376C721.648 117.464 721.516 117.556 721.404 117.652C721.292 117.74 721.208 117.812 721.152 117.868L720.264 116.62C720.616 116.292 721.024 116.024 721.488 115.816C721.96 115.6 722.464 115.492 723 115.492C723.488 115.492 723.908 115.548 724.26 115.66C724.612 115.772 724.9 115.932 725.124 116.14C725.356 116.34 725.524 116.588 725.628 116.884C725.74 117.172 725.796 117.5 725.796 117.868ZM729.952 120.088C729.776 120.088 729.588 120.104 729.388 120.136C729.188 120.168 729.032 120.212 728.92 120.268C728.92 120.3 728.916 120.348 728.908 120.412C728.908 120.476 728.908 120.532 728.908 120.58C728.908 120.868 728.928 121.14 728.968 121.396C729.008 121.652 729.076 121.876 729.172 122.068C729.268 122.26 729.396 122.412 729.556 122.524C729.716 122.628 729.916 122.68 730.156 122.68C730.356 122.68 730.524 122.64 730.66 122.56C730.804 122.472 730.92 122.364 731.008 122.236C731.104 122.108 731.172 121.968 731.212 121.816C731.26 121.656 731.284 121.504 731.284 121.36C731.284 120.952 731.18 120.64 730.972 120.424C730.772 120.2 730.432 120.088 729.952 120.088ZM730.18 118.696C730.7 118.696 731.14 118.768 731.5 118.912C731.868 119.048 732.168 119.236 732.4 119.476C732.632 119.716 732.8 119.996 732.904 120.316C733.008 120.636 733.06 120.976 733.06 121.336C733.06 121.656 733 121.984 732.88 122.32C732.768 122.656 732.592 122.96 732.352 123.232C732.12 123.504 731.82 123.728 731.452 123.904C731.092 124.08 730.664 124.168 730.168 124.168C729.168 124.168 728.408 123.852 727.888 123.22C727.368 122.588 727.108 121.716 727.108 120.604C727.108 119.804 727.232 119.096 727.48 118.48C727.728 117.864 728.08 117.348 728.536 116.932C729 116.508 729.556 116.188 730.204 115.972C730.86 115.748 731.596 115.632 732.412 115.624C732.428 115.872 732.444 116.116 732.46 116.356C732.476 116.588 732.492 116.832 732.508 117.088C732.1 117.096 731.716 117.136 731.356 117.208C731.004 117.272 730.68 117.376 730.384 117.52C730.096 117.664 729.844 117.852 729.628 118.084C729.412 118.308 729.244 118.584 729.124 118.912C729.3 118.832 729.48 118.776 729.664 118.744C729.848 118.712 730.02 118.696 730.18 118.696ZM736.016 122.176C736.032 122.368 736.04 122.504 736.04 122.584C736.048 122.664 736.052 122.732 736.052 122.788C736.052 123.028 736.028 123.284 735.98 123.556C735.94 123.82 735.88 124.088 735.8 124.36C735.72 124.632 735.62 124.904 735.5 125.176C735.38 125.448 735.244 125.708 735.092 125.956L733.688 125.608C733.872 125.08 734 124.584 734.072 124.12C734.144 123.656 734.18 123.272 734.18 122.968C734.18 122.92 734.176 122.86 734.168 122.788C734.168 122.708 734.164 122.628 734.156 122.548C734.156 122.468 734.152 122.392 734.144 122.32C734.144 122.248 734.144 122.2 734.144 122.176H736.016ZM740.16 117.412C740.392 117.316 740.632 117.208 740.88 117.088C741.136 116.96 741.384 116.824 741.624 116.68C741.864 116.528 742.092 116.372 742.308 116.212C742.532 116.044 742.732 115.868 742.908 115.684H744.156V124H742.368V118.012C742.128 118.172 741.86 118.32 741.564 118.456C741.268 118.584 740.98 118.696 740.7 118.792L740.16 117.412ZM752.501 121.684C752.501 122.044 752.437 122.376 752.309 122.68C752.189 122.976 752.005 123.236 751.757 123.46C751.509 123.684 751.197 123.86 750.821 123.988C750.453 124.108 750.025 124.168 749.537 124.168C748.977 124.168 748.509 124.092 748.133 123.94C747.765 123.78 747.465 123.584 747.233 123.352C747.009 123.12 746.849 122.868 746.753 122.596C746.657 122.316 746.609 122.06 746.609 121.828C746.609 121.588 746.641 121.368 746.705 121.168C746.769 120.968 746.857 120.788 746.969 120.628C747.081 120.46 747.205 120.308 747.341 120.172C747.485 120.036 747.637 119.908 747.797 119.788C747.453 119.508 747.197 119.232 747.029 118.96C746.869 118.688 746.789 118.34 746.789 117.916C746.789 117.596 746.853 117.288 746.981 116.992C747.117 116.696 747.305 116.44 747.545 116.224C747.785 116 748.073 115.824 748.409 115.696C748.753 115.56 749.133 115.492 749.549 115.492C750.037 115.492 750.453 115.564 750.797 115.708C751.149 115.844 751.437 116.02 751.661 116.236C751.885 116.452 752.045 116.696 752.141 116.968C752.245 117.232 752.297 117.496 752.297 117.76C752.297 118.144 752.193 118.504 751.985 118.84C751.785 119.168 751.533 119.428 751.229 119.62C751.685 119.916 752.009 120.228 752.201 120.556C752.401 120.876 752.501 121.252 752.501 121.684ZM748.349 121.756C748.349 121.852 748.369 121.96 748.409 122.08C748.457 122.192 748.529 122.296 748.625 122.392C748.721 122.488 748.845 122.568 748.997 122.632C749.149 122.696 749.333 122.728 749.549 122.728C749.965 122.728 750.269 122.628 750.461 122.428C750.653 122.228 750.749 122.004 750.749 121.756C750.749 121.572 750.705 121.408 750.617 121.264C750.537 121.12 750.425 120.996 750.281 120.892C750.137 120.78 749.965 120.684 749.765 120.604C749.573 120.516 749.365 120.436 749.141 120.364C748.917 120.532 748.729 120.728 748.577 120.952C748.425 121.176 748.349 121.444 748.349 121.756ZM750.569 117.808C750.569 117.72 750.549 117.628 750.509 117.532C750.477 117.428 750.417 117.332 750.329 117.244C750.249 117.156 750.145 117.084 750.017 117.028C749.889 116.964 749.733 116.932 749.549 116.932C749.373 116.932 749.221 116.96 749.093 117.016C748.965 117.072 748.857 117.148 748.769 117.244C748.689 117.332 748.629 117.428 748.589 117.532C748.549 117.636 748.529 117.736 748.529 117.832C748.529 118.088 748.621 118.328 748.805 118.552C748.997 118.776 749.321 118.968 749.777 119.128C750.033 118.968 750.229 118.784 750.365 118.576C750.501 118.368 750.569 118.112 750.569 117.808ZM755.553 118.792C755.553 119.152 755.437 119.428 755.205 119.62C754.981 119.804 754.725 119.896 754.437 119.896C754.149 119.896 753.889 119.804 753.657 119.62C753.433 119.428 753.321 119.152 753.321 118.792C753.321 118.432 753.433 118.16 753.657 117.976C753.889 117.784 754.149 117.688 754.437 117.688C754.725 117.688 754.981 117.784 755.205 117.976C755.437 118.16 755.553 118.432 755.553 118.792ZM755.553 123.052C755.553 123.412 755.437 123.688 755.205 123.88C754.981 124.064 754.725 124.156 754.437 124.156C754.149 124.156 753.889 124.064 753.657 123.88C753.433 123.688 753.321 123.412 753.321 123.052C753.321 122.692 753.433 122.42 753.657 122.236C753.889 122.044 754.149 121.948 754.437 121.948C754.725 121.948 754.981 122.044 755.205 122.236C755.437 122.42 755.553 122.692 755.553 123.052ZM760.234 121.552C760.234 121.32 760.182 121.116 760.078 120.94C759.974 120.756 759.794 120.604 759.538 120.484C759.282 120.364 758.938 120.272 758.506 120.208C758.074 120.144 757.53 120.112 756.874 120.112C756.962 119.368 757.034 118.612 757.09 117.844C757.146 117.076 757.19 116.356 757.222 115.684H761.722V117.184H758.722C758.706 117.472 758.686 117.752 758.662 118.024C758.646 118.288 758.626 118.52 758.602 118.72C759.77 118.8 760.63 119.076 761.182 119.548C761.742 120.012 762.022 120.66 762.022 121.492C762.022 121.876 761.954 122.232 761.818 122.56C761.682 122.888 761.478 123.172 761.206 123.412C760.934 123.652 760.59 123.84 760.174 123.976C759.766 124.112 759.286 124.18 758.734 124.18C758.518 124.18 758.29 124.164 758.05 124.132C757.818 124.108 757.59 124.072 757.366 124.024C757.15 123.984 756.954 123.94 756.778 123.892C756.602 123.844 756.466 123.796 756.37 123.748L756.694 122.272C756.894 122.36 757.158 122.448 757.486 122.536C757.814 122.616 758.206 122.656 758.662 122.656C759.214 122.656 759.614 122.548 759.862 122.332C760.11 122.108 760.234 121.848 760.234 121.552ZM766.022 120.088C765.846 120.088 765.658 120.104 765.458 120.136C765.258 120.168 765.102 120.212 764.99 120.268C764.99 120.3 764.986 120.348 764.978 120.412C764.978 120.476 764.978 120.532 764.978 120.58C764.978 120.868 764.998 121.14 765.038 121.396C765.078 121.652 765.146 121.876 765.242 122.068C765.338 122.26 765.466 122.412 765.626 122.524C765.786 122.628 765.986 122.68 766.226 122.68C766.426 122.68 766.594 122.64 766.73 122.56C766.874 122.472 766.99 122.364 767.078 122.236C767.174 122.108 767.242 121.968 767.282 121.816C767.33 121.656 767.354 121.504 767.354 121.36C767.354 120.952 767.25 120.64 767.042 120.424C766.842 120.2 766.502 120.088 766.022 120.088ZM766.25 118.696C766.77 118.696 767.21 118.768 767.57 118.912C767.938 119.048 768.238 119.236 768.47 119.476C768.702 119.716 768.87 119.996 768.974 120.316C769.078 120.636 769.13 120.976 769.13 121.336C769.13 121.656 769.07 121.984 768.95 122.32C768.838 122.656 768.662 122.96 768.422 123.232C768.19 123.504 767.89 123.728 767.522 123.904C767.162 124.08 766.734 124.168 766.238 124.168C765.238 124.168 764.478 123.852 763.958 123.22C763.438 122.588 763.178 121.716 763.178 120.604C763.178 119.804 763.302 119.096 763.55 118.48C763.798 117.864 764.15 117.348 764.606 116.932C765.07 116.508 765.626 116.188 766.274 115.972C766.93 115.748 767.666 115.632 768.482 115.624C768.498 115.872 768.514 116.116 768.53 116.356C768.546 116.588 768.562 116.832 768.578 117.088C768.17 117.096 767.786 117.136 767.426 117.208C767.074 117.272 766.75 117.376 766.454 117.52C766.166 117.664 765.914 117.852 765.698 118.084C765.482 118.308 765.314 118.584 765.194 118.912C765.37 118.832 765.55 118.776 765.734 118.744C765.918 118.712 766.09 118.696 766.25 118.696Z" fill="#9FA8B1"/>
</g>
<defs>
<filter id="filter0_d_4019_27672" x="664" y="60" width="145" height="102" filterUnits="userSpaceOnUse" color-interpolation-filters="sRGB">
<feFlood flood-opacity="0" result="BackgroundImageFix"/>
<feColorMatrix in="SourceAlpha" type="matrix" values="0 0 0 0 0 0 0 0 0 0 0 0 0 0 0 0 0 0 127 0" result="hardAlpha"/>
<feOffset dy="4"/>
<feGaussianBlur stdDeviation="12.5"/>
<feComposite in2="hardAlpha" operator="out"/>
<feColorMatrix type="matrix" values="0 0 0 0 0.226285 0 0 0 0 0.390226 0 0 0 0 0.554167 0 0 0 1 0"/>
<feBlend mode="normal" in2="BackgroundImageFix" result="effect1_dropShadow_4019_27672"/>
<feBlend mode="normal" in="SourceGraphic" in2="effect1_dropShadow_4019_27672" result="shape"/>
</filter>
<linearGradient id="paint0_linear_4019_27672" x1="97.4583" y1="211" x2="97.4583" y2="281" gradientUnits="userSpaceOnUse">
<stop stop-color="#E9F4FF"/>
<stop offset="1" stop-color="#BACCDE"/>
</linearGradient>
<linearGradient id="paint1_linear_4019_27672" x1="177.375" y1="141" x2="177.375" y2="281" gradientUnits="userSpaceOnUse">
<stop stop-color="#E9F4FF"/>
<stop offset="1" stop-color="#BACCDE"/>
</linearGradient>
<linearGradient id="paint2_linear_4019_27672" x1="257.292" y1="120" x2="257.292" y2="281" gradientUnits="userSpaceOnUse">
<stop stop-color="#E9F4FF"/>
<stop offset="1" stop-color="#BACCDE"/>
</linearGradient>
<linearGradient id="paint3_linear_4019_27672" x1="337.208" y1="176" x2="337.208" y2="281" gradientUnits="userSpaceOnUse">
<stop stop-color="#E9F4FF"/>
<stop offset="1" stop-color="#BACCDE"/>
</linearGradient>
<linearGradient id="paint4_linear_4019_27672" x1="417.125" y1="154" x2="417.125" y2="281" gradientUnits="userSpaceOnUse">
<stop stop-color="#E9F4FF"/>
<stop offset="1" stop-color="#BACCDE"/>
</linearGradient>
<linearGradient id="paint5_linear_4019_27672" x1="497.042" y1="207" x2="497.042" y2="281" gradientUnits="userSpaceOnUse">
<stop stop-color="#E9F4FF"/>
<stop offset="1" stop-color="#BACCDE"/>
</linearGradient>
<linearGradient id="paint6_linear_4019_27672" x1="576.958" y1="77" x2="576.958" y2="281" gradientUnits="userSpaceOnUse">
<stop stop-color="#E9F4FF"/>
<stop offset="1" stop-color="#BACCDE"/>
</linearGradient>
<linearGradient id="paint7_linear_4019_27672" x1="656.875" y1="112" x2="656.875" y2="281" gradientUnits="userSpaceOnUse">
<stop stop-color="#E9F4FF"/>
<stop offset="1" stop-color="#BACCDE"/>
</linearGradient>
<linearGradient id="paint8_linear_4019_27672" x1="816.708" y1="107" x2="816.708" y2="281" gradientUnits="userSpaceOnUse">
<stop stop-color="#E9F4FF"/>
<stop offset="1" stop-color="#BACCDE"/>
</linearGradient>
<linearGradient id="paint9_linear_4019_27672" x1="896.625" y1="225" x2="896.625" y2="281" gradientUnits="userSpaceOnUse">
<stop stop-color="#E9F4FF"/>
<stop offset="1" stop-color="#BACCDE"/>
</linearGradient>
<linearGradient id="paint10_linear_4019_27672" x1="976.542" y1="129" x2="976.542" y2="281" gradientUnits="userSpaceOnUse">
<stop stop-color="#E9F4FF"/>
<stop offset="1" stop-color="#BACCDE"/>
</linearGradient>
</defs>
</svg>
