<svg width="96" height="32" viewBox="0 0 96 32" fill="none" xmlns="http://www.w3.org/2000/svg">
<g clip-path="url(#clip0_3429_6371)">
<path d="M88.9098 10.1258L83.6522 8.88404L82.7133 8.50195L58.5847 8.693V20.5378L88.9098 20.6333V10.1258Z" fill="white"/>
<path d="M79.052 19.4866C79.203 19.0797 79.2563 18.6421 79.2073 18.21C79.1583 17.778 79.0085 17.3641 78.7703 17.003C78.5257 16.7046 78.2257 16.4582 77.8874 16.2779C77.549 16.0976 77.1791 15.9869 76.7987 15.9523L60.4626 15.7612C60.3688 15.7612 60.2749 15.6657 60.181 15.6657C60.1591 15.649 60.1414 15.6274 60.1291 15.6025C60.1169 15.5776 60.1106 15.5502 60.1106 15.5224C60.1106 15.4946 60.1169 15.4672 60.1291 15.4423C60.1414 15.4174 60.1591 15.3958 60.181 15.3791C60.2749 15.1881 60.3688 15.0926 60.5565 15.0926L76.9865 14.9015C78.0296 14.7837 79.023 14.3854 79.8645 13.7474C80.7061 13.1094 81.3654 12.2549 81.7747 11.2717L82.7135 8.78807C82.7135 8.69255 82.8074 8.59703 82.7135 8.50151C82.2031 6.18835 80.9645 4.10796 79.1858 2.57644C77.4072 1.04493 75.1858 0.146021 72.8592 0.0163122C70.5325 -0.113396 68.2279 0.533186 66.2954 1.85781C64.363 3.18243 62.9083 5.11268 62.1526 7.35524C61.1714 6.64229 59.9747 6.30406 58.7727 6.40001C57.6696 6.52515 56.6412 7.02832 55.8563 7.82683C55.0715 8.62535 54.577 9.67173 54.454 10.794C54.3914 11.3685 54.4232 11.9496 54.5478 12.5134C52.763 12.5636 51.0679 13.3204 49.823 14.6226C48.5781 15.9249 47.8817 17.6699 47.882 19.4866C47.8666 19.8395 47.8981 20.193 47.9759 20.5373C47.9802 20.6119 48.0112 20.6823 48.0631 20.7351C48.1151 20.7879 48.1842 20.8195 48.2575 20.8239H78.3948C78.5826 20.8239 78.7703 20.7284 78.7703 20.5373L79.052 19.4866Z" fill="#F48120"/>
<path d="M84.2154 8.78809H83.746C83.6521 8.78809 83.5582 8.88361 83.4643 8.97913L82.8071 11.2717C82.6561 11.6785 82.6028 12.1162 82.6518 12.5482C82.7008 12.9803 82.8507 13.3941 83.0888 13.7552C83.3334 14.0536 83.6335 14.3 83.9718 14.4803C84.3101 14.6606 84.68 14.7713 85.0604 14.806L88.5342 14.997C88.6281 14.997 88.7219 15.0926 88.8158 15.0926C88.8377 15.1092 88.8554 15.1309 88.8677 15.1557C88.8799 15.1806 88.8862 15.208 88.8862 15.2358C88.8862 15.2637 88.8799 15.2911 88.8677 15.3159C88.8554 15.3408 88.8377 15.3624 88.8158 15.3791C88.7219 15.5702 88.6281 15.6657 88.4403 15.6657L84.8726 15.8567C83.8296 15.9745 82.8362 16.3729 81.9946 17.0108C81.1531 17.6488 80.4937 18.5034 80.0845 19.4866L79.8967 20.3463C79.8028 20.4418 79.8967 20.6329 80.0845 20.6329H92.4774C92.5156 20.6384 92.5546 20.6348 92.5913 20.6224C92.628 20.61 92.6613 20.589 92.6886 20.5612C92.7159 20.5334 92.7365 20.4995 92.7487 20.4622C92.761 20.4249 92.7645 20.3852 92.759 20.3463C92.9825 19.537 93.1086 18.703 93.1346 17.8627C93.1197 15.4606 92.1752 13.1613 90.5058 11.4627C88.8363 9.76416 86.5763 8.80323 84.2154 8.78809Z" fill="#FAAD3F"/>
<path d="M94.3551 25.9823C94.188 25.9823 94.0246 25.9318 93.8856 25.8374C93.7467 25.7429 93.6384 25.6086 93.5744 25.4516C93.5105 25.2945 93.4937 25.1216 93.5263 24.9548C93.559 24.7881 93.6394 24.6349 93.7576 24.5147C93.8758 24.3944 94.0263 24.3125 94.1902 24.2794C94.3541 24.2462 94.524 24.2632 94.6784 24.3283C94.8328 24.3934 94.9648 24.5036 95.0576 24.6449C95.1505 24.7863 95.2001 24.9525 95.2001 25.1226C95.2005 25.2356 95.179 25.3476 95.1367 25.4521C95.0944 25.5566 95.0322 25.6516 94.9536 25.7315C94.875 25.8114 94.7817 25.8747 94.679 25.9178C94.5763 25.9608 94.4662 25.9827 94.3551 25.9823ZM94.3551 24.4539C94.2251 24.4539 94.098 24.4931 93.99 24.5666C93.8819 24.6401 93.7977 24.7445 93.7479 24.8667C93.6982 24.9889 93.6852 25.1233 93.7105 25.253C93.7359 25.3827 93.7985 25.5019 93.8904 25.5954C93.9823 25.6889 94.0994 25.7526 94.2269 25.7784C94.3543 25.8042 94.4865 25.7909 94.6066 25.7403C94.7267 25.6897 94.8293 25.604 94.9015 25.494C94.9737 25.3841 95.0123 25.2548 95.0123 25.1226C95.0144 25.0342 94.9988 24.9462 94.9666 24.8641C94.9343 24.782 94.886 24.7075 94.8245 24.6449C94.7631 24.5824 94.6898 24.5333 94.6091 24.5004C94.5284 24.4676 94.442 24.4517 94.3551 24.4539ZM94.7306 25.6002H94.5428L94.3551 25.3136H94.1673V25.6002H93.9795V24.7405H94.449C94.4872 24.7349 94.5262 24.7385 94.5629 24.7509C94.5996 24.7634 94.6329 24.7843 94.6602 24.8121C94.6875 24.8399 94.7081 24.8738 94.7203 24.9111C94.7326 24.9484 94.7361 24.9881 94.7306 25.027C94.7306 25.1226 94.6367 25.2181 94.5428 25.3136L94.7306 25.6002ZM94.449 25.1226C94.5428 25.1226 94.5428 25.1226 94.5428 25.027C94.5431 25.0144 94.5409 25.0019 94.5362 24.9902C94.5316 24.9785 94.5247 24.9678 94.5159 24.9589C94.5072 24.95 94.4967 24.9429 94.4852 24.9382C94.4737 24.9335 94.4614 24.9312 94.449 24.9315H94.1673V25.2181H94.449V25.1226ZM10.2336 24.2629H12.2991V29.9942H15.8667V31.8091H10.2336V24.2629ZM18.0261 27.9882C18.0261 27.4576 18.132 26.9326 18.3373 26.4448C18.5426 25.9571 18.8431 25.5168 19.2205 25.1506C19.598 24.7845 20.0445 24.5001 20.5331 24.3146C21.0217 24.1292 21.5423 24.0466 22.0632 24.0718C22.5792 24.0482 23.0946 24.1326 23.5773 24.3198C24.06 24.507 24.4998 24.793 24.8694 25.1601C25.2391 25.5273 25.5307 25.9677 25.7263 26.4542C25.9218 26.9406 26.0172 27.4628 26.0064 27.9882C26.0063 28.5188 25.9005 29.0439 25.6952 29.5316C25.4898 30.0194 25.1894 30.4597 24.8119 30.8258C24.4345 31.192 23.988 31.4764 23.4993 31.6618C23.0107 31.8473 22.4902 31.9299 21.9693 31.9047C21.4552 31.9202 20.9434 31.8302 20.4642 31.6401C19.9851 31.45 19.5485 31.1637 19.1805 30.7982C18.8125 30.4327 18.5206 29.9955 18.3223 29.5127C18.1239 29.0299 18.0232 28.5115 18.0261 27.9882ZM23.9409 27.9882C23.9593 27.7234 23.9247 27.4576 23.8393 27.2067C23.7538 26.9559 23.6193 26.7253 23.4438 26.5289C23.2683 26.3325 23.0554 26.1743 22.8181 26.0639C22.5808 25.9535 22.324 25.8933 22.0632 25.8867C21.5569 25.9119 21.0796 26.1342 20.73 26.5076C20.3804 26.8811 20.1855 27.377 20.1855 27.8927C20.1855 28.4084 20.3804 28.9043 20.73 29.2778C21.0796 29.6512 21.5569 29.8735 22.0632 29.8987C23.1898 30.0897 23.9409 29.1345 23.9409 27.9882ZM28.5413 28.4658V24.2629H30.6068V28.4658C30.6068 29.5166 31.1701 30.0897 32.015 30.0897C32.2124 30.1064 32.4109 30.0775 32.5957 30.0051C32.7805 29.9328 32.9468 29.8189 33.0823 29.6719C33.2177 29.5249 33.3187 29.3487 33.3778 29.1564C33.4369 28.9641 33.4524 28.7607 33.4233 28.5614V24.2629H35.4888V28.4658C35.4888 30.9494 34.0805 32.0002 32.015 32.0002C29.8557 31.9046 28.5413 30.8539 28.5413 28.4658ZM38.587 24.2629H41.4975C44.1263 24.2629 45.7223 25.7912 45.7223 27.9882C45.7223 30.1852 44.1263 31.8091 41.4975 31.8091H38.6809V24.2629H38.587ZM41.4975 29.8987C41.7591 29.9241 42.0231 29.8936 42.2724 29.8091C42.5218 29.7247 42.7511 29.5881 42.9455 29.4083C43.14 29.2284 43.2954 29.0092 43.4017 28.7646C43.508 28.5201 43.563 28.2556 43.563 27.9882C43.563 27.7208 43.508 27.4564 43.4017 27.2118C43.2954 26.9673 43.14 26.7481 42.9455 26.5682C42.7511 26.3883 42.5218 26.2518 42.2724 26.1673C42.0231 26.0829 41.7591 26.0524 41.4975 26.0778H40.6525V29.8987H41.4975ZM48.6328 24.2629H54.5476V26.0778H50.6983V27.3196H54.1721V29.039H50.6983V31.8091H48.6328V24.2629ZM57.458 24.2629H59.5235V29.9942H63.0912V31.8091H57.458V24.2629ZM68.4427 24.1673H70.5081L73.7002 31.8091H71.447L70.8837 30.4718H67.9732L67.4099 31.8091H65.2505L68.4427 24.1673ZM70.3204 28.8479L69.4754 26.7464L68.6304 28.8479H70.3204ZM76.329 24.2629H79.8028C80.246 24.2263 80.6919 24.2838 81.1121 24.4318C81.5323 24.5798 81.9177 24.815 82.2438 25.1226C82.5128 25.4176 82.708 25.7743 82.8129 26.1624C82.9178 26.5504 82.9293 26.9585 82.8464 27.352C82.7635 27.7455 82.5887 28.113 82.3367 28.4232C82.0848 28.7335 81.7631 28.9775 81.3989 29.1345L83.1827 31.8091H80.8356L79.3334 29.5166H78.3945V31.8091H76.329V24.2629ZM79.7089 27.8927C80.3661 27.8927 80.8356 27.5106 80.8356 27.033C80.8356 26.4599 80.3661 26.1733 79.7089 26.1733H78.3945V27.9882H79.7089V27.8927ZM85.8115 24.2629H91.8202V25.9823H87.877V27.1285H91.4446V28.8479H87.877V29.9942H91.9141V31.8091H85.8115V24.2629ZM5.72708 28.9435C5.58548 29.281 5.3502 29.5693 5.05004 29.7729C4.74988 29.9765 4.39787 30.0866 4.03714 30.0897C3.53088 30.0646 3.05353 29.8423 2.70397 29.4688C2.35441 29.0954 2.15943 28.5995 2.15943 28.0838C2.15943 27.5681 2.35441 27.0721 2.70397 26.6987C3.05353 26.3252 3.53088 26.1029 4.03714 26.0778C4.42109 26.0853 4.79451 26.2068 5.11145 26.4275C5.42838 26.6481 5.675 26.9582 5.82097 27.3196H7.98034C7.79562 26.4046 7.29811 25.5858 6.57618 25.0087C5.85426 24.4315 4.95465 24.1335 4.03714 24.1673C3.51816 24.1502 3.00102 24.2383 2.51589 24.4267C2.03076 24.615 1.58736 24.8998 1.21155 25.2644C0.83575 25.6289 0.535075 26.066 0.327071 26.5501C0.119068 27.0341 0.00790198 27.5555 6.04677e-05 28.0838C-0.00282946 28.607 0.0978969 29.1255 0.29623 29.6082C0.494564 30.091 0.786441 30.5282 1.15445 30.8937C1.52245 31.2592 1.95905 31.5456 2.43819 31.7357C2.91733 31.9258 3.4292 32.0157 3.94326 32.0002C4.84029 32.0063 5.71401 31.7096 6.42756 31.1565C7.14111 30.6033 7.65419 29.825 7.88645 28.9435H5.72708Z" fill="#404041"/>
</g>
<defs>
<clipPath id="clip0_3429_6371">
<rect width="95.2" height="32" fill="white"/>
</clipPath>
</defs>
</svg>
