<svg width="245" height="43" viewBox="0 0 245 43" fill="none" xmlns="http://www.w3.org/2000/svg">
<g clip-path="url(#clip0_2936_467)">
<path d="M0 17.307L12.3081 2.8555H22.6987L10.3906 17.307H0ZM7.89256 29.4647L25.8922 8.32579C27.217 6.69677 28.6955 5.19647 30.3077 3.84523C32.197 2.28889 34.4103 1.16536 36.7892 0.555032C39.8804 -0.252264 43.1395 -0.173417 46.1873 0.782401C49.2051 1.72421 51.8387 3.59922 53.7018 6.13232C56.0686 9.45276 57.0638 13.544 56.4834 17.5678C56.216 19.551 55.5538 21.4618 54.535 23.1895C53.5163 24.9172 52.1613 26.4273 50.5488 27.6323C48.704 28.9861 46.5695 29.9013 44.3104 30.3073C43.0333 30.5735 41.7332 30.7168 40.4282 30.7353H35.3511L26.1555 41.5555H15.7986L30.517 24.2485L31.7188 22.8308H38.5581C40.9616 22.8308 43.5002 22.8308 45.5797 21.4933H45.6202C46.5959 20.8255 47.398 19.9383 47.9609 18.9043C48.5237 17.8703 48.8312 16.719 48.8582 15.5446C48.8852 14.3702 48.631 13.2061 48.1162 12.1478C47.6015 11.0895 46.841 10.167 45.897 9.45596L45.7957 9.3824L45.7417 9.34228L45.6674 9.28878C44.4784 8.45977 43.0699 7.99472 41.6165 7.9513H41.5355C40.5967 7.90832 39.6568 8.00525 38.7471 8.23885C37.4749 8.57662 36.2927 9.18606 35.2836 10.0244C34.0555 11.0762 32.9256 12.2356 31.9078 13.4885L18.2292 29.5382L7.89256 29.4647Z" fill="#FF7F2E"/>
<path fill-rule="evenodd" clip-rule="evenodd" d="M142.795 23.2053C140.209 26.1544 135.132 25.4121 131.621 25.4991C129.272 25.4991 125.41 24.5562 125.937 21.5535C125.937 21.3863 126.186 19.8549 126.193 19.7345H130.507C131.777 19.7345 131.419 20.109 131.264 21.2058C131.142 22.4898 132.722 22.9445 133.775 22.9244C134.997 22.9244 136.624 23.0983 137.63 22.2557C137.841 22.1025 138.01 21.9004 138.123 21.6672C138.272 21.4933 138.582 18.8919 138.643 18.6311V18.5977C138.522 16.1768 134.356 17.0261 132.783 16.879C131.498 16.906 130.223 16.643 129.056 16.11C128.043 15.6017 127.03 14.6254 127.159 13.435C127.159 13.3882 127.395 10.8537 127.395 10.8135C127.478 10.4129 127.64 10.0324 127.872 9.69392C128.103 9.3554 128.4 9.06548 128.745 8.84076C131.345 6.72754 135.618 7.21572 138.758 7.17559C140.216 7.12808 141.657 7.48972 142.917 8.21883C143.061 8.31434 143.201 8.41702 143.335 8.52645C143.647 8.77259 143.912 9.07145 144.119 9.40918C144.296 9.69064 144.397 10.0126 144.413 10.3441C144.428 10.6755 144.357 11.0053 144.206 11.3017H139.852C138.933 11.3017 139.176 11.1947 138.724 10.5527C138.46 10.2583 138.13 10.0288 137.761 9.88255C137.392 9.73629 136.994 9.67726 136.597 9.71012C135.369 9.67 133.856 9.71012 133.012 10.7199C132.627 11.0142 132.6 12.0106 132.519 12.452C132.33 13.6958 133.492 14.0636 134.97 14.0369C136.786 14.077 139.561 13.8362 141.263 14.4983L141.465 14.5719C141.465 14.5719 143.254 15.4345 143.747 16.2838C144.422 17.1733 143.477 20.7644 143.437 21.9079C143.342 22.4008 143.121 22.8614 142.795 23.2454V23.2053ZM97.938 16.0097C97.561 16.1514 97.1725 16.261 96.7767 16.3373C94.9133 16.8188 91.9291 15.916 91.1257 18.2299C91.1257 18.5576 90.6666 21.3596 90.7678 21.6271C91.0379 22.6569 92.3072 22.9645 93.2659 22.9645C93.617 22.9645 95.6222 22.9645 95.9665 22.9645C96.4259 22.9175 96.8724 22.7859 97.2831 22.5767C97.5404 22.457 97.7702 22.2863 97.9582 22.0751C98.1376 21.8753 98.2569 21.6298 98.3026 21.3663C98.3498 20.9918 99.0317 15.7622 99.052 15.595C98.7279 15.6418 98.235 15.8692 97.938 15.9695V16.0097ZM105.041 10.7333L103.062 24.9841V25.2048C101.57 25.5518 100.029 25.6445 98.5051 25.479C97.9785 25.4055 97.7422 25.2316 97.9177 24.4358C95.7887 25.3325 93.4725 25.7065 91.1662 25.5258C89.8262 25.5438 88.4993 25.2627 87.284 24.7033C86.2713 24.2084 85.2586 23.2588 85.4071 22.0283C85.4071 22.0283 86.035 18.0159 86.0283 18.0159C86.0508 17.8072 86.0938 17.6011 86.1565 17.4006C86.1927 17.2837 86.2378 17.1697 86.2916 17.0596C86.3481 16.9433 86.4135 16.8315 86.4874 16.7252C86.5438 16.6418 86.6046 16.5614 86.6696 16.4845C86.9887 16.0904 87.3693 15.7495 87.7972 15.4747C88.5687 14.9766 89.4204 14.6125 90.3155 14.398C91.8616 13.9299 95.0888 14.1439 96.716 14.0971C97.5244 14.1166 98.3154 13.8618 98.9575 13.3748C99.1768 13.2106 99.3509 12.9945 99.4638 12.7462C99.5649 12.3725 99.6416 11.9928 99.6934 11.6093C99.7138 11.4197 99.6931 11.2278 99.6325 11.0468C99.572 10.8657 99.473 10.6995 99.3423 10.5594C98.4781 9.56968 96.797 9.8238 95.6222 9.79705C95.1466 9.79452 94.6748 9.88073 94.2314 10.0512C93.0094 10.4457 93.1714 11.4355 91.9494 11.3084H87.5271V11.188C87.544 10.962 87.5825 10.7381 87.6419 10.5193C87.9645 9.71909 88.5527 9.0516 89.3095 8.62676C90.8631 7.69444 92.6515 7.21682 94.4677 7.24915C96.1758 7.30934 100.294 7.04185 101.894 7.5434C102.553 7.70926 103.18 7.9803 103.751 8.34589C104.413 8.73773 104.897 9.36787 105.101 10.1047C105.113 10.3028 105.093 10.5016 105.041 10.6932V10.7333ZM217.575 16.0163C217.194 16.1511 216.804 16.2606 216.407 16.344C214.51 16.8188 211.553 15.9428 210.756 18.2432C210.756 18.5709 210.304 21.373 210.398 21.6338C210.675 22.6703 211.945 22.9712 212.896 22.9712C213.254 22.9712 215.26 22.9712 215.597 22.9712C216.067 22.9298 216.526 22.8004 216.947 22.5901C217.203 22.4667 217.432 22.2965 217.623 22.0885C217.803 21.8873 217.92 21.6388 217.96 21.373C218.014 20.9985 218.689 15.7756 218.716 15.6017C218.359 15.6418 217.866 15.8759 217.575 15.9762V16.0163ZM224.678 10.7333L222.713 24.944V25.1714C221.22 25.5145 219.68 25.6072 218.156 25.4456C217.623 25.372 217.386 25.1981 217.562 24.4023C215.432 25.295 213.116 25.6666 210.81 25.4857C209.469 25.5052 208.14 25.2264 206.921 24.6698C205.909 24.1683 204.896 23.2254 205.051 21.9949L205.672 17.9824C205.699 17.7738 205.744 17.568 205.807 17.3672C205.841 17.2495 205.886 17.1353 205.942 17.0261C206 16.9083 206.065 16.7943 206.138 16.6851L206.321 16.4376C206.646 16.0501 207.026 15.7101 207.448 15.4278C208.223 14.9306 209.077 14.5645 209.973 14.3445C211.519 13.8831 214.746 14.0904 216.374 14.0502C217.181 14.0615 217.969 13.8075 218.615 13.328C218.828 13.1588 218.999 12.9438 219.115 12.6994C219.222 12.325 219.299 11.9425 219.344 11.5558C219.364 11.3657 219.342 11.1736 219.28 10.9925C219.219 10.8113 219.118 10.6454 218.986 10.5059C218.129 9.52288 216.448 9.7703 215.273 9.74355C214.797 9.74218 214.325 9.8307 213.882 10.0044C212.66 10.3922 212.822 11.382 211.593 11.2549H207.178V11.1345C207.198 10.9089 207.236 10.6853 207.293 10.4658C207.613 9.66446 208.202 8.99641 208.96 8.57326C210.513 7.63792 212.302 7.15792 214.119 7.18897C215.82 7.25584 219.945 6.98166 221.545 7.4899C222.205 7.65415 222.832 7.9253 223.402 8.29239C223.956 8.63479 224.392 9.13634 224.651 9.73019C224.693 9.83344 224.722 9.94116 224.739 10.0512C224.755 10.267 224.734 10.484 224.678 10.6932V10.7333ZM76.5761 9.75025C75.0165 9.75025 72.7075 9.59644 72.3294 11.4756L70.9048 21.2325C70.8844 21.3655 70.8844 21.5008 70.9048 21.6338C70.9478 21.8225 71.03 22.0002 71.1462 22.1557C71.2625 22.3111 71.4102 22.4408 71.5799 22.5366C72.1163 22.8368 72.7266 22.9827 73.3421 22.9579C74.5574 22.9579 76.1575 23.1251 77.1635 22.2891C77.374 22.1359 77.5432 21.9338 77.6563 21.7006C77.71 21.5781 77.7507 21.4503 77.7779 21.3195L79.2024 11.5358V11.4622C79.324 10.0512 77.6428 9.71012 76.5761 9.71012V9.75025ZM80.2084 7.26922C81.1155 7.37216 81.9962 7.63726 82.8078 8.05164C83.0761 8.19688 83.3313 8.36468 83.5707 8.5532C83.7769 8.71826 83.9627 8.90682 84.1243 9.11495C84.3454 9.39114 84.5001 9.7136 84.5767 10.0579C84.7927 10.2652 82.9901 21.8879 82.936 22.2624C82.8826 22.4305 82.8148 22.5938 82.7335 22.7506C81.8625 24.2017 80.33 24.817 78.7703 25.2316C76.4343 25.7532 72.5049 25.7933 70.5065 24.4558C70.5065 24.6832 69.6423 30.2739 69.5882 30.6551C69.0993 30.906 68.5612 31.049 68.0112 31.0744C67.4611 31.0998 66.9119 31.007 66.4015 30.8022C64.8487 30.1334 64.5448 28.7224 64.7609 27.0104L67.5425 7.69053V7.46984C68.7511 7.28497 69.9723 7.1933 71.1951 7.19565C72.0796 7.24247 72.9303 7.19566 72.7817 8.35927C75.0435 7.06191 77.7103 7.02178 80.2084 7.22909V7.26922ZM196.139 9.75693C194.58 9.75693 192.277 9.60312 191.892 11.4823L190.468 21.2459C190.451 21.3769 190.451 21.5095 190.468 21.6404C190.512 21.8298 190.594 22.0082 190.71 22.1646C190.826 22.3211 190.974 22.4522 191.143 22.5499C191.681 22.8446 192.291 22.9879 192.905 22.9645C194.12 22.9645 195.727 23.1384 196.727 22.2958C196.937 22.1402 197.107 21.9358 197.219 21.7006C197.277 21.5795 197.318 21.4513 197.341 21.3195L198.766 11.5358V11.4622C198.887 10.0579 197.213 9.71681 196.139 9.71681V9.75693ZM199.771 7.27591C200.68 7.37828 201.561 7.6458 202.371 8.06502C202.639 8.20796 202.894 8.37353 203.134 8.55989C203.342 8.72566 203.528 8.91662 203.687 9.12831C203.907 9.40524 204.062 9.72743 204.14 10.0712C204.356 10.2785 202.553 21.9012 202.499 22.2824C202.449 22.4494 202.381 22.6108 202.297 22.7639C201.426 24.2151 199.9 24.8303 198.333 25.245C196.982 25.5206 195.599 25.6195 194.222 25.5392C192.764 25.5766 191.324 25.2058 190.07 24.4692C190.036 24.6899 189.205 30.2806 189.151 30.6684C188.662 30.9177 188.124 31.0598 187.574 31.0851C187.024 31.1105 186.475 31.0186 185.965 30.8156C184.412 30.1468 184.108 28.7425 184.324 27.0238L187.106 7.71059L187.139 7.4899C188.348 7.30279 189.569 7.20889 190.792 7.20903C191.676 7.25584 192.527 7.20903 192.379 8.37933C194.607 7.0686 197.273 7.03515 199.758 7.23578L199.771 7.27591ZM230.275 25.4389C229.053 25.3229 227.886 24.879 226.899 24.1549C226.691 23.9916 226.505 23.8028 226.346 23.5932C226.124 23.317 225.97 22.9945 225.893 22.6502C225.63 22.7974 227.163 13.1675 227.142 13.007C227.345 11.5826 227.73 8.95444 227.932 7.52334C228.805 7.31639 229.703 7.23753 230.599 7.28928C230.902 7.30288 231.202 7.35687 231.49 7.44978C231.611 7.49069 231.728 7.53985 231.841 7.5969C232.039 7.70499 232.215 7.84774 232.361 8.01821C232.438 8.10506 232.506 8.19913 232.564 8.29908C232.863 8.88845 232.942 9.56354 232.787 10.205C232.375 13.863 231.801 17.5009 231.274 21.1389C231.436 23.4728 235.231 23.1451 236.81 22.6703C237.234 22.5212 237.611 22.2654 237.904 21.928C238.074 21.7173 238.175 21.461 238.195 21.1924C238.816 16.9392 239.579 11.7565 240.186 7.55009C241.059 7.34276 241.957 7.2639 242.853 7.31603C243.141 7.33803 243.424 7.39646 243.697 7.4899C243.817 7.53081 243.935 7.57997 244.048 7.63703C244.246 7.74511 244.422 7.88787 244.568 8.05833C244.643 8.14639 244.711 8.24032 244.771 8.3392C245.058 8.94163 245.132 9.62269 244.98 10.2719L243.359 22.2356C243.183 24.1048 242.704 25.9337 241.942 27.6524C240.942 29.4848 238.822 30.3274 236.864 30.7219C235.366 31.0831 233.273 30.9159 231.733 30.8891C230.923 30.8356 228.898 30.8891 228.121 30.7219C227.925 30.6885 227.743 30.6551 227.581 30.6149C226.724 30.4762 225.955 30.016 225.432 29.3298C224.909 28.6436 224.673 27.7842 224.772 26.9302L229.316 26.9636C230.342 26.9636 229.755 27.2712 230.153 27.853C231.22 28.8428 233.529 28.3613 234.799 28.1339C236.493 27.7862 237.499 25.9806 237.715 24.3087C236.915 24.7298 236.064 25.0488 235.183 25.2583C233.561 25.5268 231.91 25.574 230.275 25.3988V25.4389ZM178.963 7.29597C179.356 7.34207 179.744 7.41808 180.125 7.52334C180.537 7.63308 180.939 7.77853 181.326 7.95802C181.53 8.05264 181.726 8.16218 181.914 8.2857C182.059 8.38009 182.199 8.48281 182.332 8.59333L182.427 8.67357C182.589 8.83473 182.742 9.00439 182.886 9.18181C182.967 9.28212 183.034 9.39581 183.102 9.49612C183.162 9.59905 183.214 9.70636 183.257 9.81711C183.298 9.92349 183.33 10.0331 183.352 10.1448C183.376 10.2548 183.389 10.3667 183.392 10.4792C182.751 15.5415 181.92 20.5838 181.218 25.6328C181.049 25.6863 180.86 25.7465 180.712 25.78C180.129 25.9255 179.524 25.9551 178.929 25.8669C178.701 25.8296 178.476 25.7783 178.254 25.7131C177.932 25.6024 177.631 25.4397 177.363 25.2316C177.158 25.0688 176.979 24.8773 176.83 24.6632C176.753 24.5552 176.685 24.4411 176.627 24.3221C176.385 23.7782 176.314 23.1744 176.425 22.5901C176.947 18.9521 177.473 15.3142 178.005 11.6762C178.001 11.663 178.001 11.6493 178.005 11.6361C178.018 11.5116 178.018 11.3861 178.005 11.2616C177.946 11.0117 177.823 10.7812 177.647 10.5929C177.457 10.3851 177.228 10.2169 176.972 10.098C176.825 10.0263 176.671 9.97028 176.512 9.93081C175.879 9.79702 175.226 9.7834 174.588 9.89068C174.273 9.95054 173.966 10.0424 173.67 10.1649C173.29 10.3219 172.961 10.5786 172.718 10.9072C171.651 15.682 171.314 20.6975 170.51 25.5593H165.237C165.913 20.9316 166.547 16.3106 167.222 11.6896C167.239 11.5631 167.239 11.4349 167.222 11.3084C167.201 11.1835 167.162 11.062 167.108 10.9473C166.985 10.7081 166.804 10.5034 166.581 10.3521C166.468 10.2677 166.345 10.1959 166.216 10.1381C165.779 9.94406 165.304 9.84814 164.826 9.85725C164.317 9.79635 163.8 9.84879 163.314 10.0108C162.828 10.1727 162.385 10.4402 162.017 10.7935C160.835 15.5415 160.667 20.6306 159.802 25.5058H154.361C155.234 19.5005 156.103 13.4974 156.967 7.4966C158.346 7.32949 159.739 7.28919 161.126 7.37622C161.754 7.4364 162.253 7.63033 162.422 8.29239C162.859 8.06775 163.31 7.87118 163.772 7.7039C164.099 7.59005 164.433 7.49625 164.771 7.42303C165.981 7.16158 167.228 7.12303 168.451 7.30934C168.674 7.34278 168.903 7.3896 169.126 7.44309C169.349 7.49659 169.565 7.57015 169.768 7.64371C169.97 7.71727 170.173 7.79752 170.355 7.87777C170.978 8.16132 171.543 8.55572 172.023 9.04138C173.046 8.23703 174.247 7.68263 175.527 7.42303C176.248 7.26931 176.983 7.19307 177.721 7.19565C178.143 7.18791 178.564 7.20802 178.984 7.25585L178.963 7.29597ZM149.128 7.29597C149.796 7.1731 150.476 7.1349 151.154 7.18229C151.441 7.20784 151.724 7.26618 151.998 7.35616C152.119 7.3963 152.237 7.4478 152.349 7.50996C152.547 7.61354 152.724 7.75436 152.869 7.92459C152.944 8.01264 153.011 8.10657 153.071 8.20546C153.131 8.31076 153.183 8.42028 153.226 8.53313C153.733 9.81043 152.423 15.7622 152.355 17.1933L151.235 25.2516L151.194 25.5058H145.887L145.935 25.1714L147.231 16.1367L148.46 7.62365V7.41634L149.128 7.29597ZM122.797 23.2454C120.205 26.2013 115.134 25.4523 111.617 25.5392C109.274 25.5392 105.405 24.603 105.939 21.5936C105.939 21.4264 106.182 19.895 106.188 19.7747H110.503C111.772 19.7747 111.414 20.1492 111.266 21.2392C111.137 22.5299 112.724 22.9846 113.777 22.9645C114.992 22.9645 116.619 23.1384 117.632 22.2958C117.839 22.1388 118.007 21.9377 118.125 21.7073C118.274 21.5335 118.584 18.932 118.645 18.6712V18.6378C118.496 16.2036 114.371 17.073 112.778 16.9191C111.493 16.9461 110.218 16.6831 109.051 16.1501C108.038 15.6352 107.026 14.6588 107.161 13.4751C107.161 13.4283 107.39 10.9005 107.39 10.8537C107.473 10.453 107.635 10.0726 107.867 9.73404C108.099 9.39552 108.395 9.1056 108.74 8.88088C110.37 7.75199 112.322 7.16855 114.31 7.21572C116.829 7.30934 120.724 6.76098 122.912 8.26564C123.06 8.35927 123.209 8.46626 123.337 8.56657C123.648 8.81415 123.911 9.11549 124.114 9.456C124.29 9.73632 124.392 10.0567 124.408 10.3868C124.425 10.7168 124.356 11.0456 124.208 11.3419H119.853C118.935 11.3419 119.145 11.2348 118.726 10.5929C118.46 10.2987 118.129 10.0695 117.759 9.92332C117.389 9.77712 116.99 9.71789 116.592 9.75025C115.37 9.71012 113.851 9.75024 113.014 10.76C112.629 11.061 112.602 12.0507 112.521 12.4921C112.332 13.7359 113.494 14.1037 114.972 14.077C116.788 14.1171 119.563 13.8764 121.271 14.5384L121.467 14.612C122.402 14.9206 123.205 15.5303 123.749 16.344C124.424 17.2334 123.472 20.8179 123.432 21.9614C123.323 22.4195 123.103 22.8443 122.79 23.1986L122.797 23.2454Z" fill="#000099"/>
<path fill-rule="evenodd" clip-rule="evenodd" d="M154.003 4.69454H148.737L149.263 1.02985H154.516L154.003 4.69454Z" fill="#FF7F2E"/>
<path d="M71.4788 34.8681V41.5555H70.2365V35.8913H66.6852V41.5555H65.4429V34.8681H71.4788Z" fill="#3399FF"/>
<path d="M79.0876 34.8681V41.5555H77.8453V35.8913H75.1447L75.0907 37.5698C75.0778 38.3397 74.9987 39.107 74.8544 39.8636C74.7773 40.3518 74.5751 40.8123 74.267 41.2011C74.1241 41.3539 73.949 41.4739 73.7542 41.5525C73.5594 41.631 73.3496 41.6663 73.1395 41.6558C72.9115 41.6461 72.6852 41.6124 72.4644 41.5555L72.5521 40.4721C72.6463 40.5 72.7442 40.5135 72.8424 40.5123C73.0374 40.5097 73.2259 40.4424 73.3777 40.3212C73.5295 40.1999 73.6358 40.0317 73.6796 39.8435C73.885 39.1301 73.9895 38.3919 73.9902 37.6501L74.0847 34.8614L79.0876 34.8681Z" fill="#3399FF"/>
<path d="M85.4949 40.0174H82.1192L81.444 41.5689H80.1477L83.1859 34.8681H84.4282L87.4934 41.5555H86.1431L85.4949 40.0174ZM85.0763 39.0343L83.8003 36.0986L82.5243 39.0343H85.0763Z" fill="#3399FF"/>
<path d="M93.1172 35.9047H90.869V41.5555H89.6132V35.8913H87.3784V34.8681H93.1172V35.9047Z" fill="#3399FF"/>
<path d="M94.2112 34.8681H95.4535V39.6429L99.0993 34.8681H100.274V41.5555H99.0318V36.8074L95.3859 41.5689H94.2112V34.8681Z" fill="#3399FF"/>
<path d="M107.35 38.7401H106.087V41.5555H104.845V34.8681H106.087V37.6835H107.39L109.334 34.8681H110.685L108.362 38.1249L110.766 41.5889H109.341L107.35 38.7401Z" fill="#3399FF"/>
<path d="M117.531 34.8681L114.581 40.2983C114.365 40.726 114.047 41.0954 113.656 41.3749C113.313 41.6117 112.905 41.7378 112.488 41.7361C112.143 41.7333 111.803 41.6605 111.488 41.5221L111.799 40.5457C112.017 40.6201 112.244 40.6628 112.474 40.6728C112.683 40.6675 112.887 40.6064 113.064 40.4957C113.242 40.3851 113.385 40.229 113.48 40.0442L113.588 39.8837L110.887 34.8681H112.238L114.263 38.8137L116.329 34.8681H117.531Z" fill="#3399FF"/>
<path d="M125.032 40.5123V43H123.871V41.5555H118.665V42.9866H117.49V40.4989H117.781C118.206 40.4989 118.503 40.1712 118.672 39.5627C118.877 38.7126 118.984 37.842 118.989 36.9679L119.07 34.8347H124.039V40.4989L125.032 40.5123ZM119.894 39.2751C119.84 39.7272 119.66 40.1554 119.374 40.5123H122.79V35.9046H120.157L120.11 37.095C120.093 37.826 120.021 38.5547 119.894 39.2751Z" fill="#3399FF"/>
<path d="M130.764 40.0174H127.388L126.713 41.5689H125.417L128.455 34.8681H129.697L132.762 41.5555H131.446L130.764 40.0174ZM130.345 39.0343L129.069 36.0986L127.8 39.0343H130.345Z" fill="#3399FF"/>
<path d="M137.259 34.8681L138.859 37.1151L140.459 34.8681H141.938L139.669 38.078L142.134 41.5689H140.641L138.873 39.1213L137.104 41.5555H135.652L138.103 38.1115L135.807 34.8347L137.259 34.8681Z" fill="#3399FF"/>
<path d="M144.213 41.2211C143.669 40.9365 143.216 40.5083 142.903 39.984C142.594 39.4436 142.431 38.833 142.431 38.2118C142.431 37.5906 142.594 36.98 142.903 36.4397C143.216 35.9153 143.669 35.4871 144.213 35.2025C144.791 34.908 145.433 34.7543 146.083 34.7543C146.734 34.7543 147.375 34.908 147.953 35.2025C148.496 35.4847 148.95 35.9107 149.263 36.433C149.577 36.973 149.742 37.5853 149.742 38.2085C149.742 38.8317 149.577 39.4439 149.263 39.984C148.952 40.5096 148.498 40.9382 147.953 41.2211C147.375 41.5157 146.734 41.6693 146.083 41.6693C145.433 41.6693 144.791 41.5157 144.213 41.2211ZM147.305 40.2715C147.666 40.0744 147.964 39.7799 148.163 39.4222C148.361 39.0496 148.458 38.6327 148.446 38.2118C148.45 37.7864 148.343 37.3672 148.136 36.9947C147.934 36.6403 147.637 36.3486 147.278 36.1521C146.902 35.9547 146.482 35.8516 146.056 35.8516C145.63 35.8516 145.211 35.9547 144.834 36.1521C144.477 36.349 144.182 36.6408 143.983 36.9947C143.789 37.3704 143.698 37.7902 143.72 38.2118C143.713 38.6355 143.82 39.0533 144.031 39.4222C144.227 39.7795 144.522 40.074 144.881 40.2715C145.258 40.4689 145.677 40.572 146.103 40.572C146.529 40.572 146.949 40.4689 147.325 40.2715H147.305Z" fill="#3399FF"/>
<path d="M156.285 34.8681V41.5555H155.036V39.021C154.455 39.248 153.837 39.3681 153.213 39.3754C152.484 39.4297 151.76 39.2101 151.187 38.7602C150.951 38.5284 150.769 38.2489 150.652 37.9406C150.536 37.6324 150.488 37.3029 150.512 36.9746V34.8681H151.761V36.8743C151.749 37.0751 151.779 37.2762 151.852 37.4642C151.924 37.6522 152.036 37.8227 152.18 37.9644C152.517 38.2329 152.943 38.3665 153.375 38.3389C153.951 38.3412 154.52 38.2179 155.042 37.9777V34.8681H156.285Z" fill="#3399FF"/>
<path d="M163.3 40.5256V41.5555H158.209V34.8681H163.165V35.918H159.472V37.6634H162.753V38.6933H159.472V40.5457L163.3 40.5256Z" fill="#3399FF"/>
<path d="M173.427 34.8681V41.5555H164.691V34.8681H165.933V40.5323H168.431V34.8681H169.673V40.5323H172.165V34.8681H173.427Z" fill="#3399FF"/>
<path d="M180.327 37.6701C180.554 37.8703 180.732 38.1186 180.849 38.3964C180.966 38.6742 181.018 38.9745 181.002 39.2751C181.022 39.5952 180.967 39.9154 180.841 40.211C180.716 40.5067 180.524 40.7699 180.28 40.9804C179.697 41.4095 178.979 41.6182 178.254 41.5689H175.331V34.8681H176.573V37.1485H178.457C179.123 37.1005 179.784 37.2851 180.327 37.6701ZM179.321 40.2782C179.457 40.1538 179.563 40.001 179.632 39.831C179.701 39.661 179.731 39.478 179.719 39.2952C179.719 38.4793 179.206 38.0781 178.187 38.0781H176.566V40.6126H178.187C178.593 40.6385 178.995 40.52 179.321 40.2782Z" fill="#3399FF"/>
</g>
<defs>
<clipPath id="clip0_2936_467">
<rect width="245" height="43" fill="white"/>
</clipPath>
</defs>
</svg>
