<svg width="533" height="433" viewBox="0 0 533 433" fill="none" xmlns="http://www.w3.org/2000/svg">
<path d="M529.485 202.337C529.485 308.272 505.344 416.931 329.282 418.063C188.595 418.964 31.6767 312.463 37.0873 215.878C43.004 110.114 139.749 44.5067 315.752 39.8679C418.559 37.157 529.485 96.4083 529.485 202.337Z" fill="#D4E6FF"/>
<path opacity="0.43" d="M467.341 84.7355L429.539 117.575L374.974 56.8042L330.533 121.708L296.663 95.329L202.652 205.041L146.351 149.066L40.2969 245.553C63.4576 333.025 202.915 418.872 329.283 418.062C505.346 416.931 529.486 308.265 529.486 202.337C529.486 152.087 504.524 112.344 467.341 84.7355Z" fill="url(#paint0_linear_1556_5574)"/>
<path fill-rule="evenodd" clip-rule="evenodd" d="M315.752 39.8679C171.2 43.6776 80.1216 88.6178 48.9141 163.154C58.9857 178.288 82.1004 203.357 121.591 195.671C177.156 184.854 123.905 124.221 177.925 121.708C231.945 119.194 251.648 171.589 334.798 100.593C359.253 79.7153 360.818 59.4297 349.734 41.197C338.447 40.0194 327.096 39.5754 315.752 39.8679Z" fill="url(#paint1_linear_1556_5574)"/>
<path d="M163.502 76.5176V188.644H457.202" stroke="white" stroke-width="0.714103" stroke-miterlimit="10"/>
<path d="M224.354 188.643L220.635 184.92L216.916 188.643L220.635 192.365L224.354 188.643Z" fill="white"/>
<path d="M488.046 102.725L456.326 137.716L378.58 11.3577L272.855 145.691L225.777 78.4257L196.45 121.668L136.75 39.7825" stroke="white" stroke-width="0.714103" stroke-miterlimit="10"/>
<path d="M395.544 129.544H489.844C489.844 129.544 510.678 126.991 515.825 138.934C520.973 150.876 531.222 293.796 476.321 349.014C421.42 404.232 362.154 352.212 362.154 352.212L395.544 129.544Z" fill="#8FBAFF"/>
<path d="M370.483 129.544H464.789C464.789 129.544 485.623 126.991 490.77 138.934C495.918 150.876 506.167 293.796 451.26 349.014C396.352 404.232 337.1 352.218 337.1 352.218L370.483 129.544Z" fill="#A6C4FF"/>
<path d="M388.813 141.526L435.489 164.496L465.224 339.519H257.823L247.58 226.044C247.58 226.044 259.703 159.877 261.721 156.956C263.739 154.034 278.091 146.862 284.888 145.974C291.686 145.086 313.539 139.039 315.202 138.894C316.865 138.749 388.813 141.526 388.813 141.526Z" fill="#197CE1"/>
<path d="M407.418 129.307H469.708C469.708 129.307 491.087 124.458 492.935 150.205C494.782 175.952 507.043 268.049 458.972 337.763" stroke="#113291" stroke-width="0.714103" stroke-linecap="round" stroke-linejoin="round"/>
<path d="M431.84 129.307H494.123C494.123 129.307 515.509 124.458 517.356 150.205C519.204 175.952 531.465 268.049 483.394 337.763" stroke="#113291" stroke-width="0.714103" stroke-linecap="round" stroke-linejoin="round"/>
<path d="M494.604 176.616H438.783" stroke="#6D8ED5" stroke-width="0.714103" stroke-miterlimit="10"/>
<path fill-rule="evenodd" clip-rule="evenodd" d="M418.652 160.982C418.652 160.982 425.949 158.35 431.077 167.49C436.205 176.629 433.2 190.236 439.84 198.632C446.48 207.028 447.847 205.587 450.622 222.977C453.396 240.368 458.675 264.351 458.675 264.351C458.675 264.351 463.836 265.944 467.221 268.372C470.607 270.8 469.91 274.293 469.529 277.142C469.148 279.992 468.516 283.578 468.516 283.578C468.516 283.578 474.972 282.104 477.72 286.433C480.468 290.763 482.822 301.883 482.835 306.778C482.848 311.673 484.393 335.65 483.716 337.907H441.339C441.339 337.907 422.524 323.096 418.652 317.233C414.779 311.371 404.05 222.484 408.942 202.896C413.833 183.308 416.548 161.325 418.652 160.982Z" fill="#197CE1"/>
<path d="M326.975 179.755C326.824 179.275 350.373 162.595 359.787 161.989C369.201 161.384 379.726 162.068 379.444 160.292C379.161 158.515 375.815 148.152 373.238 146.711C370.661 145.27 348.085 153.949 341.951 159.621C335.818 165.292 326.975 179.755 326.975 179.755Z" fill="#1A4EC6"/>
<path d="M289.476 85.8606C289.444 86.966 269.82 100.514 268.084 119.602C266.349 138.69 303.506 156.199 326.219 149.869C348.933 143.539 319.711 93.6379 319.711 93.6379L289.476 85.8606Z" fill="#16214F"/>
<path fill-rule="evenodd" clip-rule="evenodd" d="M342.913 88.0054C342.913 88.0054 358.29 115.094 365.219 123.326C372.148 131.557 372.852 122.411 381.451 142.085C383.252 146.204 359.25 152.29 329.62 172.352C323.631 176.405 321.889 177.8 318.444 164.029C314.454 148.171 315.736 140.835 316.886 138.808C318.037 136.782 325.262 133.9 325.262 133.9L311.646 108.758L342.913 88.0054Z" fill="#EBEBEB"/>
<path d="M348.393 329.61H187.044L137.08 222.359C136.805 221.702 136.696 220.987 136.764 220.278C136.831 219.568 137.073 218.887 137.467 218.293C137.861 217.7 138.396 217.214 139.024 216.877C139.651 216.541 140.352 216.365 141.064 216.365H293.256C295.553 216.364 297.799 217.044 299.711 218.317C301.624 219.591 303.117 221.403 304.004 223.524L348.393 329.61Z" fill="#1871C9"/>
<path d="M127.186 168.477C145.721 168.477 160.747 153.438 160.747 134.887C160.747 116.336 145.721 101.297 127.186 101.297C108.651 101.297 93.625 116.336 93.625 134.887C93.625 153.438 108.651 168.477 127.186 168.477Z" stroke="url(#paint2_linear_1556_5574)" stroke-width="1.42821" stroke-miterlimit="10"/>
<path d="M207.673 81.0642L204.748 84.4067L202.835 81.1761L199.699 84.5976L197.871 81.255L194.591 84.8279L192.75 81.4787L189.621 84.8871L187.898 81.7551" stroke="white" stroke-width="0.714103" stroke-miterlimit="10"/>
<path d="M202.835 88.8284L199.699 92.2433L197.871 88.9073L194.591 92.4736L192.75 89.1245L189.621 92.5328L187.898 89.4008" stroke="white" stroke-width="0.714103" stroke-miterlimit="10"/>
<path opacity="0.43" d="M220.632 184.479C237.207 184.479 250.643 171.031 250.643 154.442C250.643 137.853 237.207 124.405 220.632 124.405C204.057 124.405 190.621 137.853 190.621 154.442C190.621 171.031 204.057 184.479 220.632 184.479Z" fill="url(#paint3_linear_1556_5574)"/>
<path opacity="0.47" d="M220.632 184.479C237.207 184.479 250.643 171.031 250.643 154.442C250.643 137.853 237.207 124.405 220.632 124.405C204.057 124.405 190.621 137.853 190.621 154.442C190.621 171.031 204.057 184.479 220.632 184.479Z" stroke="url(#paint4_linear_1556_5574)" stroke-width="2.85641" stroke-miterlimit="10"/>
<path d="M200.074 125.433L196.355 121.711L192.637 125.433L196.355 129.155L200.074 125.433Z" stroke="white" stroke-width="0.714103" stroke-miterlimit="10"/>
<path d="M307.913 122.892C307.913 122.892 303.009 129.682 301.852 133.584C300.695 137.486 298.098 155.541 295.79 157.712C293.483 159.884 279.769 170.28 279.769 171.576C279.769 172.872 273.044 216.319 273.044 216.319H246.846C246.846 216.319 260.428 184.841 262.374 175.958C264.32 167.075 268.435 162.621 268.435 161.706C268.435 160.792 269.52 124.603 271.9 123.543C274.28 122.484 292.937 117.983 294.199 117.115C295.462 116.246 297.072 119.016 297.072 119.714C297.072 120.411 298.387 128.524 297.94 129.972C297.94 129.972 299.459 123.392 302.779 120.8C306.099 118.207 307.913 122.892 307.913 122.892Z" fill="white"/>
<path fill-rule="evenodd" clip-rule="evenodd" d="M321.392 16.6147C321.392 16.6147 336.98 15.0948 348.241 23.7604C359.503 32.426 359.522 83.0445 345.717 100.593C341.49 105.949 329.229 115.891 324.647 118.358C314.194 123.905 303.557 121.563 296.115 109.87C290.067 100.376 286.549 87.1569 287.062 72.7537C287.141 70.6679 284.538 67.8057 284.334 65.891C282.966 53.4288 276.563 19.2137 321.392 16.6147Z" fill="white"/>
<path d="M424.384 329.61H181.305V337.763H424.384V329.61Z" fill="#1871C9"/>
<path d="M283.377 124.629C283.377 124.629 299.254 129.682 299.812 131.13C300.371 132.578 297.932 137.631 297.354 137.92" stroke="#16214F" stroke-width="0.714103" stroke-miterlimit="10"/>
<path d="M276.445 129.544C277.307 130.123 297.226 136.335 296.654 138.756C296.082 141.177 290.738 145.994 290.738 145.994" stroke="#16214F" stroke-width="0.714103" stroke-miterlimit="10"/>
<path d="M280.054 138.927C280.626 139.506 292.466 147.744 293.472 148.316C294.478 148.889 292.986 153.811 291.645 153.955C290.304 154.1 282.796 153.955 282.796 153.955L281.06 149.619C281.06 149.619 282.796 164.095 282.507 164.786C282.217 165.477 278.319 168.977 277.596 170.852" stroke="#16214F" stroke-width="0.714103" stroke-linecap="round" stroke-linejoin="round"/>
<path d="M325.233 133.874C325.233 133.874 319.598 138.348 319.027 138.927C318.455 139.506 324.075 205.021 324.075 205.021C324.075 205.021 317.58 187.256 316.068 186.17C314.556 185.085 286.274 183.571 286.557 182.92C286.839 182.268 310.631 145.645 311.617 143.263C312.604 140.881 310.723 137.486 313.754 135.604C316.785 133.723 323.28 129.972 323.497 130.189C323.714 130.406 325.233 133.874 325.233 133.874Z" fill="#197CE1"/>
<path d="M348.392 106.758C348.392 106.758 356.59 109.693 357.451 110.956C358.313 112.22 362.198 123.557 363 128.584C363.802 133.611 365.663 134.301 366.945 135.973C368.227 137.644 379.56 151.179 379.869 153.08C380.178 154.982 378.864 156.423 378.114 156.541C377.365 156.66 362.671 157.068 353.849 160.417C345.026 163.766 320.597 183.88 316.922 190.171C316.922 190.171 338.347 158.535 344.178 149.264C350.01 139.993 360.088 120.688 359.713 120.161C359.338 119.635 350.121 108.239 348.392 106.758Z" fill="#197CE1"/>
<path d="M324.411 0.625804C319.455 0.40209 294.861 0.112579 288.911 19.1809C282.961 38.2492 317.515 51.8365 334.338 53.7183C340.459 54.3763 341.143 79.7744 341.143 82.2879C341.143 84.8014 339.545 112.831 351.379 138.433C363.212 164.036 418.257 154.225 414.201 111.969C410.145 69.7139 385.775 78.465 385.321 64.0289C384.867 49.5928 374.96 34.65 365.704 30.0113C356.447 25.3725 359.156 2.17206 324.411 0.625804Z" fill="#16214F"/>
<path d="M294.65 35.9002C294.65 35.9002 281.548 43.7631 283.474 58.0018C283.474 58.0018 273.725 54.5342 277.617 35.9002C281.509 17.2661 299.489 16.8187 303.598 20.2928C307.707 23.767 294.65 35.9002 294.65 35.9002Z" fill="#16214F"/>
<path d="M320.467 97.4741C308.883 100.659 309.692 101.422 300.238 99.652" stroke="#9C9C9C" stroke-width="0.714103" stroke-linecap="round"/>
<path d="M322.971 70.9191C323.119 68.6382 321.888 66.7014 320.221 66.5933C318.554 66.4851 317.083 68.2465 316.936 70.5274C316.788 72.8084 318.019 74.7452 319.686 74.8533C321.352 74.9615 322.823 73.2001 322.971 70.9191Z" fill="#0D2265"/>
<path d="M296.011 71.3733C296.028 69.2802 294.752 67.5733 293.162 67.5608C291.571 67.5483 290.269 69.235 290.252 71.3281C290.236 73.4211 291.512 75.1281 293.102 75.1406C294.692 75.1531 295.995 73.4664 296.011 71.3733Z" fill="#0D2265"/>
<path d="M301.527 64.292C298.535 62.726 292.599 61.6206 284.743 67.2726C284.171 66.8026 283.72 66.2025 283.428 65.5224C283.369 63.7787 291.639 58.2846 295.643 58.2451C296.863 58.2758 298.056 58.6153 299.111 59.232C300.165 59.8487 301.046 60.7225 301.671 61.7719C301.54 60.4954 301.408 58.0938 301.941 58.7452C302.605 59.5479 305.261 66.2462 301.527 64.292Z" fill="#0D2265"/>
<path d="M315.834 102.336C315.072 102.534 310.463 105.468 308.077 105.475C306.164 105.475 304.02 103.705 303.186 102.843" stroke="#9C9C9C" stroke-width="0.714103" stroke-linecap="round"/>
<path d="M311.533 95.987C312.296 97.0464 315.517 98.0597 317.029 98.4347C314.156 99.0401 311.309 100.33 308.884 100.547C305.965 100.81 303.624 99.9349 302.428 99.8889C303.434 98.6716 305.55 96.1318 305.912 95.7041C306.274 95.2764 306.898 96.5068 308.035 96.1055C309.173 95.7041 310.56 94.6316 311.533 95.987Z" fill="#9C9C9C"/>
<path d="M305.076 85.6699C308.067 85.262 313.281 87.8873 314.155 88.1308C310.98 88.3216 304.504 88.4927 301.664 88.5585C301.854 87.7775 302.287 87.077 302.9 86.5579C303.513 86.0388 304.275 85.7279 305.076 85.6699Z" fill="#C4C4C4"/>
<path d="M314.426 71.4114C314.939 70.4968 315.326 67.7267 319.494 66.8845C324.701 65.8317 328.633 70.6679 329.546 71.0035C330.46 71.339 333.405 70.5494 334.806 70.4244" stroke="#113291" stroke-width="0.714103" stroke-linecap="round" stroke-linejoin="round"/>
<path d="M301.974 70.8257C300.889 70.7336 295.814 67.3911 292.395 67.5358C289.687 67.6543 289.66 70.8257 287.793 71.6811C287.3 71.8982 287.267 72.0233 286.82 71.964" stroke="#113291" stroke-width="0.714103" stroke-linecap="round" stroke-linejoin="round"/>
<path d="M317.516 63.1669C320.415 61.4365 330.072 62.1339 338.231 67.332C338.682 67.3158 339.12 67.1721 339.493 66.9174C340.368 66.4305 327.042 56.6134 323.058 56.8043C321.842 56.9035 320.671 57.3092 319.653 57.9833C318.636 58.6575 317.806 59.5783 317.24 60.66C317.299 59.3441 317.299 56.9688 316.799 57.6465C316.168 58.4821 313.893 65.3317 317.516 63.1669Z" fill="#0D2265"/>
<path d="M409.646 92.0393C410.007 93.8159 410.303 95.6187 410.513 97.4479C413.084 120.254 404.597 136.552 382.987 140.677C361.378 144.803 352.615 140.677 352.582 140.677C366.526 163.404 418.139 152.949 414.202 111.97C413.386 103.475 411.743 97.04 409.646 92.0393Z" fill="#244FAE"/>
<path d="M425.79 163.226C425.79 163.226 418.354 179.018 416.586 182.584C414.818 186.15 410.341 223.984 407.067 235.301C403.793 246.619 413.016 268.951 411.235 276.695" stroke="#113291" stroke-width="0.714103" stroke-linecap="round" stroke-linejoin="round"/>
<path d="M441.34 204.251C441.34 204.251 438.888 218.997 431.748 229.715C424.609 240.434 407.424 285.782 407.424 288.46C407.424 291.138 421.486 300.521 422.38 302.087" stroke="#113291" stroke-width="0.714103" stroke-linecap="round" stroke-linejoin="round"/>
<path d="M429.512 165.608C429.512 165.608 435.093 170.523 435.987 183.703C436.881 196.882 440.892 200.679 444.691 204.251C448.491 207.824 450.937 224.129 452.054 232.393C453.172 240.658 458.076 263.667 458.97 264.562" stroke="#113291" stroke-width="0.714103" stroke-linecap="round" stroke-linejoin="round"/>
<path d="M447.813 235.078C447.589 235.736 440.003 256.298 444.243 259.423C448.483 262.549 469.461 265.233 469.685 272.155C469.837 276.234 469.308 280.311 468.12 284.216" stroke="#113291" stroke-width="0.714103" stroke-linecap="round" stroke-linejoin="round"/>
<path d="M424.379 309.233C424.379 309.233 419.843 297.843 425.793 294.941C431.742 292.039 465.448 280.42 475.263 284.216C485.078 288.013 484.638 340.954 483.297 341.625" stroke="#113291" stroke-width="0.714103" stroke-linecap="round" stroke-linejoin="round"/>
<path d="M412.119 308.864C412.119 308.864 410.633 299.652 410.035 298.626C409.436 297.599 403.493 304.692 399.03 304.317C394.566 303.942 397.241 299.929 400.219 290.697C403.198 281.466 389.504 288.013 362.293 285.631C335.083 283.249 371.352 283.249 386.23 279.972C401.107 276.695 356.475 269.254 346.956 264.562C337.436 259.871 363.621 261.213 378.794 259.647C393.967 258.081 395.157 242.447 397.537 229.044C399.917 215.641 418.667 163.246 418.667 163.246C418.667 163.246 408.621 219.589 407.845 227.459C407.07 235.328 405.689 247.159 407.701 251.876C409.713 256.594 412.263 273.892 410.436 279.117C408.608 284.341 406.097 287.842 408.233 290.019C410.37 292.197 422.696 301.935 422.841 302.936C422.986 303.936 424.715 309.785 423.715 309.95C422.716 310.114 412.395 311.489 412.395 311.489L412.119 308.864Z" fill="url(#paint5_linear_1556_5574)"/>
<path d="M114.763 322.76H90.925C87.1524 322.757 83.5356 321.255 80.8692 318.583C78.2028 315.912 76.7051 312.291 76.7051 308.515V293.77C76.7155 290.001 78.2179 286.39 80.8831 283.727C83.5483 281.064 87.1592 279.567 90.925 279.564H100.872V288.118H90.925C89.4208 288.119 87.9787 288.718 86.9151 289.783C85.8515 290.847 85.2532 292.291 85.2515 293.796V308.515C85.2532 310.021 85.8515 311.464 86.9151 312.528C87.9787 313.593 89.4208 314.192 90.925 314.194H114.763V322.76Z" fill="#F7B372"/>
<path d="M100.015 284.828H90.7063C89.6321 284.826 88.5681 285.036 87.5751 285.447C86.5822 285.857 85.6798 286.459 84.9196 287.219C84.1594 287.978 83.5563 288.881 83.1448 289.874C82.7333 290.867 82.5215 291.931 82.5215 293.007V310.983C82.5223 312.057 82.7348 313.121 83.1467 314.114C83.5585 315.106 84.1618 316.007 84.9219 316.766C85.682 317.525 86.5841 318.127 87.5766 318.537C88.5691 318.946 89.6326 319.157 90.7063 319.155H100.015" stroke="#ED6921" stroke-width="1.42821" stroke-miterlimit="10"/>
<path d="M149.315 269.99H95.2949V337.763H149.315V269.99Z" fill="#F7B372"/>
<path d="M149.308 269.99H132.426V337.763H149.308V269.99Z" fill="#F77738"/>
<path d="M0.712891 337.762H478.108C478.108 337.762 470.39 351.244 462.553 360.246H0.712891V337.762Z" fill="#E9F3FF"/>
<path d="M342.648 329.61H181.305L131.342 222.359C131.066 221.702 130.958 220.987 131.025 220.278C131.093 219.568 131.335 218.887 131.729 218.293C132.123 217.7 132.658 217.214 133.285 216.877C133.913 216.541 134.614 216.365 135.326 216.365H287.517C289.814 216.365 292.06 217.045 293.972 218.319C295.885 219.592 297.378 221.403 298.266 223.524L342.648 329.61Z" fill="#E9F3FF"/>
<path d="M243.389 278.164C245.114 274.332 242.037 269.206 236.516 266.717C230.995 264.227 225.121 265.316 223.395 269.148C221.67 272.981 224.747 278.106 230.268 280.596C235.789 283.086 241.664 281.997 243.389 278.164Z" fill="#F7B372"/>
<path d="M342.648 329.61H181.305V337.763H342.648V329.61Z" fill="#E9F3FF"/>
<path d="M488.041 360.246H57.8223L62.5622 418.063H321.511C405.779 417.306 457.11 394.645 488.041 360.246Z" fill="#D4E6FF"/>
<path d="M488.05 337.762H291.924V360.246H488.05V337.762Z" fill="#D4E6FF"/>
<path d="M468.74 378.261H59.1702L57.8027 360.239H488.041C488.041 360.239 476.813 372.037 468.74 378.261Z" fill="#BDDBFF"/>
<path d="M291.921 337.762H0.712891V360.246H291.921V337.762Z" stroke="#6D8ED5" stroke-width="0.714103" stroke-miterlimit="10"/>
<path d="M57.8223 360.246L62.2795 419.155" stroke="#6D8ED5" stroke-width="0.714103" stroke-miterlimit="10"/>
<path d="M291.924 337.762H482.114" stroke="#6D8ED5" stroke-width="0.714103" stroke-miterlimit="10"/>
<path d="M488.044 360.246H291.924" stroke="#6D8ED5" stroke-width="0.714103" stroke-miterlimit="10"/>
<path d="M122.301 262.101C122.301 244.592 149.307 245.105 149.307 236.177C149.307 223.135 80.1209 223.306 80.1209 198.244C80.1209 160.982 182.783 181.136 182.783 116.944C182.783 70.6482 60.3984 74.8329 60.3984 38.3083" stroke="#6D8ED5" stroke-width="0.714103" stroke-miterlimit="10"/>
<path d="M494.604 236.045H438.783" stroke="#6D8ED5" stroke-width="0.714103" stroke-miterlimit="10"/>
<path d="M288.219 24.2145C288.219 24.2145 300.394 -2.47328 330.53 1.18509C330.53 1.18509 321.326 -1.1968 305.39 3.22484C289.455 7.64647 288.574 20.3718 288.219 24.2145Z" fill="#244FAE"/>
<path d="M324.411 0.625804C319.455 0.40209 294.861 0.112579 288.911 19.1809C282.961 38.2492 317.515 51.8365 334.338 53.7183C340.459 54.3763 341.143 79.7744 341.143 82.2879C341.143 84.8014 339.545 112.831 351.379 138.433C363.212 164.036 418.257 154.225 414.201 111.969C410.145 69.7139 385.775 78.465 385.321 64.0289C384.867 49.5928 374.96 34.65 365.704 30.0113C356.447 25.3725 359.156 2.17206 324.411 0.625804Z" stroke="#113291" stroke-width="0.714103" stroke-linecap="round" stroke-linejoin="round"/>
<path d="M105.102 339.493V219.345C105.102 213.089 107.585 207.09 112.005 202.666C116.424 198.242 122.419 195.757 128.67 195.757H260.153" stroke="white" stroke-width="0.714103" stroke-miterlimit="10"/>
<path d="M223.392 55.9095L249.537 49.0073C250.983 54.4699 250.683 60.2484 248.681 65.5321C246.679 70.8158 243.075 75.3398 238.374 78.4694C233.673 81.599 228.111 83.1772 222.468 82.9826C216.825 82.788 211.385 80.8304 206.91 77.3844C202.435 73.9385 199.15 69.177 197.516 63.7678C195.882 58.3587 195.981 52.5733 197.799 47.2232C199.617 41.8732 203.062 37.2268 207.652 33.9358C212.242 30.6449 217.746 28.8745 223.392 28.873V55.9095Z" fill="#E3EAFA"/>
<path d="M223.393 55.9095L223.478 26.5701C229.927 26.5834 236.192 28.7244 241.303 32.6617C246.413 36.599 250.084 42.1128 251.747 48.3493L223.393 55.9095Z" fill="#FF996C"/>
<path d="M469.706 317.22C469.706 317.22 462.737 305.337 461.909 304.317C461.081 303.297 460.594 302.817 452.14 305.113C443.686 307.41 413.602 311.726 407.686 312.542C401.769 313.358 397.43 314.003 395.333 312.338C393.236 310.673 372.619 295.336 370.154 293.994C367.688 292.651 365.348 292.888 364.336 294.829C363.323 296.77 351.444 306.298 349.386 316.681C347.328 327.064 351.832 325.695 352.469 326.465C353.107 327.235 360.786 329.61 361.259 329.61C361.732 329.61 364.474 331.92 364.908 332.064C365.341 332.209 395.944 332.064 395.944 332.064C395.944 332.064 416.718 334.269 420.663 335.012C424.607 335.756 442.739 340.763 456.315 340.434C469.89 340.105 479.83 335.492 478.93 331.545C478.029 327.597 469.706 317.22 469.706 317.22Z" fill="white"/>
<path d="M442.956 306.541C443.574 306.541 451.009 296.711 456.328 298.948C461.646 301.185 480.172 329.768 479.278 333.564C478.384 337.361 463.435 340.94 450.043 340.493C436.652 340.045 433.345 337.367 422.727 335.354C412.11 333.341 396.931 333.341 392.486 329.991C388.042 326.642 386.234 323.741 386.234 323.741" stroke="#113291" stroke-width="0.714103" stroke-linecap="round" stroke-linejoin="round"/>
<path d="M458.971 303.87C458.189 304.094 431.301 308.785 414.787 311.358C398.272 313.93 397.825 314.286 395.59 312.542C393.355 310.798 371.824 293.382 367.696 293.04C363.567 292.697 351.635 310.489 351.182 312.542" stroke="#113291" stroke-width="0.714103" stroke-linecap="round" stroke-linejoin="round"/>
<path d="M368.143 304.317C368.143 304.317 355.981 322.188 356.428 323.642C356.875 325.096 362.279 330.117 362.279 330.117" stroke="#113291" stroke-width="0.714103" stroke-linecap="round" stroke-linejoin="round"/>
<path d="M371.824 313.621C371.265 313.7 363.344 327.439 363.567 327.998C363.791 328.557 364.797 332.018 365.132 332.018H374.947" stroke="#113291" stroke-width="0.714103" stroke-linecap="round" stroke-linejoin="round"/>
<path d="M379.076 314.93C379.076 315.266 376.065 327.432 375.954 329.005C375.842 330.577 376.512 331.906 377.518 332.018C378.524 332.13 391.909 332.018 391.909 332.018" stroke="#113291" stroke-width="0.714103" stroke-linecap="round" stroke-linejoin="round"/>
<path d="M342.648 329.61H181.305L131.342 222.359C131.066 221.702 130.958 220.987 131.025 220.278C131.093 219.568 131.335 218.887 131.729 218.293C132.123 217.7 132.658 217.214 133.285 216.877C133.913 216.541 134.614 216.365 135.326 216.365H287.517C289.814 216.365 292.06 217.045 293.972 218.319C295.885 219.592 297.378 221.403 298.266 223.524L342.648 329.61Z" stroke="#113291" stroke-width="0.714103" stroke-linecap="round" stroke-linejoin="round"/>
<path d="M424.384 329.61H181.305V337.763H424.384V329.61Z" fill="#1871C9"/>
<path d="M424.384 329.61H181.305V337.763H424.384V329.61Z" stroke="#113291" stroke-width="0.714103" stroke-linecap="round" stroke-linejoin="round"/>
<path d="M223.393 70.5826C231.489 70.5826 238.053 64.0132 238.053 55.9096C238.053 47.8059 231.489 41.2366 223.393 41.2366C215.296 41.2366 208.732 47.8059 208.732 55.9096C208.732 64.0132 215.296 70.5826 223.393 70.5826Z" stroke="#FF996C" stroke-width="1.42821" stroke-miterlimit="10"/>
<path d="M467.735 9.2981H458.302L431.933 45.1318L418.166 31.3536H408.732L420.816 66.5886H430.25L477.61 19.1876L467.735 9.2981Z" fill="#FDFFFE"/>
<path d="M467.735 9.2981H458.302L431.933 45.1318L418.166 31.3536H408.732L420.816 66.5886H430.25L477.61 19.1876L467.735 9.2981Z" stroke="#ED6921" stroke-width="1.42821" stroke-linecap="round" stroke-linejoin="round"/>
<path d="M458.302 9.2981L422.506 45.1318L408.733 31.3536L397.176 42.921L410.942 56.7057L420.816 66.5886L468.183 19.1876L458.302 9.2981Z" fill="#F7B372"/>
<path d="M458.302 9.2981L422.506 45.1318L408.733 31.3536L397.176 42.921L410.942 56.7057L420.816 66.5886L468.183 19.1876L458.302 9.2981Z" stroke="#ED6921" stroke-width="1.42821" stroke-linecap="round" stroke-linejoin="round"/>
<path d="M95.7281 236.795H61.9238V241.006H95.7281V236.795Z" stroke="url(#paint6_linear_1556_5574)" stroke-width="0.714103" stroke-miterlimit="10"/>
<path d="M163.504 46.0332H98.334V51.0339H163.504V46.0332Z" stroke="url(#paint7_linear_1556_5574)" stroke-width="0.714103" stroke-miterlimit="10"/>
<path d="M163.502 53.3896H142.379V58.3903H163.502V53.3896Z" stroke="url(#paint8_linear_1556_5574)" stroke-width="0.714103" stroke-miterlimit="10"/>
<path d="M137.233 53.3896H98.334V58.3903H137.233V53.3896Z" stroke="url(#paint9_linear_1556_5574)" stroke-width="0.714103" stroke-miterlimit="10"/>
<path d="M74.4739 244.869H61.9238V252.607H74.4739V244.869Z" stroke="url(#paint10_linear_1556_5574)" stroke-width="0.714103" stroke-miterlimit="10"/>
<path d="M53.6797 418.063H337.098C337.098 418.063 477.449 420.839 513.285 314.931C549.121 209.022 529.32 121.767 458.97 78.8796" stroke="url(#paint11_linear_1556_5574)" stroke-width="3.57052" stroke-miterlimit="10"/>
<path d="M65.0039 404.692L51.6387 418.076L64.6292 431.077" stroke="url(#paint12_linear_1556_5574)" stroke-width="3.57052" stroke-miterlimit="10"/>
<path opacity="0.43" d="M458.97 86.611C463.233 86.611 466.688 83.1526 466.688 78.8863C466.688 74.6201 463.233 71.1616 458.97 71.1616C454.707 71.1616 451.252 74.6201 451.252 78.8863C451.252 83.1526 454.707 86.611 458.97 86.611Z" fill="url(#paint13_linear_1556_5574)"/>
<path opacity="0.47" d="M458.97 86.611C463.233 86.611 466.688 83.1526 466.688 78.8863C466.688 74.6201 463.233 71.1616 458.97 71.1616C454.707 71.1616 451.252 74.6201 451.252 78.8863C451.252 83.1526 454.707 86.611 458.97 86.611Z" fill="url(#paint14_linear_1556_5574)"/>
<path d="M468.182 19.1875H477.037" stroke="#ED6921" stroke-width="1.42821" stroke-linecap="round" stroke-linejoin="round"/>
<path d="M124.825 143.033C121.787 143.033 118.817 142.132 116.291 140.443C113.765 138.754 111.797 136.354 110.634 133.545C109.471 130.736 109.167 127.645 109.76 124.663C110.353 121.681 111.816 118.942 113.964 116.792L127.362 103.383C128.761 101.846 130.456 100.609 132.346 99.7463C134.236 98.884 136.282 98.4143 138.358 98.3658C140.435 98.3172 142.499 98.6908 144.428 99.4639C146.356 100.237 148.107 101.393 149.576 102.863C151.045 104.333 152.2 106.086 152.973 108.016C153.745 109.946 154.118 112.013 154.07 114.091C154.021 116.169 153.552 118.216 152.69 120.108C151.829 121.999 150.593 123.696 149.057 125.096L135.659 138.506C134.241 139.939 132.554 141.077 130.694 141.854C128.835 142.631 126.84 143.032 124.825 143.033ZM138.223 105.251C137.041 105.249 135.871 105.48 134.778 105.932C133.686 106.383 132.694 107.047 131.859 107.883L118.461 121.286C117.615 122.121 116.941 123.114 116.481 124.21C116.02 125.305 115.78 126.481 115.775 127.67C115.771 128.859 116.001 130.037 116.454 131.136C116.906 132.235 117.571 133.234 118.411 134.075C119.251 134.915 120.249 135.581 121.347 136.034C122.446 136.487 123.622 136.718 124.81 136.713C125.998 136.708 127.173 136.468 128.268 136.007C129.362 135.546 130.355 134.872 131.188 134.025L144.547 120.622C145.803 119.362 146.658 117.758 147.004 116.013C147.35 114.267 147.172 112.458 146.492 110.814C145.812 109.17 144.661 107.764 143.183 106.774C141.705 105.784 139.968 105.254 138.19 105.251H138.223Z" fill="#FEB36F"/>
<path d="M112.479 169.339C109.441 169.339 106.472 168.438 103.946 166.749C101.42 165.06 99.4509 162.66 98.2883 159.851C97.1257 157.042 96.8216 153.951 97.4144 150.969C98.0072 147.987 99.4702 145.248 101.618 143.099L115.017 129.689C117.936 127.028 121.768 125.595 125.716 125.687C129.663 125.779 133.424 127.39 136.216 130.185C139.008 132.979 140.618 136.743 140.71 140.694C140.802 144.645 139.37 148.48 136.711 151.402L123.313 164.812C121.895 166.245 120.208 167.383 118.349 168.16C116.489 168.937 114.494 169.338 112.479 169.339ZM125.877 131.558C124.695 131.555 123.525 131.786 122.433 132.237C121.34 132.689 120.348 133.352 119.513 134.19L106.115 147.599C105.269 148.433 104.596 149.427 104.135 150.522C103.674 151.618 103.434 152.794 103.43 153.983C103.425 155.172 103.656 156.35 104.108 157.449C104.56 158.548 105.226 159.547 106.066 160.387C106.905 161.228 107.903 161.894 109.002 162.347C110.1 162.799 111.277 163.03 112.465 163.026C113.652 163.021 114.827 162.781 115.922 162.32C117.017 161.858 118.009 161.185 118.843 160.338L132.241 146.928C133.5 145.669 134.358 144.065 134.706 142.317C135.054 140.57 134.876 138.759 134.194 137.113C133.513 135.467 132.359 134.061 130.878 133.072C129.398 132.083 127.657 131.556 125.877 131.558Z" fill="#FEB36F"/>
<path d="M119.159 134.683C120.888 136.069 123.068 136.768 125.28 136.646C127.492 136.525 129.582 135.592 131.15 134.025L144.548 120.622C145.383 119.786 146.046 118.793 146.498 117.701C146.95 116.609 147.183 115.438 147.183 114.256C147.183 113.074 146.95 111.903 146.498 110.811C146.046 109.718 145.383 108.726 144.548 107.89C143.713 107.054 142.721 106.391 141.63 105.938C140.538 105.486 139.369 105.253 138.188 105.253C137.006 105.253 135.837 105.486 134.745 105.938C133.654 106.391 132.662 107.054 131.827 107.89L118.429 121.293C117.592 122.128 116.928 123.121 116.477 124.214C116.026 125.307 115.795 126.479 115.799 127.662C115.799 128.018 115.819 128.374 115.858 128.728M110.704 133.755C109.478 130.929 109.132 127.799 109.71 124.773C110.288 121.747 111.764 118.966 113.945 116.792L127.344 103.383C128.742 101.846 130.438 100.609 132.328 99.7463C134.218 98.884 136.263 98.4143 138.339 98.3658C140.416 98.3172 142.481 98.6908 144.409 99.4639C146.337 100.237 148.088 101.393 149.557 102.863C151.026 104.333 152.181 106.086 152.954 108.016C153.726 109.946 154.099 112.013 154.051 114.091C154.002 116.169 153.533 118.216 152.672 120.108C151.81 121.999 150.574 123.696 149.038 125.096L135.64 138.506C132.874 141.272 129.16 142.879 125.252 143.002C121.344 143.124 117.536 141.752 114.603 139.164L110.704 133.755Z" stroke="white" stroke-width="0.714103" stroke-miterlimit="10"/>
<path d="M131.558 133.578L132.275 134.236L131.558 133.578ZM131.558 133.578C129.826 132.189 127.643 131.489 125.427 131.61C123.211 131.731 121.118 132.666 119.547 134.236L106.149 147.645C105.205 148.452 104.438 149.446 103.896 150.565C103.354 151.683 103.049 152.902 103.001 154.144C102.952 155.386 103.161 156.624 103.614 157.781C104.067 158.939 104.755 159.99 105.633 160.868C106.512 161.746 107.562 162.433 108.719 162.886C109.876 163.338 111.114 163.546 112.354 163.496C113.595 163.446 114.812 163.14 115.929 162.596C117.046 162.053 118.038 161.284 118.844 160.338L132.242 146.928C133.078 146.092 133.741 145.099 134.193 144.006C134.644 142.913 134.875 141.742 134.872 140.559C134.87 140.198 134.848 139.838 134.806 139.48M140.006 134.512C141.205 137.339 141.532 140.459 140.946 143.473C140.361 146.487 138.889 149.258 136.719 151.429L123.321 164.838C121.922 166.375 120.227 167.612 118.337 168.475C116.447 169.337 114.402 169.807 112.325 169.855C110.249 169.904 108.184 169.53 106.256 168.757C104.328 167.984 102.576 166.828 101.107 165.358C99.6387 163.888 98.4831 162.135 97.7107 160.205C96.9383 158.275 96.5651 156.209 96.6136 154.13C96.6621 152.052 97.1313 150.005 97.9929 148.113C98.8545 146.222 100.091 144.525 101.626 143.125L115.024 129.715C117.79 126.949 121.505 125.342 125.413 125.219C129.321 125.097 133.129 126.47 136.062 129.057L140.006 134.512Z" stroke="white" stroke-width="0.714103" stroke-miterlimit="10"/>
<path d="M217.067 141.875L231.596 150.297C232.147 150.618 232.605 151.079 232.922 151.633C233.24 152.186 233.408 152.813 233.408 153.452C233.408 154.09 233.24 154.718 232.922 155.271C232.605 155.825 232.147 156.285 231.596 156.607L217.067 165.036C216.514 165.357 215.886 165.527 215.246 165.528C214.606 165.529 213.977 165.361 213.423 165.042C212.868 164.722 212.407 164.262 212.087 163.708C211.767 163.153 211.598 162.524 211.598 161.884V145.026C211.598 144.386 211.767 143.757 212.087 143.203C212.407 142.648 212.868 142.188 213.423 141.869C213.977 141.549 214.606 141.382 215.246 141.383C215.886 141.384 216.514 141.553 217.067 141.875Z" fill="white"/>
<path d="M69.2291 169.589H56.5673C55.4018 169.589 54.457 170.535 54.457 171.701V184.374C54.457 185.54 55.4018 186.486 56.5673 186.486H69.2291C70.3946 186.486 71.3395 185.54 71.3395 184.374V171.701C71.3395 170.535 70.3946 169.589 69.2291 169.589Z" stroke="white" stroke-width="0.714103" stroke-miterlimit="10"/>
<path d="M90.7721 169.589H78.1103C76.9448 169.589 76 170.535 76 171.701V184.374C76 185.54 76.9448 186.486 78.1103 186.486H90.7721C91.9376 186.486 92.8824 185.54 92.8824 184.374V171.701C92.8824 170.535 91.9376 169.589 90.7721 169.589Z" stroke="white" stroke-width="0.714103" stroke-miterlimit="10"/>
<path d="M69.2291 191.092H56.5673C55.4018 191.092 54.457 192.037 54.457 193.204V205.877C54.457 207.043 55.4018 207.989 56.5673 207.989H69.2291C70.3946 207.989 71.3395 207.043 71.3395 205.877V193.204C71.3395 192.037 70.3946 191.092 69.2291 191.092Z" stroke="white" stroke-width="0.714103" stroke-miterlimit="10"/>
<path d="M90.7721 191.092H78.1103C76.9448 191.092 76 192.037 76 193.204V205.877C76 207.043 76.9448 207.989 78.1103 207.989H90.7721C91.9376 207.989 92.8824 207.043 92.8824 205.877V193.204C92.8824 192.037 91.9376 191.092 90.7721 191.092Z" stroke="white" stroke-width="0.714103" stroke-miterlimit="10"/>
<path d="M74.9347 186.637H72.6271C72.2096 186.637 71.8711 186.976 71.8711 187.394V189.703C71.8711 190.121 72.2096 190.46 72.6271 190.46H74.9347C75.3522 190.46 75.6907 190.121 75.6907 189.703V187.394C75.6907 186.976 75.3522 186.637 74.9347 186.637Z" fill="white"/>
<path d="M66.4544 187.638H64.995C64.7626 187.638 64.5742 187.826 64.5742 188.059V189.52C64.5742 189.752 64.7626 189.941 64.995 189.941H66.4544C66.6868 189.941 66.8752 189.752 66.8752 189.52V188.059C66.8752 187.826 66.6868 187.638 66.4544 187.638Z" fill="white"/>
<path d="M69.1693 187.638H67.7098C67.4774 187.638 67.2891 187.826 67.2891 188.059V189.52C67.2891 189.752 67.4774 189.941 67.7098 189.941H69.1693C69.4016 189.941 69.59 189.752 69.59 189.52V188.059C69.59 187.826 69.4016 187.638 69.1693 187.638Z" fill="white"/>
<path d="M67.8919 188.164H66.4325C66.2001 188.164 66.0117 188.352 66.0117 188.585V190.045C66.0117 190.278 66.2001 190.467 66.4325 190.467H67.8919C68.1243 190.467 68.3127 190.278 68.3127 190.045V188.585C68.3127 188.352 68.1243 188.164 67.8919 188.164Z" fill="white"/>
<path d="M73.0345 189.006H71.575C71.3427 189.006 71.1543 189.194 71.1543 189.427V190.888C71.1543 191.12 71.3427 191.309 71.575 191.309H73.0345C73.2669 191.309 73.4552 191.12 73.4552 190.888V189.427C73.4552 189.194 73.2669 189.006 73.0345 189.006Z" fill="white"/>
<path d="M74.3958 185.032H72.9364C72.704 185.032 72.5156 185.221 72.5156 185.453V186.914C72.5156 187.146 72.704 187.335 72.9364 187.335H74.3958C74.6282 187.335 74.8166 187.146 74.8166 186.914V185.453C74.8166 185.221 74.6282 185.032 74.3958 185.032Z" fill="white"/>
<path d="M74.3958 191.697H72.9364C72.704 191.697 72.5156 191.886 72.5156 192.118V193.579C72.5156 193.812 72.704 194 72.9364 194H74.3958C74.6282 194 74.8166 193.812 74.8166 193.579V192.118C74.8166 191.886 74.6282 191.697 74.3958 191.697Z" fill="white"/>
<path d="M74.3958 194.934H72.9364C72.704 194.934 72.5156 195.123 72.5156 195.355V196.816C72.5156 197.049 72.704 197.237 72.9364 197.237H74.3958C74.6282 197.237 74.8166 197.049 74.8166 196.816V195.355C74.8166 195.123 74.6282 194.934 74.3958 194.934Z" fill="white"/>
<path d="M65.2618 196.191H60.535C59.9903 196.191 59.5488 196.633 59.5488 197.178V201.909C59.5488 202.454 59.9903 202.896 60.535 202.896H65.2618C65.8064 202.896 66.2479 202.454 66.2479 201.909V197.178C66.2479 196.633 65.8064 196.191 65.2618 196.191Z" fill="white"/>
<path d="M82.7114 171.596H79.1482C78.6036 171.596 78.1621 172.038 78.1621 172.583V176.149C78.1621 176.694 78.6036 177.136 79.1482 177.136H82.7114C83.256 177.136 83.6975 176.694 83.6975 176.149V172.583C83.6975 172.038 83.256 171.596 82.7114 171.596Z" fill="white"/>
<path d="M50.5703 178.893V171.405C50.5703 169.885 51.1736 168.427 52.2474 167.353C53.3213 166.278 54.7777 165.674 56.2964 165.674H64.1854" stroke="white" stroke-width="0.714103" stroke-miterlimit="10"/>
<path d="M64.6784 211.904H56.2964C54.7777 211.904 53.3213 211.3 52.2474 210.225C51.1736 209.15 50.5703 207.693 50.5703 206.173V197.579" stroke="white" stroke-width="0.714103" stroke-miterlimit="10"/>
<path d="M96.76 197.579V206.173C96.76 207.691 96.1576 209.148 95.0852 210.223C94.0128 211.297 92.558 211.902 91.0405 211.904H82.5664" stroke="white" stroke-width="0.714103" stroke-miterlimit="10"/>
<path d="M82.75 165.674H91.0137C92.5312 165.676 93.986 166.28 95.0584 167.355C96.1308 168.429 96.7332 169.886 96.7332 171.405V178.893" stroke="white" stroke-width="0.714103" stroke-miterlimit="10"/>
<path d="M89.6528 178.722H86.0896C85.545 178.722 85.1035 179.164 85.1035 179.709V183.275C85.1035 183.82 85.545 184.262 86.0896 184.262H89.6528C90.1974 184.262 90.6389 183.82 90.6389 183.275V179.709C90.6389 179.164 90.1974 178.722 89.6528 178.722Z" fill="white"/>
<path d="M74.3958 181.959H72.9364C72.704 181.959 72.5156 182.147 72.5156 182.38V183.841C72.5156 184.073 72.704 184.262 72.9364 184.262H74.3958C74.6282 184.262 74.8166 184.073 74.8166 183.841V182.38C74.8166 182.147 74.6282 181.959 74.3958 181.959Z" fill="white"/>
<path d="M66.3949 173.3H59.4C58.7174 173.3 58.1641 173.854 58.1641 174.537V181.538C58.1641 182.221 58.7174 182.775 59.4 182.775H66.3949C67.0775 182.775 67.6308 182.221 67.6308 181.538V174.537C67.6308 173.854 67.0775 173.3 66.3949 173.3Z" fill="white"/>
<path d="M87.3672 194.934H81.5162C80.5904 194.934 79.8398 195.686 79.8398 196.612V202.468C79.8398 203.395 80.5904 204.146 81.5162 204.146H87.3672C88.2931 204.146 89.0437 203.395 89.0437 202.468V196.612C89.0437 195.686 88.2931 194.934 87.3672 194.934Z" stroke="white" stroke-width="0.714103" stroke-miterlimit="10"/>
<path d="M77.4073 188.552H75.0998C74.6822 188.552 74.3438 188.891 74.3438 189.309V191.618C74.3438 192.036 74.6822 192.375 75.0998 192.375H77.4073C77.8248 192.375 78.1633 192.036 78.1633 191.618V189.309C78.1633 188.891 77.8248 188.552 77.4073 188.552Z" fill="white"/>
<path d="M126.903 198.409H132.162V189.381H126.903C123.818 189.385 120.86 190.613 118.678 192.796C116.497 194.98 115.27 197.94 115.266 201.028V203.238H111.02V212.259H115.28V232.117H124.293V212.226H130.499V203.238H124.293V201.061C124.29 200.715 124.356 200.372 124.485 200.052C124.615 199.731 124.807 199.44 125.049 199.194C125.291 198.947 125.58 198.751 125.898 198.617C126.216 198.482 126.557 198.411 126.903 198.409Z" fill="#E9F3FF"/>
<path d="M126.903 198.409H132.162V189.381H126.903C123.818 189.385 120.86 190.613 118.678 192.796C116.497 194.98 115.27 197.94 115.266 201.028V203.238H111.02V212.259H115.28V232.117H124.293V212.226H130.499V203.238H124.293V201.061C124.29 200.715 124.356 200.372 124.485 200.052C124.615 199.731 124.807 199.44 125.049 199.194C125.291 198.947 125.58 198.751 125.898 198.617C126.216 198.482 126.557 198.411 126.903 198.409V198.409Z" stroke="url(#paint15_linear_1556_5574)" stroke-width="1.42821" stroke-miterlimit="10"/>
<path d="M96.9062 41.5852H150.374" stroke="url(#paint16_linear_1556_5574)" stroke-width="0.714103" stroke-miterlimit="10"/>
<defs>
<linearGradient id="paint0_linear_1556_5574" x1="40.2969" y1="237.433" x2="529.486" y2="237.433" gradientUnits="userSpaceOnUse">
<stop stop-color="#1B44C0"/>
<stop offset="0.31" stop-color="#1B47C2"/>
<stop offset="0.55" stop-color="#1B51C8"/>
<stop offset="0.77" stop-color="#1A62D1"/>
<stop offset="0.98" stop-color="#1979DF"/>
<stop offset="1" stop-color="#197CE1"/>
</linearGradient>
<linearGradient id="paint1_linear_1556_5574" x1="48.9141" y1="118.437" x2="356.328" y2="118.437" gradientUnits="userSpaceOnUse">
<stop stop-color="#AACCFF" stop-opacity="0"/>
<stop offset="1" stop-color="#197DDF" stop-opacity="0.6"/>
</linearGradient>
<linearGradient id="paint2_linear_1556_5574" x1="92.9676" y1="134.887" x2="161.404" y2="134.887" gradientUnits="userSpaceOnUse">
<stop stop-color="#3B7CE9"/>
<stop offset="1" stop-color="#2B84E5"/>
</linearGradient>
<linearGradient id="paint3_linear_1556_5574" x1="190.621" y1="154.442" x2="250.643" y2="154.442" gradientUnits="userSpaceOnUse">
<stop stop-color="#1B44C0"/>
<stop offset="0.31" stop-color="#1B47C2"/>
<stop offset="0.55" stop-color="#1B51C8"/>
<stop offset="0.77" stop-color="#1A62D1"/>
<stop offset="0.98" stop-color="#1979DF"/>
<stop offset="1" stop-color="#197CE1"/>
</linearGradient>
<linearGradient id="paint4_linear_1556_5574" x1="189.306" y1="154.442" x2="251.958" y2="154.442" gradientUnits="userSpaceOnUse">
<stop stop-color="#FBFEF9"/>
<stop offset="0.52" stop-color="#ECEEFC"/>
<stop offset="1" stop-color="#DBDBFF"/>
</linearGradient>
<linearGradient id="paint5_linear_1556_5574" x1="344.911" y1="237.348" x2="424.011" y2="237.348" gradientUnits="userSpaceOnUse">
<stop stop-color="#1B44C0"/>
<stop offset="0.31" stop-color="#1B47C2"/>
<stop offset="0.55" stop-color="#1B51C8"/>
<stop offset="0.77" stop-color="#1A62D1"/>
<stop offset="0.98" stop-color="#1979DF"/>
<stop offset="1" stop-color="#197CE1"/>
</linearGradient>
<linearGradient id="paint6_linear_1556_5574" x1="61.5951" y1="238.901" x2="96.0634" y2="238.901" gradientUnits="userSpaceOnUse">
<stop stop-color="#1B44C0"/>
<stop offset="0.31" stop-color="#1B47C2"/>
<stop offset="0.55" stop-color="#1B51C8"/>
<stop offset="0.77" stop-color="#1A62D1"/>
<stop offset="0.98" stop-color="#1979DF"/>
<stop offset="1" stop-color="#197CE1"/>
</linearGradient>
<linearGradient id="paint7_linear_1556_5574" x1="98.0053" y1="48.5401" x2="163.832" y2="48.5401" gradientUnits="userSpaceOnUse">
<stop stop-color="#1B44C0"/>
<stop offset="0.31" stop-color="#1B47C2"/>
<stop offset="0.55" stop-color="#1B51C8"/>
<stop offset="0.77" stop-color="#1A62D1"/>
<stop offset="0.98" stop-color="#1979DF"/>
<stop offset="1" stop-color="#197CE1"/>
</linearGradient>
<linearGradient id="paint8_linear_1556_5574" x1="142.05" y1="55.89" x2="163.83" y2="55.89" gradientUnits="userSpaceOnUse">
<stop stop-color="#1B44C0"/>
<stop offset="0.31" stop-color="#1B47C2"/>
<stop offset="0.55" stop-color="#1B51C8"/>
<stop offset="0.77" stop-color="#1A62D1"/>
<stop offset="0.98" stop-color="#1979DF"/>
<stop offset="1" stop-color="#197CE1"/>
</linearGradient>
<linearGradient id="paint9_linear_1556_5574" x1="98.0053" y1="55.89" x2="137.569" y2="55.89" gradientUnits="userSpaceOnUse">
<stop stop-color="#1B44C0"/>
<stop offset="0.31" stop-color="#1B47C2"/>
<stop offset="0.55" stop-color="#1B51C8"/>
<stop offset="0.77" stop-color="#1A62D1"/>
<stop offset="0.98" stop-color="#1979DF"/>
<stop offset="1" stop-color="#197CE1"/>
</linearGradient>
<linearGradient id="paint10_linear_1556_5574" x1="61.5951" y1="248.738" x2="74.8092" y2="248.738" gradientUnits="userSpaceOnUse">
<stop stop-color="#1B44C0"/>
<stop offset="0.31" stop-color="#1B47C2"/>
<stop offset="0.55" stop-color="#1B51C8"/>
<stop offset="0.77" stop-color="#1A62D1"/>
<stop offset="0.98" stop-color="#1979DF"/>
<stop offset="1" stop-color="#197CE1"/>
</linearGradient>
<linearGradient id="paint11_linear_1556_5574" x1="53.6797" y1="248.599" x2="532.429" y2="248.599" gradientUnits="userSpaceOnUse">
<stop stop-color="#3B7CE9"/>
<stop offset="1" stop-color="#2B84E5"/>
</linearGradient>
<linearGradient id="paint12_linear_1556_5574" x1="49.3114" y1="417.885" x2="66.1675" y2="417.885" gradientUnits="userSpaceOnUse">
<stop stop-color="#3B7CE9"/>
<stop offset="1" stop-color="#2B84E5"/>
</linearGradient>
<linearGradient id="paint13_linear_1556_5574" x1="451.252" y1="78.8863" x2="466.688" y2="78.8863" gradientUnits="userSpaceOnUse">
<stop stop-color="#3B7CE9"/>
<stop offset="1" stop-color="#2B84E5"/>
</linearGradient>
<linearGradient id="paint14_linear_1556_5574" x1="451.252" y1="78.8863" x2="466.688" y2="78.8863" gradientUnits="userSpaceOnUse">
<stop stop-color="#3B7CE9"/>
<stop offset="1" stop-color="#2B84E5"/>
</linearGradient>
<linearGradient id="paint15_linear_1556_5574" x1="110.349" y1="210.733" x2="132.826" y2="210.733" gradientUnits="userSpaceOnUse">
<stop stop-color="#3B7CE9"/>
<stop offset="1" stop-color="#2B84E5"/>
</linearGradient>
<linearGradient id="paint16_linear_1556_5574" x1="-nan" y1="-nan" x2="-nan" y2="-nan" gradientUnits="userSpaceOnUse">
<stop stop-color="#1B44C0"/>
<stop offset="0.31" stop-color="#1B47C2"/>
<stop offset="0.55" stop-color="#1B51C8"/>
<stop offset="0.77" stop-color="#1A62D1"/>
<stop offset="0.98" stop-color="#1979DF"/>
<stop offset="1" stop-color="#197CE1"/>
</linearGradient>
</defs>
</svg>
