<svg width="30" height="30" viewBox="0 0 30 30" fill="none" xmlns="http://www.w3.org/2000/svg">
<path d="M22.8474 3.26168C17.0849 3.36918 13.0707 0.457509 10.294 0.510009C7.51738 0.562509 1.71405 2.26751 1.95322 15.0433C2.19238 27.8192 10.0732 29.5467 13.1282 29.49C27.4307 29.2225 33.054 3.07084 22.8474 3.26168Z" fill="white"/>
<path d="M23.3334 5.625H13.9584C13.0376 5.625 12.2917 6.37083 12.2917 7.29167V8.54167V18.9583V20.2083C12.2917 21.1292 13.0376 21.875 13.9584 21.875H17.2917H23.3334V5.625Z" fill="#F3F3F1"/>
<path d="M14.1667 20.2083V18.9583V8.54167V7.29167C14.1667 6.37083 14.9126 5.625 15.8334 5.625H13.9584C13.0376 5.625 12.2917 6.37083 12.2917 7.29167V8.54167V18.9583V20.2083C12.2917 21.1292 13.0376 21.875 13.9584 21.875H15.8334C14.9126 21.875 14.1667 21.1292 14.1667 20.2083Z" fill="#D5DBE1"/>
<path d="M17.2917 8.33333V23.3333C17.2917 23.9083 17.7584 24.375 18.3334 24.375C18.4501 24.375 18.5584 24.3583 18.6667 24.325L23.6667 22.6583C24.0751 22.5167 24.3751 22.125 24.3751 21.6667V6.66667C24.3751 6.09167 23.9084 5.625 23.3334 5.625C23.2167 5.625 23.1084 5.64167 23.0001 5.675L18.0001 7.34167C17.5917 7.48333 17.2917 7.875 17.2917 8.33333Z" fill="#FEB46D"/>
<path d="M19.1667 23.125V8.125C19.1667 7.66667 19.4667 7.275 19.8751 7.13333L23.8759 5.8C23.7159 5.69833 23.5367 5.625 23.3334 5.625C23.2167 5.625 23.1084 5.64167 23.0001 5.675L18.0001 7.34167C17.5917 7.48333 17.2917 7.875 17.2917 8.33333V23.3333C17.2917 23.9083 17.7584 24.375 18.3334 24.375C18.4501 24.375 18.5584 24.3583 18.6667 24.325L19.6659 23.9917C19.3726 23.8075 19.1667 23.4967 19.1667 23.125Z" fill="#FF7F2E"/>
<path d="M8.81787 3.01157L9.40713 2.42231L10.5856 3.60082L9.99638 4.19008L8.81787 3.01157Z" fill="#A4AFC1"/>
<path d="M8.66992 6.98889L9.84843 5.81038L10.4377 6.39964L9.25918 7.57815L8.66992 6.98889Z" fill="#A4AFC1"/>
<path d="M12.0591 3.60196L13.2376 2.42345L13.8268 3.0127L12.6483 4.19121L12.0591 3.60196Z" fill="#A4AFC1"/>
<path d="M24.6833 26.875C23.9942 26.875 23.4333 26.3142 23.4333 25.625C23.4333 24.9358 23.9942 24.375 24.6833 24.375C25.3725 24.375 25.9333 24.9358 25.9333 25.625C25.9333 26.3142 25.3725 26.875 24.6833 26.875ZM24.6833 25.2083C24.4542 25.2083 24.2667 25.3958 24.2667 25.625C24.2667 25.8542 24.4542 26.0417 24.6833 26.0417C24.9125 26.0417 25.1 25.8542 25.1 25.625C25.1 25.3958 24.9133 25.2083 24.6833 25.2083Z" fill="#A4AFC1"/>
<path d="M5.625 13.125H13.5417V14.375H5.625V13.125Z" fill="black"/>
<path d="M10.8584 17.3167L9.9751 16.4333L12.6584 13.75L9.9751 11.0667L10.8593 10.1825L13.9843 13.3075C14.2284 13.5517 14.2284 13.9475 13.9843 14.1917L10.8584 17.3167Z" fill="black"/>
<path d="M18.3334 25C17.4142 25 16.6667 24.2525 16.6667 23.3333V8.33332C16.6667 7.62165 17.1201 6.98499 17.7951 6.75165L22.8026 5.08165C23.9326 4.73665 25.0001 5.56999 25.0001 6.66665V21.6667C25.0001 22.3775 24.5476 23.0133 23.8726 23.2483L18.8642 24.9183C18.6809 24.975 18.5117 25 18.3334 25ZM23.3334 6.24999C23.2801 6.24999 23.2334 6.25665 23.1826 6.27165L18.1976 7.93415C18.0359 7.99082 17.9167 8.15582 17.9167 8.33332V23.3333C17.9159 23.6167 18.2159 23.8075 18.4842 23.7283L23.4692 22.0658C23.6309 22.0092 23.7501 21.8442 23.7501 21.6667V6.66665C23.7501 6.43749 23.5626 6.24999 23.3334 6.24999Z" fill="black"/>
<path d="M12.9167 8.54167H11.6667V7.29167C11.6667 6.0275 12.6942 5 13.9584 5H23.3334V6.25H13.9584C13.3842 6.25 12.9167 6.7175 12.9167 7.29167V8.54167Z" fill="black"/>
<path d="M17.2917 22.5H13.9584C12.6942 22.5 11.6667 21.4725 11.6667 20.2083V18.9583H12.9167V20.2083C12.9167 20.7825 13.3842 21.25 13.9584 21.25H17.2917V22.5Z" fill="black"/>
</svg>
