<svg width="50" height="50" viewBox="0 0 50 50" fill="none" xmlns="http://www.w3.org/2000/svg">
<path d="M2.52468 5.75292C2.85594 3.99232 4.25351 2.62792 6.02226 2.3338C20.8703 -0.135236 30.1229 -0.0812501 43.9702 2.31586C45.7198 2.61873 47.1003 3.97343 47.4326 5.71666C50.2919 20.713 50.0873 30.0758 47.4234 44.2753C47.094 46.0312 45.7079 47.3978 43.948 47.6993C29.6256 50.1528 20.3676 50.0523 6.0485 47.6832C4.26813 47.3886 2.8624 46.0105 2.53612 44.2367C-0.140206 29.6877 -0.213065 20.3036 2.52468 5.75292Z" fill="white" stroke="#E4E4E4"/>
<path fill-rule="evenodd" clip-rule="evenodd" d="M26.4048 28.9106C26.4048 28.9106 30.5504 17.6715 31.8026 14.2784C31.9061 13.9975 32.0948 13.7547 32.343 13.5832C32.5912 13.4117 32.8869 13.3198 33.1899 13.3198H38.1122C38.2582 13.3199 38.4009 13.3626 38.5223 13.4426C38.6437 13.5227 38.7383 13.6364 38.7942 13.7695C38.85 13.9026 38.8646 14.049 38.8362 14.1903C38.8077 14.3316 38.7374 14.4614 38.6342 14.5633L36.9412 16.2336V33.7161L38.6342 35.3864C38.7374 35.4883 38.8077 35.618 38.8362 35.7593C38.8646 35.9006 38.85 36.047 38.7942 36.1801C38.7383 36.3132 38.6437 36.427 38.5223 36.507C38.4009 36.5871 38.2582 36.6298 38.1122 36.6298H29.8638C29.7178 36.6298 29.5751 36.5871 29.4537 36.507C29.3323 36.427 29.2377 36.3132 29.1818 36.1801C29.1259 36.047 29.1113 35.9006 29.1398 35.7593C29.1683 35.618 29.2386 35.4883 29.3418 35.3864L31.0347 33.7161V20.6188C31.0347 20.6188 26.5045 32.8995 25.3793 35.9502C25.3057 36.1494 25.1718 36.3214 24.9957 36.443C24.8197 36.5646 24.61 36.6298 24.3951 36.6298H24.3944C24.1729 36.6299 23.9561 36.567 23.7699 36.4487C23.5837 36.3304 23.436 36.1616 23.3445 35.9626L16.2685 20.6042V30.8023C16.2685 30.8023 18.1822 33.8239 19.2542 35.5153C19.3241 35.6256 19.3628 35.7523 19.3662 35.8823C19.3697 36.0123 19.3378 36.1408 19.2739 36.2545C19.21 36.3682 19.1165 36.463 19.0029 36.529C18.8893 36.595 18.76 36.6298 18.6282 36.6298H11.8387C11.7015 36.6298 11.5671 36.5922 11.4505 36.521C11.3339 36.4499 11.2396 36.3482 11.1783 36.2272C11.117 36.1062 11.091 35.9707 11.1033 35.836C11.1156 35.7012 11.1657 35.5725 11.248 35.4643C12.5408 33.7634 14.7919 30.8023 14.7919 30.8023V17.6904C14.7919 17.6904 13.2023 15.8089 12.1096 14.5145C12.0198 14.4081 11.9626 14.2787 11.9447 14.1414C11.9267 14.0042 11.9488 13.8647 12.0083 13.7393C12.0678 13.614 12.1622 13.508 12.2806 13.4337C12.399 13.3594 12.5363 13.3199 12.6766 13.3198H18.2708C18.5543 13.3198 18.8318 13.4003 19.0702 13.5517C19.3086 13.7031 19.4978 13.919 19.6153 14.1736C21.117 17.4333 26.4048 28.9106 26.4048 28.9106Z" fill="#161616"/>
</svg>
