<svg width="565" height="487" viewBox="0 0 565 487" fill="none" xmlns="http://www.w3.org/2000/svg">
<path d="M282.172 406.13C372.219 406.13 445.217 333.132 445.217 243.085C445.217 153.038 372.219 80.04 282.172 80.04C192.125 80.04 119.127 153.038 119.127 243.085C119.127 333.132 192.125 406.13 282.172 406.13Z" fill="url(#paint0_linear_1556_5706)"/>
<path d="M268.77 403.454C175.024 403.454 105.74 384.078 71.2641 345.911C54.2154 327.016 33.3937 294.305 46.4471 239.66C59.5005 185.016 120.394 141.697 240.276 114.76C360.158 87.8231 513.352 92.8413 513.352 179.308C513.352 265.775 315.846 291.718 315.846 291.718L268.77 403.454Z" fill="url(#paint1_linear_1556_5706)"/>
<path opacity="0.26" d="M446.039 241.039C426.715 194.577 395.827 146.967 353.702 164.609C277.124 196.72 324.756 357.281 272.817 326.697C220.878 296.113 219.699 218.668 175.024 224.724C139.444 229.564 128.474 269.517 125.494 285.543C130.121 302.69 137.52 318.965 147.398 333.724C197.395 408.59 298.613 428.789 373.531 378.792C396.153 363.707 414.639 343.198 427.304 319.137C439.969 295.076 446.41 268.227 446.039 241.039Z" fill="#4F92FD"/>
<path opacity="0.77" d="M71.2637 149.547H298.723V403.454C298.723 403.454 209.321 401.015 173.978 392.713C97.2667 374.694 71.2637 345.911 71.2637 345.911V149.547Z" fill="url(#paint2_linear_1556_5706)"/>
<path d="M298.517 313.815C296.444 312.62 294.141 311.879 291.76 311.641C289.379 311.403 286.975 311.674 284.707 312.436C277.02 315.045 283.365 322.213 284.707 324.296C286.049 326.379 294.818 333.932 297.308 333.717C299.799 333.502 302.386 333.791 303.112 331.108C303.839 328.425 300.473 315.972 298.517 313.815Z" fill="#FF7F00"/>
<path d="M297.286 333.732C299.754 333.517 302.363 333.806 303.09 331.123C303.816 328.439 300.473 315.972 298.516 313.815C293.969 311.776 288.83 311.488 284.084 313.007" stroke="#ED6921" stroke-width="0.741248" stroke-linecap="round"/>
<path d="M467.461 359.6C497.38 315.889 441.669 225.721 343.027 158.205C244.385 90.6892 140.167 71.3916 110.248 115.103C80.3299 158.814 136.041 248.982 234.683 316.498C333.324 384.014 437.543 403.311 467.461 359.6Z" stroke="url(#paint3_linear_1556_5706)" stroke-width="0.741248" stroke-miterlimit="10"/>
<path opacity="0.77" d="M169.546 391.646L71.2637 168.101V345.911C71.2637 345.911 96.266 373.589 169.546 391.646Z" fill="url(#paint4_linear_1556_5706)"/>
<path opacity="0.77" d="M513.351 118.407H298.752V307.469H513.351V118.407Z" fill="url(#paint5_linear_1556_5706)"/>
<path opacity="0.77" d="M508.533 118.222L451.153 252.721L426.484 307.47H513.351V118.407L508.533 118.222Z" fill="url(#paint6_linear_1556_5706)"/>
<path d="M321.829 215.481C371.826 290.347 386.836 369.905 374.02 378.467C356.23 390.327 299.703 354.124 242.501 268.443C184.394 181.413 183.401 113.656 192.963 107.273C202.525 100.891 271.824 140.593 321.829 215.481Z" stroke="white" stroke-width="0.741248" stroke-miterlimit="10"/>
<path d="M385.545 174.749C435.542 249.615 434.964 337.824 378.703 375.361C322.443 412.897 230.454 386.568 180.449 311.673C130.444 236.777 141.37 141.719 197.631 104.123C253.892 66.527 335.54 99.8535 385.545 174.749Z" stroke="white" stroke-width="0.741248" stroke-miterlimit="10"/>
<path d="M417.768 151.43C418.51 167.737 398.711 214.762 305.536 276.967C218.21 335.274 158.917 341.916 146.561 332.494" stroke="white" stroke-width="0.741248" stroke-miterlimit="10"/>
<path d="M359.239 98.9937C361.285 112.618 324.171 164.349 259.275 207.683C190.605 253.507 137.569 264.722 120.572 258.34" stroke="white" stroke-width="0.741248" stroke-miterlimit="10"/>
<path d="M277.308 80.2402C278.123 87.7787 255.226 117.621 216.437 143.513C175.386 170.939 144.343 178.582 134.662 175.476" stroke="white" stroke-width="0.741248" stroke-miterlimit="10"/>
<path d="M445.2 238.904C451.13 247.799 413.541 302.177 350.476 344.28C287.41 386.383 222.766 400.274 216.836 391.379" stroke="white" stroke-width="0.741248" stroke-miterlimit="10"/>
<path opacity="0.77" d="M282.994 406.256C373.041 406.256 446.039 333.258 446.039 243.211C446.039 153.164 373.041 80.166 282.994 80.166C192.947 80.166 119.949 153.164 119.949 243.211C119.949 333.258 192.947 406.256 282.994 406.256Z" stroke="#E8F1FF" stroke-width="0.741248" stroke-miterlimit="10"/>
<path d="M426.774 415.425C471.152 390.467 457.906 279.169 399.125 174.623C340.344 70.0777 258.295 11.86 213.917 36.8401L202.568 42.1919C246.947 17.2415 330.575 81.7597 389.363 186.305C448.151 290.851 459.781 395.827 415.433 420.777L426.774 415.425Z" fill="url(#paint7_linear_1556_5706)"/>
<path opacity="0.77" d="M426.723 415.514C471.101 390.564 457.855 279.258 399.074 174.72C340.293 70.1813 258.245 11.9785 213.866 36.9289L202.518 42.2881C246.896 17.3303 330.524 81.856 389.312 186.402C448.1 290.947 459.731 395.915 415.382 420.873L426.723 415.514Z" stroke="#E8F1FF" stroke-width="0.741248" stroke-miterlimit="10"/>
<path d="M84.2128 358.022C84.1164 351.107 73.2497 266.063 73.5166 259.051C74.2578 240.305 106.791 213.894 106.791 213.894C107.6 212.769 108.161 211.486 108.437 210.129C108.615 208.409 108.274 206.823 109.578 205.681C110.883 204.54 112.721 200.7 113.544 199.492C114.367 198.284 124.181 194.562 128.05 195.141C131.919 195.719 147.508 211.011 150.473 214.08C153.438 217.148 165.728 241.691 166.729 245.56C167.729 249.43 172.125 261.927 172.125 261.927L184.682 331.204L191.16 367.355L197.349 398.687C197.349 398.687 172.948 397.064 139.473 386.22C119.723 379.694 101.087 370.185 84.2128 358.022Z" fill="url(#paint8_linear_1556_5706)"/>
<path d="M84.0057 88.2529L80.7072 92.0259L78.5501 88.3864L75.0144 92.2334L72.9463 88.4753L69.2549 92.5003L67.1794 88.7199L63.6511 92.567L61.709 89.0312" stroke="white" stroke-width="0.741248" stroke-miterlimit="10"/>
<path d="M84.0057 96.8438L80.7072 100.609L78.5501 96.9698L75.0144 100.824L72.9463 97.0587L69.2549 101.084L67.1794 97.3107L63.6511 101.15L61.709 97.6221" stroke="white" stroke-width="0.741248" stroke-miterlimit="10"/>
<path opacity="0.26" d="M344.666 199.233C364.038 199.233 379.742 183.529 379.742 164.157C379.742 144.785 364.038 129.081 344.666 129.081C325.294 129.081 309.59 144.785 309.59 164.157C309.59 183.529 325.294 199.233 344.666 199.233Z" stroke="#4F92FD" stroke-width="0.741248" stroke-miterlimit="10"/>
<path opacity="0.26" d="M344.665 185.127C356.247 185.127 365.635 175.738 365.635 164.157C365.635 152.576 356.247 143.187 344.665 143.187C333.084 143.187 323.695 152.576 323.695 164.157C323.695 175.738 333.084 185.127 344.665 185.127Z" stroke="#4F92FD" stroke-width="0.741248" stroke-miterlimit="10"/>
<path opacity="0.26" d="M214.457 210.255C218.976 210.255 222.64 206.592 222.64 202.072C222.64 197.552 218.976 193.889 214.457 193.889C209.937 193.889 206.273 197.552 206.273 202.072C206.273 206.592 209.937 210.255 214.457 210.255Z" stroke="#4F92FD" stroke-width="0.741248" stroke-miterlimit="10"/>
<path opacity="0.26" d="M274.818 269.689C285.916 269.689 294.913 260.692 294.913 249.593C294.913 238.495 285.916 229.498 274.818 229.498C263.72 229.498 254.723 238.495 254.723 249.593C254.723 260.692 263.72 269.689 274.818 269.689Z" stroke="#4F92FD" stroke-width="0.741248" stroke-miterlimit="10"/>
<path d="M113.521 182.48C113.521 182.48 120.482 192.176 128.524 196.564C136.567 200.952 159.123 201.367 161.666 198.173C164.208 194.978 162.407 161.681 161.117 151.066C159.827 140.452 152.963 130.712 127.917 131.438C102.87 132.165 106.569 161.733 108.281 169.294C109.353 173.928 111.119 178.374 113.521 182.48Z" fill="white"/>
<path d="M147.004 189.871C147.004 189.871 145.418 221.492 145.648 224.146C145.878 226.8 129.815 219.699 123.07 214.376C116.324 209.054 116.554 204.636 116.991 203.532C117.429 202.427 117.28 168.293 117.28 168.293L147.004 189.871Z" fill="white"/>
<path d="M127.443 175.098C126.978 170.44 126.881 165.753 127.154 161.081C127.666 154.506 128.377 150.629 129.378 151.748C130.379 152.868 135.642 157.315 144.018 153.72C152.394 150.125 150.318 146.619 150.318 146.619C150.318 146.619 160.77 152.934 160.466 141.43C160.162 129.926 151.771 127.087 143.617 130.897C143.617 130.897 135.879 121.038 129.067 124.092C122.255 127.146 112.944 136.167 112.944 136.167C112.944 136.167 100.291 141.215 100.892 153.816C101.492 166.418 114.894 184.259 114.894 184.259L127.443 175.098Z" fill="#0D2265"/>
<path d="M191.123 367.355L197.312 398.688" stroke="#3269E0" stroke-width="0.741248" stroke-miterlimit="10"/>
<path d="M150.473 214.08C153.386 217.149 165.728 241.692 166.728 245.561C167.729 249.43 172.125 261.928 172.125 261.928L184.681 331.205" stroke="#3269E0" stroke-width="0.741248" stroke-miterlimit="10"/>
<path d="M419.547 418.724C421.241 418.061 422.888 417.283 424.476 416.396L419.547 418.724Z" fill="#5094F9"/>
<path d="M309.908 369.423L298.789 374.975C341.781 417.745 385.226 437.44 413.134 421.748L420.302 418.412C392.283 429.457 350.521 409.91 309.908 369.423Z" fill="#FF7F00"/>
<path d="M214.828 226.414C176.668 138.613 173.726 59.0924 211.581 37.8037L200.24 43.1555C162.436 64.4145 165.313 143.728 203.316 231.381L196.015 234.546L222.641 256.531V223.027L214.828 226.414Z" fill="#FF7F00"/>
<path d="M374.16 186.617C374.293 185.697 377.191 167.781 384.9 160.421C392.609 153.06 407.479 151.296 423.727 160.421C439.975 169.546 456.497 198.388 463.658 230.165C470.818 261.942 475.221 306.973 475.221 306.973L412.956 307.47H369.453C369.453 307.47 369.972 304.809 370.261 285.099C370.261 284.157 365.628 265.937 365.643 265.004C365.798 250.964 375.36 237.837 374.145 231.047C371.128 214.272 373.589 190.59 374.16 186.617Z" fill="#FF7F00"/>
<path d="M396.695 171.369C397.169 171.369 416.012 184.615 432.964 179.145C439.635 176.981 442.208 175.202 445.046 170.917C445.528 170.176 444.416 166.047 445.239 165.884C454.06 164.127 451.258 154.024 448.404 149.577C443.104 141.341 416.019 142.246 396.443 152.542C380.491 160.91 396.695 171.369 396.695 171.369Z" fill="#FF7F00"/>
<path d="M418.71 213.22C418.71 213.22 405.641 199.448 414.121 188.144C422.601 176.84 426.33 167.055 445.491 179.382C464.652 191.709 477.001 247.14 481.241 260.178C485.481 273.217 490.707 307.47 490.707 307.47H453.089C453.089 307.47 449.086 288.449 446.966 278.917C444.846 269.384 418.71 213.22 418.71 213.22Z" fill="#FF7F00"/>
<path d="M117.192 199.44C117.192 199.44 133.833 216.941 136.257 217.905C138.681 218.868 142.55 224.672 142.928 223.323C143.306 221.974 145.626 219.936 145.997 211.463L146.093 209.277C146.093 209.277 147.279 213.302 147.576 214.984C147.872 216.667 151.779 229.609 154.091 237.311C154.091 237.311 167.73 282.468 167.775 286.485C167.819 290.503 168.22 291.229 165.217 287.916C162.215 284.602 149.866 266.108 142.758 255.864C135.649 245.62 125.887 231.403 123.241 227.333C120.594 223.264 112.908 211.871 112.455 207.661C112.003 203.45 112.455 200.13 114.627 198.766C116.799 197.402 117.214 197.958 117.214 197.958L117.192 199.44Z" fill="#EAF4FF"/>
<path d="M276.879 406.278C176.907 401.541 105.74 384.04 71.2641 345.911C54.2154 327.016 33.3937 294.305 46.4471 239.66" stroke="url(#paint9_linear_1556_5706)" stroke-width="2.96499" stroke-linecap="round" stroke-linejoin="round"/>
<path d="M387.533 97.3927C386.844 97.2815 367.831 98.5491 363.813 104.968C359.796 111.387 362.694 126.657 363.028 133.069C363.361 139.481 365.385 153.083 369.602 156.396C373.82 159.709 395.82 153.253 404.078 144.536C410.601 137.643 410.193 126.576 410.393 121.179C410.445 119.741 412.372 119.815 412.298 119.156C411.965 116.013 401.936 99.6165 387.533 97.3927Z" fill="white"/>
<path opacity="0.77" d="M214.828 226.414C176.668 138.613 173.726 59.0924 211.581 37.8037L200.24 43.1555C162.436 64.4145 165.313 143.728 203.316 231.381L196.015 234.546L222.641 256.531V223.027L214.828 226.414Z" stroke="#E8F1FF" stroke-width="0.741248" stroke-miterlimit="10"/>
<path opacity="0.77" d="M309.908 369.423L298.789 374.975C341.781 417.745 385.226 437.44 413.134 421.748L419.546 418.724C391.527 429.761 350.521 409.91 309.908 369.423Z" stroke="#E8F1FF" stroke-width="0.741248" stroke-miterlimit="10"/>
<path d="M126.746 109.845C140.817 109.845 152.223 98.4392 152.223 84.3688C152.223 70.2984 140.817 58.8921 126.746 58.8921C112.676 58.8921 101.27 70.2984 101.27 84.3688C101.27 98.4392 112.676 109.845 126.746 109.845Z" fill="url(#paint10_linear_1556_5706)"/>
<path d="M126.746 109.845C140.817 109.845 152.223 98.4392 152.223 84.3688C152.223 70.2984 140.817 58.8921 126.746 58.8921C112.676 58.8921 101.27 70.2984 101.27 84.3688C101.27 98.4392 112.676 109.845 126.746 109.845Z" fill="url(#paint11_linear_1556_5706)"/>
<path d="M120.793 109.845C134.864 109.845 146.27 98.4392 146.27 84.3688C146.27 70.2984 134.864 58.8921 120.793 58.8921C106.723 58.8921 95.3164 70.2984 95.3164 84.3688C95.3164 98.4392 106.723 109.845 120.793 109.845Z" fill="#FF7F00"/>
<path d="M120.824 58.8921H126.754C133.437 59.0061 139.807 61.7407 144.493 66.5068C149.178 71.2729 151.804 77.689 151.804 84.3725C151.804 91.056 149.178 97.4721 144.493 102.238C139.807 107.004 133.437 109.739 126.754 109.853H120.824" stroke="white" stroke-width="0.741248" stroke-miterlimit="10"/>
<path d="M132.869 61.9316H138.807" stroke="white" stroke-width="0.741248" stroke-miterlimit="10"/>
<path d="M138.309 65.8672H144.246" stroke="white" stroke-width="0.741248" stroke-miterlimit="10"/>
<path d="M142.564 71.3081H148.502" stroke="white" stroke-width="0.741248" stroke-miterlimit="10"/>
<path d="M145.537 78.2686H151.467" stroke="white" stroke-width="0.741248" stroke-miterlimit="10"/>
<path d="M146.271 85.8809H152.201" stroke="white" stroke-width="0.741248" stroke-miterlimit="10"/>
<path d="M145.039 92.9155H150.732" stroke="white" stroke-width="0.741248" stroke-miterlimit="10"/>
<path d="M140.979 99.6611H146.909" stroke="white" stroke-width="0.741248" stroke-miterlimit="10"/>
<path d="M135.041 105.391H140.978" stroke="white" stroke-width="0.741248" stroke-miterlimit="10"/>
<path d="M120.793 106.799C133.181 106.799 143.224 96.757 143.224 84.3691C143.224 71.9813 133.181 61.939 120.793 61.939C108.406 61.939 98.3633 71.9813 98.3633 84.3691C98.3633 96.757 108.406 106.799 120.793 106.799Z" stroke="white" stroke-width="0.741248" stroke-miterlimit="10"/>
<path d="M122.557 82.3825H115.145V74.9033H122.557C123.54 74.9033 124.483 75.2938 125.178 75.9889C125.873 76.6839 126.263 77.6266 126.263 78.6096V78.6096C126.272 79.1019 126.183 79.591 126.001 80.0484C125.818 80.5058 125.547 80.9222 125.202 81.2735C124.857 81.6248 124.445 81.9037 123.991 82.0941C123.537 82.2846 123.049 82.3826 122.557 82.3825Z" stroke="white" stroke-width="0.741248" stroke-miterlimit="10"/>
<path d="M125.063 92.3224H115.123V86.1626H125.063C125.881 86.1626 126.665 86.4875 127.244 87.0658C127.822 87.644 128.147 88.4284 128.147 89.2462V89.2462C128.147 89.6508 128.067 90.0514 127.912 90.4251C127.757 90.7988 127.53 91.1383 127.243 91.424C126.957 91.7098 126.617 91.9362 126.243 92.0903C125.869 92.2445 125.468 92.3233 125.063 92.3224V92.3224Z" stroke="white" stroke-width="0.741248" stroke-miterlimit="10"/>
<path d="M128.161 83.1236C129.395 82.5037 130.383 81.4852 130.966 80.2331C131.549 78.9811 131.692 77.5689 131.372 76.2254C131.052 74.8819 130.288 73.6858 129.203 72.831C128.118 71.9762 126.777 71.5127 125.396 71.5157H123.832V68.395H120.615V71.5157H116.908V68.395H113.699V71.5157H108.732V74.6437H111.371V92.6561H108.732V96.2659H113.699V98.9715H116.908V96.2882H120.615V98.9937H123.832V96.2882H126.863C128.481 96.2353 130.024 95.5962 131.206 94.4898C132.387 93.3835 133.126 91.8854 133.284 90.2747C133.443 88.664 133.011 87.0505 132.068 85.7349C131.126 84.4193 129.737 83.4912 128.161 83.1236V83.1236Z" stroke="white" stroke-width="0.741248" stroke-miterlimit="10"/>
<path d="M120.793 109.845C134.864 109.845 146.27 98.4392 146.27 84.3688C146.27 70.2984 134.864 58.8921 120.793 58.8921C106.723 58.8921 95.3164 70.2984 95.3164 84.3688C95.3164 98.4392 106.723 109.845 120.793 109.845Z" stroke="white" stroke-width="0.741248" stroke-miterlimit="10"/>
<path d="M344.666 130.186H272.35V154.943H325.178L344.666 164.157V130.186Z" fill="#4F92FD"/>
<path d="M278.695 140.141H328.195V134.44H278.695V140.141Z" fill="white"/>
<path d="M278.688 145.7H335.016V144.254H278.688V145.7Z" fill="white"/>
<path d="M214.459 168.101H269.104V192.851H233.954L214.459 202.072V168.101Z" fill="#E9F3FF"/>
<path d="M252.595 172.355H219.172V178.055H252.595V172.355Z" fill="#FF7F00"/>
<path d="M257.205 182.162H219.172V183.607H257.205V182.162Z" fill="#FF7F00"/>
<path d="M507.14 151.089H485.592V172.637H507.14V151.089Z" stroke="white" stroke-width="0.741248" stroke-miterlimit="10"/>
<path d="M272.816 94.1607C275.596 94.1607 277.849 92.7735 277.849 91.0623C277.849 89.3511 275.596 87.9639 272.816 87.9639C270.037 87.9639 267.783 89.3511 267.783 91.0623C267.783 92.7735 270.037 94.1607 272.816 94.1607Z" fill="white"/>
<path d="M294.914 185.09C297.694 185.09 299.947 182.886 299.947 180.168C299.947 177.45 297.694 175.246 294.914 175.246C292.134 175.246 289.881 177.45 289.881 180.168C289.881 182.886 292.134 185.09 294.914 185.09Z" fill="white"/>
<path d="M328.57 362.214C329.134 360.23 327.425 358.004 324.752 357.243C322.078 356.482 319.453 357.474 318.888 359.458C318.323 361.443 320.033 363.668 322.706 364.429C325.379 365.19 328.005 364.199 328.57 362.214Z" fill="white"/>
<path d="M281.386 463.828C294.163 463.828 304.521 453.471 304.521 440.694C304.521 427.917 294.163 417.56 281.386 417.56C268.61 417.56 258.252 427.917 258.252 440.694C258.252 453.471 268.61 463.828 281.386 463.828Z" fill="url(#paint12_linear_1556_5706)"/>
<path d="M275.996 417.56H281.385C287.521 417.56 293.405 419.997 297.743 424.335C302.082 428.674 304.519 434.558 304.519 440.694C304.519 446.83 302.082 452.714 297.743 457.052C293.405 461.391 287.521 463.828 281.385 463.828H275.996" stroke="#E8F1FF" stroke-width="0.741248" stroke-miterlimit="10"/>
<path d="M275.998 463.828C288.774 463.828 299.132 453.471 299.132 440.694C299.132 427.917 288.774 417.56 275.998 417.56C263.221 417.56 252.863 427.917 252.863 440.694C252.863 453.471 263.221 463.828 275.998 463.828Z" fill="url(#paint13_linear_1556_5706)"/>
<path d="M267.494 439.812L275.685 422.867L284.506 439.812L275.996 444.082L267.494 439.812Z" stroke="#E8F1FF" stroke-width="0.741248" stroke-linecap="round" stroke-linejoin="round"/>
<path d="M267.494 442.547L275.996 447.477L284.506 442.547L275.996 456.705L267.494 442.547Z" stroke="#E8F1FF" stroke-width="0.741248" stroke-linecap="round" stroke-linejoin="round"/>
<path d="M286.988 420.347H292.481" stroke="#E8F1FF" stroke-width="0.741248" stroke-miterlimit="10"/>
<path d="M292.318 424.246H297.692" stroke="#E8F1FF" stroke-width="0.741248" stroke-miterlimit="10"/>
<path d="M296.447 429.917H301.821" stroke="#E8F1FF" stroke-width="0.741248" stroke-miterlimit="10"/>
<path d="M299.131 437.173H304.505" stroke="#E8F1FF" stroke-width="0.741248" stroke-miterlimit="10"/>
<path d="M298.887 444.734H304.261" stroke="#E8F1FF" stroke-width="0.741248" stroke-miterlimit="10"/>
<path d="M296.447 451.146H301.821" stroke="#E8F1FF" stroke-width="0.741248" stroke-miterlimit="10"/>
<path d="M292.482 457.031H297.856" stroke="#E8F1FF" stroke-width="0.741248" stroke-miterlimit="10"/>
<path d="M288.324 460.271H293.847" stroke="#E8F1FF" stroke-width="0.741248" stroke-miterlimit="10"/>
<path d="M275.998 463.828C288.774 463.828 299.132 453.471 299.132 440.694C299.132 427.917 288.774 417.56 275.998 417.56C263.221 417.56 252.863 427.917 252.863 440.694C252.863 453.471 263.221 463.828 275.998 463.828Z" stroke="#E8F1FF" stroke-width="0.741248" stroke-miterlimit="10"/>
<path d="M275.996 461.138C287.287 461.138 296.44 451.985 296.44 440.695C296.44 429.404 287.287 420.251 275.996 420.251C264.706 420.251 255.553 429.404 255.553 440.695C255.553 451.985 264.706 461.138 275.996 461.138Z" stroke="#E8F1FF" stroke-width="0.741248" stroke-miterlimit="10"/>
<path d="M403.171 78.7872C413.23 78.7872 421.384 70.6332 421.384 60.5748C421.384 50.5163 413.23 42.3623 403.171 42.3623C393.113 42.3623 384.959 50.5163 384.959 60.5748C384.959 70.6332 393.113 78.7872 403.171 78.7872Z" fill="url(#paint14_linear_1556_5706)"/>
<path d="M399.184 42.3623H403.424C408.254 42.3623 412.886 44.2811 416.302 47.6966C419.717 51.1121 421.636 55.7445 421.636 60.5748C421.636 65.405 419.717 70.0374 416.302 73.4529C412.886 76.8684 408.254 78.7872 403.424 78.7872H399.184" stroke="#E8F1FF" stroke-width="0.741248" stroke-miterlimit="10"/>
<path d="M399.185 78.7872C409.244 78.7872 417.398 70.6332 417.398 60.5748C417.398 50.5163 409.244 42.3623 399.185 42.3623C389.127 42.3623 380.973 50.5163 380.973 60.5748C380.973 70.6332 389.127 78.7872 399.185 78.7872Z" fill="url(#paint15_linear_1556_5706)"/>
<path d="M397.806 64.348L399.556 57.6915H402.713L403.974 53.7703H400.586L401.876 48.8633H397.599L396.339 53.7703H392.418L391.432 57.6915H395.331L392.418 69.0401H408.391L410.089 64.348H397.806Z" stroke="#E8F1FF" stroke-width="0.741248" stroke-miterlimit="10"/>
<path d="M409.725 45.7202H413.965" stroke="#E8F1FF" stroke-width="0.741248" stroke-miterlimit="10"/>
<path d="M413.158 48.8633H417.398" stroke="#E8F1FF" stroke-width="0.741248" stroke-miterlimit="10"/>
<path d="M415.906 53.2139H420.154" stroke="#E8F1FF" stroke-width="0.741248" stroke-miterlimit="10"/>
<path d="M417.396 58.603H421.636" stroke="#E8F1FF" stroke-width="0.741248" stroke-miterlimit="10"/>
<path d="M417.145 64.0586H421.384" stroke="#E8F1FF" stroke-width="0.741248" stroke-miterlimit="10"/>
<path d="M415.277 69.0469H419.517" stroke="#E8F1FF" stroke-width="0.741248" stroke-miterlimit="10"/>
<path d="M411.037 74.3027H415.277" stroke="#E8F1FF" stroke-width="0.741248" stroke-miterlimit="10"/>
<path d="M399.185 78.7872C409.244 78.7872 417.398 70.6332 417.398 60.5748C417.398 50.5163 409.244 42.3623 399.185 42.3623C389.127 42.3623 380.973 50.5163 380.973 60.5748C380.973 70.6332 389.127 78.7872 399.185 78.7872Z" stroke="#E8F1FF" stroke-width="0.741248" stroke-miterlimit="10"/>
<path d="M399.185 76.1927C407.81 76.1927 414.803 69.2003 414.803 60.5746C414.803 51.949 407.81 44.9565 399.185 44.9565C390.559 44.9565 383.566 51.949 383.566 60.5746C383.566 69.2003 390.559 76.1927 399.185 76.1927Z" stroke="#E8F1FF" stroke-width="0.741248" stroke-miterlimit="10"/>
<path d="M110.994 395.93C110.994 395.93 150.436 416.759 216.837 423.156" stroke="#E8F1FF" stroke-width="0.741248" stroke-miterlimit="10"/>
<path d="M55.5273 168.293V84.3691H80.1813" stroke="#E8F1FF" stroke-width="0.741248" stroke-miterlimit="10"/>
<path d="M430.955 66.4824C430.955 66.4824 468.855 73.717 493.961 92.6707" stroke="#E8F1FF" stroke-width="0.741248" stroke-miterlimit="10"/>
<path d="M493.989 97.5038C496.658 97.5038 498.822 95.34 498.822 92.6708C498.822 90.0017 496.658 87.8379 493.989 87.8379C491.32 87.8379 489.156 90.0017 489.156 92.6708C489.156 95.34 491.32 97.5038 493.989 97.5038Z" fill="white"/>
<path d="M471.752 126.153H507.139" stroke="white" stroke-width="0.741248" stroke-miterlimit="10"/>
<path d="M475.221 134.396H507.139" stroke="white" stroke-width="0.741248" stroke-miterlimit="10"/>
<path d="M463.777 141.356H507.14" stroke="white" stroke-width="0.741248" stroke-miterlimit="10"/>
<path d="M259.029 237.155C260.815 234.884 263.07 233.024 265.64 231.704C268.209 230.383 271.034 229.632 273.92 229.502C276.806 229.372 279.687 229.865 282.365 230.949C285.043 232.034 287.456 233.682 289.439 235.783C291.422 237.885 292.929 240.389 293.857 243.125C294.784 245.861 295.111 248.765 294.814 251.639C294.518 254.513 293.605 257.29 292.138 259.779C290.671 262.268 288.685 264.412 286.315 266.064" stroke="white" stroke-width="5.92998" stroke-miterlimit="10"/>
<path d="M277.181 269.548C273.806 269.947 270.385 269.485 267.238 268.204C264.091 266.922 261.32 264.863 259.184 262.22C257.049 259.576 255.618 256.435 255.027 253.088C254.436 249.742 254.703 246.3 255.803 243.085" stroke="#4F92FD" stroke-width="11.1187" stroke-miterlimit="10"/>
<path d="M146.506 200.248C146.506 200.248 146.506 213.101 145.439 217.905C144.372 222.708 143.801 223.464 142.934 223.323C142.066 223.182 137.448 218.661 136.262 217.905C133.957 216.422 117.509 201.597 117.301 199.803C117.094 198.01 117.301 187.691 117.301 187.691" stroke="#898989" stroke-width="0.741248" stroke-linecap="round"/>
<path d="M147.004 211.019C147.004 211.019 152.119 215.725 154.824 218.75C157.53 221.774 166.373 233.078 165.202 233.33C164.03 233.582 158.167 234.761 157.485 235.183C156.803 235.606 157.767 236.295 158.389 236.74C159.012 237.185 169.049 243.196 169.16 245.865C169.271 248.533 168.737 270.719 168.419 272.312C168.1 273.906 158.99 240.617 156.67 237.355C154.35 234.094 147.004 211.019 147.004 211.019Z" fill="#AFCAFF"/>
<path d="M147.99 211.589C147.99 211.589 163.734 227.222 165.595 233.249C165.595 233.249 156.114 235.154 156.781 235.613C157.449 236.073 167.159 242.981 168.797 244.508C170.435 246.035 167.033 279.406 170.02 292.156" stroke="#3269E0" stroke-width="0.741248" stroke-miterlimit="10"/>
<path d="M421.637 210.255C421.637 210.255 434.082 241.758 437.944 250.238C441.806 258.718 450.019 276.485 451.212 277.923C456.683 284.498 451.168 306.699 453.103 307.47" stroke="#ED6921" stroke-width="0.741248" stroke-linecap="round"/>
<path d="M428.672 166.143C428.672 166.143 439.101 181.635 440.05 182.888C440.999 184.141 444.371 203.354 445.239 208.209C446.106 213.064 455.979 245.338 460.679 245.916C465.378 246.494 457.269 257.131 458.144 261.001C459.019 264.87 471.234 266.612 473.087 274.106C474.941 281.6 481.612 307.462 481.612 307.462H490.707C490.707 307.462 481.367 256.546 475.467 238.526C469.567 220.506 457.217 190.293 449.886 183.674C442.555 177.054 433.038 165.446 433.038 165.446L428.672 166.143Z" fill="url(#paint16_linear_1556_5706)"/>
<path d="M434.912 146.337C434.912 146.337 442.169 148.302 442.458 151.089C442.747 153.876 438.789 165.84 440.16 165.765C441.532 165.691 454.867 166.633 449.878 152.727C447.387 145.781 436.654 144.625 436.654 144.625C436.654 144.625 436.321 142.905 433.838 144.884C431.354 146.864 434.912 146.337 434.912 146.337Z" fill="url(#paint17_linear_1556_5706)"/>
<path d="M440.783 174.371C447.892 172.392 444.29 166.069 445.231 165.884C450.086 164.943 452.643 160.806 449.871 152.727C447.818 146.649 439.086 145.203 439.086 145.203" stroke="#ED6921" stroke-width="0.741248" stroke-linecap="round"/>
<path d="M407.168 166.929C407.168 166.929 426.989 168.864 442.748 165.884" stroke="#ED6921" stroke-width="0.741248" stroke-linecap="round"/>
<path d="M437.648 170.961C437.648 170.961 442.422 177.455 443.949 178.411C445.476 179.367 453.852 183.926 465.994 211.589C478.135 239.253 490.707 307.47 490.707 307.47" stroke="#ED6921" stroke-width="0.741248" stroke-linecap="round"/>
<path d="M299.464 307.67C299.464 307.67 291.547 313.222 288.263 314.571C284.98 315.92 276.233 315.557 273.498 316.995C270.762 318.433 267.568 322.184 267.056 322.969C266.401 324.08 265.547 325.06 264.536 325.86C263.209 326.839 259.74 329.603 255.678 330.982C251.616 332.361 249.748 332.909 249.748 332.909L253.084 349.135C253.084 349.135 254.359 351.085 255.597 350.529C256.834 349.973 258.702 349.536 261.838 349.743C264.973 349.951 277.782 355.125 281.622 354.761C285.461 354.398 284.335 351.537 284.335 351.537C284.335 351.537 287.715 352.412 289.412 349.854C291.11 347.297 289.99 346.6 289.99 346.6C289.99 346.6 293.393 345.859 293.452 343.443C293.511 341.026 294.001 341.374 294.282 341.167C294.564 340.959 296.247 338.773 295.505 336.868C294.764 334.963 294.846 334.748 295.416 333.51C295.987 332.272 298.663 326.757 299.33 325.838C300.267 324.775 301.283 323.783 302.369 322.873L299.464 307.67Z" fill="white"/>
<path d="M290.073 313.11C290.073 313.11 290.814 312.503 288.709 314.274C286.604 316.046 275.974 316.016 274.225 316.609C272.476 317.202 267.761 322.161 267.761 322.161C267.267 322.714 266.944 323.398 266.829 324.13C266.715 324.863 266.815 325.613 267.116 326.29C268.176 328.64 268.969 333.932 270.986 334.829C273.002 335.726 273.639 335.34 274.188 331.864C274.736 328.388 272.542 324.237 272.98 323.429" stroke="#898989" stroke-width="0.741248" stroke-linecap="round"/>
<path d="M275.744 322.583C277.684 324.14 280.035 325.097 282.511 325.336C284.986 325.576 287.477 325.088 289.68 323.933" stroke="#898989" stroke-width="0.741248" stroke-linecap="round"/>
<path d="M300.525 324.311C299.169 325.534 297.457 328.877 294.447 335.592" stroke="#898989" stroke-width="0.741248" stroke-linecap="round"/>
<path d="M273.521 324.311C273.521 324.311 279.859 327.387 282.654 328.647C285.448 329.907 292.609 333.569 293.372 333.925C294.136 334.28 296.189 337.342 295.944 338.809C295.7 340.277 293.98 341.27 293.58 341.5C293.179 341.73 280.4 334.303 280.4 334.303" stroke="#898989" stroke-width="0.741248" stroke-linecap="round"/>
<path d="M276.441 340.277C276.441 340.277 286.641 345.192 288.086 346.044C288.674 346.434 289.368 346.632 290.073 346.611C290.778 346.589 291.459 346.35 292.022 345.926C292.83 345.184 293.964 342.961 293.386 341.923" stroke="#898989" stroke-width="0.741248" stroke-linecap="round"/>
<path d="M274.41 346.704C274.41 346.704 284.187 351.804 285.9 351.678C287.612 351.552 289.265 350.759 289.658 349.172C289.9 348.329 289.913 347.436 289.695 346.585" stroke="#898989" stroke-width="0.741248" stroke-linecap="round"/>
<path d="M257.436 349.758C257.436 349.758 258.718 349.276 261.809 349.758C264.9 350.24 277.331 354.376 280.029 354.769C282.727 355.162 283.735 353.79 284.476 352.078" stroke="#898989" stroke-width="0.741248" stroke-linecap="round"/>
<path d="M253.959 331.427C254.293 331.479 255.96 330.952 258.406 329.885C260.853 328.818 266.034 324.667 266.849 324.125" stroke="#898989" stroke-width="0.741248" stroke-linecap="round"/>
<path d="M119.992 256.539C136.255 275.507 171.197 331.279 174.407 333.399C175.482 334.14 182.064 329.781 195.162 329.648C221.906 329.381 252.735 326.594 252.668 327.632C252.564 329.196 258.813 354.598 256.849 356.496C254.884 358.393 156.469 373.218 152.57 370.839C148.671 368.46 91.7356 305.202 80.4167 289.532C69.0978 273.862 74.5683 250.905 91.3205 245.561C108.073 240.216 116.723 252.766 119.992 256.539Z" fill="url(#paint18_linear_1556_5706)"/>
<path d="M353.991 185.134C353.991 185.134 345.096 242.759 338.047 252.291C330.998 261.824 284.084 311.243 284.084 313.007C284.084 313.748 288.858 308.374 296.337 316.417C301.763 322.258 301.985 331.938 302.756 332.22C303.86 332.62 314.134 324.133 324.83 316.417C341.501 304.401 346.92 298.011 348.639 297.144C351.471 295.736 387.184 251.305 389.986 247.021C392.788 242.737 411.267 178.485 403.329 165.765C395.39 153.046 355.755 174.89 353.991 185.134Z" fill="#FF7F00"/>
<path d="M342.332 243.871C342.332 243.871 339.1 253.062 326.728 266.108C314.357 279.154 283.402 313.044 283.402 313.044C283.402 313.044 298.783 304.26 302.749 331.812C303.246 335.252 346.386 298.671 351.182 294.75C355.978 290.829 368.327 274.514 368.327 274.514" stroke="#ED6921" stroke-width="0.741248" stroke-linecap="round"/>
<path d="M384.664 163.623C379.468 165.211 374.488 167.437 369.839 170.25C362.908 174.631 356.393 180.131 354.888 182.851C351.923 188.321 350.626 204.933 346.401 225.992C342.176 247.051 340.864 254.07 338.736 256.501" stroke="#ED6921" stroke-width="0.741248" stroke-linecap="round"/>
<path d="M360.188 203.272C360.188 203.272 360.247 228.304 360.988 238.904C361.351 244.456 370.847 283.564 370.847 286.307C370.847 294.061 370.261 307.47 370.261 307.47" stroke="#ED6921" stroke-width="0.741248" stroke-linecap="round"/>
<path d="M413.067 163.171C413.067 163.171 387.924 168.864 385.352 164.698C385.352 164.698 383.743 157.182 382.335 145.292C380.927 133.402 404.936 115.509 406.47 118.607C408.004 121.706 407.167 139.829 413.067 163.171Z" fill="white"/>
<path d="M362.471 108.771C361.969 114.341 361.915 119.943 362.308 125.523C363.049 133.069 363.471 139.851 364.442 143.98C365.413 148.109 367.022 153.616 368.593 155.439C370.165 157.263 372.878 157.663 378.711 156.803C384.545 155.944 393.047 151.429 393.047 151.429" stroke="#898989" stroke-width="0.741248" stroke-linecap="round"/>
<path d="M385.352 164.698C384.907 162.371 383.654 155.484 383.654 155.484" stroke="#898989" stroke-width="0.741248" stroke-linecap="round"/>
<path d="M407.791 128.236C407.791 128.236 407.828 133.239 408.532 140.266C409.376 147.895 410.864 155.438 412.98 162.815" stroke="#898989" stroke-width="0.741248" stroke-linecap="round"/>
<path d="M388.858 128.814C388.814 128.436 388.821 121.698 384.537 117.844C380.252 113.989 386.975 107.933 385.945 108.141C384.915 108.349 362.544 111.462 361.098 109.705C359.653 107.948 354.523 102.641 371.291 96.8073C388.058 90.9737 401.682 94.2574 403.839 97.7709C403.839 97.7709 408.872 96.5701 411.036 104.368C415.914 121.921 408.286 137.895 408.286 137.895C408.286 137.895 403.839 130.564 402.742 130.186C398.286 128.642 393.529 128.172 388.858 128.814Z" fill="#0D2265"/>
<path d="M393.204 129.081C393.322 128.644 393.463 122.462 399.534 122.714C405.605 122.966 404.96 129.615 403.129 132.609C401.298 135.604 398.066 137.902 396.799 137.657C395.531 137.413 392.41 131.942 393.204 129.081Z" fill="white"/>
<path d="M143.861 184.645C149.095 187.914 155.469 188.047 159.731 185.386" stroke="#9C9C9C" stroke-width="0.741248" stroke-linecap="round"/>
<path d="M152.09 185.03C151.138 185.641 150.118 186.138 149.051 186.513C155.114 187.566 158.576 185.616 158.227 185.586C157.578 185.225 156.969 184.795 156.411 184.304C156.226 184.171 156.07 184.23 155.01 184.675C153.95 185.119 152.698 184.519 152.09 185.03Z" fill="#9C9C9C"/>
<path d="M151.273 189.901C153.334 190.065 155.406 189.776 157.344 189.056" stroke="#9C9C9C" stroke-width="0.741248" stroke-linecap="round"/>
<path d="M156.025 175.816C155.284 175.424 148.479 178.448 147.871 178.67C151.064 179.371 154.391 179.14 157.455 178.003C157.344 177.677 156.61 176.128 156.025 175.816Z" fill="#9C9C9C"/>
<path d="M154.973 162.333C154.973 162.333 157.322 161.407 158.968 162.333" stroke="#113291" stroke-width="0.741248" stroke-linecap="round"/>
<path d="M144.572 168.87C145.455 168.817 146.099 167.584 146.01 166.117C145.922 164.65 145.135 163.504 144.253 163.557C143.37 163.61 142.726 164.843 142.814 166.31C142.902 167.777 143.689 168.923 144.572 168.87Z" fill="#113291"/>
<path d="M157.346 166.58C158.118 166.534 158.679 165.413 158.599 164.077C158.518 162.74 157.827 161.695 157.055 161.741C156.282 161.788 155.721 162.908 155.802 164.245C155.882 165.581 156.573 166.627 157.346 166.58Z" fill="#113291"/>
<path d="M137.754 168.263C137.976 168.448 140.556 164.09 144.269 163.512" stroke="#113291" stroke-width="0.741248" stroke-linecap="round"/>
<path d="M377.184 141.778C376.65 142.816 370.646 145.359 366.361 143.683" stroke="#9C9C9C" stroke-width="0.741248" stroke-linecap="round"/>
<path d="M373.196 142.082C374.15 142.472 375.145 142.753 376.161 142.92C370.869 144.877 367.43 143.661 367.733 143.609C368.037 143.557 369.008 142.297 369.157 142.127C369.305 141.956 369.461 142.008 370.484 142.231C371.506 142.453 372.581 141.719 373.196 142.082Z" fill="#9C9C9C"/>
<path d="M379.631 117.206C382.352 118.036 383.775 118.97 385.628 119.771C387.941 120.771 387.007 121.253 385.628 121.149C382.067 120.853 378.49 120.821 374.924 121.053C372.812 121.142 373.375 119.259 373.271 117.665C373.583 116.798 374.235 119.459 374.628 119.422C375.021 119.385 374.672 117.843 374.798 117.495C374.924 117.147 377.163 116.45 379.631 117.206Z" fill="#0E1E66"/>
<path d="M361.685 120.253C360.986 120.918 360.227 121.516 359.417 122.039C359.313 122.521 360.158 123.855 361.855 122.669C363.212 121.713 367.044 122.462 367.363 121.928C367.682 121.394 366.733 118.733 366.318 118.585C365.903 118.437 366.903 120.312 366.221 120.572C365.947 120.683 365.829 118.97 365.184 118.993C364.539 119.015 362.471 119.452 361.685 120.253Z" fill="#0E1E66"/>
<path d="M374.73 146.337C372.9 146.828 370.985 146.911 369.119 146.582" stroke="#9C9C9C" stroke-width="0.741248" stroke-linecap="round"/>
<path d="M368.118 134.426C368.719 133.951 372.892 135.767 373.485 135.864C368.86 137.717 367.792 136.723 367.199 136.605C367.328 135.816 367.643 135.069 368.118 134.426Z" fill="#9C9C9C"/>
<path d="M365.901 125.152C365.901 125.152 363.848 124.722 363.188 126.323C362.921 126.961 363.188 128.547 362.729 129.066" stroke="#113291" stroke-width="0.741248" stroke-linecap="round"/>
<path d="M377.482 128.59C378.275 128.424 378.695 127.221 378.419 125.903C378.144 124.584 377.277 123.65 376.483 123.816C375.69 123.982 375.27 125.185 375.546 126.503C375.822 127.822 376.688 128.756 377.482 128.59Z" fill="#113291"/>
<path d="M365.636 129.649C366.329 129.504 366.688 128.412 366.436 127.21C366.185 126.008 365.419 125.151 364.726 125.296C364.033 125.441 363.674 126.533 363.926 127.735C364.177 128.937 364.943 129.794 365.636 129.649Z" fill="#113291"/>
<path d="M382.557 126.472C382.409 126.694 379.081 123.462 375.656 123.848" stroke="#113291" stroke-width="0.741248" stroke-linecap="round"/>
<path d="M159.472 144.811C159.472 144.811 161.118 148.42 161.733 157.293C162.348 166.166 165.595 196.817 160.599 198.899C155.603 200.982 142.549 200.627 133.654 196.742" stroke="#898989" stroke-width="0.741248" stroke-linecap="round"/>
<path d="M158.805 155.514C160.717 156.596 161.511 155.988 161.711 156.173C161.955 156.648 161.903 157.745 159.317 158.108C157.53 158.36 153.809 159.368 153.32 158.946C152.831 158.523 153.068 155.402 153.461 155.128C153.854 154.854 153.342 157.115 154.135 157.196C154.454 157.196 154.083 155.395 154.773 155.232C155.462 155.069 157.715 154.921 158.805 155.514Z" fill="#0E1E66"/>
<path d="M140.096 235.094C140.096 235.094 144.306 239.653 145.233 240.223C146.159 240.794 147.745 239.979 148.249 239.645C148.753 239.312 149.102 238.089 149.102 236.347C149.102 234.605 149.235 232.796 148.539 231.899C147.842 231.002 144.091 226.155 143.735 226.036C143.379 225.917 142.92 226.814 142.557 227.793C142.193 228.771 139.681 234.553 139.784 234.716C139.878 234.85 139.982 234.976 140.096 235.094Z" fill="#FF7F00"/>
<path d="M152.14 244.767C152.14 244.767 150.042 239.934 149.094 239.408C148.145 238.882 146.729 240.342 146.247 240.705C145.765 241.068 145.691 244.115 145.773 245.85C145.854 247.584 145.462 260.674 146.203 261.549C146.944 262.424 155.913 275.24 156.306 275.336C156.699 275.433 167.484 290.94 167.795 289.939C168.107 288.938 166.313 272.89 160.909 260.637C160.85 260.452 152.14 244.767 152.14 244.767Z" fill="#FF7F00"/>
<path d="M147.582 215.703C147.582 215.703 158.086 252.602 161.718 262.847C168.937 283.231 167.766 289.709 167.766 289.709C167.766 289.709 176.854 329.27 177.195 332.502" stroke="#3269E0" stroke-width="0.741248" stroke-miterlimit="10"/>
<path d="M149.295 239.297L160.91 260.638" stroke="#3269E0" stroke-width="0.741248" stroke-miterlimit="10"/>
<path d="M366.754 307.47H513.351V215.703" stroke="url(#paint19_linear_1556_5706)" stroke-width="2.96499" stroke-linecap="round" stroke-linejoin="round"/>
<path d="M384.33 164.609C383.393 167.35 382.893 170.222 382.848 173.118" stroke="#ED6921" stroke-width="0.741248" stroke-linecap="round"/>
<path d="M396.486 165.884C396.145 166.351 386.109 168.849 383.885 172.629" stroke="#ED6921" stroke-width="0.741248" stroke-linecap="round"/>
<path d="M396.441 165.432C415.87 165.884 456.66 149.199 432.963 145.203C420.361 143.083 410.362 147.427 409.836 147.783" stroke="#ED6921" stroke-width="0.741248" stroke-linecap="round"/>
<path d="M393.277 128.54C393.277 128.54 393.507 122.662 399.533 122.714C405.56 122.766 404.381 129.541 403.366 132.936C402.35 136.33 398.777 137.02 398.777 137.02" stroke="#898989" stroke-width="0.741248" stroke-linecap="round"/>
<path d="M116.071 200.137C116.071 200.137 115.856 201.575 121.001 206.734C126.145 211.893 135.418 218.49 134.995 219.069C134.573 219.647 127.746 229.869 127.531 230.884C127.316 231.9 117.746 219.024 115.908 215.681C114.07 212.338 111.98 206.882 112.202 202.895C112.424 198.907 115.908 197.854 116.056 198.291C116.205 198.729 115.93 198.996 116.071 200.137Z" fill="url(#paint20_linear_1556_5706)"/>
<path d="M253.624 333.028C253.491 332.383 252.083 341.923 252.527 346.578C252.972 351.233 212.441 356.622 201.618 358.023C190.796 359.424 159.464 357.044 158.085 353.375C156.706 349.706 157.344 343.316 163.718 337.386C170.093 331.456 163.526 331.909 155.194 332.939C146.862 333.969 134.328 339.247 127.946 333.769C123.654 330.063 115.515 319.559 110.652 313.066C109.57 310.412 100.104 288.308 92.1879 279.799C84.2714 271.289 88.1852 253.47 82.2181 251.565C77.7706 250.141 73.7012 257.154 73.7012 257.154C73.931 263.477 77.5482 298.419 78.8899 309.552C80.2316 320.686 84.1305 356.051 84.7161 357.037C85.3017 358.023 103.699 371.121 103.699 371.121C103.551 369.438 134.787 374.197 134.943 372.499C134.988 372.092 103.989 364.116 104.04 363.715C105.523 352.271 136.618 355.354 133.92 351.181C130.733 346.252 146.662 364.071 148.864 366.799C153.311 372.314 154.379 371.247 157.084 371.121C159.79 370.995 176.92 369.193 186.964 367.933C197.008 366.673 244.381 359.305 247.694 358.712C251.008 358.119 257.153 357.756 257.909 354.843C258.665 351.93 253.758 333.665 253.624 333.028ZM81.1211 292.163V292.2V292.163Z" fill="url(#paint21_linear_1556_5706)"/>
<path d="M167.834 338.884C170.341 337.651 172.944 336.625 175.617 335.815" stroke="#3269E0" stroke-width="0.741248" stroke-miterlimit="10"/>
<path d="M108.082 215.511C108.082 215.511 98.1645 226.629 95.2662 230.966C92.3679 235.302 92.8349 245.116 92.8349 245.116C92.8349 245.116 80.7378 247.466 74.4668 254.33C74.4668 254.33 75.4823 247.221 82.9541 238.311C90.4259 229.402 102.968 216.897 105.555 214.888C108.142 212.879 108.312 211.3 108.312 211.3L108.082 215.511Z" fill="url(#paint22_linear_1556_5706)"/>
<path d="M73.694 257.124C73.694 257.124 72.8119 252.025 84.9091 247.577C97.0062 243.13 105.508 238.082 120.978 262.061C131.786 278.806 153.934 300.51 162.392 320.62C163.326 322.843 174.252 329.366 174.993 331.168C177.446 336.727 174.141 336.267 174.993 335.978C192.227 330.048 206.778 330.5 223.345 329.44C240.104 328.373 253.321 326.809 253.269 327.595C253.172 329.159 259.421 354.561 257.457 356.459C255.492 358.357 157.144 373.219 153.23 370.839C149.316 368.46 103.5 318.996 92.1807 303.326" stroke="#3269E0" stroke-width="0.741248" stroke-miterlimit="10"/>
<path d="M137.42 359.327C127.554 358.586 101.64 349.135 101.64 349.135C101.64 349.135 100.483 360.491 99.5122 361.648C98.5412 362.804 133.209 372.477 135.411 372.477C137.612 372.477 137.42 359.327 137.42 359.327Z" fill="url(#paint23_linear_1556_5706)"/>
<path d="M101.64 349.128C101.64 349.128 100.483 360.484 99.5122 361.64C98.5412 362.797 133.209 372.47 135.411 372.47C137.612 372.47 137.42 359.32 137.42 359.32" stroke="#3269E0" stroke-width="0.741248" stroke-miterlimit="10"/>
<path d="M148.012 241.276C148.012 241.276 153.586 265.063 154.261 267.094C154.936 269.125 157.382 277.13 157.382 277.13C157.382 277.13 147.664 263.046 147.004 262.379C146.344 261.712 146.211 261.972 146.018 261.001C145.826 260.03 145.981 242.692 146.018 241.832C146.055 240.972 145.759 240.468 146.626 240.253C147.493 240.038 147.656 240.127 147.686 240.253L148.012 241.276Z" fill="#F4742C"/>
<path d="M145.744 240.794L146.204 261.549" stroke="#3269E0" stroke-width="0.741248" stroke-miterlimit="10"/>
<path d="M141.704 229.787C141.704 229.787 145.321 236.57 146.018 237.548C146.714 238.526 147.871 239.638 147.582 239.772C147.18 239.982 146.734 240.092 146.281 240.092C145.828 240.092 145.381 239.982 144.98 239.772C143.675 239.09 139.428 235.406 139.613 234.954C139.799 234.501 141.704 229.787 141.704 229.787Z" fill="#F4742C"/>
<path d="M129.199 232.381C129.199 232.381 137.42 239.519 137.805 238.904C138.191 238.289 142.831 226.347 143.313 225.932C143.794 225.517 150.177 234.316 151.148 235.094C152.119 235.872 152.111 231.032 152.111 231.032" stroke="#3269E0" stroke-width="0.741248" stroke-miterlimit="10"/>
<path d="M139.613 234.976C139.613 234.976 144.691 240.283 145.721 240.513C146.751 240.743 149.064 239.245 149.064 238.978V233.048" stroke="#3269E0" stroke-width="0.741248" stroke-miterlimit="10"/>
<path d="M116.805 217.364C116.805 217.364 129.658 237.466 130.251 238.356C130.844 239.245 127.167 240.387 125.211 243.085C123.254 245.783 119.777 254.085 119.599 249.964C119.421 245.842 119.118 240.735 119.733 238.304C120.348 235.873 121.104 233.819 119.933 233.938C118.762 234.057 108.814 233.16 107.443 231.129C106.072 229.098 107.124 223.716 107.191 223.042C107.258 222.367 108.095 213.405 108.31 211.3C108.525 209.195 108.71 206.512 109.259 205.956C109.807 205.4 112.076 201.975 112.291 201.59C112.506 201.205 111.698 204.696 112.291 206.942C112.884 209.188 116.805 217.364 116.805 217.364Z" fill="url(#paint24_linear_1556_5706)"/>
<path d="M108.777 206.756C108.777 206.756 106.665 226.978 106.68 230.254C106.695 233.53 120.259 233.96 120.259 233.96C120.259 233.96 118.199 250.646 120.504 252.729C122.809 254.811 160.85 287.085 165.831 293.69" stroke="#3269E0" stroke-width="0.741248" stroke-miterlimit="10"/>
<path d="M84.2128 358.023C84.1164 351.107 73.2497 266.064 73.5166 259.051C74.2578 240.305 106.791 213.895 106.791 213.895C107.6 212.77 108.161 211.486 108.437 210.129C108.615 208.409 108.274 206.823 109.578 205.682C110.883 204.54 112.721 200.7 113.544 199.492" stroke="#3269E0" stroke-width="0.741248" stroke-miterlimit="10"/>
<path d="M167.522 290.028C164.557 288.545 115.886 219.52 113.003 209.973C110.119 200.426 115.493 198.18 115.493 198.18L117.198 197.438" stroke="#3269E0" stroke-width="0.741248" stroke-miterlimit="10"/>
<path d="M122.7 175.046C122.7 175.046 121.365 169.783 116.214 169.768C111.062 169.753 110.647 176.751 111.21 180.405C111.774 184.059 116.332 187.758 118.949 188.729C121.566 189.7 125.123 183.874 124.619 181.057C124.184 178.994 123.54 176.98 122.7 175.046Z" fill="white"/>
<path d="M141.008 196.994C139 195.742 137.421 181.524 135.004 178.241C132.588 174.957 133.262 165.958 133.655 164.157C134.048 162.356 139.252 159.005 139.859 159.057C140.467 159.109 139.859 155.106 139.859 155.106C139.859 155.106 132.595 155.655 129.838 152.141C128.259 150.125 127.169 157.545 127.021 163.579C126.888 169.005 127.444 175.09 127.444 175.09C126.241 175.962 125.111 176.929 124.064 177.981C123.667 176.967 123.212 175.977 122.7 175.016C122.7 175.016 121.365 169.753 116.214 169.739C111.062 169.724 110.647 176.721 111.21 180.376C111.662 183.296 114.672 186.246 117.192 187.788C117.133 189.901 117.192 193.718 117.192 196.172C117.192 199.455 117.874 200.745 120.557 203.695C123.241 206.645 128.822 211.538 128.822 211.538C128.822 211.538 127.155 204.199 126.962 201.509C126.939 199.008 127.133 196.511 127.54 194.044C127.54 194.044 129.378 194.911 131.839 195.979C134.3 197.046 144.67 199.618 146.004 199.781C147.339 199.944 143.062 198.254 141.008 196.994Z" fill="url(#paint25_linear_1556_5706)"/>
<path d="M121.892 188.589C121.892 188.589 120.343 189.463 115.962 187.002C111.581 184.541 110.84 181.072 111.01 178.248C111.181 175.424 110.729 170.139 116.199 169.768C121.669 169.398 124.353 177.44 124.479 180.427" stroke="#898989" stroke-width="0.741248" stroke-linecap="round"/>
<path d="M139.043 157.456C136.419 159.116 135.189 160.503 133.462 161.903C131.32 163.616 132.446 163.897 133.862 163.386C137.524 162.043 141.283 160.979 145.107 160.206C147.331 159.695 146.226 157.871 145.848 156.166C145.277 155.343 145.351 158.331 144.929 158.39C144.506 158.449 144.425 156.737 144.188 156.411C143.95 156.085 141.423 155.951 139.043 157.456Z" fill="#0E1E66"/>
<defs>
<linearGradient id="paint0_linear_1556_5706" x1="146.557" y1="333.612" x2="417.761" y2="152.537" gradientUnits="userSpaceOnUse">
<stop stop-color="#D4E0FF" stop-opacity="0.8"/>
<stop offset="1" stop-color="#D4E0FF" stop-opacity="0.8"/>
</linearGradient>
<linearGradient id="paint1_linear_1556_5706" x1="42.348" y1="251.876" x2="513.352" y2="251.876" gradientUnits="userSpaceOnUse">
<stop stop-color="#D4E0FF" stop-opacity="0.8"/>
<stop offset="0.53" stop-color="#D4E0FF" stop-opacity="0"/>
<stop offset="0.55" stop-color="#D4E0FF" stop-opacity="0.03"/>
<stop offset="0.86" stop-color="#D4E0FF" stop-opacity="0.58"/>
<stop offset="1" stop-color="#D4E0FF" stop-opacity="0.8"/>
</linearGradient>
<linearGradient id="paint2_linear_1556_5706" x1="66.9867" y1="284.751" x2="307.032" y2="267.969" gradientUnits="userSpaceOnUse">
<stop stop-color="#F8FBFF"/>
<stop offset="0.17" stop-color="#F8FBFF" stop-opacity="0.77"/>
<stop offset="0.4" stop-color="#F8FBFF" stop-opacity="0.5"/>
<stop offset="0.6" stop-color="#F8FBFF" stop-opacity="0.29"/>
<stop offset="0.78" stop-color="#F8FBFF" stop-opacity="0.13"/>
<stop offset="0.92" stop-color="#F8FBFF" stop-opacity="0.03"/>
<stop offset="1" stop-color="#F8FBFF" stop-opacity="0"/>
</linearGradient>
<linearGradient id="paint3_linear_1556_5706" x1="157.896" y1="292.948" x2="419.816" y2="181.768" gradientUnits="userSpaceOnUse">
<stop stop-color="#F1F6FF" stop-opacity="0"/>
<stop offset="0.99" stop-color="#F1F6FF"/>
</linearGradient>
<linearGradient id="paint4_linear_1556_5706" x1="151.719" y1="248.556" x2="62.806" y2="337.476" gradientUnits="userSpaceOnUse">
<stop stop-color="#F8FBFF"/>
<stop offset="0.14" stop-color="#F8FBFF" stop-opacity="0.78"/>
<stop offset="0.32" stop-color="#F8FBFF" stop-opacity="0.55"/>
<stop offset="0.48" stop-color="#F8FBFF" stop-opacity="0.35"/>
<stop offset="0.64" stop-color="#F8FBFF" stop-opacity="0.2"/>
<stop offset="0.78" stop-color="#F8FBFF" stop-opacity="0.09"/>
<stop offset="0.91" stop-color="#F8FBFF" stop-opacity="0.02"/>
<stop offset="1" stop-color="#F8FBFF" stop-opacity="0"/>
</linearGradient>
<linearGradient id="paint5_linear_1556_5706" x1="282.845" y1="182.221" x2="529.265" y2="243.655" gradientUnits="userSpaceOnUse">
<stop stop-color="#F8FBFF" stop-opacity="0"/>
<stop offset="0.1" stop-color="#F8FBFF" stop-opacity="0.02"/>
<stop offset="0.22" stop-color="#F8FBFF" stop-opacity="0.09"/>
<stop offset="0.36" stop-color="#F8FBFF" stop-opacity="0.19"/>
<stop offset="0.51" stop-color="#F8FBFF" stop-opacity="0.34"/>
<stop offset="0.67" stop-color="#F8FBFF" stop-opacity="0.53"/>
<stop offset="0.84" stop-color="#F8FBFF" stop-opacity="0.76"/>
<stop offset="1" stop-color="#F8FBFF"/>
</linearGradient>
<linearGradient id="paint6_linear_1556_5706" x1="426.484" y1="212.849" x2="513.351" y2="212.849" gradientUnits="userSpaceOnUse">
<stop stop-color="#F8FBFF"/>
<stop offset="0.14" stop-color="#F8FBFF" stop-opacity="0.78"/>
<stop offset="0.32" stop-color="#F8FBFF" stop-opacity="0.55"/>
<stop offset="0.48" stop-color="#F8FBFF" stop-opacity="0.35"/>
<stop offset="0.64" stop-color="#F8FBFF" stop-opacity="0.2"/>
<stop offset="0.78" stop-color="#F8FBFF" stop-opacity="0.09"/>
<stop offset="0.91" stop-color="#F8FBFF" stop-opacity="0.02"/>
<stop offset="1" stop-color="#F8FBFF" stop-opacity="0"/>
</linearGradient>
<linearGradient id="paint7_linear_1556_5706" x1="202.568" y1="225.932" x2="453.14" y2="225.932" gradientUnits="userSpaceOnUse">
<stop stop-color="#D4E0FF" stop-opacity="0.8"/>
<stop offset="1" stop-color="#D4E0FF" stop-opacity="0.8"/>
</linearGradient>
<linearGradient id="paint8_linear_1556_5706" x1="73.5091" y1="296.855" x2="295.706" y2="296.855" gradientUnits="userSpaceOnUse">
<stop stop-color="#AFCAFF"/>
<stop offset="0.15" stop-color="#A8C4FC"/>
<stop offset="0.36" stop-color="#95B4F3"/>
<stop offset="0.62" stop-color="#7699E5"/>
<stop offset="0.9" stop-color="#4B74D1"/>
<stop offset="1" stop-color="#3A66C9"/>
</linearGradient>
<linearGradient id="paint9_linear_1556_5706" x1="40.8655" y1="322.969" x2="278.361" y2="322.969" gradientUnits="userSpaceOnUse">
<stop stop-color="#2B84E5" stop-opacity="0"/>
<stop offset="0.11" stop-color="#2E83E6" stop-opacity="0.17"/>
<stop offset="0.29" stop-color="#3281E7" stop-opacity="0.42"/>
<stop offset="0.46" stop-color="#357FE8" stop-opacity="0.63"/>
<stop offset="0.62" stop-color="#387EE8" stop-opacity="0.79"/>
<stop offset="0.77" stop-color="#397DE9" stop-opacity="0.91"/>
<stop offset="0.9" stop-color="#3B7CE9" stop-opacity="0.98"/>
<stop offset="1" stop-color="#3B7CE9"/>
</linearGradient>
<linearGradient id="paint10_linear_1556_5706" x1="102.952" y1="93.5084" x2="150.533" y2="75.2366" gradientUnits="userSpaceOnUse">
<stop stop-color="#94C8FF"/>
<stop offset="1" stop-color="white"/>
</linearGradient>
<linearGradient id="paint11_linear_1556_5706" x1="101.262" y1="84.3688" x2="152.223" y2="84.3688" gradientUnits="userSpaceOnUse">
<stop stop-color="#4D75D5"/>
<stop offset="0.04" stop-color="#4D75D5" stop-opacity="0.94"/>
<stop offset="0.23" stop-color="#4D75D5" stop-opacity="0.66"/>
<stop offset="0.42" stop-color="#4E75D4" stop-opacity="0.42"/>
<stop offset="0.6" stop-color="#4E75D4" stop-opacity="0.24"/>
<stop offset="0.76" stop-color="#4E75D4" stop-opacity="0.11"/>
<stop offset="0.9" stop-color="#4E75D4" stop-opacity="0.03"/>
<stop offset="1" stop-color="#4E75D4" stop-opacity="0"/>
</linearGradient>
<linearGradient id="paint12_linear_1556_5706" x1="265.027" y1="457.053" x2="297.746" y2="424.335" gradientUnits="userSpaceOnUse">
<stop stop-color="#4D75D5"/>
<stop offset="0.49" stop-color="#A1B6E9"/>
<stop offset="1" stop-color="white"/>
</linearGradient>
<linearGradient id="paint13_linear_1556_5706" x1="259.646" y1="457.053" x2="292.357" y2="424.335" gradientUnits="userSpaceOnUse">
<stop stop-color="#1B44C0"/>
<stop offset="0.01" stop-color="#1B44C0"/>
<stop offset="0.41" stop-color="#1A63D2"/>
<stop offset="0.76" stop-color="#1975DD"/>
<stop offset="1" stop-color="#197CE1"/>
</linearGradient>
<linearGradient id="paint14_linear_1556_5706" x1="390.296" y1="73.4502" x2="416.047" y2="47.6993" gradientUnits="userSpaceOnUse">
<stop stop-color="#4D75D5"/>
<stop offset="0.49" stop-color="#A1B6E9"/>
<stop offset="1" stop-color="white"/>
</linearGradient>
<linearGradient id="paint15_linear_1556_5706" x1="386.31" y1="73.4502" x2="412.061" y2="47.6993" gradientUnits="userSpaceOnUse">
<stop stop-color="#AFCAFF"/>
<stop offset="0.15" stop-color="#A8C4FC"/>
<stop offset="0.36" stop-color="#95B4F3"/>
<stop offset="0.62" stop-color="#7699E5"/>
<stop offset="0.9" stop-color="#4B74D1"/>
<stop offset="1" stop-color="#3A66C9"/>
</linearGradient>
<linearGradient id="paint16_linear_1556_5706" x1="428.672" y1="236.45" x2="490.7" y2="236.45" gradientUnits="userSpaceOnUse">
<stop stop-color="#F1F6FF" stop-opacity="0"/>
<stop offset="0.99" stop-color="#F1F6FF" stop-opacity="0.5"/>
</linearGradient>
<linearGradient id="paint17_linear_1556_5706" x1="432.963" y1="154.847" x2="450.99" y2="154.847" gradientUnits="userSpaceOnUse">
<stop stop-color="#F1F6FF" stop-opacity="0"/>
<stop offset="0.99" stop-color="#F1F6FF" stop-opacity="0.5"/>
</linearGradient>
<linearGradient id="paint18_linear_1556_5706" x1="50.8557" y1="331.783" x2="382.416" y2="249.111" gradientUnits="userSpaceOnUse">
<stop stop-color="#AFCAFF"/>
<stop offset="0.15" stop-color="#A8C4FC"/>
<stop offset="0.36" stop-color="#95B4F3"/>
<stop offset="0.62" stop-color="#7699E5"/>
<stop offset="0.9" stop-color="#4B74D1"/>
<stop offset="1" stop-color="#3A66C9"/>
</linearGradient>
<linearGradient id="paint19_linear_1556_5706" x1="365.271" y1="261.586" x2="514.833" y2="261.586" gradientUnits="userSpaceOnUse">
<stop stop-color="#3B7CE9"/>
<stop offset="0.1" stop-color="#3B7CE9" stop-opacity="0.98"/>
<stop offset="0.23" stop-color="#397DE9" stop-opacity="0.91"/>
<stop offset="0.38" stop-color="#387EE8" stop-opacity="0.79"/>
<stop offset="0.54" stop-color="#357FE8" stop-opacity="0.63"/>
<stop offset="0.71" stop-color="#3281E7" stop-opacity="0.42"/>
<stop offset="0.89" stop-color="#2E83E6" stop-opacity="0.17"/>
<stop offset="1" stop-color="#2B84E5" stop-opacity="0"/>
</linearGradient>
<linearGradient id="paint20_linear_1556_5706" x1="132.401" y1="226.162" x2="113.143" y2="205.496" gradientUnits="userSpaceOnUse">
<stop stop-color="#4E75D4" stop-opacity="0"/>
<stop offset="0.14" stop-color="#4E75D4" stop-opacity="0.03"/>
<stop offset="0.34" stop-color="#4E75D4" stop-opacity="0.11"/>
<stop offset="0.56" stop-color="#4E75D4" stop-opacity="0.24"/>
<stop offset="0.8" stop-color="#4D75D5" stop-opacity="0.42"/>
<stop offset="1" stop-color="#4D75D5" stop-opacity="0.6"/>
</linearGradient>
<linearGradient id="paint21_linear_1556_5706" x1="73.6938" y1="312.095" x2="257.938" y2="312.095" gradientUnits="userSpaceOnUse">
<stop stop-color="#4D75D5" stop-opacity="0.4"/>
<stop offset="0.09" stop-color="#4D75D5" stop-opacity="0.34"/>
<stop offset="0.34" stop-color="#4E75D4" stop-opacity="0.19"/>
<stop offset="0.57" stop-color="#4E75D4" stop-opacity="0.08"/>
<stop offset="0.8" stop-color="#4E75D4" stop-opacity="0.02"/>
<stop offset="1" stop-color="#4E75D4" stop-opacity="0"/>
</linearGradient>
<linearGradient id="paint22_linear_1556_5706" x1="74.4668" y1="232.819" x2="108.312" y2="232.819" gradientUnits="userSpaceOnUse">
<stop stop-color="#4D75D5"/>
<stop offset="0.04" stop-color="#4D75D5" stop-opacity="0.94"/>
<stop offset="0.23" stop-color="#4D75D5" stop-opacity="0.66"/>
<stop offset="0.42" stop-color="#4E75D4" stop-opacity="0.42"/>
<stop offset="0.6" stop-color="#4E75D4" stop-opacity="0.24"/>
<stop offset="0.76" stop-color="#4E75D4" stop-opacity="0.11"/>
<stop offset="0.9" stop-color="#4E75D4" stop-opacity="0.03"/>
<stop offset="1" stop-color="#4E75D4" stop-opacity="0"/>
</linearGradient>
<linearGradient id="paint23_linear_1556_5706" x1="117.584" y1="348.016" x2="121.001" y2="396.886" gradientUnits="userSpaceOnUse">
<stop stop-color="#AFCAFF"/>
<stop offset="0.15" stop-color="#A8C4FC"/>
<stop offset="0.36" stop-color="#95B4F3"/>
<stop offset="0.62" stop-color="#7699E5"/>
<stop offset="0.9" stop-color="#4B74D1"/>
<stop offset="1" stop-color="#3A66C9"/>
</linearGradient>
<linearGradient id="paint24_linear_1556_5706" x1="106.754" y1="226.325" x2="130.31" y2="226.325" gradientUnits="userSpaceOnUse">
<stop stop-color="#4D75D5"/>
<stop offset="0.04" stop-color="#4D75D5" stop-opacity="0.94"/>
<stop offset="0.23" stop-color="#4D75D5" stop-opacity="0.66"/>
<stop offset="0.42" stop-color="#4E75D4" stop-opacity="0.42"/>
<stop offset="0.6" stop-color="#4E75D4" stop-opacity="0.24"/>
<stop offset="0.76" stop-color="#4E75D4" stop-opacity="0.11"/>
<stop offset="0.9" stop-color="#4E75D4" stop-opacity="0.03"/>
<stop offset="1" stop-color="#4E75D4" stop-opacity="0"/>
</linearGradient>
<linearGradient id="paint25_linear_1556_5706" x1="111.018" y1="181.702" x2="146.271" y2="181.702" gradientUnits="userSpaceOnUse">
<stop stop-color="#969696"/>
<stop offset="0.79" stop-color="#C4C4C4" stop-opacity="0"/>
</linearGradient>
</defs>
</svg>
