<svg width="50" height="50" viewBox="0 0 50 50" fill="none" xmlns="http://www.w3.org/2000/svg">
<path d="M2.52468 5.75292C2.85594 3.99232 4.25351 2.62792 6.02226 2.3338C20.8703 -0.135236 30.1229 -0.0812501 43.9702 2.31586C45.7198 2.61873 47.1003 3.97343 47.4326 5.71666C50.2919 20.713 50.0873 30.0758 47.4234 44.2753C47.094 46.0312 45.7079 47.3978 43.948 47.6993C29.6256 50.1528 20.3676 50.0523 6.0485 47.6832C4.26813 47.3886 2.8624 46.0105 2.53612 44.2367C-0.140206 29.6877 -0.213065 20.3036 2.52468 5.75292Z" fill="white" stroke="#E4E4E4"/>
<path d="M25 40C33.2843 40 40 33.2843 40 25C40 16.7157 33.2843 10 25 10C16.7157 10 10 16.7157 10 25C10 33.2843 16.7157 40 25 40Z" fill="#FF4500"/>
<path d="M35.0054 25.0002C35.0054 23.783 34.0209 22.8164 32.8217 22.8164C32.231 22.8164 31.694 23.0491 31.3002 23.425C29.7966 22.351 27.7381 21.6529 25.447 21.5634L26.4493 16.8737L29.7071 17.5718C29.7429 18.3951 30.4231 19.0574 31.2644 19.0574C32.1236 19.0574 32.8217 18.3593 32.8217 17.5002C32.8217 16.641 32.1236 15.9429 31.2644 15.9429C30.6558 15.9429 30.1188 16.3009 29.8682 16.82L26.2345 16.0503C26.1271 16.0324 26.0198 16.0503 25.9482 16.104C25.8587 16.1577 25.805 16.2472 25.7871 16.3546L24.6773 21.5813C22.3503 21.6529 20.256 22.351 18.7345 23.4429C18.3408 23.067 17.8038 22.8343 17.2131 22.8343C15.9959 22.8343 15.0293 23.8188 15.0293 25.018C15.0293 25.913 15.5663 26.6648 16.3181 27.0049C16.2823 27.2197 16.2644 27.4345 16.2644 27.6672C16.2644 31.0324 20.1844 33.771 25.0174 33.771C29.8503 33.771 33.7703 31.0503 33.7703 27.6672C33.7703 27.4524 33.7524 27.2197 33.7166 27.0049C34.4684 26.6648 35.0054 25.8951 35.0054 25.0002ZM20.0054 26.5574C20.0054 25.6982 20.7035 25.0002 21.5627 25.0002C22.4219 25.0002 23.12 25.6982 23.12 26.5574C23.12 27.4166 22.4219 28.1147 21.5627 28.1147C20.7035 28.1326 20.0054 27.4166 20.0054 26.5574ZM28.7226 30.6923C27.6486 31.7663 25.6081 31.8379 25.0174 31.8379C24.4088 31.8379 22.3682 31.7484 21.3121 30.6923C21.151 30.5312 21.151 30.2806 21.3121 30.1195C21.4732 29.9584 21.7238 29.9584 21.8849 30.1195C22.5651 30.7997 23.9971 31.0324 25.0174 31.0324C26.0376 31.0324 27.4875 30.7997 28.1498 30.1195C28.3109 29.9584 28.5615 29.9584 28.7226 30.1195C28.8658 30.2806 28.8658 30.5312 28.7226 30.6923ZM28.4362 28.1326C27.577 28.1326 26.8789 27.4345 26.8789 26.5753C26.8789 25.7161 27.577 25.018 28.4362 25.018C29.2954 25.018 29.9935 25.7161 29.9935 26.5753C29.9935 27.4166 29.2954 28.1326 28.4362 28.1326Z" fill="white"/>
</svg>
