<svg width="21" height="19" viewBox="0 0 21 19" fill="none" xmlns="http://www.w3.org/2000/svg">
    <path d="M18.8433 15.8196L14.7049 11.681C15.4081 10.5616 15.8162 9.23853 15.8162 7.81863C15.8162 3.80154 12.5596 0.545471 8.5427 0.545471C4.52576 0.545471 1.26953 3.80154 1.26953 7.81863C1.26953 11.8359 4.5256 15.0916 8.5427 15.0916C10.0879 15.0916 11.5192 14.6085 12.6969 13.7877L16.786 17.877C17.0701 18.1609 17.4426 18.3023 17.8146 18.3023C18.1871 18.3023 18.5591 18.1609 18.8437 17.877C19.4115 17.3086 19.4115 16.3879 18.8433 15.8196ZM8.5427 12.7352C5.82761 12.7352 3.62638 10.5342 3.62638 7.81893C3.62638 5.1037 5.82761 2.90247 8.5427 2.90247C11.2579 2.90247 13.459 5.1037 13.459 7.81893C13.459 10.5342 11.2579 12.7352 8.5427 12.7352Z" fill="#3399FF"/>
    </svg>
    