<svg width="50" height="50" viewBox="0 0 50 50" fill="none" xmlns="http://www.w3.org/2000/svg">
<path d="M2.52468 5.75292C2.85594 3.99232 4.25351 2.62792 6.02226 2.3338C20.8703 -0.135236 30.1229 -0.0812501 43.9702 2.31586C45.7198 2.61873 47.1003 3.97343 47.4326 5.71666C50.2919 20.713 50.0873 30.0758 47.4234 44.2753C47.094 46.0312 45.7079 47.3978 43.948 47.6993C29.6256 50.1528 20.3676 50.0523 6.0485 47.6832C4.26813 47.3886 2.8624 46.0105 2.53612 44.2367C-0.140206 29.6877 -0.213065 20.3036 2.52468 5.75292Z" fill="white" stroke="#E4E4E4"/>
<path fill-rule="evenodd" clip-rule="evenodd" d="M36.3228 13.2128C36.6782 13.0614 37.0663 13.0102 37.4472 13.0645C37.8281 13.1188 38.1882 13.2765 38.4905 13.5217C38.7929 13.7668 39.0267 14.0905 39.1679 14.4595C39.3092 14.8286 39.3528 15.2297 39.2944 15.6219C38.4518 21.2764 36.907 31.6379 36.0869 37.138C36.0302 37.5186 35.8793 37.8777 35.6487 38.1804C35.4182 38.4832 35.1158 38.7195 34.7709 38.8665C34.426 39.0134 34.0501 39.0661 33.6797 39.0193C33.3093 38.9726 32.9569 38.828 32.6564 38.5996C29.7556 36.3942 25.4063 33.0876 23.1982 31.4081C23.0278 31.2786 22.887 31.112 22.7859 30.9201C22.6847 30.7282 22.6256 30.5158 22.6127 30.2977C22.5998 30.0797 22.6335 29.8614 22.7113 29.6583C22.7891 29.4552 22.9092 29.2722 23.0631 29.1222C25.0865 27.1503 29.1164 23.2229 31.8891 20.5207C31.9544 20.4566 31.9942 20.3697 32.0006 20.277C32.0071 20.1842 31.9797 20.0924 31.924 20.0193C31.8682 19.9463 31.788 19.8974 31.6991 19.8822C31.6102 19.8671 31.5191 19.8867 31.4434 19.9372C27.8883 22.3299 22.4436 25.9939 19.7751 27.7897C19.275 28.1262 18.7129 28.3527 18.1241 28.4547C17.5353 28.5568 16.9324 28.5323 16.3532 28.3828C14.8838 28.0038 12.7643 27.4569 10.8782 26.9705C10.5829 26.8944 10.3184 26.724 10.1224 26.4837C9.92643 26.2434 9.80891 25.9454 9.7866 25.6322C9.7643 25.3189 9.83835 25.0064 9.99821 24.7392C10.1581 24.4719 10.3956 24.2635 10.6769 24.1436C17.2428 21.3451 30.0921 15.8689 36.3228 13.2128Z" fill="#32B4FF"/>
</svg>
