<svg width="50" height="50" viewBox="0 0 50 50" fill="none" xmlns="http://www.w3.org/2000/svg">
<path d="M2.52468 5.75292C2.85594 3.99232 4.25351 2.62792 6.02226 2.3338C20.8703 -0.135236 30.1229 -0.0812501 43.9702 2.31586C45.7198 2.61873 47.1003 3.97343 47.4326 5.71666C50.2919 20.713 50.0873 30.0758 47.4234 44.2753C47.094 46.0312 45.7079 47.3978 43.948 47.6993C29.6256 50.1528 20.3676 50.0523 6.0485 47.6832C4.26813 47.3886 2.8624 46.0105 2.53612 44.2367C-0.140206 29.6877 -0.213065 20.3036 2.52468 5.75292Z" fill="white" stroke="#E4E4E4"/>
<path d="M19.5665 35.8695C30.2625 35.8695 36.1948 27.161 35.8343 19.5545C36.6268 19.0054 37.3431 18.3619 37.9661 17.6395C38.0133 17.5836 38.0404 17.5145 38.0432 17.4426C38.0461 17.3708 38.0246 17.2999 37.982 17.2408C37.9393 17.1816 37.8778 17.1372 37.8067 17.1144C37.7356 17.0915 37.6587 17.0913 37.5874 17.1139C37.1172 17.2588 36.6378 17.3751 36.1523 17.4623C36.1139 17.4688 36.0743 17.4628 36.0399 17.4451C36.0055 17.4274 35.9783 17.3992 35.9627 17.3649C35.9471 17.3306 35.944 17.2923 35.9538 17.2561C35.9636 17.2199 35.9859 17.188 36.017 17.1654C36.6419 16.6913 37.1571 16.0977 37.5296 15.4222C37.5618 15.3607 37.573 15.291 37.5616 15.223C37.5503 15.1549 37.5169 15.0921 37.4663 15.0432C37.4156 14.9944 37.3503 14.962 37.2794 14.9507C37.2086 14.9394 37.1358 14.9498 37.0714 14.9803C36.1843 15.3855 35.2477 15.6823 34.2834 15.8635C33.4983 15.061 32.4797 14.5034 31.3599 14.263C30.2401 14.0225 29.0707 14.1105 28.0037 14.5153C26.9367 14.9202 26.0212 15.6233 25.3762 16.5333C24.7312 17.4434 24.3864 18.5184 24.3866 19.6187C24.3881 19.9684 24.4224 20.3173 24.4891 20.6611C24.494 20.6861 24.4929 20.7119 24.4859 20.7364C24.4789 20.7609 24.4661 20.7836 24.4486 20.8027C24.431 20.8218 24.4091 20.8368 24.3846 20.8466C24.3601 20.8563 24.3336 20.8606 24.3071 20.859C20.1666 20.6051 16.2848 18.8405 13.4591 15.9277C13.3774 15.8408 13.2733 15.7762 13.1572 15.7402C13.0412 15.7043 12.9173 15.6984 12.798 15.7231C12.6788 15.7478 12.5685 15.8022 12.4783 15.8809C12.388 15.9595 12.321 16.0597 12.284 16.1711C11.8936 17.2129 11.8512 18.3455 12.1627 19.4114C12.4743 20.4774 13.1243 21.4239 14.0225 22.1194C14.0517 22.1417 14.0724 22.1726 14.0814 22.2074C14.0905 22.2421 14.0874 22.2787 14.0727 22.3115C14.058 22.3444 14.0324 22.3718 13.9999 22.3893C13.9674 22.4069 13.9298 22.4138 13.8928 22.4089C13.5659 22.3662 13.2436 22.2955 12.9298 22.1976C12.8153 22.1609 12.6927 22.1537 12.5743 22.1767C12.456 22.1997 12.346 22.2521 12.2554 22.3287C12.1625 22.4036 12.0929 22.5015 12.0542 22.6117C12.0154 22.722 12.0091 22.8404 12.0358 22.9539C13.2478 27.4285 16.5302 26.8581 16.5302 27.1971C16.5302 27.4265 15.881 27.4265 15.0107 27.4285C14.8929 27.429 14.7772 27.4585 14.6748 27.5143C14.5723 27.57 14.4865 27.65 14.4256 27.7467C14.3647 27.8434 14.3307 27.9534 14.3269 28.0663C14.3231 28.1792 14.3497 28.2911 14.404 28.3913C14.862 29.1464 15.4999 29.7869 16.2656 30.2604C17.0312 30.7338 17.9028 31.0268 18.8092 31.1154C18.8444 31.118 18.8779 31.1309 18.9053 31.1523C18.9326 31.1738 18.9524 31.2028 18.962 31.2354C18.9716 31.268 18.9705 31.3027 18.9589 31.3346C18.9472 31.3666 18.9257 31.3944 18.897 31.4143C17.3139 32.5122 15.4634 33.2022 13.5225 33.4182C13.3723 33.4296 13.2303 33.4889 13.1193 33.5866C13.0082 33.6843 12.9344 33.8148 12.9096 33.9573C12.8848 34.0999 12.9105 34.2463 12.9825 34.3732C13.0545 34.5002 13.1688 34.6004 13.3071 34.6579C15.2874 35.4609 17.4163 35.873 19.5665 35.8695Z" fill="#2EC5F4"/>
</svg>
